<svg width="360" height="194" viewBox="0 0 360 194" fill="none" xmlns="http://www.w3.org/2000/svg">
<path d="M359.49 70.63H153.86L142.68 33.04L164.51 0.970001H359.49V70.63Z" fill="#E55110"/>
<path d="M12.05 0.970001H66.12L62.88 18.77H34.23L32.87 26.99H57.91L54.67 44.86H29.94L28.58 52.93H60.63L57.46 70.8H0.51001L12.05 0.970001Z" fill="white"/>
<path d="M107.66 43.58L94.46 70.8H64.98L85.26 35.06L75.24 0.970001H104.35L110.16 26.38L123.43 0.970001H153.82L132.1 33.77L143.56 70.79H113.55L107.67 43.57L107.66 43.58Z" fill="white"/>
<path d="M11.75 78.04H42.14C62.27 78.04 70.49 89.95 68.31 103.98C65.52 121.17 50.06 131.2 28.5 131.43H28.42L25.86 147.87L0.75 148.1L11.76 78.05L11.75 78.04ZM35.27 111.29C39.57 111.29 43.94 108.5 44.55 102.47C45 98.02 42.14 95.23 37.54 95.23C36.41 95.23 35.2 95.31 34 95.31L31.51 111.3H35.28L35.27 111.29Z" fill="white"/>
<path d="M67.47 116.12C71.24 95.16 86.92 78.04 110.83 78.04C134.74 78.04 144.24 95.16 140.46 116.12C136.76 137.16 121.16 154.13 97.25 154.13C73.34 154.13 63.77 137.16 67.46 116.12H67.47ZM101.25 131.43C108.26 131.43 113.09 124.57 114.52 116.12C116.1 107.6 113.84 100.66 106.68 100.66C99.52 100.66 94.99 107.6 93.41 116.12C91.98 124.57 94.24 131.43 101.25 131.43Z" fill="white"/>
<path d="M169.63 58.04C166.75 58.04 164.51 57.18 162.9 55.45C161.29 53.73 160.49 51.18 160.49 47.82V39.98H166.96V47.5C166.96 48.37 167.01 49.17 167.12 49.9C167.23 50.63 167.46 51.22 167.81 51.65C168.16 52.08 168.7 52.3 169.43 52.3C170.16 52.3 170.7 52.09 171.05 51.66C171.4 51.24 171.63 50.64 171.75 49.86C171.87 49.09 171.92 48.17 171.92 47.1V13.58H178.61V46.77C178.61 50.38 177.81 53.16 176.22 55.11C174.63 57.06 172.43 58.03 169.61 58.03L169.63 58.04Z" fill="white"/>
<path d="M180.7 57.54L186.97 13.58H195.81L202.48 57.54H196.24L195.19 49.7H188.1L187.15 57.54H180.71H180.7ZM188.74 44.33H194.48L191.53 22.25H191.43L188.73 44.33H188.74Z" fill="white"/>
<path d="M208.88 57.54L202.06 13.58H208.43L211.3 33.44L213.07 47.43H213.24L214.76 33.44L217.16 13.58H223.4L217.13 57.54H208.86H208.88Z" fill="white"/>
<path d="M225.59 57.54V13.58H240.33V19.35H232.29V32.14H239.93V37.78H232.29V51.77H240.63V57.54H225.59Z" fill="white"/>
<path d="M243.52 57.54V13.58H254.58C256.88 13.58 258.59 14.03 259.73 14.93C260.86 15.83 261.61 17.14 261.97 18.88C262.33 20.61 262.51 22.73 262.51 25.22C262.51 27.71 262.25 29.83 261.72 31.3C261.2 32.77 260.13 33.76 258.51 34.26C259.28 34.39 259.92 34.71 260.43 35.2C260.95 35.69 261.36 36.41 261.68 37.35C262 38.29 262.23 39.5 262.37 40.97C262.51 42.44 262.58 44.25 262.58 46.38V47.78C262.58 48.55 262.58 49.45 262.59 50.49C262.59 51.53 262.61 52.57 262.63 53.6C262.65 54.63 262.67 55.51 262.7 56.25C262.73 56.98 262.77 57.42 262.82 57.55H256.13C256.08 57.47 256.04 57.04 256.02 56.26C255.99 55.49 255.97 54.5 255.95 53.3C255.92 52.1 255.91 50.81 255.9 49.43C255.9 48.05 255.89 46.69 255.89 45.35V41.79C255.89 40.47 255.79 39.48 255.6 38.81C255.41 38.14 255.06 37.67 254.55 37.4C254.04 37.13 253.31 36.98 252.36 36.93L250.21 36.81V57.57H243.52V57.54ZM250.24 31.59H252.91C253.73 31.59 254.35 31.41 254.77 31.04C255.19 30.67 255.49 30 255.64 29.02C255.8 28.04 255.88 26.62 255.88 24.77V24.5C255.88 22.95 255.81 21.76 255.66 20.93C255.51 20.1 255.2 19.52 254.72 19.21C254.25 18.89 253.51 18.74 252.51 18.74H250.24V31.6V31.59Z" fill="white"/>
<path d="M266.38 57.54V13.58H273.07V57.54H266.38Z" fill="white"/>
<path d="M275.15 57.54L281.42 13.58H290.26L296.93 57.54H290.69L289.64 49.7H282.55L281.6 57.54H275.16H275.15ZM283.19 44.33H288.93L285.98 22.25H285.88L283.18 44.33H283.19Z" fill="white"/>
<path d="M298.85 57.54V13.58H304.09L313.41 39.95L312.94 27.96V13.57H318.96V57.53H314.21L304.64 30.23L305.01 41.77V57.53H298.84L298.85 57.54Z" fill="white"/>
<path d="M320.91 57.54L327.18 13.58H336.02L342.69 57.54H336.45L335.4 49.7H328.31L327.36 57.54H320.92H320.91ZM328.95 44.33H334.69L331.74 22.25H331.64L328.94 44.33H328.95Z" fill="white"/>
<path d="M200.45 138.23V150.11H160.39V140.06L178.3 117.58C179.76 115.42 180.93 113.48 181.79 111.76C182.66 110.04 183.29 108.48 183.69 107.08C184.09 105.68 184.28 104.42 184.28 103.29C184.28 101.37 184.1 99.77 183.73 98.47C183.36 97.18 182.84 96.19 182.15 95.52C181.46 94.85 180.62 94.51 179.61 94.51C178.51 94.51 177.57 94.97 176.78 95.88C175.99 96.79 175.39 98.04 174.98 99.63C174.57 101.21 174.36 103 174.36 104.97H159.28C159.28 100.89 160.15 97.16 161.88 93.78C163.62 90.4 166.04 87.7 169.14 85.67C172.24 83.64 175.86 82.63 179.97 82.63C184.08 82.63 187.8 83.39 190.68 84.91C193.56 86.43 195.72 88.63 197.17 91.51C198.62 94.39 199.34 97.85 199.34 101.9C199.34 104.21 199.03 106.44 198.43 108.57C197.82 110.7 196.94 112.81 195.78 114.9C194.62 116.99 193.19 119.13 191.49 121.32C189.78 123.51 187.82 125.84 185.6 128.31L180.07 138.22H200.44L200.45 138.23Z" fill="white"/>
<path d="M248.23 110.78V122.93C248.23 127.71 247.74 131.87 246.77 135.4C245.79 138.93 244.42 141.86 242.64 144.17C240.86 146.48 238.75 148.21 236.31 149.33C233.87 150.46 231.21 151.02 228.32 151.02C226.01 151.02 223.82 150.66 221.76 149.95C219.7 149.23 217.85 148.14 216.21 146.66C214.57 145.18 213.15 143.33 211.96 141.11C210.77 138.89 209.86 136.26 209.22 133.23C208.58 130.2 208.26 126.77 208.26 122.93V110.78C208.26 105.97 208.75 101.8 209.72 98.29C210.69 94.77 212.09 91.86 213.9 89.54C215.71 87.23 217.84 85.5 220.27 84.38C222.71 83.25 225.37 82.69 228.26 82.69C230.57 82.69 232.74 83.05 234.77 83.76C236.8 84.48 238.64 85.57 240.3 87.05C241.96 88.53 243.38 90.38 244.57 92.6C245.76 94.82 246.66 97.45 247.29 100.48C247.91 103.51 248.23 106.94 248.23 110.78ZM233.29 124.8V108.81C233.29 106.68 233.21 104.82 233.06 103.24C232.91 101.66 232.68 100.32 232.37 99.22C232.07 98.12 231.71 97.23 231.3 96.55C230.89 95.86 230.42 95.36 229.91 95.04C229.39 94.72 228.84 94.56 228.27 94.56C227.51 94.56 226.82 94.81 226.21 95.31C225.6 95.81 225.07 96.61 224.61 97.71C224.15 98.81 223.81 100.27 223.58 102.1C223.35 103.93 223.24 106.17 223.24 108.82V124.81C223.24 126.97 223.32 128.85 223.49 130.45C223.66 132.05 223.88 133.4 224.15 134.52C224.42 135.63 224.77 136.53 225.2 137.22C225.63 137.91 226.11 138.4 226.64 138.7C227.17 139 227.73 139.16 228.31 139.16C229.04 139.16 229.7 138.92 230.3 138.43C230.89 137.94 231.42 137.14 231.88 136.03C232.34 134.92 232.69 133.44 232.93 131.6C233.17 129.76 233.3 127.5 233.3 124.82L233.29 124.8Z" fill="white"/>
<path d="M296.11 138.23V150.11H256.05V140.06L273.96 117.58C275.42 115.42 276.59 113.48 277.45 111.76C278.32 110.04 278.95 108.48 279.35 107.08C279.75 105.68 279.94 104.42 279.94 103.29C279.94 101.37 279.76 99.77 279.39 98.47C279.02 97.18 278.5 96.19 277.81 95.52C277.12 94.85 276.28 94.51 275.27 94.51C274.17 94.51 273.23 94.97 272.44 95.88C271.65 96.79 271.05 98.04 270.64 99.63C270.23 101.21 270.02 103 270.02 104.97H254.94C254.94 100.89 255.81 97.16 257.54 93.78C259.28 90.4 261.7 87.7 264.8 85.67C267.9 83.64 271.52 82.63 275.63 82.63C279.74 82.63 283.46 83.39 286.34 84.91C289.22 86.43 291.38 88.63 292.83 91.51C294.28 94.39 295 97.85 295 101.9C295 104.21 294.69 106.44 294.09 108.57C293.48 110.7 292.6 112.81 291.44 114.9C290.28 116.99 288.85 119.13 287.15 121.32C285.44 123.51 283.48 125.84 281.26 128.31L275.73 138.22H296.1L296.11 138.23Z" fill="white"/>
<path d="M333.7 82.63H336.03V94.74H335.34C333.03 94.74 330.86 95.15 328.85 95.97C326.84 96.79 325.07 98.03 323.55 99.69C322.03 101.35 320.85 103.44 320.03 105.97C319.21 108.5 318.8 111.47 318.8 114.88V126.53C318.8 128.66 318.91 130.52 319.14 132.1C319.37 133.68 319.7 134.99 320.14 136.03C320.58 137.07 321.16 137.84 321.88 138.36C322.59 138.88 323.44 139.14 324.42 139.14C325.21 139.14 325.95 138.87 326.64 138.32C327.33 137.77 327.92 136.99 328.42 135.99C328.92 134.99 329.31 133.81 329.58 132.47C329.85 131.13 329.99 129.67 329.99 128.08C329.99 126.37 329.83 124.84 329.51 123.47C329.19 122.1 328.76 120.93 328.23 119.98C327.7 119.02 327.06 118.29 326.31 117.79C325.56 117.29 324.78 117.04 323.96 117.04C322.53 117.04 321.36 117.47 320.46 118.34C319.56 119.21 318.91 120.31 318.52 121.65C318.12 122.99 317.93 124.35 317.93 125.72L314.55 121.97C314.49 120.14 314.76 118.25 315.35 116.31C315.94 114.36 316.85 112.55 318.07 110.87C319.29 109.2 320.83 107.84 322.71 106.8C324.58 105.76 326.78 105.25 329.31 105.25C331.84 105.25 334.12 105.83 336.07 106.99C338.02 108.15 339.66 109.76 341 111.83C342.34 113.9 343.35 116.32 344.04 119.09C344.73 121.86 345.07 124.86 345.07 128.09C345.07 131.32 344.57 134.37 343.56 137.16C342.55 139.95 341.16 142.38 339.38 144.45C337.6 146.52 335.47 148.14 332.98 149.29C330.5 150.45 327.78 151.03 324.83 151.03C321.88 151.03 319.04 150.43 316.49 149.23C313.95 148.03 311.72 146.28 309.8 143.98C307.88 141.68 306.4 138.87 305.35 135.55C304.3 132.23 303.77 128.47 303.77 124.27V118.65C303.77 112.96 304.57 107.88 306.17 103.44C307.77 98.99 309.96 95.23 312.75 92.13C315.54 89.04 318.73 86.69 322.34 85.07C325.95 83.46 329.73 82.65 333.69 82.65L333.7 82.63Z" fill="white"/>
<path d="M2.37002 165.23H8.80001C13.17 165.23 15.31 167.65 15.31 172.1V174.84C15.31 179.29 13.17 181.71 8.80001 181.71H6.73001V193.03H2.36002V165.23H2.37002ZM8.80001 177.74C10.19 177.74 10.94 177.1 10.94 175.12V171.82C10.94 169.83 10.19 169.2 8.80001 169.2H6.73001V177.74H8.80001Z" fill="white"/>
<path d="M43.24 164.76H49.71C54.24 164.76 56.18 166.87 56.18 171.16V172.87C56.18 175.73 55.27 177.56 53.32 178.35V178.43C55.5 179.1 56.22 181.17 56.22 184.31V189.2C56.22 190.55 56.26 191.54 56.7 192.58H52.25C52.01 191.87 51.85 191.43 51.85 189.16V184.08C51.85 181.5 51.1 180.66 49.11 180.66H47.6V192.58H43.23V164.78L43.24 164.76ZM49.19 176.67C50.82 176.67 51.81 175.96 51.81 173.73V171.58C51.81 169.59 51.13 168.72 49.59 168.72H47.6V176.66H49.19V176.67Z" fill="white"/>
<path d="M331.22 185.83V184.24H335.35V186.15C335.35 188.14 336.22 188.85 337.61 188.85C339 188.85 339.91 188.14 339.91 186.07C339.91 183.77 338.96 182.34 336.1 179.83C332.45 176.61 331.21 174.31 331.21 171.13C331.21 166.76 333.47 164.22 337.72 164.22C341.97 164.22 344.07 166.76 344.07 171.21V172.36H339.94V170.93C339.94 168.94 339.15 168.19 337.76 168.19C336.37 168.19 335.54 168.94 335.54 170.85C335.54 172.88 336.53 174.31 339.39 176.81C343.04 180.03 344.24 182.29 344.24 185.75C344.24 190.28 341.94 192.82 337.65 192.82C333.36 192.82 331.22 190.28 331.22 185.83Z" fill="white"/>
<path d="M289.58 185.83V171.21C289.58 166.76 291.92 164.22 296.21 164.22C300.5 164.22 302.84 166.76 302.84 171.21V185.83C302.84 190.28 300.5 192.82 296.21 192.82C291.92 192.82 289.58 190.28 289.58 185.83ZM298.47 186.11V170.94C298.47 168.95 297.6 168.2 296.21 168.2C294.82 168.2 293.95 168.95 293.95 170.94V186.11C293.95 188.1 294.82 188.85 296.21 188.85C297.6 188.85 298.47 188.1 298.47 186.11Z" fill="white"/>
<path d="M249.39 164.62H256.06C260.43 164.62 262.57 167.04 262.57 171.49V185.55C262.57 190 260.43 192.42 256.06 192.42H249.39V164.62ZM255.98 188.45C257.37 188.45 258.2 187.73 258.2 185.75V171.29C258.2 169.3 257.37 168.59 255.98 168.59H253.76V188.45H255.98Z" fill="white"/>
<path d="M215.58 186.98H210.54L209.79 192.42H205.74L210.27 164.62H216.19L220.72 192.42H216.35L215.6 186.98H215.58ZM215.02 183.21L213.03 169.19L211.08 183.21H215.01H215.02Z" fill="white"/>
<path d="M165.24 164.62H171.71C176.24 164.62 178.18 166.73 178.18 171.02V172.73C178.18 175.59 177.27 177.42 175.32 178.21V178.29C177.5 178.96 178.22 181.03 178.22 184.17V189.06C178.22 190.41 178.26 191.4 178.7 192.44H174.25C174.01 191.73 173.85 191.29 173.85 189.02V183.94C173.85 181.36 173.1 180.52 171.11 180.52H169.6V192.44H165.23V164.64L165.24 164.62ZM171.2 176.54C172.83 176.54 173.82 175.83 173.82 173.6V171.45C173.82 169.46 173.14 168.59 171.6 168.59H169.61V176.53H171.2V176.54Z" fill="white"/>
<path d="M123.63 185.83V171.21C123.63 166.76 125.85 164.22 130.14 164.22C134.43 164.22 136.65 166.76 136.65 171.21V173.59H132.52V170.93C132.52 168.94 131.65 168.19 130.26 168.19C128.87 168.19 128 168.94 128 170.93V186.14C128 188.13 128.87 188.84 130.26 188.84C131.65 188.84 132.52 188.13 132.52 186.14V180.7H130.34V176.73H136.66V185.83C136.66 190.28 134.44 192.82 130.15 192.82C125.86 192.82 123.64 190.28 123.64 185.83H123.63Z" fill="white"/>
<path d="M84.63 164.62H96.55V168.59H89V175.94H95V179.91H89V188.45H96.55V192.42H84.63V164.62Z" fill="white"/>
</svg>
