<?xml version="1.0" encoding="UTF-8"?>
<svg id="Capa_2" data-name="Capa 2" xmlns="http://www.w3.org/2000/svg" viewBox="0 0 31.14 27.52">
  <defs>
    <style>
      .cls-1 {
        fill: #2b9ad0;
      }
    </style>
  </defs>
  <g id="Capa_3" data-name="Capa 3">
    <path class="cls-1" d="M30.45,1.67h-4.88v-.98c0-.38-.31-.69-.69-.69s-.69.31-.69.69v.98h-5.12v-.98c0-.38-.31-.69-.69-.69s-.69.31-.69.69v.98h-5.76v-.98c0-.38-.31-.69-.69-.69s-.69.31-.69.69v.98h-4.04c-.19,0-.37.08-.5.21-.13.14-.2.32-.19.5,0,.15.56,14.66-5.61,20.13-.21.19-.29.49-.19.76.1.27.36.44.64.44h5.23c-.05.09-.08.2-.08.32v2.8c0,.38.31.69.69.69h23.92c.38,0,.69-.31.69-.69V2.36c0-.38-.31-.69-.69-.69ZM10.57,3.04v.84c0,.38.31.69.69.69s.69-.31.69-.69v-.84h5.76v.84c0,.38.31.69.69.69s.69-.31.69-.69v-.84h5.12v.84c0,.38.31.69.69.69s.69-.31.69-.69v-.84h4.19v4.29H7.09c.14-1.89.15-3.43.14-4.29h3.34ZM29.76,26.15H7.22v-2.11c0-.11-.03-.22-.08-.32h17.65c.14,0,.28-.04.39-.12.16-.11,2.85-2,4.58-4.97v7.52ZM24.57,22.34H2.31c3.03-3.62,4.21-9.26,4.66-13.64h22.79v5.85c-.48,4.04-4.34,7.15-5.19,7.79Z"/>
  </g>
</svg>