<?xml version="1.0" encoding="UTF-8"?>
<svg id="Capa_2" data-name="Capa 2" xmlns="http://www.w3.org/2000/svg" viewBox="0 0 42.45 35.72">
  <defs>
    <style>
      .cls-1 {
        fill: none;
        opacity: .13;
        stroke: #fff;
        stroke-linecap: round;
        stroke-linejoin: round;
      }
    </style>
  </defs>
  <g id="Capa_2-2" data-name="Capa 2">
    <path class="cls-1" d="M21.02,35.22L3.32,17.52C-.44,13.75-.44,7.63,3.32,3.87l.52-.52c1.82-1.82,4.24-2.82,6.83-2.82s5.01,1,6.83,2.82l4.03,4.03,4.07-4.07c1.8-1.8,4.21-2.8,6.78-2.8s4.98.99,6.78,2.8h0c1.8,1.8,2.8,4.21,2.8,6.78s-.99,4.98-2.8,6.78l-9.73,9.73c-.29.44-.65.88-1.05,1.28l-7.35,7.35ZM10.67,1.53c-2.32,0-4.49.9-6.12,2.52l-.52.52c-3.37,3.37-3.37,8.86,0,12.24l16.99,16.99,6.64-6.64c.36-.36.68-.75,1-1.21l9.79-9.8c1.62-1.62,2.5-3.77,2.5-6.07s-.89-4.46-2.5-6.07h0c-1.62-1.62-3.77-2.5-6.07-2.5s-4.46.89-6.07,2.5l-4.78,4.78-4.73-4.73c-1.63-1.63-3.8-2.52-6.12-2.52Z"/>
  </g>
</svg>