<svg xmlns="http://www.w3.org/2000/svg" viewBox="0 0 64 64" id="notification-error">
    <g>
        <circle cx="32" cy="8" r="3" fill="#4a5159"></circle>
        <path fill="#f7f5fa" d="M38.71,54a7,7,0,0,1-13.42,0Z"></path>
        <path
            fill="#f6d367"
            d="M50,37.59V26A18,18,0,0,0,32,8h0A18,18,0,0,0,14,26V37.59a10.65,10.65,0,0,1-3.12,7.53h0A3,3,0,0,0,10,47.24V49a3,3,0,0,0,3,3H51a3,3,0,0,0,3-3V47.24a3,3,0,0,0-.88-2.12h0A10.65,10.65,0,0,1,50,37.59Z"
        ></path>
        <path
            fill="#f26a69"
            d="M32,37.09h0a2.76,2.76,0,0,1-2.75-2.63L28.6,18.75A2.64,2.64,0,0,1,31.23,16h1.54a2.64,2.64,0,0,1,2.63,2.75l-.65,15.71A2.76,2.76,0,0,1,32,37.09Z"
        ></path>
        <circle cx="32" cy="43.36" r="2.64" fill="#f26a69"></circle>
    </g>
</svg>