<?xml version="1.0" encoding="UTF-8"?>
<svg id="Capa_2" data-name="Capa 2" xmlns="http://www.w3.org/2000/svg" viewBox="0 0 634.18 210.38">
  <defs>
    <style>
      .cls-1 {
        fill: #2c5697;
        stroke-width: 0px;
      }
    </style>
  </defs>
  <g id="Capa_1-2" data-name="Capa 1">
    <path class="cls-1" d="M26.82,6c-.71,0-1.42.25-1.87.58-.2.2-.52.9-.59,2.46-.07,1.33-.07,9.42-.13,16.78,0,5.87.13,11.04.13,12.65.06,4.14.52,4.79,3.94,5.75,1.23.32,1.68.71,1.68,1.29,0,.52-1.16.78-2.07.78-1.68,0-4.26-.26-7.09-.26-1.88,0-4.66.26-6.59.26-1.23,0-2-.31-2-.97,0-.46.77-.84,1.42-1.03,3.48-.78,4.25-2.01,4.38-4.72.2-3.1.33-8.2.33-11.43,0-2.13-.06-15.94-.19-17.95-.07-2.33-.07-3.3-3.68-3.81-1.24-.14-1.87-.59-1.87-.97,0-.52.57-.77,1.41-.84.46-.06,1.55-.06,2.13-.06,2.91,0,8.01-.53,11.12-.53,6.01,0,9.87,1.49,12.26,3.82,3.09,2.97,3.75,6.59,3.75,8.78,0,5.63-2.52,8.27-4.39,9.95-1.68,1.43-4.85,2.84-7.49,2.84-.71,0-2.45-.12-3.49-.46-.7-.32-1.09-.71-1.09-1.1,0-.25.32-.58.84-.58h1.42c3.29,0,7.94-3.1,7.94-10.33,0-5.74-4.26-10.91-10.2-10.91M54.58,23.57c1.35-1.1,2.71-1.75,4-1.75,1.75,0,3.94,1.04,5.29,2.52,2.32,2.86,3.04,6.66,3.04,9.89,0,2.9-1.16,6.84-2.78,8.57-1.61,1.62-2.98,2.02-3.68,2.02-3.03,0-6.59-2.34-8.08-7.04-.58-1.62-.78-3.69-.78-5.82,0-3.62,1.37-6.84,2.98-8.39M72.91,33.06c0-8.2-6.72-13.23-13.1-13.23-4.4,0-7.75,1.87-9.69,3.61-2.46,2.07-4.53,5.23-4.53,10.07,0,3.29,2.01,7.63,4.79,9.88,2.39,2,5.67,3.36,8.65,3.36s5.62-.71,8.27-2.58c2.39-1.56,5.61-5.69,5.61-11.11M79.18,21.76c-.46.2-1.09.84-1.09,1.28,0,.21.25.46,1.09,1.1,1.36,1.16,1.62,1.81,1.62,2.52,0,6.52-.19,12.08-.38,14.02-.21,2.32-.53,2.97-2.65,3.62-.71.19-1.35.52-1.35.97,0,.57.71.9,1.68.9,1.09,0,3.09-.18,5.48-.18,1.36,0,3.3.06,4.14.06.97,0,1.68-.32,1.68-.78,0-.39-.52-.85-1.15-1.03-2.02-.58-2.27-1.11-2.34-2.01-.07-.76-.12-14.65-.07-15.49,0-.52.39-1.36.66-1.56,1.1-.97,2.71-1.87,5.41-1.87,1.42,0,3.37.65,4.07,1.23.72.58,1.76,2.53,1.76,4.59,0,1.88,0,9.69-.12,11.82-.14,2.13-.53,2.71-2.01,3.29-.85.25-1.57.64-1.57,1.1,0,.58.91.78,1.62.78.85,0,2.98-.13,4.59-.13,1.8,0,3.49.13,5.03.13.98,0,1.87-.34,1.87-.78,0-.39-.38-.78-1.61-1.1-1.62-.46-2.26-1.28-2.39-2.27-.07-.89-.19-10.45-.19-11.74,0-3.24-.77-6.21-2.27-7.88-.9-1.04-2.71-2.46-5.87-2.46-2.77,0-6.01,1.75-8.59,3.55,0,0-.39.14-.39-.18,0-.6.21-2.21.21-3.17,0-.26-.33-.97-.59-.97-.33,0-1.03.32-1.73.77-.9.59-3.36,1.49-4.53,1.88M126.25,20.47c-.26,0-6.26.26-7.68.26-.25,0-.58-.32-.58-.52v-3.09c0-.2-.65-.78-.96-.78-.27,0-.72.58-1.49,1.42-.97,1.24-3.03,2.71-5.48,4.58-.26.19-.39.46-.39.7,0,.26.32.65.83.85,1.35.31,2.52.78,2.52,1.22,0,2.26-.26,11.95-.26,14.34,0,1.94.12,3.23.83,4.32.91,1.42,3.17,2.98,5.81,2.98,2.92,0,5.24-1.17,6.98-2.91.45-.45.9-1.1.9-1.68s-.33-.7-.33-.7c-.25,0-.44.06-1.02.38-.96.6-2.33.96-3.1.96-1.3,0-2.65-.25-3.76-1.22-.7-.7-1.15-1.55-1.15-3.16,0-3.24.06-12.01.19-13.69,0-.12.26-.45.51-.45h6.91c.45,0,1.68-.14,1.68-.78,0-.78-.2-2.65-.2-2.45-.07-.26-.64-.58-.78-.58M139.61,10.01c0-1.23-1.04-3.36-2.91-3.36-.96,0-2,.33-2.71.97-.58.64-.84,1.74-.84,2.39,0,1.16.52,1.87,1.04,2.45.64.58,1.74.83,2.2.83,1.36,0,3.22-1.48,3.22-3.29M131.93,21.82c-.71.19-1.35.71-1.35,1.17,0,.18.18.45.57.78,1.81,1.27,2.53,1.87,2.59,2.32.14.78.07,8.77.07,9.16,0,2.46-.07,6.46-.26,7.36-.2.65-1.1,1.41-2.58,1.87-1.1.26-1.56.59-1.56.97,0,.45.72.77,1.69.77,1.15,0,3.54-.25,5.66-.25,1.37,0,4.61.19,5.06.19.78,0,1.61-.26,1.61-.7,0-.39-.39-.77-1.41-1.1-1.62-.52-2.93-.71-2.98-2.71-.07-2.26-.12-4.85-.12-8.14,0-3.68.32-12.21.38-13.17,0-.14-.32-.72-.64-.72-.96.26-4.19,1.68-6.71,2.2M162.14,20.72c-.5,0-4.83,0-5.81-.07-.45,0-.83-.38-.83-.63,0-8.72,1.42-13.18,2.9-14.91,1.1-1.3,2.27-1.82,3.88-1.82,1.99,0,4,1.04,5.43,2.45,1.15,1.17,2.13,1.95,2.52,1.95.83,0,3.35-1.68,3.35-3.23,0-.58-.11-1.02-.57-1.62-.9-1.16-2.71-2.84-6.84-2.84-2.91,0-5.94,1.17-8.33,3.03-2.57,1.88-4.46,4.53-5.75,7.31-1.35,3.03-1.81,6.52-1.81,9.62,0,.32-.31.64-.64.9-2,1.03-2.83,1.62-2.89,2.19-.07.26.19.72.5.72.85.07,1.44.13,2.34.25.32.07.64.66.64.85,0,4.71,0,14.99-.12,16.4-.25,2.21-.59,2.65-2.78,3.3-.83.19-1.29.52-1.29.96,0,.39.46.78,1.29.78s3.23-.32,5.49-.32c2.08,0,4.97.18,6.07.18.96,0,1.42-.44,1.42-.77,0-.4-.32-.71-1.36-1.03-2.9-.9-3.17-1.24-3.29-3.29-.19-3.5-.19-14.53-.19-16.39,0-.46.51-.84.64-.84,2.98-.26,8.4-.19,10.46,0,.27.06.78.58.78.96,0,2.77-.06,13.17-.25,17.24-.08,1.09-.73,1.67-2.33,2.32-1.03.45-1.42.71-1.42,1.09,0,.59.58.78,1.29.78,1.42,0,3.36-.25,5.56-.25,1.61,0,3.68.18,5.09.18.78,0,1.56-.25,1.56-.77,0-.45-.14-.64-1.43-1.1-1.87-.59-2.58-.91-2.7-2.26-.2-2.65-.14-5.36-.14-17.05,0-3.74.2-5.49-.25-5.49-.52,0-1.35.19-2.01.38-1.22.39-2.57.9-8.14.84M201,21.5c-1.22-.9-4.13-1.42-6.12-1.42-1.87,0-6.07.97-8.53,2.72-3.8,2.5-6.33,6.38-6.33,11.16,0,2.72.9,5.68,2.06,7.55,1.94,2.97,5.43,5.17,9.62,5.17,3.48,0,7.22-1.62,9.43-4.07.52-.51.9-1.22.9-1.94,0-.33-.53-.51-1.17-.07-1.74,1.17-3.54,1.94-5.8,1.94-3.43,0-6.4-1.62-7.87-4.13-.33-.39-1.82-2.65-1.82-6.46,0-2.9.97-5.68,2.64-7.62,1.04-1.22,2.85-2,3.76-2,2.18,0,3.35,1.1,5.42,2.59,1.03.84,2.13,1.29,2.59,1.29.26,0,2.19-1.61,2.19-2.64,0-.53-.32-1.56-.97-2.07M215.46,10.01c0-1.23-1.03-3.36-2.89-3.36-.99,0-2.01.33-2.72.97-.58.64-.83,1.74-.83,2.39,0,1.16.52,1.87,1.02,2.45.66.58,1.75.83,2.2.83,1.36,0,3.22-1.48,3.22-3.29M207.79,21.82c-.71.19-1.36.71-1.36,1.17,0,.18.19.45.58.78,1.81,1.27,2.53,1.87,2.58,2.32.13.78.07,8.77.07,9.16,0,2.46-.07,6.46-.26,7.36-.19.65-1.11,1.41-2.6,1.87-1.09.26-1.54.59-1.54.97,0,.45.71.77,1.68.77,1.16,0,3.55-.25,5.69-.25,1.34,0,4.57.19,5.03.19.78,0,1.6-.26,1.6-.7,0-.39-.37-.77-1.41-1.1-1.61-.52-2.9-.71-2.97-2.71-.07-2.26-.13-4.85-.13-8.14,0-3.68.32-12.21.38-13.17,0-.14-.32-.72-.64-.72-.97.26-4.2,1.68-6.71,2.2M235.1,42.1c-1.1.64-2.38,1.02-3.29,1.02-1.29,0-3.87-1.02-3.87-3.86,0-1.62.51-2.06,1.23-2.45,1.62-.9,4.71-1.95,6.4-1.95.19,0,.45.33.45.52,0,1.49-.07,3.82-.13,5.18-.07.19-.38,1.35-.78,1.55M239.74,22.99c-.97-1.42-2.64-3.16-5.99-3.16-1.17,0-4.08,1.03-6.08,2.45-3.22,2.13-4.96,3.93-4.96,5.74,0,.39.38.9.77.9.32,0,3.89-1.73,4.52-2.26.13-.12.33-.45.33-.63-.06-1.5.13-2.52.45-2.73.46-.31,1.3-.65,2.52-.65,3.16,0,4.92,2.65,4.92,4.27.07.77-.06,4.65-.14,5.23,0,.4-.38.71-1.74,1.16-1.41.45-6.71,1.87-7.75,2.33-.92.39-1.94.71-2.58,1.56-.7.9-1.22,2.19-1.22,3.36,0,3.29,2.25,6.05,4.59,6.05.44,0,1.93-.12,2.63-.38.71-.25,3.43-1.36,5.69-2.91.13-.06.38.14.46.26.77,2.4,2.63,3.16,4.18,3.16,3.1,0,6.01-2.84,6.01-4.06,0-.07,0-.53-.14-.72-.14-.18-.19-.25-.39-.18-.77.44-2.19.96-2.45.96-.65,0-2.52-.38-2.52-3.1,0-.72.25-8.72.25-11.23,0-2.77-.46-4.13-1.36-5.42M263.06,4.39c-1.04,0-1.82.25-1.82.77,0,.58.72.96,1.49,1.17,2.45.51,3.35,1.54,3.5,2.77.05.84.19,6.97.19,15.36,0,10.72,1.61,15.31,5.23,18.73,1.62,1.56,5.94,3.81,11.74,3.81,2.78,0,6.27-.32,9.24-2.01,4.57-2.63,7.68-7.99,8.06-19.23.14-3.35.52-10.59.58-13.5.07-4,1.35-5.1,4.2-5.93.91-.33,1.48-.71,1.48-1.11,0-.51-.57-.77-1.62-.77-1.81,0-3.21.14-5.86.14-2.07,0-4-.19-5.55-.19-1.16,0-1.61.32-1.61.72,0,.45.83.96,1.48,1.09,3.5.83,4.07,1.75,4.27,4.14.13.71.25,3.74.25,7.93,0,7.62-.58,13.05-1.35,16.46-1.61,7.17-7.67,8.91-11.94,8.91-2.97,0-7.24-1.36-8.97-3.36-2.08-2.25-3.69-4.91-3.69-12.27,0-9.17,0-15.76.26-17.88.38-2.59,1.54-3.3,3.88-3.75,1.23-.27,1.87-.65,1.87-1.17s-.71-.77-1.94-.77c-1.42,0-4.07.14-6.45.14s-4.2-.19-6.91-.19M308.76,21.76c-.44.2-1.09.84-1.09,1.28,0,.21.26.46,1.09,1.1,1.35,1.16,1.62,1.81,1.62,2.52,0,6.52-.19,12.08-.39,14.02-.19,2.32-.51,2.97-2.65,3.62-.72.19-1.35.52-1.35.97,0,.57.71.9,1.68.9,1.09,0,3.1-.18,5.48-.18,1.36,0,3.3.06,4.13.06.98,0,1.68-.32,1.68-.78,0-.39-.51-.85-1.16-1.03-2-.58-2.25-1.11-2.32-2.01-.07-.76-.14-14.65-.07-15.49,0-.52.38-1.36.64-1.56,1.1-.97,2.72-1.87,5.43-1.87,1.41,0,3.35.65,4.06,1.23.7.58,1.75,2.53,1.75,4.59,0,1.88,0,9.69-.12,11.82-.14,2.13-.53,2.71-2.01,3.29-.83.25-1.55.64-1.55,1.1,0,.58.9.78,1.62.78.83,0,2.95-.13,4.57-.13,1.81,0,3.48.13,5.03.13.97,0,1.87-.34,1.87-.78,0-.39-.38-.78-1.6-1.1-1.61-.46-2.27-1.28-2.41-2.27-.06-.89-.18-10.45-.18-11.74,0-3.24-.78-6.21-2.27-7.88-.9-1.04-2.71-2.46-5.87-2.46-2.77,0-6,1.75-8.58,3.55,0,0-.38.14-.38-.18,0-.6.19-2.21.19-3.17,0-.26-.33-.97-.58-.97-.31,0-1.03.32-1.75.77-.9.59-3.35,1.49-4.53,1.88M350.21,10.01c0-1.23-1.03-3.36-2.91-3.36-.97,0-2.01.33-2.71.97-.58.64-.84,1.74-.84,2.39,0,1.16.51,1.87,1.02,2.45.66.58,1.76.83,2.2.83,1.35,0,3.23-1.48,3.23-3.29M342.52,21.82c-.7.19-1.35.71-1.35,1.17,0,.18.2.45.59.78,1.81,1.27,2.52,1.87,2.59,2.32.11.78.06,8.77.06,9.16,0,2.46-.06,6.46-.27,7.36-.19.65-1.09,1.41-2.58,1.87-1.1.26-1.54.59-1.54.97,0,.45.71.77,1.68.77,1.15,0,3.54-.25,5.67-.25,1.36,0,4.59.19,5.03.19.78,0,1.62-.26,1.62-.7,0-.39-.38-.77-1.41-1.1-1.62-.52-2.91-.71-2.98-2.71-.06-2.26-.12-4.85-.12-8.14,0-3.68.32-12.21.39-13.17,0-.14-.33-.72-.65-.72-.97.26-4.2,1.68-6.72,2.2M355.96,20.4c-.64,0-1.62.32-1.62.72,0,.45.33.7,1.29,1.09,1.61.44,2.25,1.29,2.78,2.2,1.68,2.9,5.05,10.84,6.59,14.98,1.48,3.73,1.74,4.64,2.39,6.65.19.7.58,1.15.9,1.15.52,0,1.23-.7,1.55-1.68,1.09-3.36,1.16-4,2.98-8.58,1.93-4.52,4.19-10.4,5.29-12.14,1.01-1.29,1.75-2.07,3.22-2.64,1.03-.39,1.42-.65,1.42-1.03,0-.4-.71-.72-1.29-.72-1.24,0-3.23.32-4.4.32-1.55,0-2.39-.19-3.54-.19-.85,0-1.3.31-1.3.71,0,.44.52.71,1.09.9,1.95.7,2.52,1.15,2,2.77-.64,2-4,10.77-4.84,12.59-.14.31-.33.45-.5.26-.46-.46-3.77-7.88-5.57-13.25-.32-.84-.45-1.67,1.35-2.19.85-.26,1.43-.58,1.43-1.04s-.53-.71-1.5-.71c-.77,0-2.43.13-4.12.13-.72,0-4.52-.32-5.62-.32M389.66,26.54c1.1-2.97,3.55-4.97,6.39-4.97,2.26,0,4.13,2.13,4.13,3.94,0,1.35-.77,1.73-2.19,1.73-3.23.07-6.33.07-8,0-.21,0-.46-.38-.33-.7M403.22,22.42c-1.68-1.63-4.21-2.46-6.53-2.46-1.21,0-3.35.32-5.03,1.09-5.1,2.39-7.81,7.55-7.81,12.72,0,7.49,4.58,12.84,11.63,12.84,4.05,0,7.42-1.73,9.61-4.95.2-.4.52-1.1.52-1.62,0-.25-.2-.77-.57-.77-.26,0-.59.44-.84.77-1.11,1.62-3.03,2.33-5.82,2.33-3.1,0-5.81-1.54-7.29-3.48-1.36-1.81-2.32-4.79-2.32-7.05,0-.71.07-1.74.26-2.26.08-.25.4-.5.59-.5,2.97.05,13.88.05,14.6.05s1.29-.84,1.29-1.22c0-2.26-.92-4.13-2.26-5.48M410.64,22.22c-.65.2-.85.9-.85,1.03,0,.25.85.76,2.27,1.86.65.45.65,1.3.65,2.08v12c-.06,3.87-.26,4.51-2.72,5.36-.45.19-1.29.44-1.29.84,0,.59.64.84,1.37.84,1.56,0,2.45-.25,4.26-.25,3.74,0,6.26.32,7.95.32,1.02,0,1.6-.26,1.6-.65,0-.26-.19-.71-1.23-1.04-.9-.26-2.13-.58-2.91-.71-1.09-.25-1.54-1.48-1.68-3.36-.06-.97-.31-12.53-.31-13.82,0-.45.19-.97.65-1.43.58-.63,1.54-.78,2.52-.78,1.29,0,2.96.85,3.68,1.5.19.11.84.25.98.18.44-.18,1.99-2.07,2.76-3.17.19-.32.4-.77.4-.96,0-.58-.65-2.25-3.36-2.25-2,0-4.84,1.67-7.3,4.01-.06.12-.38,0-.38-.26,0-1.23.12-2.4.12-3.55,0-.2-.33-.71-.65-.71-.19,0-.57.2-1.34.71-.79.44-2.98,1.42-5.17,2.2M444.34,20.2c-.77-.18-2.13-.38-3.36-.38-2.26,0-4.06.57-5.35,1.35-2.44,1.48-3.62,3.68-3.62,6.01,0,3.03,2.06,5.37,4.07,6.64,2.06,1.23,2.52,1.61,4.14,2.71,1.99,1.28,2.83,2.59,2.83,4.13,0,1.22-.51,2.64-1.48,3.41-.65.59-1.75.98-2.58.98-2.2,0-4.07-1.23-5.95-4.64-.4-.73-.84-1.51-1.42-1.51-.32,0-.53.59-.53,1.42,0,1.94.85,4.65,1.04,4.98,1.09.9,4.32,1.42,6.34,1.42s4.39-.7,5.6-1.55c1.75-1.17,3.81-3.29,3.81-6.32s-1.3-5.1-5.28-7.43c-4.09-2.27-6.22-3.88-6.22-6.14,0-1.41,1.3-3.81,3.69-3.81,2.13,0,3.81,1.3,5.23,4.26.32.71.77,1.22,1.1,1.22.45,0,.77-.65.77-1.22,0-.46-.18-2.77-.18-3.88-.07-.44-.4-.84-.59-.96-.13-.07-1.36-.58-2.07-.71M461.84,10.01c0-1.23-1.03-3.36-2.91-3.36-.97,0-1.99.33-2.7.97-.59.64-.83,1.74-.83,2.39,0,1.16.51,1.87,1.03,2.45.64.58,1.73.83,2.19.83,1.36,0,3.23-1.48,3.23-3.29M454.16,21.82c-.71.19-1.37.71-1.37,1.17,0,.18.21.45.59.78,1.81,1.27,2.52,1.87,2.58,2.32.12.78.06,8.77.06,9.16,0,2.46-.06,6.46-.26,7.36-.2.65-1.09,1.41-2.58,1.87-1.09.26-1.55.59-1.55.97,0,.45.71.77,1.69.77,1.16,0,3.54-.25,5.67-.25,1.36,0,4.59.19,5.04.19.78,0,1.6-.26,1.6-.7,0-.39-.38-.77-1.41-1.1-1.61-.52-2.91-.71-2.98-2.71-.04-2.26-.12-4.85-.12-8.14,0-3.68.33-12.21.4-13.17,0-.14-.32-.72-.65-.72-.98.26-4.2,1.68-6.71,2.2M476.88,24.21c1.16-1.17,2.91-2.13,4.77-2.13,1.31,0,3.69.72,5.49,2.53.72.77,1.29,2,1.36,2.52.26,2.9.26,7.04.19,10.77-.06,1.87-.91,3.88-1.04,4.01-1.09.83-2.45,1.41-4.39,1.41-5.43,0-9.04-5.81-9.04-11.04,0-3.29,1.3-6.72,2.65-8.08M488.06,20.08c-.84-.13-1.87-.2-4-.2-1.87,0-5.68.65-8.52,2.45-3.18,1.87-6.92,5.48-6.92,11.88,0,3.22,1.05,6.59,3.24,8.9,1.94,2.08,4.77,3.43,8.01,3.43,2.12,0,5.41-.72,8.26-3.16.12,0,.39.13.39.45,0,.91-.14,1.99-.14,2.59,0,.32.46.85.71.85.33,0,.97-.14,2.45-.67,1.23-.44,4.72-1.09,6.01-1.28.32-.13,1.16-1.16,1.16-1.67,0-.07-.13-.39-.39-.39-.63.06-2.7.44-3.42.44-.39,0-.9-.31-1.03-3.02-.05-1.23-.19-1.23-.19-14.27,0-18.66.32-22.08.58-25.32.06-.51-.33-1.02-.44-1.02-.33,0-.6.06-.92.19-1.74.64-5.42,1.62-6.97,1.87-.39.06-1.1.77-1.1,1.04,0,.12.14.32.71.64,2.9,1.49,2.9,2.26,2.97,2.65.19,1.55.39,11.17.07,12.97-.07.27-.27.72-.51.66M514.01,42.1c-1.1.64-2.39,1.02-3.3,1.02-1.28,0-3.87-1.02-3.87-3.86,0-1.62.52-2.06,1.22-2.45,1.62-.9,4.72-1.95,6.4-1.95.19,0,.45.33.45.52,0,1.49-.06,3.82-.13,5.18-.06.19-.39,1.35-.77,1.55M518.65,22.99c-.96-1.42-2.65-3.16-5.99-3.16-1.16,0-4.07,1.03-6.07,2.45-3.23,2.13-4.97,3.93-4.97,5.74,0,.39.38.9.77.9.33,0,3.88-1.73,4.52-2.26.14-.12.32-.45.32-.63-.05-1.5.14-2.52.47-2.73.44-.31,1.28-.65,2.51-.65,3.16,0,4.91,2.65,4.91,4.27.06.77-.07,4.65-.12,5.23,0,.4-.39.71-1.76,1.16-1.4.45-6.71,1.87-7.73,2.33-.91.39-1.94.71-2.6,1.56-.7.9-1.21,2.19-1.21,3.36,0,3.29,2.26,6.05,4.58,6.05.44,0,1.94-.12,2.65-.38.7-.25,3.41-1.36,5.69-2.91.12-.06.39.14.44.26.77,2.4,2.65,3.16,4.2,3.16,3.09,0,6-2.84,6-4.06,0-.07,0-.53-.13-.72-.12-.18-.19-.25-.38-.18-.78.44-2.19.96-2.46.96-.65,0-2.52-.38-2.52-3.1,0-.72.27-8.72.27-11.23,0-2.77-.46-4.13-1.37-5.42M535.32,24.21c1.16-1.17,2.9-2.13,4.77-2.13,1.3,0,3.68.72,5.49,2.53.71.77,1.29,2,1.36,2.52.25,2.9.25,7.04.18,10.77-.07,1.87-.89,3.88-1.03,4.01-1.09.83-2.45,1.41-4.39,1.41-5.42,0-9.04-5.81-9.04-11.04,0-3.29,1.29-6.72,2.65-8.08M546.48,20.08c-.83-.13-1.88-.2-4-.2-1.87,0-5.68.65-8.53,2.45-3.17,1.87-6.9,5.48-6.9,11.88,0,3.22,1.03,6.59,3.23,8.9,1.93,2.08,4.77,3.43,8,3.43,2.13,0,5.42-.72,8.27-3.16.13,0,.39.13.39.45,0,.91-.15,1.99-.15,2.59,0,.32.47.85.72.85.33,0,.97-.14,2.46-.67,1.22-.44,4.71-1.09,6-1.28.32-.13,1.17-1.16,1.17-1.67,0-.07-.14-.39-.39-.39-.65.06-2.71.44-3.43.44-.38,0-.89-.31-1.03-3.02-.07-1.23-.2-1.23-.2-14.27,0-18.66.33-22.08.59-25.32.07-.51-.33-1.02-.46-1.02-.33,0-.58.06-.89.19-1.75.64-5.43,1.62-6.99,1.87-.38.06-1.09.77-1.09,1.04,0,.12.14.32.71.64,2.91,1.49,2.91,2.26,2.98,2.65.18,1.55.38,11.17.06,12.97-.06.27-.26.72-.52.66M3.39,155.54c-1.2,1.19-3.39,4.25-3.39,5.43,0,3.05,4.47,4.9,7.85,4.9,2.94,0,8.06-1.74,13.4-5.55,7.08-5.12,13.29-15.69,13.72-28.76.22-9.24.67-37.89.77-46.82.11-5.33,1.53-6.74,5.23-7.62,2.6-.65,3.25-1.52,3.25-2.39s-1.41-1.31-3.04-1.31c-3.39,0-7.3.33-13.29.33-4.68,0-9.06-.44-12.43-.44-2.5,0-3.36.77-3.36,1.53,0,.88,1.08,1.85,3.47,2.39,4.91,1.2,6,3.48,6.1,5.55.21,4.57.55,15.47.55,31.06s.1,29.83-.33,36.04c-.21,2.18-.65,5.23-2.17,7.09-.76.98-1.63,1.3-2.93,1.3-1.64,0-4.25-1.3-6.86-3.16-1.42-.87-2.94-1.19-3.38-1.19-.55,0-2.72,1.08-3.15,1.63M90.26,111.22c.11.43-.34.86-.44.86-3.49,0-11.56.11-15.79.22-.44,0-.87-.54-.77-1.08.66-2.63,5.88-16.34,7.84-21.57.34-.87.98-1.09,1.2-.33,1.53,3.6,6.32,16.78,7.96,21.9M90.04,74.3c-.88-2.17-1.31-2.4-1.85-2.4s-1.3.43-1.96,1.42c-.76,1.2-4.14,5.23-5.66,6.75-.33.21-.22.55-.22.87,0,.44-.44,1.74-.55,1.95-4.57,10.79-16.33,41.83-18.94,47.05-3.15,6.41-4.36,8.17-9.92,9.7-2.27.66-2.72,1.41-2.72,2.17,0,.66.66,1.31,3.16,1.31,1.64,0,6.53-.44,10.79-.44,4.02,0,6.75.22,8.71.22,1.75,0,3.27-.54,3.27-1.41,0-.99-.98-1.64-3.16-2.18-4.03-1.09-5.12-2.6-5.12-4.79s1.2-7.09,4.69-15.79c.22-.33.88-1.09,1.2-1.09,1.52-.12,6.75-.44,18.29-.34,1.31,0,2.51,1.2,2.62,1.63,2.5,6.98,4.79,13.06,5,15.9.22,1.74.11,3.47-4.35,4.57-2.08.44-2.84,1.3-2.84,1.86,0,.97,1.31,1.62,3.5,1.62,2.84,0,7.07-.22,10.66-.22,3.38,0,11.55.44,14.27.44,2.51,0,3.59-.87,3.59-1.63s-.98-1.42-2.83-1.96c-3.7-1.09-6.1-2.18-9.69-11-2.18-5.44-9.58-25.15-15.57-42.03-1.42-4.03-3.38-9.6-4.36-12.2M117.91,73.21c-1.64,0-3.16.64-3.16,1.63,0,1.19,1.52,1.63,2.83,1.96,4.9,1.42,6.54,3.81,8.82,8.93,4.14,9.92,12.52,29.95,16.22,39.86,3.16,7.95,5.12,14.26,5.67,16.66.22.76,1.2,2.62,2.4,2.62,1.09,0,2.52-1.64,2.93-2.84,2.18-6.65,4.59-12.75,8.17-21.33,6.54-16.14,13.29-29.3,15.68-34.65,2.73-5.66,5.01-7.95,9.91-9.15,1.85-.31,2.95-1.08,2.95-2.06,0-.87-1.41-1.52-3.27-1.52-2.3,0-6.66.44-9.81.44-3.59,0-5.89-.34-9.26-.34-1.75,0-2.94.88-2.94,1.63,0,.66,1.2,1.42,2.4,1.85,4.36,1.65,7.3,2.06,4.89,8.51-3.25,8.6-14.8,35.5-15.67,37.25-.11.31-.77.31-.98,0-2.62-5.35-14.27-34.3-15.9-39.65-.88-3.05-.98-4.57,3.92-5.88,1.97-.54,2.72-1.41,2.72-2.28,0-.76-1.2-1.31-2.62-1.31-2.5,0-9.25.23-12.95.23-5.35,0-10.79-.55-12.97-.55M223.47,73.76c-5.67,0-14.61-.33-19.72-.33-1.52,0-3.38.66-3.38,1.63,0,1.09,1.19,1.53,3.49,1.96,4.68.88,5.56,3.06,5.78,6.98.21,3.16.1,8.17.1,21.02,0,13.51-.56,21.78-.88,26.36-.42,5.88-1.84,6.96-7.4,8.28-1.85.44-3.27,1.19-3.27,2.17,0,1.09,1.64,1.42,3.72,1.42,3.92,0,5.11-.55,12.41-.55,8.16,0,35.06.55,36.27.55.53,0,2.28-.66,2.61-1.42.98-1.74,4.13-11.75,4.13-12.63.11-.87.22-3.16-.86-3.16-.87,0-1.86.98-3.39,3.82-2.39,4.24-5.33,6.87-8.61,8.06-2.71.98-6.74.98-10,.98-3.7,0-7.09-.32-8.83-.66-1.09-.22-2.07-1.63-2.39-2.61-.44-2.28-.33-6.32-.44-8.93-.1-3.6-.23-12.09.22-15.13,0-.22.97-1.32,1.41-1.32,3.39,0,7.41,0,10.89.33,4.25.33,5.66,1.09,7.09,5.88.31,1.09,1.2,2.4,2.05,2.4s1.53-1.31,1.44-3.27c-.23-2.73-.44-4.46-.44-7.4,0-2.52.21-4.46.44-7.51.1-1.2-.23-3.06-1.1-3.06-.98,0-1.73,1.2-2.39,2.84-2.08,4.79-1.86,5.22-9.59,5.22h-8.71c-.64,0-1.08-.76-1.08-1.09-.11-5.98.22-21.12.44-23.85.1-2.61.96-3.04,1.41-3.04,8.37-.1,13.07.33,15.13.65,2.51.44,5.56,2.08,6.97,8.17.23,1.09,1.1,2.73,2.08,2.73s1.74-1.53,1.74-3.06c0-2.17,0-9.68-.12-11.64-.1-.77-.87-1.53-1.3-1.42-1.53.21-5.99.66-9.58.66h-16.33ZM304.43,80.62c3.68,3.81,4.67,8.7,4.67,11.54,0,6.1-3.15,10-6.09,12.2-1.21.76-6.21,2.39-11.77,2.39-.56,0-1.31-.64-1.41-1.3-.44-2.84,0-21.9.33-25.6.1-.54.75-1.95,1.3-2.27.88-.45,3.72-.77,4.14-.77,2.94,0,6.31,1.2,8.83,3.82M314.98,104.79c4.79-3.82,7.62-8.06,7.62-13.94,0-5-2.5-10.23-5.88-12.96-5.22-4.36-13.95-4.79-18.95-4.79-5.88,0-14.92.54-18.95.54h-7.94c-1.85,0-3.16.77-3.16,1.52,0,.87,1.2,1.64,2.72,2.07,5.12,1.2,6.1,2.83,6.33,5.45.33,2.94.55,12.2.55,23.85,0,9.26,0,18.4-.67,26.8-.32,3.48-1.52,4.78-6.53,6.31-1.41.43-2.62,1.07-2.62,1.74,0,.98.78,1.74,3.48,1.74,1.21,0,6.65-.44,10.47-.44,5.34,0,10.12.66,13.94.66,1.31,0,3.38-.44,3.38-1.64,0-.75-.76-1.51-2.61-2.05-5.01-1.32-5.78-2.4-6.1-7.09-.32-5-.54-19.48-.32-21.67.11-.55.76-1.09,1.19-1.09,2.06,0,4.46.76,5.23,1.42.86.54,2.51,2.92,3.5,4.57,4.57,7.84,10.12,16.76,13.17,20.91,2.29,3.14,6.53,7.07,16.44,7.07,1.42,0,5.55-.23,7.3-.88.76-.22,1.74-.98,1.74-1.63,0-.45-.87-1.32-1.97-1.53-3.26-.64-6.42-1.96-9.36-5.45-5.45-6.3-14.38-21.33-16.45-25.7-.21-.42-.32-1.31.22-1.52,1.53-.75,3.82-1.97,4.25-2.29M356.73,85.29c.32,4.15.32,15.47.32,21.03,0,9.24-.21,20.46-.54,24.6-.22,4.68-.98,6.97-5.99,8.17-2.28.54-3.26,1.3-3.26,2.05,0,1.1.76,1.86,3.37,1.86,4.03,0,7.3-.33,10.45-.33,4.58-.11,11.98.55,16.35.55,1.3,0,3.36-.33,3.36-1.42s-1.08-1.86-3.05-2.29c-6.09-1.63-6.74-2.94-7.18-9.37-.22-3.27-.33-7.95-.33-21.13,0-18.73.11-22.53.42-25.26.23-2.83.55-5.67,6-6.64,1.85-.32,3.37-1.19,3.37-2.17,0-1.1-1.52-1.53-3.37-1.53-3.83,0-7.63.33-12.96.33-3.61,0-9.26-.33-12.43-.33-1.95,0-3.48.66-3.48,1.53,0,.77.65,1.52,3.27,2.17,5.34,1.31,5.34,2.94,5.66,8.16M432.53,111.22c.11.43-.32.86-.43.86-3.48,0-11.55.11-15.79.22-.44,0-.87-.54-.76-1.08.64-2.63,5.88-16.34,7.84-21.57.32-.87.98-1.09,1.2-.33,1.53,3.6,6.31,16.78,7.94,21.9M432.32,74.3c-.88-2.17-1.31-2.4-1.85-2.4s-1.31.43-1.97,1.42c-.76,1.2-4.14,5.23-5.66,6.75-.33.21-.22.55-.22.87,0,.44-.44,1.74-.55,1.95-4.58,10.79-16.34,41.83-18.95,47.05-3.16,6.41-4.35,8.17-9.91,9.7-2.28.66-2.72,1.41-2.72,2.17,0,.66.64,1.31,3.15,1.31,1.63,0,6.53-.44,10.78-.44s6.75.22,8.72.22c1.74,0,3.27-.54,3.27-1.41,0-.99-.97-1.64-3.16-2.18-4.02-1.09-5.12-2.6-5.12-4.79s1.21-7.09,4.69-15.79c.21-.33.87-1.09,1.2-1.09,1.52-.12,6.74-.44,18.29-.34,1.3,0,2.5,1.2,2.6,1.63,2.51,6.98,4.8,13.06,5.01,15.9.23,1.74.11,3.47-4.35,4.57-2.08.44-2.83,1.3-2.83,1.86,0,.97,1.3,1.62,3.48,1.62,2.83,0,7.08-.22,10.67-.22,3.38,0,11.55.44,14.27.44,2.51,0,3.6-.87,3.6-1.63s-.99-1.42-2.84-1.96c-3.7-1.09-6.1-2.18-9.69-11-2.18-5.44-9.58-25.15-15.56-42.03-1.43-4.03-3.38-9.6-4.36-12.2M478.62,73.32c-1.97,0-3.28.77-3.28,1.63,0,.77,1.63,1.64,2.83,1.85,5.67,1.31,6.42,2.84,8.38,5.23.34.44.66,1.74.66,6.1,0,7.84-1.42,28.75-1.97,40.95-.32,8.17-2.93,9.03-7.95,10.56-1.09.32-2.39.86-2.39,1.95,0,.88,1.3,1.43,2.83,1.43,1.85,0,7.95-.33,10.35-.33,3.81,0,6.32.44,9.47.44,2.07,0,3.6-.44,3.6-1.63,0-.66-.77-1.41-3.05-2.08-5.23-1.63-6.41-3.48-6.86-6.96-.54-5.34-.33-13.61-.22-28.75.11-8.61.32-11.12.54-14.05,0-.33.66-1.2,1.2-.54,9.68,11.43,27.44,30.16,37.67,42.69,2.95,3.59,5.02,6.1,7.08,8.82.99,1.3,3.6,4.14,5.89,4.14.54,0,1.75-1.09,1.75-2.08,0-2.84-.66-12.42-.66-16.99,0-9.25.77-36.8,1.09-40.71.54-4.36,1.09-6.33,6.75-8.18,1.95-.55,2.73-1.52,2.73-2.18,0-.77-.77-1.42-2.62-1.42-2.83,0-7.29.55-12.52.55-2.18,0-4.69-.11-7.41-.11-1.95,0-3.15.54-3.15,1.31,0,1.3,1.41,1.95,3.59,2.51,5.44,1.42,6.52,3.92,6.75,6.1.33,2.83.66,7.95.66,11.66,0,9.14.31,21.45-.23,24.6,0,.23-.43,1.2-.97.66-5.77-6.1-27.12-28.22-32.45-34.75-4.47-5.23-7.5-8.6-9.15-10.56-.32-.32-1.85-1.41-2.39-1.41-5.55,0-14.16-.44-16.55-.44M601.02,111.22c.11.43-.32.86-.44.86-3.48,0-11.55.11-15.79.22-.43,0-.86-.54-.76-1.08.65-2.63,5.89-16.34,7.84-21.57.33-.87.99-1.09,1.2-.33,1.52,3.6,6.31,16.78,7.95,21.9M600.8,74.3c-.87-2.17-1.31-2.4-1.85-2.4s-1.31.43-1.95,1.42c-.77,1.2-4.14,5.23-5.67,6.75-.33.21-.22.55-.22.87,0,.44-.43,1.74-.55,1.95-4.57,10.79-16.33,41.83-18.94,47.05-3.15,6.41-4.35,8.17-9.91,9.7-2.28.66-2.71,1.41-2.71,2.17,0,.66.64,1.31,3.15,1.31,1.63,0,6.53-.44,10.78-.44,4.03,0,6.76.22,8.71.22,1.75,0,3.27-.54,3.27-1.41,0-.99-.98-1.64-3.16-2.18-4.03-1.09-5.12-2.6-5.12-4.79s1.2-7.09,4.69-15.79c.21-.33.86-1.09,1.19-1.09,1.52-.12,6.75-.44,18.29-.34,1.31,0,2.51,1.2,2.62,1.63,2.5,6.98,4.79,13.06,5.02,15.9.21,1.74.11,3.47-4.36,4.57-2.08.44-2.82,1.3-2.82,1.86,0,.97,1.3,1.62,3.47,1.62,2.83,0,7.08-.22,10.68-.22,3.36,0,11.53.44,14.26.44,2.5,0,3.6-.87,3.6-1.63s-.98-1.42-2.83-1.96c-3.7-1.09-6.1-2.18-9.69-11-2.19-5.44-9.59-25.15-15.58-42.03-1.41-4.03-3.37-9.6-4.36-12.2M444.46,175.43c-1.93-.48-4.5-.86-6.97-.86-4.4,0-9.92,1.07-14.48,4.82-2.25,1.82-5.9,6.38-5.9,12.87,0,5.95,2.47,9.71,4.51,12.06,2.2,2.52,7.83,6.06,15.76,6.06,4.93,0,8.63-1.29,9.38-1.55.81-.38,1.77-1.23,1.93-1.72.48-.97,1.34-3.33,1.61-4.66.16-.59.16-1.99-.43-1.99-.43,0-.81.48-1.45,1.66-1.23,2.2-2.68,3.75-4.66,4.88-1.87,1.13-4.5,1.23-5.2,1.23-4.18,0-9.06-2.09-12.01-7.99-1.18-2.36-1.82-5.47-1.82-9.06,0-8.15,4.02-14.9,12.55-14.9,2.89,0,5.63,1.18,7.93,3.11.91.7,1.71,2.14,2.25,3.81.27.81.75,1.45,1.02,1.45.59,0,.96-.91.91-2.04-.11-1.56-.22-3.43-.27-4.93,0-.81-.43-1.45-.8-1.45-1.23-.16-2.58-.48-3.86-.8M464.15,190.55c.86-.81,1.72-1.18,2.62-1.18,1.5,0,2.9.91,3.86,2.14,1.67,2.36,2.15,5.84,2.15,8.09,0,3.06-.86,5.9-1.98,7.35-.81.91-1.83,1.34-2.36,1.34-2.25,0-4.72-1.82-5.84-5.57-.43-1.34-.65-3.38-.65-5.15,0-3.54.97-5.9,2.2-7.02M479.1,198.75c0-6.97-5.95-11.15-11.31-11.15-3.97,0-6.97,1.72-8.58,3.11-2.04,1.71-3.7,4.55-3.7,8.31,0,3,1.72,6.38,4.02,8.26,1.98,1.66,4.99,2.79,7.4,2.79s5.2-.64,7.4-2.2c1.98-1.29,4.77-4.56,4.77-9.11M484.63,173.87c-.59.21-.96.64-.96.91s.27.54.96,1.13c1.13.85,1.45,1.18,1.45,1.82,0,1.55.06,6.6.06,9.38,0,8.47-.16,14.53-.32,16.89-.16,2.79-.49,3.59-2.26,4.08-.59.1-1.28.32-1.28.91,0,.27.37.65,1.56.65s3.75-.22,4.99-.22c.97,0,4.02.22,5.31.22.59,0,1.45-.16,1.45-.65,0-.38-.37-.64-1.13-.91-2.04-.59-2.25-1.24-2.41-2.47-.16-1.61-.21-8.69-.21-12.87,0-8.04.27-18.82.43-20.74,0-.22-.49-.64-.65-.54-2.09,1.34-4.66,1.77-6.97,2.41M507.47,190.55c.86-.81,1.71-1.18,2.62-1.18,1.5,0,2.9.91,3.86,2.14,1.67,2.36,2.15,5.84,2.15,8.09,0,3.06-.86,5.9-1.98,7.35-.81.91-1.82,1.34-2.36,1.34-2.25,0-4.72-1.82-5.84-5.57-.43-1.34-.64-3.38-.64-5.15,0-3.54.97-5.9,2.2-7.02M522.43,198.75c0-6.97-5.95-11.15-11.31-11.15-3.97,0-6.97,1.72-8.58,3.11-2.04,1.71-3.7,4.55-3.7,8.31,0,3,1.72,6.38,4.02,8.26,1.98,1.66,4.98,2.79,7.4,2.79s5.21-.64,7.4-2.2c1.98-1.29,4.77-4.56,4.77-9.11M528.28,189.85c-.37.11-1.02.64-1.02.97s.65.96,1.93,2.25c.32.27.32.7.32,1.18,0,4.72-.16,8.9-.27,10.35-.21,2.31-.37,3-2.25,3.43-.97.27-1.34.59-1.34.91,0,.48.75.7,1.5.7,1.12,0,2.73-.22,4.5-.22,2.04,0,5.04.11,5.25.11.75,0,1.45-.38,1.45-.7,0-.43-.27-.64-1.29-.96-1.45-.48-1.88-1.18-1.88-2.31,0-4.07,0-8.95.06-12.44,0-.43.21-1.02.48-1.23.75-.59,2.04-1.13,3.27-1.13,1.56,0,2.79.75,3.48,1.72.27.32.7,1.23.64,3.38l-.05,9.22c0,1.93-.48,2.47-1.93,2.9-.7.21-1.07.59-1.07.75,0,.43.22.81,1.56.81,1.12,0,3.27-.11,4.4-.11,1.23,0,3.65.16,4.82.16.86,0,1.39-.38,1.39-.75s-.53-.64-1.12-.81c-1.88-.53-2.09-1.02-2.25-2.73-.11-1.18-.06-11.04-.06-11.42,0-.54.16-1.45.43-1.67.54-.43,1.39-1.07,3.27-1.07,1.66,0,2.79.81,3.43,1.82.64,1.02.75,2.04.75,2.89,0,1.77.11,7.72.05,9.11-.11,2.09-.32,2.58-1.72,3-.59.21-1.07.48-1.07.81,0,.38.32.8,1.34.8,1.23,0,2.57-.16,4.4-.16,1.45,0,3.22.22,4.29.22.97,0,1.5-.32,1.5-.7,0-.33-.38-.64-1.08-.86-1.39-.43-1.82-1.23-1.87-2.15-.05-3.43-.16-9.01-.27-10.78-.11-2.04-.59-3.97-2.04-5.36-1.07-1.12-2.42-1.93-4.61-1.93-.92,0-1.88.16-3.11.81-1.07.53-3.27,1.87-3.91,2.3-.05,0-.32,0-.43-.16-.26-.43-.86-1.45-1.77-2.14-.86-.64-2.25-1.08-3.91-1.08-2.63,0-5.15,1.39-7.24,3.11-.16.16-.37-.21-.37-.32,0-.54.16-1.56.16-2.3,0-.11-.21-.54-.48-.7-.1-.06-.21-.11-.48,0-1.29.7-4.45,2.04-5.79,2.46M584.43,192.64c1.5,1.77,2.31,4.61,2.31,6.75,0,2.58-.81,5.58-2.15,7.19-1.12,1.12-2.15,1.61-2.63,1.61-.8,0-2.2-.32-3.27-1.45-1.07-.96-1.45-2.46-1.5-3.06-.27-1.87-.48-5.25-.48-9.33,0-1.13.05-2.2.1-3,.06-.16.27-.48.43-.59.48-.21,1.18-.42,2.09-.42,2.14,0,4.13,1.12,5.09,2.3M588.12,207.7c2.52-1.87,5.04-5.04,5.04-9.38,0-3.54-1.29-6.32-3.65-8.36-1.72-1.5-4.13-2.36-6.86-2.36-1.5,0-3.97.54-5.69,1.61,0,0-.22,0-.22-.27-.05-1.18-.05-2.84-.05-4.08,0-4.18.32-8.58.48-12.38,0-.32-.43-.86-.59-.86-.27,0-.75.16-1.77.7-1.77.91-3.97,1.34-5.79,1.82-.32.11-.92.64-.92,1.02,0,.27.54.48,1.56,1.23.86.75,1.08,1.34,1.13,1.66.11.81.16,7.61.16,12.7,0,4.4-.05,13.72-.32,17.91,0,.38.37.69.59.69.11,0,.42-.1.7-.21.54-.27.91-.33,1.13-.22,1.77.53,5.2,1.12,7.18,1.12s5.58-.64,7.88-2.36M606.73,179.71c0-1.23-.96-3.32-2.84-3.32-1.02,0-2.04.38-2.68.96-.59.64-.86,1.72-.86,2.36,0,1.07.48,1.82,1.02,2.36.59.59,1.66.91,2.15.91,1.34,0,3.21-1.5,3.21-3.27M599.66,189.42c-.86.16-1.45.59-1.45,1.02,0,.27.32.54.64.86,1.12.96,1.77,1.5,1.82,1.93.11.64.11,3.7.11,4.83,0,3.8-.11,7.61-.32,8.36-.11.54-.7,1.18-1.98,1.56-1.01.32-1.39.59-1.39.96s.64.7,1.5.7c.91,0,3.49-.21,5.2-.21,1.18,0,4.07.16,4.45.16.75,0,1.5-.27,1.5-.69s-.37-.75-1.17-1.02c-1.4-.43-2.04-.64-2.1-2.25-.05-1.87-.1-3.75-.1-5.41,0-3.11.16-10.29.26-12.12,0-.17-.26-.59-.53-.59-.86.21-4.24,1.5-6.43,1.93M623.84,206.15c-.48.32-1.56.64-2.04.64-1.02,0-2.95-1.07-2.95-3.43,0-1.39.32-1.66.96-2.14.97-.59,3.43-1.39,4.35-1.39.16,0,.37.32.37.54,0,1.77-.11,4.02-.21,4.77,0,.21-.21.85-.48,1.02M628.88,190.49c-.81-1.18-2.31-2.89-5.58-2.89-.75,0-3.38.7-5.36,1.98-3.32,2.15-4.5,3.6-4.5,5.15,0,.32.38.75.7.75s4.35-1.77,4.72-2.15c.11-.11.22-.27.22-.48,0-1.82.11-2.36.32-2.47.38-.27.97-.37,1.71-.37,2.42,0,3.54,2.14,3.59,3.43.06.7-.05,3.64-.1,4.13,0,.22-.32.59-.97.81-1.23.37-6.11,1.71-7.29,2.19-.48.22-1.39.54-1.93,1.29-.53.75-.96,1.77-.96,2.73,0,3,2.14,5.42,4.13,5.42.7,0,1.77-.22,2.36-.43.7-.32,2.9-1.28,4.24-2.25.11-.1.43,0,.48.22.81,2.09,2.47,2.58,4.02,2.58,3,0,5.52-2.63,5.52-3.65,0-.16-.05-.54-.16-.75-.11-.11-.16-.16-.32-.06-.53.21-1.61.64-1.87.64-.91,0-1.99-.64-1.99-2.14,0-.59.22-6.97.22-9.06,0-2.41-.54-3.76-1.18-4.61"/>
  </g>
</svg>