<?xml version="1.0" encoding="UTF-8"?>
<svg id="Capa_1" xmlns="http://www.w3.org/2000/svg" version="1.1" xmlns:xlink="http://www.w3.org/1999/xlink" viewBox="0 0 1279 600">
  <!-- Generator: Adobe Illustrator 29.3.1, SVG Export Plug-In . SVG Version: 2.1.0 Build 151)  -->
  <defs>
    <style>
      .st0 {
        fill: #fff;
      }
    </style>
  </defs>
  <path class="st0" d="M586.6,239.8c-.7,0-1.4.3-1.9.6-.2.2-.5.9-.6,2.5,0,1.3,0,9.4,0,16.8s0,11,0,12.6c0,4.1.5,4.8,3.9,5.8,1.2.3,1.7.7,1.7,1.3s-1.2.8-2.1.8c-1.7,0-4.3-.3-7.1-.3s-4.7.3-6.6.3-2-.3-2-1,.8-.8,1.4-1c3.5-.8,4.2-2,4.4-4.7.2-3.1.3-8.2.3-11.4s0-15.9-.2-17.9c0-2.3,0-3.3-3.7-3.8-1.2-.1-1.9-.6-1.9-1s.6-.8,1.4-.8c.5-.1,1.6-.1,2.1-.1,2.9,0,8-.5,11.1-.5,6,0,9.9,1.5,12.3,3.8,3.1,3,3.7,6.6,3.7,8.8,0,5.6-2.5,8.3-4.4,9.9-1.7,1.4-4.9,2.8-7.5,2.8s-2.5-.1-3.5-.5c-.7-.3-1.1-.7-1.1-1.1s.3-.6.8-.6h1.4c3.3,0,7.9-3.1,7.9-10.3.4-5.8-3.8-11-9.8-11M614.4,257.4c1.4-1.1,2.7-1.8,4-1.8s3.9,1,5.3,2.5c2.3,2.9,3,6.7,3,9.9s-1.2,6.8-2.8,8.6c-1.6,1.6-3,2-3.7,2-3,0-6.6-2.3-8.1-7-.6-1.6-.8-3.7-.8-5.8,0-3.7,1.5-6.9,3.1-8.4M632.7,266.9c0-8.2-6.7-13.2-13.1-13.2s-7.8,1.9-9.7,3.6c-2.5,2.1-4.5,5.2-4.5,10.1s2,7.6,4.8,9.9c2.4,2,5.7,3.4,8.7,3.4s5.6-.7,8.3-2.6c2.3-1.7,5.5-5.8,5.5-11.2M639,255.6c-.5.2-1.1.8-1.1,1.3s.3.5,1.1,1.1c1.4,1.2,1.6,1.8,1.6,2.5,0,6.5-.2,12.1-.4,14-.2,2.3-.5,3-2.7,3.6-.7.2-1.4.5-1.4,1s.7.9,1.7.9,3.1-.2,5.5-.2,3.3.1,4.1.1,1.7-.3,1.7-.8-.5-.9-1.2-1c-2-.6-2.3-1.1-2.3-2,0-.8,0-14.6,0-15.5s.4-1.4.7-1.6c1.1-1,2.7-1.9,5.4-1.9s3.4.7,4.1,1.2c.7.6,1.8,2.5,1.8,4.6s0,9.7,0,11.8c0,2.1-.5,2.7-2,3.3-.8.3-1.6.6-1.6,1.1s.9.8,1.6.8,3-.1,4.6-.1,3.5.1,5,.1,1.9-.3,1.9-.8-.4-.8-1.6-1.1c-1.6-.5-2.3-1.3-2.4-2.3,0-.9-.2-10.4-.2-11.7,0-3.2-.8-6.2-2.3-7.9-.9-1-2.7-2.5-5.9-2.5s-6,1.8-8.6,3.6c0,0-.4.1-.4-.2,0-.6.2-2.2.2-3.2s-.3-1-.6-1-1,.3-1.7.8c-.8.7-3.2,1.6-4.4,2M686.1,254.3c-.3,0-6.3.3-7.7.3s-.6-.3-.6-.5v-3.1c0-.2-.7-.8-1-.8s-.7.6-1.5,1.4c-1,1.2-3,2.7-5.5,4.6-.3.2-.4.5-.4.7,0,.3.3.7.8.9,1.4.3,2.5.8,2.5,1.2,0,2.3-.3,11.9-.3,14.3s0,3.2.8,4.3c.9,1.4,3.2,3,5.8,3s5.2-1.2,7-2.9c.5-.5.9-1.1.9-1.7s-.3-.7-.3-.7c-.2,0-.4.1-1,.4-1,.6-2.3,1-3.1,1-1.3,0-2.7-.2-3.8-1.2-.7-.7-1.2-1.6-1.2-3.2,0-3.2,0-12,.2-13.7,0-.1.3-.5.5-.5h6.9c.5,0,1.7-.1,1.7-.8s-.2-2.7-.2-2.5c.2-.2-.4-.5-.5-.5M699.4,243.8c0-1.2-1-3.4-2.9-3.4s-2,.3-2.7,1c-.6.6-.8,1.7-.8,2.4,0,1.2.5,1.9,1,2.5.6.6,1.7.8,2.2.8,1.4,0,3.2-1.5,3.2-3.3M691.7,255.6c-.7.2-1.3.7-1.3,1.2s.2.4.6.8c1.8,1.3,2.5,1.9,2.6,2.3,0,.8,0,8.8,0,9.2,0,2.5,0,6.5-.3,7.4-.2.6-1.1,1.4-2.6,1.9-1.1.3-1.6.6-1.6,1s.7.8,1.7.8,3.5-.3,5.7-.3,4.6.2,5.1.2c.8,0,1.6-.3,1.6-.7s-.4-.8-1.4-1.1c-1.6-.5-2.9-.7-3-2.7,0-2.3,0-4.8,0-8.1s.3-12.2.4-13.2c0-.1-.3-.7-.6-.7-1.1.1-4.3,1.5-6.9,2M722,254.5c-.5,0-4.8,0-5.8-.1-.5,0-.8-.4-.8-.6,0-8.7,1.4-13.2,2.9-14.9,1.1-1.3,2.3-1.8,3.9-1.8s4,1,5.4,2.5c1.1,1.2,2.1,1.9,2.5,1.9.8,0,3.3-1.7,3.3-3.2s0-1-.6-1.6c-.9-1.2-2.7-2.8-6.8-2.8s-5.9,1.2-8.3,3c-2.6,1.9-4.5,4.5-5.7,7.3-1.4,3-1.8,6.5-1.8,9.6s-.3.6-.6.9c-2,1-2.8,1.6-2.9,2.2,0,.3.2.7.5.7.8.1,1.4.1,2.3.2.3.1.6.7.6.8,0,4.7,0,15,0,16.4-.3,2.2-.6,2.7-2.8,3.3-.8.2-1.3.5-1.3,1s.5.8,1.3.8,3.2-.3,5.5-.3,5,.2,6.1.2,1.4-.4,1.4-.8-.3-.7-1.4-1c-2.9-.9-3.2-1.2-3.3-3.3-.2-3.5-.2-14.5-.2-16.4s.5-.8.6-.8c3-.3,8.4-.2,10.5,0,.3.1.8.6.8,1,0,2.8,0,13.2-.3,17.2,0,1.1-.7,1.7-2.3,2.3-1,.5-1.4.7-1.4,1.1,0,.6.6.8,1.3.8,1.4,0,3.4-.3,5.6-.3s3.7.2,5.1.2,1.6-.3,1.6-.8,0-.6-1.4-1.1c-1.9-.6-2.6-.9-2.7-2.3-.2-2.6,0-5.4,0-17s.2-5.5-.2-5.5-1.4.2-2,.4c-1.5.4-2.9.9-8.4.8M760.8,255.3c-1.2-.9-4.1-1.4-6.1-1.4s-6.1,1-8.5,2.7c-3.8,2.5-6.3,6.4-6.3,11.2s.9,5.7,2.1,7.6c1.9,3,5.4,5.2,9.6,5.2s7.2-1.6,9.4-4.1c.5-.5.9-1.2.9-1.9s-.5-.5-1.2-.1c-1.7,1.2-3.5,1.9-5.8,1.9-3.4,0-6.4-1.6-7.9-4.1-.3-.4-1.8-2.6-1.8-6.5s1-5.7,2.6-7.6c1-1.2,2.8-2,3.8-2,2.2,0,3.3,1.1,5.4,2.6,1,.8,2.1,1.3,2.6,1.3s2.2-1.6,2.2-2.6-.3-1.7-1-2.2M775.3,243.8c0-1.2-1-3.4-2.9-3.4s-2,.3-2.7,1c-.6.6-.8,1.7-.8,2.4,0,1.2.5,1.9,1,2.5.7.6,1.7.8,2.2.8,1.3,0,3.2-1.5,3.2-3.3M767.6,255.6c-.7.2-1.4.7-1.4,1.2s.2.4.6.8c1.8,1.3,2.5,1.9,2.6,2.3,0,.8,0,8.8,0,9.2,0,2.5,0,6.5-.3,7.4-.2.6-1.1,1.4-2.6,1.9-1.1.3-1.5.6-1.5,1s.7.8,1.7.8,3.6-.3,5.7-.3,4.6.2,5,.2c.8,0,1.6-.3,1.6-.7s-.4-.8-1.4-1.1c-1.6-.5-2.9-.7-3-2.7,0-2.3,0-4.8,0-8.1s.3-12.2.4-13.2c0-.1-.3-.7-.6-.7-1.1.1-4.3,1.5-6.8,2M794.9,275.9c-1.1.6-2.4,1-3.3,1-1.3,0-3.9-1-3.9-3.9s.5-2.1,1.2-2.5c1.6-.9,4.7-1.9,6.4-1.9s.5.3.5.5c0,1.5,0,3.8,0,5.2-.1.2-.4,1.4-.8,1.6M799.6,256.8c-1-1.4-2.6-3.2-6-3.2s-4.1,1-6.1,2.5c-3.2,2.1-5,3.9-5,5.7s.4.9.8.9,3.9-1.7,4.5-2.3c0-.1.3-.4.3-.6,0-1.5,0-2.5.5-2.7.5-.3,1.3-.6,2.5-.6,3.2,0,4.9,2.6,4.9,4.3,0,.8,0,4.6,0,5.2s-.4.7-1.7,1.2c-1.4.5-6.7,1.9-7.8,2.3-.9.4-1.9.7-2.6,1.6-.7.9-1.2,2.2-1.2,3.4,0,3.3,2.3,6,4.6,6s1.9-.1,2.6-.4c.7-.3,3.4-1.4,5.7-2.9,0-.1.4.1.5.3.8,2.4,2.6,3.2,4.2,3.2,3.1,0,6-2.8,6-4.1s0-.5,0-.7-.2-.3-.4-.2c-.8.4-2.2,1-2.4,1-.6,0-2.5-.4-2.5-3.1s.3-8.7.3-11.2c-.2-3-.6-4.3-1.5-5.6M822.9,238.2c-1,0-1.8.3-1.8.8s.7,1,1.5,1.2c2.4.5,3.3,1.5,3.5,2.8,0,.8.2,7,.2,15.4s1.6,15.3,5.2,18.7c1.6,1.6,5.9,3.8,11.7,3.8s6.3-.3,9.2-2c4.6-2.6,7.7-8,8.1-19.2,0-3.3.5-10.6.6-13.5,0-4,1.3-5.1,4.2-5.9.9-.3,1.5-.7,1.5-1.1s-.6-.8-1.6-.8c-1.8,0-3.2.1-5.9.1s-4-.2-5.6-.2-1.6.3-1.6.7.8,1,1.5,1.1c3.5.8,4.1,1.8,4.3,4.1,0,.7.2,3.7.2,7.9,0,7.6-.6,13-1.4,16.5-1.6,7.2-7.7,8.9-11.9,8.9s-7.2-1.4-9-3.4c-2.1-2.3-3.7-4.9-3.7-12.3s0-15.8.3-17.9c.4-2.6,1.5-3.3,3.9-3.7,1.2-.3,1.9-.7,1.9-1.2s-.7-.8-1.9-.8-4.1.1-6.5.1c-2.4,0-4.2-.1-6.9-.1M868.6,255.6c-.4.2-1.1.8-1.1,1.3s.3.5,1.1,1.1c1.4,1.2,1.6,1.8,1.6,2.5,0,6.5-.2,12.1-.4,14-.2,2.3-.5,3-2.7,3.6-.7.2-1.4.5-1.4,1s.7.9,1.7.9,3.1-.2,5.5-.2,3.3.1,4.1.1,1.7-.3,1.7-.8-.5-.9-1.2-1c-2-.6-2.3-1.1-2.3-2,0-.8,0-14.6,0-15.5s.4-1.4.6-1.6c1.1-1,2.7-1.9,5.4-1.9s3.3.7,4.1,1.2c.7.6,1.7,2.5,1.7,4.6s0,9.7,0,11.8c0,2.1-.5,2.7-2,3.3-.8.3-1.5.6-1.5,1.1s.9.8,1.6.8,3-.1,4.6-.1,3.5.1,5,.1,1.9-.3,1.9-.8-.4-.8-1.6-1.1c-1.6-.5-2.3-1.3-2.4-2.3,0-.9-.2-10.4-.2-11.7,0-3.2-.8-6.2-2.3-7.9-.9-1-2.7-2.5-5.9-2.5s-6,1.8-8.6,3.6c0,0-.4.1-.4-.2,0-.6.2-2.2.2-3.2s-.3-1-.6-1-1,.3-1.7.8c-.7.7-3.2,1.6-4.3,2M910,243.8c0-1.2-1-3.4-2.9-3.4s-2,.3-2.7,1c-.6.6-.8,1.7-.8,2.4,0,1.2.5,1.9,1,2.5.7.6,1.8.8,2.2.8,1.4,0,3.2-1.5,3.2-3.3M902.3,255.6c-.7.2-1.4.7-1.4,1.2s.2.4.6.8c1.8,1.3,2.5,1.9,2.6,2.3,0,.8,0,8.8,0,9.2,0,2.5,0,6.5-.3,7.4-.2.6-1.1,1.4-2.6,1.9-1.1.3-1.5.6-1.5,1s.7.8,1.7.8,3.5-.3,5.7-.3,4.6.2,5,.2c.8,0,1.6-.3,1.6-.7s-.4-.8-1.4-1.1c-1.6-.5-2.9-.7-3-2.7,0-2.3,0-4.8,0-8.1s.3-12.2.4-13.2c0-.1-.3-.7-.7-.7-.9.1-4.1,1.5-6.7,2M915.8,254.2c-.6,0-1.6.3-1.6.7s.3.7,1.3,1.1c1.6.4,2.3,1.3,2.8,2.2,1.7,2.9,5,10.8,6.6,15,1.5,3.7,1.7,4.6,2.4,6.7.2.7.6,1.2.9,1.2.5,0,1.2-.7,1.5-1.7,1.1-3.4,1.2-4,3-8.6,1.9-4.5,4.2-10.4,5.3-12.1,1-1.3,1.7-2.1,3.2-2.6,1-.4,1.4-.7,1.4-1s-.7-.7-1.3-.7c-1.2,0-3.2.3-4.4.3s-2.4-.2-3.5-.2-1.3.3-1.3.7.5.7,1.1.9c1.9.7,2.5,1.2,2,2.8-.6,2-4,10.8-4.8,12.6,0,.3-.3.5-.5.3-.5-.5-3.8-7.9-5.6-13.2-.3-.8-.5-1.7,1.4-2.2.8-.3,1.4-.6,1.4-1s-.5-.7-1.5-.7-2.4.1-4.1.1c-.8-.3-4.6-.6-5.7-.6M949.5,260.3c1.1-3,3.6-5,6.4-5s4.1,2.1,4.1,3.9-.8,1.7-2.2,1.7c-3.2.1-6.3.1-8,0-.2.1-.5-.2-.3-.6M963,256.2c-1.7-1.6-4.2-2.5-6.5-2.5s-3.3.3-5,1.1c-5.1,2.4-7.8,7.6-7.8,12.7,0,7.5,4.6,12.8,11.6,12.8s7.4-1.7,9.6-5c.2-.4.5-1.1.5-1.6s-.2-.8-.6-.8-.6.4-.8.8c-1.1,1.6-3,2.3-5.8,2.3s-5.8-1.5-7.3-3.5c-1.4-1.8-2.3-4.8-2.3-7s0-1.7.3-2.3c0-.3.4-.5.6-.5,3,.1,13.9.1,14.6.1s1.3-.8,1.3-1.2c0-2.2-1-4-2.4-5.4M970.5,256c-.7.2-.8.9-.8,1,0,.3.8.8,2.3,1.9.6.4.6,1.3.6,2.1v12c0,3.9-.3,4.5-2.7,5.4-.4.2-1.3.4-1.3.8,0,.6.6.8,1.4.8,1.6,0,2.4-.3,4.3-.3,3.7,0,6.3.3,8,.3s1.6-.3,1.6-.6-.2-.7-1.2-1c-.9-.3-2.1-.6-2.9-.7-1.1-.3-1.5-1.5-1.7-3.4,0-1-.3-12.5-.3-13.8s.2-1,.6-1.4c.6-.6,1.5-.8,2.5-.8s3,.8,3.7,1.5c.2.1.8.3,1,.2.4-.2,2-2.1,2.8-3.2.2-.3.4-.8.4-1,0-.6-.7-2.3-3.4-2.3s-4.8,1.7-7.3,4c0,.1-.4,0-.4-.3,0-1.2,0-2.4,0-3.5s-.3-.7-.7-.7-.6.2-1.3.7c-1,.6-3.2,1.5-5.3,2.3M1004.2,254c-.8-.2-2.1-.4-3.4-.4-2.3,0-4.1.6-5.3,1.4-2.4,1.5-3.6,3.7-3.6,6s2.1,5.4,4.1,6.6c2.1,1.2,2.5,1.6,4.1,2.7,2,1.3,2.8,2.6,2.8,4.1s-.5,2.6-1.5,3.4c-.7.6-1.8,1-2.6,1-2.2,0-4.1-1.2-5.9-4.6-.4-.7-.8-1.5-1.4-1.5s-.5.6-.5,1.4c0,1.9.9,4.6,1,5,1.1.9,4.3,1.4,6.3,1.4s4.4-.7,5.6-1.5c1.7-1.2,3.8-3.3,3.8-6.3s-1.3-5.1-5.3-7.4c-4.1-2.3-6.2-3.9-6.2-6.1s1.3-3.8,3.7-3.8,3.8,1.3,5.2,4.3c.3.7.8,1.2,1.1,1.2s.8-.6.8-1.2-.2-2.8-.2-3.9c0-.4-.4-.8-.6-1,0-.1-1.3-.7-2-.8M1021.7,243.8c0-1.2-1-3.4-2.9-3.4s-2,.3-2.7,1c-.6.6-.8,1.7-.8,2.4,0,1.2.5,1.9,1,2.5.6.6,1.7.8,2.2.8,1.3,0,3.2-1.5,3.2-3.3M1014,255.6c-.7.2-1.4.7-1.4,1.2s.2.4.6.8c1.8,1.3,2.5,1.9,2.6,2.3,0,.8,0,8.8,0,9.2,0,2.5,0,6.5-.3,7.4-.2.6-1.1,1.4-2.6,1.9-1.1.3-1.6.6-1.6,1s.7.8,1.7.8,3.5-.3,5.7-.3,4.6.2,5,.2c.8,0,1.6-.3,1.6-.7s-.4-.8-1.4-1.1c-1.6-.5-2.9-.7-3-2.7,0-2.3,0-4.8,0-8.1s.3-12.2.4-13.2c0-.1-.3-.7-.7-.7-.9.1-4.1,1.5-6.6,2M1036.7,258c1.2-1.2,2.9-2.1,4.8-2.1s3.7.7,5.5,2.5c.7.8,1.3,2,1.4,2.5.3,2.9.3,7,.2,10.8,0,1.9-.9,3.9-1,4-1.1.8-2.4,1.4-4.4,1.4-5.4,0-9-5.8-9-11-.2-3.3,1.1-6.7,2.5-8.1M1047.9,253.9c-.8-.1-1.9-.2-4-.2s-5.7.6-8.5,2.5c-3.2,1.9-6.9,5.5-6.9,11.9s1,6.6,3.2,8.9c1.9,2.1,4.8,3.4,8,3.4s5.4-.7,8.3-3.2c0,0,.4.1.4.4,0,.9,0,2,0,2.6s.5.8.7.8c.3,0,1-.1,2.5-.7,1.2-.4,4.7-1.1,6-1.3.3-.1,1.2-1.2,1.2-1.7s0-.4-.4-.4c-.6.1-2.7.4-3.4.4s-.9-.3-1-3c0-1.2-.2-1.2-.2-14.3,0-18.7.3-22.1.6-25.3,0-.5-.3-1-.4-1-.3,0-.6.1-.9.2-1.7.6-5.4,1.6-7,1.9-.4.1-1.1.8-1.1,1s0,.3.7.6c2.9,1.5,2.9,2.3,3,2.6.2,1.6.4,11.2,0,13-.4.5-.6.9-.8.9M1073.8,275.9c-1.1.6-2.4,1-3.3,1-1.3,0-3.9-1-3.9-3.9s.5-2.1,1.2-2.5c1.6-.9,4.7-1.9,6.4-1.9s.5.3.5.5c0,1.5,0,3.8,0,5.2,0,.2-.4,1.4-.8,1.6M1078.5,256.8c-1-1.4-2.7-3.2-6-3.2s-4.1,1-6.1,2.5c-3.2,2.1-5,3.9-5,5.7s.4.9.8.9,3.9-1.7,4.5-2.3c0-.1.3-.4.3-.6,0-1.5,0-2.5.5-2.7.4-.3,1.3-.6,2.5-.6,3.2,0,4.9,2.6,4.9,4.3,0,.8,0,4.6,0,5.2s-.4.7-1.8,1.2-6.7,1.9-7.7,2.3c-.9.4-1.9.7-2.6,1.6s-1.2,2.2-1.2,3.4c0,3.3,2.3,6,4.6,6s1.9-.1,2.7-.4c.7-.3,3.4-1.4,5.7-2.9,0-.1.4.1.4.3.8,2.4,2.6,3.2,4.2,3.2,3.1,0,6-2.8,6-4.1s0-.5,0-.7-.2-.3-.4-.2c-.8.4-2.2,1-2.5,1-.6,0-2.5-.4-2.5-3.1s.3-8.7.3-11.2c-.1-3-.5-4.3-1.4-5.6M1095.1,258c1.2-1.2,2.9-2.1,4.8-2.1s3.7.7,5.5,2.5c.7.8,1.3,2,1.4,2.5.3,2.9.3,7,.2,10.8,0,1.9-.9,3.9-1,4-1.1.8-2.5,1.4-4.4,1.4-5.4,0-9-5.8-9-11,0-3.3,1.2-6.7,2.5-8.1M1106.3,253.9c-.8-.1-1.9-.2-4-.2s-5.7.6-8.5,2.5c-3.2,1.9-6.9,5.5-6.9,11.9s1,6.6,3.2,8.9c1.9,2.1,4.8,3.4,8,3.4s5.4-.7,8.3-3.2c0,0,.4.1.4.4,0,.9,0,2,0,2.6s.5.8.7.8c.3,0,1-.1,2.5-.7,1.2-.4,4.7-1.1,6-1.3.3-.1,1.2-1.2,1.2-1.7s0-.4-.4-.4c-.7.1-2.7.4-3.4.4s-.9-.3-1-3c0-1.2-.2-1.2-.2-14.3,0-18.7.3-22.1.6-25.3,0-.5-.3-1-.5-1-.3,0-.6.1-.9.2-1.7.6-5.4,1.6-7,1.9-.4.1-1.1.8-1.1,1s0,.3.7.6c2.9,1.5,2.9,2.3,3,2.6.2,1.6.4,11.2,0,13-.2.5-.4.9-.7.9M563.2,389.3c-1.2,1.2-3.4,4.2-3.4,5.4,0,3.1,4.5,4.9,7.8,4.9s8.1-1.7,13.4-5.5c7.1-5.1,13.3-15.7,13.7-28.8.2-9.2.7-37.9.8-46.8,0-5.3,1.5-6.7,5.2-7.6,2.6-.7,3.3-1.5,3.3-2.4s-1.4-1.3-3-1.3c-3.4,0-7.3.3-13.3.3s-9.1-.4-12.4-.4-3.4.8-3.4,1.5,1.1,1.9,3.5,2.4c4.9,1.2,6,3.5,6.1,5.5.2,4.6.5,15.5.5,31.1s0,29.8-.3,36c-.2,2.2-.7,5.2-2.2,7.1-.8,1-1.6,1.3-2.9,1.3s-4.3-1.3-6.9-3.2c-1.4-.9-2.9-1.2-3.4-1.2-.5.1-2.7,1.2-3.1,1.7M650.1,345c0,.4-.3.9-.4.9-3.5,0-11.6.1-15.8.2-.4,0-.9-.5-.8-1.1.7-2.6,5.9-16.3,7.8-21.6.3-.9,1-1.1,1.2-.3,1.5,3.6,6.3,16.8,8,21.9M649.8,308.1c-.9-2.2-1.3-2.4-1.9-2.4s-1.3.4-2,1.4c-.8,1.2-4.1,5.2-5.7,6.8-.3.2-.2.5-.2.9s-.4,1.7-.6,1.9c-4.6,10.8-16.3,41.8-18.9,47.1-3.2,6.4-4.4,8.2-9.9,9.7-2.3.7-2.7,1.4-2.7,2.2s.7,1.3,3.2,1.3,6.5-.4,10.8-.4,6.8.2,8.7.2,3.3-.5,3.3-1.4-1-1.6-3.2-2.2c-4-1.1-5.1-2.6-5.1-4.8s1.2-7.1,4.7-15.8c.2-.3.9-1.1,1.2-1.1,1.5-.1,6.8-.4,18.3-.3,1.3,0,2.5,1.2,2.6,1.6,2.5,7,4.8,13.1,5,15.9.2,1.7,0,3.5-4.3,4.6-2.1.4-2.8,1.3-2.8,1.9,0,1,1.3,1.6,3.5,1.6s7.1-.2,10.7-.2,11.6.4,14.3.4,3.6-.9,3.6-1.6-1-1.4-2.8-2c-3.7-1.1-6.1-2.2-9.7-11-2.2-5.4-9.6-25.2-15.6-42-1.5-4.1-3.5-9.7-4.5-12.3M677.7,307c-1.6,0-3.2.6-3.2,1.6s1.5,1.6,2.8,2c4.9,1.4,6.5,3.8,8.8,8.9,4.1,9.9,12.5,30,16.2,39.9,3.2,8,5.1,14.3,5.7,16.7.2.8,1.2,2.6,2.4,2.6s2.5-1.6,2.9-2.8c2.2-6.7,4.6-12.7,8.2-21.3,6.5-16.1,13.3-29.3,15.7-34.6,2.7-5.7,5-7.9,9.9-9.2,1.8-.3,3-1.1,3-2.1s-1.4-1.5-3.3-1.5-6.7.4-9.8.4-5.9-.3-9.3-.3-2.9.9-2.9,1.6,1.2,1.4,2.4,1.8c4.4,1.6,7.3,2.1,4.9,8.5-3.3,8.6-14.8,35.5-15.7,37.2,0,.3-.8.3-1,0-2.6-5.3-14.3-34.3-15.9-39.6-.9-3.1-1-4.6,3.9-5.9,2-.5,2.7-1.4,2.7-2.3s-1.2-1.3-2.6-1.3c-2.5,0-9.3.2-12.9.2-5.3,0-10.7-.5-12.9-.5M783.3,307.6c-5.7,0-14.6-.3-19.7-.3s-3.4.7-3.4,1.6,1.2,1.5,3.5,2c4.7.9,5.6,3.1,5.8,7,.2,3.2,0,8.2,0,21s-.6,21.8-.9,26.4c-.4,5.9-1.8,7-7.4,8.3-1.8.4-3.3,1.2-3.3,2.2s1.6,1.4,3.7,1.4c3.9,0,5.1-.6,12.4-.6s35.1.6,36.3.6,2.3-.7,2.6-1.4c1-1.7,4.1-11.8,4.1-12.6,0-.9.2-3.2-.9-3.2s-1.9,1-3.4,3.8c-2.4,4.2-5.3,6.9-8.6,8.1-2.7,1-6.7,1-10,1s-7.1-.3-8.8-.7c-1.1-.2-2.1-1.6-2.4-2.6-.4-2.3-.3-6.3-.4-8.9,0-3.6-.2-12.1.2-15.1,0-.2,1-1.3,1.4-1.3,3.4,0,7.4,0,10.9.3,4.3.3,5.7,1.1,7.1,5.9.3,1.1,1.2,2.4,2.1,2.4s1.5-1.3,1.4-3.3c-.2-2.7-.4-4.5-.4-7.4s.2-4.5.4-7.5c0-1.2-.2-3.1-1.1-3.1s-1.7,1.2-2.4,2.8c-2.1,4.8-1.9,5.2-9.6,5.2h-8.7c-.6,0-1.1-.8-1.1-1.1,0-6,.2-21.1.4-23.8,0-2.6,1-3,1.4-3,8.4-.1,13.1.3,15.1.6,2.5.4,5.6,2.1,7,8.2.2,1.1,1.1,2.7,2.1,2.7s1.7-1.5,1.7-3.1,0-9.7,0-11.6c0-.8-.9-1.5-1.3-1.4-1.5.2-6,.7-9.6.7h-16.2v-.2ZM864.2,314.4c3.7,3.8,4.7,8.7,4.7,11.5,0,6.1-3.2,10-6.1,12.2-1.2.8-6.2,2.4-11.8,2.4s-1.3-.6-1.4-1.3c-.4-2.8,0-21.9.3-25.6,0-.5.8-1.9,1.3-2.3.9-.4,3.7-.8,4.1-.8,3.1,0,6.4,1.3,8.9,3.9M874.8,338.6c4.8-3.8,7.6-8.1,7.6-13.9s-2.5-10.2-5.9-13c-5.2-4.4-13.9-4.8-19-4.8s-14.9.5-19,.5h-7.9c-1.9,0-3.2.8-3.2,1.5s1.2,1.6,2.7,2.1c5.1,1.2,6.1,2.8,6.3,5.4.3,2.9.5,12.2.5,23.9s0,18.4-.7,26.8c-.3,3.5-1.5,4.8-6.5,6.3-1.4.4-2.6,1.1-2.6,1.7,0,1,.8,1.7,3.5,1.7s6.7-.4,10.5-.4,10.1.7,13.9.7,3.4-.4,3.4-1.6-.8-1.5-2.6-2.1c-5-1.3-5.8-2.4-6.1-7.1-.3-5-.5-19.5-.3-21.7,0-.6.8-1.1,1.2-1.1,2.1,0,4.5.8,5.2,1.4.9.5,2.5,2.9,3.5,4.6,4.6,7.8,10.1,16.8,13.2,20.9,2.3,3.1,6.5,7.1,16.4,7.1s5.6-.2,7.3-.9c.8-.2,1.7-1,1.7-1.6s-.9-1.3-2-1.5c-3.3-.6-6.4-2-9.4-5.4-5.4-6.3-14.4-21.3-16.4-25.7-.2-.4-.3-1.3.2-1.5,1.8-.8,4.1-2,4.5-2.3M916.5,319.1c.3,4.1.3,15.5.3,21,0,9.2-.2,20.5-.5,24.6-.2,4.7-1,7-6,8.2-2.3.5-3.3,1.3-3.3,2.1s.8,1.9,3.4,1.9c4,0,7.3-.3,10.4-.3,4.6-.1,12,.6,16.3.6s3.4-.3,3.4-1.4-1.1-1.9-3-2.3c-6.1-1.6-6.7-2.9-7.2-9.4-.2-3.3-.3-7.9-.3-21.1,0-18.7,0-22.5.4-25.3.2-2.8.5-5.7,6-6.6,1.9-.3,3.4-1.2,3.4-2.2s-1.5-1.5-3.4-1.5c-3.8,0-7.6.3-13,.3s-9.3-.3-12.4-.3-3.5.7-3.5,1.5.6,1.5,3.3,2.2c5.4,1.1,5.4,2.8,5.7,8M992.3,345c0,.4-.3.9-.4.9-3.5,0-11.5.1-15.8.2-.4,0-.9-.5-.8-1.1.6-2.6,5.9-16.3,7.8-21.6.3-.9,1-1.1,1.2-.3,1.6,3.6,6.4,16.8,8,21.9M992.1,308.1c-.9-2.2-1.3-2.4-1.9-2.4s-1.3.4-2,1.4c-.8,1.2-4.1,5.2-5.7,6.8-.3.2-.2.5-.2.9s-.4,1.7-.5,1.9c-4.6,10.8-16.3,41.8-19,47.1-3.2,6.4-4.4,8.2-9.9,9.7-2.3.7-2.7,1.4-2.7,2.2s.6,1.3,3.2,1.3,6.5-.4,10.8-.4,6.8.2,8.7.2,3.3-.5,3.3-1.4-1-1.6-3.2-2.2c-4-1.1-5.1-2.6-5.1-4.8s1.2-7.1,4.7-15.8c.2-.3.9-1.1,1.2-1.1,1.5-.1,6.7-.4,18.3-.3,1.3,0,2.5,1.2,2.6,1.6,2.5,7,4.8,13.1,5,15.9.2,1.7,0,3.5-4.3,4.6-2.1.4-2.8,1.3-2.8,1.9,0,1,1.3,1.6,3.5,1.6s7.1-.2,10.7-.2,11.5.4,14.3.4,3.6-.9,3.6-1.6-1-1.4-2.8-2c-3.7-1.1-6.1-2.2-9.7-11-2.2-5.4-9.6-25.2-15.6-42-1.5-4.1-3.5-9.7-4.5-12.3M1038.4,307.1c-2,0-3.3.8-3.3,1.6s1.6,1.6,2.8,1.9c5.7,1.3,6.4,2.8,8.4,5.2.3.4.7,1.7.7,6.1,0,7.8-1.4,28.8-2,41-.3,8.2-2.9,9-7.9,10.6-1.1.3-2.4.9-2.4,1.9s1.3,1.4,2.8,1.4,8-.3,10.3-.3c3.8,0,6.3.4,9.5.4s3.6-.4,3.6-1.6-.8-1.4-3-2.1c-5.2-1.6-6.4-3.5-6.9-7-.5-5.3-.3-13.6-.2-28.7,0-8.6.3-11.1.5-14.1,0-.3.7-1.2,1.2-.5,9.7,11.4,27.4,30.2,37.7,42.7,3,3.6,5,6.1,7.1,8.8,1,1.3,3.6,4.1,5.9,4.1s1.7-1.1,1.7-2.1c0-2.8-.7-12.4-.7-17,0-9.3.8-36.8,1.1-40.7.5-4.4,1.1-6.3,6.7-8.2,2-.5,2.7-1.5,2.7-2.2s-.8-1.4-2.6-1.4c-2.8,0-7.3.6-12.5.6s-4.7-.1-7.4-.1-3.2.5-3.2,1.3c0,1.3,1.4,1.9,3.6,2.5,5.4,1.4,6.5,3.9,6.7,6.1.3,2.8.7,7.9.7,11.7,0,9.1.3,21.5-.2,24.6,0,.2-.4,1.2-1,.7-5.8-6.1-27.1-28.2-32.5-34.7-4.5-5.2-7.5-8.6-9.2-10.6-.3-.3-1.8-1.4-2.4-1.4-5.3,0-13.9-.5-16.3-.5M1160.8,345c0,.4-.3.9-.4.9-3.5,0-11.5.1-15.8.2-.4,0-.9-.5-.8-1.1.6-2.6,5.9-16.3,7.8-21.6.3-.9,1-1.1,1.2-.3,1.6,3.6,6.4,16.8,8,21.9M1160.6,308.1c-.9-2.2-1.3-2.4-1.8-2.4s-1.3.4-2,1.4c-.8,1.2-4.1,5.2-5.7,6.8-.3.2-.2.5-.2.9s-.4,1.7-.6,1.9c-4.6,10.8-16.3,41.8-18.9,47.1-3.2,6.4-4.4,8.2-9.9,9.7-2.3.7-2.7,1.4-2.7,2.2s.6,1.3,3.1,1.3,6.5-.4,10.8-.4,6.8.2,8.7.2,3.3-.5,3.3-1.4-1-1.6-3.2-2.2c-4-1.1-5.1-2.6-5.1-4.8s1.2-7.1,4.7-15.8c.2-.3.9-1.1,1.2-1.1,1.5-.1,6.8-.4,18.3-.3,1.3,0,2.5,1.2,2.6,1.6,2.5,7,4.8,13.1,5,15.9.2,1.7,0,3.5-4.4,4.6-2.1.4-2.8,1.3-2.8,1.9,0,1,1.3,1.6,3.5,1.6s7.1-.2,10.7-.2,11.5.4,14.3.4,3.6-.9,3.6-1.6-1-1.4-2.8-2c-3.7-1.1-6.1-2.2-9.7-11-2.2-5.4-9.6-25.2-15.6-42-1.4-4.1-3.4-9.7-4.4-12.3M1004.3,409.2c-1.9-.5-4.5-.9-7-.9-4.4,0-9.9,1.1-14.5,4.8-2.3,1.8-5.9,6.4-5.9,12.9s2.5,9.7,4.5,12.1c2.2,2.5,7.8,6.1,15.8,6.1s8.6-1.3,9.4-1.6c.8-.4,1.8-1.2,1.9-1.7.5-1,1.3-3.3,1.6-4.7.2-.6.2-2-.4-2s-.8.5-1.4,1.7c-1.2,2.2-2.7,3.8-4.7,4.9-1.9,1.1-4.5,1.2-5.2,1.2-4.2,0-9.1-2.1-12-8-1.2-2.4-1.8-5.5-1.8-9.1,0-8.1,4-14.9,12.5-14.9s5.6,1.2,7.9,3.1c.9.7,1.7,2.1,2.3,3.8.3.8.8,1.4,1,1.4.6,0,1-.9.9-2,0-1.6-.2-3.4-.3-4.9,0-.8-.4-1.5-.8-1.5-1.2,0-2.5-.3-3.8-.7M1024,424.4c.9-.8,1.7-1.2,2.6-1.2,1.5,0,2.9.9,3.9,2.1,1.7,2.4,2.1,5.8,2.1,8.1s-.9,5.9-2,7.3c-.8.9-1.8,1.3-2.4,1.3-2.2,0-4.7-1.8-5.8-5.6-.4-1.3-.6-3.4-.6-5.1,0-3.5.9-5.8,2.2-6.9M1038.9,432.6c0-7-6-11.2-11.3-11.2s-7,1.7-8.6,3.1c-2,1.7-3.7,4.6-3.7,8.3s1.7,6.4,4,8.3c2,1.7,5,2.8,7.4,2.8s5.2-.6,7.4-2.2c2-1.3,4.8-4.6,4.8-9.1M1044.4,407.7c-.6.2-1,.6-1,.9s.3.5,1,1.1c1.1.9,1.4,1.2,1.4,1.8,0,1.6,0,6.6,0,9.4,0,8.5-.2,14.5-.3,16.9-.2,2.8-.5,3.6-2.3,4.1-.6.1-1.3.3-1.3.9s.4.6,1.6.6,3.8-.2,5-.2,4,.2,5.3.2,1.4-.2,1.4-.6-.4-.6-1.1-.9c-2-.6-2.3-1.2-2.4-2.5-.2-1.6-.2-8.7-.2-12.9,0-8,.3-18.8.4-20.7,0-.2-.5-.6-.6-.5-2.1,1.3-4.6,1.7-7,2.4M1067.3,424.4c.9-.8,1.7-1.2,2.6-1.2,1.5,0,2.9.9,3.9,2.1,1.7,2.4,2.1,5.8,2.1,8.1s-.9,5.9-2,7.3c-.8.9-1.8,1.3-2.4,1.3-2.2,0-4.7-1.8-5.8-5.6-.4-1.3-.6-3.4-.6-5.1,0-3.5,1-5.8,2.2-6.9M1082.2,432.6c0-7-6-11.2-11.3-11.2s-7,1.7-8.6,3.1c-2,1.7-3.7,4.6-3.7,8.3s1.7,6.4,4,8.3c2,1.7,5,2.8,7.4,2.8s5.2-.6,7.4-2.2c2.1-1.3,4.8-4.6,4.8-9.1M1088.1,423.7c-.4.1-1,.6-1,1s.6,1,1.9,2.3c.3.3.3.7.3,1.2,0,4.7-.2,8.9-.3,10.3-.2,2.3-.4,3-2.2,3.4-1,.3-1.3.6-1.3.9,0,.5.7.7,1.5.7s2.7-.2,4.5-.2,5,.1,5.3.1c.7,0,1.4-.4,1.4-.7s-.3-.6-1.3-1c-1.4-.5-1.9-1.2-1.9-2.3,0-4.1,0-9,0-12.4,0-.4.2-1,.5-1.2.8-.6,2-1.1,3.3-1.1s2.8.8,3.5,1.7c.3.3.7,1.2.6,3.4v9.2c0,1.9-.6,2.5-2,2.9-.7.2-1.1.6-1.1.8,0,.4.2.8,1.6.8s3.3-.1,4.4-.1,3.6.2,4.8.2,1.4-.4,1.4-.8-.5-.6-1.1-.8c-1.9-.5-2.1-1-2.3-2.7,0-1.2,0-11,0-11.4s.2-1.5.4-1.7c.5-.4,1.4-1.1,3.3-1.1s2.8.8,3.4,1.8.8,2,.8,2.9c0,1.8,0,7.7,0,9.1,0,2.1-.3,2.6-1.7,3-.6.2-1.1.5-1.1.8s.3.8,1.3.8,2.6-.2,4.4-.2,3.2.2,4.3.2,1.5-.3,1.5-.7-.4-.6-1.1-.9c-1.4-.4-1.8-1.2-1.9-2.1,0-3.4-.2-9-.3-10.8,0-2-.6-4-2-5.4-1.1-1.1-2.4-1.9-4.6-1.9s-1.9.2-3.1.8c-1.1.5-3.3,1.9-3.9,2.3,0,0-.3,0-.4-.2-.3-.4-.9-1.5-1.8-2.1s-2.3-1.1-3.9-1.1c-2.6,0-5.1,1.4-7.2,3.1-.2.2-.4-.2-.4-.3,0-.5.2-1.6.2-2.3s-.2-.5-.5-.7c0-.1-.2-.1-.5,0-1.3.7-4.5,2-5.8,2.5M1144.2,426.4c1.5,1.8,2.3,4.6,2.3,6.8s-.8,5.6-2.1,7.2c-1.1,1.1-2.1,1.6-2.6,1.6-.8,0-2.2-.3-3.3-1.5-1.1-1-1.4-2.5-1.5-3.1-.3-1.9-.5-5.3-.5-9.3s0-2.2,0-3c0-.2.3-.5.4-.6.5-.2,1.2-.4,2.1-.4,2.2,0,4.2,1.2,5.1,2.3M1147.9,441.5c2.5-1.9,5-5,5-9.4s-1.3-6.3-3.6-8.4c-1.7-1.5-4.1-2.4-6.9-2.4s-4,.5-5.7,1.6c0,0-.2,0-.2-.3,0-1.2,0-2.8,0-4.1,0-4.2.3-8.6.5-12.4,0-.3-.4-.9-.6-.9-.3,0-.8.2-1.8.7-1.8.9-4,1.3-5.8,1.8-.3.1-.9.6-.9,1s.5.5,1.6,1.2c.9.8,1.1,1.3,1.1,1.7,0,.8.2,7.6.2,12.7s0,13.7-.3,17.9c0,.4.4.7.6.7s.4-.1.7-.2c.5-.3.9-.3,1.1-.2,1.8.5,5.2,1.1,7.2,1.1,2.1.3,5.6-.4,7.9-2.1M1166.5,413.5c0-1.2-1-3.3-2.8-3.3s-2,.4-2.7,1c-.6.6-.9,1.7-.9,2.4,0,1.1.5,1.8,1,2.4.6.6,1.7.9,2.1.9,1.5-.1,3.3-1.6,3.3-3.4M1159.5,423.2c-.9.2-1.4.6-1.4,1s.3.5.6.9c1.1,1,1.8,1.5,1.8,1.9,0,.6,0,3.7,0,4.8,0,3.8,0,7.6-.3,8.4,0,.5-.7,1.2-2,1.6-1,.3-1.4.6-1.4,1s.6.7,1.5.7,3.5-.2,5.2-.2,4.1.2,4.5.2c.7,0,1.5-.3,1.5-.7s-.4-.8-1.2-1c-1.4-.4-2-.6-2.1-2.3,0-1.9,0-3.8,0-5.4,0-3.1.2-10.3.3-12.1,0-.2-.3-.6-.5-.6-1,.1-4.3,1.4-6.5,1.8M1183.6,440c-.5.3-1.6.6-2,.6-1,0-3-1.1-3-3.4s.3-1.7,1-2.1c1-.6,3.4-1.4,4.3-1.4s.4.3.4.5c0,1.8,0,4-.2,4.8,0,.1-.2.8-.5,1M1188.7,424.3c-.8-1.2-2.3-2.9-5.6-2.9s-3.4.7-5.4,2c-3.3,2.1-4.5,3.6-4.5,5.2s.4.8.7.8,4.3-1.8,4.7-2.1c0-.1.2-.3.2-.5,0-1.8,0-2.4.3-2.5.4-.3,1-.4,1.7-.4,2.4,0,3.5,2.1,3.6,3.4,0,.7,0,3.6,0,4.1s-.3.6-1,.8c-1.2.4-6.1,1.7-7.3,2.2-.5.2-1.4.5-1.9,1.3s-1,1.8-1,2.7c0,3,2.1,5.4,4.1,5.4s1.8-.2,2.4-.4c.7-.3,2.9-1.3,4.2-2.3,0-.1.4,0,.5.2.8,2.1,2.5,2.6,4,2.6,3,0,5.5-2.6,5.5-3.6s0-.5-.2-.7c0-.1-.2-.2-.3-.1-.5.2-1.6.6-1.9.6-.9,0-2-.6-2-2.1s.2-7,.2-9.1c.3-2.4-.3-3.7-.9-4.6M235.4,418.4c-3.6-.8-5.4-2-5.8-4.9-.3-2.2-.4-12.8-.4-28.6v-20.8c.1-4.3.7-5.9,5.1-7,1.4-.3,2.2-1.1,2.2-1.5,0-.6-.7-.8-2.3-.8-3.6,0-12.2.6-14.6.6s-10.2-.6-12.8-.6-2.3.6-2.3,1,1.2,1.1,2.1,1.4c2.9.7,5,1.7,5.5,4.9.1,1.8.3,6.1.3,11.4s0,30.3-.1,36.1c-.1,5.7-1.1,7.7-5.6,8.8-1.2.3-2.2.6-2.2,1.3s1,1.1,2.3,1.1c4.1,0,9.4-.7,13.8-.7s10.9.6,14.6.6,2.2-.3,2.2-1.1c-.2-.5-.7-.9-2-1.2M384.8,383.7c-2.6-1.8-7-4.3-11.3-7.5-5.1-3.9-6.7-6.8-6.7-10.6,0-7,5.1-10.3,10-10.3s6.3,1.4,8.7,3.5c1.8,1.8,3.4,4.2,4.8,7.5.4,1.1,1,1.8,1.4,1.8.6,0,1-.7.7-2.1-.3-1-1.1-7.1-1-9.5,0-.7-.5-1.3-1.1-1.4-2.7-.7-7.3-1.8-13.9-1.8s-11.3,1.7-14.3,3.5c-4.8,3.1-8.4,7.8-8.4,15.6s4.7,14.9,16.4,22.4c7.6,4.7,12,9.2,12,14.4s-4.7,10.9-11.6,10.9-7.4-1.7-10.5-4.2c-2.9-2.5-5.2-5.7-6.3-9.2-.6-1.5-.8-2.5-1.5-2.5s-1.2.8-.7,2.9c.7,4,.8,8.4,1.2,10.3,0,.3.4,1.3,1.2,1.5,3.9,1.5,12.2,3.3,16.1,3.3,14,0,25.9-7.7,25.9-20.2,0-9.8-6-14.7-11.1-18.3M336.2,418.4c-4.5-1.1-5.5-3.1-5.6-8.8-.1-5.9-.1-33.5-.1-36.1,0-5.3.1-9.6.3-11.4.6-3.2,2.6-4.2,5.5-4.9.8-.3,2.1-1,2.1-1.4s-.8-1-2.3-1c-2.6,0-9.5.6-12.8.6s-11-.6-14.6-.6-2.3.3-2.3.8.8,1.3,2.2,1.5c4.4,1.1,4.9,2.7,5.1,7v19.9c0,.8-.2,1-.8,1.1-.2.1-5.6.1-12,.1v-38.7h12.2v-8.2h-12.2v-10.9h-8.1v10.9h-12.2v8.2h12.2v38.7c-6.3,0-11.8,0-12.1-.1-.6-.1-.7-.8-.7-2.8v-18.1c.1-4.3.7-5.9,5.1-7,1.4-.3,2.2-1.1,2.2-1.5,0-.6-.7-.8-2.3-.8-3.6,0-12.2.6-14.6.6s-10.2-.6-12.8-.6-2.3.6-2.3,1,1.2,1.1,2.1,1.4c2.9.7,5,1.7,5.5,4.9.1,1.8.3,6.1.3,11.4s0,30.3-.1,36.1c-.1,5.7-1.1,7.7-5.6,8.8-1.2.3-2.2.6-2.2,1.3s1,1.1,2.3,1.1c4.1,0,9.4-.7,13.8-.7s10.9.6,14.6.6,2.2-.3,2.2-1.1-.5-.8-1.8-1.1c-3.6-.8-5.4-2-5.8-4.9-.2-2-.4-10.6-.4-23.6.1-.4.3-.7.4-.7,1.2-.3,31.9-.3,32.4-.1.7.1.9.8.9,1.7,0,12.5-.2,20.8-.4,22.7-.4,2.9-2.2,4-5.8,4.9-1.2.3-1.8.7-1.8,1.1,0,.8,1.1,1.1,2.2,1.1,3.7,0,9.8-.6,14.6-.6s9.6.7,13.8.7,2.3-.8,2.3-1.1c-.4-.8-1.4-1.1-2.6-1.4M370.4,303.9c-.9,2,0,4.3,1.9,5.1.4.2.9.3,1.4.3,1.7,0,3.7-.7,4.4-1,.3-.1.5-.3.6-.6.1-.3.1-.6,0-.9-.4-1-1.7-4.2-3.4-4.9-.5-.2-1-.3-1.6-.3-1.2,0-2.6.9-3.3,2.3M379.5,314.7c-1,.1-4.4.3-5.6,1.7-1.4,1.6-1.3,4.1.3,5.5.7.7,1.7,1,2.6,1s2.1-.4,2.9-1.3c1.2-1.4,1.1-4.8,1.1-5.9s-.2-.6-.4-.8c-.3-.1-.5-.2-.9-.2h0ZM381.5,309c-.7,1.6,0,3.5,1.6,4.2.4.2.8.3,1.3.3h.6c.1,0,.3-.1.4-.1,0,0,.1,0,.2-.1s.3-.1.4-.2h.1c.2-.1.3-.2.4-.3h.1c.1-.2.2-.3.3-.4h.1c0-.1,0-.2.1-.2h0c.1-.1.1-.3.2-.4.7-1.6,0-3.5-1.6-4.2-.2-.1-.4-.2-.6-.2h-1.2c-.1,0-.3.1-.4.1s-.1,0-.2.1h0c-.2.1-.4.2-.6.4h0c-.1.1-.2.1-.3.2h-.1c-.1.2-.2.3-.3.4h-.1c-.2,0-.3.2-.4.4M381.9,298.2c-.2,1.8,1.9,4.6,2.5,5.4.2.2.5.4.7.4h.1c.2,0,.5-.1.7-.2.8-.6,3.4-2.9,3.6-4.7.2-2.1-1.3-4.1-3.4-4.3h-.4c-2,0-3.6,1.4-3.8,3.4M390.7,308.1c-.2.3-.2.6-.2.8.1.3.2.5.5.7.8.5,3.2,2,5,2s.4,0,.5-.1c2.1-.4,3.4-2.5,3-4.6-.4-1.8-2-3.1-3.8-3.1s-.5,0-.8.1c-1.7.5-3.7,3.4-4.2,4.2M392.2,323.8c1.8-1.1,2.5-3.5,1.4-5.3-.9-1.6-4.2-2.6-5.2-2.9h-.3c-.2,0-.4.1-.5.2-.2.1-.4.4-.5.7-.3,1-1.1,4.4-.1,6,.7,1.2,2,1.9,3.3,1.9.6-.1,1.3-.3,1.9-.6M370.9,312.5c-1.8-.8-3.2-2.3-4-4.2-.7-1.9-.7-4,.2-5.8,1.2-2.8,3.9-4.5,6.9-4.5s2.1.2,3.1.7c.4.2.8.5,1.2.8-.1-.5-.1-1,0-1.5.4-3.9,3.6-6.8,7.5-6.8h.8c4.1.4,7.1,4.2,6.7,8.4-.1.5-.2.9-.3,1.4.4-.2.9-.4,1.4-.5s1-.2,1.6-.2c3.5,0,6.6,2.5,7.4,6,.4,2,0,4-1.1,5.7s-2.8,2.9-4.8,3.3c-.4.1-.9.1-1.3.1h-.1c.3.4.6.8.9,1.2,1,1.8,1.3,3.8.8,5.8s-1.8,3.6-3.5,4.6c-1.1.7-2.4,1-3.8,1-2.7,0-5.2-1.5-6.5-3.8-.2-.4-.4-.9-.6-1.4-.2.4-.5.8-.8,1.2-1.4,1.6-3.5,2.5-5.6,2.5s-3.7-.7-5-2c-3.1-2.8-3.3-7.6-.6-10.8.3-.4.7-.7,1.1-.9-.8,0-1.2-.1-1.6-.3M325.4,286.6c1.1.5,3.4.2,4-1.1.6-1.4-.6-3.3-1.7-3.8s-3.4-.2-4,1.1c-.7,1.3.5,3.3,1.7,3.8M200.8,307c-.4,2.1.9,4.2,3,4.6.2,0,.4.1.5.1,1.8,0,4.3-1.5,5-2,.3-.2.4-.4.5-.7.1-.3,0-.6-.2-.8-.6-.9-2.5-3.7-4.3-4.1-.3-.1-.5-.1-.8-.1-1.7,0-3.3,1.2-3.7,3M214.2,294.8c-2.1.2-3.6,2.1-3.4,4.3.2,1.8,2.8,4.1,3.6,4.8.2.2.5.2.7.2h.1c.3,0,.5-.2.7-.4.6-.8,2.7-3.6,2.5-5.4-.2-2-1.9-3.5-3.8-3.5-.1,0-.2,0-.4,0M218.8,309c-.1-.2-.2-.3-.3-.5h-.1c-.1-.2-.2-.3-.3-.4h-.1c-.1-.2-.2-.2-.3-.3h0c-.2-.1-.4-.3-.6-.4h0s-.1,0-.2-.1c-.1,0-.3-.1-.4-.1h-1.2c-.2,0-.4.1-.6.2-1.6.7-2.3,2.6-1.6,4.2.1.1.1.3.2.4h0s0,.1.1.1h.1c.1.2.2.3.3.4h.1c.1.2.3.3.4.4h.1c.1.1.3.2.4.2s.1,0,.2.1c.1,0,.3.1.4.1h.6c.4,0,.9-.1,1.3-.3,1.5-.5,2.2-2.4,1.5-4M219.6,315.7c-.1,1-.1,4.5,1.1,5.9.8.9,1.8,1.3,2.9,1.3s1.8-.3,2.6-1c1.6-1.4,1.7-3.9.3-5.5-1.2-1.4-4.6-1.7-5.6-1.7h-.1c-.3,0-.5.1-.7.3-.3.1-.5.4-.5.7M221.5,306.9c-.1.3-.1.6,0,.8.1.3.3.5.6.6.7.3,2.8,1,4.4,1s1-.1,1.4-.3c1.9-.9,2.8-3.2,1.9-5.1-.6-1.5-2-2.3-3.5-2.3s-1,.1-1.6.3c-1.5.8-2.9,4-3.2,5M213.4,322.4c.9-1.6.1-5-.1-6-.1-.3-.3-.5-.5-.7-.2-.1-.4-.2-.6-.2h-.3c-1,.3-4.3,1.3-5.2,2.9-1.1,1.9-.4,4.2,1.4,5.3.6.4,1.3.5,1.9.5,1.4.1,2.7-.6,3.4-1.8M203,315.3c-2-.4-3.7-1.6-4.8-3.3-1.1-1.7-1.5-3.8-1-5.7.7-3.5,3.8-6.1,7.4-6.1s1.1.1,1.6.2.9.3,1.4.5c-.2-.5-.3-.9-.3-1.4-.4-4.2,2.6-7.9,6.7-8.4h.8c3.9,0,7.1,2.9,7.5,6.8v1.5c.4-.3.8-.6,1.2-.8,1-.4,2-.7,3.1-.7,3,0,5.7,1.8,6.9,4.5.8,1.9.9,3.9.1,5.8-.7,1.9-2.1,3.4-4,4.2-.4.2-.9.3-1.4.4.4.3.8.6,1.1.9,2.8,3.1,2.5,8-.6,10.8-1.4,1.3-3.2,2-5,2s-4.2-.9-5.6-2.5c-.3-.4-.6-.8-.8-1.2-.1.5-.3.9-.6,1.3-1.3,2.4-3.8,3.8-6.5,3.8s-2.6-.4-3.8-1c-1.7-1-3-2.7-3.5-4.6-.5-2-.3-4,.8-5.8.2-.4.5-.8.9-1.2h-.1c-.7.2-1.1.1-1.5,0M274.9,286.6c1.1-.5,2.4-2.5,1.7-3.8-.6-1.4-2.9-1.7-4-1.1-1.1.5-2.4,2.5-1.7,3.8.7,1.4,2.9,1.6,4,1.1M304.4,147.5c0-2-1.9-5.1-4.3-5.1s-4.3,3.1-4.3,5.1,1.9,5.1,4.3,5.1,4.3-3.1,4.3-5.1M331.3,154.9c1.7.2,3.3-1.9,3.5-3.3.2-1.4-1-3.8-2.7-4s-3.3,1.9-3.5,3.3c-.2,1.5,1,3.8,2.7,4M268.2,147.7c-1.7.2-2.8,2.6-2.7,4,.1,1.4,1.8,3.5,3.5,3.3s2.8-2.5,2.7-4c-.2-1.5-1.8-3.5-3.5-3.3M303.7,183.7c0-1.7-1.6-4.3-3.6-4.3s-3.6,2.6-3.6,4.3,1.6,4.3,3.6,4.3,3.6-2.6,3.6-4.3M325.9,190.1c1.4.3,2.9-1.3,3.1-2.5s-.5-3.2-1.9-3.5-2.9,1.3-3.1,2.5.5,3.2,1.9,3.5M273.2,184.1c-1.4.3-2.2,2.3-1.9,3.5.2,1.2,1.7,2.8,3.1,2.5s2.2-2.3,1.9-3.5c-.2-1.1-1.7-2.7-3.1-2.5M303,213.9c0-1.3-1.3-3.4-2.8-3.4s-2.8,2-2.8,3.4,1.3,3.4,2.8,3.4c1.5,0,2.8-2.1,2.8-3.4M320.5,219c1.1.2,2.3-1,2.4-2,.2-.9-.4-2.5-1.5-2.8-1.1-.2-2.3,1-2.4,2-.2.9.4,2.6,1.5,2.8M278.9,214.3c-1.1.2-1.7,1.8-1.5,2.8.2.9,1.3,2.2,2.5,2,1.1-.2,1.7-1.8,1.5-2.8-.2-1-1.4-2.3-2.5-2M470.1,434.6c11.6,0,23.9-4.1,36.6-12.2-3,.2-6.8.3-11.4.3-9.4,0-19-.5-28.5-1.6-2.7-.3-5.3-.5-7.6-.5-3.3,0-6,.3-8.2.7,3,3.2,4.8,6.6,5.8,9.9,3.4.3,7.6,1.1,11.9,3.3.4.1.9.1,1.4.1M483.1,454.8c-4.5-8.3-12.4-18.1-25.5-19.6.7,4.6.1,8.7-.4,11,2,1.2,4.4,2.2,7.5,2.9,9,2,14.8,4.1,18.4,5.7M453.4,446.6c.9-2.8,5.7-21.3-16.9-30.4-.9-.3-1.8-.5-2.7-.5-2,0-3.6.8-4.2,1.2-9.2,7.7-21.7,13.8-30.2,17.6,5.3,1.1,11.7,4.4,16,12.7,4.9,9.4,4.2,16.2,2.8,20.3-.2.5-.4,1.1-.6,1.5,4.2-1.8,10.8-5,19.8-10.4,10.6-6.6,15-11,16-12M411.4,471.2c1.1-1,6.4-6.4,2.9-17-4.2,2.1-7,3.3-11.2,5.1-.5.7-2,3.2-.6,7.3.5,1.3,1.5,3.7,3.6,4.7,1.5.7,3.2.6,5.3-.1M382.3,453.3c9-2.9,17.5-6.4,25.3-10.3-1.6-1.5-3.2-2.6-4.9-3.4-17.5,8.4-38.4,14.4-61.1,17.6-.5,1.6-.8,3.4-1,5.4.6-.1,1.2-.2,1.8-.3,4.5-3,12.4-6.7,24.4-7.4,6.3-.2,11.4-.8,15.5-1.6M361.6,470.8c13.5,0,24.6-5.7,33.1-16.9q-.1,0-.2.1c-6.7,2.6-15.9,4.3-27.3,4.9-9.8.6-16.6,3.3-20.5,5.5-1.8,1-3.3,2-4.3,2.8,3.6,1.3,10.8,3.6,19.2,3.6h0M388.2,474.5c-2.5-1.6-5.2-3-7.9-4.1-6.6,3.1-13.2,4-18.7,4s-10.7-.9-14.6-2c5.7,4.7,16.5,10,36.7,10s13-.5,20.3-1.5c-5-1-10.5-2.9-15.8-6.4M382.9,502.2c-1.6-6.6-4.6-11.9-8.2-16.3-13.6-1.1-22.3-4.8-27.8-8.6,3.9,4.8,10.4,10.4,21.3,15.3,7.1,3.2,11.8,6.7,14.7,9.6M326,489.7c11.4,0,18.8-1.4,24.5-3-7-3.3-12.9-11.1-13.5-19.3-.8-11.3,3.2-17.6,7.9-21.5h-.2c-10.4,2.1-23.3,4.7-44.6,4.7h-.2c-21.3,0-34.2-2.6-44.6-4.7h-.2c4.7,3.8,8.8,10.1,7.9,21.5-.6,8.1-6.4,15.9-13.5,19.3,5.8,1.5,13.1,3,24.5,3s9.5-7.6,11-10.2c.3-.6.9-.9,1.6-.9h.4c.8.2,1.4.8,1.5,1.6,1.2,10.7-.2,19.1-4,24.9h0c-.5.8-1.1,1.5-1.7,2.2-1.4,1.6-2.9,2.8-4.5,3.7,2.2-.4,4.4-1.1,6.4-2.1,10-5,12.9-14.2,13.4-16,.2-.8.9-1.4,1.8-1.4s1.6.6,1.8,1.4c.5,1.8,3.3,11,13.3,16,2.1,1,4.2,1.7,6.4,2.1-1.6-.9-3.1-2.1-4.5-3.7-5.1-5.8-7-14.9-5.7-27.1.1-.8.7-1.5,1.5-1.6.8-.2,1.6.2,2,.9,1.8,2.6,7.1,10.2,11.3,10.2M326.5,504.9c-1.6.4-3.1.9-5.4,1,4,3.6,8.9,4.2,11.6,4.2h1.1c1.2-1.5.4-2.9-.5-3.9-1.2-1.3-3.7-1.8-4.8-1.9-.6.2-1.3.4-2,.6M267.5,510.2c2.7,0,7.7-.6,11.6-4.2-2.3-.2-3.8-.6-5.4-1-.7-.2-1.4-.4-2.2-.6-1.1.1-3.6.6-4.8,1.9-.9,1-1.6,2.4-.5,3.9.4,0,.8,0,1.3,0M232,492.6c10.9-4.9,17.4-10.5,21.3-15.3-5.5,3.9-14.3,7.5-27.9,8.6-4,4.7-6.7,10.2-8.1,16.3,2.9-2.9,7.5-6.4,14.7-9.6M216.4,482.5c20.7,0,31.5-5.4,37.1-10.2-3.9,1-8.8,1.9-14.4,1.9s-12.1-.9-18.8-4c-2.9,1.1-5.7,2.5-8.4,4.3-5.3,3.4-10.9,5.4-15.8,6.5,7.3,1,14.1,1.5,20.3,1.5h0M206,454.1c8.5,10.9,19.6,16.5,33.1,16.5s15-2.1,18.5-3.4c-1-.8-2.4-1.8-4.2-2.8-3.9-2.2-10.7-4.9-20.5-5.5-13.4-.8-21.7-2.9-26.9-4.8M192.7,443.1c7.9,3.9,16.4,7.4,25.5,10.3,4,.7,9,1.4,15,1.7,12,.7,19.8,4.3,24.4,7.3.7.1,1.3.2,2,.3-.1-2-.5-3.8-1-5.4-22.7-3.3-43.5-9.3-61.1-17.6-1.6.8-3.2,1.9-4.8,3.4M185,447.2c4.4-8.3,10.8-11.5,16-12.7-8.5-3.8-21.1-10-30.2-17.6-.6-.5-2.2-1.2-4.2-1.2s-1.9.2-2.7.5c-22.6,9.1-17.8,27.6-16.9,30.4.9,1,5.3,5.4,16.1,12,9,5.5,15.7,8.7,19.9,10.5-2.2-4.5-3.3-11.8,2-21.9M197.2,459.3c-4.2-1.7-7-2.9-11.2-5.1-.2.5-.3,1-.4,1.5-1.9,7.1.3,11.7,1.9,14,.6.8,1.1,1.3,1.4,1.5,2.1.7,3.8.8,5.3.1,2.1-1,3.2-3.4,3.6-4.7,1.4-4.1,0-6.6-.6-7.3M143.5,431.3c1-3.3,2.8-6.7,5.8-9.9-2.2-.5-4.9-.7-8.1-.7s-4.9.1-7.6.5c-9.5,1-19,1.6-28.5,1.6h0c-4.6,0-8.4-.1-11.4-.3,12.7,8.1,25,12.2,36.6,12.2h1.4c4.3-2.2,8.4-3.1,11.8-3.4M135.6,449c3-.7,5.5-1.7,7.5-2.9-.5-2.3-1.1-6.4-.4-11-13.1,1.5-21,11.3-25.4,19.6,3.5-1.5,9.3-3.6,18.3-5.7M115.5,402c6,7.3,12.4,12.4,18.9,15.3,2.4-.2,4.6-.3,6.8-.3,4.9,0,8.6.6,11.4,1.4,1.8-1.4,3.9-2.8,6.4-4-2.2-3.1-6.9-7.3-16.8-8.1-12.9-1.2-21.5-3-26.7-4.3M111.2,396.7c0,0,9.8,4,31.3,5.8,1.1.1,2.2.2,3.2.4-2-5.4-3.1-11-3.1-16.6,0-8.5,2.3-16.8,6.9-24.7-4.1,1.7-7.8,2.6-10.5,3v3.8c0,.4-.1.7-.3,1-1.3,6.8-6.5,13.3-16.3,13.3s-14.7-7.6-15.1-11.7h0v-14.4c-3.4,2.2-6.2,5.3-7.8,9.4-.5,1.3-.9,2.9-1.1,4.5-1,7.6,1.2,18.3,10.7,26.8h0c.4-.7,1.3-.9,2.1-.6M97.7,262.5c-4.8,20.6-1.4,33.5,2.9,41,2.5-2.2,5.9-4.3,9.8-5.5-.4-2.6-1.2-5.6-2.8-8.9-5.4-12-8.3-20.9-9.9-26.6M118.1,240.7c-5.3,9.9-11.1,24-10.8,38.1,1.1,2.7,2.3,5.6,3.8,8.8,1.6,3.6,2.6,6.8,3,9.7.9-.1,1.8-.2,2.7-.2,1.9,0,3.6.2,5.3.5,1.2-4.1,1.6-10.3-.6-19.4-4-16.7-4.1-29.5-3.4-37.5M110.9,363.7c1.1-.8,2.4-1.5,4.2-2.1,2.1-.7,4-.8,5.3-.7v-8.2c-3.1,0-6.4.7-9.5,2v9M116.2,365.2c-4.6,1.5-5.2,4-5.3,4.9v.4c0,.9,1.6,8.3,11.4,8.3s12.8-6.3,12.9-12.5c.2-8.2-6.7-11.7-9.6-12.8-.5-.2-1-.3-1.6-.4v10.1c0,.6-.3,1.2-.8,1.5-.5.4-1.1.4-1.7.2,0,0-2.1-.7-5.3.3M135.3,308c-1.9-1.7-8.8-7.2-18.6-7.2s-17,8.5-18.6,10.6v49.1c2.2-3.2,5.3-6.1,9-8.2h0c0-.1.8-.5.8-.5,4.7-2.5,10.1-3.7,15.4-2.7,1.3.2,2.5.4,3.5.8,3.5,1.3,6.3,3.3,8.4,5.7v-47.6M126.6,286.9c.3,4.8,0,8.6-.9,11.5,2.3.7,4.2,1.6,6,2.5,3.5-6,6-15.3,1.3-28.5-1.1,3.3-3,8-6.4,14.5M139,360.7c5.6-1.1,15.5-4.1,22.8-12.2,5.4-6.1,8.4-14,8.9-23.5-3.6,5.2-10.4,12.5-21.7,17.3-4.9,2-8,4.5-10,6.9v11.5ZM139,343.9c2.2-1.8,4.9-3.6,8.6-5.1,2-.9,3.9-1.8,5.6-2.8,1.7-2.5,3-5.5,3.7-9,2.4-11.8,6.5-19.6,9.8-24.3-12.7,5.8-21.3,15-25.5,27.2-1.2,3.4-1.8,6.6-2.2,9.5v4.5h0ZM139,325.3c2.6-6.2,7.1-13.1,14.7-19.1.8-7.9,0-16.5-2.6-25.9-.7,8.2-3.5,19.8-11.8,33.1-.1.2-.2.3-.3.5v11.4h0ZM186,332.8c-6.3,3.6-11.9,7.4-16.8,11.5-1.3,2.4-2.9,4.7-4.8,6.8-2.6,2.9-5.5,5.2-8.4,7-6.4,8.8-9.8,18.3-9.8,28.1s1.3,11.9,3.8,17.7c3.4,1,6,2.5,8,4.1-4.3-7-6.6-14.3-6.6-21.7,0-17.5,12.3-34.1,34.9-47.5-.6-.4-1-1.1-.9-1.8.1-.9.3-2.5.6-4.2M183.8,324.8c1.6.5,3.7,1,5.2,1s.9-.1,1-.1c.8-.4,1.5-1,1.8-1.9s.3-1.8-.1-2.6c-.5-1.2-1.7-2-3.1-2s-.9.1-1.4.3c-.8.4-2.3,2.8-3.4,5.3M179.7,313.5c2,1.3,4.4,2.5,5.7,2.5h.2c.9-.1,1.7-.6,2.2-1.4.5-.7.7-1.6.6-2.5-.3-1.8-2-3.1-3.8-2.8-1.1,0-3.2,2.1-4.9,4.2M186.5,293.6c-3.1,4-2.3,8.1-.2,12,.1,0,.2,0,.3.1-.1-4,.8-7.7,3.9-10.8,1.8-1.8,4-3,6.5-3.5-1.2-.4-2.6-.7-4-.7-2,0-4.7.5-6.5,2.9M202.1,295c-.5-.1-1.3-.2-2.2-.2-2.8,0-5.1.9-6.9,2.8-2.7,2.6-3.2,6.2-2.6,10.5.8,1,1.3,2.1,1.5,3.5.2,1.5,0,3.1-.7,4.4,1.7.7,3.1,2,3.8,3.7.8,1.7.8,3.6.2,5.4,1.4.4,2.7,1.2,3.7,2.4.8,1,1.3,2.2,1.5,3.4,2.8,3.4,5.7,5.3,9.5,5.1,4.7-.3,7-3.7,8-5.1.2-.3.4-.5.6-.7.4-.4.9-.7,1.5-.7s.7.1,1.3.2c1,.2,2.5.5,4.3.5,4.3,0,7.9-1.5,11-4.5,5.3-5.3,7.1-14.5,4-20.4h0c0-.1-.1-.2-.1-.2-.1-.1-.1-.3-.2-.4l-3.8-8.8c-.1-.1-.1-.2-.2-.4,0-.1-.1-.1-.1-.2h0c-.1-.3-.2-.5-.3-.8-2.5-6-10-10.4-17.4-10-8.2.5-11.7,6.3-13.2,8.8-.6,1-1.1,1.8-2.2,1.8h-.2c-.2,0-.4,0-.8,0M206.6,282c-1.3,1.9-2.1,3.9-2.2,6.1,2.5-3.1,6.8-6.9,14-7.4,5.6-.4,11.3,1.7,15.5,5.1-2.8-6.8-7.6-10.4-13.8-10.4h-1.2c-5.1.4-9.7,2.9-12.3,6.6M239.5,290.8c-.3.9-.3,1.9.1,2.8l4.4,10.1c.6,1.3,1.9,2.2,3.3,2.2s1-.1,1.5-.3c.7-.3,1.2-.8,1.6-1.5,0-.1-.1-.1-.1-.2l-6.6-15.1q0-.1-.1-.2c-.2,0-.5-.1-.7-.1-.5,0-1,.1-1.5.3-.9.3-1.5,1.1-1.9,2M246.9,284.4c-.3.9-.3,1.9.1,2.8l6.6,15.1c.6,1.3,1.9,2.2,3.3,2.2s1-.1,1.5-.3c.9-.4,1.5-1.1,1.9-2,.3-.9.3-1.9-.1-2.8l-6.6-15.1c-.6-1.3-1.9-2.2-3.3-2.2s-1,.1-1.5.3c-.9.4-1.5,1.1-1.9,2M258.4,281.1c-.7.3-1.2.8-1.6,1.5,0,.1.1.1.1.2l6.6,15.1q0,.1.1.2c.2,0,.5.1.7.1.5,0,1-.1,1.5-.3,1.8-.8,2.6-3,1.8-4.8l-4.4-10.1c-.6-1.3-1.9-2.2-3.3-2.2-.5-.1-1,0-1.5.3M260.4,271.9c3.3-.3,6.5-1.1,9.5-2.2l-23.4-10.6c-.6-.1-1.1-.1-1.6-.2,3.3,5.1,8.6,10.4,15.5,13M227.8,266.5c3.1,2,10.5,5.3,24.9,5.6-6.9-4.6-11.6-11.3-13.8-16.6-1.8-4.3-4.7-11.9-8.5-27.3-.2-.7-.3-1.4-.5-2.1l-6.8,1.4,1.4,6.7-5.8,1.2-1.4-6.7-6.6,1.4c2.3,13.2,5.8,29.2,17.1,36.4M216.2,222.9l-1.4-6.7,5.8-1.2,1.4,6.7,6.8-1.4c0-.2-.1-.3-.1-.5-.4-2.2-.9-4.8-1.3-7.5-2.3-14.3-5.5-33.9-18.2-39.9-4.6-2.2-8.2-3.3-15.3-3.3h-2.6c3.5,2.9,8.4,7.8,12.1,19.3,1.9,5.9,4.2,20.6,6,32.4.2,1.2.4,2.3.5,3.4l6.3-1.3ZM208.5,237.9c-.8-4-1.4-7.9-2-11.5-.2-1.1-.4-2.4-.6-3.7l-47.1-21.2-2.3,5.3-2.8,6.3,54.8,24.8ZM207.2,241.4l-52.9-23.9-4.1,9.2,2.3,1.1c.9.4,1.3,1.5.9,2.5l-3.6,8.1c-.4.9-1.5,1.4-2.4,1l-2.3-1.1-3.7,8.4,20.8,9.3,3.7-8.4-2.3-1.1c-.4-.2-.8-.6-1-1-.2-.5-.2-1,0-1.4l3.5-8.1c.4-.9,1.5-1.4,2.4-.9l2.3,1,1.1-2.4c.4-.9,1.5-1.4,2.4-.9l8,3.6c.4.2.8.6,1,1,.2.5.2,1,0,1.4l-1,2.4,2.3,1.1c.4.2.8.6,1,1,.2.5.2,1,0,1.4l-3.6,8.1c-.4.9-1.5,1.4-2.4.9l-2.3-1.1-3.7,8.4,20.8,9.3,3.7-8.4-2.3-1.1c-.9-.4-1.3-1.5-.9-2.5l3.5-8.1c.2-.5.6-.8,1-1,.5-.2,1-.2,1.4,0l2.3,1,4.1-8.8ZM156.2,198.3c.4-.9.4-1.9.1-2.8-.3-.9-1-1.6-1.9-2-.5-.2-1-.3-1.4-.3-1.4,0-2.7.8-3.3,2.2l-6.6,15.1c-.4.9-.4,1.9-.1,2.8.3.9,1,1.6,1.9,2,.5.2.9.3,1.4.3,1.4,0,2.7-.8,3.3-2.2l6.6-15.1ZM146.3,193.8c0-.1.1-.1.1-.2-.4-.6-.9-1.1-1.6-1.5-.5-.2-1-.3-1.5-.3-1.4,0-2.7.8-3.3,2.2l-4.4,10c-.8,1.8,0,4,1.8,4.8.5.2,1,.3,1.5.3s.5,0,.7-.1q0-.1.1-.2l6.6-15ZM136.5,193h-.3c-2.1,0-3.9,1.2-4.8,3.1-.9,2.1-.4,4.4,1.1,5.9l4-9ZM197.4,187.6c.4,0,.8-.1,1.3-.1-3-6.7-5.7-11.1-7.9-13.9-1.6-1.5-3-2.5-4.1-3.4-.2-.2-.5-.4-.7-.6-1.3.1-4.1.5-6.9,2.5s-1.4,1-2,1.5c-1.9,1.4-3.4,2.6-5.3,3.3.6.1,1.2.2,1.9.2,1.7,0,3.6-.4,5.6-1.1,1.1-.4,3.9-.7,5.1-.7,1.8,0,2.2,1,2.4,1.6.1.3.2,1.6-1.3,2.3-1.2.5-2.3,1.3-3.4,2.2-1.2.9-2.4,1.9-3.9,2.6.4,0,.9.1,1.4.1,1.9,0,4-.4,6.3-1.2,1.1-.4,3.9-.7,5-.7,1.7,0,2.2.9,2.4,1.6.1.7-.1,1.7-1.3,2.2-1.1.5-2.1,1.4-3.3,2.3-1.3,1.1-2.8,2.5-4.8,3.3.7.2,1.4.4,2.2.4,1.8,0,3.7-.7,5.8-2.1l.3-.2c.9-.9,2.3-1.9,5.2-2.1M236.5,236.5c2.3,8.2,4.1,13.1,5.4,16.4l38.3,17.3,15.5-7-59.2-26.7ZM277.5,235.9c-1.2,4.8-3.6,8.9-6.4,12.2l17.4,7.9c3.4-4.3,6-9.3,7.8-14.9.6-1.8,1.4-5.6,1.9-8.5-7.2.1-14.3.8-20.5,2l-.2,1.3M271.7,232.1c.9-.2,1.8-.5,2.7-.7h0c15.2-3.5,36.6-3.4,51.7.1h0c.8.2,1.6.4,2.4.6h.1c.6-.3.9-.7,1-1,.4-.9.2-2.2,0-3-8-2.5-18.4-3.9-29.5-3.9s-21.4,1.4-29.4,3.9c-.2.9-.4,2.1,0,3.1,0,.2.3.5,1,.9h0M269.2,222c.4.7.8,1.5,1.1,2.2,8.2-2.5,18.7-3.8,29.8-3.8s21.6,1.4,29.9,3.8c.3-.7.7-1.5,1.1-2.2-.2.1-.5.2-.7.2-.3,0-.6.1-.9.1-1.7,0-3.1-.7-4.5-2.3-.6-.7-.6-1.8,0-2.5.2-.2.3-.5.4-.8.1-.8-.3-1.5-1-1.8-.5-.2-.9-.6-1-1.1-.2-.5-.2-1,.1-1.5.1-.1.1-.3.1-.4.2-.9-.4-1.7-1.3-1.9s-1.7.4-1.9,1.3v.5c0,.5-.1,1-.5,1.4-.3.4-.8.6-1.4.6s-1.4.6-1.6,1.3c-.1.3,0,.6.1.8.3.8-.1,1.7-.8,2.2-.1,0-.1.1-.2.1-1.1.5-2.3.8-3.5.8-2.1,0-4.1-.8-5.6-2.3s-.7-1.3-.4-2c.2-.6.4-1.3.4-1.5,0-1.5-1-2.7-2.4-3-.5-.1-1-.4-1.2-.9-.3-.5-.3-1-.2-1.5.1-.3.1-.6.1-.9,0-1.7-1.3-3.1-3-3.1s-3,1.4-3,3.1,0,.6.1.9c.1.5.1,1.1-.2,1.5-.3.5-.7.8-1.2.9-1.4.3-2.4,1.5-2.4,3s.2,1,.4,1.5c.2.7.1,1.5-.4,2-1.5,1.5-3.5,2.3-5.6,2.3s-2.6-.3-3.6-.8-1.2-1.4-.9-2.3.1-.5.1-.8c-.1-.8-.8-1.3-1.6-1.3s-1-.2-1.4-.6c-.3-.4-.5-.9-.5-1.4v-.5c-.2-.9-1-1.4-1.9-1.3-.4.1-.8.3-1,.7s-.3.8-.2,1.2c0,.1.1.3.1.4.2.5.3,1,.1,1.5-.2.5-.6.9-1,1.1-.7.3-1.1,1-1,1.8.1.3.2.6.4.8.6.7.6,1.8,0,2.5-1.4,1.6-2.8,2.3-4.5,2.3s-.6,0-1-.1c-.4,0-.6,0-.8-.2M262.6,200.5c1.9,5.2,4.3,10.4,7,15.6.3.2.6.5.9.9s.6,1,.8,1.5c.1,0,.2-.1.3-.1-.1-.3-.2-.7-.3-1-.4-1.9.3-3.8,1.7-5.1-.2-1.3.1-2.7.9-3.8.8-1.2,2-2,3.4-2.2h.3c.2,0,.5-.1.7-.1,2.5,0,4.6,1.7,5.1,4.1,1.7.6,3.1,2.1,3.5,4.1,0,.3.1.5.1.8.3,0,.5.1.8.1.6,0,1.4-.1,2.2-.6-.1-.5-.2-1-.2-1.5,0-2.6,1.5-5,3.7-6.1h0c0-3.8,3-6.9,6.7-6.9s6.7,3,6.7,6.8h0c2.2,1.2,3.7,3.6,3.7,6.2s-.1,1-.2,1.5c.8.5,1.6.6,2.2.6s.5,0,.8-.1c0-.3,0-.5.1-.8.4-1.9,1.7-3.4,3.4-4,.6-2.4,2.7-4.1,5.1-4.1s.5,0,.7.1h.3c2.8.5,4.6,3.2,4.2,6,1.4,1.2,2.1,3.1,1.7,5.1-.1.3-.2.7-.3,1,.1.1.2.1.3.1.2-.5.5-1.1.8-1.5.3-.3.6-.6.9-.9,2.7-5.2,5.1-10.4,7-15.6-5-1.4-10.8-2.5-17.2-3.2-6.4-.7-13.3-1.1-20.4-1.1s-13.9.4-20.3,1.1c-6.3.6-12.1,1.7-17.1,3.1M256.5,189.2c1.3,2.5,2.6,5.4,3.5,8.1,10.4-3.1,24.8-4.9,40-4.9s29.7,1.8,40.1,4.9c1-2.7,2.3-5.6,3.5-8.1-.7.1-1.5.4-1.9,1-.3.4-.7,1.5-.9,2.2-.2.7-.8,1.2-1.5,1.3-2.9.4-5.6-.6-7.4-2.7-.6-.7-.6-1.8,0-2.5.3-.4.5-.8.6-1.2.2-1.2-.4-2.4-1.5-2.8-.5-.2-.9-.6-1-1.1-.2-.5-.2-1,.1-1.5.1-.2.2-.5.2-.7.1-.7,0-1.3-.4-1.9-.4-.6-.9-.9-1.6-1.1-1.4-.3-2.7.7-2.9,2,0,.2-.1.5,0,.7,0,.5-.1,1-.5,1.4-.3.4-.8.6-1.4.6-1.2,0-2.2.9-2.5,2.1-.1.4-.1.9.1,1.3.3.9-.1,1.9-1,2.3-1.3.6-2.8,1-4.3,1-2.6,0-5-1-6.8-2.8-.6-.6-.7-1.4-.4-2.2.3-.6.4-1.2.4-1.9,0-2.1-1.5-3.9-3.5-4.3-.5-.1-1-.4-1.2-.9-.3-.5-.3-1-.2-1.5.1-.4.2-.8.2-1.2,0-2.4-1.9-4.4-4.3-4.4s-4.3,2-4.3,4.4.1.8.2,1.2c.1.5.1,1.1-.2,1.5-.3.5-.7.8-1.2.9-2,.4-3.5,2.2-3.5,4.3s.1,1.3.4,1.8c.2.3.2.6.2.9,0,.5-.2,1-.6,1.4-1.8,1.8-4.2,2.8-6.7,2.8s-3.1-.4-4.4-1c-.8-.4-1.2-1.4-.9-2.3.1-.4.2-.8.1-1.3-.2-1.2-1.3-2.1-2.4-2.1s-1-.2-1.4-.6c-.3-.4-.5-.9-.5-1.4v-.7c-.3-1.3-1.6-2.3-2.9-2-.7.1-1.2.5-1.6,1.1s-.5,1.2-.4,1.9c0,.2.1.5.2.7.2.5.3,1,.1,1.5-.2.5-.6.9-1,1.1-1.1.4-1.8,1.6-1.5,2.8.1.5.3.9.6,1.2.7.7.6,1.9,0,2.6-1.6,1.8-3.7,2.7-6.1,2.7s-.8,0-1.3-.1c-.7-.1-1.3-.6-1.5-1.3-.2-.6-.6-1.8-.9-2.2-.5-.6-1.3-.9-2-1M288.8,161.9c-12.5.5-24.5,1.7-34.3,3.8.5,6,1.6,12.8,3.5,20,1.1.3,2.5,1,3.4,2.2.5.6.9,1.4,1.1,2.2.8,0,1.5-.3,2.1-.6-.2-.5-.4-.9-.4-1.4-.4-2.3.5-4.7,2.3-6.1h0c-.3-1.6,0-3.3,1-4.7.9-1.4,2.3-2.3,4-2.6.4-.1.8-.1,1.2-.1,3,0,5.5,2.1,6.1,5.1h0c2.2.7,3.9,2.5,4.3,4.8,0,.2.1.4.1.6v.7c.5.1,1,.2,1.5.2.9,0,2.1-.2,3.3-1-.2-.7-.3-1.4-.3-2.2,0-3.2,1.9-6.1,4.7-7.4v-.5c0-4.5,3.6-8.1,8-8.1s8,3.6,8,8.1v.5c2.8,1.3,4.7,4.1,4.7,7.4s-.1,1.5-.3,2.2c1.2.8,2.4,1,3.3,1s1-.1,1.5-.2v-.7c0-.2,0-.4.1-.6.4-2.3,2.1-4.2,4.3-4.8h0c.6-3,3.1-5.1,6.1-5.1s.8,0,1.2.1c1.6.3,3,1.3,4,2.6.9,1.4,1.3,3.1,1,4.7,1.8,1.4,2.7,3.8,2.3,6.1-.1.5-.2,1-.5,1.4.6.4,1.3.6,2.1.6.3-.7.7-1.6,1.1-2.2,1-1.2,2.3-1.9,3.4-2.2,1.8-7.2,3-14,3.5-20-9.8-2.1-21.8-3.3-34.3-3.8-7.9-.3-15.6-.3-23.1,0M252.7,162.3c26.7-5.9,68.2-5.9,94.9,0,.5-3.4,1.5-6.8,2.6-9.7-.5.3-1,.6-1.3,1.2-.5,1.1-1.7,3.5-1.7,3.5-.2.5-.7.9-1.3,1-3,.7-4.8,0-7.4-2.4-.7-.7-.8-1.7-.2-2.5.4-.5.6-1.1.7-1.7.2-1.6-.8-3.2-2.4-3.7-.5-.2-.9-.5-1.1-1s-.2-1,0-1.5c.1-.3.2-.6.2-1,.2-1.9-1.1-3.6-3-3.8s-3.5,1.2-3.7,3v1c.1.5,0,1.1-.4,1.5-.3.4-.8.7-1.3.7-1.6.1-2.9,1.4-3.1,3-.1.6,0,1.1.2,1.7.1.2.2.5.2.8,0,.8-.5,1.5-1.2,1.7-3.9,1.7-9.6,1.5-12.6-2.4-.5-.6-.5-1.5-.1-2.1.3-.7.5-1.5.5-2.3,0-2.7-1.9-5-4.5-5.5-.5-.1-1-.4-1.2-.9-.3-.5-.3-1-.2-1.5.2-.5.2-1.1.2-1.6,0-3.1-2.5-5.6-5.6-5.6s-4.2,1.4-5.1,3.4c-.3.7-.5,1.4-.5,2.2s.1,1.1.2,1.6c.1.3.1.6,0,.9,0,.2-.1.4-.2.6-.3.5-.7.8-1.2.9-2.1.4-3.8,2.1-4.3,4.1-.1.5-.2.9-.2,1.4,0,.9.2,1.7.6,2.4.3.6.3,1.4-.2,2-3,3.9-8.7,4.1-12.6,2.4-.1,0-.2-.1-.3-.2-.7-.5-1-1.5-.7-2.3.2-.5.3-1.1.2-1.7-.2-1.6-1.5-2.9-3.1-3-.5,0-1-.3-1.3-.7s-.4-.9-.4-1.5c.1-.3.1-.7,0-1-.2-1.9-1.9-3.3-3.7-3-1.9.2-3.2,1.9-3,3.8,0,.3.1.6.2,1,.2.5.2,1,0,1.5s-.6.8-1.1,1c-1.5.5-2.5,2-2.4,3.7.1.6.3,1.2.7,1.7.6.8.5,1.8-.2,2.5-2.5,2.5-4.4,3.1-7.4,2.4-.6-.1-1-.5-1.3-1,0,0-1.1-2.4-1.7-3.5-.3-.6-.8-1-1.3-1.2,1.6,2.8,2.6,6.3,3.1,9.7M255.4,146.9c-.4,1.4-.7,3-.9,4.9.1.1.1.2.2.4.3.7.9,1.8,1.3,2.6.7.1,1.3-.1,2.1-.7-.3-.7-.5-1.4-.5-2.1-.3-2.8,1-5.5,3.3-6.9v-.2c-.4-3.9,2.4-7.5,6.3-7.9s7.4,2.4,7.8,6.3v.2c2.5.9,4.4,3.2,4.7,6,.1.5.1,1.1,0,1.6,1.9.4,4.4.4,6.1-1-.3-.9-.5-1.9-.5-2.9s.1-1.6.3-2.4c.7-2.8,2.7-5.2,5.4-6.3v-.8c0-1.3.3-2.6.8-3.7,1-2.4,3-4.2,5.4-5.1,1-.3,2-.5,3.1-.5s2.1.2,3.1.5c3.6,1.3,6.2,4.8,6.2,8.8v.8c3.4,1.4,5.7,4.8,5.7,8.7s-.1,2-.4,2.9c1.7,1.3,4.2,1.4,6.1,1-.1-.5-.1-1.1,0-1.6.3-2.8,2.2-5.1,4.7-6v-.2c.4-3.9,3.9-6.8,7.8-6.3,3.9.4,6.7,4,6.3,7.9v.2c2.3,1.4,3.6,4.1,3.3,6.9-.1.7-.3,1.4-.5,2.1.8.6,1.4.7,2.1.7.4-.8.9-1.9,1.3-2.6.1-.1.1-.2.2-.4-.2-1.8-.5-3.5-.9-4.9-3.8-14-18.9-28-44.3-28.2h-1c-25.7.1-40.9,14.2-44.6,28.2M300.1,104.6c-2.7,0-4.9,2.2-4.9,5s2.2,5,4.9,5,4.9-2.2,4.9-5c.1-2.8-2.1-5-4.9-5M329.4,248c-2.8-3.3-5.1-7.3-6.3-12.1v-.2l-.2-1.1c-6.2-1.2-13.3-1.9-20.5-2,.5,2.8,1.3,6.6,1.9,8.4,1.8,5.5,4.4,10.5,7.7,14.8l17.4-7.8M308.5,257.4c-3.3-4.5-6-9.6-7.8-15.2-.1-.4-.3-.9-.4-1.5-.1.6-.3,1.1-.4,1.5-1.8,5.7-4.5,10.8-7.8,15.3l8.1,3.7,8.3-3.8ZM280.4,274.2l5.1,11.7,73.3-33.1c1.3-3.3,3.1-8.3,5.4-16.4l-83.8,37.8ZM370.1,228.2c-3.8,15.5-6.7,23-8.5,27.3-2.2,5.2-6.9,12-13.8,16.6,14.4-.3,21.7-3.6,24.9-5.6,11.3-7.2,14.8-23.2,17-36.4l-6.6-1.4-1.4,6.7-5.8-1.2,1.4-6.7-6.8-1.4c0,.7-.2,1.4-.4,2.1M371.9,219.9c0,.1,0,.2-.1.3l6.8,1.4,1.4-6.7,5.8,1.2-1.4,6.7,6.3,1.3c.2-1.1.3-2.2.5-3.4,1.8-11.8,4.1-26.5,6-32.4,3.7-11.5,8.6-16.5,12.1-19.3h-2.6c-7.1,0-10.8,1.1-15.3,3.3-12.7,6.1-15.9,25.6-18.2,39.9-.4,2.7-.8,5.3-1.3,7.5v.2M414,170.1c-.8.7-1.9,1.4-3,2.4-2.3,2.7-5.4,7.4-8.7,15,.4,0,.8,0,1.3.1,2.8.2,4.3,1.2,5.3,2l.3.2c2,1.4,4,2.1,5.8,2.1s1.6-.2,2.2-.4c-2-.8-3.5-2.1-4.8-3.3-1.1-1-2.1-1.9-3.3-2.3-1.2-.5-1.4-1.5-1.3-2.2s.7-1.6,2.4-1.6,3.8.3,4.9.7c2.3.8,4.4,1.2,6.3,1.2h0c.5,0,.9,0,1.4-.1-1.5-.8-2.7-1.7-3.9-2.6-1.1-.9-2.2-1.7-3.4-2.2-1.6-.7-1.4-2-1.3-2.3.1-.6.6-1.6,2.4-1.6s4,.3,5.1.7c2,.7,3.9,1.1,5.6,1.1s1.3-.1,1.9-.2c-1.9-.7-3.4-1.9-5.3-3.3-.6-.5-1.2-.9-2-1.5-3.1-2.2-6-2.5-7.2-2.5-.2.2-.5.4-.7.6M394.7,222.6c-.2,1.4-.4,2.6-.6,3.8-.6,3.5-1.2,7.4-2,11.3l54.4-24.5-.2-.5-4.9-11.2-46.7,21.1ZM444,195.5c-.3.9-.3,1.9.1,2.8l6.6,15.1c.6,1.3,1.9,2.2,3.3,2.2s1-.1,1.4-.3c.9-.4,1.6-1.1,1.9-2s.3-1.9-.1-2.8l-6.6-15.1c-.6-1.3-1.9-2.2-3.3-2.2s-1,.1-1.5.3c-.8.4-1.4,1.1-1.8,2M455.5,192.1c-.7.3-1.2.8-1.6,1.5,0,.1.1.1.1.2l6.6,15.1q0,.1.1.2c.2,0,.5.1.7.1.5,0,1-.1,1.5-.3,1.8-.8,2.6-3,1.8-4.8l-4.4-10c-.6-1.3-1.9-2.2-3.3-2.2-.5-.1-1,0-1.5.2M464.1,193h-.3l4,9c1.5-1.5,2-3.8,1.1-5.9-.8-1.9-2.7-3.1-4.8-3.1M446.7,230.3c-.4-.9,0-2,.9-2.5l2.3-1.1-4.1-9.2-52.9,23.9,4,9.2,2.3-1c.4-.2,1-.2,1.4,0,.5.2.8.5,1,1l3.5,8.1c.4.9,0,2.1-.9,2.5l-2.3,1.1,3.7,8.4,20.8-9.3-3.7-8.4-2.3,1.1c-.9.4-2,0-2.4-.9l-3.6-8.1c-.2-.5-.2-1,0-1.4.2-.5.5-.8,1-1l2.3-1.1-1-2.4c-.2-.5-.2-1,0-1.4.2-.5.5-.8,1-1l8-3.6c.9-.4,2,0,2.4.9l1.1,2.4,2.3-1c.9-.4,2,0,2.4.9l3.5,8.1c.2.5.2,1,0,1.4-.2.5-.5.8-1,1l-2.3,1.1,3.7,8.4,20.8-9.3-3.7-8.4-2.3,1.1c-.9.4-2,0-2.4-1l-3.5-8.5ZM340.2,271.9c7-2.7,12.2-8,15.5-13-.6.1-1.3.2-2,.2l-23.2,10.5c3.1,1.2,6.3,2,9.7,2.3M332.7,293c-.8,1.8,0,4,1.8,4.8.5.2,1,.3,1.5.3s.5,0,.7-.1q0-.1.1-.2l6.6-15.1c0-.1.1-.1.1-.2-.4-.6-.9-1.2-1.6-1.5-.5-.2-1-.3-1.5-.3-1.4,0-2.7.8-3.3,2.2l-4.4,10.1ZM340.1,299.3c-.4.9-.4,1.9-.1,2.8s1,1.6,1.9,2c.5.2,1,.3,1.5.3,1.4,0,2.7-.8,3.3-2.2l6.6-15.1c.4-.9.4-1.9.1-2.8s-1-1.6-1.9-2c-.5-.2-1-.3-1.5-.3-1.4,0-2.7.8-3.3,2.2l-6.6,15.1ZM350,303.8c0,.1-.1.1-.1.2.4.6.9,1.2,1.6,1.5.5.2,1,.3,1.5.3,1.4,0,2.7-.8,3.3-2.2l4.4-10.1c.4-.9.4-1.9.1-2.8s-1-1.6-1.9-2c-.5-.2-1-.3-1.5-.3s-.5,0-.7.1c0,.1-.1.1-.1.2l-6.6,15.1ZM360,304.5c0,.1-.1.3-.2.4,0,.1-.1.2-.1.2h0c-3.1,5.9-1.3,15.1,4,20.4s6.7,4.5,11,4.5,3.3-.3,4.3-.5c.6-.1,1-.2,1.3-.2.6,0,1.2.3,1.5.7.2.2.4.5.6.7,1,1.4,3.3,4.8,8,5.1,3.7.2,6.7-1.7,9.5-5.1.2-1.2.7-2.4,1.5-3.4,1-1.2,2.3-2,3.7-2.4-.6-1.8-.6-3.7.2-5.4.8-1.7,2.1-3,3.8-3.7-.7-1.3-1-2.9-.7-4.4.2-1.3.7-2.5,1.5-3.5.6-4.3.1-7.9-2.6-10.5-1.8-1.8-4.2-2.8-6.9-2.8s-1.7.1-2.2.2c-.3,0-.6.1-.8.1h-.2c-1.1,0-1.7-.8-2.2-1.8-1.5-2.5-5.1-8.3-13.2-8.8-7.4-.5-14.8,4-17.4,9.9-.1.2-.2.5-.3.7h0c0,.2-.1.2-.1.3s-.1.3-.2.4l-3.8,8.9ZM381.5,275.5c-6.8-.5-12,3.2-15.1,10.4,3.9-3.2,9.1-5.2,14.2-5.2h1.3c7.1.5,11.5,4.3,14,7.4-.2-2.2-.9-4.3-2.2-6.1-2.6-3.7-7.2-6.2-12.2-6.5M407.3,290.7c-1.4,0-2.7.2-4,.7,2.5.5,4.6,1.7,6.5,3.5,3.1,3,4,6.8,3.9,10.8.1,0,.2,0,.3-.1,2.1-3.9,2.8-8-.2-12-1.8-2.4-4.5-2.9-6.5-2.9M420.6,313.5c-1.7-2.1-3.8-4-4.8-4.2h-.5c-1.6,0-3.1,1.2-3.3,2.9-.1.9.1,1.8.6,2.5s1.3,1.2,2.2,1.4h.2c1.2,0,3.6-1.4,5.6-2.6M411.3,325.8c1.5,0,3.6-.5,5.2-1-1.1-2.5-2.6-4.9-3.5-5.3-.4-.2-.9-.3-1.4-.3-1.3,0-2.5.8-3.1,2s-.4,1.7-.1,2.6c.3.8.9,1.5,1.8,1.9.2,0,.5,0,1.1,0M431.1,344.3c-4.9-4.1-10.5-7.9-16.8-11.5.4,1.7.6,3.2.6,4,.1.8-.3,1.5-.9,1.8,22.6,13.4,34.9,30,34.9,47.5s-2.3,14.8-6.6,21.7c2-1.6,4.6-3,8-4.1,2.5-5.7,3.8-11.6,3.8-17.7,0-9.8-3.4-19.3-9.8-28.1-2.9-1.8-5.8-4.1-8.4-7-1.9-1.9-3.5-4.1-4.8-6.6M451.4,342.3c-11.3-4.8-18.1-12.1-21.7-17.3.5,9.6,3.5,17.5,8.9,23.6,7.2,8.1,17.1,11.1,22.7,12.1v-11.5c-2-2.4-5.1-4.9-9.9-6.9M433.7,302.7c3.4,4.7,7.4,12.4,9.8,24.3.7,3.5,2,6.5,3.7,9,1.7,1,3.6,1.9,5.6,2.8,3.6,1.5,6.4,3.3,8.6,5.1v-4.5c-.4-2.9-1.1-6.2-2.2-9.6-4.3-12.2-12.8-21.3-25.5-27.1M449.3,280.4c-2.6,9.3-3.4,18-2.6,25.9,7.6,6,12,12.9,14.7,19.1v-11.4c-.1-.2-.2-.3-.3-.5-8.3-13.3-11.1-24.9-11.8-33.1M461.6,369.3c-.2-.3-.3-.6-.3-1v-3.8c-2.7-.5-6.4-1.3-10.5-3,4.5,7.9,6.9,16.2,6.9,24.7s-1,11.2-3.1,16.6c1-.2,2.1-.3,3.2-.4,21.6-1.8,31.2-5.7,31.3-5.8.8-.3,1.6-.1,2.2.6h0c5.2-4.6,7.9-9.6,9.2-13.5,1.7-4.9,1.9-9.5,1.4-13.2-.2-1.8-.6-3.3-1.1-4.5-1.2-3.3-4.1-6.6-7.8-9.2v13.2h0v.9h0c-.5,4.1-4.2,11.7-15.1,11.7s-15-6.5-16.3-13.3M485.2,361.7c1.8.6,3.1,1.3,4.2,2.1v-9c-3.1-1.2-6.4-1.9-9.5-2v8.2c1.4-.1,3.2,0,5.3.7M477,364.8c-.5-.3-.8-.9-.8-1.5v-10.1c-.6.1-1.1.3-1.6.4-3,1.1-9.8,4.6-9.6,12.8.1,6.2,4.2,12.5,13,12.5s11.3-7.3,11.4-8.3v-.4c-.1-.9-.8-3.4-5.3-4.8-3.2-1-5.3-.3-5.4-.2-.5,0-1.2,0-1.7-.4M465,355.8c2-2.5,4.9-4.4,8.4-5.7,1-.4,2.2-.7,3.5-.8,4.9-.9,10.1,0,15.2,2.6l1.1.5h0c3.7,2.2,6.8,5.1,9,8.3v-49.1c-1.5-2.1-8.6-10.6-18.6-10.6s-16.7,5.5-18.6,7.2v47.6ZM467.4,272.5c-3.6,10-3.5,18.9.4,26.7.3.6.6,1.2,1,1.7,1.7-.9,3.7-1.8,5.9-2.5-.8-3-1.3-6.7-.9-11.5-3.5-6.5-5.4-11.2-6.4-14.4M478.9,278.1c-2.1,9.1-1.7,15.3-.6,19.4,1.7-.3,3.4-.5,5.3-.5s1.8.1,2.7.2c.5-2.9,1.4-6.1,3-9.7,1.4-3.1,2.7-6.1,3.8-8.8.3-14-5.5-28.2-10.8-38.1.6,8.1.5,20.9-3.4,37.5M502.6,262.5c-1.5,5.7-4.5,14.6-9.9,26.6-1.5,3.3-2.4,6.3-2.7,8.9,4,1.2,7.3,3.4,9.9,5.5.4-.8.9-1.6,1.3-2.5,5.4-11.9,4.2-26.5,1.4-38.5M404.2,329.8c-1.2,1.5-.9,3.6.5,4.8.5.4,2,.8,4.9.8h1.4c-.5-2.7-1.3-5.4-2.1-6.1-.6-.5-1.3-.8-2.1-.8-1,0-2,.5-2.6,1.3M400.7,335.4c-2.9,2.7-6.2,4.5-10.5,4.3-2.9-.2-5.2-1.3-6.9-2.5.5,1.1,1.2,2.2,2,3.3,1.3,1.5,3.5,3.3,6.7,3.1,4.9-.3,7.4-3.7,8.9-7.9-.1,0-.2-.2-.2-.3M245.8,313.1c-.3,5.5-2.6,11.2-6.6,15.1-3.7,3.7-8.3,5.6-13.6,5.6h-1.2c2.1,1.6,4.7,2.5,7.5,2.5,4.1,0,8.2-1.8,11.4-4.9,5-4.9,5.8-11.2,2.5-18.3M361.1,328.2c-4-3.9-6.3-9.6-6.6-15.1-3.3,7.1-2.5,13.5,2.5,18.3,3.2,3.1,7.3,4.9,11.4,4.9s5.4-.9,7.5-2.5h-1.2c-5.3,0-9.8-1.9-13.6-5.6M347.5,306.9h0M319.8,283.6l-2.1,4.7c.9,2.2,2.5,3.9,4.7,4.8,1.9.8,4,1,6,.5l1-2.2h0l2-4.6,3.4-7.7c-.9-1.8-2.5-3.3-4.4-4.2-2.1-.9-4.5-1-6.6-.3l-4,9ZM319.8,274.4l-15.1,6.8,10.1,4.6,5-11.4ZM271,291.4h0l1,2.2c2,.5,4.1.4,6-.5,2.1-1,3.7-2.6,4.7-4.8l-1.1-2.4-4.9-11.2c-2.2-.8-4.5-.7-6.6.3-1.9.8-3.4,2.3-4.4,4.2l1.3,3,4,9.2ZM271,297.3c-.7,1.7-2,3.1-3.7,3.9-.9.4-1.9.6-3,.6h-.2c-.1.6-.2,1.1-.4,1.6-.3.8-.7,1.5-1.2,2.1,12.2-1.5,24.8-2.3,37.7-2.3s25.5.8,37.7,2.3c-.5-.6-.9-1.3-1.2-2.1-.2-.5-.3-1.1-.4-1.6h-.2c-1,0-2-.2-3-.6-1.8-.8-3-2.2-3.7-3.9-1.1.3-2.1.4-3.2.4-1.8,0-3.5-.4-5.2-1.1-3-1.3-5.3-3.8-6.6-6.9l-14.2-6.4-14.2,6.4c-1.3,3.1-3.6,5.5-6.6,6.9-1.6.7-3.4,1.1-5.2,1.1-1.1,0-2.1,0-3.2-.4M252.8,306.9h0M300.1,306.9c-17.7,0-34.9,1.5-51.1,4.4.8,1.8,1.4,3.4,1.8,5,15.6-2.7,32.2-4.2,49.3-4.2s33.7,1.4,49.3,4.2c.4-1.6,1-3.2,1.8-5-16.2-2.9-33.4-4.4-51.1-4.4M189.3,335.3h1.4c2.9,0,4.5-.4,4.9-.8,1.4-1.2,1.7-3.3.5-4.8-.6-.8-1.6-1.3-2.6-1.3s-1.5.3-2.1.8c-.8.7-1.6,3.4-2.1,6.1M210.1,339.7c-4.3.3-7.7-1.5-10.5-4.3,0,.1-.1.2-.2.3,1.5,4.2,4,7.5,8.9,7.9h.5c2.9,0,4.9-1.7,6.1-3.1.9-1,1.5-2.1,2-3.3-1.5,1.2-3.8,2.3-6.8,2.5M214.1,442.5l-.6-1.2c-.2-.3-.5-.7-.8-1-.9-1-2.2-1.9-3.8-2.5-.3-.1-1.2-.2-2.5-.2s-2.2.1-3.6.3c3.7,1.7,7.4,3.2,11.3,4.6M256.8,453.3c-2.3-3.8-5.8-6-9-7.5-3.8-1.8-6.2-2.3-6.6-2.3-1.1-.1-2-.1-2.9.1-2.5.5-4.3,2-5.5,3.4-.4.4-.7.9-.9,1.3,8,1.9,16.3,3.6,24.9,5M368.3,448.1c-.2-.4-.5-.8-.9-1.2-1.1-1.4-2.9-2.9-5.5-3.4-.9-.2-1.9-.2-2.9-.1-.3.1-2.8.5-6.6,2.3-3.2,1.5-6.7,3.7-9,7.5,8.7-1.3,17-3,24.9-5.1M397.4,438c-1.3-.2-2.6-.3-3.6-.3s-2.2.1-2.5.2c-1.6.6-2.8,1.5-3.8,2.5s-.5.6-.7,1c-.3.4-.5.8-.6,1.2,3.9-1.5,7.6-3,11.2-4.6M390.5,434.2c6.1-2.5,24.6-10,36.7-20.2,1.3-1,3.8-2.1,6.6-2.1s.7,0,1.1.1c6.8-8.2,10.4-16.9,10.4-25.8,0-17.4-13.6-34.1-38.3-47.2-1.2-.1-2.2-.4-3-.7-1.9,4.4-5.2,8.6-11.6,9h-.8c-3.4,0-6.5-1.5-8.9-4.4-1.7-1.9-2.9-4.4-3.5-6.9-2.9,2.6-6.5,4-10.6,4s-10.1-2.2-13.9-5.9c-2.3-2.3-6-7-5.6-14.1-15.4-2.7-31.9-4.1-48.7-4.1s-33.3,1.4-48.7,4.1c.4,7.1-3.2,11.8-5.6,14.1-3.9,3.8-8.9,5.9-13.9,5.9s-7.7-1.4-10.6-4c-.6,2.4-1.8,4.9-3.5,6.9-2.5,2.9-5.6,4.4-8.9,4.4h-.8c-6.4-.4-9.8-4.6-11.6-9-.8.3-1.8.6-3.1.7-24.8,13.2-38.3,29.9-38.3,47.2s3.6,17.7,10.4,25.8c.4,0,.7-.1,1.1-.1,2.8,0,5.3,1,6.6,2.1,12.1,10.1,30.6,17.7,36.7,20.1h.2c.1.1.2.2.3.2,4.6,1.8,7.6,5.4,7.9,9.6,3.3,1.1,6.7,2.2,10.1,3.1,1.9-3.6,6.3-8.2,13.4-7.4h0c2.6.4,10.8,1.9,13.5,2.5l.9.2c10.7,2.2,22.9,4.6,43.9,4.6h.2c20.9,0,33.1-2.5,43.9-4.6l.9-.2c2.6-.5,10.8-2.1,13.5-2.5h0c7.2-.8,11.6,3.8,13.4,7.4,3.5-1,6.8-2,10.1-3.1.3-4.2,3.3-7.9,8-9.6h.1M465.9,417.3c6.5-2.9,12.9-8,18.9-15.3-5.1,1.4-13.8,3.2-26.6,4.2-9.9.8-14.7,5.1-16.8,8.2,2.5,1.2,4.6,2.6,6.4,4,2.9-.9,6.6-1.4,11.4-1.4,2.1-.1,4.3,0,6.7.3M515.2,419.4c.3.8,0,1.7-.7,2.2-13.9,10-27.4,15.6-40.2,16.6,5.3,4.1,10.5,10.4,14.6,20.3.2.3.2.6.2.9,0,1-.8,1.9-1.8,1.9h0c-.5,0-.9-.2-1.3-.5-.1-.1-4.5-4-22.1-8-3.3-.8-6-1.9-8.2-3.2-1.7,1.7-6.4,6.1-16.5,12.3-16.8,10.2-25.4,12.7-26.3,12.9-1.5.6-3,.9-4.4.9s-2.7-.3-3.9-.9c-3.2-1.5-4.8-4.6-5.6-6.8-2.5-7.2,1.5-11.3,1.7-11.5s.4-.3.6-.4c4.5-1.8,7.3-3,11.6-5.3-.3-.6-.5-1.2-.9-1.7-.6-1.1-1.2-2.1-1.9-3-.1,0-.1.1-.2.1-2.7,1.4-5.5,2.7-8.4,4-5.1,8.7-11,14.5-17.1,18.2,1.9.9,3.8,1.9,5.7,3.1,10.2,6.6,21.6,7.3,26,7.3s2.4-.1,2.5-.1c1-.1,1.9.6,2,1.6s-.5,1.9-1.5,2.1c-13.1,2.7-25,4-35.4,4s-2.7,0-4.1-.1c4.6,6.4,7.3,13.9,8,22.3v.4c0,1-.8,1.9-1.8,1.9h0c-.7,0-1.4-.4-1.7-1.1-.1-.1-3.5-7.4-17.5-13.6-4.7-2.1-8.6-4.3-11.9-6.6-6.4,1.9-14.6,4-28.7,4s-8.5-4.1-11.2-7.6c-.2,6.9.9,12.4,3.3,16.4,3.7.1,5.3-.4,7.4-.9.8-.2,1.6-.5,2.6-.7h.5c.5,0,4.9.4,7.5,3.1,2.8,3,2.8,6.8,0,9.6h0q-.1,0-.2.2s-.1,0-.1,0c-.1,0-.1,0-.2,0,0,0-.1,0-.2,0-.2,0-3.8,1.5-9.1,1.5s-8.7-1-12.7-3c-7.5-3.7-11.5-9.5-13.5-13.7-2,4.2-6,10-13.5,13.7-4,2-8.3,3-12.7,3s-9-1.4-9.1-1.5h0s-.1,0-.1,0c-.1,0-.1,0-.2,0h-.1c-.1,0-.1-.2-.2-.3h0c-2.8-2.8-2.8-6.6,0-9.6,2.5-2.7,7-3,7.5-3.1h.5c1,.2,1.8.5,2.6.7,2.1.6,3.7,1,7.4.9,2.4-4,3.5-9.5,3.3-16.4-2.7,3.5-6.8,7.6-11.2,7.6-14.2,0-22.4-2.1-28.8-4.1-3.3,2.3-7.3,4.5-12,6.6-14,6.3-17.4,13.6-17.5,13.6-.3.7-1,1.1-1.7,1.1s-.3,0-.5-.1c-.9-.2-1.4-1.1-1.4-2,.7-8.5,3.4-16.1,8-22.6-1.3,0-2.7.1-4.1.1h0c-10.4,0-22.3-1.3-35.4-4-1-.2-1.6-1.1-1.5-2.1s1-1.7,2-1.6c0,0,.9.1,2.5.1,4.4,0,15.8-.7,26-7.3,2-1.3,4.1-2.4,6.1-3.4-6.1-3.7-12.1-9.4-17.3-18-2.9-1.3-5.7-2.6-8.5-4-.1,0-.1-.1-.2-.1-.7.9-1.3,1.9-1.9,3-.3.6-.6,1.2-.9,1.7,4.3,2.2,7.2,3.4,11.6,5.3.2.1.4.2.6.4.2.2,4.2,4.2,1.7,11.5-.8,2.3-2.4,5.3-5.6,6.8-1.2.6-2.5.9-3.9.9s-2.9-.3-4.4-.9c-.9-.2-9.5-2.7-26.3-12.9-10.2-6.2-14.9-10.6-16.6-12.3-2.2,1.3-4.9,2.4-8.2,3.2-17.8,4.1-22.1,8-22.1,8.1-.4.4-.8.6-1.3.6s-.7-.1-1-.3c-.7-.5-1-1.5-.7-2.3,4.1-10,9.3-16.4,14.7-20.5-12.8-1-26.3-6.6-40.2-16.6-.7-.5-1-1.4-.7-2.2.3-.8,1.1-1.3,1.9-1.2,0,0,7,.8,18,.8h0c7.5,0,15.1-.3,22.6-1-5.6-3.5-10.4-8.1-14.3-12.8-10.5-6.3-15.1-14.4-17.1-20.2-1.6-4.6-2.1-9.4-1.7-13.9,0-.1,0-.3,0-.4v-59.9c0-.4,0-.7.3-1,0-.2,1.2-1.7,3-3.6-.6-1-1.2-2.1-1.7-3.2-7.4-15.6-4-35.1,0-48.8.3-.8,1.1-1.4,1.9-1.3.9.1,1.6.8,1.7,1.6,0,.1.7,5.5,4.3,15.8,1.5-12.5,6.8-25.9,15.9-40,.5-.8,1.5-1.1,2.3-.7.8.4,1.3,1.3,1,2.2,0,.2-4.9,17,1.8,45.4.3,1.1.5,2.1.7,3.1,4.8-10.1,4.8-14,4.8-14-.1-.9.5-1.7,1.4-1.9.9-.2,1.8.2,2.1,1,8.2,17.4,5.2,29.7.7,37.3,2.3,1.6,3.7,3,3.8,3.1.2.2.4.5.5.8,5.7-10.7,7.7-19.8,8.4-25.9.8-7.6-.3-12.2-.3-12.3-.2-.9.3-1.9,1.2-2.2.9-.3,1.9.2,2.3,1.1,4.1,10.2,7.8,23.1,7.1,36.1,4.2-2.7,9.2-5.2,15.1-7.1.9-.3,1.8.1,2.2.9s.2,1.8-.6,2.4c0,0-2.4,1.8-5.4,6.1-2.7,4-6.4,11.1-8.6,21.9-.3,1.4-.7,2.7-1.1,3.9,8.3-6.8,11.4-14.2,11.4-14.3.3-.8,1.2-1.3,2-1.1.8.1,1.5.9,1.5,1.7.4,7.1-.3,13.6-2.1,19.3,4-2.9,8.3-5.6,13-8.3-2.4-.6-4.5-1.4-4.6-1.4-1-.4-1.4-1.5-1.1-2.4.4-1.1,1.5-3.8,3-6-2.9-1.1-5.9-3.2-6.6-3.7-.8-.6-1-1.8-.4-2.6.9-1.3,3.9-5.2,6.8-6.7-2-4.4-2.8-9.6,1.2-14.8,2.2-2.8,5.5-4.4,9.4-4.4s5.4.7,7.7,1.9c0-3.3,1-6.4,3-9.1,3.2-4.6,8.8-7.6,14.9-8.1.5,0,1-.1,1.5-.1,8.4,0,14.8,5.3,18.1,14.9.6-.5,1.2-.9,1.9-1.2.9-.4,1.9-.6,3-.6h.2c.1-.6.2-1.1.4-1.6.7-1.8,2.1-3.3,3.8-4.1.9-.4,1.9-.6,3-.6s2.9.5,4.1,1.3c.7-.8,1.6-1.5,2.6-2,.9-.4,1.9-.6,3-.6s1.6.2,2.4.4c.4-.8.9-1.5,1.4-2.2-1.4.3-2.9.4-4.4.5h-.4c-1,0-2.3.1-4.1.1-7.2,0-20.5-.8-29-6.2-8.7-5.5-13.2-15.3-15.9-25.3l-4.2,9.5c-.2.5-.6.8-1,1-.5.2-1,.2-1.4,0l-2.3-1.1-2,4.6,2.3,1.1c.9.4,1.4,1.5.9,2.5l-5.2,11.8c-.3.7-1,1.1-1.7,1.1s-.5-.1-.7-.2l-24.1-10.8c-.5-.2-.8-.6-1-1-.2-.5-.2-1,0-1.4l5.2-11.8c.4-.9,1.5-1.4,2.4-.9l2.3,1,2.1-4.7-2.3-1c-.5-.2-.8-.6-1-1-.2-.5-.2-1,0-1.4l1-2.4-4.7-2.1-1.1,2.4c-.4.9-1.5,1.4-2.4.9l-2.3-1.1-2,4.6,2.3,1.1c.4.2.8.6,1,1,.2.5.2,1,0,1.4l-5.2,11.8c-.4.9-1.5,1.4-2.4,1l-24.1-10.8c-.5-.2-.8-.6-1-1-.2-.5-.2-1,0-1.4l5.2-11.8c.2-.5.6-.8,1-1,.5-.2,1-.2,1.4,0l2.3,1.1,2.1-4.7-2.3-1.1c-.9-.4-1.3-1.5-.9-2.5l3.9-8.8c-1.1.7-2.4,1.1-3.8,1.1s-2-.2-3-.6c-1.8-.8-3.1-2.3-3.8-4.1-.2-.5-.3-1.1-.4-1.6h-.2c-1,0-2-.2-3-.6-2.5-1.1-4.1-3.6-4.3-6.2-3.9-2.3-5.5-7.2-3.6-11.4,1.4-3.3,4.6-5.4,8.1-5.4s1.8.1,2.7.4c1.3-1,2.8-1.6,4.5-1.6s2,.2,3,.6c1,.5,1.9,1.2,2.6,2,1.2-.8,2.6-1.3,4.1-1.3s2,.2,3,.6c1.8.8,3.1,2.3,3.8,4.1.5,1.2.6,2.6.4,3.8l45.1,20.4c-1.5-9.6-3.3-21.2-4.9-27.1h-.8c-.6,0-1.3,0-1.9.1-1.8.1-2.6.7-3.5,1.3l-.3.2c-2.7,1.8-5.3,2.7-7.8,2.7h0c-5.4,0-8.4-4.1-8.5-4.3-.4-.6-.5-1.4-.1-2s1.1-1,1.8-.9c1.9.2,3.4-.3,4.7-1.2-1.6.4-3.1.6-4.6.6-5.6,0-8-2.8-8.3-3.1-.5-.5-.6-1.3-.3-2,.3-.6.9-1.1,1.6-1.1,1.6-.1,2.8-.5,3.9-1-.9.2-1.9.2-2.8.2-6.4,0-9.5-3.9-9.7-4-.5-.6-.5-1.4-.2-2.1.4-.7,1.1-1,1.8-.9s1.3.1,1.9.1c3,0,4.4-1.1,7.3-3.3.6-.5,1.3-1,2-1.5,1.5-1.1,3.1-1.8,4.4-2.3-.1,0-.1-.1-.2-.1,0,0,.6-.2,1.6-.3,1-.3,2-.4,2.7-.4,1.7-.2,3.7-.4,6-.5h6.1c.3,0,.5,0,.8.1h.4c.3,0,.6.1,1,.1h.2c.4,0,.8.1,1.1.2.1,0,.2,0,.3.1.3,0,.5.1.8.1s.3.1.4.1c.2,0,.4.1.7.1s.3.1.4.1c.2.1.4.1.6.2.1,0,.3.1.4.1.2.1.4.1.6.2.1,0,.3.1.4.1.2.1.4.1.6.2.1,0,.3.1.4.1.2.1.4.1.6.2.1,0,.3.1.4.2.2.1.4.2.6.2.1.1.3.1.4.2.2.1.4.2.7.3.1.1.2.1.3.1.3.2.7.3,1,.5,17.1,8.2,18.7,36.2,21.5,50.1.6,2.9,1.1,5.7,1.8,8.3.4,1.6.8,3.1,1.2,4.6l32.4,14.6c2.8-3,5.1-6.7,6.3-11.1-.6.1-1.2.3-1.8.5h-.8c-.1,0-.2,0-.2-.1h-.1c-1.8-.6-3-1.7-3.7-3.3-1-2.2-.4-4.7,0-6-2-5-6.8-11-6.8-11-.5-.6-.5-1.4-.2-2,.3-.7,1-1.1,1.8-1,.5,0,1.2.2,1.8.5-1.9-3.9-3.5-7.8-4.9-11.5h-.2c-.9,0-1.7-.7-1.8-1.6v-.3c-2.1-6.8-7.6-15.8-7.6-15.9-.4-.7-.3-1.6.2-2.2.6-.6,1.4-.8,2.2-.4.2.1.8.4,1.6.9-.2-1-.4-2-.6-3-.8-4.3-1.4-8.6-1.8-12.7-.3,0-.6-.2-.9-.4-.4-.3-.7-.8-.7-1.4-.5-7.6-5.3-17.1-5.4-17.2-.3-.6-.3-1.4.2-2,.4-.6,1.2-.9,1.9-.7,1.3.3,3.5,1.4,4.4,3.9.3.1.6.2.9.3.2-1.1.4-2.1.7-3.1,4.5-16.8,20.9-28.6,41.8-30.6-1.3-1.5-2-3.5-2-5.6,0-4,2.6-7.3,6.2-8.4v-7.4h-4.3v-4.8h4.3v-4.1h4.8v4.1h4.3v4.8h-4.3v7.4c3.6,1.1,6.2,4.4,6.2,8.4s-.8,4.1-2,5.6c20.8,2.1,37.2,13.9,41.8,30.6.2.9.5,2,.6,3.1.3-.1.6-.2.9-.3.9-2.5,3.1-3.6,4.4-3.9.7-.2,1.4.1,1.9.7.4.6.5,1.4.2,2,0,.1-4.9,9.6-5.4,17.2,0,.6-.3,1.1-.7,1.4-.3.2-.6.3-.9.3-.4,4.8-1.2,10.1-2.4,15.7.8-.5,1.4-.9,1.6-1,.7-.4,1.6-.2,2.2.4.5.6.6,1.5.2,2.2-.1.1-5.8,9.6-7.8,16.4-.1.5-.5.9-.9,1.1-.3.1-.6.2-.9.2h-.2c-1.4,3.8-3,7.6-4.9,11.5.7-.3,1.4-.4,1.9-.5.7-.1,1.4.3,1.8,1,.3.7.3,1.5-.2,2s-4.8,6.1-6.8,11c.4,1.3,1,3.7,0,6-.7,1.5-1.9,2.7-3.7,3.3h0q-.1,0-.2.1h-.4c-.2,0-.3,0-.5-.1h0c-.5-.1-1-.3-1.4-.4,1.2,4.2,3.4,7.9,6.2,10.9l32.5-14.7c.4-1.4.7-2.9,1.1-4.4.6-2.6,1.2-5.4,1.8-8.3,2.8-13.9,4.4-41.9,21.5-50.1.3-.2.7-.3,1-.5.1,0,.2-.1.3-.1.2-.1.4-.2.7-.3.1-.1.3-.1.4-.2.2-.1.4-.2.6-.2.1-.1.3-.1.4-.2.2-.1.4-.1.6-.2.1,0,.3-.1.4-.1.2-.1.4-.1.6-.2.1,0,.3-.1.4-.1.2-.1.4-.1.6-.2.1,0,.3-.1.4-.1.2-.1.4-.1.6-.2.1,0,.3-.1.4-.1.2,0,.4-.1.7-.1s.3-.1.4-.1c.3,0,.5-.1.8-.1s.2,0,.3-.1c.4-.1.8-.1,1.1-.2h.2c.3,0,.6-.1,1-.1h.4c.3,0,.5,0,.8-.1h6.2c2.2.1,4.2.3,5.8.5.9,0,2.3.2,4,.7.3.1.5.1.5.1h-.1c1.4.5,3,1.2,4.6,2.4.7.5,1.4,1,2,1.5,2.9,2.2,4.3,3.3,7.3,3.3s1.2,0,1.9-.1c.7-.1,1.5.3,1.8.9.4.7.3,1.5-.2,2.1-.1.2-3.2,4-9.7,4s-1.8-.1-2.8-.2c1.1.6,2.4,1,4,1s1.3.5,1.6,1.1c.3.6.2,1.4-.3,2-.3.3-2.7,3.1-8.3,3.1h0c-1.4,0-3-.2-4.6-.6,1.1.8,2.3,1.3,3.8,1.3s.6,0,.9-.1c.7-.1,1.4.3,1.8.9.4.6.3,1.4-.1,2-.1.2-3.1,4.3-8.5,4.3s-5.2-.9-7.8-2.7l-.3-.2c-.9-.6-1.7-1.2-3.5-1.3-.6,0-1.3-.1-1.9-.1h-1.1c-1.5,5.9-3.4,17.4-4.9,26.9l44.8-20.2c-.2-1.3-.1-2.6.4-3.8.7-1.8,2.1-3.3,3.8-4.1.9-.4,1.9-.6,3-.6s2.9.5,4.1,1.3c.7-.8,1.5-1.5,2.6-2,.9-.4,1.9-.6,3-.6,1.7,0,3.2.6,4.5,1.6.9-.3,1.8-.4,2.7-.4,3.5,0,6.7,2.1,8.1,5.3,1.9,4.2.2,9.2-3.6,11.4-.2,2.6-1.8,5.1-4.3,6.2-.9.4-1.9.6-3,.6h-.2c-.1.6-.2,1.1-.4,1.6-.7,1.8-2.1,3.3-3.8,4.1-.9.4-1.9.6-3,.6s-2.6-.4-3.8-1.1l3.9,8.8c.4.9,0,2-.9,2.5l-2.3,1.1,2.1,4.7,2.3-1.1c.5-.2,1-.2,1.4,0,.5.2.8.5,1,1l5.2,11.8c.2.5.2,1,0,1.4-.2.5-.5.8-1,1l-24.1,10.8c-.9.4-2,0-2.4-1l-5.2-11.8c-.2-.5-.2-1,0-1.4.2-.5.5-.8,1-1l2.3-1.1-2-4.6-2.3,1.1c-.9.4-2,0-2.4-.9l-1.1-2.4-4.7,2.1,1,2.4c.2.5.2,1,0,1.4-.2.5-.5.8-1,1l-2.3,1,2.1,4.7,2.3-1.1c.9-.4,2,0,2.4.9l5.2,11.8c.2.5.2,1,0,1.4-.2.5-.5.8-1,1l-24.1,10.8c-.2.1-.5.2-.7.2-.7,0-1.4-.4-1.7-1.1l-5.2-11.8c-.4-.9,0-2,.9-2.5l2.3-1.1-2-4.6-2.3,1.1c-.4.2-1,.2-1.4,0-.5-.2-.8-.5-1-1l-4-9c-2.7,9.9-7.2,19.5-15.8,24.9-8.5,5.4-21.8,6.2-29,6.2s-3.1,0-4.1-.1h-.4c-1.6-.1-3.2-.3-4.7-.6.6.7,1,1.4,1.4,2.2.8-.3,1.6-.4,2.4-.4s2,.2,3,.6c1,.5,1.9,1.2,2.6,2,1.2-.8,2.6-1.3,4.1-1.3s2,.2,3,.6c1.8.8,3.1,2.2,3.8,4.1.2.5.3,1.1.4,1.6h.2c1,0,2,.2,3,.6.7.3,1.3.7,1.9,1.2,3.3-9.5,9.6-14.9,18.1-14.9s1,0,1.5.1c6.1.4,11.6,3.5,14.9,8.1,1.9,2.7,2.9,5.8,3,9.1,2.3-1.2,5.1-1.9,7.7-1.9,3.9,0,7.2,1.5,9.4,4.4,4,5.1,3.2,10.4,1.2,14.8,2.9,1.5,5.9,5.4,6.8,6.7.6.8.4,2-.4,2.6-.7.5-3.7,2.7-6.6,3.7,1.5,2.2,2.6,4.9,3,6,.4,1-.1,2-1.1,2.4-.1,0-2.2.9-4.6,1.4,4.7,2.6,9.1,5.4,13,8.3-1.8-5.7-2.5-12.1-2.1-19.3,0-.9.7-1.6,1.5-1.7s1.7.3,2,1.1c0,.1,3.2,7.5,11.4,14.3-.4-1.2-.8-2.6-1.1-3.9-2.2-10.9-5.9-17.9-8.6-21.9-2.9-4.3-5.3-6.1-5.4-6.1-.7-.5-1-1.5-.6-2.4.4-.8,1.3-1.2,2.2-.9,5.9,1.9,10.9,4.4,15.1,7.1-.6-13,3-25.9,7.1-36.1.4-.9,1.4-1.4,2.3-1.1s1.4,1.3,1.2,2.2c0,0-1.1,4.7-.3,12.3.6,6.1,2.6,15.3,8.4,25.9.1-.3.2-.6.5-.8.1-.1,1.5-1.5,3.8-3.1-4.5-7.6-7.6-19.9.7-37.3.4-.8,1.3-1.2,2.1-1,.9.2,1.4,1,1.4,1.9,0,0,0,3.8,4.8,14,.2-1,.4-2,.7-3.1,3.5-14.8,3.8-26.4,3.5-33.5-.4-7.7-1.6-11.9-1.6-11.9-.3-.9.2-1.8,1-2.2s1.8-.1,2.3.7c9,14.1,14.3,27.5,15.9,40,3.6-10.3,4.3-15.7,4.3-15.8.1-.9.8-1.6,1.7-1.6.9-.1,1.7.5,1.9,1.3,4.1,13.6,7.5,33.2.1,48.8-.6,1.2-1.1,2.2-1.7,3.2,1.8,1.9,2.9,3.4,3,3.6.2.3.3.7.3,1v59.9c0,.2,0,.3-.1.5.9,10.3-3.2,24.6-18.8,34-4,4.7-8.8,9.3-14.3,12.8,7.6.7,15.1,1,22.6,1,11.1,0,17.9-.8,18-.8,1.1.5,1.9,1,2.2,1.8"/>
</svg>