<?xml version="1.0" encoding="utf-8"?>
<!-- Generator: Adobe Illustrator 22.1.0, SVG Export Plug-In . SVG Version: 6.00 Build 0)  -->
<svg version="1.1" id="Capa_1" xmlns="http://www.w3.org/2000/svg" xmlns:xlink="http://www.w3.org/1999/xlink" x="0px" y="0px"
	 viewBox="0 0 1279 600" style="enable-background:new 0 0 1279 600;" xml:space="preserve">
<style type="text/css">
	.st0{fill:#2C5697;}
</style>
<path class="st0" d="M586.6,239.8c-0.7,0-1.4,0.3-1.9,0.6c-0.2,0.2-0.5,0.9-0.6,2.5c-0.1,1.3-0.1,9.4-0.1,16.8
	c0,5.9,0.1,11,0.1,12.6c0.1,4.1,0.5,4.8,3.9,5.8c1.2,0.3,1.7,0.7,1.7,1.3c0,0.5-1.2,0.8-2.1,0.8c-1.7,0-4.3-0.3-7.1-0.3
	c-1.9,0-4.7,0.3-6.6,0.3c-1.2,0-2-0.3-2-1c0-0.5,0.8-0.8,1.4-1c3.5-0.8,4.2-2,4.4-4.7c0.2-3.1,0.3-8.2,0.3-11.4
	c0-2.1-0.1-15.9-0.2-17.9c-0.1-2.3-0.1-3.3-3.7-3.8c-1.2-0.1-1.9-0.6-1.9-1c0-0.5,0.6-0.8,1.4-0.8c0.5-0.1,1.6-0.1,2.1-0.1
	c2.9,0,8-0.5,11.1-0.5c6,0,9.9,1.5,12.3,3.8c3.1,3,3.7,6.6,3.7,8.8c0,5.6-2.5,8.3-4.4,9.9c-1.7,1.4-4.9,2.8-7.5,2.8
	c-0.7,0-2.5-0.1-3.5-0.5c-0.7-0.3-1.1-0.7-1.1-1.1c0-0.3,0.3-0.6,0.8-0.6h1.4c3.3,0,7.9-3.1,7.9-10.3
	C596.8,245,592.6,239.8,586.6,239.8 M614.4,257.4c1.4-1.1,2.7-1.8,4-1.8c1.7,0,3.9,1,5.3,2.5c2.3,2.9,3,6.7,3,9.9
	c0,2.9-1.2,6.8-2.8,8.6c-1.6,1.6-3,2-3.7,2c-3,0-6.6-2.3-8.1-7c-0.6-1.6-0.8-3.7-0.8-5.8C611.4,262.1,612.8,258.9,614.4,257.4
	 M632.7,266.9c0-8.2-6.7-13.2-13.1-13.2c-4.4,0-7.8,1.9-9.7,3.6c-2.5,2.1-4.5,5.2-4.5,10.1c0,3.3,2,7.6,4.8,9.9
	c2.4,2,5.7,3.4,8.7,3.4c2.9,0,5.6-0.7,8.3-2.6C629.5,276.4,632.7,272.3,632.7,266.9 M639,255.6c-0.5,0.2-1.1,0.8-1.1,1.3
	c0,0.2,0.3,0.5,1.1,1.1c1.4,1.2,1.6,1.8,1.6,2.5c0,6.5-0.2,12.1-0.4,14c-0.2,2.3-0.5,3-2.7,3.6c-0.7,0.2-1.4,0.5-1.4,1
	c0,0.6,0.7,0.9,1.7,0.9c1.1,0,3.1-0.2,5.5-0.2c1.4,0,3.3,0.1,4.1,0.1c1,0,1.7-0.3,1.7-0.8c0-0.4-0.5-0.9-1.2-1c-2-0.6-2.3-1.1-2.3-2
	c-0.1-0.8-0.1-14.6-0.1-15.5c0-0.5,0.4-1.4,0.7-1.6c1.1-1,2.7-1.9,5.4-1.9c1.4,0,3.4,0.7,4.1,1.2c0.7,0.6,1.8,2.5,1.8,4.6
	c0,1.9,0,9.7-0.1,11.8c-0.1,2.1-0.5,2.7-2,3.3c-0.8,0.3-1.6,0.6-1.6,1.1c0,0.6,0.9,0.8,1.6,0.8c0.8,0,3-0.1,4.6-0.1
	c1.8,0,3.5,0.1,5,0.1c1,0,1.9-0.3,1.9-0.8c0-0.4-0.4-0.8-1.6-1.1c-1.6-0.5-2.3-1.3-2.4-2.3c-0.1-0.9-0.2-10.4-0.2-11.7
	c0-3.2-0.8-6.2-2.3-7.9c-0.9-1-2.7-2.5-5.9-2.5c-2.8,0-6,1.8-8.6,3.6c0,0-0.4,0.1-0.4-0.2c0-0.6,0.2-2.2,0.2-3.2c0-0.3-0.3-1-0.6-1
	c-0.3,0-1,0.3-1.7,0.8C642.6,254.3,640.2,255.2,639,255.6 M686.1,254.3c-0.3,0-6.3,0.3-7.7,0.3c-0.3,0-0.6-0.3-0.6-0.5v-3.1
	c0-0.2-0.7-0.8-1-0.8c-0.3,0-0.7,0.6-1.5,1.4c-1,1.2-3,2.7-5.5,4.6c-0.3,0.2-0.4,0.5-0.4,0.7c0,0.3,0.3,0.7,0.8,0.9
	c1.4,0.3,2.5,0.8,2.5,1.2c0,2.3-0.3,11.9-0.3,14.3c0,1.9,0.1,3.2,0.8,4.3c0.9,1.4,3.2,3,5.8,3c2.9,0,5.2-1.2,7-2.9
	c0.5-0.5,0.9-1.1,0.9-1.7c0-0.6-0.3-0.7-0.3-0.7c-0.2,0-0.4,0.1-1,0.4c-1,0.6-2.3,1-3.1,1c-1.3,0-2.7-0.2-3.8-1.2
	c-0.7-0.7-1.2-1.6-1.2-3.2c0-3.2,0.1-12,0.2-13.7c0-0.1,0.3-0.5,0.5-0.5h6.9c0.5,0,1.7-0.1,1.7-0.8c0-0.8-0.2-2.7-0.2-2.5
	C686.8,254.6,686.2,254.3,686.1,254.3 M699.4,243.8c0-1.2-1-3.4-2.9-3.4c-1,0-2,0.3-2.7,1c-0.6,0.6-0.8,1.7-0.8,2.4
	c0,1.2,0.5,1.9,1,2.5c0.6,0.6,1.7,0.8,2.2,0.8C697.6,247.1,699.4,245.6,699.4,243.8 M691.7,255.6c-0.7,0.2-1.3,0.7-1.3,1.2
	c0,0.2,0.2,0.4,0.6,0.8c1.8,1.3,2.5,1.9,2.6,2.3c0.1,0.8,0.1,8.8,0.1,9.2c0,2.5-0.1,6.5-0.3,7.4c-0.2,0.6-1.1,1.4-2.6,1.9
	c-1.1,0.3-1.6,0.6-1.6,1c0,0.4,0.7,0.8,1.7,0.8c1.1,0,3.5-0.3,5.7-0.3c1.4,0,4.6,0.2,5.1,0.2c0.8,0,1.6-0.3,1.6-0.7
	c0-0.4-0.4-0.8-1.4-1.1c-1.6-0.5-2.9-0.7-3-2.7c-0.1-2.3-0.1-4.8-0.1-8.1c0-3.7,0.3-12.2,0.4-13.2c0-0.1-0.3-0.7-0.6-0.7
	C697.5,253.7,694.3,255.1,691.7,255.6 M722,254.5c-0.5,0-4.8,0-5.8-0.1c-0.5,0-0.8-0.4-0.8-0.6c0-8.7,1.4-13.2,2.9-14.9
	c1.1-1.3,2.3-1.8,3.9-1.8c2,0,4,1,5.4,2.5c1.1,1.2,2.1,1.9,2.5,1.9c0.8,0,3.3-1.7,3.3-3.2c0-0.6-0.1-1-0.6-1.6
	c-0.9-1.2-2.7-2.8-6.8-2.8c-2.9,0-5.9,1.2-8.3,3c-2.6,1.9-4.5,4.5-5.7,7.3c-1.4,3-1.8,6.5-1.8,9.6c0,0.3-0.3,0.6-0.6,0.9
	c-2,1-2.8,1.6-2.9,2.2c-0.1,0.3,0.2,0.7,0.5,0.7c0.8,0.1,1.4,0.1,2.3,0.2c0.3,0.1,0.6,0.7,0.6,0.8c0,4.7,0,15-0.1,16.4
	c-0.3,2.2-0.6,2.7-2.8,3.3c-0.8,0.2-1.3,0.5-1.3,1c0,0.4,0.5,0.8,1.3,0.8c0.9,0,3.2-0.3,5.5-0.3c2.1,0,5,0.2,6.1,0.2
	c1,0,1.4-0.4,1.4-0.8c0-0.4-0.3-0.7-1.4-1c-2.9-0.9-3.2-1.2-3.3-3.3c-0.2-3.5-0.2-14.5-0.2-16.4c0-0.5,0.5-0.8,0.6-0.8
	c3-0.3,8.4-0.2,10.5,0c0.3,0.1,0.8,0.6,0.8,1c0,2.8-0.1,13.2-0.3,17.2c-0.1,1.1-0.7,1.7-2.3,2.3c-1,0.5-1.4,0.7-1.4,1.1
	c0,0.6,0.6,0.8,1.3,0.8c1.4,0,3.4-0.3,5.6-0.3c1.6,0,3.7,0.2,5.1,0.2c0.8,0,1.6-0.3,1.6-0.8c0-0.4-0.1-0.6-1.4-1.1
	c-1.9-0.6-2.6-0.9-2.7-2.3c-0.2-2.6-0.1-5.4-0.1-17c0-3.7,0.2-5.5-0.2-5.5c-0.5,0-1.4,0.2-2,0.4C728.9,254.1,727.5,254.6,722,254.5
	 M760.8,255.3c-1.2-0.9-4.1-1.4-6.1-1.4c-1.9,0-6.1,1-8.5,2.7c-3.8,2.5-6.3,6.4-6.3,11.2c0,2.7,0.9,5.7,2.1,7.6
	c1.9,3,5.4,5.2,9.6,5.2c3.5,0,7.2-1.6,9.4-4.1c0.5-0.5,0.9-1.2,0.9-1.9c0-0.3-0.5-0.5-1.2-0.1c-1.7,1.2-3.5,1.9-5.8,1.9
	c-3.4,0-6.4-1.6-7.9-4.1c-0.3-0.4-1.8-2.6-1.8-6.5c0-2.9,1-5.7,2.6-7.6c1-1.2,2.8-2,3.8-2c2.2,0,3.3,1.1,5.4,2.6
	c1,0.8,2.1,1.3,2.6,1.3c0.3,0,2.2-1.6,2.2-2.6C761.8,256.8,761.5,255.8,760.8,255.3 M775.3,243.8c0-1.2-1-3.4-2.9-3.4
	c-1,0-2,0.3-2.7,1c-0.6,0.6-0.8,1.7-0.8,2.4c0,1.2,0.5,1.9,1,2.5c0.7,0.6,1.7,0.8,2.2,0.8C773.4,247.1,775.3,245.6,775.3,243.8
	 M767.6,255.6c-0.7,0.2-1.4,0.7-1.4,1.2c0,0.2,0.2,0.4,0.6,0.8c1.8,1.3,2.5,1.9,2.6,2.3c0.1,0.8,0.1,8.8,0.1,9.2
	c0,2.5-0.1,6.5-0.3,7.4c-0.2,0.6-1.1,1.4-2.6,1.9c-1.1,0.3-1.5,0.6-1.5,1c0,0.4,0.7,0.8,1.7,0.8c1.2,0,3.6-0.3,5.7-0.3
	c1.3,0,4.6,0.2,5,0.2c0.8,0,1.6-0.3,1.6-0.7c0-0.4-0.4-0.8-1.4-1.1c-1.6-0.5-2.9-0.7-3-2.7c-0.1-2.3-0.1-4.8-0.1-8.1
	c0-3.7,0.3-12.2,0.4-13.2c0-0.1-0.3-0.7-0.6-0.7C773.3,253.7,770.1,255.1,767.6,255.6 M794.9,275.9c-1.1,0.6-2.4,1-3.3,1
	c-1.3,0-3.9-1-3.9-3.9c0-1.6,0.5-2.1,1.2-2.5c1.6-0.9,4.7-1.9,6.4-1.9c0.2,0,0.5,0.3,0.5,0.5c0,1.5-0.1,3.8-0.1,5.2
	C795.6,274.5,795.3,275.7,794.9,275.9 M799.6,256.8c-1-1.4-2.6-3.2-6-3.2c-1.2,0-4.1,1-6.1,2.5c-3.2,2.1-5,3.9-5,5.7
	c0,0.4,0.4,0.9,0.8,0.9c0.3,0,3.9-1.7,4.5-2.3c0.1-0.1,0.3-0.4,0.3-0.6c-0.1-1.5,0.1-2.5,0.5-2.7c0.5-0.3,1.3-0.6,2.5-0.6
	c3.2,0,4.9,2.6,4.9,4.3c0.1,0.8-0.1,4.6-0.1,5.2c0,0.4-0.4,0.7-1.7,1.2c-1.4,0.5-6.7,1.9-7.8,2.3c-0.9,0.4-1.9,0.7-2.6,1.6
	c-0.7,0.9-1.2,2.2-1.2,3.4c0,3.3,2.3,6,4.6,6c0.4,0,1.9-0.1,2.6-0.4c0.7-0.3,3.4-1.4,5.7-2.9c0.1-0.1,0.4,0.1,0.5,0.3
	c0.8,2.4,2.6,3.2,4.2,3.2c3.1,0,6-2.8,6-4.1c0-0.1,0-0.5-0.1-0.7c-0.1-0.2-0.2-0.3-0.4-0.2c-0.8,0.4-2.2,1-2.4,1
	c-0.6,0-2.5-0.4-2.5-3.1c0-0.7,0.3-8.7,0.3-11.2C800.9,259.4,800.5,258.1,799.6,256.8 M822.9,238.2c-1,0-1.8,0.3-1.8,0.8
	c0,0.6,0.7,1,1.5,1.2c2.4,0.5,3.3,1.5,3.5,2.8c0.1,0.8,0.2,7,0.2,15.4c0,10.7,1.6,15.3,5.2,18.7c1.6,1.6,5.9,3.8,11.7,3.8
	c2.8,0,6.3-0.3,9.2-2c4.6-2.6,7.7-8,8.1-19.2c0.1-3.3,0.5-10.6,0.6-13.5c0.1-4,1.3-5.1,4.2-5.9c0.9-0.3,1.5-0.7,1.5-1.1
	c0-0.5-0.6-0.8-1.6-0.8c-1.8,0-3.2,0.1-5.9,0.1c-2.1,0-4-0.2-5.6-0.2c-1.2,0-1.6,0.3-1.6,0.7c0,0.5,0.8,1,1.5,1.1
	c3.5,0.8,4.1,1.8,4.3,4.1c0.1,0.7,0.2,3.7,0.2,7.9c0,7.6-0.6,13-1.4,16.5c-1.6,7.2-7.7,8.9-11.9,8.9c-3,0-7.2-1.4-9-3.4
	c-2.1-2.3-3.7-4.9-3.7-12.3c0-9.2,0-15.8,0.3-17.9c0.4-2.6,1.5-3.3,3.9-3.7c1.2-0.3,1.9-0.7,1.9-1.2c0-0.5-0.7-0.8-1.9-0.8
	c-1.4,0-4.1,0.1-6.5,0.1C827.4,238.4,825.6,238.2,822.9,238.2 M868.6,255.6c-0.4,0.2-1.1,0.8-1.1,1.3c0,0.2,0.3,0.5,1.1,1.1
	c1.4,1.2,1.6,1.8,1.6,2.5c0,6.5-0.2,12.1-0.4,14c-0.2,2.3-0.5,3-2.7,3.6c-0.7,0.2-1.4,0.5-1.4,1c0,0.6,0.7,0.9,1.7,0.9
	c1.1,0,3.1-0.2,5.5-0.2c1.4,0,3.3,0.1,4.1,0.1c1,0,1.7-0.3,1.7-0.8c0-0.4-0.5-0.9-1.2-1c-2-0.6-2.3-1.1-2.3-2
	c-0.1-0.8-0.1-14.6-0.1-15.5c0-0.5,0.4-1.4,0.6-1.6c1.1-1,2.7-1.9,5.4-1.9c1.4,0,3.3,0.7,4.1,1.2c0.7,0.6,1.7,2.5,1.7,4.6
	c0,1.9,0,9.7-0.1,11.8c-0.1,2.1-0.5,2.7-2,3.3c-0.8,0.3-1.5,0.6-1.5,1.1c0,0.6,0.9,0.8,1.6,0.8c0.8,0,3-0.1,4.6-0.1
	c1.8,0,3.5,0.1,5,0.1c1,0,1.9-0.3,1.9-0.8c0-0.4-0.4-0.8-1.6-1.1c-1.6-0.5-2.3-1.3-2.4-2.3c-0.1-0.9-0.2-10.4-0.2-11.7
	c0-3.2-0.8-6.2-2.3-7.9c-0.9-1-2.7-2.5-5.9-2.5c-2.8,0-6,1.8-8.6,3.6c0,0-0.4,0.1-0.4-0.2c0-0.6,0.2-2.2,0.2-3.2c0-0.3-0.3-1-0.6-1
	c-0.3,0-1,0.3-1.7,0.8C872.2,254.3,869.7,255.2,868.6,255.6 M910,243.8c0-1.2-1-3.4-2.9-3.4c-1,0-2,0.3-2.7,1
	c-0.6,0.6-0.8,1.7-0.8,2.4c0,1.2,0.5,1.9,1,2.5c0.7,0.6,1.8,0.8,2.2,0.8C908.2,247.1,910,245.6,910,243.8 M902.3,255.6
	c-0.7,0.2-1.4,0.7-1.4,1.2c0,0.2,0.2,0.4,0.6,0.8c1.8,1.3,2.5,1.9,2.6,2.3c0.1,0.8,0.1,8.8,0.1,9.2c0,2.5-0.1,6.5-0.3,7.4
	c-0.2,0.6-1.1,1.4-2.6,1.9c-1.1,0.3-1.5,0.6-1.5,1c0,0.4,0.7,0.8,1.7,0.8c1.2,0,3.5-0.3,5.7-0.3c1.4,0,4.6,0.2,5,0.2
	c0.8,0,1.6-0.3,1.6-0.7c0-0.4-0.4-0.8-1.4-1.1c-1.6-0.5-2.9-0.7-3-2.7c-0.1-2.3-0.1-4.8-0.1-8.1c0-3.7,0.3-12.2,0.4-13.2
	c0-0.1-0.3-0.7-0.7-0.7C908.1,253.7,904.9,255.1,902.3,255.6 M915.8,254.2c-0.6,0-1.6,0.3-1.6,0.7c0,0.5,0.3,0.7,1.3,1.1
	c1.6,0.4,2.3,1.3,2.8,2.2c1.7,2.9,5,10.8,6.6,15c1.5,3.7,1.7,4.6,2.4,6.7c0.2,0.7,0.6,1.2,0.9,1.2c0.5,0,1.2-0.7,1.5-1.7
	c1.1-3.4,1.2-4,3-8.6c1.9-4.5,4.2-10.4,5.3-12.1c1-1.3,1.7-2.1,3.2-2.6c1-0.4,1.4-0.7,1.4-1c0-0.4-0.7-0.7-1.3-0.7
	c-1.2,0-3.2,0.3-4.4,0.3c-1.5,0-2.4-0.2-3.5-0.2c-0.8,0-1.3,0.3-1.3,0.7c0,0.4,0.5,0.7,1.1,0.9c1.9,0.7,2.5,1.2,2,2.8
	c-0.6,2-4,10.8-4.8,12.6c-0.1,0.3-0.3,0.5-0.5,0.3c-0.5-0.5-3.8-7.9-5.6-13.2c-0.3-0.8-0.5-1.7,1.4-2.2c0.8-0.3,1.4-0.6,1.4-1
	c0-0.5-0.5-0.7-1.5-0.7c-0.8,0-2.4,0.1-4.1,0.1C920.7,254.5,916.9,254.2,915.8,254.2 M949.5,260.3c1.1-3,3.6-5,6.4-5
	c2.3,0,4.1,2.1,4.1,3.9c0,1.4-0.8,1.7-2.2,1.7c-3.2,0.1-6.3,0.1-8,0C949.6,261,949.3,260.7,949.5,260.3 M963,256.2
	c-1.7-1.6-4.2-2.5-6.5-2.5c-1.2,0-3.3,0.3-5,1.1c-5.1,2.4-7.8,7.6-7.8,12.7c0,7.5,4.6,12.8,11.6,12.8c4.1,0,7.4-1.7,9.6-5
	c0.2-0.4,0.5-1.1,0.5-1.6c0-0.3-0.2-0.8-0.6-0.8c-0.3,0-0.6,0.4-0.8,0.8c-1.1,1.6-3,2.3-5.8,2.3c-3.1,0-5.8-1.5-7.3-3.5
	c-1.4-1.8-2.3-4.8-2.3-7c0-0.7,0.1-1.7,0.3-2.3c0.1-0.3,0.4-0.5,0.6-0.5c3,0.1,13.9,0.1,14.6,0.1c0.7,0,1.3-0.8,1.3-1.2
	C965.3,259.4,964.4,257.6,963,256.2 M970.5,256c-0.7,0.2-0.8,0.9-0.8,1c0,0.3,0.8,0.8,2.3,1.9c0.6,0.4,0.6,1.3,0.6,2.1v12
	c-0.1,3.9-0.3,4.5-2.7,5.4c-0.4,0.2-1.3,0.4-1.3,0.8c0,0.6,0.6,0.8,1.4,0.8c1.6,0,2.4-0.3,4.3-0.3c3.7,0,6.3,0.3,8,0.3
	c1,0,1.6-0.3,1.6-0.6c0-0.3-0.2-0.7-1.2-1c-0.9-0.3-2.1-0.6-2.9-0.7c-1.1-0.3-1.5-1.5-1.7-3.4c-0.1-1-0.3-12.5-0.3-13.8
	c0-0.5,0.2-1,0.6-1.4c0.6-0.6,1.5-0.8,2.5-0.8c1.3,0,3,0.8,3.7,1.5c0.2,0.1,0.8,0.3,1,0.2c0.4-0.2,2-2.1,2.8-3.2
	c0.2-0.3,0.4-0.8,0.4-1c0-0.6-0.7-2.3-3.4-2.3c-2,0-4.8,1.7-7.3,4c-0.1,0.1-0.4,0-0.4-0.3c0-1.2,0.1-2.4,0.1-3.5
	c0-0.2-0.3-0.7-0.7-0.7c-0.2,0-0.6,0.2-1.3,0.7C974.8,254.3,972.6,255.2,970.5,256 M1004.2,254c-0.8-0.2-2.1-0.4-3.4-0.4
	c-2.3,0-4.1,0.6-5.3,1.4c-2.4,1.5-3.6,3.7-3.6,6c0,3,2.1,5.4,4.1,6.6c2.1,1.2,2.5,1.6,4.1,2.7c2,1.3,2.8,2.6,2.8,4.1
	c0,1.2-0.5,2.6-1.5,3.4c-0.7,0.6-1.8,1-2.6,1c-2.2,0-4.1-1.2-5.9-4.6c-0.4-0.7-0.8-1.5-1.4-1.5c-0.3,0-0.5,0.6-0.5,1.4
	c0,1.9,0.9,4.6,1,5c1.1,0.9,4.3,1.4,6.3,1.4c1.9,0,4.4-0.7,5.6-1.5c1.7-1.2,3.8-3.3,3.8-6.3c0-2.9-1.3-5.1-5.3-7.4
	c-4.1-2.3-6.2-3.9-6.2-6.1c0-1.4,1.3-3.8,3.7-3.8c2.1,0,3.8,1.3,5.2,4.3c0.3,0.7,0.8,1.2,1.1,1.2c0.4,0,0.8-0.6,0.8-1.2
	c0-0.5-0.2-2.8-0.2-3.9c-0.1-0.4-0.4-0.8-0.6-1C1006.1,254.7,1004.9,254.1,1004.2,254 M1021.7,243.8c0-1.2-1-3.4-2.9-3.4
	c-1,0-2,0.3-2.7,1c-0.6,0.6-0.8,1.7-0.8,2.4c0,1.2,0.5,1.9,1,2.5c0.6,0.6,1.7,0.8,2.2,0.8C1019.8,247.1,1021.7,245.6,1021.7,243.8
	 M1014,255.6c-0.7,0.2-1.4,0.7-1.4,1.2c0,0.2,0.2,0.4,0.6,0.8c1.8,1.3,2.5,1.9,2.6,2.3c0.1,0.8,0.1,8.8,0.1,9.2
	c0,2.5-0.1,6.5-0.3,7.4c-0.2,0.6-1.1,1.4-2.6,1.9c-1.1,0.3-1.6,0.6-1.6,1c0,0.4,0.7,0.8,1.7,0.8c1.2,0,3.5-0.3,5.7-0.3
	c1.4,0,4.6,0.2,5,0.2c0.8,0,1.6-0.3,1.6-0.7c0-0.4-0.4-0.8-1.4-1.1c-1.6-0.5-2.9-0.7-3-2.7c0-2.3-0.1-4.8-0.1-8.1
	c0-3.7,0.3-12.2,0.4-13.2c0-0.1-0.3-0.7-0.7-0.7C1019.7,253.7,1016.5,255.1,1014,255.6 M1036.7,258c1.2-1.2,2.9-2.1,4.8-2.1
	c1.3,0,3.7,0.7,5.5,2.5c0.7,0.8,1.3,2,1.4,2.5c0.3,2.9,0.3,7,0.2,10.8c-0.1,1.9-0.9,3.9-1,4c-1.1,0.8-2.4,1.4-4.4,1.4
	c-5.4,0-9-5.8-9-11C1034,262.8,1035.3,259.4,1036.7,258 M1047.9,253.9c-0.8-0.1-1.9-0.2-4-0.2c-1.9,0-5.7,0.6-8.5,2.5
	c-3.2,1.9-6.9,5.5-6.9,11.9c0,3.2,1,6.6,3.2,8.9c1.9,2.1,4.8,3.4,8,3.4c2.1,0,5.4-0.7,8.3-3.2c0.1,0,0.4,0.1,0.4,0.4
	c0,0.9-0.1,2-0.1,2.6c0,0.3,0.5,0.8,0.7,0.8c0.3,0,1-0.1,2.5-0.7c1.2-0.4,4.7-1.1,6-1.3c0.3-0.1,1.2-1.2,1.2-1.7
	c0-0.1-0.1-0.4-0.4-0.4c-0.6,0.1-2.7,0.4-3.4,0.4c-0.4,0-0.9-0.3-1-3c-0.1-1.2-0.2-1.2-0.2-14.3c0-18.7,0.3-22.1,0.6-25.3
	c0.1-0.5-0.3-1-0.4-1c-0.3,0-0.6,0.1-0.9,0.2c-1.7,0.6-5.4,1.6-7,1.9c-0.4,0.1-1.1,0.8-1.1,1c0,0.1,0.1,0.3,0.7,0.6
	c2.9,1.5,2.9,2.3,3,2.6c0.2,1.6,0.4,11.2,0.1,13C1048.3,253.5,1048.1,253.9,1047.9,253.9 M1073.8,275.9c-1.1,0.6-2.4,1-3.3,1
	c-1.3,0-3.9-1-3.9-3.9c0-1.6,0.5-2.1,1.2-2.5c1.6-0.9,4.7-1.9,6.4-1.9c0.2,0,0.5,0.3,0.5,0.5c0,1.5-0.1,3.8-0.1,5.2
	C1074.5,274.5,1074.2,275.7,1073.8,275.9 M1078.5,256.8c-1-1.4-2.7-3.2-6-3.2c-1.2,0-4.1,1-6.1,2.5c-3.2,2.1-5,3.9-5,5.7
	c0,0.4,0.4,0.9,0.8,0.9c0.3,0,3.9-1.7,4.5-2.3c0.1-0.1,0.3-0.4,0.3-0.6c0-1.5,0.1-2.5,0.5-2.7c0.4-0.3,1.3-0.6,2.5-0.6
	c3.2,0,4.9,2.6,4.9,4.3c0.1,0.8-0.1,4.6-0.1,5.2c0,0.4-0.4,0.7-1.8,1.2c-1.4,0.5-6.7,1.9-7.7,2.3c-0.9,0.4-1.9,0.7-2.6,1.6
	c-0.7,0.9-1.2,2.2-1.2,3.4c0,3.3,2.3,6,4.6,6c0.4,0,1.9-0.1,2.7-0.4c0.7-0.3,3.4-1.4,5.7-2.9c0.1-0.1,0.4,0.1,0.4,0.3
	c0.8,2.4,2.6,3.2,4.2,3.2c3.1,0,6-2.8,6-4.1c0-0.1,0-0.5-0.1-0.7c-0.1-0.2-0.2-0.3-0.4-0.2c-0.8,0.4-2.2,1-2.5,1
	c-0.6,0-2.5-0.4-2.5-3.1c0-0.7,0.3-8.7,0.3-11.2C1079.8,259.4,1079.4,258.1,1078.5,256.8 M1095.1,258c1.2-1.2,2.9-2.1,4.8-2.1
	c1.3,0,3.7,0.7,5.5,2.5c0.7,0.8,1.3,2,1.4,2.5c0.3,2.9,0.3,7,0.2,10.8c-0.1,1.9-0.9,3.9-1,4c-1.1,0.8-2.5,1.4-4.4,1.4
	c-5.4,0-9-5.8-9-11C1092.5,262.8,1093.8,259.4,1095.1,258 M1106.3,253.9c-0.8-0.1-1.9-0.2-4-0.2c-1.9,0-5.7,0.6-8.5,2.5
	c-3.2,1.9-6.9,5.5-6.9,11.9c0,3.2,1,6.6,3.2,8.9c1.9,2.1,4.8,3.4,8,3.4c2.1,0,5.4-0.7,8.3-3.2c0.1,0,0.4,0.1,0.4,0.4
	c0,0.9-0.1,2-0.1,2.6c0,0.3,0.5,0.8,0.7,0.8c0.3,0,1-0.1,2.5-0.7c1.2-0.4,4.7-1.1,6-1.3c0.3-0.1,1.2-1.2,1.2-1.7
	c0-0.1-0.1-0.4-0.4-0.4c-0.7,0.1-2.7,0.4-3.4,0.4c-0.4,0-0.9-0.3-1-3c-0.1-1.2-0.2-1.2-0.2-14.3c0-18.7,0.3-22.1,0.6-25.3
	c0.1-0.5-0.3-1-0.5-1c-0.3,0-0.6,0.1-0.9,0.2c-1.7,0.6-5.4,1.6-7,1.9c-0.4,0.1-1.1,0.8-1.1,1c0,0.1,0.1,0.3,0.7,0.6
	c2.9,1.5,2.9,2.3,3,2.6c0.2,1.6,0.4,11.2,0.1,13C1106.8,253.5,1106.6,253.9,1106.3,253.9 M563.2,389.3c-1.2,1.2-3.4,4.2-3.4,5.4
	c0,3.1,4.5,4.9,7.8,4.9c2.9,0,8.1-1.7,13.4-5.5c7.1-5.1,13.3-15.7,13.7-28.8c0.2-9.2,0.7-37.9,0.8-46.8c0.1-5.3,1.5-6.7,5.2-7.6
	c2.6-0.7,3.3-1.5,3.3-2.4c0-0.9-1.4-1.3-3-1.3c-3.4,0-7.3,0.3-13.3,0.3c-4.7,0-9.1-0.4-12.4-0.4c-2.5,0-3.4,0.8-3.4,1.5
	c0,0.9,1.1,1.9,3.5,2.4c4.9,1.2,6,3.5,6.1,5.5c0.2,4.6,0.5,15.5,0.5,31.1c0,15.7,0.1,29.8-0.3,36c-0.2,2.2-0.7,5.2-2.2,7.1
	c-0.8,1-1.6,1.3-2.9,1.3c-1.6,0-4.3-1.3-6.9-3.2c-1.4-0.9-2.9-1.2-3.4-1.2C565.8,387.7,563.6,388.8,563.2,389.3 M650.1,345
	c0.1,0.4-0.3,0.9-0.4,0.9c-3.5,0-11.6,0.1-15.8,0.2c-0.4,0-0.9-0.5-0.8-1.1c0.7-2.6,5.9-16.3,7.8-21.6c0.3-0.9,1-1.1,1.2-0.3
	C643.6,326.7,648.4,339.9,650.1,345 M649.8,308.1c-0.9-2.2-1.3-2.4-1.9-2.4c-0.5,0-1.3,0.4-2,1.4c-0.8,1.2-4.1,5.2-5.7,6.8
	c-0.3,0.2-0.2,0.5-0.2,0.9c0,0.4-0.4,1.7-0.6,1.9c-4.6,10.8-16.3,41.8-18.9,47.1c-3.2,6.4-4.4,8.2-9.9,9.7c-2.3,0.7-2.7,1.4-2.7,2.2
	c0,0.7,0.7,1.3,3.2,1.3c1.6,0,6.5-0.4,10.8-0.4c4,0,6.8,0.2,8.7,0.2c1.7,0,3.3-0.5,3.3-1.4c0-1-1-1.6-3.2-2.2
	c-4-1.1-5.1-2.6-5.1-4.8c0-2.2,1.2-7.1,4.7-15.8c0.2-0.3,0.9-1.1,1.2-1.1c1.5-0.1,6.8-0.4,18.3-0.3c1.3,0,2.5,1.2,2.6,1.6
	c2.5,7,4.8,13.1,5,15.9c0.2,1.7,0.1,3.5-4.3,4.6c-2.1,0.4-2.8,1.3-2.8,1.9c0,1,1.3,1.6,3.5,1.6c2.8,0,7.1-0.2,10.7-0.2
	c3.4,0,11.6,0.4,14.3,0.4c2.5,0,3.6-0.9,3.6-1.6c0-0.8-1-1.4-2.8-2c-3.7-1.1-6.1-2.2-9.7-11c-2.2-5.4-9.6-25.2-15.6-42
	C652.8,316.3,650.8,310.7,649.8,308.1 M677.7,307c-1.6,0-3.2,0.6-3.2,1.6c0,1.2,1.5,1.6,2.8,2c4.9,1.4,6.5,3.8,8.8,8.9
	c4.1,9.9,12.5,30,16.2,39.9c3.2,8,5.1,14.3,5.7,16.7c0.2,0.8,1.2,2.6,2.4,2.6c1.1,0,2.5-1.6,2.9-2.8c2.2-6.7,4.6-12.7,8.2-21.3
	c6.5-16.1,13.3-29.3,15.7-34.6c2.7-5.7,5-7.9,9.9-9.2c1.8-0.3,3-1.1,3-2.1c0-0.9-1.4-1.5-3.3-1.5c-2.3,0-6.7,0.4-9.8,0.4
	c-3.6,0-5.9-0.3-9.3-0.3c-1.7,0-2.9,0.9-2.9,1.6c0,0.7,1.2,1.4,2.4,1.8c4.4,1.6,7.3,2.1,4.9,8.5c-3.3,8.6-14.8,35.5-15.7,37.2
	c-0.1,0.3-0.8,0.3-1,0c-2.6-5.3-14.3-34.3-15.9-39.6c-0.9-3.1-1-4.6,3.9-5.9c2-0.5,2.7-1.4,2.7-2.3c0-0.8-1.2-1.3-2.6-1.3
	c-2.5,0-9.3,0.2-12.9,0.2C685.3,307.6,679.9,307,677.7,307 M783.3,307.6c-5.7,0-14.6-0.3-19.7-0.3c-1.5,0-3.4,0.7-3.4,1.6
	c0,1.1,1.2,1.5,3.5,2c4.7,0.9,5.6,3.1,5.8,7c0.2,3.2,0.1,8.2,0.1,21c0,13.5-0.6,21.8-0.9,26.4c-0.4,5.9-1.8,7-7.4,8.3
	c-1.8,0.4-3.3,1.2-3.3,2.2c0,1.1,1.6,1.4,3.7,1.4c3.9,0,5.1-0.6,12.4-0.6c8.2,0,35.1,0.6,36.3,0.6c0.5,0,2.3-0.7,2.6-1.4
	c1-1.7,4.1-11.8,4.1-12.6c0.1-0.9,0.2-3.2-0.9-3.2c-0.9,0-1.9,1-3.4,3.8c-2.4,4.2-5.3,6.9-8.6,8.1c-2.7,1-6.7,1-10,1
	c-3.7,0-7.1-0.3-8.8-0.7c-1.1-0.2-2.1-1.6-2.4-2.6c-0.4-2.3-0.3-6.3-0.4-8.9c-0.1-3.6-0.2-12.1,0.2-15.1c0-0.2,1-1.3,1.4-1.3
	c3.4,0,7.4,0,10.9,0.3c4.3,0.3,5.7,1.1,7.1,5.9c0.3,1.1,1.2,2.4,2.1,2.4c0.9,0,1.5-1.3,1.4-3.3c-0.2-2.7-0.4-4.5-0.4-7.4
	c0-2.5,0.2-4.5,0.4-7.5c0.1-1.2-0.2-3.1-1.1-3.1c-1,0-1.7,1.2-2.4,2.8c-2.1,4.8-1.9,5.2-9.6,5.2h-8.7c-0.6,0-1.1-0.8-1.1-1.1
	c-0.1-6,0.2-21.1,0.4-23.8c0.1-2.6,1-3,1.4-3c8.4-0.1,13.1,0.3,15.1,0.6c2.5,0.4,5.6,2.1,7,8.2c0.2,1.1,1.1,2.7,2.1,2.7
	c1,0,1.7-1.5,1.7-3.1c0-2.2,0-9.7-0.1-11.6c-0.1-0.8-0.9-1.5-1.3-1.4c-1.5,0.2-6,0.7-9.6,0.7H783.3z M864.2,314.4
	c3.7,3.8,4.7,8.7,4.7,11.5c0,6.1-3.2,10-6.1,12.2c-1.2,0.8-6.2,2.4-11.8,2.4c-0.6,0-1.3-0.6-1.4-1.3c-0.4-2.8,0-21.9,0.3-25.6
	c0.1-0.5,0.8-1.9,1.3-2.3c0.9-0.4,3.7-0.8,4.1-0.8C858.4,310.6,861.7,311.8,864.2,314.4 M874.8,338.6c4.8-3.8,7.6-8.1,7.6-13.9
	c0-5-2.5-10.2-5.9-13c-5.2-4.4-13.9-4.8-19-4.8c-5.9,0-14.9,0.5-19,0.5h-7.9c-1.9,0-3.2,0.8-3.2,1.5c0,0.9,1.2,1.6,2.7,2.1
	c5.1,1.2,6.1,2.8,6.3,5.4c0.3,2.9,0.5,12.2,0.5,23.9c0,9.3,0,18.4-0.7,26.8c-0.3,3.5-1.5,4.8-6.5,6.3c-1.4,0.4-2.6,1.1-2.6,1.7
	c0,1,0.8,1.7,3.5,1.7c1.2,0,6.7-0.4,10.5-0.4c5.3,0,10.1,0.7,13.9,0.7c1.3,0,3.4-0.4,3.4-1.6c0-0.8-0.8-1.5-2.6-2.1
	c-5-1.3-5.8-2.4-6.1-7.1c-0.3-5-0.5-19.5-0.3-21.7c0.1-0.6,0.8-1.1,1.2-1.1c2.1,0,4.5,0.8,5.2,1.4c0.9,0.5,2.5,2.9,3.5,4.6
	c4.6,7.8,10.1,16.8,13.2,20.9c2.3,3.1,6.5,7.1,16.4,7.1c1.4,0,5.6-0.2,7.3-0.9c0.8-0.2,1.7-1,1.7-1.6c0-0.4-0.9-1.3-2-1.5
	c-3.3-0.6-6.4-2-9.4-5.4c-5.4-6.3-14.4-21.3-16.4-25.7c-0.2-0.4-0.3-1.3,0.2-1.5C872.1,340.1,874.4,338.9,874.8,338.6 M916.5,319.1
	c0.3,4.1,0.3,15.5,0.3,21c0,9.2-0.2,20.5-0.5,24.6c-0.2,4.7-1,7-6,8.2c-2.3,0.5-3.3,1.3-3.3,2.1c0,1.1,0.8,1.9,3.4,1.9
	c4,0,7.3-0.3,10.4-0.3c4.6-0.1,12,0.6,16.3,0.6c1.3,0,3.4-0.3,3.4-1.4c0-1.1-1.1-1.9-3-2.3c-6.1-1.6-6.7-2.9-7.2-9.4
	c-0.2-3.3-0.3-7.9-0.3-21.1c0-18.7,0.1-22.5,0.4-25.3c0.2-2.8,0.5-5.7,6-6.6c1.9-0.3,3.4-1.2,3.4-2.2c0-1.1-1.5-1.5-3.4-1.5
	c-3.8,0-7.6,0.3-13,0.3c-3.6,0-9.3-0.3-12.4-0.3c-1.9,0-3.5,0.7-3.5,1.5c0,0.8,0.6,1.5,3.3,2.2C916.2,312.2,916.2,313.9,916.5,319.1
	 M992.3,345c0.1,0.4-0.3,0.9-0.4,0.9c-3.5,0-11.5,0.1-15.8,0.2c-0.4,0-0.9-0.5-0.8-1.1c0.6-2.6,5.9-16.3,7.8-21.6
	c0.3-0.9,1-1.1,1.2-0.3C985.9,326.7,990.7,339.9,992.3,345 M992.1,308.1c-0.9-2.2-1.3-2.4-1.9-2.4c-0.5,0-1.3,0.4-2,1.4
	c-0.8,1.2-4.1,5.2-5.7,6.8c-0.3,0.2-0.2,0.5-0.2,0.9c0,0.4-0.4,1.7-0.5,1.9c-4.6,10.8-16.3,41.8-19,47.1c-3.2,6.4-4.4,8.2-9.9,9.7
	c-2.3,0.7-2.7,1.4-2.7,2.2c0,0.7,0.6,1.3,3.2,1.3c1.6,0,6.5-0.4,10.8-0.4c4,0,6.8,0.2,8.7,0.2c1.7,0,3.3-0.5,3.3-1.4
	c0-1-1-1.6-3.2-2.2c-4-1.1-5.1-2.6-5.1-4.8c0-2.2,1.2-7.1,4.7-15.8c0.2-0.3,0.9-1.1,1.2-1.1c1.5-0.1,6.7-0.4,18.3-0.3
	c1.3,0,2.5,1.2,2.6,1.6c2.5,7,4.8,13.1,5,15.9c0.2,1.7,0.1,3.5-4.3,4.6c-2.1,0.4-2.8,1.3-2.8,1.9c0,1,1.3,1.6,3.5,1.6
	c2.8,0,7.1-0.2,10.7-0.2c3.4,0,11.5,0.4,14.3,0.4c2.5,0,3.6-0.9,3.6-1.6c0-0.8-1-1.4-2.8-2c-3.7-1.1-6.1-2.2-9.7-11
	c-2.2-5.4-9.6-25.2-15.6-42C995.1,316.3,993.1,310.7,992.1,308.1 M1038.4,307.1c-2,0-3.3,0.8-3.3,1.6c0,0.8,1.6,1.6,2.8,1.9
	c5.7,1.3,6.4,2.8,8.4,5.2c0.3,0.4,0.7,1.7,0.7,6.1c0,7.8-1.4,28.8-2,41c-0.3,8.2-2.9,9-7.9,10.6c-1.1,0.3-2.4,0.9-2.4,1.9
	c0,0.9,1.3,1.4,2.8,1.4c1.9,0,8-0.3,10.3-0.3c3.8,0,6.3,0.4,9.5,0.4c2.1,0,3.6-0.4,3.6-1.6c0-0.7-0.8-1.4-3-2.1
	c-5.2-1.6-6.4-3.5-6.9-7c-0.5-5.3-0.3-13.6-0.2-28.7c0.1-8.6,0.3-11.1,0.5-14.1c0-0.3,0.7-1.2,1.2-0.5c9.7,11.4,27.4,30.2,37.7,42.7
	c3,3.6,5,6.1,7.1,8.8c1,1.3,3.6,4.1,5.9,4.1c0.5,0,1.7-1.1,1.7-2.1c0-2.8-0.7-12.4-0.7-17c0-9.3,0.8-36.8,1.1-40.7
	c0.5-4.4,1.1-6.3,6.7-8.2c2-0.5,2.7-1.5,2.7-2.2c0-0.8-0.8-1.4-2.6-1.4c-2.8,0-7.3,0.6-12.5,0.6c-2.2,0-4.7-0.1-7.4-0.1
	c-2,0-3.2,0.5-3.2,1.3c0,1.3,1.4,1.9,3.6,2.5c5.4,1.4,6.5,3.9,6.7,6.1c0.3,2.8,0.7,7.9,0.7,11.7c0,9.1,0.3,21.5-0.2,24.6
	c0,0.2-0.4,1.2-1,0.7c-5.8-6.1-27.1-28.2-32.5-34.7c-4.5-5.2-7.5-8.6-9.2-10.6c-0.3-0.3-1.8-1.4-2.4-1.4
	C1049.4,307.6,1040.8,307.1,1038.4,307.1 M1160.8,345c0.1,0.4-0.3,0.9-0.4,0.9c-3.5,0-11.5,0.1-15.8,0.2c-0.4,0-0.9-0.5-0.8-1.1
	c0.6-2.6,5.9-16.3,7.8-21.6c0.3-0.9,1-1.1,1.2-0.3C1154.4,326.7,1159.2,339.9,1160.8,345 M1160.6,308.1c-0.9-2.2-1.3-2.4-1.8-2.4
	c-0.5,0-1.3,0.4-2,1.4c-0.8,1.2-4.1,5.2-5.7,6.8c-0.3,0.2-0.2,0.5-0.2,0.9c0,0.4-0.4,1.7-0.6,1.9c-4.6,10.8-16.3,41.8-18.9,47.1
	c-3.2,6.4-4.4,8.2-9.9,9.7c-2.3,0.7-2.7,1.4-2.7,2.2c0,0.7,0.6,1.3,3.1,1.3c1.6,0,6.5-0.4,10.8-0.4c4,0,6.8,0.2,8.7,0.2
	c1.7,0,3.3-0.5,3.3-1.4c0-1-1-1.6-3.2-2.2c-4-1.1-5.1-2.6-5.1-4.8c0-2.2,1.2-7.1,4.7-15.8c0.2-0.3,0.9-1.1,1.2-1.1
	c1.5-0.1,6.8-0.4,18.3-0.3c1.3,0,2.5,1.2,2.6,1.6c2.5,7,4.8,13.1,5,15.9c0.2,1.7,0.1,3.5-4.4,4.6c-2.1,0.4-2.8,1.3-2.8,1.9
	c0,1,1.3,1.6,3.5,1.6c2.8,0,7.1-0.2,10.7-0.2c3.4,0,11.5,0.4,14.3,0.4c2.5,0,3.6-0.9,3.6-1.6c0-0.8-1-1.4-2.8-2
	c-3.7-1.1-6.1-2.2-9.7-11c-2.2-5.4-9.6-25.2-15.6-42C1163.6,316.3,1161.6,310.7,1160.6,308.1 M1004.3,409.2c-1.9-0.5-4.5-0.9-7-0.9
	c-4.4,0-9.9,1.1-14.5,4.8c-2.3,1.8-5.9,6.4-5.9,12.9c0,5.9,2.5,9.7,4.5,12.1c2.2,2.5,7.8,6.1,15.8,6.1c4.9,0,8.6-1.3,9.4-1.6
	c0.8-0.4,1.8-1.2,1.9-1.7c0.5-1,1.3-3.3,1.6-4.7c0.2-0.6,0.2-2-0.4-2c-0.4,0-0.8,0.5-1.4,1.7c-1.2,2.2-2.7,3.8-4.7,4.9
	c-1.9,1.1-4.5,1.2-5.2,1.2c-4.2,0-9.1-2.1-12-8c-1.2-2.4-1.8-5.5-1.8-9.1c0-8.1,4-14.9,12.5-14.9c2.9,0,5.6,1.2,7.9,3.1
	c0.9,0.7,1.7,2.1,2.3,3.8c0.3,0.8,0.8,1.4,1,1.4c0.6,0,1-0.9,0.9-2c-0.1-1.6-0.2-3.4-0.3-4.9c0-0.8-0.4-1.5-0.8-1.5
	C1006.9,409.9,1005.6,409.6,1004.3,409.2 M1024,424.4c0.9-0.8,1.7-1.2,2.6-1.2c1.5,0,2.9,0.9,3.9,2.1c1.7,2.4,2.1,5.8,2.1,8.1
	c0,3.1-0.9,5.9-2,7.3c-0.8,0.9-1.8,1.3-2.4,1.3c-2.2,0-4.7-1.8-5.8-5.6c-0.4-1.3-0.6-3.4-0.6-5.1
	C1021.8,427.8,1022.7,425.5,1024,424.4 M1038.9,432.6c0-7-6-11.2-11.3-11.2c-4,0-7,1.7-8.6,3.1c-2,1.7-3.7,4.6-3.7,8.3
	c0,3,1.7,6.4,4,8.3c2,1.7,5,2.8,7.4,2.8c2.5,0,5.2-0.6,7.4-2.2C1036.1,440.4,1038.9,437.1,1038.9,432.6 M1044.4,407.7
	c-0.6,0.2-1,0.6-1,0.9c0,0.3,0.3,0.5,1,1.1c1.1,0.9,1.4,1.2,1.4,1.8c0,1.6,0.1,6.6,0.1,9.4c0,8.5-0.2,14.5-0.3,16.9
	c-0.2,2.8-0.5,3.6-2.3,4.1c-0.6,0.1-1.3,0.3-1.3,0.9c0,0.3,0.4,0.6,1.6,0.6c1.1,0,3.8-0.2,5-0.2c1,0,4,0.2,5.3,0.2
	c0.6,0,1.4-0.2,1.4-0.6c0-0.4-0.4-0.6-1.1-0.9c-2-0.6-2.3-1.2-2.4-2.5c-0.2-1.6-0.2-8.7-0.2-12.9c0-8,0.3-18.8,0.4-20.7
	c0-0.2-0.5-0.6-0.6-0.5C1049.3,406.6,1046.8,407,1044.4,407.7 M1067.3,424.4c0.9-0.8,1.7-1.2,2.6-1.2c1.5,0,2.9,0.9,3.9,2.1
	c1.7,2.4,2.1,5.8,2.1,8.1c0,3.1-0.9,5.9-2,7.3c-0.8,0.9-1.8,1.3-2.4,1.3c-2.2,0-4.7-1.8-5.8-5.6c-0.4-1.3-0.6-3.4-0.6-5.1
	C1065.1,427.8,1066.1,425.5,1067.3,424.4 M1082.2,432.6c0-7-6-11.2-11.3-11.2c-4,0-7,1.7-8.6,3.1c-2,1.7-3.7,4.6-3.7,8.3
	c0,3,1.7,6.4,4,8.3c2,1.7,5,2.8,7.4,2.8c2.5,0,5.2-0.6,7.4-2.2C1079.5,440.4,1082.2,437.1,1082.2,432.6 M1088.1,423.7
	c-0.4,0.1-1,0.6-1,1c0,0.3,0.6,1,1.9,2.3c0.3,0.3,0.3,0.7,0.3,1.2c0,4.7-0.2,8.9-0.3,10.3c-0.2,2.3-0.4,3-2.2,3.4
	c-1,0.3-1.3,0.6-1.3,0.9c0,0.5,0.7,0.7,1.5,0.7c1.1,0,2.7-0.2,4.5-0.2c2,0,5,0.1,5.3,0.1c0.7,0,1.4-0.4,1.4-0.7c0-0.4-0.3-0.6-1.3-1
	c-1.4-0.5-1.9-1.2-1.9-2.3c0-4.1,0-9,0.1-12.4c0-0.4,0.2-1,0.5-1.2c0.8-0.6,2-1.1,3.3-1.1c1.6,0,2.8,0.8,3.5,1.7
	c0.3,0.3,0.7,1.2,0.6,3.4l-0.1,9.2c0,1.9-0.5,2.5-1.9,2.9c-0.7,0.2-1.1,0.6-1.1,0.8c0,0.4,0.2,0.8,1.6,0.8c1.1,0,3.3-0.1,4.4-0.1
	c1.2,0,3.6,0.2,4.8,0.2c0.9,0,1.4-0.4,1.4-0.8c0-0.4-0.5-0.6-1.1-0.8c-1.9-0.5-2.1-1-2.3-2.7c-0.1-1.2-0.1-11-0.1-11.4
	c0-0.5,0.2-1.5,0.4-1.7c0.5-0.4,1.4-1.1,3.3-1.1c1.7,0,2.8,0.8,3.4,1.8c0.6,1,0.8,2,0.8,2.9c0,1.8,0.1,7.7,0.1,9.1
	c-0.1,2.1-0.3,2.6-1.7,3c-0.6,0.2-1.1,0.5-1.1,0.8c0,0.4,0.3,0.8,1.3,0.8c1.2,0,2.6-0.2,4.4-0.2c1.4,0,3.2,0.2,4.3,0.2
	c1,0,1.5-0.3,1.5-0.7c0-0.3-0.4-0.6-1.1-0.9c-1.4-0.4-1.8-1.2-1.9-2.1c-0.1-3.4-0.2-9-0.3-10.8c-0.1-2-0.6-4-2-5.4
	c-1.1-1.1-2.4-1.9-4.6-1.9c-0.9,0-1.9,0.2-3.1,0.8c-1.1,0.5-3.3,1.9-3.9,2.3c-0.1,0-0.3,0-0.4-0.2c-0.3-0.4-0.9-1.5-1.8-2.1
	c-0.9-0.6-2.3-1.1-3.9-1.1c-2.6,0-5.1,1.4-7.2,3.1c-0.2,0.2-0.4-0.2-0.4-0.3c0-0.5,0.2-1.6,0.2-2.3c0-0.1-0.2-0.5-0.5-0.7
	c-0.1-0.1-0.2-0.1-0.5,0C1092.6,421.9,1089.4,423.2,1088.1,423.7 M1144.2,426.4c1.5,1.8,2.3,4.6,2.3,6.8c0,2.6-0.8,5.6-2.1,7.2
	c-1.1,1.1-2.1,1.6-2.6,1.6c-0.8,0-2.2-0.3-3.3-1.5c-1.1-1-1.4-2.5-1.5-3.1c-0.3-1.9-0.5-5.3-0.5-9.3c0-1.1,0.1-2.2,0.1-3
	c0.1-0.2,0.3-0.5,0.4-0.6c0.5-0.2,1.2-0.4,2.1-0.4C1141.3,424.1,1143.3,425.3,1144.2,426.4 M1147.9,441.5c2.5-1.9,5-5,5-9.4
	c0-3.5-1.3-6.3-3.6-8.4c-1.7-1.5-4.1-2.4-6.9-2.4c-1.5,0-4,0.5-5.7,1.6c0,0-0.2,0-0.2-0.3c-0.1-1.2-0.1-2.8-0.1-4.1
	c0-4.2,0.3-8.6,0.5-12.4c0-0.3-0.4-0.9-0.6-0.9c-0.3,0-0.8,0.2-1.8,0.7c-1.8,0.9-4,1.3-5.8,1.8c-0.3,0.1-0.9,0.6-0.9,1
	c0,0.3,0.5,0.5,1.6,1.2c0.9,0.8,1.1,1.3,1.1,1.7c0.1,0.8,0.2,7.6,0.2,12.7c0,4.4,0,13.7-0.3,17.9c0,0.4,0.4,0.7,0.6,0.7
	c0.1,0,0.4-0.1,0.7-0.2c0.5-0.3,0.9-0.3,1.1-0.2c1.8,0.5,5.2,1.1,7.2,1.1C1142.1,443.9,1145.6,443.2,1147.9,441.5 M1166.5,413.5
	c0-1.2-1-3.3-2.8-3.3c-1,0-2,0.4-2.7,1c-0.6,0.6-0.9,1.7-0.9,2.4c0,1.1,0.5,1.8,1,2.4c0.6,0.6,1.7,0.9,2.1,0.9
	C1164.7,416.8,1166.5,415.3,1166.5,413.5 M1159.5,423.2c-0.9,0.2-1.4,0.6-1.4,1c0,0.3,0.3,0.5,0.6,0.9c1.1,1,1.8,1.5,1.8,1.9
	c0.1,0.6,0.1,3.7,0.1,4.8c0,3.8-0.1,7.6-0.3,8.4c-0.1,0.5-0.7,1.2-2,1.6c-1,0.3-1.4,0.6-1.4,1c0,0.4,0.6,0.7,1.5,0.7
	c0.9,0,3.5-0.2,5.2-0.2c1.2,0,4.1,0.2,4.5,0.2c0.7,0,1.5-0.3,1.5-0.7c0-0.4-0.4-0.8-1.2-1c-1.4-0.4-2-0.6-2.1-2.3
	c-0.1-1.9-0.1-3.8-0.1-5.4c0-3.1,0.2-10.3,0.3-12.1c0-0.2-0.3-0.6-0.5-0.6C1165,421.5,1161.7,422.8,1159.5,423.2 M1183.6,440
	c-0.5,0.3-1.6,0.6-2,0.6c-1,0-3-1.1-3-3.4c0-1.4,0.3-1.7,1-2.1c1-0.6,3.4-1.4,4.3-1.4c0.2,0,0.4,0.3,0.4,0.5c0,1.8-0.1,4-0.2,4.8
	C1184.1,439.1,1183.9,439.8,1183.6,440 M1188.7,424.3c-0.8-1.2-2.3-2.9-5.6-2.9c-0.8,0-3.4,0.7-5.4,2c-3.3,2.1-4.5,3.6-4.5,5.2
	c0,0.3,0.4,0.8,0.7,0.8c0.3,0,4.3-1.8,4.7-2.1c0.1-0.1,0.2-0.3,0.2-0.5c0-1.8,0.1-2.4,0.3-2.5c0.4-0.3,1-0.4,1.7-0.4
	c2.4,0,3.5,2.1,3.6,3.4c0.1,0.7-0.1,3.6-0.1,4.1c0,0.2-0.3,0.6-1,0.8c-1.2,0.4-6.1,1.7-7.3,2.2c-0.5,0.2-1.4,0.5-1.9,1.3
	c-0.5,0.8-1,1.8-1,2.7c0,3,2.1,5.4,4.1,5.4c0.7,0,1.8-0.2,2.4-0.4c0.7-0.3,2.9-1.3,4.2-2.3c0.1-0.1,0.4,0,0.5,0.2
	c0.8,2.1,2.5,2.6,4,2.6c3,0,5.5-2.6,5.5-3.6c0-0.2-0.1-0.5-0.2-0.7c-0.1-0.1-0.2-0.2-0.3-0.1c-0.5,0.2-1.6,0.6-1.9,0.6
	c-0.9,0-2-0.6-2-2.1c0-0.6,0.2-7,0.2-9.1C1189.9,426.5,1189.3,425.2,1188.7,424.3 M235.4,418.4c-3.6-0.8-5.4-2-5.8-4.9
	c-0.3-2.2-0.4-12.8-0.4-28.6v-20.8c0.1-4.3,0.7-5.9,5.1-7c1.4-0.3,2.2-1.1,2.2-1.5c0-0.6-0.7-0.8-2.3-0.8c-3.6,0-12.2,0.6-14.6,0.6
	c-3.3,0-10.2-0.6-12.8-0.6c-1.5,0-2.3,0.6-2.3,1c0,0.4,1.2,1.1,2.1,1.4c2.9,0.7,5,1.7,5.5,4.9c0.1,1.8,0.3,6.1,0.3,11.4
	c0,2.6,0,30.3-0.1,36.1c-0.1,5.7-1.1,7.7-5.6,8.8c-1.2,0.3-2.2,0.6-2.2,1.3c0,0.3,1,1.1,2.3,1.1c4.1,0,9.4-0.7,13.8-0.7
	c4.8,0,10.9,0.6,14.6,0.6c1.1,0,2.2-0.3,2.2-1.1C237.2,419.1,236.7,418.7,235.4,418.4 M384.8,383.7c-2.6-1.8-7-4.3-11.3-7.5
	c-5.1-3.9-6.7-6.8-6.7-10.6c0-7,5.1-10.3,10-10.3c2.9,0,6.3,1.4,8.7,3.5c1.8,1.8,3.4,4.2,4.8,7.5c0.4,1.1,1,1.8,1.4,1.8
	c0.6,0,1-0.7,0.7-2.1c-0.3-1-1.1-7.1-1-9.5c0-0.7-0.5-1.3-1.1-1.4c-2.7-0.7-7.3-1.8-13.9-1.8c-5.6,0-11.3,1.7-14.3,3.5
	c-4.8,3.1-8.4,7.8-8.4,15.6c0,8.8,4.7,14.9,16.4,22.4c7.6,4.7,12,9.2,12,14.4c0,6.8-4.7,10.9-11.6,10.9c-3.9,0-7.4-1.7-10.5-4.2
	c-2.9-2.5-5.2-5.7-6.3-9.2c-0.6-1.5-0.8-2.5-1.5-2.5c-0.4,0-1.2,0.8-0.7,2.9c0.7,4,0.8,8.4,1.2,10.3c0,0.3,0.4,1.3,1.2,1.5
	c3.9,1.5,12.2,3.3,16.1,3.3c14,0,25.9-7.7,25.9-20.2C396,392.2,389.9,387.3,384.8,383.7 M336.2,418.4c-4.5-1.1-5.5-3.1-5.6-8.8
	c-0.1-5.9-0.1-33.5-0.1-36.1c0-5.3,0.1-9.6,0.3-11.4c0.6-3.2,2.6-4.2,5.5-4.9c0.8-0.3,2.1-1,2.1-1.4c0-0.4-0.8-1-2.3-1
	c-2.6,0-9.5,0.6-12.8,0.6c-2.3,0-11-0.6-14.6-0.6c-1.7,0-2.3,0.3-2.3,0.8c0,0.4,0.8,1.3,2.2,1.5c4.4,1.1,4.9,2.7,5.1,7V384
	c0,0.8-0.2,1-0.8,1.1c-0.2,0.1-5.6,0.1-12,0.1v-38.7h12.2v-8.2h-12.2v-10.9h-8.1v10.9h-12.2v8.2h12.2v38.7c-6.3,0-11.8,0-12.1-0.1
	c-0.6-0.1-0.7-0.8-0.7-2.8v-18.1c0.1-4.3,0.7-5.9,5.1-7c1.4-0.3,2.2-1.1,2.2-1.5c0-0.6-0.7-0.8-2.3-0.8c-3.6,0-12.2,0.6-14.6,0.6
	c-3.3,0-10.2-0.6-12.8-0.6c-1.5,0-2.3,0.6-2.3,1c0,0.4,1.2,1.1,2.1,1.4c2.9,0.7,5,1.7,5.5,4.9c0.1,1.8,0.3,6.1,0.3,11.4
	c0,2.6,0,30.3-0.1,36.1c-0.1,5.7-1.1,7.7-5.6,8.8c-1.2,0.3-2.2,0.6-2.2,1.3c0,0.3,1,1.1,2.3,1.1c4.1,0,9.4-0.7,13.8-0.7
	c4.8,0,10.9,0.6,14.6,0.6c1.1,0,2.2-0.3,2.2-1.1c0-0.4-0.5-0.8-1.8-1.1c-3.6-0.8-5.4-2-5.8-4.9c-0.2-2-0.4-10.6-0.4-23.6
	c0.1-0.4,0.3-0.7,0.4-0.7c1.2-0.3,31.9-0.3,32.4-0.1c0.7,0.1,0.9,0.8,0.9,1.7c0,12.5-0.2,20.8-0.4,22.7c-0.4,2.9-2.2,4-5.8,4.9
	c-1.2,0.3-1.8,0.7-1.8,1.1c0,0.8,1.1,1.1,2.2,1.1c3.7,0,9.8-0.6,14.6-0.6c4.4,0,9.6,0.7,13.8,0.7c1.4,0,2.3-0.8,2.3-1.1
	C338.4,419,337.4,418.7,336.2,418.4 M370.4,303.9c-0.9,2,0,4.3,1.9,5.1c0.4,0.2,0.9,0.3,1.4,0.3c1.7,0,3.7-0.7,4.4-1
	c0.3-0.1,0.5-0.3,0.6-0.6c0.1-0.3,0.1-0.6,0-0.9c-0.4-1-1.7-4.2-3.4-4.9c-0.5-0.2-1-0.3-1.6-0.3
	C372.5,301.6,371.1,302.5,370.4,303.9 M379.5,314.7c-1,0.1-4.4,0.3-5.6,1.7c-1.4,1.6-1.3,4.1,0.3,5.5c0.7,0.7,1.7,1,2.6,1
	c1.1,0,2.1-0.4,2.9-1.3c1.2-1.4,1.1-4.8,1.1-5.9c0-0.3-0.2-0.6-0.4-0.8C380.1,314.8,379.9,314.7,379.5,314.7L379.5,314.7z
	 M381.5,309c-0.7,1.6,0,3.5,1.6,4.2c0.4,0.2,0.8,0.3,1.3,0.3c0,0,0.1,0,0.1,0c0,0,0,0,0,0c0.1,0,0.3,0,0.4,0c0,0,0.1,0,0.1,0
	c0.1,0,0.3-0.1,0.4-0.1c0,0,0.1,0,0.2-0.1c0.1-0.1,0.3-0.1,0.4-0.2c0,0,0,0,0.1,0c0.2-0.1,0.3-0.2,0.4-0.3c0,0,0.1-0.1,0.1-0.1
	c0.1-0.1,0.2-0.2,0.3-0.3c0,0,0.1-0.1,0.1-0.1c0,0,0-0.1,0.1-0.1c0,0,0,0,0,0c0.1-0.1,0.1-0.3,0.2-0.4c0.7-1.6,0-3.5-1.6-4.2
	c-0.2-0.1-0.4-0.2-0.6-0.2c-0.1,0-0.1,0-0.2,0c-0.1,0-0.3,0-0.4,0c-0.2,0-0.4,0-0.5,0c0,0-0.1,0-0.1,0c-0.1,0-0.3,0.1-0.4,0.1
	c-0.1,0-0.1,0-0.2,0.1c0,0,0,0,0,0h0c-0.2,0.1-0.4,0.2-0.6,0.4v0c-0.1,0.1-0.2,0.1-0.3,0.2c0,0-0.1,0.1-0.1,0.1
	c-0.1,0.1-0.2,0.2-0.3,0.3c0,0-0.1,0.1-0.1,0.1C381.7,308.6,381.6,308.8,381.5,309 M381.9,298.2c-0.2,1.8,1.9,4.6,2.5,5.4
	c0.2,0.2,0.5,0.4,0.7,0.4c0,0,0.1,0,0.1,0c0.2,0,0.5-0.1,0.7-0.2c0.8-0.6,3.4-2.9,3.6-4.7c0.2-2.1-1.3-4.1-3.4-4.3
	c-0.1,0-0.3,0-0.4,0C383.7,294.7,382.1,296.2,381.9,298.2 M390.7,308.1c-0.2,0.3-0.2,0.6-0.2,0.8c0.1,0.3,0.2,0.5,0.5,0.7
	c0.8,0.5,3.2,2,5,2c0.2,0,0.4,0,0.5-0.1c2.1-0.4,3.4-2.5,3-4.6c-0.4-1.8-2-3.1-3.8-3.1c-0.3,0-0.5,0-0.8,0.1
	C393.2,304.4,391.2,307.3,390.7,308.1 M392.2,323.8c1.8-1.1,2.5-3.5,1.4-5.3c-0.9-1.6-4.2-2.6-5.2-2.9c-0.1,0-0.2,0-0.3,0
	c-0.2,0-0.4,0.1-0.5,0.2c-0.2,0.1-0.4,0.4-0.5,0.7c-0.3,1-1.1,4.4-0.1,6c0.7,1.2,2,1.9,3.3,1.9C390.9,324.3,391.6,324.1,392.2,323.8
	 M370.9,312.5c-1.8-0.8-3.2-2.3-4-4.2c-0.7-1.9-0.7-4,0.2-5.8c1.2-2.8,3.9-4.5,6.9-4.5c1.1,0,2.1,0.2,3.1,0.7
	c0.4,0.2,0.8,0.5,1.2,0.8c-0.1-0.5-0.1-1,0-1.5c0.4-3.9,3.6-6.8,7.5-6.8c0.3,0,0.5,0,0.8,0c4.1,0.4,7.1,4.2,6.7,8.4
	c-0.1,0.5-0.2,0.9-0.3,1.4c0.4-0.2,0.9-0.4,1.4-0.5c0.5-0.1,1-0.2,1.6-0.2c3.5,0,6.6,2.5,7.4,6c0.4,2,0,4-1.1,5.7
	c-1.1,1.7-2.8,2.9-4.8,3.3c-0.4,0.1-0.9,0.1-1.3,0.1c0,0-0.1,0-0.1,0c0.3,0.4,0.6,0.8,0.9,1.2c1,1.8,1.3,3.8,0.8,5.8
	c-0.5,2-1.8,3.6-3.5,4.6c-1.1,0.7-2.4,1-3.8,1c-2.7,0-5.2-1.5-6.5-3.8c-0.2-0.4-0.4-0.9-0.6-1.4c-0.2,0.4-0.5,0.8-0.8,1.2
	c-1.4,1.6-3.5,2.5-5.6,2.5c-1.9,0-3.7-0.7-5-2c-3.1-2.8-3.3-7.6-0.6-10.8c0.3-0.4,0.7-0.7,1.1-0.9
	C371.7,312.8,371.3,312.7,370.9,312.5 M325.4,286.6c1.1,0.5,3.4,0.2,4-1.1c0.6-1.4-0.6-3.3-1.7-3.8c-1.1-0.5-3.4-0.2-4,1.1
	C323,284.1,324.2,286.1,325.4,286.6 M200.8,307c-0.4,2.1,0.9,4.2,3,4.6c0.2,0,0.4,0.1,0.5,0.1c1.8,0,4.3-1.5,5-2
	c0.3-0.2,0.4-0.4,0.5-0.7c0.1-0.3,0-0.6-0.2-0.8c-0.6-0.9-2.5-3.7-4.3-4.1c-0.3-0.1-0.5-0.1-0.8-0.1
	C202.8,304,201.2,305.2,200.8,307 M214.2,294.8c-2.1,0.2-3.6,2.1-3.4,4.3c0.2,1.8,2.8,4.1,3.6,4.8c0.2,0.2,0.5,0.2,0.7,0.2
	c0,0,0.1,0,0.1,0c0.3,0,0.5-0.2,0.7-0.4c0.6-0.8,2.7-3.6,2.5-5.4c-0.2-2-1.9-3.5-3.8-3.5C214.5,294.7,214.4,294.8,214.2,294.8
	 M218.8,309c-0.1-0.2-0.2-0.3-0.3-0.5c0,0-0.1-0.1-0.1-0.1c-0.1-0.1-0.2-0.2-0.3-0.3c0,0-0.1-0.1-0.1-0.1c-0.1-0.1-0.2-0.1-0.3-0.2
	v0c-0.2-0.1-0.4-0.3-0.6-0.4h0c0,0,0,0,0,0c0,0-0.1,0-0.2-0.1c-0.1,0-0.3-0.1-0.4-0.1c0,0-0.1,0-0.1,0c-0.2,0-0.4,0-0.5,0
	c-0.1,0-0.3,0-0.4,0c-0.1,0-0.1,0-0.2,0c-0.2,0-0.4,0.1-0.6,0.2c-1.6,0.7-2.3,2.6-1.6,4.2c0.1,0.1,0.1,0.3,0.2,0.4c0,0,0,0,0,0
	c0,0,0,0.1,0.1,0.1c0,0,0.1,0.1,0.1,0.1c0.1,0.1,0.2,0.2,0.3,0.3c0,0,0.1,0.1,0.1,0.1c0.1,0.1,0.3,0.2,0.4,0.3c0,0,0,0,0.1,0
	c0.1,0.1,0.3,0.2,0.4,0.2c0.1,0,0.1,0,0.2,0.1c0.1,0,0.3,0.1,0.4,0.1c0,0,0.1,0,0.1,0c0.1,0,0.3,0,0.4,0c0,0,0,0,0,0
	c0,0,0.1,0,0.1,0c0.4,0,0.9-0.1,1.3-0.3C218.8,312.5,219.5,310.6,218.8,309 M219.6,315.7c-0.1,1-0.1,4.5,1.1,5.9
	c0.8,0.9,1.8,1.3,2.9,1.3c0.9,0,1.8-0.3,2.6-1c1.6-1.4,1.7-3.9,0.3-5.5c-1.2-1.4-4.6-1.7-5.6-1.7h-0.1c-0.3,0-0.5,0.1-0.7,0.3
	C219.8,315.1,219.6,315.4,219.6,315.7 M221.5,306.9c-0.1,0.3-0.1,0.6,0,0.8c0.1,0.3,0.3,0.5,0.6,0.6c0.7,0.3,2.8,1,4.4,1
	c0.5,0,1-0.1,1.4-0.3c1.9-0.9,2.8-3.2,1.9-5.1c-0.6-1.5-2-2.3-3.5-2.3c-0.5,0-1,0.1-1.6,0.3C223.2,302.7,221.8,305.9,221.5,306.9
	 M213.4,322.4c0.9-1.6,0.1-5-0.1-6c-0.1-0.3-0.3-0.5-0.5-0.7c-0.2-0.1-0.4-0.2-0.6-0.2c-0.1,0-0.2,0-0.3,0c-1,0.3-4.3,1.3-5.2,2.9
	c-1.1,1.9-0.4,4.2,1.4,5.3c0.6,0.4,1.3,0.5,1.9,0.5C211.4,324.3,212.7,323.6,213.4,322.4 M203,315.3c-2-0.4-3.7-1.6-4.8-3.3
	c-1.1-1.7-1.5-3.8-1-5.7c0.7-3.5,3.8-6.1,7.4-6.1c0.5,0,1.1,0.1,1.6,0.2c0.5,0.1,0.9,0.3,1.4,0.5c-0.2-0.5-0.3-0.9-0.3-1.4
	c-0.4-4.2,2.6-7.9,6.7-8.4c0.3,0,0.5,0,0.8,0c3.9,0,7.1,2.9,7.5,6.8c0,0.5,0,1,0,1.5c0.4-0.3,0.8-0.6,1.2-0.8c1-0.4,2-0.7,3.1-0.7
	c3,0,5.7,1.8,6.9,4.5c0.8,1.9,0.9,3.9,0.1,5.8c-0.7,1.9-2.1,3.4-4,4.2c-0.4,0.2-0.9,0.3-1.4,0.4c0.4,0.3,0.8,0.6,1.1,0.9
	c2.8,3.1,2.5,8-0.6,10.8c-1.4,1.3-3.2,2-5,2c-2.1,0-4.2-0.9-5.6-2.5c-0.3-0.4-0.6-0.8-0.8-1.2c-0.1,0.5-0.3,0.9-0.6,1.3
	c-1.3,2.4-3.8,3.8-6.5,3.8c-1.3,0-2.6-0.4-3.8-1c-1.7-1-3-2.7-3.5-4.6c-0.5-2-0.3-4,0.8-5.8c0.2-0.4,0.5-0.8,0.9-1.2
	c0,0-0.1,0-0.1,0C203.8,315.5,203.4,315.4,203,315.3 M274.9,286.6c1.1-0.5,2.4-2.5,1.7-3.8c-0.6-1.4-2.9-1.7-4-1.1
	c-1.1,0.5-2.4,2.5-1.7,3.8C271.6,286.9,273.8,287.1,274.9,286.6 M304.4,147.5c0-2-1.9-5.1-4.3-5.1c-2.4,0-4.3,3.1-4.3,5.1
	c0,2,1.9,5.1,4.3,5.1C302.5,152.6,304.4,149.5,304.4,147.5 M331.3,154.9c1.7,0.2,3.3-1.9,3.5-3.3c0.2-1.4-1-3.8-2.7-4
	c-1.7-0.2-3.3,1.9-3.5,3.3C328.4,152.4,329.6,154.7,331.3,154.9 M268.2,147.7c-1.7,0.2-2.8,2.6-2.7,4c0.1,1.4,1.8,3.5,3.5,3.3
	c1.7-0.2,2.8-2.5,2.7-4C271.5,149.5,269.9,147.5,268.2,147.7 M303.7,183.7c0-1.7-1.6-4.3-3.6-4.3c-2,0-3.6,2.6-3.6,4.3
	c0,1.7,1.6,4.3,3.6,4.3C302.1,188,303.7,185.4,303.7,183.7 M325.9,190.1c1.4,0.3,2.9-1.3,3.1-2.5c0.2-1.2-0.5-3.2-1.9-3.5
	c-1.4-0.3-2.9,1.3-3.1,2.5C323.8,187.8,324.5,189.8,325.9,190.1 M273.2,184.1c-1.4,0.3-2.2,2.3-1.9,3.5c0.2,1.2,1.7,2.8,3.1,2.5
	c1.4-0.3,2.2-2.3,1.9-3.5C276.1,185.5,274.6,183.9,273.2,184.1 M303,213.9c0-1.3-1.3-3.4-2.8-3.4c-1.6,0-2.8,2-2.8,3.4
	s1.3,3.4,2.8,3.4C301.7,217.3,303,215.2,303,213.9 M320.5,219c1.1,0.2,2.3-1,2.4-2c0.2-0.9-0.4-2.5-1.5-2.8c-1.1-0.2-2.3,1-2.4,2
	C318.8,217.1,319.4,218.8,320.5,219 M278.9,214.3c-1.1,0.2-1.7,1.8-1.5,2.8c0.2,0.9,1.3,2.2,2.5,2c1.1-0.2,1.7-1.8,1.5-2.8
	C281.2,215.3,280,214,278.9,214.3 M470.1,434.6c11.6,0,23.9-4.1,36.6-12.2c-3,0.2-6.8,0.3-11.4,0.3c-9.4,0-19-0.5-28.5-1.6
	c-2.7-0.3-5.3-0.5-7.6-0.5c-3.3,0-6,0.3-8.2,0.7c3,3.2,4.8,6.6,5.8,9.9c3.4,0.3,7.6,1.1,11.9,3.3
	C469.1,434.6,469.6,434.6,470.1,434.6 M483.1,454.8c-4.5-8.3-12.4-18.1-25.5-19.6c0.7,4.6,0.1,8.7-0.4,11c2,1.2,4.4,2.2,7.5,2.9
	C473.7,451.1,479.5,453.2,483.1,454.8 M453.4,446.6c0.9-2.8,5.7-21.3-16.9-30.4c-0.9-0.3-1.8-0.5-2.7-0.5c-2,0-3.6,0.8-4.2,1.2
	c-9.2,7.7-21.7,13.8-30.2,17.6c5.3,1.1,11.7,4.4,16,12.7c4.9,9.4,4.2,16.2,2.8,20.3c-0.2,0.5-0.4,1.1-0.6,1.5
	c4.2-1.8,10.8-5,19.8-10.4C448,452,452.4,447.6,453.4,446.6 M411.4,471.2c1.1-1,6.4-6.4,2.9-17c-4.2,2.1-7,3.3-11.2,5.1
	c-0.5,0.7-2,3.2-0.6,7.3c0.5,1.3,1.5,3.7,3.6,4.7C407.6,472,409.3,471.9,411.4,471.2 M382.3,453.3c9-2.9,17.5-6.4,25.3-10.3
	c-1.6-1.5-3.2-2.6-4.9-3.4c-17.5,8.4-38.4,14.4-61.1,17.6c-0.5,1.6-0.8,3.4-1,5.4c0.6-0.1,1.2-0.2,1.8-0.3c4.5-3,12.4-6.7,24.4-7.4
	C373.1,454.7,378.2,454.1,382.3,453.3 M361.6,470.8c13.5,0,24.6-5.7,33.1-16.9c-0.1,0-0.1,0-0.2,0.1c-6.7,2.6-15.9,4.3-27.3,4.9
	c-9.8,0.6-16.6,3.3-20.5,5.5c-1.8,1-3.3,2-4.3,2.8C346,468.5,353.2,470.8,361.6,470.8L361.6,470.8 M388.2,474.5
	c-2.5-1.6-5.2-3-7.9-4.1c-6.6,3.1-13.2,4-18.7,4c-5.6,0-10.7-0.9-14.6-2c5.7,4.7,16.5,10,36.7,10c6.2,0,13-0.5,20.3-1.5
	C399,479.9,393.5,478,388.2,474.5 M382.9,502.2c-1.6-6.6-4.6-11.9-8.2-16.3c-13.6-1.1-22.3-4.8-27.8-8.6
	c3.9,4.8,10.4,10.4,21.3,15.3C375.3,495.8,380,499.3,382.9,502.2 M326,489.7c11.4,0,18.8-1.4,24.5-3c-7-3.3-12.9-11.1-13.5-19.3
	c-0.8-11.3,3.2-17.6,7.9-21.5l-0.2,0c-10.4,2.1-23.3,4.7-44.6,4.7h-0.2c-21.3,0-34.2-2.6-44.6-4.7l-0.2,0c4.7,3.8,8.8,10.1,7.9,21.5
	c-0.6,8.1-6.4,15.9-13.5,19.3c5.8,1.5,13.1,3,24.5,3c4.2,0,9.5-7.6,11-10.2c0.3-0.6,0.9-0.9,1.6-0.9c0.1,0,0.3,0,0.4,0
	c0.8,0.2,1.4,0.8,1.5,1.6c1.2,10.7-0.2,19.1-4,24.9c0,0,0,0,0,0c-0.5,0.8-1.1,1.5-1.7,2.2c-1.4,1.6-2.9,2.8-4.5,3.7
	c2.2-0.4,4.4-1.1,6.4-2.1c10-5,12.9-14.2,13.4-16c0.2-0.8,0.9-1.4,1.8-1.4c0.8,0,1.6,0.6,1.8,1.4c0.5,1.8,3.3,11,13.3,16
	c2.1,1,4.2,1.7,6.4,2.1c-1.6-0.9-3.1-2.1-4.5-3.7c-5.1-5.8-7-14.9-5.7-27.1c0.1-0.8,0.7-1.5,1.5-1.6c0.8-0.2,1.6,0.2,2,0.9
	C316.5,482.1,321.8,489.7,326,489.7 M326.5,504.9c-1.6,0.4-3.1,0.9-5.4,1c4,3.6,8.9,4.2,11.6,4.2c0.5,0,0.8,0,1.1,0
	c1.2-1.5,0.4-2.9-0.5-3.9c-1.2-1.3-3.7-1.8-4.8-1.9C327.9,504.5,327.2,504.7,326.5,504.9 M267.5,510.2c2.7,0,7.7-0.6,11.6-4.2
	c-2.3-0.2-3.8-0.6-5.4-1c-0.7-0.2-1.4-0.4-2.2-0.6c-1.1,0.1-3.6,0.6-4.8,1.9c-0.9,1-1.6,2.4-0.5,3.9
	C266.6,510.1,267,510.2,267.5,510.2 M232,492.6c10.9-4.9,17.4-10.5,21.3-15.3c-5.5,3.9-14.3,7.5-27.9,8.6c-4,4.7-6.7,10.2-8.1,16.3
	C220.2,499.3,224.8,495.8,232,492.6 M216.4,482.5c20.7,0,31.5-5.4,37.1-10.2c-3.9,1-8.8,1.9-14.4,1.9c-5.5,0-12.1-0.9-18.8-4
	c-2.9,1.1-5.7,2.5-8.4,4.3c-5.3,3.4-10.9,5.4-15.8,6.5C203.4,482,210.2,482.5,216.4,482.5L216.4,482.5 M206,454.1
	c8.5,10.9,19.6,16.5,33.1,16.5c8.1,0,15-2.1,18.5-3.4c-1-0.8-2.4-1.8-4.2-2.8c-3.9-2.2-10.7-4.9-20.5-5.5
	C219.5,458.1,211.2,456,206,454.1 M192.7,443.1c7.9,3.9,16.4,7.4,25.5,10.3c4,0.7,9,1.4,15,1.7c12,0.7,19.8,4.3,24.4,7.3
	c0.7,0.1,1.3,0.2,2,0.3c-0.1-2-0.5-3.8-1-5.4c-22.7-3.3-43.5-9.3-61.1-17.6C195.9,440.5,194.3,441.6,192.7,443.1 M185,447.2
	c4.4-8.3,10.8-11.5,16-12.7c-8.5-3.8-21.1-10-30.2-17.6c-0.6-0.5-2.2-1.2-4.2-1.2c-1,0-1.9,0.2-2.7,0.5
	c-22.6,9.1-17.8,27.6-16.9,30.4c0.9,1,5.3,5.4,16.1,12c9,5.5,15.7,8.7,19.9,10.5C180.8,464.6,179.7,457.3,185,447.2 M197.2,459.3
	c-4.2-1.7-7-2.9-11.2-5.1c-0.2,0.5-0.3,1-0.4,1.5c-1.9,7.1,0.3,11.7,1.9,14c0.6,0.8,1.1,1.3,1.4,1.5c2.1,0.7,3.8,0.8,5.3,0.1
	c2.1-1,3.2-3.4,3.6-4.7C199.2,462.5,197.8,460,197.2,459.3 M143.5,431.3c1-3.3,2.8-6.7,5.8-9.9c-2.2-0.5-4.9-0.7-8.1-0.7
	c-2.4,0-4.9,0.1-7.6,0.5c-9.5,1-19,1.6-28.5,1.6h0c-4.6,0-8.4-0.1-11.4-0.3c12.7,8.1,25,12.2,36.6,12.2c0.5,0,1,0,1.4,0
	C136,432.5,140.1,431.6,143.5,431.3 M135.6,449c3-0.7,5.5-1.7,7.5-2.9c-0.5-2.3-1.1-6.4-0.4-11c-13.1,1.5-21,11.3-25.4,19.6
	C120.8,453.2,126.6,451.1,135.6,449 M115.5,402c6,7.3,12.4,12.4,18.9,15.3c2.4-0.2,4.6-0.3,6.8-0.3c4.9,0,8.6,0.6,11.4,1.4
	c1.8-1.4,3.9-2.8,6.4-4c-2.2-3.1-6.9-7.3-16.8-8.1C129.3,405.1,120.7,403.3,115.5,402 M111.2,396.7c0.1,0,9.8,4,31.3,5.8
	c1.1,0.1,2.2,0.2,3.2,0.4c-2-5.4-3.1-11-3.1-16.6c0-8.5,2.3-16.8,6.9-24.7c-4.1,1.7-7.8,2.6-10.5,3v3.8c0,0.4-0.1,0.7-0.3,1
	c-1.3,6.8-6.5,13.3-16.3,13.3c-10.9,0-14.7-7.6-15.1-11.7l0,0c0-0.1,0-0.3,0-0.8V370v-13.4c-3.4,2.2-6.2,5.3-7.8,9.4
	c-0.5,1.3-0.9,2.9-1.1,4.5c-1,7.6,1.2,18.3,10.7,26.8c0,0,0,0,0-0.1C109.5,396.6,110.4,396.4,111.2,396.7 M97.7,262.5
	c-4.8,20.6-1.4,33.5,2.9,41c2.5-2.2,5.9-4.3,9.8-5.5c-0.4-2.6-1.2-5.6-2.8-8.9C102.2,277.1,99.3,268.2,97.7,262.5 M118.1,240.7
	c-5.3,9.9-11.1,24-10.8,38.1c1.1,2.7,2.3,5.6,3.8,8.8c1.6,3.6,2.6,6.8,3,9.7c0.9-0.1,1.8-0.2,2.7-0.2c1.9,0,3.6,0.2,5.3,0.5
	c1.2-4.1,1.6-10.3-0.6-19.4C117.5,261.5,117.4,248.7,118.1,240.7 M110.9,363.7c1.1-0.8,2.4-1.5,4.2-2.1c2.1-0.7,4-0.8,5.3-0.7v-8.2
	c-3.1,0-6.4,0.7-9.5,2v1.6V363.7 M116.2,365.2c-4.6,1.5-5.2,4-5.3,4.9v0.4c0.1,0.9,1.6,8.3,11.4,8.3c8.8,0,12.8-6.3,12.9-12.5
	c0.2-8.2-6.7-11.7-9.6-12.8c-0.5-0.2-1-0.3-1.6-0.4v10.1c0,0.6-0.3,1.2-0.8,1.5c-0.5,0.4-1.1,0.4-1.7,0.2
	C121.5,364.9,119.4,364.2,116.2,365.2 M135.3,308c-1.9-1.7-8.8-7.2-18.6-7.2c-10,0-17,8.5-18.6,10.6v49.1c2.2-3.2,5.3-6.1,9-8.2
	v-0.1l0.8-0.4c4.7-2.5,10.1-3.7,15.4-2.7c1.3,0.2,2.5,0.4,3.5,0.8c3.5,1.3,6.3,3.3,8.4,5.7V308 M126.6,286.9
	c0.3,4.8-0.1,8.6-0.9,11.5c2.3,0.7,4.2,1.6,6,2.5c3.5-6,6-15.3,1.3-28.5C131.9,275.7,130,280.4,126.6,286.9 M139,360.7
	c5.6-1.1,15.5-4.1,22.8-12.2c5.4-6.1,8.4-14,8.9-23.5c-3.6,5.2-10.4,12.5-21.7,17.3c-4.9,2-8,4.5-10,6.9V360.7z M139,343.9
	c2.2-1.8,4.9-3.6,8.6-5.1c2-0.9,3.9-1.8,5.6-2.8c1.7-2.5,3-5.5,3.7-9c2.4-11.8,6.5-19.6,9.8-24.3c-12.7,5.8-21.3,15-25.5,27.2
	c-1.2,3.4-1.8,6.6-2.2,9.5V343.9z M139,325.3c2.6-6.2,7.1-13.1,14.7-19.1c0.8-7.9,0-16.5-2.6-25.9c-0.7,8.2-3.5,19.8-11.8,33.1
	c-0.1,0.2-0.2,0.3-0.3,0.5V325.3z M186,332.8c-6.3,3.6-11.9,7.4-16.8,11.5c-1.3,2.4-2.9,4.7-4.8,6.8c-2.6,2.9-5.5,5.2-8.4,7
	c-6.4,8.8-9.8,18.3-9.8,28.1c0,6,1.3,11.9,3.8,17.7c3.4,1,6,2.5,8,4.1c-4.3-7-6.6-14.3-6.6-21.7c0-17.5,12.3-34.1,34.9-47.5
	c-0.6-0.4-1-1.1-0.9-1.8C185.5,336.1,185.7,334.5,186,332.8 M183.8,324.8c1.6,0.5,3.7,1,5.2,1c0.6,0,0.9-0.1,1-0.1
	c0.8-0.4,1.5-1,1.8-1.9c0.3-0.9,0.3-1.8-0.1-2.6c-0.5-1.2-1.7-2-3.1-2c-0.5,0-0.9,0.1-1.4,0.3C186.4,319.9,184.9,322.3,183.8,324.8
	 M179.7,313.5c2,1.3,4.4,2.5,5.7,2.5c0.1,0,0.1,0,0.2,0c0.9-0.1,1.7-0.6,2.2-1.4c0.5-0.7,0.7-1.6,0.6-2.5c-0.3-1.8-2-3.1-3.8-2.8
	C183.5,309.4,181.4,311.4,179.7,313.5 M186.5,293.6c-3.1,4-2.3,8.1-0.2,12c0.1,0,0.2,0,0.3,0.1c-0.1-4,0.8-7.7,3.9-10.8
	c1.8-1.8,4-3,6.5-3.5c-1.2-0.4-2.6-0.7-4-0.7C191,290.7,188.3,291.2,186.5,293.6 M202.1,295c-0.5-0.1-1.3-0.2-2.2-0.2
	c-2.8,0-5.1,0.9-6.9,2.8c-2.7,2.6-3.2,6.2-2.6,10.5c0.8,1,1.3,2.1,1.5,3.5c0.2,1.5,0,3.1-0.7,4.4c1.7,0.7,3.1,2,3.8,3.7
	c0.8,1.7,0.8,3.6,0.2,5.4c1.4,0.4,2.7,1.2,3.7,2.4c0.8,1,1.3,2.2,1.5,3.4c2.8,3.4,5.7,5.3,9.5,5.1c4.7-0.3,7-3.7,8-5.1
	c0.2-0.3,0.4-0.5,0.6-0.7c0.4-0.4,0.9-0.7,1.5-0.7c0.3,0,0.7,0.1,1.3,0.2c1,0.2,2.5,0.5,4.3,0.5c4.3,0,7.9-1.5,11-4.5
	c5.3-5.3,7.1-14.5,4-20.4c0,0,0,0,0,0l0,0c0-0.1-0.1-0.2-0.1-0.2c-0.1-0.1-0.1-0.3-0.2-0.4l-3.8-8.8c-0.1-0.1-0.1-0.2-0.2-0.4
	c0-0.1-0.1-0.1-0.1-0.2l0-0.1c-0.1-0.2-0.2-0.4-0.3-0.7c-2.5-6-10-10.4-17.4-10c-8.2,0.5-11.7,6.3-13.2,8.8c-0.6,1-1.1,1.8-2.2,1.8
	h0c0,0-0.1,0-0.1,0c0,0,0,0-0.1,0C202.7,295,202.5,295,202.1,295 M206.6,282c-1.3,1.9-2.1,3.9-2.2,6.1c2.5-3.1,6.8-6.9,14-7.4
	c5.6-0.4,11.3,1.7,15.5,5.1c-2.8-6.8-7.6-10.4-13.8-10.4c-0.4,0-0.8,0-1.2,0C213.8,275.8,209.2,278.3,206.6,282 M239.5,290.8
	c-0.3,0.9-0.3,1.9,0.1,2.8l4.4,10.1c0.6,1.3,1.9,2.2,3.3,2.2c0.5,0,1-0.1,1.5-0.3c0.7-0.3,1.2-0.8,1.6-1.5c0-0.1-0.1-0.1-0.1-0.2
	l-6.6-15.1c0-0.1,0-0.1-0.1-0.2c-0.2,0-0.5-0.1-0.7-0.1c-0.5,0-1,0.1-1.5,0.3C240.5,289.1,239.9,289.9,239.5,290.8 M246.9,284.4
	c-0.3,0.9-0.3,1.9,0.1,2.8l6.6,15.1c0.6,1.3,1.9,2.2,3.3,2.2c0.5,0,1-0.1,1.5-0.3c0.9-0.4,1.5-1.1,1.9-2c0.3-0.9,0.3-1.9-0.1-2.8
	l-6.6-15.1c-0.6-1.3-1.9-2.2-3.3-2.2c-0.5,0-1,0.1-1.5,0.3C247.9,282.8,247.3,283.5,246.9,284.4 M258.4,281.1
	c-0.7,0.3-1.2,0.8-1.6,1.5c0,0.1,0.1,0.1,0.1,0.2l6.6,15.1c0,0.1,0,0.1,0.1,0.2c0.2,0,0.5,0.1,0.7,0.1c0.5,0,1-0.1,1.5-0.3
	c1.8-0.8,2.6-3,1.8-4.8l-4.4-10.1c-0.6-1.3-1.9-2.2-3.3-2.2C259.4,280.7,258.9,280.9,258.4,281.1 M260.4,271.9
	c3.3-0.3,6.5-1.1,9.5-2.2l-23.4-10.6c-0.6-0.1-1.1-0.1-1.6-0.2C248.2,264,253.5,269.3,260.4,271.9 M227.8,266.5
	c3.1,2,10.5,5.3,24.9,5.6c-6.9-4.6-11.6-11.3-13.8-16.6c-1.8-4.3-4.7-11.9-8.5-27.3c-0.2-0.7-0.3-1.4-0.5-2.1l-6.8,1.4l1.4,6.7
	l-5.8,1.2l-1.4-6.7l-6.6,1.4C213,243.3,216.5,259.3,227.8,266.5 M216.2,222.9l-1.4-6.7l5.8-1.2l1.4,6.7l6.8-1.4
	c0-0.2-0.1-0.3-0.1-0.5c-0.4-2.2-0.9-4.8-1.3-7.5c-2.3-14.3-5.5-33.9-18.2-39.9c-4.6-2.2-8.2-3.3-15.3-3.3c-0.8,0-1.6,0-2.4,0
	c-0.1,0-0.2,0-0.2,0c3.5,2.9,8.4,7.8,12.1,19.3c1.9,5.9,4.2,20.6,6,32.4c0.2,1.2,0.4,2.3,0.5,3.4L216.2,222.9z M208.5,237.9
	c-0.8-4-1.4-7.9-2-11.5c-0.2-1.1-0.4-2.4-0.6-3.7l-47.1-21.2l-2.3,5.3l-2.8,6.3L208.5,237.9z M207.2,241.4l-52.9-23.9l-4.1,9.2
	l2.3,1.1c0.9,0.4,1.3,1.5,0.9,2.5l-3.6,8.1c-0.4,0.9-1.5,1.4-2.4,1l-2.3-1.1l-3.7,8.4l20.8,9.3l3.7-8.4l-2.3-1.1
	c-0.4-0.2-0.8-0.6-1-1c-0.2-0.5-0.2-1,0-1.4l3.5-8.1c0.4-0.9,1.5-1.4,2.4-0.9l2.3,1l1.1-2.4c0.4-0.9,1.5-1.4,2.4-0.9l8,3.6
	c0.4,0.2,0.8,0.6,1,1c0.2,0.5,0.2,1,0,1.4l-1,2.4l2.3,1.1c0.4,0.2,0.8,0.6,1,1c0.2,0.5,0.2,1,0,1.4l-3.6,8.1
	c-0.4,0.9-1.5,1.4-2.4,0.9l-2.3-1.1l-3.7,8.4l20.8,9.3l3.7-8.4l-2.3-1.1c-0.9-0.4-1.3-1.5-0.9-2.5l3.5-8.1c0.2-0.5,0.6-0.8,1-1
	c0.5-0.2,1-0.2,1.4,0l2.3,1L207.2,241.4z M156.2,198.3c0.4-0.9,0.4-1.9,0.1-2.8c-0.3-0.9-1-1.6-1.9-2c-0.5-0.2-1-0.3-1.4-0.3
	c-1.4,0-2.7,0.8-3.3,2.2l-6.6,15.1c-0.4,0.9-0.4,1.9-0.1,2.8c0.3,0.9,1,1.6,1.9,2c0.5,0.2,0.9,0.3,1.4,0.3c1.4,0,2.7-0.8,3.3-2.2
	L156.2,198.3z M146.3,193.8c0-0.1,0.1-0.1,0.1-0.2c-0.4-0.6-0.9-1.1-1.6-1.5c-0.5-0.2-1-0.3-1.5-0.3c-1.4,0-2.7,0.8-3.3,2.2l-4.4,10
	c-0.8,1.8,0,4,1.8,4.8c0.5,0.2,1,0.3,1.5,0.3c0.2,0,0.5,0,0.7-0.1c0-0.1,0-0.1,0.1-0.2L146.3,193.8z M136.5,193c-0.1,0-0.2,0-0.3,0
	c-2.1,0-3.9,1.2-4.8,3.1c-0.9,2.1-0.4,4.4,1.1,5.9L136.5,193z M197.4,187.6c0.4,0,0.8-0.1,1.3-0.1c-3-6.7-5.7-11.1-7.9-13.9
	c-1.6-1.5-3-2.5-4.1-3.4c-0.2-0.2-0.5-0.4-0.7-0.6c-1.3,0.1-4.1,0.5-6.9,2.5c-0.7,0.5-1.4,1-2,1.5c-1.9,1.4-3.4,2.6-5.3,3.3
	c0.6,0.1,1.2,0.2,1.9,0.2c1.7,0,3.6-0.4,5.6-1.1c1.1-0.4,3.9-0.7,5.1-0.7c1.8,0,2.2,1,2.4,1.6c0.1,0.3,0.2,1.6-1.3,2.3
	c-1.2,0.5-2.3,1.3-3.4,2.2c-1.2,0.9-2.4,1.9-3.9,2.6c0.4,0,0.9,0.1,1.4,0.1c1.9,0,4-0.4,6.3-1.2c1.1-0.4,3.9-0.7,5-0.7
	c1.7,0,2.2,0.9,2.4,1.6c0.1,0.7-0.1,1.7-1.3,2.2c-1.1,0.5-2.1,1.4-3.3,2.3c-1.3,1.1-2.8,2.5-4.8,3.3c0.7,0.2,1.4,0.4,2.2,0.4
	c1.8,0,3.7-0.7,5.8-2.1l0.3-0.2C193.1,188.8,194.5,187.8,197.4,187.6 M236.5,236.5c2.3,8.2,4.1,13.1,5.4,16.4l38.3,17.3l15.5-7
	L236.5,236.5z M277.5,235.9c-1.2,4.8-3.6,8.9-6.4,12.2l17.4,7.9c3.4-4.3,6-9.3,7.8-14.9c0.6-1.8,1.4-5.6,1.9-8.5
	c-7.2,0.1-14.3,0.8-20.5,2L277.5,235.9 M271.7,232.1c0.9-0.2,1.8-0.5,2.7-0.7l0,0c15.2-3.5,36.6-3.4,51.7,0.1l0,0
	c0.8,0.2,1.6,0.4,2.4,0.6c0,0,0,0,0.1,0c0.6-0.3,0.9-0.7,1-1c0.4-0.9,0.2-2.2,0-3c-8-2.5-18.4-3.9-29.5-3.9
	c-11.1,0-21.4,1.4-29.4,3.9c-0.2,0.9-0.4,2.1,0,3.1C270.8,231.4,271,231.7,271.7,232.1C271.7,232.1,271.7,232.1,271.7,232.1
	 M269.2,222c0.4,0.7,0.8,1.5,1.1,2.2c8.2-2.5,18.7-3.8,29.8-3.8c11.1,0,21.6,1.4,29.9,3.8c0.3-0.7,0.7-1.5,1.1-2.2
	c-0.2,0.1-0.5,0.2-0.7,0.2c-0.3,0-0.6,0.1-0.9,0.1c-1.7,0-3.1-0.7-4.5-2.3c-0.6-0.7-0.6-1.8,0-2.5c0.2-0.2,0.3-0.5,0.4-0.8
	c0.1-0.8-0.3-1.5-1-1.8c-0.5-0.2-0.9-0.6-1-1.1c-0.2-0.5-0.2-1,0.1-1.5c0.1-0.1,0.1-0.3,0.1-0.4c0.2-0.9-0.4-1.7-1.3-1.9
	c-0.9-0.2-1.7,0.4-1.9,1.3c0,0.1,0,0.3,0,0.5c0,0.5-0.1,1-0.5,1.4c-0.3,0.4-0.8,0.6-1.4,0.6c-0.8,0-1.4,0.6-1.6,1.3
	c-0.1,0.3,0,0.6,0.1,0.8c0.3,0.8-0.1,1.7-0.8,2.2c-0.1,0-0.1,0.1-0.2,0.1c-1.1,0.5-2.3,0.8-3.5,0.8c-2.1,0-4.1-0.8-5.6-2.3
	c-0.5-0.5-0.7-1.3-0.4-2c0.2-0.6,0.4-1.3,0.4-1.5c0-1.5-1-2.7-2.4-3c-0.5-0.1-1-0.4-1.2-0.9c-0.3-0.5-0.3-1-0.2-1.5
	c0.1-0.3,0.1-0.6,0.1-0.9c0-1.7-1.3-3.1-3-3.1c-1.7,0-3,1.4-3,3.1c0,0.3,0,0.6,0.1,0.9c0.1,0.5,0.1,1.1-0.2,1.5
	c-0.3,0.5-0.7,0.8-1.2,0.9c-1.4,0.3-2.4,1.5-2.4,3c0,0.3,0.2,1,0.4,1.5c0.2,0.7,0.1,1.5-0.4,2c-1.5,1.5-3.5,2.3-5.6,2.3
	c-1.3,0-2.6-0.3-3.6-0.8c-0.8-0.4-1.2-1.4-0.9-2.3c0.1-0.3,0.1-0.5,0.1-0.8c-0.1-0.8-0.8-1.3-1.6-1.3c-0.5,0-1-0.2-1.4-0.6
	c-0.3-0.4-0.5-0.9-0.5-1.4c0-0.2,0-0.3,0-0.5c-0.2-0.9-1-1.4-1.9-1.3c-0.4,0.1-0.8,0.3-1,0.7c-0.2,0.4-0.3,0.8-0.2,1.2
	c0,0.1,0.1,0.3,0.1,0.4c0.2,0.5,0.3,1,0.1,1.5c-0.2,0.5-0.6,0.9-1,1.1c-0.7,0.3-1.1,1-1,1.8c0.1,0.3,0.2,0.6,0.4,0.8
	c0.6,0.7,0.6,1.8,0,2.5c-1.4,1.6-2.8,2.3-4.5,2.3c-0.3,0-0.6,0-1-0.1C269.6,222.2,269.4,222.1,269.2,222 M262.6,200.5
	c1.9,5.2,4.3,10.4,7,15.6c0.3,0.2,0.6,0.5,0.9,0.9c0.3,0.4,0.6,1,0.8,1.5c0.1,0,0.2-0.1,0.3-0.1c-0.1-0.3-0.2-0.7-0.3-1
	c-0.4-1.9,0.3-3.8,1.7-5.1c-0.2-1.3,0.1-2.7,0.9-3.8c0.8-1.2,2-2,3.4-2.2c0.1,0,0.2,0,0.3,0c0.2,0,0.5-0.1,0.7-0.1
	c2.5,0,4.6,1.7,5.1,4.1c1.7,0.6,3.1,2.1,3.5,4.1c0,0.3,0.1,0.5,0.1,0.8c0.3,0,0.5,0.1,0.8,0.1c0.6,0,1.4-0.1,2.2-0.6
	c-0.1-0.5-0.2-1-0.2-1.5c0-2.6,1.5-5,3.7-6.1c0,0,0-0.1,0-0.1c0-3.7,3-6.8,6.7-6.8c3.7,0,6.7,3,6.7,6.8c0,0,0,0.1,0,0.1
	c2.2,1.1,3.7,3.5,3.7,6.1c0,0.5-0.1,1-0.2,1.5c0.8,0.5,1.6,0.6,2.2,0.6c0.3,0,0.5,0,0.8-0.1c0-0.3,0-0.5,0.1-0.8
	c0.4-1.9,1.7-3.4,3.4-4c0.6-2.4,2.7-4.1,5.1-4.1c0.2,0,0.5,0,0.7,0.1c0.1,0,0.2,0,0.3,0c2.8,0.5,4.6,3.2,4.2,6
	c1.4,1.2,2.1,3.1,1.7,5.1c-0.1,0.3-0.2,0.7-0.3,1c0.1,0.1,0.2,0.1,0.3,0.1c0.2-0.5,0.5-1.1,0.8-1.5c0.3-0.3,0.6-0.6,0.9-0.9
	c2.7-5.2,5.1-10.4,7-15.6c-5-1.4-10.8-2.5-17.2-3.2c-6.4-0.7-13.3-1.1-20.4-1.1c-7.1,0-13.9,0.4-20.3,1.1
	C273.4,198,267.6,199.1,262.6,200.5 M256.5,189.2c1.3,2.5,2.6,5.4,3.5,8.1c10.4-3.1,24.8-4.9,40-4.9c15.3,0,29.7,1.8,40.1,4.9
	c1-2.7,2.3-5.6,3.5-8.1c-0.7,0.1-1.5,0.4-1.9,1c-0.3,0.4-0.7,1.5-0.9,2.2c-0.2,0.7-0.8,1.2-1.5,1.3c-2.9,0.4-5.6-0.6-7.4-2.7
	c-0.6-0.7-0.6-1.8,0-2.5c0.3-0.4,0.5-0.8,0.6-1.2c0.2-1.2-0.4-2.4-1.5-2.8c-0.5-0.2-0.9-0.6-1-1.1c-0.2-0.5-0.2-1,0.1-1.5
	c0.1-0.2,0.2-0.5,0.2-0.7c0.1-0.7,0-1.3-0.4-1.9c-0.4-0.6-0.9-0.9-1.6-1.1c-1.4-0.3-2.7,0.7-2.9,2c0,0.2-0.1,0.5,0,0.7
	c0,0.5-0.1,1-0.5,1.4c-0.3,0.4-0.8,0.6-1.4,0.6c-1.2,0-2.2,0.9-2.5,2.1c-0.1,0.4-0.1,0.9,0.1,1.3c0.3,0.9-0.1,1.9-1,2.3
	c-1.3,0.6-2.8,1-4.3,1c-2.6,0-5-1-6.8-2.8c-0.6-0.6-0.7-1.4-0.4-2.2c0.3-0.6,0.4-1.2,0.4-1.9c0-2.1-1.5-3.9-3.5-4.3
	c-0.5-0.1-1-0.4-1.2-0.9c-0.3-0.5-0.3-1-0.2-1.5c0.1-0.4,0.2-0.8,0.2-1.2c0-2.4-1.9-4.4-4.3-4.4c-2.4,0-4.3,2-4.3,4.4
	c0,0.4,0.1,0.8,0.2,1.2c0.1,0.5,0.1,1.1-0.2,1.5c-0.3,0.5-0.7,0.8-1.2,0.9c-2,0.4-3.5,2.2-3.5,4.3c0,0.6,0.1,1.3,0.4,1.8
	c0.2,0.3,0.2,0.6,0.2,0.9c0,0.5-0.2,1-0.6,1.4c-1.8,1.8-4.2,2.8-6.7,2.8c-1.5,0-3.1-0.4-4.4-1c-0.8-0.4-1.2-1.4-0.9-2.3
	c0.1-0.4,0.2-0.8,0.1-1.3c-0.2-1.2-1.3-2.1-2.4-2.1c-0.5,0-1-0.2-1.4-0.6c-0.3-0.4-0.5-0.9-0.5-1.4c0-0.2,0-0.5,0-0.7
	c-0.3-1.3-1.6-2.3-2.9-2c-0.7,0.1-1.2,0.5-1.6,1.1c-0.4,0.6-0.5,1.2-0.4,1.9c0,0.2,0.1,0.5,0.2,0.7c0.2,0.5,0.3,1,0.1,1.5
	c-0.2,0.5-0.6,0.9-1,1.1c-1.1,0.4-1.8,1.6-1.5,2.8c0.1,0.5,0.3,0.9,0.6,1.2c0.7,0.7,0.6,1.9,0,2.6c-1.6,1.8-3.7,2.7-6.1,2.7
	c-0.4,0-0.8,0-1.3-0.1c-0.7-0.1-1.3-0.6-1.5-1.3c-0.2-0.6-0.6-1.8-0.9-2.2C258,189.6,257.2,189.3,256.5,189.2 M288.8,161.9
	c-12.5,0.5-24.5,1.7-34.3,3.8c0.5,6,1.6,12.8,3.5,20c1.1,0.3,2.5,1,3.4,2.2c0.5,0.6,0.9,1.4,1.1,2.2c0.8,0,1.5-0.3,2.1-0.6
	c-0.2-0.5-0.4-0.9-0.4-1.4c-0.4-2.3,0.5-4.7,2.3-6.1c0,0,0,0,0,0c-0.3-1.6,0-3.3,1-4.7c0.9-1.4,2.3-2.3,4-2.6
	c0.4-0.1,0.8-0.1,1.2-0.1c3,0,5.5,2.1,6.1,5.1v0c2.2,0.7,3.9,2.5,4.3,4.8c0,0.2,0.1,0.4,0.1,0.6c0,0.2,0,0.5,0,0.7
	c0.5,0.1,1,0.2,1.5,0.2c0.9,0,2.1-0.2,3.3-1c-0.2-0.7-0.3-1.4-0.3-2.2c0-3.2,1.9-6.1,4.7-7.4c0-0.2,0-0.3,0-0.5c0-4.5,3.6-8.1,8-8.1
	c4.4,0,8,3.6,8,8.1c0,0.2,0,0.3,0,0.5c2.8,1.3,4.7,4.1,4.7,7.4c0,0.7-0.1,1.5-0.3,2.2c1.2,0.8,2.4,1,3.3,1c0.5,0,1-0.1,1.5-0.2
	c0-0.2,0-0.5,0-0.7c0-0.2,0-0.4,0.1-0.6c0.4-2.3,2.1-4.2,4.3-4.8l0,0c0.6-3,3.1-5.1,6.1-5.1c0.4,0,0.8,0,1.2,0.1
	c1.6,0.3,3,1.3,4,2.6c0.9,1.4,1.3,3.1,1,4.7c1.8,1.4,2.7,3.8,2.3,6.1c-0.1,0.5-0.2,1-0.5,1.4c0.6,0.4,1.3,0.6,2.1,0.6
	c0.3-0.7,0.7-1.6,1.1-2.2c1-1.2,2.3-1.9,3.4-2.2c1.8-7.2,3-14,3.5-20c-9.8-2.1-21.8-3.3-34.3-3.8C304,161.6,296.3,161.6,288.8,161.9
	 M252.7,162.3c26.7-5.9,68.2-5.9,94.9,0c0.5-3.4,1.5-6.8,2.6-9.7c-0.5,0.3-1,0.6-1.3,1.2c-0.5,1.1-1.7,3.5-1.7,3.5
	c-0.2,0.5-0.7,0.9-1.3,1c-3,0.7-4.8,0-7.4-2.4c-0.7-0.7-0.8-1.7-0.2-2.5c0.4-0.5,0.6-1.1,0.7-1.7c0.2-1.6-0.8-3.2-2.4-3.7
	c-0.5-0.2-0.9-0.5-1.1-1c-0.2-0.5-0.2-1,0-1.5c0.1-0.3,0.2-0.6,0.2-1c0.2-1.9-1.1-3.6-3-3.8c-1.9-0.2-3.5,1.2-3.7,3c0,0.3,0,0.6,0,1
	c0.1,0.5,0,1.1-0.4,1.5c-0.3,0.4-0.8,0.7-1.3,0.7c-1.6,0.1-2.9,1.4-3.1,3c-0.1,0.6,0,1.1,0.2,1.7c0.1,0.2,0.2,0.5,0.2,0.8
	c0,0.8-0.5,1.5-1.2,1.7c-3.9,1.7-9.6,1.5-12.6-2.4c-0.5-0.6-0.5-1.5-0.1-2.1c0.3-0.7,0.5-1.5,0.5-2.3c0-2.7-1.9-5-4.5-5.5
	c-0.5-0.1-1-0.4-1.2-0.9c-0.3-0.5-0.3-1-0.2-1.5c0.2-0.5,0.2-1.1,0.2-1.6c0-3.1-2.5-5.6-5.6-5.6c-2.3,0-4.2,1.4-5.1,3.4
	c-0.3,0.7-0.5,1.4-0.5,2.2c0,0.5,0.1,1.1,0.2,1.6c0.1,0.3,0.1,0.6,0,0.9c0,0.2-0.1,0.4-0.2,0.6c-0.3,0.5-0.7,0.8-1.2,0.9
	c-2.1,0.4-3.8,2.1-4.3,4.1c-0.1,0.5-0.2,0.9-0.2,1.4c0,0.9,0.2,1.7,0.6,2.4c0.3,0.6,0.3,1.4-0.2,2c-3,3.9-8.7,4.1-12.6,2.4
	c-0.1,0-0.2-0.1-0.3-0.2c-0.7-0.5-1-1.5-0.7-2.3c0.2-0.5,0.3-1.1,0.2-1.7c-0.2-1.6-1.5-2.9-3.1-3c-0.5,0-1-0.3-1.3-0.7
	c-0.3-0.4-0.4-0.9-0.4-1.5c0.1-0.3,0.1-0.7,0-1c-0.2-1.9-1.9-3.3-3.7-3c-1.9,0.2-3.2,1.9-3,3.8c0,0.3,0.1,0.6,0.2,1
	c0.2,0.5,0.2,1,0,1.5c-0.2,0.5-0.6,0.8-1.1,1c-1.5,0.5-2.5,2-2.4,3.7c0.1,0.6,0.3,1.2,0.7,1.7c0.6,0.8,0.5,1.8-0.2,2.5
	c-2.5,2.5-4.4,3.1-7.4,2.4c-0.6-0.1-1-0.5-1.3-1c0,0-1.1-2.4-1.7-3.5c-0.3-0.6-0.8-1-1.3-1.2C251.2,155.4,252.2,158.9,252.7,162.3
	 M255.4,146.9c-0.4,1.4-0.7,3-0.9,4.9c0.1,0.1,0.1,0.2,0.2,0.4c0.3,0.7,0.9,1.8,1.3,2.6c0.7,0.1,1.3-0.1,2.1-0.7
	c-0.3-0.7-0.5-1.4-0.5-2.1c-0.3-2.8,1-5.5,3.3-6.9c0-0.1,0-0.1,0-0.2c-0.4-3.9,2.4-7.5,6.3-7.9c3.9-0.4,7.4,2.4,7.8,6.3
	c0,0.1,0,0.2,0,0.2c2.5,0.9,4.4,3.2,4.7,6c0.1,0.5,0.1,1.1,0,1.6c1.9,0.4,4.4,0.4,6.1-1c-0.3-0.9-0.5-1.9-0.5-2.9
	c0-0.8,0.1-1.6,0.3-2.4c0.7-2.8,2.7-5.2,5.4-6.3c0-0.3,0-0.5,0-0.8c0-1.3,0.3-2.6,0.8-3.7c1-2.4,3-4.2,5.4-5.1c1-0.3,2-0.5,3.1-0.5
	c1.1,0,2.1,0.2,3.1,0.5c3.6,1.3,6.2,4.8,6.2,8.8c0,0.3,0,0.5,0,0.8c3.4,1.4,5.7,4.8,5.7,8.7c0,1-0.1,2-0.4,2.9
	c1.7,1.3,4.2,1.4,6.1,1c-0.1-0.5-0.1-1.1,0-1.6c0.3-2.8,2.2-5.1,4.7-6c0-0.1,0-0.2,0-0.2c0.4-3.9,3.9-6.8,7.8-6.3
	c3.9,0.4,6.7,4,6.3,7.9c0,0.1,0,0.2,0,0.2c2.3,1.4,3.6,4.1,3.3,6.9c-0.1,0.7-0.3,1.4-0.5,2.1c0.8,0.6,1.4,0.7,2.1,0.7
	c0.4-0.8,0.9-1.9,1.3-2.6c0.1-0.1,0.1-0.2,0.2-0.4c-0.2-1.8-0.5-3.5-0.9-4.9c-3.8-14-18.9-28-44.3-28.2c-0.2,0-0.3,0-0.5,0
	c-0.2,0-0.3,0-0.5,0C274.3,118.8,259.1,132.9,255.4,146.9 M300.1,104.6c-2.7,0-4.9,2.2-4.9,5c0,2.8,2.2,5,4.9,5c2.7,0,4.9-2.2,4.9-5
	C305.1,106.8,302.9,104.6,300.1,104.6 M329.4,248c-2.8-3.3-5.1-7.3-6.3-12.1l0-0.2l-0.2-1.1c-6.2-1.2-13.3-1.9-20.5-2
	c0.5,2.8,1.3,6.6,1.9,8.4c1.8,5.5,4.4,10.5,7.7,14.8L329.4,248 M308.5,257.4c-3.3-4.5-6-9.6-7.8-15.2c-0.1-0.4-0.3-0.9-0.4-1.5
	c-0.1,0.6-0.3,1.1-0.4,1.5c-1.8,5.7-4.5,10.8-7.8,15.3l8.1,3.7L308.5,257.4z M280.4,274.2l5.1,11.7l73.3-33.1
	c1.3-3.3,3.1-8.3,5.4-16.4L280.4,274.2z M370.1,228.2c-3.8,15.5-6.7,23-8.5,27.3c-2.2,5.2-6.9,12-13.8,16.6
	c14.4-0.3,21.7-3.6,24.9-5.6c11.3-7.2,14.8-23.2,17-36.4l-6.6-1.4l-1.4,6.7l-5.8-1.2l1.4-6.7l-6.8-1.4
	C370.5,226.8,370.3,227.5,370.1,228.2 M371.9,219.9c0,0.1,0,0.2-0.1,0.3l6.8,1.4l1.4-6.7l5.8,1.2l-1.4,6.7l6.3,1.3
	c0.2-1.1,0.3-2.2,0.5-3.4c1.8-11.8,4.1-26.5,6-32.4c3.7-11.5,8.6-16.5,12.1-19.3c-0.1,0-0.1,0-0.2,0c-0.8,0-1.6,0-2.4,0
	c-7.1,0-10.8,1.1-15.3,3.3c-12.7,6.1-15.9,25.6-18.2,39.9c-0.4,2.7-0.8,5.3-1.3,7.5L371.9,219.9 M414,170.1c-0.8,0.7-1.9,1.4-3,2.4
	c-2.3,2.7-5.4,7.4-8.7,15c0.4,0,0.8,0,1.3,0.1c2.8,0.2,4.3,1.2,5.3,2l0.3,0.2c2,1.4,4,2.1,5.8,2.1c0.8,0,1.6-0.2,2.2-0.4
	c-2-0.8-3.5-2.1-4.8-3.3c-1.1-1-2.1-1.9-3.3-2.3c-1.2-0.5-1.4-1.5-1.3-2.2c0.1-0.7,0.7-1.6,2.4-1.6c1.1,0,3.8,0.3,4.9,0.7
	c2.3,0.8,4.4,1.2,6.3,1.2h0c0.5,0,0.9,0,1.4-0.1c-1.5-0.8-2.7-1.7-3.9-2.6c-1.1-0.9-2.2-1.7-3.4-2.2c-1.6-0.7-1.4-2-1.3-2.3
	c0.1-0.6,0.6-1.6,2.4-1.6c1.2,0,4,0.3,5.1,0.7c2,0.7,3.9,1.1,5.6,1.1c0.7,0,1.3-0.1,1.9-0.2c-1.9-0.7-3.4-1.9-5.3-3.3
	c-0.6-0.5-1.2-0.9-2-1.5c-3.1-2.2-6-2.5-7.2-2.5C414.5,169.7,414.2,169.9,414,170.1 M394.7,222.6c-0.2,1.4-0.4,2.6-0.6,3.8
	c-0.6,3.5-1.2,7.4-2,11.3l54.4-24.5l-0.2-0.5l-4.9-11.2L394.7,222.6z M444,195.5c-0.3,0.9-0.3,1.9,0.1,2.8l6.6,15.1
	c0.6,1.3,1.9,2.2,3.3,2.2c0.5,0,1-0.1,1.4-0.3c0.9-0.4,1.6-1.1,1.9-2c0.3-0.9,0.3-1.9-0.1-2.8l-6.6-15.1c-0.6-1.3-1.9-2.2-3.3-2.2
	c-0.5,0-1,0.1-1.5,0.3C445,193.9,444.4,194.6,444,195.5 M455.5,192.1c-0.7,0.3-1.2,0.8-1.6,1.5c0,0.1,0.1,0.1,0.1,0.2l6.6,15.1
	c0,0.1,0,0.1,0.1,0.2c0.2,0,0.5,0.1,0.7,0.1c0.5,0,1-0.1,1.5-0.3c1.8-0.8,2.6-3,1.8-4.8l-4.4-10c-0.6-1.3-1.9-2.2-3.3-2.2
	C456.5,191.8,456,191.9,455.5,192.1 M464.1,193c-0.1,0-0.2,0-0.3,0l4,9c1.5-1.5,2-3.8,1.1-5.9C468.1,194.2,466.2,193,464.1,193
	 M446.7,230.3c-0.4-0.9,0-2,0.9-2.5l2.3-1.1l-4.1-9.2l-52.9,23.9l4,9.2l2.3-1c0.4-0.2,1-0.2,1.4,0c0.5,0.2,0.8,0.5,1,1l3.5,8.1
	c0.4,0.9,0,2.1-0.9,2.5l-2.3,1.1l3.7,8.4l20.8-9.3l-3.7-8.4l-2.3,1.1c-0.9,0.4-2,0-2.4-0.9l-3.6-8.1c-0.2-0.5-0.2-1,0-1.4
	c0.2-0.5,0.5-0.8,1-1l2.3-1.1l-1-2.4c-0.2-0.5-0.2-1,0-1.4c0.2-0.5,0.5-0.8,1-1l8-3.6c0.9-0.4,2,0,2.4,0.9l1.1,2.4l2.3-1
	c0.9-0.4,2,0,2.4,0.9l3.5,8.1c0.2,0.5,0.2,1,0,1.4c-0.2,0.5-0.5,0.8-1,1l-2.3,1.1l3.7,8.4l20.8-9.3l-3.7-8.4l-2.3,1.1
	c-0.9,0.4-2,0-2.4-1L446.7,230.3z M340.2,271.9c7-2.7,12.2-8,15.5-13c-0.6,0.1-1.3,0.2-2,0.2l-23.2,10.5
	C333.6,270.8,336.8,271.6,340.2,271.9 M332.7,293c-0.8,1.8,0,4,1.8,4.8c0.5,0.2,1,0.3,1.5,0.3c0.2,0,0.5,0,0.7-0.1
	c0-0.1,0-0.1,0.1-0.2l6.6-15.1c0-0.1,0.1-0.1,0.1-0.2c-0.4-0.6-0.9-1.2-1.6-1.5c-0.5-0.2-1-0.3-1.5-0.3c-1.4,0-2.7,0.8-3.3,2.2
	L332.7,293z M340.1,299.3c-0.4,0.9-0.4,1.9-0.1,2.8c0.3,0.9,1,1.6,1.9,2c0.5,0.2,1,0.3,1.5,0.3c1.4,0,2.7-0.8,3.3-2.2l6.6-15.1
	c0.4-0.9,0.4-1.9,0.1-2.8c-0.3-0.9-1-1.6-1.9-2c-0.5-0.2-1-0.3-1.5-0.3c-1.4,0-2.7,0.8-3.3,2.2L340.1,299.3z M350,303.8
	c0,0.1-0.1,0.1-0.1,0.2c0.4,0.6,0.9,1.2,1.6,1.5c0.5,0.2,1,0.3,1.5,0.3c1.4,0,2.7-0.8,3.3-2.2l4.4-10.1c0.4-0.9,0.4-1.9,0.1-2.8
	c-0.3-0.9-1-1.6-1.9-2c-0.5-0.2-1-0.3-1.5-0.3c-0.2,0-0.5,0-0.7,0.1c0,0.1-0.1,0.1-0.1,0.2L350,303.8z M360,304.5
	c0,0.1-0.1,0.3-0.2,0.4c0,0.1-0.1,0.2-0.1,0.2l0,0c0,0,0,0,0,0c-3.1,5.9-1.3,15.1,4,20.4c3,3,6.7,4.5,11,4.5c1.8,0,3.3-0.3,4.3-0.5
	c0.6-0.1,1-0.2,1.3-0.2c0.6,0,1.2,0.3,1.5,0.7c0.2,0.2,0.4,0.5,0.6,0.7c1,1.4,3.3,4.8,8,5.1c3.7,0.2,6.7-1.7,9.5-5.1
	c0.2-1.2,0.7-2.4,1.5-3.4c1-1.2,2.3-2,3.7-2.4c-0.6-1.8-0.6-3.7,0.2-5.4c0.8-1.7,2.1-3,3.8-3.7c-0.7-1.3-1-2.9-0.7-4.4
	c0.2-1.3,0.7-2.5,1.5-3.5c0.6-4.3,0.1-7.9-2.6-10.5c-1.8-1.8-4.2-2.8-6.9-2.8c-0.9,0-1.7,0.1-2.2,0.2c-0.3,0-0.6,0.1-0.8,0.1
	c0,0,0,0-0.1,0c0,0-0.1,0-0.1,0c-1.1,0-1.7-0.8-2.2-1.8c-1.5-2.5-5.1-8.3-13.2-8.8c-7.4-0.5-14.8,4-17.4,9.9
	c-0.1,0.2-0.2,0.5-0.3,0.7l0,0.1c0,0.1-0.1,0.1-0.1,0.2c0,0.1-0.1,0.3-0.2,0.4L360,304.5z M381.5,275.5c-6.8-0.5-12,3.2-15.1,10.4
	c3.9-3.2,9.1-5.2,14.2-5.2c0.4,0,0.9,0,1.3,0c7.1,0.5,11.5,4.3,14,7.4c-0.2-2.2-0.9-4.3-2.2-6.1
	C391.1,278.3,386.5,275.8,381.5,275.5 M407.3,290.7c-1.4,0-2.7,0.2-4,0.7c2.5,0.5,4.6,1.7,6.5,3.5c3.1,3,4,6.8,3.9,10.8
	c0.1,0,0.2,0,0.3-0.1c2.1-3.9,2.8-8-0.2-12C412,291.2,409.3,290.7,407.3,290.7 M420.6,313.5c-1.7-2.1-3.8-4-4.8-4.2
	c-0.2,0-0.4,0-0.5,0c-1.6,0-3.1,1.2-3.3,2.9c-0.1,0.9,0.1,1.8,0.6,2.5c0.5,0.7,1.3,1.2,2.2,1.4c0.1,0,0.1,0,0.2,0
	C416.2,316,418.6,314.7,420.6,313.5 M411.3,325.8c1.5,0,3.6-0.5,5.2-1c-1.1-2.5-2.6-4.9-3.5-5.3c-0.4-0.2-0.9-0.3-1.4-0.3
	c-1.3,0-2.5,0.8-3.1,2c-0.4,0.8-0.4,1.7-0.1,2.6c0.3,0.8,0.9,1.5,1.8,1.9C410.4,325.7,410.7,325.8,411.3,325.8 M431.1,344.3
	c-4.9-4.1-10.5-7.9-16.8-11.5c0.4,1.7,0.6,3.2,0.6,4c0.1,0.8-0.3,1.5-0.9,1.8c22.6,13.4,34.9,30,34.9,47.5c0,7.5-2.3,14.8-6.6,21.7
	c2-1.6,4.6-3,8-4.1c2.5-5.7,3.8-11.6,3.8-17.7c0-9.8-3.4-19.3-9.8-28.1c-2.9-1.8-5.8-4.1-8.4-7C434,349,432.4,346.8,431.1,344.3
	 M451.4,342.3c-11.3-4.8-18.1-12.1-21.7-17.3c0.5,9.6,3.5,17.5,8.9,23.6c7.2,8.1,17.1,11.1,22.7,12.1v-11.5
	C459.3,346.8,456.2,344.3,451.4,342.3 M433.7,302.7c3.4,4.7,7.4,12.4,9.8,24.3c0.7,3.5,2,6.5,3.7,9c1.7,1,3.6,1.9,5.6,2.8
	c3.6,1.5,6.4,3.3,8.6,5.1v-4.5c-0.4-2.9-1.1-6.2-2.2-9.6C454.9,317.6,446.4,308.5,433.7,302.7 M449.3,280.4
	c-2.6,9.3-3.4,18-2.6,25.9c7.6,6,12,12.9,14.7,19.1V314c-0.1-0.2-0.2-0.3-0.3-0.5C452.8,300.2,450,288.6,449.3,280.4 M461.6,369.3
	c-0.2-0.3-0.3-0.6-0.3-1v-3.8c-2.7-0.5-6.4-1.3-10.5-3c4.5,7.9,6.9,16.2,6.9,24.7c0,5.7-1,11.2-3.1,16.6c1-0.2,2.1-0.3,3.2-0.4
	c21.6-1.8,31.2-5.7,31.3-5.8c0.8-0.3,1.6-0.1,2.2,0.6c0,0,0,0.1,0,0.1c5.2-4.7,7.9-9.7,9.2-13.6c1.7-4.9,1.9-9.5,1.4-13.2
	c-0.2-1.8-0.6-3.3-1.1-4.5c-1.2-3.3-4.1-6.6-7.8-9.2V370v0.1c0,0.5,0,0.7,0,0.8l0,0c-0.5,4.1-4.2,11.7-15.1,11.7
	C468.2,382.6,462.9,376.1,461.6,369.3 M485.2,361.7c1.8,0.6,3.1,1.3,4.2,2.1v-7.4v-1.6c-3.1-1.2-6.4-1.9-9.5-2v8.2
	C481.3,360.9,483.1,361,485.2,361.7 M477,364.8c-0.5-0.3-0.8-0.9-0.8-1.5v-10.1c-0.6,0.1-1.1,0.3-1.6,0.4c-3,1.1-9.8,4.6-9.6,12.8
	c0.1,6.2,4.2,12.5,13,12.5c9.9,0,11.3-7.3,11.4-8.3v-0.4c-0.1-0.9-0.8-3.4-5.3-4.8c-3.2-1-5.3-0.3-5.4-0.2
	C478.2,365.2,477.5,365.1,477,364.8 M465,355.8c2-2.5,4.9-4.4,8.4-5.7c1-0.4,2.2-0.7,3.5-0.8c4.9-0.9,10.1,0,15.2,2.6l1.1,0.5v0.1
	c3.7,2.1,6.8,5,9,8.2v-49.1c-1.5-2.1-8.6-10.6-18.6-10.6c-9.8,0-16.7,5.5-18.6,7.2V355.8z M467.4,272.5c-3.6,10-3.5,18.9,0.4,26.7
	c0.3,0.6,0.6,1.2,1,1.7c1.7-0.9,3.7-1.8,5.9-2.5c-0.8-3-1.3-6.7-0.9-11.5C470.3,280.4,468.4,275.7,467.4,272.5 M478.9,278.1
	c-2.1,9.1-1.7,15.3-0.6,19.4c1.7-0.3,3.4-0.5,5.3-0.5c0.9,0,1.8,0.1,2.7,0.2c0.5-2.9,1.4-6.1,3-9.7c1.4-3.1,2.7-6.1,3.8-8.8
	c0.3-14-5.5-28.2-10.8-38.1C482.9,248.7,482.8,261.5,478.9,278.1 M502.6,262.5c-1.5,5.7-4.5,14.6-9.9,26.6c-1.5,3.3-2.4,6.3-2.7,8.9
	c4,1.2,7.3,3.4,9.9,5.5c0.4-0.8,0.9-1.6,1.3-2.5C506.6,289.1,505.4,274.5,502.6,262.5 M404.2,329.8c-1.2,1.5-0.9,3.6,0.5,4.8
	c0.5,0.4,2,0.8,4.9,0.8c0.5,0,0.9,0,1.4,0c-0.5-2.7-1.3-5.4-2.1-6.1c-0.6-0.5-1.3-0.8-2.1-0.8C405.8,328.5,404.8,329,404.2,329.8
	 M400.7,335.4c-2.9,2.7-6.2,4.5-10.5,4.3c-2.9-0.2-5.2-1.3-6.9-2.5c0.5,1.1,1.2,2.2,2,3.3c1.3,1.5,3.5,3.3,6.7,3.1
	c4.9-0.3,7.4-3.7,8.9-7.9C400.8,335.6,400.7,335.5,400.7,335.4 M245.8,313.1c-0.3,5.5-2.6,11.2-6.6,15.1c-3.7,3.7-8.3,5.6-13.6,5.6
	c-0.4,0-0.8,0-1.2,0c2.1,1.6,4.7,2.5,7.5,2.5c4.1,0,8.2-1.8,11.4-4.9C248.3,326.5,249.1,320.2,245.8,313.1 M361.1,328.2
	c-4-3.9-6.3-9.6-6.6-15.1c-3.3,7.1-2.5,13.5,2.5,18.3c3.2,3.1,7.3,4.9,11.4,4.9c2.8,0,5.4-0.9,7.5-2.5c-0.4,0-0.8,0-1.2,0
	C369.4,333.8,364.9,331.9,361.1,328.2 M347.5,306.9C347.5,306.9,347.5,306.9,347.5,306.9C347.5,306.9,347.5,306.9,347.5,306.9
	C347.5,306.9,347.5,306.9,347.5,306.9 M319.8,283.6l-2.1,4.7c0.9,2.2,2.5,3.9,4.7,4.8c1.9,0.8,4,1,6,0.5l1-2.2c0,0,0,0,0,0l2-4.6
	l3.4-7.7c-0.9-1.8-2.5-3.3-4.4-4.2c-2.1-0.9-4.5-1-6.6-0.3L319.8,283.6z M319.8,274.4l-15.1,6.8l10.1,4.6L319.8,274.4z M271,291.4
	C271,291.4,271,291.4,271,291.4l1,2.2c2,0.5,4.1,0.4,6-0.5c2.1-1,3.7-2.6,4.7-4.8l-1.1-2.4l-4.9-11.2c-2.2-0.8-4.5-0.7-6.6,0.3
	c-1.9,0.8-3.4,2.3-4.4,4.2l1.3,3L271,291.4z M271,297.3c-0.7,1.7-2,3.1-3.7,3.9c-0.9,0.4-1.9,0.6-3,0.6c-0.1,0-0.1,0-0.2,0
	c-0.1,0.6-0.2,1.1-0.4,1.6c-0.3,0.8-0.7,1.5-1.2,2.1c12.2-1.5,24.8-2.3,37.7-2.3c12.9,0,25.5,0.8,37.7,2.3c-0.5-0.6-0.9-1.3-1.2-2.1
	c-0.2-0.5-0.3-1.1-0.4-1.6c-0.1,0-0.1,0-0.2,0c-1,0-2-0.2-3-0.6c-1.8-0.8-3-2.2-3.7-3.9c-1.1,0.3-2.1,0.4-3.2,0.4
	c-1.8,0-3.5-0.4-5.2-1.1c-3-1.3-5.3-3.8-6.6-6.9l-14.2-6.4l-14.2,6.4c-1.3,3.1-3.6,5.5-6.6,6.9c-1.6,0.7-3.4,1.1-5.2,1.1
	C273.1,297.7,272.1,297.6,271,297.3 M252.8,306.9C252.8,306.9,252.8,306.9,252.8,306.9C252.8,306.9,252.8,306.9,252.8,306.9
	C252.8,306.9,252.8,306.9,252.8,306.9 M300.1,306.9c-17.7,0-34.9,1.5-51.1,4.4c0.8,1.8,1.4,3.4,1.8,5c15.6-2.7,32.2-4.2,49.3-4.2
	c17.1,0,33.7,1.4,49.3,4.2c0.4-1.6,1-3.2,1.8-5C335,308.4,317.8,306.9,300.1,306.9 M189.3,335.3c0.4,0,0.9,0,1.4,0
	c2.9,0,4.5-0.4,4.9-0.8c1.4-1.2,1.7-3.3,0.5-4.8c-0.6-0.8-1.6-1.3-2.6-1.3c-0.8,0-1.5,0.3-2.1,0.8
	C190.6,329.9,189.8,332.6,189.3,335.3 M210.1,339.7c-4.3,0.3-7.7-1.5-10.5-4.3c0,0.1-0.1,0.2-0.2,0.3c1.5,4.2,4,7.5,8.9,7.9
	c0.2,0,0.3,0,0.5,0h0c2.9,0,4.9-1.7,6.1-3.1c0.9-1,1.5-2.1,2-3.3C215.4,338.4,213.1,339.5,210.1,339.7 M214.1,442.5
	c-0.2-0.4-0.4-0.8-0.6-1.2c-0.2-0.3-0.5-0.7-0.8-1c-0.9-1-2.2-1.9-3.8-2.5c-0.3-0.1-1.2-0.2-2.5-0.2c-1,0-2.2,0.1-3.6,0.3
	C206.5,439.6,210.2,441.1,214.1,442.5 M256.8,453.3c-2.3-3.8-5.8-6-9-7.5c-3.8-1.8-6.2-2.3-6.6-2.3c-1.1-0.1-2-0.1-2.9,0.1
	c-2.5,0.5-4.3,2-5.5,3.4c-0.4,0.4-0.7,0.9-0.9,1.3C239.9,450.2,248.2,451.9,256.8,453.3 M368.3,448.1c-0.2-0.4-0.5-0.8-0.9-1.2
	c-1.1-1.4-2.9-2.9-5.5-3.4c-0.9-0.2-1.9-0.2-2.9-0.1c-0.3,0.1-2.8,0.5-6.6,2.3c-3.2,1.5-6.7,3.7-9,7.5
	C352.1,451.9,360.4,450.2,368.3,448.1 M397.4,438c-1.3-0.2-2.6-0.3-3.6-0.3c-1.3,0-2.2,0.1-2.5,0.2c-1.6,0.6-2.8,1.5-3.8,2.5
	c-0.3,0.3-0.5,0.6-0.7,1c-0.3,0.4-0.5,0.8-0.6,1.2C390.1,441.1,393.8,439.6,397.4,438 M390.5,434.2c6.1-2.5,24.6-10,36.7-20.2
	c1.3-1,3.8-2.1,6.6-2.1c0.4,0,0.7,0,1.1,0.1c6.8-8.2,10.4-16.9,10.4-25.8c0-17.4-13.6-34.1-38.3-47.2c-1.2-0.1-2.2-0.4-3-0.7
	c-1.9,4.4-5.2,8.6-11.6,9c-0.3,0-0.5,0-0.8,0c-3.4,0-6.5-1.5-8.9-4.4c-1.7-1.9-2.9-4.4-3.5-6.9c-2.9,2.6-6.5,4-10.6,4
	c-5,0-10.1-2.2-13.9-5.9c-2.3-2.3-6-7-5.6-14.1c-15.4-2.7-31.9-4.1-48.7-4.1c-16.9,0-33.3,1.4-48.7,4.1c0.4,7.1-3.2,11.8-5.6,14.1
	c-3.9,3.8-8.9,5.9-13.9,5.9c-4.1,0-7.7-1.4-10.6-4c-0.6,2.4-1.8,4.9-3.5,6.9c-2.5,2.9-5.6,4.4-8.9,4.4h0c-0.3,0-0.5,0-0.8,0
	c-6.4-0.4-9.8-4.6-11.6-9c-0.8,0.3-1.8,0.6-3.1,0.7c-24.8,13.2-38.3,29.9-38.3,47.2c0,8.9,3.6,17.7,10.4,25.8c0.4,0,0.7-0.1,1.1-0.1
	c2.8,0,5.3,1,6.6,2.1c12.1,10.1,30.6,17.7,36.7,20.1l0.2,0.1c0.1,0,0.2,0.1,0.3,0.1c4.6,1.8,7.6,5.4,7.9,9.6
	c3.3,1.1,6.7,2.2,10.1,3.1c1.9-3.6,6.3-8.2,13.4-7.4c0,0,0,0,0,0c0,0,0,0,0,0c0,0,0,0,0,0c2.6,0.4,10.8,1.9,13.5,2.5l0.9,0.2
	c10.7,2.2,22.9,4.6,43.9,4.6h0.2c20.9,0,33.1-2.5,43.9-4.6l0.9-0.2c2.6-0.5,10.8-2.1,13.5-2.5c0,0,0,0,0,0c0,0,0,0,0,0c0,0,0,0,0,0
	c0,0,0,0,0,0c7.2-0.8,11.6,3.8,13.4,7.4c3.5-1,6.8-2,10.1-3.1c0.3-4.2,3.3-7.9,8-9.6c0,0,0,0,0,0L390.5,434.2 M465.9,417.3
	c6.5-2.9,12.9-8,18.9-15.3c-5.1,1.4-13.8,3.2-26.6,4.2c-9.9,0.8-14.7,5.1-16.8,8.2c2.5,1.2,4.6,2.6,6.4,4c2.9-0.9,6.6-1.4,11.4-1.4
	C461.3,416.9,463.5,417,465.9,417.3 M515.2,419.4c0.3,0.8,0,1.7-0.7,2.2c-13.9,10-27.4,15.6-40.2,16.6c5.3,4.1,10.5,10.4,14.6,20.3
	c0.2,0.3,0.2,0.6,0.2,0.9c0,1-0.8,1.9-1.8,1.9h0c-0.5,0-0.9-0.2-1.3-0.5c-0.1-0.1-4.5-4-22.1-8c-3.3-0.8-6-1.9-8.2-3.2
	c-1.7,1.7-6.4,6.1-16.5,12.3c-16.8,10.2-25.4,12.7-26.3,12.9c-1.5,0.6-3,0.9-4.4,0.9c-1.4,0-2.7-0.3-3.9-0.9
	c-3.2-1.5-4.8-4.6-5.6-6.8c-2.5-7.2,1.5-11.3,1.7-11.5c0.2-0.2,0.4-0.3,0.6-0.4c4.5-1.8,7.3-3,11.6-5.3c-0.3-0.6-0.5-1.2-0.9-1.7
	c-0.6-1.1-1.2-2.1-1.9-3c-0.1,0-0.1,0.1-0.2,0.1c-2.7,1.4-5.5,2.7-8.4,4c-5.1,8.7-11,14.5-17.1,18.2c1.9,0.9,3.8,1.9,5.7,3.1
	c10.2,6.6,21.6,7.3,26,7.3c1.5,0,2.4-0.1,2.5-0.1c1-0.1,1.9,0.6,2,1.6c0.1,1-0.5,1.9-1.5,2.1c-13.1,2.7-25,4-35.4,4
	c-1.4,0-2.7,0-4.1-0.1c4.6,6.4,7.3,13.9,8,22.3c0,0.1,0,0.3,0,0.4c0,1-0.8,1.9-1.8,1.9h0c-0.7,0-1.4-0.4-1.7-1.1
	c-0.1-0.1-3.5-7.4-17.5-13.6c-4.7-2.1-8.6-4.3-11.9-6.6c-6.4,1.9-14.6,4-28.7,4c-4.4,0-8.5-4.1-11.2-7.6c-0.2,6.9,0.9,12.4,3.3,16.4
	c3.7,0.1,5.3-0.4,7.4-0.9c0.8-0.2,1.6-0.5,2.6-0.7c0.2,0,0.3,0,0.5,0c0.5,0,4.9,0.4,7.5,3.1c2.8,3,2.8,6.8,0,9.6c0,0,0,0,0,0
	c-0.1,0.1-0.1,0.1-0.2,0.2c0,0-0.1,0-0.1,0.1c-0.1,0-0.1,0.1-0.2,0.1c0,0-0.1,0.1-0.2,0.1c-0.2,0.1-3.8,1.5-9.1,1.5
	c-4.5,0-8.7-1-12.7-3c-7.5-3.7-11.5-9.5-13.5-13.7c-2,4.2-6,10-13.5,13.7c-4,2-8.3,3-12.7,3c-5.3,0-9-1.4-9.1-1.5h0
	c0,0-0.1,0-0.1-0.1c-0.1,0-0.1-0.1-0.2-0.1c0,0,0,0-0.1-0.1c-0.1,0-0.1-0.1-0.2-0.2c0,0,0,0,0,0c-2.8-2.8-2.8-6.6,0-9.6
	c2.5-2.7,7-3,7.5-3.1c0.2,0,0.3,0,0.5,0c1,0.2,1.8,0.5,2.6,0.7c2.1,0.6,3.7,1,7.4,0.9c2.4-4,3.5-9.5,3.3-16.4
	c-2.7,3.5-6.8,7.6-11.2,7.6c-14.2,0-22.4-2.1-28.8-4.1c-3.3,2.3-7.3,4.5-12,6.6c-14,6.3-17.4,13.6-17.5,13.6c-0.3,0.7-1,1.1-1.7,1.1
	c-0.2,0-0.3,0-0.5-0.1c-0.9-0.2-1.4-1.1-1.4-2c0.7-8.5,3.4-16.1,8-22.6c-1.3,0-2.7,0.1-4.1,0.1h0c-10.4,0-22.3-1.3-35.4-4
	c-1-0.2-1.6-1.1-1.5-2.1c0.1-1,1-1.7,2-1.6c0,0,0.9,0.1,2.5,0.1c4.4,0,15.8-0.7,26-7.3c2-1.3,4.1-2.4,6.1-3.4
	c-6.1-3.7-12.1-9.4-17.3-18c-2.9-1.3-5.7-2.6-8.5-4c-0.1,0-0.1-0.1-0.2-0.1c-0.7,0.9-1.3,1.9-1.9,3c-0.3,0.6-0.6,1.2-0.9,1.7
	c4.3,2.2,7.2,3.4,11.6,5.3c0.2,0.1,0.4,0.2,0.6,0.4c0.2,0.2,4.2,4.2,1.7,11.5c-0.8,2.3-2.4,5.3-5.6,6.8c-1.2,0.6-2.5,0.9-3.9,0.9
	c-1.4,0-2.9-0.3-4.4-0.9c-0.9-0.2-9.5-2.7-26.3-12.9c-10.2-6.2-14.9-10.6-16.6-12.3c-2.2,1.3-4.9,2.4-8.2,3.2
	c-17.8,4.1-22.1,8-22.1,8.1c-0.4,0.4-0.8,0.6-1.3,0.6c-0.4,0-0.7-0.1-1-0.3c-0.7-0.5-1-1.5-0.7-2.3c4.1-10,9.3-16.4,14.7-20.5
	c-12.8-1-26.3-6.6-40.2-16.6c-0.7-0.5-1-1.4-0.7-2.2c0.3-0.8,1.1-1.3,1.9-1.2c0.1,0,7,0.8,18,0.8h0c7.5,0,15.1-0.3,22.6-1
	c-5.6-3.5-10.4-8.1-14.3-12.8c-10.5-6.3-15.1-14.4-17.1-20.2c-1.6-4.6-2.1-9.4-1.7-13.9c0-0.1-0.1-0.3-0.1-0.4v-59.9
	c0-0.4,0.1-0.7,0.3-1c0.1-0.2,1.2-1.7,3-3.6c-0.6-1-1.2-2.1-1.7-3.2c-7.4-15.6-4-35.1,0.1-48.8c0.3-0.8,1.1-1.4,1.9-1.3
	c0.9,0.1,1.6,0.8,1.7,1.6c0,0.1,0.7,5.5,4.3,15.8c1.5-12.5,6.8-25.9,15.9-40c0.5-0.8,1.5-1.1,2.3-0.7c0.8,0.4,1.3,1.3,1,2.2
	c0,0.2-4.9,17,1.8,45.4c0.3,1.1,0.5,2.1,0.7,3.1c4.8-10.1,4.8-14,4.8-14c-0.1-0.9,0.5-1.7,1.4-1.9c0.9-0.2,1.8,0.2,2.1,1
	c8.2,17.4,5.2,29.7,0.7,37.3c2.3,1.6,3.7,3,3.8,3.1c0.2,0.2,0.4,0.5,0.5,0.8c5.7-10.7,7.7-19.8,8.4-25.9c0.8-7.6-0.3-12.2-0.3-12.3
	c-0.2-0.9,0.3-1.9,1.2-2.2c0.9-0.3,1.9,0.2,2.3,1.1c4.1,10.2,7.8,23.1,7.1,36.1c4.2-2.7,9.2-5.2,15.1-7.1c0.9-0.3,1.8,0.1,2.2,0.9
	c0.4,0.8,0.2,1.8-0.6,2.4c0,0-2.4,1.8-5.4,6.1c-2.7,4-6.4,11.1-8.6,21.9c-0.3,1.4-0.7,2.7-1.1,3.9c8.3-6.8,11.4-14.2,11.4-14.3
	c0.3-0.8,1.2-1.3,2-1.1c0.8,0.1,1.5,0.9,1.5,1.7c0.4,7.1-0.3,13.6-2.1,19.3c4-2.9,8.3-5.6,13-8.3c-2.4-0.6-4.5-1.4-4.6-1.4
	c-1-0.4-1.4-1.5-1.1-2.4c0.4-1.1,1.5-3.8,3-6c-2.9-1.1-5.9-3.2-6.6-3.7c-0.8-0.6-1-1.8-0.4-2.6c0.9-1.3,3.9-5.2,6.8-6.7
	c-2-4.4-2.8-9.6,1.2-14.8c2.2-2.8,5.5-4.4,9.4-4.4c2.6,0,5.4,0.7,7.7,1.9c0-3.3,1-6.4,3-9.1c3.2-4.6,8.8-7.6,14.9-8.1
	c0.5,0,1-0.1,1.5-0.1c8.4,0,14.8,5.3,18.1,14.9c0.6-0.5,1.2-0.9,1.9-1.2c0.9-0.4,1.9-0.6,3-0.6c0.1,0,0.1,0,0.2,0
	c0.1-0.6,0.2-1.1,0.4-1.6c0.7-1.8,2.1-3.3,3.8-4.1c0.9-0.4,1.9-0.6,3-0.6c1.5,0,2.9,0.5,4.1,1.3c0.7-0.8,1.6-1.5,2.6-2
	c0.9-0.4,1.9-0.6,3-0.6c0.8,0,1.6,0.2,2.4,0.4c0.4-0.8,0.9-1.5,1.4-2.2c-1.4,0.3-2.9,0.4-4.4,0.5c0,0-0.1,0-0.1,0
	c-0.1,0-0.2,0-0.3,0c-1,0-2.3,0.1-4.1,0.1c-7.2,0-20.5-0.8-29-6.2c-8.7-5.5-13.2-15.3-15.9-25.3l-4.2,9.5c-0.2,0.5-0.6,0.8-1,1
	c-0.5,0.2-1,0.2-1.4,0l-2.3-1.1l-2,4.6l2.3,1.1c0.9,0.4,1.4,1.5,0.9,2.5l-5.2,11.8c-0.3,0.7-1,1.1-1.7,1.1c-0.3,0-0.5-0.1-0.7-0.2
	l-24.1-10.8c-0.5-0.2-0.8-0.6-1-1c-0.2-0.5-0.2-1,0-1.4l5.2-11.8c0.4-0.9,1.5-1.4,2.4-0.9l2.3,1l2.1-4.7l-2.3-1
	c-0.5-0.2-0.8-0.6-1-1c-0.2-0.5-0.2-1,0-1.4l1-2.4l-4.7-2.1l-1.1,2.4c-0.4,0.9-1.5,1.4-2.4,0.9l-2.3-1.1l-2,4.6l2.3,1.1
	c0.4,0.2,0.8,0.6,1,1c0.2,0.5,0.2,1,0,1.4l-5.2,11.8c-0.4,0.9-1.5,1.4-2.4,1l-24.1-10.8c-0.5-0.2-0.8-0.6-1-1c-0.2-0.5-0.2-1,0-1.4
	l5.2-11.8c0.2-0.5,0.6-0.8,1-1c0.5-0.2,1-0.2,1.4,0l2.3,1.1l2.1-4.7l-2.3-1.1c-0.9-0.4-1.3-1.5-0.9-2.5l3.9-8.8
	c-1.1,0.7-2.4,1.1-3.8,1.1c-1,0-2-0.2-3-0.6c-1.8-0.8-3.1-2.3-3.8-4.1c-0.2-0.5-0.3-1.1-0.4-1.6c-0.1,0-0.1,0-0.2,0
	c-1,0-2-0.2-3-0.6c-2.5-1.1-4.1-3.6-4.3-6.2c-3.9-2.3-5.5-7.2-3.6-11.4c1.4-3.3,4.6-5.4,8.1-5.4c0.9,0,1.8,0.1,2.7,0.4
	c1.3-1,2.8-1.6,4.5-1.6c1,0,2,0.2,3,0.6c1,0.5,1.9,1.2,2.6,2c1.2-0.8,2.6-1.3,4.1-1.3c1,0,2,0.2,3,0.6c1.8,0.8,3.1,2.3,3.8,4.1
	c0.5,1.2,0.6,2.6,0.4,3.8l45.1,20.4c-1.5-9.6-3.3-21.2-4.9-27.1c-0.2,0-0.5,0-0.8,0c-0.6,0-1.3,0-1.9,0.1c-1.8,0.1-2.6,0.7-3.5,1.3
	l-0.3,0.2c-2.7,1.8-5.3,2.7-7.8,2.7h0c-5.4,0-8.4-4.1-8.5-4.3c-0.4-0.6-0.5-1.4-0.1-2c0.4-0.6,1.1-1,1.8-0.9
	c1.9,0.2,3.4-0.3,4.7-1.2c-1.6,0.4-3.1,0.6-4.6,0.6c-5.6,0-8-2.8-8.3-3.1c-0.5-0.5-0.6-1.3-0.3-2c0.3-0.6,0.9-1.1,1.6-1.1
	c1.6-0.1,2.8-0.5,3.9-1c-0.9,0.2-1.9,0.2-2.8,0.2c-6.4,0-9.5-3.9-9.7-4c-0.5-0.6-0.5-1.4-0.2-2.1c0.4-0.7,1.1-1,1.8-0.9
	c0.7,0.1,1.3,0.1,1.9,0.1c3,0,4.4-1.1,7.3-3.3c0.6-0.5,1.3-1,2-1.5c1.5-1.1,3.1-1.8,4.4-2.3c-0.1,0-0.1-0.1-0.2-0.1
	c0,0,0.6-0.2,1.6-0.3c1-0.3,2-0.4,2.7-0.4c1.7-0.2,3.7-0.4,6-0.5c0.5,0,1,0,1.5,0c0.1,0,0.3,0,0.4,0c0.2,0,0.4,0,0.5,0
	c0.1,0,0.3,0,0.4,0c0.2,0,0.4,0,0.6,0c0.3,0,0.6,0,0.8,0c0.2,0,0.4,0,0.6,0c0.3,0,0.5,0,0.8,0c0.2,0,0.4,0,0.5,0
	c0.3,0,0.5,0,0.8,0.1c0.1,0,0.3,0,0.4,0c0.3,0,0.6,0.1,1,0.1c0.1,0,0.2,0,0.2,0c0.4,0,0.8,0.1,1.1,0.2c0.1,0,0.2,0,0.3,0.1
	c0.3,0,0.5,0.1,0.8,0.1c0.1,0,0.3,0.1,0.4,0.1c0.2,0,0.4,0.1,0.7,0.1c0.1,0,0.3,0.1,0.4,0.1c0.2,0.1,0.4,0.1,0.6,0.2
	c0.1,0,0.3,0.1,0.4,0.1c0.2,0.1,0.4,0.1,0.6,0.2c0.1,0,0.3,0.1,0.4,0.1c0.2,0.1,0.4,0.1,0.6,0.2c0.1,0,0.3,0.1,0.4,0.1
	c0.2,0.1,0.4,0.1,0.6,0.2c0.1,0,0.3,0.1,0.4,0.2c0.2,0.1,0.4,0.2,0.6,0.2c0.1,0.1,0.3,0.1,0.4,0.2c0.2,0.1,0.4,0.2,0.7,0.3
	c0.1,0.1,0.2,0.1,0.3,0.1c0.3,0.2,0.7,0.3,1,0.5c17.1,8.2,18.7,36.2,21.5,50.1c0.6,2.9,1.1,5.7,1.8,8.3c0.4,1.6,0.8,3.1,1.2,4.6
	l32.4,14.6c2.8-3,5.1-6.7,6.3-11.1c-0.6,0.1-1.2,0.3-1.8,0.5c0,0,0,0-0.1,0c-0.1,0-0.2,0-0.3,0c0,0-0.1,0-0.1,0c0,0-0.1,0-0.1,0
	c0,0-0.1,0-0.1,0c0,0-0.1,0-0.1,0c-0.1,0-0.2,0-0.2-0.1c0,0-0.1,0-0.1,0c-1.8-0.6-3-1.7-3.7-3.3c-1-2.2-0.4-4.7,0-6
	c-2-5-6.8-11-6.8-11c-0.5-0.6-0.5-1.4-0.2-2c0.3-0.7,1-1.1,1.8-1c0.5,0,1.2,0.2,1.8,0.5c-1.9-3.9-3.5-7.8-4.9-11.5c0,0-0.1,0-0.1,0
	h-0.1c-0.9,0-1.7-0.7-1.8-1.6c0-0.1,0-0.2,0-0.3c-2.1-6.8-7.6-15.8-7.6-15.9c-0.4-0.7-0.3-1.6,0.2-2.2c0.6-0.6,1.4-0.8,2.2-0.4
	c0.2,0.1,0.8,0.4,1.6,0.9c-0.2-1-0.4-2-0.6-3c-0.8-4.3-1.4-8.6-1.8-12.7c-0.3,0-0.6-0.2-0.9-0.4c-0.4-0.3-0.7-0.8-0.7-1.4
	c-0.5-7.6-5.3-17.1-5.4-17.2c-0.3-0.6-0.3-1.4,0.2-2c0.4-0.6,1.2-0.9,1.9-0.7c1.3,0.3,3.5,1.4,4.4,3.9c0.3,0.1,0.6,0.2,0.9,0.3
	c0.2-1.1,0.4-2.1,0.7-3.1c4.5-16.8,20.9-28.6,41.8-30.6c-1.3-1.5-2-3.5-2-5.6c0-4,2.6-7.3,6.2-8.4l0-7.4h-4.3v-4.8h4.3v-4.1h4.8v4.1
	h4.3v4.8h-4.3v7.4c3.6,1.1,6.2,4.4,6.2,8.4c0,2.1-0.8,4.1-2,5.6c20.8,2.1,37.2,13.9,41.8,30.6c0.2,0.9,0.5,2,0.6,3.1
	c0.3-0.1,0.6-0.2,0.9-0.3c0.9-2.5,3.1-3.6,4.4-3.9c0.7-0.2,1.4,0.1,1.9,0.7c0.4,0.6,0.5,1.4,0.2,2c0,0.1-4.9,9.6-5.4,17.2
	c0,0.6-0.3,1.1-0.7,1.4c-0.3,0.2-0.6,0.3-0.9,0.3c-0.4,4.8-1.2,10.1-2.4,15.7c0.8-0.5,1.4-0.9,1.6-1c0.7-0.4,1.6-0.2,2.2,0.4
	c0.5,0.6,0.6,1.5,0.2,2.2c-0.1,0.1-5.8,9.6-7.8,16.4c-0.1,0.5-0.5,0.9-0.9,1.1c-0.3,0.1-0.6,0.2-0.9,0.2c-0.1,0-0.1,0-0.2,0
	c-1.4,3.8-3,7.6-4.9,11.5c0.7-0.3,1.4-0.4,1.9-0.5c0.7-0.1,1.4,0.3,1.8,1c0.3,0.7,0.3,1.5-0.2,2c-0.1,0.1-4.8,6.1-6.8,11
	c0.4,1.3,1,3.7,0,6c-0.7,1.5-1.9,2.7-3.7,3.3c0,0,0,0,0,0c-0.1,0-0.1,0-0.2,0.1c-0.1,0-0.2,0-0.4,0c-0.2,0-0.3,0-0.5-0.1
	c0,0,0,0,0,0c-0.5-0.1-1-0.3-1.4-0.4c1.2,4.2,3.4,7.9,6.2,10.9l32.5-14.7c0.4-1.4,0.7-2.9,1.1-4.4c0.6-2.6,1.2-5.4,1.8-8.3
	c2.8-13.9,4.4-41.9,21.5-50.1c0.3-0.2,0.7-0.3,1-0.5c0.1,0,0.2-0.1,0.3-0.1c0.2-0.1,0.4-0.2,0.7-0.3c0.1-0.1,0.3-0.1,0.4-0.2
	c0.2-0.1,0.4-0.2,0.6-0.2c0.1-0.1,0.3-0.1,0.4-0.2c0.2-0.1,0.4-0.1,0.6-0.2c0.1,0,0.3-0.1,0.4-0.1c0.2-0.1,0.4-0.1,0.6-0.2
	c0.1,0,0.3-0.1,0.4-0.1c0.2-0.1,0.4-0.1,0.6-0.2c0.1,0,0.3-0.1,0.4-0.1c0.2-0.1,0.4-0.1,0.6-0.2c0.1,0,0.3-0.1,0.4-0.1
	c0.2,0,0.4-0.1,0.7-0.1c0.1,0,0.3-0.1,0.4-0.1c0.3,0,0.5-0.1,0.8-0.1c0.1,0,0.2,0,0.3-0.1c0.4-0.1,0.8-0.1,1.1-0.2
	c0.1,0,0.2,0,0.2,0c0.3,0,0.6-0.1,1-0.1c0.1,0,0.3,0,0.4,0c0.3,0,0.5,0,0.8-0.1c0.2,0,0.4,0,0.5,0c0.3,0,0.5,0,0.8,0
	c0.2,0,0.4,0,0.6,0c0.3,0,0.6,0,0.8,0c0.2,0,0.4,0,0.6,0c0.1,0,0.3,0,0.4,0c0.2,0,0.4,0,0.6,0c0.1,0,0.3,0,0.4,0c0.5,0,1,0,1.5,0
	c2.2,0.1,4.2,0.3,5.8,0.5c0.9,0,2.3,0.2,4,0.7c0.3,0.1,0.5,0.1,0.5,0.1c0,0,0,0-0.1,0c1.4,0.5,3,1.2,4.6,2.4c0.7,0.5,1.4,1,2,1.5
	c2.9,2.2,4.3,3.3,7.3,3.3c0.6,0,1.2,0,1.9-0.1c0.7-0.1,1.5,0.3,1.8,0.9c0.4,0.7,0.3,1.5-0.2,2.1c-0.1,0.2-3.2,4-9.7,4
	c-0.9,0-1.8-0.1-2.8-0.2c1.1,0.6,2.4,1,4,1c0.7,0,1.3,0.5,1.6,1.1c0.3,0.6,0.2,1.4-0.3,2c-0.3,0.3-2.7,3.1-8.3,3.1h0
	c-1.4,0-3-0.2-4.6-0.6c1.1,0.8,2.3,1.3,3.8,1.3c0.3,0,0.6,0,0.9-0.1c0.7-0.1,1.4,0.3,1.8,0.9c0.4,0.6,0.3,1.4-0.1,2
	c-0.1,0.2-3.1,4.3-8.5,4.3c-2.6,0-5.2-0.9-7.8-2.7l-0.3-0.2c-0.9-0.6-1.7-1.2-3.5-1.3c-0.6,0-1.3-0.1-1.9-0.1c-0.4,0-0.8,0-1.1,0
	c-1.5,5.9-3.4,17.4-4.9,26.9l44.8-20.2c-0.2-1.3-0.1-2.6,0.4-3.8c0.7-1.8,2.1-3.3,3.8-4.1c0.9-0.4,1.9-0.6,3-0.6
	c1.5,0,2.9,0.5,4.1,1.3c0.7-0.8,1.5-1.5,2.6-2c0.9-0.4,1.9-0.6,3-0.6c1.7,0,3.2,0.6,4.5,1.6c0.9-0.3,1.8-0.4,2.7-0.4
	c3.5,0,6.7,2.1,8.1,5.3c1.9,4.2,0.2,9.2-3.6,11.4c-0.2,2.6-1.8,5.1-4.3,6.2c-0.9,0.4-1.9,0.6-3,0.6c-0.1,0-0.1,0-0.2,0
	c-0.1,0.6-0.2,1.1-0.4,1.6c-0.7,1.8-2.1,3.3-3.8,4.1c-0.9,0.4-1.9,0.6-3,0.6c-1.4,0-2.6-0.4-3.8-1.1l3.9,8.8c0.4,0.9,0,2-0.9,2.5
	l-2.3,1.1l2.1,4.7l2.3-1.1c0.5-0.2,1-0.2,1.4,0c0.5,0.2,0.8,0.5,1,1l5.2,11.8c0.2,0.5,0.2,1,0,1.4c-0.2,0.5-0.5,0.8-1,1l-24.1,10.8
	c-0.9,0.4-2,0-2.4-1l-5.2-11.8c-0.2-0.5-0.2-1,0-1.4c0.2-0.5,0.5-0.8,1-1l2.3-1.1l-2-4.6l-2.3,1.1c-0.9,0.4-2,0-2.4-0.9l-1.1-2.4
	l-4.7,2.1l1,2.4c0.2,0.5,0.2,1,0,1.4c-0.2,0.5-0.5,0.8-1,1l-2.3,1l2.1,4.7l2.3-1.1c0.9-0.4,2,0,2.4,0.9l5.2,11.8
	c0.2,0.5,0.2,1,0,1.4c-0.2,0.5-0.5,0.8-1,1l-24.1,10.8c-0.2,0.1-0.5,0.2-0.7,0.2c-0.7,0-1.4-0.4-1.7-1.1l-5.2-11.8
	c-0.4-0.9,0-2,0.9-2.5l2.3-1.1l-2-4.6l-2.3,1.1c-0.4,0.2-1,0.2-1.4,0c-0.5-0.2-0.8-0.5-1-1l-4-9c-2.7,9.9-7.2,19.5-15.8,24.9
	c-8.5,5.4-21.8,6.2-29,6.2c-1.7,0-3.1,0-4.1-0.1c-0.1,0-0.2,0-0.3,0c0,0-0.1,0-0.1,0c-1.6-0.1-3.2-0.3-4.7-0.6
	c0.6,0.7,1,1.4,1.4,2.2c0.8-0.3,1.6-0.4,2.4-0.4c1,0,2,0.2,3,0.6c1,0.5,1.9,1.2,2.6,2c1.2-0.8,2.6-1.3,4.1-1.3c1,0,2,0.2,3,0.6
	c1.8,0.8,3.1,2.2,3.8,4.1c0.2,0.5,0.3,1.1,0.4,1.6c0.1,0,0.1,0,0.2,0c1,0,2,0.2,3,0.6c0.7,0.3,1.3,0.7,1.9,1.2
	c3.3-9.5,9.6-14.9,18.1-14.9c0.5,0,1,0,1.5,0.1c6.1,0.4,11.6,3.5,14.9,8.1c1.9,2.7,2.9,5.8,3,9.1c2.3-1.2,5.1-1.9,7.7-1.9
	c3.9,0,7.2,1.5,9.4,4.4c4,5.1,3.2,10.4,1.2,14.8c2.9,1.5,5.9,5.4,6.8,6.7c0.6,0.8,0.4,2-0.4,2.6c-0.7,0.5-3.7,2.7-6.6,3.7
	c1.5,2.2,2.6,4.9,3,6c0.4,1-0.1,2-1.1,2.4c-0.1,0-2.2,0.9-4.6,1.4c4.7,2.6,9.1,5.4,13,8.3c-1.8-5.7-2.5-12.1-2.1-19.3
	c0-0.9,0.7-1.6,1.5-1.7c0.8-0.1,1.7,0.3,2,1.1c0,0.1,3.2,7.5,11.4,14.3c-0.4-1.2-0.8-2.6-1.1-3.9c-2.2-10.9-5.9-17.9-8.6-21.9
	c-2.9-4.3-5.3-6.1-5.4-6.1c-0.7-0.5-1-1.5-0.6-2.4c0.4-0.8,1.3-1.2,2.2-0.9c5.9,1.9,10.9,4.4,15.1,7.1c-0.6-13,3-25.9,7.1-36.1
	c0.4-0.9,1.4-1.4,2.3-1.1c0.9,0.3,1.4,1.3,1.2,2.2c0,0-1.1,4.7-0.3,12.3c0.6,6.1,2.6,15.3,8.4,25.9c0.1-0.3,0.2-0.6,0.5-0.8
	c0.1-0.1,1.5-1.5,3.8-3.1c-4.5-7.6-7.6-19.9,0.7-37.3c0.4-0.8,1.3-1.2,2.1-1c0.9,0.2,1.4,1,1.4,1.9c0,0,0,3.8,4.8,14
	c0.2-1,0.4-2,0.7-3.1c3.5-14.8,3.8-26.4,3.5-33.5c-0.4-7.7-1.6-11.9-1.6-11.9c-0.3-0.9,0.2-1.8,1-2.2c0.8-0.4,1.8-0.1,2.3,0.7
	c9,14.1,14.3,27.5,15.9,40c3.6-10.3,4.3-15.7,4.3-15.8c0.1-0.9,0.8-1.6,1.7-1.6c0.9-0.1,1.7,0.5,1.9,1.3c4.1,13.6,7.5,33.2,0.1,48.8
	c-0.6,1.2-1.1,2.2-1.7,3.2c1.8,1.9,2.9,3.4,3,3.6c0.2,0.3,0.3,0.7,0.3,1v59.9c0,0.2,0,0.3-0.1,0.5c0.9,10.3-3.2,24.6-18.8,34
	c-4,4.7-8.8,9.3-14.3,12.8c7.6,0.7,15.1,1,22.6,1c11.1,0,17.9-0.8,18-0.8C514.1,418.1,514.9,418.6,515.2,419.4"/>
</svg>
