<?xml version="1.0" encoding="UTF-8"?>
<svg id="Capa_2" xmlns="http://www.w3.org/2000/svg" version="1.1" viewBox="0 0 425.2 455.9">
  <!-- Generator: Adobe Illustrator 29.3.1, SVG Export Plug-In . SVG Version: 2.1.0 Build 151)  -->
  <defs>
    <style>
      .st0 {
        fill: #fff;
      }
    </style>
  </defs>
  <g id="Capa_1-2">
    <path class="st0" d="M39.5,318.6c-.5,0-1,.2-1.3.4-.1.1-.3.6-.4,1.7,0,.9,0,6.3,0,11.3,0,3.9,0,7.4,0,8.5,0,2.8.3,3.2,2.6,3.9.8.2,1.1.5,1.1.9s-.8.5-1.4.5c-1.1,0-2.9-.2-4.8-.2s-3.1.2-4.4.2-1.3-.2-1.3-.6.5-.6,1-.7c2.3-.5,2.9-1.4,2.9-3.2.1-2.1.2-5.5.2-7.7s0-10.7-.1-12c0-1.6,0-2.2-2.5-2.6-.8,0-1.3-.4-1.3-.6s.4-.5,1-.6c.3,0,1,0,1.4,0,2,0,5.4-.4,7.5-.4,4,0,6.6,1,8.2,2.6,2.1,2,2.5,4.4,2.5,5.9,0,3.8-1.7,5.5-3,6.7-1.1,1-3.2,1.9-5,1.9s-1.7,0-2.3-.3c-.5-.2-.7-.5-.7-.7s.2-.4.6-.4h1c2.2,0,5.3-2.1,5.3-6.9s-2.9-7.3-6.8-7.3M58.1,330.5c.9-.7,1.8-1.2,2.7-1.2s2.7.7,3.6,1.7c1.6,1.9,2,4.5,2,6.6s-.8,4.6-1.9,5.8c-1.1,1.1-2,1.4-2.5,1.4-2,0-4.4-1.6-5.4-4.7-.4-1.1-.5-2.5-.5-3.9,0-2.4.9-4.6,2-5.6M70.4,336.8c0-5.5-4.5-8.9-8.8-8.9s-5.2,1.3-6.5,2.4c-1.7,1.4-3,3.5-3,6.8s1.3,5.1,3.2,6.6c1.6,1.4,3.8,2.2,5.8,2.2s3.8-.5,5.6-1.7c1.6-1,3.8-3.8,3.8-7.5M74.6,329.2c-.3.1-.7.6-.7.9s.2.3.7.7c.9.8,1.1,1.2,1.1,1.7,0,4.4-.1,8.1-.3,9.4-.1,1.5-.4,2-1.8,2.4-.5.1-.9.4-.9.6s.5.6,1.1.6,2.1-.1,3.7-.1,2.2,0,2.8,0,1.1-.2,1.1-.5-.3-.6-.8-.7c-1.4-.4-1.5-.7-1.6-1.3,0-.5,0-9.8,0-10.4,0-.4.3-.9.4-1,.7-.6,1.8-1.2,3.6-1.2s2.3.4,2.7.8c.5.4,1.2,1.7,1.2,3.1s0,6.5,0,7.9-.4,1.8-1.3,2.2c-.6.2-1.1.4-1.1.7s.6.5,1.1.5,2,0,3.1,0,2.3,0,3.4,0,1.2-.2,1.2-.5-.3-.5-1.1-.7c-1.1-.3-1.5-.9-1.6-1.5,0-.6-.1-7-.1-7.9,0-2.2-.5-4.2-1.5-5.3-.6-.7-1.8-1.7-3.9-1.7s-4,1.2-5.8,2.4c0,0-.3,0-.3-.1,0-.4.1-1.5.1-2.1s-.2-.6-.4-.6-.7.2-1.2.5c-.6.4-2.2,1-3,1.3M106.2,328.4c-.2,0-4.2.2-5.2.2s-.4-.2-.4-.3v-2.1c0-.1-.4-.5-.7-.5s-.5.4-1,1c-.7.8-2,1.8-3.7,3.1-.2.1-.3.3-.3.5s.2.4.6.6c.9.2,1.7.5,1.7.8,0,1.5-.2,8-.2,9.6s0,2.2.6,2.9c.6,1,2.1,2,3.9,2s3.5-.8,4.7-2c.3-.3.6-.7.6-1.1s-.2-.5-.2-.5c-.2,0-.3,0-.7.2-.7.4-1.6.6-2.1.6-.9,0-1.8-.2-2.5-.8-.5-.5-.8-1-.8-2.1,0-2.2,0-8.1.1-9.2,0,0,.2-.3.3-.3h4.6c.3,0,1.1,0,1.1-.5s-.1-1.8-.1-1.6c0-.2-.4-.4-.5-.4M115.2,321.4c0-.8-.7-2.3-1.9-2.3s-1.3.2-1.8.6c-.4.4-.6,1.2-.6,1.6,0,.8.3,1.2.7,1.6.4.4,1.2.6,1.5.6.9,0,2.2-1,2.2-2.2M110,329.3c-.5.1-.9.5-.9.8s.1.3.4.5c1.2.9,1.7,1.3,1.7,1.6,0,.5,0,5.9,0,6.2,0,1.6,0,4.3-.2,4.9-.1.4-.7,1-1.7,1.2-.7.2-1.1.4-1.1.6s.5.5,1.1.5,2.4-.2,3.8-.2,3.1.1,3.4.1c.5,0,1.1-.2,1.1-.5s-.3-.5-.9-.7c-1.1-.4-2-.5-2-1.8,0-1.5,0-3.2,0-5.5s.2-8.2.3-8.9c0,0-.2-.5-.4-.5-.6.2-2.8,1.1-4.5,1.5M130.3,328.5c-.3,0-3.2,0-3.9,0-.3,0-.6-.3-.6-.4,0-5.9.9-8.9,1.9-10,.7-.9,1.5-1.2,2.6-1.2s2.7.7,3.6,1.6c.8.8,1.4,1.3,1.7,1.3.6,0,2.2-1.1,2.2-2.2s0-.7-.4-1.1c-.6-.8-1.8-1.9-4.6-1.9s-4,.8-5.6,2c-1.7,1.3-3,3-3.9,4.9-.9,2-1.2,4.4-1.2,6.5s-.2.4-.4.6c-1.3.7-1.9,1.1-1.9,1.5,0,.2.1.5.3.5.6,0,1,0,1.6.2.2,0,.4.4.4.6,0,3.2,0,10.1,0,11-.2,1.5-.4,1.8-1.9,2.2-.6.1-.9.3-.9.6s.3.5.9.5,2.2-.2,3.7-.2,3.3.1,4.1.1.9-.3.9-.5-.2-.5-.9-.7c-1.9-.6-2.1-.8-2.2-2.2-.1-2.3-.1-9.8-.1-11s.3-.6.4-.6c2-.2,5.6-.1,7,0,.2,0,.5.4.5.6,0,1.9,0,8.8-.2,11.6,0,.7-.5,1.1-1.6,1.6-.7.3-.9.5-.9.7,0,.4.4.5.9.5,1,0,2.3-.2,3.7-.2s2.5.1,3.4.1,1-.2,1-.5,0-.4-1-.7c-1.2-.4-1.7-.6-1.8-1.5-.1-1.8,0-3.6,0-11.4s.1-3.7-.2-3.7-.9.1-1.4.2c-.8.3-1.7.6-5.5.6M156.4,329.1c-.8-.6-2.8-1-4.1-1s-4.1.6-5.7,1.8c-2.6,1.7-4.2,4.3-4.2,7.5s.6,3.8,1.4,5.1c1.3,2,3.6,3.5,6.5,3.5s4.9-1.1,6.3-2.7c.4-.3.6-.8.6-1.3s-.4-.4-.8,0c-1.2.8-2.4,1.3-3.9,1.3-2.3,0-4.3-1.1-5.3-2.8-.2-.3-1.2-1.8-1.2-4.3s.7-3.8,1.8-5.1c.7-.8,1.9-1.3,2.5-1.3,1.5,0,2.2.7,3.6,1.7.7.6,1.4.9,1.7.9s1.5-1.1,1.5-1.8-.2-1-.6-1.4M166.1,321.4c0-.8-.7-2.3-1.9-2.3s-1.4.2-1.8.6c-.4.4-.6,1.2-.6,1.6,0,.8.4,1.2.7,1.6.4.4,1.2.6,1.5.6.9,0,2.2-1,2.2-2.2M161,329.3c-.5.1-.9.5-.9.8s.1.3.4.5c1.2.9,1.7,1.3,1.7,1.6,0,.5,0,5.9,0,6.2,0,1.6,0,4.3-.2,4.9-.1.4-.7,1-1.7,1.2-.7.2-1,.4-1,.6s.5.5,1.1.5,2.4-.2,3.8-.2,3.1.1,3.4.1c.5,0,1.1-.2,1.1-.5s-.2-.5-.9-.7c-1.1-.4-1.9-.5-2-1.8,0-1.5,0-3.2,0-5.5s.2-8.2.2-8.9c0,0-.2-.5-.4-.5-.7.2-2.8,1.1-4.5,1.5M179.3,342.9c-.7.4-1.6.7-2.2.7-.9,0-2.6-.7-2.6-2.6s.3-1.4.8-1.6c1.1-.6,3.2-1.3,4.3-1.3s.3.2.3.4c0,1,0,2.6,0,3.5,0,.1-.3.9-.5,1M182.4,330.1c-.6-1-1.8-2.1-4-2.1s-2.7.7-4.1,1.6c-2.2,1.4-3.3,2.6-3.3,3.9s.3.6.5.6,2.6-1.2,3-1.5c0,0,.2-.3.2-.4,0-1,0-1.7.3-1.8.3-.2.9-.4,1.7-.4,2.1,0,3.3,1.8,3.3,2.9,0,.5,0,3.1-.1,3.5,0,.3-.3.5-1.2.8-.9.3-4.5,1.3-5.2,1.6-.6.3-1.3.5-1.7,1-.5.6-.8,1.5-.8,2.2,0,2.2,1.5,4.1,3.1,4.1s1.3,0,1.8-.3c.5-.2,2.3-.9,3.8-2,0,0,.3,0,.3.2.5,1.6,1.8,2.1,2.8,2.1,2.1,0,4-1.9,4-2.7s0-.4,0-.5c0-.1-.1-.2-.3-.1-.5.3-1.5.6-1.6.6-.4,0-1.7-.3-1.7-2.1s.2-5.9.2-7.5-.3-2.8-.9-3.6M198.1,317.6c-.7,0-1.2.2-1.2.5s.5.6,1,.8c1.6.3,2.2,1,2.4,1.9,0,.6.1,4.7.1,10.3s1.1,10.3,3.5,12.6c1.1,1,4,2.6,7.9,2.6s4.2-.2,6.2-1.4c3.1-1.8,5.2-5.4,5.4-12.9,0-2.2.4-7.1.4-9.1,0-2.7.9-3.4,2.8-4,.6-.2,1-.5,1-.7s-.4-.5-1.1-.5c-1.2,0-2.2,0-3.9,0s-2.7-.1-3.7-.1-1.1.2-1.1.5.6.6,1,.7c2.4.6,2.7,1.2,2.9,2.8,0,.5.2,2.5.2,5.3,0,5.1-.4,8.8-.9,11.1-1.1,4.8-5.1,6-8,6s-4.9-.9-6-2.3c-1.4-1.5-2.5-3.3-2.5-8.2s0-10.6.2-12c.3-1.7,1-2.2,2.6-2.5.8-.2,1.2-.4,1.2-.8s-.5-.5-1.3-.5-2.7,0-4.3,0-2.8-.1-4.6-.1M228.8,329.2c-.3.1-.7.6-.7.9s.2.3.7.7c.9.8,1.1,1.2,1.1,1.7,0,4.4-.1,8.1-.3,9.4-.1,1.5-.4,2-1.8,2.4-.5.1-.9.4-.9.6s.5.6,1.1.6,2.1-.1,3.7-.1,2.2,0,2.8,0,1.1-.2,1.1-.5-.4-.6-.8-.7c-1.3-.4-1.5-.7-1.6-1.3,0-.5,0-9.8,0-10.4,0-.4.3-.9.4-1,.7-.6,1.8-1.2,3.6-1.2s2.2.4,2.7.8c.5.4,1.2,1.7,1.2,3.1s0,6.5,0,7.9-.4,1.8-1.4,2.2c-.6.2-1,.4-1,.7s.6.5,1.1.5,2,0,3.1,0,2.3,0,3.4,0,1.2-.2,1.2-.5-.3-.5-1.1-.7c-1.1-.3-1.5-.9-1.6-1.5,0-.6-.1-7-.1-7.9,0-2.2-.5-4.2-1.5-5.3-.6-.7-1.8-1.7-3.9-1.7s-4,1.2-5.8,2.4c0,0-.3,0-.3-.1,0-.4.1-1.5.1-2.1s-.2-.6-.4-.6-.7.2-1.2.5c-.6.4-2.3,1-3,1.3M256.6,321.4c0-.8-.7-2.3-2-2.3s-1.3.2-1.8.6c-.4.4-.6,1.2-.6,1.6,0,.8.3,1.2.7,1.6.4.4,1.2.6,1.5.6.9,0,2.2-1,2.2-2.2M251.4,329.3c-.5.1-.9.5-.9.8s.1.3.4.5c1.2.9,1.7,1.3,1.7,1.6,0,.5,0,5.9,0,6.2,0,1.6,0,4.3-.2,4.9-.1.4-.7,1-1.7,1.2-.7.2-1,.4-1,.6s.5.5,1.1.5,2.4-.2,3.8-.2,3.1.1,3.4.1c.5,0,1.1-.2,1.1-.5s-.2-.5-1-.7c-1.1-.4-2-.5-2-1.8,0-1.5,0-3.2,0-5.5s.2-8.2.3-8.9c0,0-.2-.5-.4-.5-.6.2-2.8,1.1-4.5,1.5M260.5,328.3c-.4,0-1.1.2-1.1.5s.2.5.9.7c1.1.3,1.5.9,1.9,1.5,1.1,2,3.4,7.3,4.4,10.1,1,2.5,1.2,3.1,1.6,4.5.1.5.4.8.6.8.3,0,.8-.5,1-1.1.7-2.3.8-2.7,2-5.8,1.3-3,2.8-7,3.5-8.1.7-.9,1.2-1.4,2.2-1.8.7-.3,1-.4,1-.7s-.5-.5-.9-.5c-.8,0-2.2.2-2.9.2s-1.6-.1-2.4-.1-.9.2-.9.5.4.5.7.6c1.3.5,1.7.8,1.3,1.9-.4,1.3-2.7,7.2-3.2,8.5,0,.2-.2.3-.3.2-.3-.3-2.5-5.3-3.7-8.9-.2-.6-.3-1.1.9-1.5.6-.2,1-.4,1-.7s-.4-.5-1-.5-1.6,0-2.8,0-3-.2-3.8-.2M283.1,332.4c.7-2,2.4-3.3,4.3-3.3s2.8,1.4,2.8,2.6-.5,1.2-1.5,1.2c-2.2,0-4.2,0-5.4,0-.1,0-.3-.2-.2-.5M292.2,329.7c-1.1-1.1-2.8-1.6-4.4-1.6s-2.2.2-3.4.7c-3.4,1.6-5.2,5.1-5.2,8.5,0,5,3.1,8.6,7.8,8.6s5-1.2,6.5-3.3c.1-.3.4-.7.4-1.1s-.1-.5-.4-.5-.4.3-.6.5c-.7,1.1-2,1.6-3.9,1.6s-3.9-1-4.9-2.3c-.9-1.2-1.6-3.2-1.6-4.7s0-1.2.2-1.5c0-.2.3-.3.4-.3,2,0,9.3,0,9.8,0s.9-.6.9-.8c0-1.5-.6-2.8-1.5-3.7M297.2,329.5c-.4.1-.6.6-.6.7,0,.2.6.5,1.5,1.2.4.3.4.9.4,1.4v8.1c0,2.6-.2,3-1.8,3.6-.3.1-.9.3-.9.6,0,.4.4.6.9.6,1,0,1.6-.2,2.9-.2,2.5,0,4.2.2,5.3.2s1.1-.2,1.1-.4-.1-.5-.8-.7c-.6-.2-1.4-.4-2-.5-.7-.2-1-1-1.1-2.2,0-.6-.2-8.4-.2-9.3s.1-.6.4-1c.4-.4,1-.5,1.7-.5s2,.6,2.5,1c.1,0,.6.2.7.1.3-.1,1.3-1.4,1.9-2.1.1-.2.3-.5.3-.6,0-.4-.4-1.5-2.3-1.5s-3.2,1.1-4.9,2.7c0,0-.3,0-.3-.2,0-.8,0-1.6,0-2.4s-.2-.5-.4-.5-.4.1-.9.5c-.5.3-2,1-3.5,1.5M319.8,328.2c-.5-.1-1.4-.3-2.3-.3-1.5,0-2.7.4-3.6.9-1.6,1-2.4,2.5-2.4,4s1.4,3.6,2.7,4.5c1.4.8,1.7,1.1,2.8,1.8,1.3.9,1.9,1.7,1.9,2.8s-.3,1.8-1,2.3c-.4.4-1.2.7-1.7.7-1.5,0-2.7-.8-4-3.1-.3-.5-.6-1-1-1s-.4.4-.4,1c0,1.3.6,3.1.7,3.3.7.6,2.9,1,4.3,1s2.9-.5,3.8-1c1.2-.8,2.6-2.2,2.6-4.2s-.9-3.4-3.5-5c-2.7-1.5-4.2-2.6-4.2-4.1s.9-2.6,2.5-2.6,2.6.9,3.5,2.9c.2.5.5.8.7.8s.5-.4.5-.8-.1-1.9-.1-2.6c0-.3-.3-.6-.4-.6,0,0-.9-.4-1.4-.5M331.5,321.4c0-.8-.7-2.3-2-2.3s-1.3.2-1.8.6c-.4.4-.6,1.2-.6,1.6,0,.8.3,1.2.7,1.6.4.4,1.2.6,1.5.6.9,0,2.2-1,2.2-2.2M326.4,329.3c-.5.1-.9.5-.9.8s.1.3.4.5c1.2.9,1.7,1.3,1.7,1.6,0,.5,0,5.9,0,6.2,0,1.6,0,4.3-.2,4.9-.1.4-.7,1-1.7,1.2-.7.2-1,.4-1,.6s.5.5,1.1.5,2.4-.2,3.8-.2,3.1.1,3.4.1c.5,0,1.1-.2,1.1-.5s-.3-.5-1-.7c-1.1-.4-2-.5-2-1.8,0-1.5,0-3.2,0-5.5s.2-8.2.3-8.9c0,0-.2-.5-.4-.5-.7.2-2.8,1.1-4.5,1.5M341.6,330.9c.8-.8,2-1.4,3.2-1.4s2.5.5,3.7,1.7c.5.5.9,1.3.9,1.7.2,1.9.2,4.7.1,7.2,0,1.3-.6,2.6-.7,2.7-.7.6-1.6,1-2.9,1-3.6,0-6.1-3.9-6.1-7.4s.9-4.5,1.8-5.4M349.1,328.1c-.6,0-1.2-.1-2.7-.1s-3.8.4-5.7,1.7c-2.1,1.2-4.6,3.7-4.6,8s.7,4.4,2.2,6c1.3,1.4,3.2,2.3,5.4,2.3s3.6-.5,5.5-2.1c0,0,.3,0,.3.3,0,.6,0,1.3,0,1.7s.3.6.5.6.6,0,1.6-.4c.8-.3,3.2-.7,4-.9.2,0,.8-.8.8-1.1s0-.3-.3-.3c-.4,0-1.8.3-2.3.3s-.6-.2-.7-2c0-.8-.1-.8-.1-9.6,0-12.5.2-14.8.4-17,0-.3-.2-.7-.3-.7-.2,0-.4,0-.6.1-1.2.4-3.6,1.1-4.7,1.3-.3,0-.7.5-.7.7s0,.2.5.4c2,1,2,1.5,2,1.8.1,1,.3,7.5,0,8.7,0,.2-.2.5-.3.4M366.6,342.9c-.7.4-1.6.7-2.2.7-.9,0-2.6-.7-2.6-2.6s.3-1.4.8-1.6c1.1-.6,3.2-1.3,4.3-1.3s.3.2.3.4c0,1,0,2.6,0,3.5,0,.1-.3.9-.5,1M369.7,330.1c-.6-1-1.8-2.1-4-2.1s-2.7.7-4.1,1.6c-2.2,1.4-3.3,2.6-3.3,3.9s.3.6.5.6,2.6-1.2,3-1.5c0,0,.2-.3.2-.4,0-1,0-1.7.3-1.8.3-.2.9-.4,1.7-.4,2.1,0,3.3,1.8,3.3,2.9,0,.5,0,3.1,0,3.5,0,.3-.3.5-1.2.8-1,.3-4.5,1.3-5.2,1.6-.6.3-1.3.5-1.7,1-.5.6-.8,1.5-.8,2.2,0,2.2,1.5,4.1,3.1,4.1s1.3,0,1.8-.3c.5-.2,2.3-.9,3.8-2,0,0,.3,0,.3.2.5,1.6,1.8,2.1,2.8,2.1,2.1,0,4-1.9,4-2.7s0-.4,0-.5c0-.1-.1-.2-.3-.1-.5.3-1.5.6-1.6.6-.4,0-1.7-.3-1.7-2.1s.2-5.9.2-7.5-.3-2.8-.9-3.6M380.9,330.9c.8-.8,2-1.4,3.2-1.4s2.5.5,3.7,1.7c.5.5.9,1.3.9,1.7.2,1.9.2,4.7.1,7.2,0,1.3-.6,2.6-.7,2.7-.7.6-1.6,1-2.9,1-3.6,0-6.1-3.9-6.1-7.4s.9-4.5,1.8-5.4M388.4,328.1c-.6,0-1.3-.1-2.7-.1s-3.8.4-5.7,1.7c-2.1,1.2-4.6,3.7-4.6,8s.7,4.4,2.2,6c1.3,1.4,3.2,2.3,5.4,2.3s3.6-.5,5.5-2.1c0,0,.3,0,.3.3,0,.6,0,1.3,0,1.7s.3.6.5.6.6,0,1.6-.4c.8-.3,3.2-.7,4-.9.2,0,.8-.8.8-1.1s0-.3-.3-.3c-.4,0-1.8.3-2.3.3s-.6-.2-.7-2c0-.8-.1-.8-.1-9.6,0-12.5.2-14.8.4-17,0-.3-.2-.7-.3-.7-.2,0-.4,0-.6.1-1.2.4-3.6,1.1-4.7,1.3-.3,0-.7.5-.7.7s0,.2.5.4c2,1,2,1.5,2,1.8.1,1,.2,7.5,0,8.7,0,.2-.2.5-.3.4M2.3,418.6c-.8.8-2.3,2.9-2.3,3.6,0,2,3,3.3,5.3,3.3s5.4-1.2,9-3.7c4.8-3.4,8.9-10.5,9.2-19.3.1-6.2.5-25.4.5-31.4,0-3.6,1-4.5,3.5-5.1,1.8-.4,2.2-1,2.2-1.6s-1-.9-2-.9c-2.3,0-4.9.2-8.9.2s-6.1-.3-8.3-.3-2.3.5-2.3,1,.7,1.2,2.3,1.6c3.3.8,4,2.3,4.1,3.7.1,3.1.4,10.4.4,20.9s0,20-.2,24.2c-.1,1.5-.4,3.5-1.5,4.8-.5.7-1.1.9-2,.9s-2.9-.9-4.6-2.1c-.9-.6-2-.8-2.3-.8s-1.8.7-2.1,1.1M60.6,388.9c0,.3-.2.6-.3.6-2.3,0-7.8,0-10.6.1-.3,0-.6-.4-.5-.7.4-1.8,4-11,5.3-14.5.2-.6.7-.7.8-.2,1,2.4,4.2,11.3,5.3,14.7M60.5,364.1c-.6-1.5-.9-1.6-1.2-1.6s-.9.3-1.3,1c-.5.8-2.8,3.5-3.8,4.5-.2.1-.2.4-.2.6s-.3,1.2-.4,1.3c-3.1,7.2-11,28.1-12.7,31.6-2.1,4.3-2.9,5.5-6.7,6.5-1.5.4-1.8.9-1.8,1.5s.4.9,2.1.9,4.4-.3,7.2-.3,4.5.1,5.8.1,2.2-.4,2.2-1-.7-1.1-2.1-1.5c-2.7-.7-3.4-1.8-3.4-3.2s.8-4.8,3.1-10.6c.2-.2.6-.7.8-.7,1,0,4.5-.3,12.3-.2.9,0,1.7.8,1.8,1.1,1.7,4.7,3.2,8.8,3.4,10.7.1,1.2,0,2.3-2.9,3.1-1.4.3-1.9.9-1.9,1.2,0,.7.9,1.1,2.3,1.1s4.7-.1,7.2-.1,7.8.3,9.6.3,2.4-.6,2.4-1.1-.7-1-1.9-1.3c-2.5-.7-4.1-1.5-6.5-7.4-1.5-3.6-6.4-16.9-10.5-28.2-1-2.7-2.3-6.4-2.9-8.2M79.2,363.4c-1.1,0-2.1.4-2.1,1.1s1,1.1,1.9,1.3c3.3,1,4.4,2.6,5.9,6,2.8,6.7,8.4,20.1,10.9,26.8,2.1,5.3,3.4,9.6,3.8,11.2.2.5.8,1.8,1.6,1.8s1.7-1.1,2-1.9c1.5-4.5,3.1-8.6,5.5-14.3,4.4-10.8,8.9-19.7,10.5-23.3,1.8-3.8,3.4-5.3,6.7-6.1,1.2-.2,2-.7,2-1.4s-.9-1-2.2-1-4.5.3-6.6.3-3.9-.2-6.2-.2-2,.6-2,1.1.8,1,1.6,1.2c2.9,1.1,4.9,1.4,3.3,5.7-2.2,5.8-9.9,23.8-10.5,25,0,.2-.5.2-.7,0-1.8-3.6-9.6-23-10.7-26.6-.6-2-.7-3.1,2.6-4,1.3-.4,1.8-1,1.8-1.5s-.8-.9-1.8-.9c-1.7,0-6.2.1-8.7.1-3.6,0-7.2-.4-8.7-.4M150,363.7c-3.8,0-9.8-.2-13.2-.2s-2.3.4-2.3,1.1.8,1,2.3,1.3c3.1.6,3.7,2,3.9,4.7.1,2.1,0,5.5,0,14.1s-.4,14.6-.6,17.7c-.3,4-1.2,4.7-5,5.6-1.2.3-2.2.8-2.2,1.5s1.1,1,2.5,1c2.6,0,3.4-.4,8.3-.4s23.6.4,24.4.4,1.5-.4,1.8-1c.7-1.2,2.8-7.9,2.8-8.5,0-.6.1-2.1-.6-2.1s-1.2.7-2.3,2.6c-1.6,2.9-3.6,4.6-5.8,5.4-1.8.7-4.5.7-6.7.7s-4.8-.2-5.9-.4c-.7-.1-1.4-1.1-1.6-1.8-.3-1.5-.2-4.2-.3-6,0-2.4-.1-8.1.1-10.2,0-.1.6-.9.9-.9,2.3,0,5,0,7.3.2,2.9.2,3.8.7,4.8,4,.2.7.8,1.6,1.4,1.6s1-.9.9-2.2c-.1-1.8-.3-3-.3-5s.1-3,.3-5c0-.8-.1-2-.7-2s-1.2.8-1.6,1.9c-1.4,3.2-1.2,3.5-6.4,3.5h-5.9c-.4,0-.7-.5-.7-.7,0-4,.1-14.2.3-16,0-1.8.6-2,.9-2,5.6,0,8.8.2,10.2.4,1.7.3,3.7,1.4,4.7,5.5.1.7.7,1.8,1.4,1.8s1.2-1,1.2-2.1c0-1.5,0-6.5,0-7.8,0-.5-.6-1-.9-1-1,.1-4,.4-6.4.4h-11,0ZM204.4,368.3c2.5,2.6,3.1,5.9,3.1,7.8,0,4.1-2.1,6.7-4.1,8.2-.8.5-4.2,1.6-7.9,1.6s-.9-.4-.9-.9c-.3-1.9,0-14.7.2-17.2,0-.4.5-1.3.9-1.5.6-.3,2.5-.5,2.8-.5,2,0,4.2.8,5.9,2.6M211.5,384.6c3.2-2.6,5.1-5.4,5.1-9.4s-1.7-6.9-3.9-8.7c-3.5-2.9-9.4-3.2-12.7-3.2s-10,.4-12.7.4h-5.3c-1.2,0-2.1.5-2.1,1s.8,1.1,1.8,1.4c3.4.8,4.1,1.9,4.2,3.7.2,2,.4,8.2.4,16s0,12.4-.4,18c-.2,2.3-1,3.2-4.4,4.2-.9.3-1.8.7-1.8,1.2,0,.7.5,1.2,2.3,1.2s4.5-.3,7-.3,6.8.4,9.4.4,2.3-.3,2.3-1.1-.5-1-1.8-1.4c-3.4-.9-3.9-1.6-4.1-4.8-.2-3.4-.4-13.1-.2-14.5,0-.4.5-.7.8-.7,1.4,0,3,.5,3.5,1,.6.4,1.7,2,2.3,3.1,3.1,5.3,6.8,11.3,8.9,14,1.5,2.1,4.4,4.8,11,4.8s3.7-.1,4.9-.6c.5-.1,1.2-.7,1.2-1.1s-.6-.9-1.3-1c-2.2-.4-4.3-1.3-6.3-3.7-3.7-4.2-9.7-14.3-11-17.3-.1-.3-.2-.9.1-1,1-.5,2.6-1.3,2.9-1.5M239.5,371.5c.2,2.8.2,10.4.2,14.1,0,6.2-.1,13.7-.4,16.5-.1,3.1-.7,4.7-4,5.5-1.5.4-2.2.9-2.2,1.4,0,.7.5,1.2,2.3,1.2,2.7,0,4.9-.2,7-.2,3.1,0,8,.4,11,.4s2.3-.2,2.3-1-.7-1.2-2-1.5c-4.1-1.1-4.5-2-4.8-6.3-.1-2.2-.2-5.3-.2-14.2,0-12.6,0-15.1.3-17,.1-1.9.4-3.8,4-4.5,1.2-.2,2.3-.8,2.3-1.5s-1-1-2.3-1c-2.6,0-5.1.2-8.7.2s-6.2-.2-8.3-.2-2.3.4-2.3,1,.4,1,2.2,1.5c3.6.9,3.6,2,3.8,5.5M290.4,388.9c0,.3-.2.6-.3.6-2.3,0-7.8,0-10.6.1-.3,0-.6-.4-.5-.7.4-1.8,4-11,5.3-14.5.2-.6.7-.7.8-.2,1,2.4,4.2,11.3,5.3,14.7M290.3,364.1c-.6-1.5-.9-1.6-1.2-1.6s-.9.3-1.3,1c-.5.8-2.8,3.5-3.8,4.5-.2.1-.1.4-.1.6s-.3,1.2-.4,1.3c-3.1,7.2-11,28.1-12.7,31.6-2.1,4.3-2.9,5.5-6.6,6.5-1.5.4-1.8.9-1.8,1.5s.4.9,2.1.9,4.4-.3,7.2-.3,4.5.1,5.9.1,2.2-.4,2.2-1-.7-1.1-2.1-1.5c-2.7-.7-3.4-1.8-3.4-3.2s.8-4.8,3.1-10.6c.1-.2.6-.7.8-.7,1,0,4.5-.3,12.3-.2.9,0,1.7.8,1.8,1.1,1.7,4.7,3.2,8.8,3.4,10.7.1,1.2,0,2.3-2.9,3.1-1.4.3-1.9.9-1.9,1.2,0,.7.9,1.1,2.3,1.1s4.8-.1,7.2-.1,7.8.3,9.6.3,2.4-.6,2.4-1.1-.7-1-1.9-1.3c-2.5-.7-4.1-1.5-6.5-7.4-1.5-3.6-6.4-16.9-10.5-28.2-1-2.7-2.3-6.4-2.9-8.2M321.4,363.4c-1.3,0-2.2.5-2.2,1.1s1.1,1.1,1.9,1.2c3.8.9,4.3,1.9,5.6,3.5.2.3.4,1.2.4,4.1,0,5.3-1,19.3-1.3,27.5-.2,5.5-2,6.1-5.3,7.1-.7.2-1.6.6-1.6,1.3s.9,1,1.9,1,5.3-.2,6.9-.2c2.6,0,4.2.3,6.4.3s2.4-.3,2.4-1.1-.5-1-2-1.4c-3.5-1.1-4.3-2.3-4.6-4.7-.4-3.6-.2-9.1-.1-19.3,0-5.8.2-7.5.4-9.4,0-.2.4-.8.8-.4,6.5,7.7,18.4,20.2,25.3,28.7,2,2.4,3.4,4.1,4.8,5.9.7.9,2.4,2.8,4,2.8s1.2-.7,1.2-1.4c0-1.9-.5-8.3-.5-11.4,0-6.2.5-24.7.7-27.3.4-2.9.7-4.2,4.5-5.5,1.3-.4,1.8-1,1.8-1.5s-.5-1-1.8-1c-1.9,0-4.9.4-8.4.4s-3.1,0-5,0-2.1.4-2.1.9c0,.9,1,1.3,2.4,1.7,3.7,1,4.4,2.6,4.5,4.1.2,1.9.4,5.3.4,7.8,0,6.1.2,14.4-.1,16.5,0,.1-.3.8-.6.4-3.9-4.1-18.2-19-21.8-23.3-3-3.5-5-5.8-6.1-7.1-.2-.2-1.2-1-1.6-1-3.7,0-9.5-.3-11.1-.3M403.5,388.9c0,.3-.2.6-.3.6-2.3,0-7.8,0-10.6.1-.3,0-.6-.4-.5-.7.4-1.8,4-11,5.3-14.5.2-.6.7-.7.8-.2,1,2.4,4.2,11.3,5.3,14.7M403.4,364.1c-.6-1.5-.9-1.6-1.2-1.6s-.9.3-1.3,1c-.5.8-2.8,3.5-3.8,4.5-.2.1-.1.4-.1.6s-.3,1.2-.4,1.3c-3.1,7.2-11,28.1-12.7,31.6-2.1,4.3-2.9,5.5-6.7,6.5-1.5.4-1.8.9-1.8,1.5s.4.9,2.1.9,4.4-.3,7.2-.3,4.5.1,5.9.1,2.2-.4,2.2-1-.7-1.1-2.1-1.5c-2.7-.7-3.4-1.8-3.4-3.2s.8-4.8,3.1-10.6c.1-.2.6-.7.8-.7,1,0,4.5-.3,12.3-.2.9,0,1.7.8,1.8,1.1,1.7,4.7,3.2,8.8,3.4,10.7.1,1.2,0,2.3-2.9,3.1-1.4.3-1.9.9-1.9,1.2,0,.7.9,1.1,2.3,1.1s4.8-.1,7.2-.1,7.8.3,9.6.3,2.4-.6,2.4-1.1-.7-1-1.9-1.3c-2.5-.7-4.1-1.5-6.5-7.4-1.5-3.6-6.4-16.9-10.5-28.2-1-2.7-2.3-6.4-2.9-8.2M158.1,432.4c-1.3-.3-3-.6-4.7-.6-2.9,0-6.7.7-9.7,3.2-1.5,1.2-4,4.3-4,8.6s1.7,6.5,3,8.1c1.5,1.7,5.3,4.1,10.6,4.1s5.8-.9,6.3-1c.5-.2,1.2-.8,1.3-1.1.3-.6.9-2.2,1.1-3.1.1-.4.1-1.3-.3-1.3s-.5.3-1,1.1c-.8,1.5-1.8,2.5-3.1,3.3-1.3.8-3,.8-3.5.8-2.8,0-6.1-1.4-8.1-5.4-.8-1.6-1.2-3.7-1.2-6.1,0-5.5,2.7-10,8.4-10s3.8.8,5.3,2.1c.6.5,1.1,1.4,1.5,2.6.2.5.5,1,.7,1,.4,0,.6-.6.6-1.4,0-1-.1-2.3-.2-3.3,0-.5-.3-1-.5-1-.8-.1-1.7-.3-2.6-.5M171.3,442.5c.6-.5,1.2-.8,1.8-.8,1,0,1.9.6,2.6,1.4,1.1,1.6,1.4,3.9,1.4,5.5s-.6,4-1.3,4.9c-.5.6-1.2.9-1.6.9-1.5,0-3.2-1.2-3.9-3.8-.3-.9-.4-2.3-.4-3.5,0-2.4.6-4,1.5-4.7M181.4,448c0-4.7-4-7.5-7.6-7.5s-4.7,1.1-5.8,2.1c-1.4,1.1-2.5,3.1-2.5,5.6s1.2,4.3,2.7,5.6c1.3,1.1,3.4,1.9,5,1.9s3.5-.4,5-1.5c1.3-.9,3.2-3.1,3.2-6.1M185.1,431.3c-.4.1-.6.4-.6.6s.2.4.6.8c.8.6,1,.8,1,1.2,0,1,0,4.4,0,6.3,0,5.7-.1,9.8-.2,11.4-.1,1.9-.3,2.4-1.5,2.7-.4,0-.9.2-.9.6s.2.4,1,.4,2.5-.1,3.4-.1,2.7.1,3.6.1,1-.1,1-.4-.3-.4-.8-.6c-1.4-.4-1.5-.8-1.6-1.7-.1-1.1-.1-5.8-.1-8.6,0-5.4.2-12.7.3-14,0-.1-.3-.4-.4-.4-1.4.9-3.1,1.2-4.7,1.6M200.5,442.5c.6-.5,1.2-.8,1.8-.8,1,0,1.9.6,2.6,1.4,1.1,1.6,1.4,3.9,1.4,5.5s-.6,4-1.3,4.9c-.5.6-1.2.9-1.6.9-1.5,0-3.2-1.2-3.9-3.8-.3-.9-.4-2.3-.4-3.5,0-2.4.6-4,1.5-4.7M210.6,448c0-4.7-4-7.5-7.6-7.5s-4.7,1.1-5.8,2.1c-1.4,1.1-2.5,3.1-2.5,5.6s1.2,4.3,2.7,5.6c1.3,1.1,3.4,1.9,5,1.9s3.5-.4,5-1.5c1.3-.9,3.2-3.1,3.2-6.1M214.5,442c-.2,0-.7.4-.7.6s.4.6,1.3,1.5c.2.2.2.5.2.8,0,3.2-.1,6-.2,7-.1,1.5-.2,2-1.5,2.3-.6.2-.9.4-.9.6,0,.3.5.5,1,.5.8,0,1.8-.1,3-.1s3.4,0,3.5,0c.5,0,1-.2,1-.5s-.2-.4-.9-.6c-1-.3-1.3-.8-1.3-1.5,0-2.7,0-6,0-8.4,0-.3.1-.7.3-.8.5-.4,1.4-.8,2.2-.8s1.9.5,2.4,1.2c.2.2.5.8.4,2.3v6.2c0,1.3-.4,1.7-1.3,2-.5.1-.7.4-.7.5,0,.3.1.5,1,.5s2.2,0,3,0,2.4.1,3.2.1.9-.2.9-.5-.4-.4-.8-.5c-1.3-.4-1.4-.7-1.5-1.8,0-.8,0-7.4,0-7.7,0-.4.1-1,.3-1.1.4-.3.9-.7,2.2-.7s1.9.5,2.3,1.2.5,1.4.5,2c0,1.2,0,5.2,0,6.1,0,1.4-.2,1.7-1.2,2-.4.1-.7.3-.7.5s.2.5.9.5,1.7-.1,3-.1,2.2.1,2.9.1,1-.2,1-.5-.2-.4-.7-.6c-.9-.3-1.2-.8-1.3-1.4,0-2.3-.1-6.1-.2-7.2,0-1.4-.4-2.7-1.4-3.6-.7-.8-1.6-1.3-3.1-1.3s-1.3.1-2.1.5c-.7.4-2.2,1.3-2.6,1.5,0,0-.2,0-.3-.1-.2-.3-.6-1-1.2-1.4-.6-.4-1.5-.7-2.6-.7-1.8,0-3.5.9-4.9,2.1-.1.1-.2-.1-.2-.2,0-.4.1-1,.1-1.5s-.1-.4-.3-.5c0,0-.1,0-.3,0-.9.5-3,1.4-3.9,1.7M252.2,443.9c1,1.2,1.6,3.1,1.6,4.5s-.5,3.8-1.4,4.8c-.8.8-1.4,1.1-1.8,1.1-.5,0-1.5-.2-2.2-1-.7-.6-1-1.7-1-2-.2-1.3-.3-3.5-.3-6.3s0-1.5,0-2c0-.1.2-.3.3-.4.3-.1.8-.3,1.4-.3,1.4,0,2.8.8,3.4,1.5M254.7,454.1c1.7-1.3,3.4-3.4,3.4-6.3s-.9-4.3-2.4-5.6c-1.1-1-2.8-1.6-4.6-1.6s-2.7.4-3.8,1.1c0,0-.1,0-.1-.2,0-.8,0-1.9,0-2.7,0-2.8.2-5.8.3-8.3,0-.2-.3-.6-.4-.6-.2,0-.5.1-1.2.5-1.2.6-2.7.9-3.9,1.2-.2,0-.6.4-.6.7s.4.3,1,.8c.6.5.7.9.8,1.1,0,.5.1,5.1.1,8.5s0,9.2-.2,12c0,.2.2.5.4.5s.3,0,.5-.1c.4-.2.6-.2.8-.1,1.2.4,3.5.8,4.8.8s3.8-.4,5.3-1.6M267.3,435.2c0-.8-.6-2.2-1.9-2.2s-1.4.2-1.8.6c-.4.4-.6,1.2-.6,1.6,0,.7.3,1.2.7,1.6s1.1.6,1.5.6c.9,0,2.2-1,2.2-2.2M262.5,441.8c-.6.1-1,.4-1,.7s.2.4.4.6c.8.6,1.2,1,1.2,1.3,0,.4,0,2.5,0,3.2,0,2.6,0,5.1-.2,5.6,0,.4-.5.8-1.3,1-.7.2-.9.4-.9.6s.4.5,1,.5,2.3-.1,3.5-.1,2.7.1,3,.1c.5,0,1-.2,1-.5s-.3-.5-.8-.7c-.9-.3-1.4-.4-1.4-1.5,0-1.3,0-2.5,0-3.6,0-2.1.1-6.9.2-8.1,0-.1-.2-.4-.4-.4-.6.1-2.9,1-4.3,1.3M278.8,453c-.3.2-1,.4-1.4.4-.7,0-2-.7-2-2.3s.2-1.1.6-1.4c.6-.4,2.3-.9,2.9-.9s.2.2.2.4c0,1.2,0,2.7-.1,3.2,0,.1-.1.6-.3.7M282.2,442.5c-.5-.8-1.5-2-3.8-2s-2.3.5-3.6,1.3c-2.2,1.4-3,2.4-3,3.5s.2.5.5.5,2.9-1.2,3.2-1.4c0,0,.1-.2.1-.3,0-1.2,0-1.6.2-1.7.2-.2.6-.2,1.2-.2,1.6,0,2.4,1.4,2.4,2.3,0,.5,0,2.5,0,2.8,0,.1-.2.4-.6.5-.8.2-4.1,1.2-4.9,1.5-.3.1-.9.4-1.3.9-.4.5-.6,1.2-.6,1.8,0,2,1.5,3.6,2.8,3.6s1.2-.1,1.6-.3c.5-.2,1.9-.9,2.9-1.5,0,0,.3,0,.3.1.5,1.4,1.7,1.7,2.7,1.7,2,0,3.7-1.8,3.7-2.5s0-.4-.1-.5c0,0-.1-.1-.2,0-.4.1-1.1.4-1.3.4-.6,0-1.3-.4-1.3-1.4s.1-4.7.1-6.1-.4-2.5-.8-3.1M169.1,224c-2.4-.6-3.6-1.3-3.9-3.3-.2-1.5-.3-8.6-.3-19.2v-13.9c0-2.9.5-3.9,3.4-4.7.9-.2,1.5-.8,1.5-1s-.5-.6-1.6-.6c-2.4,0-8.2.4-9.8.4s-6.8-.4-8.6-.4-1.6.4-1.6.7.8.8,1.4.9c1.9.5,3.3,1.1,3.7,3.3,0,1.2.2,4.1.2,7.7s0,20.3,0,24.2c0,3.8-.7,5.1-3.8,5.9-.8.2-1.5.4-1.5.8s.6.8,1.6.8c2.8,0,6.3-.5,9.2-.5s7.3.4,9.8.4,1.5-.2,1.5-.8-.4-.6-1.2-.8M269.5,200.7c-1.8-1.2-4.7-2.9-7.6-5.1-3.4-2.6-4.5-4.6-4.5-7.1,0-4.7,3.4-6.9,6.7-6.9s4.2.9,5.8,2.3c1.2,1.2,2.3,2.8,3.2,5.1.3.8.6,1.2.9,1.2s.6-.5.5-1.4c-.2-.7-.7-4.8-.6-6.4,0-.5-.4-.8-.7-.9-1.9-.5-4.9-1.2-9.3-1.2s-7.6,1.1-9.6,2.3c-3.2,2.1-5.6,5.2-5.6,10.5s3.1,10,11,15.1c5.1,3.2,8,6.2,8,9.6s-3.1,7.3-7.8,7.3-5-1.1-7-2.8c-1.9-1.7-3.5-3.8-4.2-6.2-.4-1-.6-1.7-1-1.7s-.8.6-.5,2c.5,2.7.6,5.6.8,6.9,0,.2.3.8.8,1,2.6,1,8.2,2.2,10.8,2.2,9.4,0,17.4-5.1,17.4-13.6s-4.1-9.9-7.5-12.4M236.8,224c-3.1-.8-3.7-2.1-3.8-5.9,0-3.9,0-22.5,0-24.2,0-3.6,0-6.5.2-7.7.4-2.1,1.8-2.8,3.7-3.3.6-.2,1.4-.6,1.4-.9s-.6-.7-1.6-.7c-1.8,0-6.4.4-8.6.4s-7.4-.4-9.8-.4-1.6.2-1.6.6.6.8,1.5,1c3,.8,3.3,1.8,3.4,4.7v13.3c0,.5-.2.7-.5.8-.1,0-3.8,0-8.1,0v-26h8.2v-5.5h-8.2v-7.3h-5.4v7.3h-8.2v5.5h8.2v26c-4.3,0-7.9,0-8.1,0-.4-.1-.5-.6-.5-1.9v-12.2c0-2.9.5-3.9,3.4-4.7.9-.2,1.5-.8,1.5-1s-.5-.6-1.6-.6c-2.4,0-8.2.4-9.8.4s-6.8-.4-8.6-.4-1.6.4-1.6.7.8.8,1.4.9c1.9.5,3.3,1.1,3.7,3.3,0,1.2.2,4.1.2,7.7s0,20.3,0,24.2c0,3.8-.7,5.1-3.8,5.9-.8.2-1.5.4-1.5.8s.6.8,1.6.8c2.8,0,6.3-.5,9.2-.5s7.3.4,9.8.4,1.5-.2,1.5-.8-.4-.6-1.2-.8c-2.4-.6-3.6-1.3-3.9-3.3-.2-1.3-.2-7.1-.3-15.8,0-.3.2-.5.3-.5.8-.2,21.4-.2,21.8,0,.4,0,.6.6.6,1.1,0,8.4-.1,13.9-.3,15.2-.3,2-1.5,2.7-3.9,3.3-.8.2-1.2.5-1.2.8,0,.6.7.8,1.5.8,2.5,0,6.6-.4,9.8-.4s6.5.5,9.2.5,1.6-.6,1.6-.8c0-.5-.6-.7-1.5-.8M259.8,147.1c-.6,1.3,0,2.9,1.3,3.4.3.1.6.2,1,.2,1.1,0,2.5-.5,3-.7.2,0,.3-.2.4-.4,0-.2,0-.4,0-.6-.2-.6-1.1-2.8-2.2-3.3-.3-.1-.7-.2-1-.2-1,0-1.9.6-2.4,1.6M265.9,154.3c-.7,0-3,.2-3.8,1.1-1,1.1-.9,2.7.2,3.7.5.4,1.1.7,1.7.7s1.4-.3,1.9-.9c.8-.9.8-3.2.7-3.9,0-.2-.1-.4-.2-.5-.1-.1-.3-.2-.5-.2h0,0ZM267.2,150.5c-.5,1.1,0,2.4,1.1,2.8.3.1.6.2.9.2h0c0,0,.2,0,.2,0,0,0,0,0,0,0,0,0,.2,0,.3,0,0,0,0,0,.1,0,.1,0,.2,0,.3-.1,0,0,0,0,0,0,.1,0,.2-.1.3-.2,0,0,0,0,0,0,0,0,.1-.1.2-.2,0,0,0,0,0,0,0,0,0,0,0,0h0c0,0,.1-.2.1-.3.5-1.1,0-2.4-1.1-2.8-.1,0-.3-.1-.4-.1,0,0,0,0-.1,0,0,0-.2,0-.3,0-.1,0-.2,0-.4,0,0,0,0,0,0,0,0,0-.2,0-.3,0,0,0,0,0-.1,0,0,0,0,0,0,0h0c-.1,0-.3.1-.4.2h0c0,0-.1,0-.2.1,0,0,0,0,0,0,0,0-.1.1-.2.2,0,0,0,0,0,0,0,.1-.1.2-.2.3M267.5,143.3c-.1,1.2,1.3,3.1,1.7,3.6.1.2.3.2.5.3h0c.2,0,.3,0,.5-.2.5-.4,2.3-1.9,2.4-3.2.1-1.4-.9-2.7-2.3-2.9,0,0-.2,0-.3,0-1.3,0-2.4,1-2.6,2.3M273.4,149.9c-.1.2-.1.4-.1.6,0,.2.1.4.3.5.5.3,2.2,1.4,3.4,1.4s.2,0,.4,0c1.4-.3,2.3-1.7,2-3.1-.2-1.2-1.3-2.1-2.5-2.1s-.4,0-.5,0c-1.2.3-2.5,2.2-2.9,2.8M274.4,160.4c1.2-.7,1.6-2.3,1-3.6-.6-1.1-2.8-1.7-3.5-1.9,0,0-.1,0-.2,0-.1,0-.3,0-.4.1-.2.1-.3.3-.3.5-.2.7-.7,2.9,0,4,.5.8,1.3,1.3,2.2,1.3s.9-.1,1.3-.4M260.1,152.9c-1.2-.6-2.2-1.6-2.7-2.9s-.5-2.7.1-3.9c.8-1.9,2.6-3.1,4.6-3.1s1.4.1,2.1.4c.3.1.6.3.8.5,0-.3,0-.7,0-1,.3-2.6,2.4-4.6,5-4.6s.4,0,.5,0c2.8.3,4.8,2.8,4.5,5.6,0,.3-.1.6-.2.9.3-.1.6-.2.9-.3.4,0,.7-.1,1-.1,2.4,0,4.5,1.7,4.9,4.1.3,1.3,0,2.7-.7,3.9-.7,1.1-1.9,1.9-3.2,2.2-.3,0-.6,0-.9,0h0c.2.2.4.5.6.8.7,1.2.9,2.6.5,3.9-.4,1.3-1.2,2.4-2.4,3.1-.8.4-1.6.7-2.5.7-1.8,0-3.5-1-4.4-2.6-.2-.3-.3-.6-.4-.9-.2.3-.3.6-.5.8-1,1.1-2.3,1.7-3.8,1.7s-2.5-.5-3.4-1.3c-2.1-1.9-2.2-5.1-.4-7.2.2-.2.5-.4.7-.6-.3,0-.6-.2-.9-.3M229.5,135.5c.8.4,2.3.2,2.7-.8.4-.9-.4-2.2-1.2-2.6-.8-.4-2.3-.2-2.7.8s.4,2.2,1.2,2.6M145.9,149.2c-.3,1.4.6,2.8,2,3.1.1,0,.2,0,.4,0,1.2,0,2.9-1,3.4-1.4.2-.1.3-.3.3-.5,0-.2,0-.4-.1-.6-.4-.6-1.7-2.5-2.9-2.8-.2,0-.4,0-.5,0-1.2,0-2.3.8-2.5,2.1M154.9,140.9c-1.4.1-2.4,1.4-2.3,2.9.1,1.2,1.9,2.8,2.4,3.2.1.1.3.2.5.2h0c.2,0,.4-.1.5-.3.4-.5,1.8-2.4,1.7-3.6-.1-1.4-1.3-2.3-2.6-2.3s-.2,0-.3,0M157.9,150.5c0-.1-.1-.2-.2-.3,0,0,0,0,0,0,0,0-.1-.1-.2-.2s0,0,0,0c0,0-.1,0-.2-.1h0c-.1-.1-.3-.2-.4-.2h0s0,0-.1,0c0,0-.2,0-.3,0,0,0,0,0,0,0-.1,0-.2,0-.4,0s-.2,0-.3,0c0,0,0,0-.1,0-.1,0-.3,0-.4.1-1.1.5-1.6,1.8-1.1,2.8,0,0,0,.2.1.3h0s0,0,0,0c0,0,0,0,0,0,0,0,.1.1.2.2h0c0,.2.2.2.3.3,0,0,0,0,0,0,0,0,.2.1.3.1,0,0,0,0,.1,0,0,0,.2,0,.3,0,0,0,0,0,.1,0,0,0,.2,0,.2,0h0s0,0,0,0c.3,0,.6,0,.9-.2,1.1-.5,1.6-1.8,1.1-2.8M158.5,155c0,.7-.1,3,.7,3.9.5.6,1.2.9,1.9.9s1.2-.2,1.7-.7c1.1-1,1.1-2.6.2-3.7-.8-.9-3.1-1.1-3.8-1.1h0c-.2,0-.4,0-.5.2-.1.1-.2.3-.2.5M159.8,149.1c0,.2,0,.4,0,.6,0,.2.2.3.4.4.5.2,1.9.7,3,.7s.7,0,.9-.2c1.3-.6,1.9-2.1,1.3-3.4-.4-1-1.4-1.6-2.4-1.6s-.7,0-1.1.2c-1.1.5-2,2.6-2.2,3.3M154.3,159.5c.6-1.1,0-3.3,0-4,0-.2-.2-.4-.3-.4-.1,0-.2-.1-.4-.1s-.1,0-.2,0c-.7.2-2.9.9-3.5,1.9-.7,1.2-.3,2.9.9,3.6.4.2.9.4,1.3.4.9,0,1.8-.5,2.2-1.3M147.4,154.7c-1.3-.3-2.4-1.1-3.2-2.2-.7-1.1-1-2.5-.7-3.9.5-2.4,2.6-4.1,4.9-4.1s.7,0,1.1.1c.3,0,.6.2.9.3-.1-.3-.2-.6-.2-.9-.3-2.8,1.7-5.3,4.5-5.6.2,0,.4,0,.5,0,2.6,0,4.8,2,5,4.6,0,.3,0,.6,0,1,.3-.2.6-.4.8-.5.6-.3,1.3-.4,2.1-.4,2,0,3.8,1.2,4.6,3.1.6,1.2.6,2.6.1,3.9-.5,1.3-1.4,2.3-2.7,2.9-.3.1-.6.2-.9.3.3.2.5.4.7.6,1.9,2.1,1.7,5.4-.4,7.2-.9.9-2.1,1.3-3.4,1.3s-2.8-.6-3.8-1.7c-.2-.2-.4-.5-.6-.8,0,.3-.2.6-.4.9-.9,1.6-2.6,2.6-4.4,2.6s-1.8-.2-2.5-.7c-1.2-.7-2-1.8-2.4-3.1s-.2-2.7.5-3.9c.2-.3.4-.5.6-.8h0c-.3,0-.6,0-.9,0M195.7,135.5c.8-.4,1.6-1.7,1.1-2.6-.4-.9-1.9-1.1-2.7-.8-.8.4-1.6,1.6-1.2,2.6.4.9,1.9,1.1,2.7.8M215.5,42.1c0-1.4-1.3-3.5-2.9-3.5s-2.9,2.1-2.9,3.5,1.3,3.5,2.9,3.5,2.9-2.1,2.9-3.5M233.5,47.1c1.1.1,2.2-1.2,2.3-2.2s-.6-2.5-1.8-2.7c-1.1-.1-2.2,1.2-2.3,2.2-.1,1,.7,2.5,1.8,2.7M191.2,42.2c-1.1.1-1.9,1.7-1.8,2.7.1,1,1.2,2.3,2.3,2.2s1.9-1.7,1.8-2.7c-.1-1-1.2-2.3-2.3-2.2M215,66.4c0-1.1-1.1-2.9-2.4-2.9s-2.4,1.7-2.4,2.9,1.1,2.9,2.4,2.9,2.4-1.7,2.4-2.9M229.9,70.7c.9.2,1.9-.9,2.1-1.7.1-.8-.4-2.2-1.3-2.3-.9-.2-1.9.9-2.1,1.7-.1.8.4,2.2,1.3,2.3M194.5,66.7c-.9.2-1.5,1.6-1.3,2.3.1.8,1.1,1.9,2.1,1.7.9-.2,1.4-1.6,1.3-2.3-.1-.8-1.1-1.9-2.1-1.7M214.5,86.7c0-.9-.9-2.3-1.9-2.3s-1.9,1.4-1.9,2.3.9,2.3,1.9,2.3,1.9-1.4,1.9-2.3M226.3,90.1c.7.1,1.5-.7,1.6-1.3s-.3-1.7-1-1.8c-.7-.1-1.5.7-1.6,1.3s.3,1.7,1,1.8M198.3,86.9c-.7.2-1.1,1.2-1,1.8.1.6.9,1.5,1.6,1.3.7-.2,1.1-1.2,1-1.8-.1-.6-.9-1.5-1.6-1.3M326.7,234.9c7.8,0,16-2.8,24.6-8.2-2,.1-4.6.2-7.6.2-6.3,0-12.8-.4-19.1-1.1-1.8-.2-3.5-.3-5.1-.3s-4,.2-5.5.5c2,2.1,3.2,4.4,3.9,6.7,2.3.2,5.1.8,8,2.2.3,0,.6,0,1,0M335.4,248.4c-3-5.6-8.3-12.2-17.1-13.2.5,3.1,0,5.8-.2,7.4,1.3.8,3,1.5,5,1.9,6.1,1.4,9.9,2.8,12.3,3.9M315.5,242.9c.6-1.9,3.8-14.3-11.4-20.4-.6-.2-1.2-.4-1.8-.4-1.3,0-2.5.5-2.8.8-6.2,5.1-14.6,9.3-20.3,11.8,3.5.8,7.8,2.9,10.8,8.5,3.3,6.3,2.9,10.9,1.9,13.6-.1.4-.3.7-.4,1,2.8-1.2,7.3-3.3,13.3-7,7.2-4.4,10.2-7.4,10.8-8.1M287.3,259.4c.8-.7,4.3-4.3,1.9-11.4-2.8,1.4-4.7,2.2-7.5,3.4-.4.5-1.3,2.1-.4,4.9.3.9,1,2.5,2.5,3.1,1,.5,2.2.4,3.5,0M267.8,247.4c6-2,11.7-4.3,17-6.9-1.1-1-2.2-1.8-3.3-2.3-11.8,5.6-25.8,9.6-41,11.8-.3,1.1-.6,2.3-.6,3.6.4,0,.8-.1,1.2-.2,3.1-2,8.4-4.5,16.4-4.9,4.2-.2,7.6-.7,10.3-1.2M253.8,259.1c9.1,0,16.5-3.8,22.2-11.4,0,0,0,0-.1,0-4.5,1.8-10.7,2.9-18.3,3.3-6.6.4-11.1,2.2-13.8,3.7-1.2.7-2.2,1.4-2.9,1.9,2.4.9,7.3,2.5,12.9,2.5h0M271.7,261.6c-1.7-1.1-3.5-2-5.3-2.7-4.5,2.1-8.9,2.7-12.6,2.7h0c-3.8,0-7.1-.6-9.8-1.3,3.8,3.2,11.1,6.7,24.7,6.7s8.7-.3,13.6-1c-3.3-.7-7-2.1-10.6-4.4M268.1,280.2c-1.1-4.4-3.1-8-5.5-10.9-9.1-.8-14.9-3.2-18.7-5.8,2.6,3.2,7,7,14.3,10.3,4.8,2.2,7.9,4.5,9.9,6.4M230,271.8c7.6,0,12.6-1,16.4-2-4.7-2.2-8.6-7.5-9.1-12.9-.6-7.6,2.2-11.8,5.3-14.4h-.1c-7,1.4-15.6,3.2-29.9,3.2h-.1c-14.3,0-23-1.8-29.9-3.2h-.1c3.2,2.6,5.9,6.8,5.3,14.4-.4,5.5-4.3,10.7-9.1,12.9,3.9,1,8.8,2,16.5,2s6.4-5.1,7.4-6.9c.2-.4.6-.6,1.1-.6s.2,0,.3,0c.5.1.9.5,1,1.1.8,7.2-.1,12.8-2.7,16.7h0c-.4.5-.7,1-1.1,1.5-.9,1.1-2,1.9-3,2.5,1.5-.3,2.9-.8,4.3-1.5,6.7-3.3,8.6-9.5,9-10.7.1-.5.6-.9,1.2-.9s1.1.4,1.2.9c.3,1.2,2.2,7.4,9,10.7,1.4.7,2.8,1.2,4.3,1.5-1-.6-2.1-1.4-3-2.5-3.4-3.9-4.7-10-3.8-18.2,0-.5.4-1,1-1.1s1.1.1,1.3.6c1,1.8,4.6,6.9,7.4,6.9M230.3,282c-1.1.3-2.1.6-3.6.7,2.7,2.4,6,2.8,7.8,2.8s.6,0,.8,0c.8-1,.3-2-.3-2.6-.8-.9-2.5-1.2-3.2-1.3-.5.1-1,.3-1.5.4M190.7,285.6c1.8,0,5.1-.4,7.8-2.8-1.5-.1-2.6-.4-3.6-.7-.5-.1-.9-.3-1.5-.4-.7,0-2.4.4-3.2,1.3-.6.6-1.1,1.6-.3,2.6.2,0,.4,0,.8,0M166.8,273.8c7.3-3.3,11.7-7.1,14.3-10.3-3.7,2.6-9.6,5-18.8,5.8-2.7,3.2-4.5,6.8-5.5,10.9,2-1.9,5.1-4.3,9.9-6.4M156.4,267c13.9,0,21.2-3.6,24.9-6.8-2.6.7-5.9,1.3-9.6,1.3s-8.1-.6-12.6-2.7c-1.9.8-3.8,1.7-5.6,2.9-3.6,2.3-7.3,3.6-10.6,4.4,4.9.7,9.4,1,13.6,1h0M149.4,247.9c5.7,7.3,13.2,11,22.2,11s10.1-1.4,12.4-2.3c-.7-.5-1.6-1.2-2.8-1.9-2.6-1.5-7.2-3.3-13.8-3.7-9-.5-14.7-1.9-18.1-3.2M140.4,240.5c5.3,2.6,11,5,17.1,6.9,2.7.5,6,.9,10.1,1.1,8,.5,13.3,2.9,16.4,4.9.4,0,.9.1,1.4.2,0-1.4-.3-2.6-.6-3.6-15.2-2.2-29.2-6.2-41-11.8-1.1.5-2.2,1.3-3.3,2.3M135.3,243.3c2.9-5.6,7.2-7.8,10.8-8.5-5.7-2.5-14.2-6.7-20.3-11.8-.4-.3-1.5-.8-2.8-.8s-1.3.1-1.8.4c-15.2,6.1-11.9,18.5-11.4,20.4.6.7,3.6,3.6,10.8,8.1,6.1,3.7,10.5,5.8,13.3,7-1.4-3-2.2-7.9,1.4-14.6M143.5,251.4c-2.8-1.2-4.7-2-7.5-3.4-.1.3-.2.7-.3,1-1.3,4.8.2,7.9,1.3,9.4.4.5.7.9.9,1,1.4.5,2.6.5,3.5,0,1.4-.7,2.1-2.3,2.4-3.1.9-2.8,0-4.4-.4-4.9M107.4,232.6c.7-2.2,1.9-4.5,3.9-6.7-1.5-.3-3.3-.5-5.5-.5s-3.3.1-5.1.3c-6.4.7-12.8,1.1-19.1,1.1h0c-3.1,0-5.7,0-7.7-.2,8.6,5.4,16.8,8.2,24.6,8.2s.7,0,1,0c2.9-1.4,5.7-2,8-2.2M102.1,244.5c2-.5,3.7-1.2,5-1.9-.3-1.6-.7-4.3-.2-7.4-8.8,1-14.1,7.6-17.1,13.2,2.4-1.1,6.3-2.5,12.3-3.9M88.6,212.9c4,4.9,8.3,8.3,12.7,10.3,1.6-.1,3.1-.2,4.5-.2,3.3,0,5.8.4,7.7,1,1.2-1,2.7-1.9,4.3-2.7-1.4-2.1-4.6-4.9-11.3-5.5-8.6-.7-14.4-1.9-17.9-2.8M85.7,209.4c0,0,6.6,2.7,21,3.9.7,0,1.4.1,2.1.3-1.3-3.6-2.1-7.4-2.1-11.2,0-5.7,1.6-11.3,4.6-16.6-2.7,1.1-5.2,1.7-7,2v2.5c0,.2,0,.5-.2.7-.8,4.6-4.4,8.9-11,8.9s-9.8-5.1-10.2-7.8h0s0-.2,0-.5v-9c-2.3,1.5-4.2,3.6-5.2,6.3-.3.9-.6,1.9-.7,3.1-.7,5.1.8,12.3,7.2,18,0,0,0,0,0,0,.3-.4.9-.6,1.4-.4M76.7,119.3c-3.2,13.8-.9,22.5,1.9,27.5,1.7-1.4,3.9-2.9,6.6-3.7-.3-1.8-.8-3.8-1.8-6-3.7-8.1-5.6-14-6.7-17.9M90.3,104.6c-3.6,6.6-7.4,16.1-7.3,25.6.7,1.8,1.6,3.8,2.5,5.9,1.1,2.4,1.7,4.6,2,6.5.6,0,1.2-.1,1.8-.1,1.2,0,2.4.1,3.6.3.8-2.8,1.1-6.9-.4-13-2.6-11.2-2.7-19.7-2.3-25.1M85.5,187.2c.7-.5,1.6-1,2.8-1.4,1.4-.5,2.7-.5,3.6-.5v-5.5c-2.1,0-4.3.5-6.4,1.3v6M89.1,188.2c-3.1,1-3.5,2.7-3.6,3.3v.3c0,.6,1.1,5.6,7.7,5.6s8.6-4.2,8.7-8.4c.1-5.5-4.5-7.8-6.5-8.6-.3-.1-.7-.2-1.1-.3v6.8c0,.4-.2.8-.5,1-.3.2-.8.3-1.2.1,0,0-1.5-.5-3.6.2M101.9,149.8c-1.3-1.1-5.9-4.9-12.5-4.9s-11.4,5.7-12.5,7.1v33c1.5-2.2,3.6-4.1,6.1-5.5h0c0,0,.5-.3.5-.3,3.2-1.7,6.8-2.5,10.3-1.8.9.1,1.7.3,2.4.6,2.3.9,4.2,2.2,5.6,3.9v-32.1M96,135.6c.2,3.2,0,5.8-.6,7.7,1.5.5,2.8,1.1,4,1.7,2.4-4,4.1-10.3.9-19.1-.7,2.2-2,5.3-4.3,9.7M104.4,185.2c3.8-.7,10.4-2.7,15.3-8.2,3.6-4.1,5.6-9.4,6-15.8-2.4,3.5-7,8.4-14.6,11.6-3.3,1.4-5.4,3-6.7,4.6v7.7ZM104.4,174c1.4-1.2,3.3-2.4,5.7-3.4,1.3-.6,2.6-1.2,3.8-1.9,1.1-1.7,2-3.7,2.5-6.1,1.6-7.9,4.3-13.1,6.6-16.3-8.6,3.9-14.3,10-17.1,18.3-.8,2.3-1.2,4.4-1.5,6.4v3h0ZM104.4,161.5c1.8-4.1,4.8-8.8,9.9-12.8.6-5.3,0-11.1-1.8-17.4-.5,5.5-2.4,13.3-7.9,22.2,0,.1-.1.2-.2.3v7.6h0ZM136,166.5c-4.2,2.4-8,5-11.3,7.7-.9,1.6-2,3.1-3.2,4.5-1.7,1.9-3.7,3.5-5.6,4.7-4.3,5.9-6.6,12.3-6.6,18.9s.9,8,2.5,11.9c2.3.7,4,1.7,5.3,2.7-2.9-4.7-4.4-9.6-4.4-14.6,0-11.7,8.3-22.9,23.4-31.9-.4-.2-.7-.7-.6-1.2,0-.5.2-1.6.4-2.7M134.4,161.1c1.1.3,2.5.7,3.5.7s.6,0,.7,0c.6-.2,1-.7,1.2-1.3.2-.6.2-1.2,0-1.8-.4-.8-1.2-1.4-2.1-1.4s-.6,0-.9.2c-.6.3-1.6,1.9-2.4,3.6M131.7,153.5c1.3.9,3,1.7,3.8,1.7h.1c.6-.1,1.1-.4,1.5-.9.4-.5.5-1.1.4-1.7-.2-1.2-1.4-2.1-2.6-1.9-.7.1-2,1.4-3.2,2.8M136.3,140.2c-2.1,2.6-1.5,5.4-.1,8,0,0,.1,0,.2,0,0-2.7.6-5.2,2.6-7.2,1.2-1.2,2.7-2,4.3-2.4-.8-.3-1.7-.4-2.7-.4s-3.1.3-4.4,2M146.8,141.1c-.3,0-.9-.1-1.4-.1-1.9,0-3.4.6-4.6,1.9-1.8,1.8-2.1,4.1-1.7,7.1.5.6.9,1.4,1,2.3.2,1,0,2.1-.5,3,1.1.5,2.1,1.3,2.6,2.5.5,1.1.6,2.4.1,3.6,1,.3,1.8.8,2.5,1.6.6.7.9,1.5,1,2.3,1.9,2.3,3.8,3.6,6.3,3.4,3.2-.2,4.7-2.5,5.4-3.4.1-.2.2-.4.4-.5.2-.3.6-.5,1-.5s.5,0,.9.1c.7.1,1.7.3,2.9.3,2.9,0,5.3-1,7.4-3.1,3.6-3.5,4.8-9.7,2.7-13.7,0,0,0,0,0,0h0c0,0,0-.1,0-.2,0,0,0-.2-.1-.3l-2.6-5.9c0,0,0-.1-.1-.2,0,0,0,0,0-.1h0c0-.2-.1-.4-.2-.5-1.7-4-6.8-7-11.7-6.7-5.5.4-7.9,4.2-8.9,5.9-.4.6-.7,1.2-1.5,1.2h-.1c-.2,0-.3,0-.5,0M149.8,132.4c-.9,1.2-1.4,2.6-1.5,4.1,1.7-2.1,4.6-4.7,9.4-5,3.8-.2,7.6,1.1,10.4,3.4-1.9-4.6-5.1-7-9.3-7s-.5,0-.8,0c-3.4.3-6.4,1.9-8.1,4.4M171.9,138.3c-.2.6-.2,1.3,0,1.9l3,6.7c.4.9,1.2,1.4,2.2,1.4s.7,0,1-.2c.5-.2.8-.6,1.1-1,0,0,0,0,0-.1l-4.4-10.1s0,0,0-.1c-.1,0-.3,0-.5,0-.3,0-.7,0-1,.2-.6.3-1,.7-1.3,1.4M176.9,134c-.2.6-.2,1.3,0,1.9l4.4,10.1c.4.9,1.2,1.4,2.2,1.4s.7,0,1-.2c.6-.3,1-.7,1.3-1.4.2-.6.2-1.3,0-1.9l-4.4-10.1c-.4-.9-1.2-1.4-2.2-1.4s-.7,0-1,.2c-.6.3-1,.8-1.3,1.4M184.6,131.8c-.5.2-.8.6-1.1,1,0,0,0,0,0,.1l4.4,10.1s0,0,0,.1c.1,0,.3,0,.5,0,.3,0,.7,0,1-.2,1.2-.6,1.8-2,1.2-3.2l-3-6.8c-.4-.9-1.2-1.4-2.2-1.4s-.7,0-1,.2M185.9,125.6c2.2-.2,4.4-.7,6.4-1.5l-15.7-7.1c-.4,0-.7,0-1.1-.2,2.2,3.4,5.7,6.9,10.4,8.8M164,122c2.1,1.3,7.1,3.6,16.7,3.8-4.6-3.1-7.8-7.6-9.2-11.1-1.2-2.9-3.1-8-5.7-18.4-.1-.5-.2-.9-.3-1.4l-4.6,1,.9,4.5-3.9.8-.9-4.5-4.4.9c1.5,8.8,3.8,19.6,11.4,24.4M156.2,92.7l-.9-4.5,3.9-.8.9,4.5,4.6-1c0-.1,0-.2,0-.3-.3-1.5-.6-3.2-.9-5-1.6-9.6-3.7-22.7-12.2-26.8-3.1-1.5-5.5-2.2-10.3-2.2s-1,0-1.6,0h-.1c2.4,1.9,5.6,5.2,8.1,13,1.3,4,2.8,13.8,4,21.8.1.8.2,1.5.4,2.3l4.2-.9h0ZM151,102.7c-.6-2.7-1-5.3-1.3-7.7-.1-.8-.2-1.6-.4-2.5l-31.6-14.3-1.6,3.6-1.9,4.3,36.8,16.6h0ZM150.2,105.1l-35.5-16-2.7,6.2,1.6.7c.6.3.9,1,.6,1.7l-2.4,5.5c-.3.6-1,.9-1.6.6l-1.6-.7-2.5,5.6,13.9,6.2,2.5-5.6-1.6-.7c-.3-.1-.5-.4-.7-.7s-.1-.7,0-1l2.4-5.4c.3-.6,1-.9,1.6-.6l1.6.7.7-1.6c.3-.6,1-.9,1.6-.6l5.4,2.4c.3.1.5.4.6.7.1.3.1.7,0,1l-.7,1.6,1.6.7c.3.1.5.4.6.7s.1.7,0,1l-2.4,5.5c-.3.6-1,.9-1.6.6l-1.6-.7-2.5,5.6,13.9,6.2,2.5-5.6-1.6-.7c-.6-.3-.9-1-.6-1.7l2.4-5.4c.1-.3.4-.5.7-.7s.6-.1.9,0l1.6.7,2.7-6.2h0ZM116,76.2c.3-.6.3-1.3,0-1.9-.2-.6-.7-1.1-1.3-1.3-.3-.1-.6-.2-1-.2-.9,0-1.8.6-2.2,1.4l-4.4,10.1c-.3.6-.3,1.2,0,1.9.2.6.7,1.1,1.3,1.3.3.1.6.2,1,.2.9,0,1.8-.6,2.2-1.4l4.4-10.1h0ZM109.3,73.2s0,0,0-.1c-.2-.4-.6-.8-1.1-1-.3-.1-.6-.2-1-.2-.9,0-1.8.6-2.2,1.4l-3,6.8c-.5,1.2,0,2.7,1.2,3.2.3.1.6.2,1,.2s.3,0,.5,0c0,0,0,0,0-.1l4.4-10.1h0ZM102.7,72.6h-.2c-1.4,0-2.6.8-3.2,2.1-.6,1.4-.3,2.9.7,4l2.7-6.1h0ZM143.6,69c.3,0,.6,0,.9,0-2-4.5-3.8-7.5-5.3-9.4-1.1-1-2-1.7-2.8-2.3-.2-.1-.3-.3-.5-.4-.9,0-2.7.3-4.6,1.7-.5.3-.9.7-1.3,1-1.3,1-2.3,1.7-3.6,2.2.4,0,.8,0,1.3,0,1.2,0,2.4-.2,3.8-.7.7-.3,2.6-.5,3.4-.5,1.2,0,1.5.7,1.6,1.1,0,.2.1,1.1-.9,1.5-.8.3-1.5.9-2.3,1.5-.8.6-1.6,1.2-2.6,1.8.3,0,.6,0,.9,0,1.3,0,2.7-.3,4.2-.8.8-.3,2.6-.4,3.3-.4,1.1,0,1.5.6,1.6,1.1,0,.5,0,1.2-.8,1.5-.7.3-1.4.9-2.2,1.6-.9.8-1.9,1.7-3.2,2.2.4.2.9.3,1.5.3,1.2,0,2.5-.5,3.9-1.4h.2c.7-.6,1.7-1.3,3.6-1.4M169.8,101.8c1.5,5.5,2.7,8.8,3.6,11l25.7,11.6,10.4-4.7-39.7-17.9ZM197.4,101.4c-.8,3.2-2.4,5.9-4.3,8.2l11.7,5.3c2.3-2.9,4.1-6.3,5.2-10,.4-1.2.9-3.8,1.3-5.7-4.8,0-9.6.5-13.8,1.3v.9M193.5,98.9c.6-.2,1.2-.3,1.8-.5h0c10.2-2.3,24.6-2.3,34.7,0h0c.6.2,1.1.3,1.6.4,0,0,0,0,0,0,.4-.2.6-.5.7-.7.3-.6.1-1.5,0-2-5.4-1.7-12.4-2.6-19.8-2.6s-14.4.9-19.8,2.6c-.2.6-.3,1.4,0,2.1,0,.2.2.5.7.7,0,0,0,0,0,0M191.8,92.1c.3.5.5,1,.8,1.5,5.5-1.7,12.6-2.6,20-2.6s14.5.9,20.1,2.6c.2-.5.5-1,.7-1.5-.1,0-.3.1-.5.1-.2,0-.4,0-.6,0-1.1,0-2.1-.5-3-1.6-.4-.5-.4-1.2,0-1.7.1-.2.2-.3.3-.5.1-.5-.2-1-.6-1.2-.3-.1-.6-.4-.7-.7-.1-.3-.1-.7,0-1,0,0,0-.2.1-.3.1-.6-.3-1.2-.9-1.3-.6-.1-1.1.3-1.2.9,0,0,0,.2,0,.3,0,.3,0,.7-.3,1-.2.3-.6.4-.9.4-.5,0-.9.4-1,.9,0,.2,0,.4,0,.5.2.6,0,1.2-.5,1.5,0,0-.1,0-.1,0-.7.3-1.6.5-2.4.5-1.4,0-2.8-.6-3.8-1.6-.4-.3-.5-.9-.3-1.3.1-.4.3-.9.3-1,0-1-.7-1.8-1.6-2-.3,0-.6-.3-.8-.6-.2-.3-.2-.7-.1-1,0-.2,0-.4,0-.6,0-1.1-.9-2.1-2-2.1s-2,.9-2,2.1,0,.4,0,.6c.1.3,0,.7-.1,1-.2.3-.5.5-.8.6-.9.2-1.6,1-1.6,2s.1.7.3,1c.2.5,0,1-.3,1.3-1,1-2.4,1.6-3.8,1.6s-1.7-.2-2.4-.6c-.6-.3-.8-.9-.6-1.5,0-.2,0-.3,0-.5-.1-.5-.5-.9-1-.9s-.7-.2-.9-.4c-.2-.3-.3-.6-.3-1,0-.1,0-.2,0-.3-.1-.6-.7-1-1.2-.9-.3,0-.5.2-.7.5-.2.2-.2.5-.2.8,0,0,0,.2.1.3.2.3.2.7,0,1s-.4.6-.7.7c-.5.2-.8.7-.6,1.2,0,.2.1.4.2.5.4.5.4,1.2,0,1.7-.9,1.1-1.9,1.6-3,1.6s-.4,0-.6,0c-.2,0-.3,0-.5-.2M187.4,77.6c1.3,3.5,2.9,7,4.7,10.5.2.2.4.3.6.6.2.3.4.7.6,1,0,0,.1,0,.2,0,0-.2-.1-.4-.2-.7-.2-1.3.2-2.6,1.2-3.4-.1-.9,0-1.8.6-2.5.5-.8,1.3-1.3,2.3-1.5,0,0,.1,0,.2,0,.2,0,.3,0,.5,0,1.6,0,3.1,1.2,3.4,2.8,1.2.4,2.1,1.4,2.3,2.7,0,.2,0,.4,0,.5.2,0,.4,0,.5,0,.4,0,.9,0,1.5-.4,0-.3-.1-.7-.1-1,0-1.8,1-3.3,2.5-4.1h0c0-2.6,2-4.6,4.5-4.6s4.5,2,4.5,4.6h0c1.5.8,2.5,2.4,2.5,4.2s0,.7-.1,1c.5.3,1.1.4,1.5.4s.4,0,.5,0c0-.2,0-.4,0-.5.2-1.3,1.1-2.3,2.3-2.7.4-1.6,1.8-2.8,3.4-2.8s.3,0,.5,0c0,0,.1,0,.2,0,1.9.4,3.1,2.2,2.9,4.1.9.8,1.4,2.1,1.2,3.4,0,.2-.1.4-.2.7,0,0,.1,0,.2,0,.1-.3.3-.7.6-1,.2-.2.4-.4.6-.6,1.8-3.5,3.4-7,4.7-10.5-3.3-.9-7.3-1.7-11.6-2.2-4.3-.5-8.9-.8-13.7-.8s-9.4.3-13.6.8c-4.3.5-8.2,1.2-11.6,2.2M183.3,70.1c.9,1.7,1.7,3.6,2.4,5.4,7-2.1,16.7-3.3,26.9-3.3s20,1.2,26.9,3.3c.6-1.8,1.5-3.8,2.4-5.5-.4,0-1,.3-1.3.7-.2.3-.5,1-.6,1.5-.1.5-.5.8-1,.9-1.9.3-3.8-.4-5-1.8-.4-.5-.4-1.2,0-1.7.2-.2.4-.5.4-.8.1-.8-.3-1.6-1-1.9-.3-.1-.6-.4-.7-.7-.1-.3-.1-.7,0-1,0-.2.1-.3.2-.5,0-.4,0-.9-.3-1.3-.3-.4-.6-.6-1.1-.7-.9-.2-1.8.5-2,1.4,0,.2,0,.3,0,.5,0,.3,0,.7-.3,1-.2.3-.6.4-.9.4-.8,0-1.5.6-1.6,1.4,0,.3,0,.6,0,.8.2.6-.1,1.3-.7,1.6-.9.4-1.9.7-2.9.7-1.7,0-3.3-.7-4.6-1.9-.4-.4-.5-1-.2-1.4.2-.4.3-.8.3-1.3,0-1.4-1-2.6-2.3-2.9-.4,0-.6-.3-.8-.6-.2-.3-.2-.7-.1-1,0-.3.1-.5.1-.8,0-1.6-1.3-2.9-2.9-2.9s-2.9,1.3-2.9,2.9,0,.6.1.8c.1.3,0,.7-.1,1-.2.3-.5.5-.8.6-1.4.3-2.3,1.5-2.3,2.9s0,.8.3,1.2c.1.2.2.4.2.6,0,.3-.1.7-.4.9-1.2,1.2-2.8,1.9-4.5,1.9s-2.1-.2-2.9-.7c-.6-.3-.8-.9-.6-1.5,0-.3.1-.6,0-.9-.1-.8-.8-1.4-1.6-1.4s-.7-.2-.9-.4c-.2-.3-.3-.6-.3-1,0-.2,0-.3,0-.5-.2-.9-1.1-1.5-2-1.4-.4,0-.8.3-1.1.7s-.4.8-.3,1.3c0,.2,0,.3.2.5.1.3.2.7,0,1-.1.3-.4.6-.7.7-.7.3-1.2,1.1-1,1.9,0,.3.2.6.4.8.4.5.4,1.2,0,1.7-1.1,1.2-2.5,1.8-4.1,1.8s-.6,0-.9,0c-.5,0-.9-.4-1-.9-.1-.4-.4-1.2-.6-1.4-.3-.4-.9-.6-1.3-.7M204.9,51.7c-8.4.3-16.4,1.2-23,2.6.3,4,1.1,8.6,2.3,13.4.8.2,1.6.7,2.3,1.5.3.4.6,1,.8,1.4.5,0,1-.2,1.4-.4-.1-.3-.2-.6-.3-1-.3-1.6.3-3.2,1.5-4.1h0c-.2-1.1,0-2.2.6-3.2.6-.9,1.6-1.6,2.7-1.8.3,0,.5,0,.8,0,2,0,3.7,1.4,4.1,3.4h0c1.5.4,2.6,1.7,2.9,3.2,0,.1,0,.3,0,.4,0,.2,0,.3,0,.5.3,0,.6.1,1,.1.6,0,1.4-.1,2.2-.7-.1-.5-.2-1-.2-1.5,0-2.2,1.3-4.1,3.2-5v-.3c0-3,2.4-5.4,5.4-5.4s5.4,2.4,5.4,5.4v.3c1.9.9,3.2,2.8,3.2,5s0,1-.2,1.4c.8.5,1.6.7,2.2.7s.7,0,1-.1c0-.2,0-.3,0-.5,0-.1,0-.3,0-.4.3-1.6,1.4-2.8,2.9-3.2h0c.4-2,2.1-3.4,4.1-3.4s.5,0,.8,0c1.1.2,2,.8,2.7,1.8.6.9.9,2.1.6,3.2,1.2.9,1.8,2.5,1.5,4.1,0,.3-.2.7-.3,1,.4.2.9.4,1.4.4.2-.5.4-1.1.8-1.4.7-.8,1.5-1.3,2.3-1.5,1.2-4.8,2-9.4,2.3-13.4-6.6-1.4-14.6-2.2-23-2.6-5.1-.2-10.2-.2-15.3,0M180.7,52c17.9-3.9,45.8-3.9,63.7,0,.3-2.3,1-4.6,1.8-6.5-.3.2-.7.4-.9.8-.4.7-1.1,2.3-1.1,2.3-.2.3-.5.6-.9.7-2,.4-3.2,0-4.9-1.6-.4-.4-.5-1.2-.1-1.7.3-.3.4-.7.5-1.2.1-1.1-.6-2.1-1.6-2.5-.3,0-.6-.3-.8-.7-.1-.3-.1-.7,0-1,0-.2.1-.4.2-.6.1-1.3-.8-2.4-2-2.5-1.2-.2-2.4.8-2.5,2,0,.2,0,.4,0,.7,0,.3,0,.7-.2,1s-.5.5-.9.5c-1.1,0-1.9,1-2.1,2,0,.4,0,.8.1,1.1,0,.2.1.3.1.5,0,.5-.3,1-.8,1.2-2.6,1.2-6.5,1-8.5-1.6-.3-.4-.4-1,0-1.4.2-.5.3-1,.3-1.6,0-1.8-1.3-3.4-3-3.7-.3,0-.6-.3-.8-.6-.2-.3-.2-.7-.1-1,.1-.3.1-.7.1-1.1,0-2.1-1.7-3.8-3.7-3.8s-2.8.9-3.4,2.3c-.2.5-.3,1-.3,1.5s0,.7.1,1.1c0,.2,0,.4,0,.6,0,.1,0,.3-.1.4-.2.3-.5.5-.8.6-1.4.3-2.6,1.4-2.9,2.8,0,.3-.1.6-.1.9,0,.6.1,1.1.4,1.6.2.4.2,1-.1,1.4-2,2.6-5.8,2.8-8.5,1.6,0,0-.2,0-.2-.1-.5-.3-.7-1-.4-1.5.1-.4.2-.8.2-1.2-.1-1.1-1-2-2.1-2-.4,0-.7-.2-.9-.5s-.3-.6-.2-1c0-.2,0-.4,0-.7-.1-1.3-1.3-2.2-2.5-2s-2.1,1.3-2,2.5c0,.2,0,.4.2.6.1.3.1.7,0,1-.1.3-.4.6-.8.7-1,.3-1.7,1.4-1.6,2.5,0,.4.2.8.5,1.2.4.5.3,1.2-.1,1.7-1.7,1.7-2.9,2.1-4.9,1.6-.4,0-.7-.3-.9-.7,0,0-.8-1.6-1.1-2.3-.2-.4-.5-.7-.9-.8.7,1.9,1.4,4.3,1.8,6.5M182.5,41.6c-.3.9-.4,2-.6,3.3,0,0,.1.2.1.2.2.5.6,1.2.9,1.8.5,0,.9,0,1.4-.5-.2-.4-.3-.9-.4-1.4-.2-1.9.7-3.7,2.2-4.6,0,0,0,0,0-.2-.3-2.6,1.6-5,4.2-5.3,2.6-.3,5,1.6,5.2,4.3,0,0,0,0,0,.2,1.7.6,2.9,2.1,3.2,4,0,.4,0,.7,0,1.1,1.3.3,3,.2,4.1-.7-.2-.6-.3-1.3-.3-1.9s0-1.1.2-1.6c.5-1.9,1.8-3.5,3.6-4.2,0-.2,0-.4,0-.5,0-.9.2-1.7.5-2.5.7-1.6,2-2.9,3.6-3.4.6-.2,1.3-.4,2.1-.4s1.4.1,2.1.4c2.4.9,4.1,3.2,4.1,5.9s0,.4,0,.5c2.3,1,3.8,3.2,3.8,5.8s-.1,1.3-.3,1.9c1.1.9,2.8,1,4.1.7,0-.4,0-.7,0-1.1.2-1.9,1.5-3.4,3.2-4,0,0,0-.1,0-.2.3-2.6,2.6-4.5,5.3-4.3,2.6.3,4.5,2.7,4.2,5.3,0,0,0,0,0,.2,1.5,1,2.4,2.8,2.2,4.6,0,.5-.2,1-.4,1.4.5.4.9.5,1.4.5.3-.5.6-1.3.9-1.8,0,0,0-.2.1-.2-.1-1.2-.3-2.3-.6-3.3-2.5-9.4-12.7-18.8-29.8-18.9h-.6c-17,.1-27.2,9.6-29.8,18.9M212.6,13.3c-1.8,0-3.3,1.5-3.3,3.4s1.5,3.4,3.3,3.4,3.3-1.5,3.3-3.4-1.5-3.4-3.3-3.4M232.2,109.5c-1.9-2.2-3.4-4.9-4.2-8.1h0c0-.1-.1-.9-.1-.9-4.1-.8-8.9-1.3-13.8-1.3.3,1.9.9,4.4,1.3,5.7,1.2,3.7,2.9,7.1,5.2,9.9l11.7-5.3M218.2,115.9c-2.2-3-4-6.4-5.2-10.2,0-.3-.2-.6-.3-1-.1.4-.2.7-.3,1-1.2,3.8-3,7.3-5.3,10.3l5.4,2.4,5.6-2.5h0ZM199.3,127.1l3.4,7.8,49.2-22.2c.9-2.2,2.1-5.6,3.6-11,0,0-56.3,25.4-56.3,25.4ZM259.6,96.2c-2.5,10.4-4.5,15.4-5.7,18.4-1.5,3.5-4.6,8-9.2,11.1,9.7-.2,14.6-2.4,16.7-3.8,7.6-4.8,10-15.6,11.4-24.4l-4.4-.9-.9,4.5-3.9-.8.9-4.5-4.6-1c-.1.5-.2,1-.3,1.4M260.8,90.7c0,0,0,.1,0,.2l4.6,1,.9-4.5,3.9.8-.9,4.5,4.2.9c.1-.7.2-1.5.4-2.3,1.2-7.9,2.7-17.8,4-21.8,2.5-7.7,5.8-11,8.1-13h-.1c-.6,0-1.1,0-1.6,0-4.8,0-7.2.7-10.3,2.2-8.5,4.1-10.6,17.2-12.2,26.8-.3,1.8-.6,3.5-.9,5h0M289,57.3c-.5.5-1.2,1-2,1.6-1.5,1.8-3.6,5-5.9,10,.3,0,.6,0,.9,0,1.9.2,2.9.8,3.6,1.3h.2c1.4,1.1,2.7,1.5,3.9,1.5s1.1,0,1.5-.3c-1.3-.5-2.3-1.4-3.2-2.2-.7-.7-1.4-1.2-2.2-1.6-.8-.3-.9-1-.8-1.5.1-.5.5-1.1,1.6-1.1s2.6.2,3.3.4c1.5.6,3,.8,4.3.8h0c.3,0,.6,0,.9,0-1-.5-1.8-1.2-2.6-1.8-.8-.6-1.5-1.2-2.3-1.5-1-.4-.9-1.3-.9-1.5,0-.4.4-1.1,1.6-1.1s2.7.2,3.4.5c1.3.5,2.6.7,3.8.7s.9,0,1.3-.1c-1.3-.5-2.3-1.3-3.6-2.2-.4-.3-.8-.6-1.3-1-2.1-1.5-4-1.7-4.8-1.7-.2.1-.3.3-.5.4M276.1,92.5c-.1.9-.3,1.8-.4,2.6-.4,2.4-.8,4.9-1.3,7.6l36.5-16.5v-.3c-.1,0-3.4-7.5-3.4-7.5l-31.4,14.2h0ZM309.2,74.3c-.2.6-.2,1.3,0,1.9l4.5,10.1c.4.9,1.2,1.4,2.2,1.4s.7,0,1-.2c.6-.3,1-.8,1.3-1.3.2-.6.2-1.3,0-1.9l-4.5-10.1c-.4-.9-1.2-1.4-2.2-1.4s-.7,0-1,.2c-.6.3-1,.8-1.3,1.3M316.9,72c-.5.2-.8.6-1.1,1,0,0,0,0,0,.1l4.5,10.1s0,0,0,.1c.1,0,.3,0,.5,0,.3,0,.7,0,1-.2,1.2-.6,1.8-2,1.2-3.2l-3-6.8c-.4-.9-1.2-1.4-2.2-1.4s-.7,0-1,.2M322.7,72.6h-.2l2.7,6.1c1-1,1.3-2.6.7-4-.6-1.3-1.8-2.1-3.2-2.1M311,97.7c-.3-.6,0-1.4.6-1.7l1.6-.7-2.7-6.2-35.5,16,2.7,6.2,1.6-.7c.3-.1.6-.2,1,0s.5.4.7.7l2.4,5.4c.3.6,0,1.4-.6,1.7l-1.6.7,2.5,5.6,13.9-6.2-2.5-5.6-1.6.7c-.6.3-1.4,0-1.6-.6l-2.4-5.5c-.1-.3-.1-.7,0-1,.1-.3.4-.6.6-.7l1.6-.7-.7-1.6c-.1-.3-.1-.7,0-1s.4-.6.6-.7l5.4-2.4c.6-.3,1.4,0,1.6.6l.7,1.6,1.6-.7c.6-.3,1.4,0,1.6.6l2.4,5.4c.1.3.1.7,0,1-.1.3-.4.6-.6.7l-1.6.7,2.5,5.6,13.9-6.2-2.5-5.6-1.6.7c-.6.3-1.4,0-1.6-.6l-2.4-5.5h0ZM239.5,125.6c4.7-1.8,8.2-5.4,10.4-8.8-.4,0-.9.1-1.3.2l-15.6,7c2.1.8,4.3,1.3,6.5,1.5M234.5,139.7c-.5,1.2,0,2.7,1.2,3.2.3.1.6.2,1,.2s.3,0,.5,0c0,0,0,0,0-.1l4.4-10.1s0,0,0-.1c-.2-.4-.6-.8-1.1-1-.3-.1-.6-.2-1-.2-.9,0-1.8.6-2.2,1.4l-3,6.8h0ZM239.4,144c-.3.6-.3,1.3,0,1.9s.7,1.1,1.3,1.4c.3.1.6.2,1,.2.9,0,1.8-.6,2.2-1.4l4.4-10.1c.3-.6.3-1.3,0-1.9s-.7-1.1-1.3-1.4c-.3-.1-.6-.2-1-.2-.9,0-1.8.6-2.2,1.4l-4.4,10.1h0ZM246.1,147s0,0,0,.1c.3.4.6.8,1.1,1,.3.1.6.2,1,.2.9,0,1.8-.6,2.2-1.4l3-6.7c.3-.6.3-1.3,0-1.9-.2-.6-.7-1.1-1.3-1.4-.3-.1-.6-.2-1-.2s-.3,0-.5,0c0,0,0,0,0,.1l-4.4,10.1h0ZM252.8,147.5c0,0,0,.2-.1.3,0,0,0,.1,0,.2h0c-2.1,4-.9,10.2,2.7,13.7,2,2,4.5,3.1,7.4,3.1s2.2-.2,2.9-.3c.4,0,.6-.1.9-.1.4,0,.8.2,1,.5.1.1.3.3.4.5.7,1,2.2,3.2,5.4,3.4,2.5.2,4.5-1.2,6.4-3.4.1-.8.4-1.6,1-2.3.6-.8,1.5-1.4,2.5-1.6-.4-1.2-.4-2.5.1-3.6.5-1.2,1.4-2,2.6-2.5-.5-.9-.6-1.9-.5-3,.1-.9.5-1.7,1-2.3.4-2.9,0-5.3-1.7-7.1-1.2-1.2-2.8-1.9-4.6-1.9s-1.1,0-1.5.1c-.2,0-.4,0-.5,0h-.1c-.8,0-1.1-.6-1.5-1.2-1-1.7-3.4-5.6-8.9-5.9-4.9-.3-10,2.7-11.7,6.7,0,.1-.1.3-.2.5h0c0,0,0,.1,0,.2,0,0,0,.2-.1.2l-2.6,5.9h0ZM267.2,128c-4.6-.3-8.1,2.1-10.1,7,2.6-2.1,6.1-3.5,9.5-3.5s.6,0,.9,0c4.8.3,7.7,2.9,9.4,5-.1-1.5-.6-2.9-1.5-4.1-1.8-2.5-4.8-4.1-8.2-4.4M284.6,138.2c-.9,0-1.8.2-2.6.4,1.6.4,3.1,1.1,4.3,2.4,2,2,2.7,4.6,2.6,7.2,0,0,.1,0,.2,0,1.4-2.6,1.9-5.4-.1-8-1.3-1.6-3.1-2-4.4-2M293.5,153.5c-1.2-1.4-2.5-2.7-3.2-2.8-.1,0-.2,0-.4,0-1.1,0-2,.8-2.2,1.9,0,.6,0,1.2.4,1.7.4.5.9.8,1.5.9h.1c.8,0,2.5-.9,3.8-1.7M287.2,161.8c1,0,2.5-.4,3.5-.7-.8-1.7-1.8-3.3-2.4-3.6-.3-.1-.6-.2-.9-.2-.9,0-1.7.5-2.1,1.4-.2.6-.3,1.2,0,1.8s.6,1,1.2,1.3c0,0,.3,0,.7,0M300.5,174.2c-3.3-2.7-7-5.3-11.3-7.7.2,1.1.4,2.2.4,2.7,0,.5-.2,1-.6,1.2,15.2,9,23.4,20.2,23.4,31.9s-1.5,9.9-4.4,14.6c1.3-1.1,3.1-2,5.3-2.7,1.7-3.8,2.5-7.8,2.5-11.9,0-6.6-2.3-12.9-6.6-18.9-2-1.2-3.9-2.8-5.6-4.7-1.2-1.4-2.3-2.9-3.2-4.5M314.1,172.8c-7.6-3.2-12.1-8.1-14.6-11.6.4,6.4,2.4,11.8,6,15.8,4.9,5.4,11.5,7.4,15.3,8.1v-7.7c-1.3-1.7-3.4-3.3-6.7-4.7M302.3,146.3c2.2,3.2,5,8.4,6.6,16.3.5,2.4,1.4,4.4,2.5,6.1,1.1.7,2.4,1.3,3.7,1.9,2.4,1,4.3,2.2,5.8,3.4v-3c-.2-1.9-.7-4.2-1.5-6.5-2.8-8.2-8.5-14.3-17.1-18.2M312.7,131.3c-1.7,6.3-2.3,12.1-1.8,17.4,5.1,4,8.1,8.6,9.9,12.8v-7.6c0-.1-.1-.2-.2-.3-5.5-8.9-7.4-16.7-7.9-22.2M321,191c-.1-.2-.2-.4-.2-.7v-2.5c-1.8-.3-4.3-.9-7-2,3,5.3,4.6,10.9,4.6,16.6s-.7,7.6-2,11.2c.7-.1,1.4-.2,2.1-.3,14.5-1.2,21-3.8,21-3.9.5-.2,1.1,0,1.5.4,0,0,0,0,0,0,3.5-3.1,5.3-6.5,6.2-9.1,1.1-3.3,1.3-6.4.9-8.9-.2-1.2-.4-2.2-.7-3.1-.8-2.2-2.7-4.5-5.2-6.2v8.9c0,.3,0,.5,0,.5h0c-.3,2.7-2.8,7.8-10.1,7.8s-10.1-4.3-11-8.9M336.9,185.9c1.2.4,2.1.9,2.8,1.4v-6c-2.1-.8-4.3-1.3-6.4-1.3v5.5c.9,0,2.1,0,3.6.5M331.4,187.9c-.3-.2-.5-.6-.5-1v-6.8c-.4,0-.7.2-1,.3-2,.8-6.6,3.1-6.5,8.6,0,4.2,2.8,8.4,8.7,8.4s7.6-4.9,7.7-5.6v-.3c0-.6-.5-2.3-3.6-3.3-2.1-.7-3.5-.2-3.6-.2-.4.1-.8,0-1.1-.1M323.3,181.9c1.4-1.6,3.3-3,5.6-3.9.7-.3,1.5-.4,2.3-.6,3.3-.6,6.8,0,10.2,1.7l.7.3h0c2.5,1.5,4.6,3.4,6.1,5.5v-33c-1-1.4-5.8-7.1-12.5-7.1s-11.2,3.7-12.5,4.9v32.1h0ZM324.9,126c-2.4,6.7-2.3,12.7.3,17.9.2.4.4.8.6,1.2,1.1-.6,2.5-1.2,4-1.7-.5-2-.9-4.5-.6-7.7-2.3-4.4-3.6-7.5-4.3-9.7M332.6,129.8c-1.4,6.1-1.2,10.3-.4,13,1.1-.2,2.3-.3,3.5-.3s1.2,0,1.8.1c.3-1.9.9-4.1,2-6.5,1-2.1,1.8-4.1,2.5-5.9.2-9.4-3.7-18.9-7.3-25.6.5,5.4.4,13.9-2.3,25.1M348.5,119.3c-1,3.8-3,9.8-6.7,17.9-1,2.2-1.6,4.2-1.9,6,2.7.8,4.9,2.3,6.6,3.7.3-.5.6-1.1.9-1.7,3.7-8,2.9-17.8,1-25.9M282.5,164.4c-.8,1-.6,2.4.3,3.2.3.2,1.4.5,3.3.5s.6,0,.9,0c-.3-1.8-.9-3.6-1.4-4.1-.4-.3-.9-.5-1.4-.5s-1.3.3-1.8.9M280.1,168.2c-1.9,1.8-4.2,3.1-7.1,2.9-2-.1-3.5-.9-4.7-1.7.3.8.8,1.5,1.4,2.2.9,1,2.4,2.2,4.5,2.1,3.3-.2,5-2.5,6-5.3,0,0,0-.1-.1-.2M176.1,153.2c-.2,3.7-1.8,7.5-4.4,10.1-2.5,2.5-5.6,3.8-9.1,3.8s-.5,0-.8,0c1.4,1.1,3.1,1.7,5,1.7,2.7,0,5.5-1.2,7.6-3.3,3.3-3.2,3.9-7.5,1.7-12.3M253.5,163.4c-2.7-2.6-4.2-6.5-4.4-10.1-2.2,4.8-1.7,9,1.7,12.3,2.1,2.1,4.9,3.3,7.6,3.3s3.6-.6,5-1.7c-.2,0-.5,0-.8,0-3.5,0-6.6-1.3-9.1-3.8M244.4,149.1h0s0,0,0,0h0M225.8,133.5l-1.4,3.2c.6,1.4,1.7,2.6,3.1,3.2,1.3.6,2.7.7,4,.3l.7-1.5h0l1.4-3.1,2.3-5.1c-.6-1.2-1.7-2.2-2.9-2.8-1.4-.6-3-.7-4.5-.2l-2.6,6ZM225.8,127.3l-10.2,4.6,6.8,3.1,3.4-7.7h0ZM193,138.7h0l.6,1.5c1.3.4,2.8.2,4-.3,1.4-.6,2.5-1.8,3.1-3.2l-.7-1.6-3.3-7.5c-1.4-.5-3.1-.4-4.5.2-1.3.6-2.3,1.5-2.9,2.8l.9,2,2.7,6.2h0ZM193,142.6c-.5,1.1-1.3,2.1-2.5,2.6-.6.3-1.3.4-2,.4h-.1c0,.4-.1.7-.3,1.1-.2.5-.5,1-.8,1.4,8.2-1,16.7-1.6,25.3-1.6s17.1.5,25.3,1.6c-.3-.4-.6-.9-.8-1.4-.1-.4-.2-.7-.3-1.1h-.1c-.7,0-1.4-.1-2-.4-1.2-.5-2.1-1.5-2.5-2.6-.7.2-1.4.3-2.2.3-1.2,0-2.4-.2-3.5-.8-2-.9-3.6-2.6-4.4-4.6l-9.5-4.3-9.5,4.3c-.8,2.1-2.4,3.7-4.4,4.6-1.1.5-2.3.8-3.5.8s-1.5-.1-2.2-.3M180.8,149.1h0s0,0,0,0c0,0,0,0,0,0M212.6,149.1c-11.9,0-23.4,1-34.3,3,.6,1.2.9,2.3,1.2,3.3,10.5-1.9,21.6-2.8,33.1-2.8s22.6,1,33.1,2.8c.3-1.1.6-2.2,1.2-3.3-10.9-1.9-22.4-3-34.3-3M138.2,168.2c.3,0,.6,0,.9,0,2,0,3-.3,3.3-.5,1-.8,1.1-2.2.3-3.2-.4-.5-1.1-.9-1.8-.9s-1,.2-1.4.5c-.5.4-1.1,2.2-1.4,4.1M152.2,171.1c-2.9.2-5.1-1-7.1-2.9,0,0,0,.1-.1.2,1,2.8,2.7,5,6,5.3h.4c1.9,0,3.3-1.1,4.1-2.1.6-.7,1-1.4,1.4-2.2-1.1.9-2.7,1.6-4.6,1.7M154.8,240.2c-.1-.3-.2-.6-.4-.8-.1-.2-.3-.4-.5-.7-.6-.7-1.5-1.3-2.5-1.7-.2,0-.8-.1-1.7-.1s-1.5,0-2.4.2c2.4,1.1,4.9,2.1,7.5,3M183.5,247.4c-1.6-2.5-3.9-4-6.1-5.1-2.5-1.2-4.2-1.5-4.4-1.6-.7,0-1.4,0-2,0-1.7.3-2.9,1.3-3.7,2.2-.2.3-.4.6-.6.8,5.3,1.4,10.9,2.6,16.7,3.4M258.4,243.9c-.2-.2-.4-.5-.6-.8-.8-.9-2-1.9-3.7-2.3-.6-.1-1.2-.1-2,0-.2,0-1.9.4-4.4,1.6-2.2,1-4.5,2.5-6,5.1,5.8-.9,11.4-2.1,16.7-3.4M277.9,237.1c-.9-.1-1.7-.2-2.4-.2s-1.5,0-1.7.1c-1,.4-1.9,1-2.5,1.7-.2.2-.4.4-.5.6-.2.3-.3.5-.4.8,2.6-.9,5.1-2,7.5-3M273.2,234.6c4.1-1.7,16.5-6.7,24.6-13.5.8-.7,2.5-1.4,4.4-1.4s.5,0,.7,0c4.6-5.5,7-11.4,7-17.3,0-11.7-9.1-22.9-25.7-31.7-.8,0-1.5-.2-2-.5-1.2,3-3.5,5.7-7.8,6-.2,0-.3,0-.5,0-2.3,0-4.4-1-6-3-1.1-1.3-1.9-3-2.4-4.6-1.9,1.7-4.4,2.7-7.1,2.7s-6.8-1.4-9.4-4c-1.6-1.5-4-4.7-3.7-9.4-10.4-1.8-21.4-2.8-32.7-2.8s-22.4.9-32.7,2.8c.3,4.8-2.2,7.9-3.7,9.4-2.6,2.5-6,4-9.4,4s-5.2-.9-7.1-2.7c-.4,1.6-1.2,3.3-2.4,4.6-1.6,1.9-3.7,3-6,3h0c-.2,0-.3,0-.5,0-4.3-.3-6.6-3.1-7.8-6-.6.2-1.2.4-2.1.5-16.6,8.8-25.7,20.1-25.7,31.7s2.4,11.9,7,17.3c.2,0,.5,0,.7,0,1.9,0,3.6.7,4.4,1.4,8.1,6.8,20.5,11.9,24.6,13.5h.1c0,0,.1.1.2.1,3.1,1.2,5.1,3.6,5.3,6.4,2.2.8,4.5,1.5,6.8,2.1,1.2-2.4,4.2-5.5,9-5h0c1.8.3,7.3,1.3,9,1.6h.6c7.2,1.6,15.4,3.2,29.4,3.2h.1c14.1,0,22.2-1.7,29.4-3.1h.6c1.8-.5,7.3-1.5,9-1.8h0c4.8-.6,7.8,2.6,9,5,2.3-.6,4.6-1.4,6.8-2.1.2-2.8,2.2-5.3,5.4-6.5h.2M323.9,223.2c4.4-1.9,8.6-5.4,12.7-10.3-3.4.9-9.3,2.1-17.9,2.8-6.6.6-9.9,3.4-11.3,5.5,1.7.8,3.1,1.7,4.3,2.7,1.9-.6,4.4-1,7.7-1s2.9,0,4.5.2M357,224.6c.2.5,0,1.1-.4,1.5-9.3,6.7-18.4,10.5-27,11.2,3.5,2.7,7,7,9.8,13.6.1.2.2.4.2.6,0,.7-.5,1.3-1.2,1.3h0c-.3,0-.6-.1-.9-.4,0,0-3-2.7-14.8-5.4-2.2-.5-4-1.3-5.5-2.1-1.1,1.1-4.3,4.1-11.1,8.2-11.3,6.8-17.1,8.5-17.7,8.7-1,.4-2,.6-3,.6s-1.8-.2-2.6-.6c-2.1-1-3.2-3.1-3.7-4.6-1.7-4.9,1-7.6,1.1-7.7.1-.1.2-.2.4-.3,3-1.2,4.9-2,7.8-3.5-.2-.4-.4-.8-.6-1.2-.4-.8-.8-1.4-1.3-2,0,0,0,0-.1,0-1.8.9-3.7,1.8-5.6,2.7-3.4,5.9-7.4,9.7-11.5,12.2,1.3.6,2.6,1.3,3.8,2.1,6.8,4.4,14.5,4.9,17.5,4.9s1.6,0,1.6,0c.6,0,1.2.4,1.3,1.1s-.3,1.3-1,1.4c-8.8,1.8-16.8,2.7-23.8,2.7s-1.9,0-2.7,0c3.1,4.3,4.9,9.4,5.4,15,0,0,0,.2,0,.3,0,.7-.5,1.2-1.2,1.3h0c-.5,0-.9-.3-1.1-.7,0,0-2.4-5-11.7-9.2-3.1-1.4-5.8-2.9-8-4.4-4.3,1.3-9.8,2.7-19.3,2.7s-5.7-2.8-7.5-5.1c-.1,4.6.6,8.3,2.2,11,2.5,0,3.6-.2,4.9-.6.5-.1,1.1-.3,1.8-.5.1,0,.2,0,.3,0,.3,0,3.3.2,5,2,1.9,2,1.9,4.6,0,6.5h0s0,0-.1.1c0,0,0,0,0,0,0,0,0,0-.1,0,0,0,0,0-.1,0-.1,0-2.6,1-6.1,1s-5.9-.7-8.5-2c-5-2.5-7.7-6.4-9.1-9.2-1.4,2.8-4,6.7-9.1,9.2-2.7,1.3-5.6,2-8.5,2s-6-1-6.1-1c0,0,0,0,0,0,0,0,0,0-.1,0,0,0,0,0,0,0,0,0,0,0-.1-.1h0c-1.9-1.9-1.9-4.5,0-6.5,1.7-1.8,4.7-2,5-2,.1,0,.2,0,.3,0,.7.1,1.2.3,1.8.5,1.4.4,2.5.7,4.9.6,1.6-2.7,2.4-6.4,2.2-11-1.8,2.3-4.6,5.1-7.5,5.1-9.5,0-15-1.4-19.4-2.7-2.2,1.5-4.9,3-8.1,4.5-9.4,4.2-11.7,9.1-11.7,9.2-.2.5-.7.7-1.1.7s-.2,0-.3,0c-.6-.1-1-.7-.9-1.3.5-5.7,2.3-10.8,5.4-15.1-.9,0-1.8,0-2.7,0h0c-7,0-15-.9-23.8-2.7-.6-.1-1.1-.8-1-1.4,0-.7.7-1.1,1.3-1.1,0,0,.6,0,1.6,0,3,0,10.6-.5,17.4-4.9,1.3-.9,2.7-1.6,4.1-2.3-4.1-2.5-8.1-6.3-11.6-12.1-1.9-.9-3.9-1.8-5.7-2.7,0,0,0,0-.1,0-.4.6-.9,1.3-1.3,2-.2.4-.4.8-.6,1.2,2.9,1.5,4.8,2.3,7.8,3.5.1,0,.3.1.4.3.1.1,2.8,2.8,1.1,7.7-.5,1.5-1.6,3.6-3.7,4.6-.8.4-1.7.6-2.6.6s-1.9-.2-2.9-.6c-.6-.2-6.4-1.8-17.7-8.6-6.8-4.1-10-7.1-11.1-8.2-1.5.9-3.3,1.6-5.5,2.1-12,2.8-14.8,5.4-14.8,5.4-.2.2-.6.4-.9.4s-.5,0-.7-.2c-.5-.3-.7-1-.4-1.5,2.8-6.7,6.3-11,9.8-13.8-8.6-.7-17.7-4.4-27-11.2-.5-.3-.6-.9-.4-1.5s.7-.9,1.3-.8c0,0,4.7.5,12.1.5h0c5,0,10.1-.2,15.2-.7-3.7-2.3-7-5.4-9.6-8.6-7.1-4.2-10.1-9.6-11.5-13.6-1.1-3.1-1.4-6.3-1.2-9.3,0-.1,0-.2,0-.3v-40.2c0-.2,0-.5.2-.7,0-.1.8-1.1,2-2.4-.4-.7-.8-1.4-1.2-2.2-4.9-10.5-2.7-23.6,0-32.8.2-.6.7-.9,1.3-.9.6,0,1.1.5,1.1,1.1,0,0,.5,3.7,2.9,10.6,1-8.4,4.6-17.4,10.6-26.8.3-.5,1-.7,1.6-.4.6.3.8.9.7,1.5,0,.1-3.3,11.4,1.2,30.5.2.7.3,1.4.4,2.1,3.2-6.8,3.2-9.4,3.2-9.4,0-.6.3-1.1.9-1.3s1.2.1,1.4.7c5.5,11.7,3.5,19.9.4,25.1,1.6,1.1,2.5,2,2.6,2.1.2.2.2.4.3.6,3.8-7.2,5.2-13.3,5.6-17.4.5-5.1-.2-8.2-.2-8.2-.2-.6.2-1.3.8-1.5s1.3.1,1.5.7c2.8,6.8,5.2,15.5,4.8,24.2,2.8-1.8,6.2-3.5,10.2-4.8.6-.2,1.2,0,1.5.6s.1,1.2-.4,1.6c0,0-1.6,1.2-3.6,4.1-1.8,2.7-4.3,7.4-5.8,14.7-.2.9-.4,1.8-.7,2.6,5.6-4.6,7.7-9.5,7.7-9.6.2-.5.8-.9,1.3-.8.6.1,1,.6,1,1.2.3,4.8-.2,9.1-1.4,12.9,2.7-1.9,5.6-3.8,8.7-5.6-1.6-.4-3-.9-3.1-.9-.6-.2-1-1-.7-1.6.3-.7,1-2.6,2-4.1-1.9-.7-3.9-2.1-4.4-2.5-.6-.4-.7-1.2-.3-1.8.6-.9,2.6-3.5,4.6-4.5-1.4-2.9-1.9-6.5.8-9.9,1.5-1.9,3.7-2.9,6.3-2.9s3.6.5,5.2,1.3c0-2.2.7-4.3,2-6.1,2.2-3.1,5.9-5.1,10-5.4.3,0,.7,0,1,0,5.7,0,9.9,3.6,12.1,10,.4-.3.8-.6,1.3-.8.6-.3,1.3-.4,2-.4s0,0,.1,0c0-.4.1-.8.3-1.1.5-1.2,1.4-2.2,2.6-2.8.6-.3,1.3-.4,2-.4,1,0,1.9.3,2.7.9.5-.6,1-1,1.7-1.3.6-.3,1.3-.4,2-.4s1.1.1,1.6.3c.3-.5.6-1,.9-1.5-1,.2-1.9.3-2.9.4h0c0,0-.1,0-.2,0-.6,0-1.6,0-2.7,0-4.8,0-13.8-.5-19.4-4.2-5.8-3.7-8.8-10.2-10.6-17l-2.8,6.3c-.1.3-.4.5-.7.7s-.6.1-.9,0l-1.6-.7-1.4,3.1,1.6.7c.6.3.9,1,.6,1.7l-3.5,7.9c-.2.5-.7.8-1.1.8s-.3,0-.5-.1l-16.2-7.2c-.3-.1-.5-.4-.7-.7s-.1-.7,0-1l3.5-7.9c.3-.6,1-.9,1.6-.6l1.6.7,1.4-3.2-1.6-.7c-.3-.1-.5-.4-.7-.7-.1-.3-.1-.7,0-1l.7-1.6-3.1-1.4-.7,1.6c-.3.6-1,.9-1.6.6l-1.6-.7-1.4,3.1,1.6.7c.3.1.5.4.7.7s.1.7,0,1l-3.5,7.9c-.3.6-1,.9-1.6.6l-16.2-7.2c-.3-.1-.5-.4-.7-.7-.1-.3-.1-.7,0-1l3.5-7.9c.1-.3.4-.5.7-.7.3-.1.7-.1.9,0l1.6.7,1.4-3.2-1.6-.7c-.6-.3-.9-1-.6-1.7l2.6-5.9c-.8.4-1.6.7-2.5.7s-1.3-.1-2-.4c-1.2-.5-2.1-1.5-2.6-2.8-.1-.4-.2-.7-.3-1.1h-.1c-.7,0-1.3-.1-2-.4-1.7-.8-2.8-2.4-2.9-4.2-2.6-1.5-3.7-4.8-2.4-7.7,1-2.2,3.1-3.6,5.5-3.6s1.2,0,1.8.3c.8-.7,1.9-1.1,3-1.1s1.3.1,2,.4c.7.3,1.3.8,1.7,1.3.8-.5,1.7-.9,2.7-.9s1.3.1,2,.4c1.2.5,2.1,1.5,2.6,2.8.3.8.4,1.7.3,2.6l30.3,13.7c-1-6.4-2.2-14.2-3.3-18.2h-.5c-.4,0-.9,0-1.3,0-1.2,0-1.8.5-2.4.9h-.2c-1.8,1.4-3.6,2-5.3,2h0c-3.6,0-5.6-2.7-5.7-2.9-.3-.4-.3-.9,0-1.4s.7-.7,1.2-.6c1.3.2,2.3-.2,3.2-.8-1.1.2-2.1.4-3.1.4-3.7,0-5.4-1.9-5.6-2.1-.3-.4-.4-.9-.2-1.3.2-.4.6-.7,1.1-.8,1.1,0,1.9-.3,2.7-.7-.6,0-1.3.2-1.9.2-4.3,0-6.4-2.6-6.5-2.7-.3-.4-.4-1-.1-1.4.2-.5.7-.7,1.2-.6.5,0,.9,0,1.3,0,2,0,3-.7,4.9-2.2.4-.3.9-.7,1.4-1,1-.7,2.1-1.2,3-1.6,0,0,0,0-.1,0,0,0,.4,0,1.1-.2.7-.2,1.3-.3,1.8-.3,1.1-.2,2.5-.3,4.1-.3.4,0,.7,0,1,0h1.4c.2,0,.4,0,.6,0,.1,0,.3,0,.4,0,.2,0,.4,0,.5,0,.1,0,.2,0,.4,0,.2,0,.4,0,.6,0,.1,0,.2,0,.3,0,.2,0,.4,0,.6,0,0,0,.1,0,.2,0,.3,0,.5,0,.8.1,0,0,.1,0,.2,0,.2,0,.4,0,.5,0,0,0,.2,0,.3,0,.1,0,.3,0,.4,0,.1,0,.2,0,.3,0,.1,0,.3,0,.4.1.1,0,.2,0,.3,0,.1,0,.3,0,.4.1,0,0,.2,0,.3,0,.1,0,.2,0,.4.1,0,0,.2,0,.3,0,.1,0,.3,0,.4.1,0,0,.2,0,.3,0,.1,0,.3.1.4.2,0,0,.2,0,.3.1.1,0,.3.1.4.2,0,0,.1,0,.2,0,.2,0,.4.2.7.3,11.5,5.5,12.6,24.3,14.4,33.6.4,2,.8,3.8,1.2,5.6.3,1.1.5,2.1.8,3.1l21.7,9.8c1.9-2,3.4-4.5,4.2-7.4-.4,0-.8.2-1.2.3h0c0,0-.1,0-.2,0h-.3c0,0-.1,0-.2,0,0,0,0,0,0,0h0c-1.2-.4-2-1.2-2.5-2.2-.6-1.5-.3-3.2,0-4-1.4-3.3-4.6-7.4-4.6-7.4-.3-.4-.4-.9-.1-1.4s.7-.7,1.2-.7c.3,0,.8.1,1.2.3-1.3-2.7-2.3-5.2-3.3-7.7h-.2c-.6,0-1.1-.4-1.2-1.1,0,0,0-.1,0-.2-1.4-4.6-5.1-10.6-5.1-10.7-.3-.5-.2-1.1.1-1.5s1-.5,1.5-.3c.1,0,.5.3,1.1.6-.1-.7-.3-1.4-.4-2-.6-2.9-1-5.8-1.2-8.5-.2,0-.4,0-.6-.2-.3-.2-.5-.6-.5-.9-.3-5.1-3.6-11.5-3.6-11.6-.2-.4-.2-1,.1-1.3s.8-.6,1.2-.5c.9.2,2.4,1,2.9,2.6.2,0,.4.1.6.2.1-.7.3-1.4.4-2.1,3.1-11.3,14.1-19.2,28-20.6-.9-1-1.4-2.4-1.4-3.8,0-2.7,1.8-4.9,4.2-5.6v-5h-2.9v-3.2h2.9V0h3.2v2.7h2.9v3.2h-2.9v5c2.4.7,4.2,3,4.2,5.6s-.5,2.8-1.4,3.8c14,1.4,25,9.3,28,20.6.2.6.3,1.3.4,2.1.2,0,.4-.2.6-.2.6-1.7,2.1-2.4,2.9-2.6.5,0,1,0,1.2.5.3.4.3.9.1,1.3,0,0-3.3,6.5-3.6,11.6,0,.4-.2.7-.5.9-.2.1-.4.2-.6.2-.3,3.2-.8,6.8-1.6,10.5.5-.4,1-.6,1.1-.7.5-.2,1.1-.1,1.5.3.4.4.4,1,.1,1.5,0,0-3.9,6.4-5.2,11,0,.3-.3.6-.6.8-.2,0-.4.1-.6.1h-.1c-.9,2.6-2,5.1-3.3,7.7.5-.2.9-.3,1.2-.3.5,0,1,.2,1.2.7.2.4.2,1-.1,1.4,0,0-3.2,4.1-4.6,7.4.3.9.6,2.5,0,4-.4,1-1.3,1.8-2.5,2.2h0c0,0-.1,0-.1,0,0,0-.2,0-.2,0s-.2,0-.3,0h0c-.3,0-.6-.2-1-.3.8,2.8,2.3,5.3,4.1,7.3l21.8-9.8c.2-.9.5-1.9.7-3,.4-1.7.8-3.6,1.2-5.6,1.9-9.3,2.9-28.1,14.4-33.6.2-.1.5-.2.7-.3,0,0,.1,0,.2,0,.1,0,.3-.1.4-.2,0,0,.2,0,.3-.1.1,0,.3-.1.4-.2.1,0,.2,0,.3,0,.1,0,.3,0,.4-.1,0,0,.2,0,.3,0,.1,0,.2,0,.4-.1,0,0,.2,0,.3,0,.1,0,.3,0,.4-.1,0,0,.2,0,.3,0,.1,0,.3,0,.4-.1,0,0,.2,0,.3,0,.1,0,.3,0,.4,0,0,0,.2,0,.3,0,.2,0,.4,0,.5,0,0,0,.1,0,.2,0,.2,0,.5,0,.8-.1,0,0,.1,0,.2,0,.2,0,.4,0,.6,0,0,0,.2,0,.3,0,.2,0,.4,0,.5,0,.1,0,.2,0,.4,0,.2,0,.4,0,.5,0,.1,0,.3,0,.4,0,.2,0,.4,0,.6,0h1.4c.3,0,.7,0,1,0,1.5,0,2.8.2,3.9.3.6,0,1.5.1,2.7.5.2,0,.3,0,.3,0,0,0,0,0,0,0,1,.3,2,.8,3.1,1.6.5.4,1,.7,1.4,1,1.9,1.5,2.9,2.2,4.9,2.2s.8,0,1.3,0c.5,0,1,.2,1.2.6.2.4.2,1-.1,1.4,0,.1-2.2,2.7-6.5,2.7s-1.2,0-1.9-.2c.8.4,1.6.6,2.6.7.5,0,.9.3,1.1.8.2.4.1.9-.2,1.3-.2.2-1.8,2.1-5.5,2.1h0c-1,0-2-.1-3.1-.4.8.5,1.5.9,2.6.9s.4,0,.6,0c.5,0,1,.2,1.2.6.2.4.2,1,0,1.4,0,.1-2.1,2.9-5.7,2.9s-3.5-.6-5.3-1.8h-.2c-.6-.5-1.1-.9-2.4-1-.4,0-.9,0-1.3,0s-.5,0-.7,0c-1,4-2.3,11.7-3.3,18.1l30.1-13.6c-.1-.9,0-1.7.2-2.6.5-1.2,1.4-2.2,2.6-2.8.6-.3,1.3-.4,2-.4,1,0,2,.3,2.7.9.5-.6,1-1,1.7-1.3.6-.3,1.3-.4,2-.4,1.1,0,2.1.4,3,1.1.6-.2,1.2-.3,1.8-.3,2.4,0,4.5,1.4,5.5,3.6,1.2,2.8.1,6.2-2.4,7.7-.1,1.8-1.2,3.4-2.9,4.2-.6.3-1.3.4-2,.4h-.1c0,.4-.1.7-.3,1.1-.5,1.2-1.4,2.2-2.6,2.8-.6.3-1.3.4-2,.4s-1.8-.3-2.5-.7l2.6,5.9c.3.6,0,1.4-.6,1.7l-1.6.7,1.4,3.2,1.6-.7c.3-.1.6-.2,1,0s.5.4.7.7l3.5,7.9c.1.3.1.7,0,1-.1.3-.4.6-.7.7l-16.2,7.2c-.6.3-1.4,0-1.6-.6l-3.5-7.9c-.1-.3-.1-.7,0-1,.1-.3.4-.6.7-.7l1.6-.7-1.4-3.1-1.6.7c-.6.3-1.4,0-1.6-.6l-.7-1.6-3.1,1.4.7,1.6c.1.3.1.7,0,1-.1.3-.4.6-.7.7l-1.6.7,1.4,3.2,1.6-.7c.6-.3,1.4,0,1.6.6l3.5,7.9c.1.3.1.7,0,1-.1.3-.4.6-.7.7l-16.2,7.2c-.2,0-.3.1-.5.1-.5,0-.9-.3-1.1-.8l-3.5-7.9c-.3-.6,0-1.4.6-1.7l1.6-.7-1.4-3.1-1.6.7c-.3.1-.6.1-1,0s-.6-.4-.7-.7l-2.7-6.1c-1.8,6.7-4.8,13.1-10.6,16.7-5.7,3.6-14.6,4.2-19.4,4.2s-2.1,0-2.7,0c0,0-.1,0-.2,0h0c-1.1,0-2.1-.2-3.2-.4.4.5.7,1,1,1.5.5-.2,1-.3,1.6-.3s1.4.1,2,.4c.7.3,1.3.8,1.7,1.3.8-.6,1.7-.9,2.7-.9s1.4.1,2,.4c1.2.5,2.1,1.5,2.6,2.8.1.4.2.7.3,1.1,0,0,0,0,.1,0,.7,0,1.4.1,2,.4.5.2.9.5,1.3.8,2.2-6.4,6.5-10,12.1-10s.7,0,1,0c4.1.3,7.8,2.3,10,5.4,1.3,1.8,2,3.9,2,6.1,1.5-.8,3.4-1.3,5.2-1.3,2.6,0,4.8,1,6.3,2.9,2.7,3.4,2.1,7,.8,9.9,2,1,3.9,3.6,4.6,4.5.4.6.3,1.3-.3,1.8-.5.4-2.5,1.8-4.4,2.5,1,1.5,1.7,3.3,2,4.1.2.6,0,1.4-.7,1.6,0,0-1.5.6-3.1.9,3.2,1.8,6.1,3.6,8.8,5.6-1.2-3.8-1.7-8.1-1.4-12.9,0-.6.5-1.1,1-1.2.6,0,1.1.2,1.4.8,0,0,2.1,5,7.7,9.6-.3-.8-.5-1.7-.7-2.6-1.5-7.3-4-12-5.8-14.7-2-2.9-3.6-4.1-3.6-4.1-.5-.4-.7-1-.4-1.6.3-.6.9-.8,1.5-.6,4,1.3,7.3,2.9,10.2,4.8-.4-8.7,2-17.4,4.8-24.2.2-.6.9-.9,1.5-.7s1,.9.8,1.5c0,0-.7,3.2-.2,8.2.4,4.1,1.8,10.3,5.6,17.4,0-.2.1-.4.3-.6,0,0,1-1,2.6-2.1-3-5.1-5.1-13.4.4-25.1.3-.6.9-.8,1.4-.7.6.2,1,.7.9,1.3,0,0,0,2.6,3.2,9.4.1-.7.3-1.4.4-2.1,2.4-10,2.6-17.7,2.3-22.5-.3-5.2-1.1-8-1.1-8-.2-.6.1-1.2.7-1.5.6-.3,1.2,0,1.6.4,6,9.4,9.6,18.5,10.6,26.8,2.4-6.9,2.9-10.6,2.9-10.6,0-.6.5-1.1,1.1-1.1.6,0,1.1.3,1.3.9,2.8,9.2,5,22.3,0,32.8-.4.8-.8,1.5-1.2,2.2,1.2,1.3,1.9,2.3,2,2.4.1.2.2.5.2.7v40.2c0,.1,0,.2,0,.3.6,6.9-2.1,16.5-12.6,22.8-2.7,3.2-5.9,6.3-9.6,8.6,5.1.4,10.2.7,15.2.7,7.4,0,12-.5,12.1-.5.6,0,1.1.3,1.3.8"/>
  </g>
</svg>