<?xml version="1.0" encoding="UTF-8"?>
<svg id="Capa_2" data-name="Capa 2" xmlns="http://www.w3.org/2000/svg" viewBox="0 0 288.92 288.92">
  <defs>
    <style>
      .cls-1 {
        fill: #004b90;
        stroke-width: 0px;
      }
    </style>
  </defs>
  <g id="Capa_1-2" data-name="Capa 1">
    <path class="cls-1" d="M100.99,223.97c-2.4-.56-3.6-1.31-3.88-3.28-.19-1.49-.28-8.61-.28-19.19v-13.95c.09-2.9.46-3.93,3.41-4.68.92-.19,1.48-.75,1.48-1.03,0-.38-.46-.57-1.57-.57-2.4,0-8.22.37-9.79.37-2.22,0-6.84-.37-8.59-.37-1.02,0-1.57.37-1.57.66s.83.75,1.38.94c1.94.47,3.33,1.12,3.7,3.28.09,1.22.18,4.12.18,7.68,0,1.78,0,20.32-.09,24.24-.09,3.84-.74,5.15-3.79,5.9-.83.19-1.48.37-1.48.84,0,.19.64.75,1.57.75,2.77,0,6.28-.46,9.24-.46,3.23,0,7.3.37,9.79.37.74,0,1.48-.19,1.48-.75,0-.28-.37-.57-1.2-.75M201.32,200.66c-1.75-1.22-4.71-2.91-7.58-5.06-3.42-2.62-4.53-4.59-4.53-7.12,0-4.68,3.42-6.93,6.74-6.93,1.94,0,4.25.94,5.82,2.34,1.2,1.22,2.31,2.81,3.23,5.05.28.75.65,1.22.92,1.22.37,0,.65-.47.46-1.4-.18-.66-.74-4.77-.65-6.37,0-.47-.37-.84-.74-.94-1.85-.47-4.9-1.22-9.33-1.22-3.79,0-7.58,1.12-9.61,2.34-3.23,2.06-5.64,5.24-5.64,10.49,0,5.89,3.14,10.02,10.99,15.07,5.08,3.18,8.04,6.18,8.04,9.64,0,4.59-3.14,7.3-7.76,7.3-2.59,0-4.99-1.12-7.02-2.81-1.94-1.68-3.51-3.84-4.25-6.18-.37-1.03-.55-1.68-1.02-1.68-.28,0-.83.56-.46,1.97.46,2.71.56,5.62.83,6.93,0,.19.28.84.83,1.03,2.59,1.03,8.22,2.25,10.81,2.25,9.42,0,17.37-5.15,17.37-13.57,0-6.65-4.07-9.92-7.48-12.36M168.65,223.97c-3.05-.75-3.7-2.06-3.79-5.9-.09-3.93-.09-22.46-.09-24.24,0-3.56.09-6.46.18-7.68.37-2.15,1.75-2.81,3.7-3.28.55-.19,1.38-.65,1.38-.94s-.55-.66-1.57-.66c-1.76,0-6.37.37-8.59.37-1.57,0-7.39-.37-9.79-.37-1.11,0-1.57.19-1.57.57,0,.28.55.84,1.48,1.03,2.96.75,3.33,1.78,3.42,4.68v13.3c-.03.52-.16.67-.54.75-.12.04-3.78.06-8.07.07v-26.01h8.21v-5.52h-8.21v-7.29h-5.45v7.29h-8.22v5.52h8.22v26.01c-4.26,0-7.92-.03-8.15-.07-.37-.1-.46-.57-.46-1.88v-12.17c.09-2.9.46-3.93,3.42-4.68.92-.19,1.48-.75,1.48-1.03,0-.38-.46-.57-1.57-.57-2.4,0-8.22.37-9.8.37-2.22,0-6.84-.37-8.59-.37-1.02,0-1.57.37-1.57.66s.83.75,1.39.94c1.94.47,3.33,1.12,3.69,3.28.09,1.22.19,4.12.19,7.68,0,1.78,0,20.32-.09,24.24-.09,3.84-.74,5.15-3.79,5.9-.83.19-1.48.37-1.48.84,0,.19.65.75,1.57.75,2.77,0,6.28-.46,9.24-.46,3.23,0,7.3.37,9.79.37.74,0,1.48-.19,1.48-.75,0-.28-.37-.57-1.2-.75-2.4-.56-3.6-1.31-3.88-3.28-.16-1.33-.25-7.11-.27-15.82.09-.29.21-.47.27-.47.83-.18,21.39-.18,21.77-.09.44.07.59.56.63,1.14-.02,8.39-.11,13.94-.27,15.24-.28,1.97-1.48,2.72-3.88,3.28-.83.19-1.2.47-1.2.75,0,.56.74.75,1.48.75,2.49,0,6.56-.37,9.79-.37,2.95,0,6.46.46,9.24.46.93,0,1.57-.56,1.57-.75,0-.47-.64-.66-1.47-.84M191.64,147.11c-.58,1.32,0,2.86,1.31,3.45.27.12.59.17.95.17,1.12,0,2.49-.5,2.98-.68.19-.07.33-.22.41-.39.07-.17.08-.38.01-.57-.25-.65-1.13-2.79-2.25-3.3-.34-.15-.7-.23-1.04-.23-.99,0-1.93.58-2.36,1.55M197.76,154.31c-.68.04-2.97.22-3.8,1.15-.95,1.07-.86,2.73.19,3.69.49.45,1.11.67,1.73.67.71,0,1.41-.29,1.92-.86.82-.92.77-3.25.73-3.94-.01-.21-.11-.39-.25-.51-.13-.12-.3-.19-.49-.19h-.04ZM199.11,150.48c-.47,1.08,0,2.35,1.07,2.83.28.13.57.19.86.19.03,0,.06,0,.09,0h0c.08,0,.17,0,.25-.02.03,0,.06-.01.09-.02.09-.02.18-.04.27-.08.03-.01.07-.02.11-.04.1-.04.19-.09.28-.14.01,0,.03-.01.04-.02.11-.07.2-.14.29-.23.02-.02.05-.05.07-.07.06-.07.13-.14.18-.21.02-.03.05-.06.07-.09.01-.02.03-.05.04-.08h0c.05-.09.1-.17.14-.26.48-1.08,0-2.35-1.07-2.83-.14-.06-.28-.11-.42-.14-.05,0-.09,0-.14-.02-.09-.01-.19-.03-.28-.03-.13,0-.25,0-.36.03-.03,0-.06.01-.09.02-.09.02-.18.04-.27.07-.03.01-.07.03-.1.04,0,0,0,.01-.02.01h0c-.15.06-.29.14-.42.24h0c-.06.05-.12.09-.18.14-.02.02-.05.05-.07.07-.06.07-.13.14-.18.22-.02.03-.04.06-.06.09-.07.11-.14.22-.19.34M199.32,143.28c-.13,1.24,1.27,3.09,1.7,3.62.13.16.31.25.49.27.02,0,.05,0,.07,0,.16,0,.33-.05.47-.16.53-.43,2.27-1.95,2.4-3.19.14-1.43-.89-2.72-2.3-2.87-.09-.01-.18-.01-.27-.01-1.3,0-2.43,1-2.57,2.34M205.25,149.93c-.11.17-.14.37-.11.56.04.18.15.36.32.47.52.34,2.18,1.37,3.37,1.37.13,0,.25-.01.36-.04,1.39-.3,2.28-1.69,1.98-3.1-.25-1.23-1.32-2.07-2.52-2.07-.18,0-.36.02-.54.06-1.2.26-2.5,2.17-2.87,2.75M206.24,160.43c1.23-.72,1.65-2.32.95-3.57-.62-1.08-2.82-1.74-3.48-1.92-.06-.02-.13-.03-.18-.03-.14,0-.26.04-.37.1-.16.1-.29.26-.34.46-.17.67-.71,2.93-.09,4.01.48.84,1.34,1.3,2.24,1.3.44,0,.88-.11,1.29-.35M191.94,152.85c-1.24-.55-2.18-1.57-2.66-2.85-.48-1.28-.45-2.67.1-3.92.81-1.85,2.63-3.05,4.63-3.05.71,0,1.4.15,2.06.45.28.13.56.31.83.51-.04-.34-.06-.67-.02-.99.27-2.61,2.44-4.59,5.03-4.59.17,0,.35,0,.53.03,2.77.3,4.79,2.82,4.5,5.64-.03.32-.11.64-.22.95.29-.14.6-.25.91-.32.35-.07.7-.11,1.05-.11,2.38,0,4.46,1.71,4.94,4.06.28,1.34.03,2.71-.7,3.86-.74,1.15-1.87,1.94-3.2,2.22-.28.06-.57.09-.87.09-.03,0-.06,0-.09,0,.23.25.43.5.58.78.68,1.18.86,2.57.51,3.89-.35,1.32-1.19,2.43-2.36,3.11-.76.45-1.64.69-2.52.69-1.8,0-3.49-.98-4.38-2.56-.16-.29-.29-.59-.38-.91-.16.29-.33.57-.55.81-.96,1.08-2.33,1.69-3.76,1.69-1.25,0-2.45-.47-3.38-1.32-2.07-1.89-2.24-5.14-.37-7.24.21-.24.46-.44.74-.63-.33-.07-.64-.16-.93-.29M161.39,135.47c.76.36,2.27.16,2.69-.76.43-.92-.4-2.22-1.16-2.57-.75-.36-2.27-.17-2.69.75-.42.92.4,2.22,1.16,2.58M77.74,149.19c-.3,1.41.59,2.8,1.99,3.1.11.02.24.04.36.04,1.2,0,2.85-1.02,3.37-1.37.17-.11.28-.29.32-.47.04-.19,0-.39-.11-.56-.37-.58-1.68-2.5-2.87-2.75-.18-.04-.36-.06-.54-.06-1.19,0-2.27.84-2.52,2.07M86.77,140.95c-1.41.15-2.44,1.44-2.3,2.87.13,1.24,1.87,2.75,2.4,3.19.14.11.3.16.47.16.02,0,.05,0,.07,0,.19-.02.37-.11.5-.27.43-.54,1.82-2.39,1.69-3.62-.14-1.35-1.26-2.34-2.57-2.34-.09,0-.18,0-.27.01M89.81,150.48c-.05-.12-.12-.23-.19-.34-.02-.03-.04-.06-.07-.09-.06-.07-.12-.15-.19-.22-.02-.02-.04-.05-.07-.07-.06-.05-.12-.09-.17-.14h0c-.13-.1-.27-.18-.42-.25h0s0,0-.01-.01c-.04-.01-.07-.02-.1-.04-.09-.03-.18-.06-.27-.07-.03,0-.06-.02-.09-.02-.12-.02-.24-.03-.36-.03-.1,0-.19.02-.29.03-.05,0-.09,0-.14.02-.14.03-.28.08-.42.14-1.07.48-1.55,1.75-1.07,2.83.04.09.09.18.14.26,0,0,0,0,0,0,.02.02.03.05.04.07.02.03.05.06.06.09.06.08.12.15.19.21.02.02.05.05.07.07.09.08.19.16.29.23.01.01.03.02.04.02.09.06.19.1.28.14.04.02.07.03.1.04.09.03.17.06.27.08.03,0,.06.01.1.02.08.01.16.01.25.02h0s.06.01.08.01c.29,0,.58-.06.86-.19,1.07-.48,1.55-1.75,1.07-2.83M90.39,155.01c-.04.69-.1,3.02.73,3.94.51.57,1.21.86,1.92.86.62,0,1.23-.22,1.73-.67,1.06-.96,1.14-2.62.19-3.69-.82-.92-3.11-1.11-3.79-1.15h-.04c-.19,0-.36.07-.49.19-.14.13-.23.31-.24.51M91.63,149.08c-.07.19-.06.4.01.57.08.18.22.32.41.39.49.19,1.86.68,2.98.68.35,0,.68-.05.94-.17,1.3-.58,1.88-2.13,1.3-3.45-.43-.97-1.37-1.55-2.36-1.55-.35,0-.7.07-1.05.23-1.12.51-2,2.65-2.25,3.3M86.2,159.48c.61-1.08.08-3.34-.09-4.01-.05-.2-.18-.36-.34-.45-.11-.06-.24-.1-.37-.1-.06,0-.12,0-.19.03-.66.18-2.86.85-3.47,1.92-.71,1.25-.29,2.85.95,3.57.41.24.85.35,1.29.35.89,0,1.76-.47,2.24-1.3M79.21,154.74c-1.32-.28-2.45-1.07-3.19-2.22-.73-1.15-.98-2.52-.7-3.85.49-2.35,2.57-4.06,4.95-4.06.35,0,.71.04,1.05.11.31.07.62.18.91.32-.11-.31-.18-.63-.22-.95-.29-2.81,1.73-5.34,4.5-5.63.18-.02.36-.03.53-.03,2.6,0,4.76,1.97,5.03,4.59.03.31.02.65-.03.98.27-.21.55-.39.83-.52.65-.29,1.34-.44,2.05-.44,2,0,3.81,1.2,4.62,3.05.55,1.25.59,2.64.1,3.92-.48,1.28-1.43,2.29-2.66,2.85-.29.13-.6.23-.93.29.27.19.52.39.74.64,1.87,2.1,1.7,5.35-.37,7.23-.93.85-2.13,1.32-3.39,1.32-1.43,0-2.8-.62-3.76-1.69-.22-.25-.39-.52-.55-.81-.09.32-.21.62-.38.91-.9,1.58-2.58,2.56-4.39,2.56-.88,0-1.76-.23-2.52-.68-1.17-.68-2.01-1.79-2.36-3.11-.35-1.32-.17-2.71.51-3.89.16-.27.36-.53.59-.78-.03,0-.06,0-.09,0-.3,0-.6-.03-.87-.09M127.54,135.47c.76-.36,1.58-1.66,1.15-2.58-.42-.92-1.93-1.12-2.69-.75-.76.35-1.58,1.65-1.16,2.57.42.92,1.94,1.12,2.69.76M147.34,42.06c0-1.36-1.3-3.45-2.91-3.45s-2.91,2.09-2.91,3.45,1.31,3.45,2.91,3.45,2.91-2.09,2.91-3.45M165.36,47.06c1.14.13,2.22-1.25,2.33-2.21.11-.96-.65-2.55-1.79-2.67-1.14-.13-2.22,1.25-2.33,2.22-.1.96.66,2.55,1.8,2.67M123.03,42.17c-1.14.13-1.9,1.71-1.8,2.68.11.96,1.19,2.34,2.33,2.21,1.14-.13,1.9-1.71,1.8-2.67-.11-.96-1.19-2.34-2.33-2.22M146.86,66.37c0-1.13-1.08-2.87-2.42-2.87s-2.42,1.74-2.42,2.87,1.08,2.87,2.42,2.87,2.42-1.74,2.42-2.87M161.77,70.68c.93.19,1.93-.88,2.08-1.67.15-.79-.37-2.16-1.3-2.34-.93-.19-1.93.88-2.08,1.67-.15.79.37,2.15,1.3,2.34M126.38,66.67c-.93.19-1.46,1.56-1.3,2.34.15.79,1.15,1.86,2.08,1.67.93-.19,1.45-1.55,1.3-2.34-.15-.79-1.15-1.86-2.08-1.67M146.35,86.65c0-.89-.85-2.26-1.9-2.26s-1.91,1.37-1.91,2.26.86,2.26,1.91,2.26,1.9-1.37,1.9-2.26M158.13,90.06c.74.14,1.52-.7,1.64-1.32.12-.62-.29-1.7-1.03-1.85-.74-.14-1.52.7-1.64,1.32-.12.62.29,1.7,1.03,1.85M130.18,86.89c-.74.15-1.15,1.23-1.03,1.85.12.62.9,1.47,1.64,1.32.73-.15,1.15-1.23,1.03-1.85-.12-.62-.9-1.46-1.64-1.32M258.55,234.85c7.77,0,16.01-2.76,24.57-8.2-2,.1-4.59.19-7.65.19-6.33,0-12.76-.36-19.12-1.06-1.82-.2-3.54-.3-5.12-.3-2.22,0-4.01.19-5.48.49,1.99,2.15,3.19,4.45,3.88,6.67,2.3.19,5.07.77,7.96,2.19.32,0,.64.03.97.03M267.29,248.39c-2.99-5.59-8.31-12.17-17.09-13.18.48,3.11.09,5.83-.25,7.38,1.32.79,2.96,1.47,5.01,1.94,6.06,1.4,9.92,2.77,12.32,3.86M247.32,242.88c.58-1.86,3.8-14.29-11.36-20.38-.58-.23-1.19-.35-1.84-.35-1.33,0-2.45.51-2.83.83-6.16,5.14-14.59,9.3-20.31,11.82,3.52.77,7.82,2.93,10.77,8.51,3.31,6.28,2.85,10.86,1.88,13.6-.13.36-.27.7-.42,1.02,2.84-1.2,7.27-3.34,13.29-7,7.24-4.4,10.18-7.36,10.82-8.06M219.16,259.42c.76-.68,4.28-4.28,1.93-11.41-2.81,1.43-4.69,2.24-7.53,3.41-.36.48-1.34,2.13-.4,4.91.31.88,1.03,2.48,2.45,3.15.97.46,2.16.44,3.54-.05M199.64,247.41c6.05-1.97,11.74-4.27,16.98-6.89-1.06-1.01-2.18-1.75-3.29-2.28-11.77,5.62-25.78,9.64-41.01,11.84-.33,1.07-.55,2.27-.64,3.62.41-.06.81-.11,1.21-.17,3.05-2.01,8.35-4.48,16.41-4.95,4.17-.24,7.57-.67,10.34-1.18M185.69,259.13c9.09,0,16.54-3.82,22.19-11.37-.03.02-.07.03-.11.04-4.52,1.75-10.68,2.85-18.33,3.29-6.59.38-11.11,2.21-13.75,3.67-1.23.69-2.18,1.36-2.86,1.91,2.45.94,7.26,2.46,12.86,2.46h0M203.55,261.65c-1.71-1.1-3.49-1.99-5.29-2.73-4.45,2.08-8.86,2.72-12.58,2.72h0c-3.76,0-7.15-.62-9.81-1.34,3.8,3.18,11.07,6.7,24.68,6.7,4.17,0,8.73-.33,13.62-.99-3.32-.74-7.04-2.06-10.62-4.37M200.01,280.21c-1.06-4.42-3.06-8.01-5.53-10.93-9.1-.76-14.94-3.21-18.66-5.79,2.6,3.25,6.96,7.01,14.3,10.3,4.81,2.16,7.92,4.5,9.89,6.42M161.83,271.82c7.63,0,12.59-.95,16.45-1.99-4.73-2.24-8.65-7.47-9.05-12.93-.56-7.61,2.16-11.84,5.34-14.41l-.11.02c-6.96,1.4-15.62,3.15-29.93,3.16h-.14c-14.31-.01-22.97-1.76-29.93-3.16l-.11-.02c3.18,2.57,5.89,6.8,5.34,14.41-.4,5.46-4.32,10.69-9.05,12.93,3.86,1.04,8.83,1.99,16.46,1.99,2.84,0,6.38-5.09,7.4-6.88.22-.39.63-.63,1.07-.63.09,0,.17,0,.26.03.52.11.92.55.98,1.09.79,7.21-.12,12.81-2.69,16.7,0,0,0,0,0,0-.35.53-.73,1.03-1.14,1.49-.93,1.06-1.96,1.87-3,2.49,1.49-.28,2.94-.76,4.32-1.45,6.74-3.33,8.65-9.51,8.96-10.72.14-.55.63-.94,1.2-.94s1.05.38,1.2.94c.31,1.21,2.22,7.39,8.96,10.72,1.38.68,2.83,1.17,4.32,1.45-1.04-.62-2.06-1.43-3-2.49-3.43-3.89-4.72-10.01-3.83-18.2.06-.54.45-.98.98-1.09.53-.11,1.06.13,1.33.6,1.02,1.78,4.56,6.88,7.4,6.88M162.17,282.05c-1.05.3-2.06.58-3.6.69,2.67,2.43,5.98,2.83,7.82,2.83.31,0,.57-.01.76-.03.78-1.02.28-1.97-.32-2.62-.81-.86-2.48-1.18-3.2-1.26-.54.12-1.01.26-1.46.38M122.53,285.57c1.84,0,5.14-.4,7.82-2.83-1.54-.11-2.56-.39-3.6-.69-.46-.13-.93-.26-1.46-.38-.74.07-2.4.4-3.2,1.26-.59.65-1.1,1.6-.32,2.62.2.01.45.03.76.03M98.69,273.79c7.33-3.29,11.7-7.06,14.29-10.3-3.72,2.59-9.59,5.05-18.75,5.8-2.66,3.17-4.49,6.82-5.46,10.94,1.97-1.92,5.09-4.27,9.91-6.44M88.25,267.01c13.89,0,21.17-3.62,24.89-6.82-2.6.68-5.93,1.28-9.64,1.28s-8.14-.63-12.62-2.68c-1.92.75-3.82,1.7-5.64,2.87-3.57,2.3-7.29,3.62-10.62,4.37,4.89.66,9.45.99,13.62.99h0M81.27,247.9c5.73,7.34,13.19,11.05,22.23,11.05,5.44,0,10.06-1.4,12.45-2.29-.67-.54-1.62-1.21-2.84-1.89-2.64-1.47-7.17-3.3-13.75-3.67-9.03-.51-14.66-1.89-18.09-3.2M72.31,240.52c5.27,2.64,11,4.96,17.11,6.93,2.72.5,6.03.91,10.09,1.14,8.04.46,13.33,2.91,16.38,4.92.45.07.9.13,1.36.2-.09-1.36-.31-2.56-.64-3.62-15.22-2.21-29.23-6.22-41-11.84-1.11.53-2.23,1.27-3.29,2.28M67.16,243.31c2.95-5.59,7.25-7.75,10.78-8.51-5.72-2.53-14.16-6.68-20.31-11.82-.39-.32-1.49-.83-2.83-.83-.64,0-1.26.12-1.84.35-15.16,6.09-11.95,18.51-11.36,20.38.63.69,3.57,3.65,10.82,8.06,6.06,3.68,10.51,5.82,13.34,7.02-1.4-2.98-2.17-7.85,1.41-14.64M75.36,251.42c-2.84-1.17-4.71-1.98-7.52-3.41-.11.34-.21.67-.29,1-1.26,4.8.19,7.86,1.31,9.38.39.53.74.87.91,1.03,1.38.49,2.57.51,3.54.05,1.42-.67,2.14-2.26,2.45-3.15.95-2.77-.02-4.41-.4-4.91M39.31,232.63c.68-2.22,1.88-4.52,3.87-6.66-1.47-.3-3.26-.5-5.47-.5-1.58,0-3.31.1-5.12.3-6.36.71-12.79,1.06-19.12,1.06h0c-3.07,0-5.66-.08-7.65-.19,8.56,5.45,16.8,8.2,24.57,8.2.33,0,.65-.02.97-.03,2.89-1.43,5.66-2.01,7.96-2.19M33.96,244.53c2.04-.47,3.69-1.16,5.01-1.95-.34-1.55-.73-4.26-.25-7.36-8.77,1.01-14.1,7.59-17.09,13.18,2.41-1.09,6.27-2.46,12.33-3.86M20.5,212.93c4.02,4.89,8.29,8.34,12.66,10.27,1.59-.15,3.12-.24,4.54-.24,3.26,0,5.76.4,7.69.97,1.22-.97,2.65-1.88,4.31-2.72-1.45-2.07-4.63-4.92-11.31-5.47-8.61-.7-14.44-1.91-17.89-2.82M17.58,209.38c.06.03,6.55,2.68,21.01,3.87.74.06,1.45.15,2.12.26-1.35-3.63-2.05-7.37-2.05-11.17,0-5.73,1.57-11.3,4.6-16.58-2.72,1.12-5.23,1.72-7.03,2.03v2.53c0,.25-.08.49-.21.69-.85,4.58-4.39,8.9-10.97,8.9-7.31,0-9.84-5.12-10.15-7.84,0,0,0,0,0,0,0-.04-.03-.23,0-.54v-9.02c-2.26,1.46-4.17,3.55-5.21,6.28-.34.89-.59,1.92-.74,3.05-.69,5.13.83,12.29,7.16,17.99,0-.01.02-.03.03-.04.34-.44.94-.6,1.45-.38M8.54,119.27c-3.22,13.83-.95,22.47,1.91,27.55,1.71-1.45,3.94-2.89,6.61-3.69-.27-1.76-.84-3.75-1.85-5.98-3.67-8.07-5.63-14.04-6.67-17.87M22.19,104.63c-3.55,6.64-7.44,16.14-7.26,25.56.73,1.82,1.57,3.78,2.53,5.89,1.09,2.4,1.72,4.57,2.03,6.51.59-.07,1.19-.11,1.81-.11,1.25,0,2.44.12,3.55.32.79-2.76,1.06-6.93-.38-13.04-2.64-11.18-2.72-19.73-2.28-25.13M17.38,187.25c.71-.52,1.63-1,2.81-1.39,1.43-.47,2.66-.53,3.57-.46v-5.52c-2.06.02-4.29.49-6.38,1.33v6.04M20.95,188.25c-3.06,1-3.51,2.68-3.57,3.29v.27c.1.62,1.07,5.58,7.68,5.58,5.88,0,8.6-4.22,8.69-8.4.12-5.49-4.49-7.82-6.47-8.57-.32-.12-.68-.21-1.05-.29v6.8c0,.42-.21.8-.54,1.03-.34.24-.77.29-1.15.14-.05-.02-1.48-.53-3.6.16M33.76,149.84c-1.27-1.14-5.91-4.85-12.46-4.85s-11.42,5.74-12.46,7.12v32.97c1.47-2.16,3.59-4.08,6.06-5.48v-.05l.54-.25c3.16-1.66,6.81-2.46,10.33-1.83.86.11,1.66.29,2.38.56,2.34.88,4.24,2.21,5.61,3.86v-32.07M27.9,135.65c.23,3.21-.07,5.75-.62,7.73,1.51.47,2.85,1.06,4,1.69,2.37-4,4.05-10.27.88-19.11-.7,2.18-1.97,5.33-4.26,9.68M36.24,185.21c3.76-.72,10.43-2.72,15.28-8.16,3.63-4.07,5.63-9.38,5.99-15.81-2.45,3.48-6.98,8.4-14.57,11.6-3.26,1.37-5.36,3.01-6.7,4.65v7.72ZM36.24,173.97c1.45-1.24,3.32-2.42,5.74-3.44,1.35-.57,2.6-1.2,3.75-1.87,1.11-1.7,2.01-3.71,2.49-6.07,1.61-7.94,4.33-13.13,6.58-16.29-8.55,3.91-14.29,10.04-17.09,18.27-.78,2.28-1.22,4.45-1.47,6.36v3.04ZM36.24,161.48c1.77-4.15,4.77-8.8,9.86-12.81.56-5.27-.01-11.09-1.75-17.36-.5,5.51-2.37,13.29-7.91,22.21-.07.11-.14.23-.2.34v7.61ZM67.83,166.52c-4.24,2.41-8.02,4.98-11.29,7.7-.9,1.63-1.97,3.15-3.2,4.53-1.74,1.95-3.67,3.49-5.63,4.72-4.31,5.93-6.57,12.3-6.57,18.86,0,4.05.86,8.02,2.53,11.86,2.26.7,4,1.68,5.34,2.73-2.9-4.68-4.41-9.58-4.41-14.59,0-11.73,8.27-22.91,23.43-31.89-.42-.24-.68-.71-.63-1.22.05-.53.18-1.56.43-2.7M66.31,161.08c1.07.34,2.5.7,3.52.7.43,0,.63-.06.69-.09.55-.25.98-.7,1.19-1.27.22-.57.2-1.19-.05-1.75-.36-.82-1.17-1.35-2.06-1.35-.31,0-.62.07-.91.2-.62.28-1.61,1.9-2.38,3.57M63.6,153.51c1.33.85,2.96,1.7,3.81,1.7.04,0,.07,0,.1,0,.6-.1,1.12-.42,1.47-.91.36-.49.5-1.1.4-1.7-.19-1.22-1.36-2.1-2.58-1.9-.68.11-2.04,1.41-3.21,2.82M68.13,140.19c-2.05,2.65-1.54,5.41-.14,8.03.07.01.13.03.2.04-.07-2.68.57-5.19,2.62-7.23,1.24-1.22,2.69-2.02,4.34-2.37-.82-.27-1.73-.44-2.66-.44-1.29,0-3.1.34-4.36,1.97M78.64,141.08c-.34-.04-.85-.11-1.45-.11-1.85,0-3.41.63-4.65,1.86-1.78,1.77-2.13,4.14-1.73,7.05.53.65.89,1.44,1.03,2.32.16,1.03-.01,2.05-.48,2.96,1.12.46,2.06,1.33,2.57,2.49.51,1.15.55,2.43.12,3.61.97.26,1.84.81,2.48,1.62.55.69.88,1.49,1,2.31,1.87,2.26,3.83,3.59,6.34,3.43,3.16-.2,4.7-2.46,5.37-3.43.11-.17.23-.35.38-.5.25-.29.61-.47,1.04-.47.23,0,.49.05.88.12.67.12,1.68.31,2.9.31,2.85,0,5.33-1.03,7.37-3.05,3.56-3.53,4.77-9.72,2.72-13.67,0,0-.01-.02-.02-.03v-.02c-.04-.05-.06-.11-.09-.15-.05-.09-.08-.17-.11-.26l-2.59-5.88c-.04-.08-.09-.15-.12-.25-.01-.04-.03-.09-.05-.13l-.02-.05c-.06-.15-.12-.3-.17-.45-1.7-4-6.75-7-11.68-6.68-5.49.35-7.86,4.24-8.88,5.9-.4.65-.74,1.22-1.51,1.22h0s-.04,0-.07,0c-.02,0-.03,0-.05,0-.16,0-.32-.02-.54-.05M81.66,132.36c-.88,1.25-1.39,2.64-1.5,4.11,1.66-2.07,4.6-4.66,9.37-4.97,3.75-.24,7.56,1.14,10.4,3.44-1.91-4.55-5.1-6.99-9.29-6.99-.27,0-.54.01-.82.03-3.35.25-6.4,1.88-8.15,4.37M103.75,138.26c-.23.61-.21,1.27.05,1.87l2.96,6.74c.39.88,1.25,1.45,2.2,1.45.34,0,.66-.07.98-.21.46-.21.83-.55,1.08-.98-.02-.04-.04-.08-.06-.12l-4.45-10.12s-.03-.09-.05-.13c-.15-.03-.3-.05-.46-.05-.34,0-.67.07-.98.21-.59.26-1.03.74-1.27,1.35M108.73,133.99c-.23.61-.21,1.27.05,1.87l4.45,10.12c.39.88,1.25,1.44,2.2,1.44.34,0,.67-.07.98-.21.59-.26,1.04-.74,1.27-1.35.23-.61.21-1.27-.05-1.87l-4.44-10.12c-.39-.88-1.25-1.45-2.2-1.45-.34,0-.66.07-.98.21-.59.27-1.04.75-1.27,1.35M116.45,131.75c-.47.21-.84.57-1.08.99.02.04.04.08.06.12l4.45,10.12s.03.09.05.13c.15.03.31.05.46.05.34,0,.67-.07.98-.21,1.21-.55,1.76-1.99,1.22-3.22l-2.97-6.75c-.39-.88-1.25-1.45-2.2-1.45-.33,0-.66.07-.97.21M117.8,125.62c2.21-.23,4.36-.74,6.41-1.5l-15.73-7.1c-.37-.04-.73-.09-1.08-.15,2.19,3.39,5.72,6.95,10.4,8.75M95.89,121.96c2.12,1.35,7.05,3.57,16.72,3.76-4.6-3.09-7.76-7.6-9.23-11.12-1.22-2.91-3.14-7.97-5.7-18.36-.12-.47-.23-.95-.34-1.44l-4.57.97.92,4.5-3.88.82-.92-4.5-4.42.93c1.46,8.85,3.83,19.61,11.42,24.44M88.08,92.66l-.92-4.5,3.88-.82.92,4.5,4.56-.96c-.02-.11-.04-.22-.06-.33-.3-1.48-.57-3.2-.86-5.01-1.55-9.6-3.66-22.74-12.2-26.82-3.06-1.46-5.49-2.2-10.29-2.2-.5,0-1.04,0-1.6.03-.05,0-.1,0-.15,0,2.35,1.93,5.64,5.23,8.12,12.98,1.28,3.98,2.8,13.84,4.02,21.77.12.79.24,1.54.35,2.26l4.24-.89ZM82.9,102.73c-.55-2.67-.96-5.29-1.33-7.69-.12-.76-.25-1.59-.38-2.46l-31.6-14.26-1.57,3.57-1.87,4.26,36.76,16.58ZM82.08,105.11l-35.49-16.01-2.72,6.2,1.56.71c.62.28.91,1.02.63,1.66l-2.4,5.46c-.28.63-1.01.92-1.64.64l-1.57-.71-2.47,5.64,13.94,6.24,2.48-5.64-1.57-.71c-.3-.14-.53-.39-.65-.7-.12-.31-.11-.66.03-.96l2.38-5.42c.28-.63,1.01-.92,1.64-.64l1.56.7.72-1.62c.28-.63,1.01-.92,1.63-.64l5.4,2.44c.3.13.54.38.65.69.12.31.11.66-.03.96l-.69,1.58,1.57.7c.3.14.53.39.65.7.12.31.11.66-.02.96l-2.4,5.47c-.28.63-1.01.92-1.63.64l-1.57-.71-2.47,5.64,13.94,6.24,2.48-5.64-1.57-.71c-.63-.28-.91-1.03-.63-1.66l2.38-5.42c.14-.3.38-.54.69-.66.31-.12.65-.11.95.03l1.56.71,2.71-6.16ZM47.82,76.15c.26-.59.28-1.26.05-1.87-.23-.61-.68-1.09-1.27-1.35-.31-.14-.64-.21-.98-.21-.95,0-1.81.57-2.2,1.45l-4.45,10.12c-.26.59-.28,1.25-.05,1.86.23.61.68,1.09,1.27,1.35.31.14.64.21.98.21.95,0,1.81-.57,2.2-1.45l4.45-10.12ZM41.16,73.15s.05-.08.06-.13c-.25-.42-.61-.77-1.09-.98-.31-.14-.64-.21-.98-.21-.95,0-1.81.57-2.2,1.45l-2.97,6.75c-.54,1.23,0,2.67,1.22,3.22.31.14.64.21.97.21.16,0,.31-.02.47-.05.02-.04.03-.09.05-.13l4.45-10.12ZM34.55,72.6c-.07,0-.13,0-.19,0-1.38,0-2.64.83-3.2,2.11-.61,1.38-.27,2.94.73,3.96l2.66-6.05ZM75.44,68.97c.28-.02.57-.04.85-.04-1.99-4.49-3.82-7.47-5.29-9.36-1.07-1.03-2.03-1.71-2.76-2.31-.16-.13-.32-.26-.49-.38-.89.04-2.72.31-4.65,1.69-.48.35-.92.68-1.32.98-1.26.95-2.31,1.74-3.57,2.21.39.07.81.1,1.28.1,1.17,0,2.44-.24,3.78-.74.71-.26,2.59-.48,3.4-.48,1.19,0,1.51.67,1.58,1.07.03.17.15,1.07-.89,1.52-.8.34-1.52.9-2.29,1.5-.78.6-1.61,1.25-2.62,1.75.28.03.59.05.92.05,1.27,0,2.71-.28,4.25-.84.75-.27,2.61-.44,3.33-.44,1.15,0,1.51.58,1.6,1.07.09.48-.07,1.16-.84,1.49-.74.32-1.44.93-2.19,1.57-.88.77-1.9,1.65-3.21,2.19.44.16.94.26,1.5.26,1.21,0,2.52-.48,3.88-1.41l.17-.12c.71-.5,1.68-1.17,3.58-1.32M101.7,101.84c1.53,5.49,2.74,8.81,3.64,11.02l25.69,11.59,10.39-4.69-39.72-17.92ZM129.28,101.44c-.8,3.22-2.39,5.94-4.29,8.16l11.71,5.28c2.26-2.89,4.05-6.27,5.23-10,.39-1.23.95-3.78,1.26-5.68-4.84.07-9.62.51-13.77,1.32l-.13.92M125.37,98.88c.59-.16,1.2-.32,1.83-.46v-.03c10.18-2.32,24.61-2.31,34.73.05v.03c.56.13,1.1.27,1.62.41.01,0,.03-.01.04-.02.41-.22.58-.49.66-.69.27-.62.12-1.48-.03-2.04-5.36-1.68-12.35-2.61-19.78-2.61s-14.39.92-19.75,2.59c-.16.58-.3,1.43-.03,2.06.08.19.25.46.66.68.01,0,.03.01.04.02M123.67,92.08c.27.5.53,1,.75,1.5,5.52-1.66,12.57-2.57,20.02-2.57s14.53.91,20.06,2.58c.22-.5.48-1,.74-1.5-.15.08-.32.13-.5.14-.21.03-.42.04-.61.04-1.14,0-2.07-.48-3.02-1.57-.42-.48-.42-1.2,0-1.68.14-.15.23-.33.26-.53.1-.5-.18-1.01-.65-1.2-.32-.13-.58-.39-.71-.72-.12-.33-.1-.71.06-1.02.05-.1.08-.19.1-.29.11-.58-.27-1.15-.85-1.27-.58-.11-1.14.28-1.25.86-.02.1-.02.2-.01.31.03.35-.08.7-.31.96-.24.26-.57.41-.92.41-.51,0-.94.37-1.04.88-.04.18-.02.37.03.54.18.55-.04,1.16-.53,1.46-.05.03-.1.06-.15.08-.71.35-1.55.54-2.38.54-1.42,0-2.76-.56-3.77-1.57-.35-.34-.46-.86-.3-1.32.14-.38.26-.87.26-1.03,0-.98-.69-1.82-1.63-2.01-.34-.07-.64-.28-.83-.58-.18-.3-.23-.67-.13-1.01.06-.19.08-.38.08-.58,0-1.13-.9-2.05-2.02-2.05s-2.02.92-2.02,2.05c0,.2.02.39.08.58.1.34.05.71-.13,1.01-.18.3-.48.51-.82.58-.95.19-1.63,1.03-1.63,2.01,0,.17.14.7.26,1.03.16.46.05.98-.3,1.32-1.01,1.01-2.35,1.57-3.77,1.57-.85,0-1.72-.21-2.44-.57-.55-.28-.81-.93-.61-1.52.05-.17.06-.35.03-.53-.1-.51-.54-.88-1.04-.88-.35,0-.68-.15-.92-.41-.23-.26-.34-.61-.31-.97,0-.11,0-.22-.01-.31-.11-.57-.67-.97-1.25-.86-.28.06-.53.21-.68.46-.16.24-.22.53-.17.81.02.1.05.2.1.29.16.31.18.68.06,1.01-.12.33-.38.59-.7.72-.47.19-.75.7-.65,1.2.03.21.12.38.25.53.43.47.43,1.2,0,1.68-.95,1.08-1.87,1.57-3.01,1.57-.21,0-.42-.02-.65-.05-.16-.02-.32-.07-.47-.15M119.24,77.63c1.31,3.47,2.87,6.99,4.71,10.5.21.16.42.35.6.58.23.29.42.66.56,1.01.05-.02.11-.05.18-.08-.09-.21-.15-.43-.19-.66-.25-1.29.23-2.57,1.17-3.39-.13-.89.07-1.79.58-2.54.53-.8,1.34-1.33,2.27-1.51.06-.01.13-.02.19-.03.16-.02.32-.04.47-.04,1.65,0,3.08,1.16,3.45,2.77,1.17.41,2.08,1.44,2.32,2.72.03.18.05.36.06.54.17.03.35.04.53.04.4,0,.94-.08,1.47-.4-.08-.33-.14-.69-.14-1.01,0-1.77,1-3.33,2.5-4.09v-.09c0-2.52,2.02-4.56,4.49-4.56s4.5,2.04,4.5,4.56c0,.03,0,.06,0,.09,1.5.75,2.51,2.32,2.51,4.09,0,.31-.07.68-.15,1.01.54.32,1.07.4,1.47.4.18,0,.36-.02.52-.05,0-.18.03-.36.06-.54.24-1.29,1.15-2.31,2.32-2.72.38-1.61,1.8-2.77,3.45-2.77.15,0,.31.01.47.04.06,0,.13.01.19.02,1.87.36,3.12,2.16,2.85,4.05.94.82,1.41,2.1,1.17,3.39-.04.23-.11.45-.19.66.06.04.12.06.18.08.14-.35.34-.72.56-1.01.18-.23.39-.42.6-.58,1.83-3.5,3.39-7.02,4.7-10.47-3.34-.93-7.28-1.66-11.57-2.15-4.28-.49-8.91-.75-13.67-.75s-9.35.26-13.61.75c-4.3.49-8.23,1.22-11.58,2.15M115.17,70.05c.86,1.7,1.74,3.63,2.38,5.45,6.97-2.09,16.67-3.28,26.89-3.28s19.96,1.2,26.94,3.29c.64-1.82,1.53-3.76,2.38-5.47-.44.09-.98.28-1.3.7-.21.26-.5,1.01-.62,1.46-.14.47-.54.82-1.02.89-1.91.27-3.76-.39-4.99-1.81-.42-.48-.42-1.21,0-1.68.21-.23.35-.51.41-.83.15-.8-.28-1.6-1.03-1.9-.32-.13-.58-.39-.7-.72-.13-.33-.11-.7.05-1.01.08-.15.13-.31.16-.47.08-.45,0-.9-.26-1.28-.26-.37-.64-.63-1.08-.72-.91-.18-1.8.45-1.97,1.36-.03.16-.04.32-.02.49.03.35-.08.7-.32.96-.23.26-.57.41-.91.41-.8,0-1.49.59-1.64,1.39-.06.29-.04.58.05.85.2.62-.1,1.3-.69,1.55-.86.42-1.86.65-2.86.65-1.72,0-3.33-.67-4.55-1.89-.38-.38-.48-.96-.24-1.45.19-.41.3-.84.3-1.29,0-1.4-.99-2.61-2.34-2.87-.35-.07-.64-.28-.83-.58-.18-.3-.23-.67-.13-1.01.08-.27.12-.55.12-.83,0-1.61-1.3-2.93-2.89-2.93s-2.89,1.31-2.89,2.93c0,.28.04.56.12.82.1.34.05.71-.12,1.01-.19.31-.48.52-.83.58-1.35.27-2.34,1.47-2.34,2.87,0,.43.09.84.26,1.23.11.19.16.41.16.63,0,.34-.13.68-.4.92-1.22,1.2-2.82,1.86-4.52,1.86-1.02,0-2.06-.24-2.93-.69-.55-.28-.81-.93-.62-1.52.09-.27.11-.56.05-.86-.15-.8-.84-1.38-1.64-1.38-.35,0-.68-.15-.92-.41-.23-.26-.34-.61-.31-.96.02-.16,0-.33-.02-.49-.17-.91-1.06-1.53-1.97-1.36-.44.09-.83.34-1.08.72-.25.38-.35.83-.26,1.28.03.15.08.31.16.46.15.31.18.68.05,1.01-.12.33-.38.59-.7.72-.74.3-1.18,1.1-1.02,1.9.06.31.2.59.41.82.44.5.43,1.25-.03,1.72-1.07,1.2-2.49,1.83-4.11,1.83-.29,0-.57-.02-.85-.06-.49-.07-.88-.42-1.02-.89-.12-.43-.41-1.18-.62-1.45-.33-.42-.87-.61-1.31-.7M136.81,51.73c-8.38.32-16.42,1.18-23.02,2.57.34,4.02,1.08,8.57,2.32,13.4.77.22,1.64.65,2.3,1.48.32.41.59.98.77,1.45.52-.03.98-.17,1.39-.43-.14-.3-.24-.63-.3-.96-.3-1.57.32-3.15,1.51-4.1h0c-.21-1.11.02-2.23.64-3.16.63-.93,1.57-1.56,2.67-1.77.26-.05.52-.07.78-.07,1.99,0,3.71,1.44,4.08,3.43h0c1.46.44,2.6,1.68,2.9,3.25.02.14.04.28.06.42.01.16.02.32.01.48.32.08.65.12.99.12.6,0,1.42-.13,2.21-.67-.13-.47-.19-.96-.19-1.46,0-2.18,1.28-4.11,3.18-4.97,0-.11,0-.21,0-.32,0-3,2.41-5.44,5.36-5.44s5.37,2.44,5.37,5.44c0,.11,0,.21,0,.32,1.9.86,3.18,2.79,3.18,4.97,0,.49-.07.98-.19,1.45.8.54,1.61.67,2.21.67.33,0,.67-.04.99-.12,0-.16,0-.32.02-.48,0-.14.03-.28.05-.42.3-1.58,1.44-2.81,2.9-3.25h0c.37-1.99,2.09-3.43,4.08-3.43.26,0,.53.02.78.07,1.09.21,2.04.84,2.66,1.78.62.93.86,2.05.65,3.16,1.19.95,1.81,2.53,1.51,4.1-.06.34-.17.66-.3.96.41.25.87.4,1.39.43.19-.48.45-1.05.77-1.45.66-.83,1.53-1.26,2.31-1.48,1.23-4.84,1.98-9.38,2.32-13.41-6.61-1.39-14.65-2.24-23.03-2.56-5.06-.19-10.23-.19-15.29,0M112.61,51.98c17.95-3.93,45.76-3.93,63.7,0,.32-2.27,1.03-4.59,1.75-6.53-.33.17-.67.43-.86.82-.36.74-1.12,2.33-1.12,2.33-.17.35-.48.59-.85.68-2,.44-3.25.03-4.95-1.63-.45-.44-.51-1.17-.12-1.67.26-.34.42-.74.46-1.16.12-1.1-.55-2.13-1.58-2.46-.33-.1-.6-.35-.75-.67-.14-.32-.15-.69-.02-1.01.09-.21.14-.43.17-.64.14-1.26-.77-2.41-2.01-2.55-1.25-.15-2.38.77-2.52,2.04-.02.22-.01.44.02.66.06.35-.02.7-.24.98-.22.28-.54.46-.89.48-1.08.09-1.95.95-2.07,2.04-.04.38,0,.76.15,1.11.07.16.11.34.11.52,0,.52-.32.99-.79,1.17-2.62,1.16-6.46.99-8.46-1.61-.32-.42-.35-.98-.09-1.42.22-.49.33-1.02.33-1.57,0-1.81-1.26-3.37-3.01-3.71-.34-.06-.64-.28-.82-.58-.18-.3-.23-.67-.13-1.01.1-.35.15-.71.15-1.07,0-2.08-1.67-3.78-3.73-3.78-1.53,0-2.84.93-3.41,2.27-.2.46-.31.97-.31,1.5,0,.36.05.72.15,1.07.06.2.07.4.03.6-.03.14-.08.28-.15.41-.18.3-.48.51-.82.58-1.44.28-2.55,1.38-2.9,2.77-.08.3-.12.62-.12.94,0,.57.13,1.12.37,1.64.23.43.2.96-.11,1.37-2,2.6-5.84,2.76-8.47,1.6-.08-.03-.16-.07-.23-.12-.49-.33-.69-.98-.45-1.53.14-.36.2-.75.16-1.15-.12-1.09-.99-1.95-2.07-2.04-.35-.03-.67-.2-.88-.48-.21-.28-.3-.64-.24-.99.04-.22.05-.44.02-.66-.14-1.26-1.26-2.18-2.51-2.04-1.25.14-2.15,1.28-2.01,2.55.02.21.08.43.17.64.13.32.12.69-.02,1.01-.15.32-.42.56-.75.67-1.04.33-1.7,1.36-1.58,2.46.05.42.21.82.46,1.16.39.5.34,1.23-.12,1.67-1.7,1.66-2.94,2.07-4.94,1.63-.38-.08-.69-.33-.85-.68,0,0-.76-1.59-1.12-2.33-.19-.39-.52-.65-.86-.82.72,1.94,1.42,4.26,1.75,6.53M114.39,41.64c-.26.94-.45,2.05-.59,3.28.05.08.1.16.15.25.22.46.59,1.24.85,1.77.48.05.85-.04,1.4-.45-.19-.44-.31-.91-.36-1.39-.21-1.87.69-3.66,2.21-4.62,0-.05-.01-.1-.02-.15-.29-2.64,1.6-5.03,4.21-5.32,2.59-.28,4.96,1.62,5.25,4.26,0,.05,0,.1.01.16,1.69.6,2.95,2.14,3.16,4.02.04.36.04.72,0,1.08,1.31.3,2.99.24,4.1-.66-.2-.62-.3-1.27-.3-1.94,0-.55.07-1.09.2-1.6.49-1.89,1.84-3.47,3.64-4.22-.02-.18-.02-.36-.02-.55,0-.89.18-1.74.51-2.5.69-1.6,2.01-2.85,3.64-3.43.64-.23,1.34-.36,2.06-.36s1.42.13,2.06.37c2.41.86,4.14,3.19,4.14,5.93,0,.18,0,.36-.02.55,2.28.95,3.84,3.23,3.84,5.81,0,.67-.1,1.32-.3,1.94,1.11.9,2.79.96,4.1.66-.04-.36-.04-.72,0-1.08.21-1.88,1.47-3.42,3.16-4.02,0-.05,0-.11.01-.16.29-2.64,2.65-4.55,5.26-4.26,2.61.29,4.49,2.68,4.2,5.32,0,.05,0,.1-.02.16,1.52.96,2.42,2.75,2.21,4.62-.06.48-.18.95-.37,1.39.54.42.92.5,1.4.45.26-.53.63-1.31.85-1.77.04-.09.09-.17.15-.25-.14-1.23-.33-2.34-.59-3.27-2.53-9.37-12.71-18.82-29.75-18.94-.11,0-.21,0-.32,0s-.21,0-.32,0c-17.04.12-27.22,9.57-29.75,18.94M144.46,13.26c-1.82,0-3.31,1.51-3.31,3.36s1.49,3.36,3.31,3.36,3.32-1.51,3.32-3.36-1.49-3.36-3.32-3.36M164.08,109.53c-1.88-2.2-3.44-4.9-4.24-8.09l-.02-.13-.1-.75c-4.14-.82-8.93-1.28-13.77-1.35.31,1.89.87,4.44,1.26,5.67,1.17,3.71,2.95,7.06,5.18,9.94l11.71-5.28M150.05,115.86c-2.23-2.99-4.01-6.43-5.21-10.22-.09-.27-.18-.6-.28-.98-.1.38-.19.71-.28.98-1.21,3.82-3.01,7.28-5.26,10.29l5.43,2.45,5.59-2.52ZM131.18,127.12l3.44,7.83,49.22-22.21c.9-2.22,2.11-5.56,3.62-11.01l-56.28,25.39ZM191.44,96.25c-2.55,10.38-4.47,15.45-5.69,18.36-1.48,3.52-4.63,8.03-9.24,11.12,9.67-.2,14.6-2.42,16.72-3.76,7.59-4.83,9.96-15.58,11.42-24.44l-4.42-.93-.92,4.5-3.88-.82.92-4.5-4.57-.97c-.11.49-.22.97-.34,1.44M192.64,90.68c-.01.07-.03.14-.04.21l4.56.96.92-4.5,3.88.82-.92,4.5,4.24.89c.11-.71.23-1.47.35-2.26,1.22-7.92,2.74-17.78,4.02-21.77,2.48-7.74,5.77-11.05,8.12-12.98-.05,0-.1,0-.15,0-.56-.02-1.1-.03-1.61-.03-4.79,0-7.22.74-10.29,2.2-8.53,4.08-10.65,17.22-12.2,26.82-.29,1.82-.57,3.53-.86,5.02l-.02.12M220.89,57.26c-.55.45-1.25.96-2.02,1.62-1.55,1.82-3.6,4.97-5.85,10.04.29,0,.57.03.85.04,1.9.15,2.88.83,3.58,1.32l.17.12c1.36.94,2.67,1.41,3.88,1.41.56,0,1.06-.1,1.5-.26-1.32-.53-2.33-1.42-3.22-2.19-.74-.65-1.44-1.25-2.18-1.57-.78-.33-.94-1.01-.84-1.49.1-.49.45-1.07,1.6-1.07.72,0,2.57.17,3.32.44,1.55.56,2.98.84,4.26.84h0c.33,0,.64-.02.92-.05-1.01-.51-1.84-1.15-2.62-1.75-.77-.59-1.49-1.15-2.29-1.49-1.05-.44-.93-1.34-.89-1.52.08-.4.39-1.07,1.58-1.07.81,0,2.69.22,3.4.48,1.33.49,2.6.74,3.77.74.46,0,.89-.04,1.28-.11-1.26-.47-2.31-1.26-3.57-2.21-.4-.3-.84-.63-1.32-.98-2.07-1.49-4.03-1.69-4.84-1.7-.16.13-.33.26-.49.39M207.96,92.48c-.14.91-.27,1.77-.4,2.56-.37,2.37-.78,4.95-1.32,7.59l36.53-16.48-.14-.31-3.3-7.52-31.38,14.16ZM241.05,74.29c-.23.61-.21,1.27.05,1.87l4.45,10.12c.39.88,1.25,1.45,2.2,1.45.33,0,.66-.07.98-.21.59-.27,1.04-.75,1.27-1.35.23-.61.21-1.27-.05-1.86l-4.45-10.12c-.39-.88-1.25-1.45-2.2-1.45-.34,0-.66.07-.98.21-.59.27-1.04.75-1.27,1.35M248.78,72.04c-.47.21-.84.56-1.08.98.02.05.05.08.07.13l4.45,10.12s.03.09.05.13c.15.03.31.05.47.05.33,0,.66-.07.97-.21,1.21-.55,1.76-1.99,1.22-3.22l-2.97-6.75c-.39-.88-1.25-1.45-2.2-1.45-.33,0-.66.07-.98.21M254.57,72.59c-.07,0-.13,0-.19,0l2.66,6.05c1-1.01,1.34-2.58.74-3.96-.56-1.28-1.82-2.1-3.2-2.1M242.87,97.67c-.28-.63,0-1.38.63-1.66l1.56-.71-2.72-6.2-35.49,16.01,2.7,6.16,1.57-.71c.3-.14.64-.15.95-.03.31.12.55.36.69.66l2.38,5.42c.28.63,0,1.38-.63,1.66l-1.57.71,2.48,5.64,13.93-6.24-2.48-5.64-1.56.71c-.63.28-1.36,0-1.64-.64l-2.4-5.47c-.13-.3-.14-.65-.02-.96.12-.31.35-.56.65-.7l1.56-.7-.69-1.58c-.14-.3-.15-.65-.03-.96.12-.31.35-.56.65-.69l5.4-2.44c.62-.28,1.35,0,1.63.64l.71,1.62,1.56-.7c.62-.28,1.36,0,1.63.64l2.38,5.42c.14.3.14.65.02.96-.12.31-.35.56-.65.7l-1.57.71,2.48,5.64,13.94-6.24-2.48-5.64-1.56.71c-.62.28-1.36,0-1.63-.64l-2.4-5.46ZM171.33,125.62c4.68-1.79,8.21-5.36,10.4-8.75-.42.07-.87.13-1.32.16l-15.6,7.04c2.09.78,4.27,1.3,6.52,1.54M166.33,139.73c-.54,1.23,0,2.67,1.22,3.22.31.14.64.21.98.21.16,0,.31-.02.47-.06.02-.04.03-.08.05-.13l4.45-10.12s.05-.08.06-.12c-.25-.42-.61-.78-1.08-.99-.31-.14-.64-.22-.97-.22-.95,0-1.81.57-2.2,1.45l-2.97,6.75ZM171.31,144c-.26.6-.28,1.26-.05,1.87.23.61.68,1.09,1.27,1.35.31.14.64.21.98.21.95,0,1.81-.56,2.19-1.44l4.45-10.12c.26-.59.28-1.26.05-1.87-.23-.61-.68-1.08-1.27-1.35-.31-.14-.64-.21-.98-.21-.95,0-1.81.57-2.2,1.45l-4.44,10.12ZM177.96,147s-.05.08-.07.12c.26.43.63.77,1.09.98.31.14.64.21.98.21.95,0,1.81-.57,2.2-1.45l2.97-6.74c.26-.6.28-1.26.04-1.87-.23-.61-.68-1.09-1.27-1.35-.31-.14-.64-.21-.98-.21-.16,0-.31.02-.47.05-.02.04-.03.09-.05.13l-4.45,10.12ZM184.62,147.46c-.02.09-.06.18-.11.26-.03.05-.05.11-.08.16h0s0,.03,0,.03c-2.06,3.94-.86,10.15,2.71,13.68,2.04,2.02,4.52,3.05,7.37,3.05,1.22,0,2.23-.19,2.9-.31.39-.07.64-.12.88-.12.42,0,.79.17,1.03.47.15.15.27.33.39.5.66.97,2.21,3.23,5.36,3.43,2.51.16,4.47-1.17,6.35-3.43.12-.82.44-1.62.99-2.31.65-.81,1.52-1.36,2.49-1.62-.43-1.18-.39-2.46.12-3.61.51-1.16,1.44-2.04,2.57-2.49-.46-.9-.64-1.93-.48-2.96.14-.88.5-1.67,1.02-2.32.4-2.92.05-5.28-1.73-7.05-1.24-1.23-2.8-1.86-4.65-1.86-.6,0-1.11.07-1.45.11-.22.03-.39.05-.54.05-.02,0-.03,0-.04,0-.02,0-.04,0-.07,0-.76,0-1.11-.56-1.51-1.22-1.02-1.66-3.4-5.55-8.88-5.9-4.94-.32-9.97,2.68-11.67,6.67-.05.15-.11.31-.18.46l-.02.05s-.03.09-.05.13c-.03.09-.07.17-.12.25l-2.58,5.87ZM199.11,127.99c-4.58-.33-8.08,2.12-10.11,6.96,2.62-2.13,6.08-3.47,9.54-3.47.29,0,.57,0,.87.03,4.77.3,7.7,2.89,9.37,4.97-.12-1.47-.62-2.86-1.5-4.11-1.76-2.49-4.8-4.12-8.16-4.37M216.44,138.23c-.92,0-1.83.17-2.65.44,1.65.35,3.11,1.15,4.34,2.37,2.05,2.04,2.69,4.55,2.62,7.23.07-.02.13-.03.2-.04,1.4-2.62,1.91-5.38-.14-8.03-1.26-1.63-3.07-1.97-4.36-1.97M225.32,153.51c-1.16-1.42-2.53-2.71-3.21-2.82-.12-.02-.24-.03-.35-.03-1.1,0-2.05.83-2.22,1.93-.09.6.05,1.21.4,1.7.36.49.88.82,1.47.91.03,0,.07,0,.11,0,.84,0,2.48-.85,3.81-1.7M219.1,161.78c1.03,0,2.45-.36,3.52-.7-.76-1.67-1.75-3.29-2.37-3.57-.3-.13-.6-.2-.92-.2-.89,0-1.7.53-2.06,1.36-.24.56-.26,1.18-.04,1.75.22.57.64,1.02,1.19,1.27.06.03.26.09.69.09M232.38,174.22c-3.27-2.72-7.04-5.29-11.29-7.7.25,1.14.38,2.17.44,2.7.05.51-.21.99-.63,1.22,15.16,8.98,23.43,20.16,23.43,31.89,0,5.01-1.51,9.91-4.41,14.59,1.34-1.05,3.08-2.03,5.34-2.73,1.67-3.84,2.53-7.81,2.53-11.86,0-6.56-2.26-12.93-6.58-18.86-1.95-1.22-3.89-2.77-5.62-4.72-1.24-1.39-2.31-2.9-3.2-4.53M245.99,172.84c-7.59-3.2-12.13-8.12-14.57-11.6.36,6.44,2.37,11.75,6,15.83,4.85,5.44,11.51,7.43,15.26,8.15v-7.69c-1.33-1.66-3.43-3.3-6.7-4.68M234.12,146.29c2.25,3.16,4.97,8.35,6.59,16.29.48,2.36,1.38,4.36,2.49,6.07,1.15.67,2.39,1.3,3.74,1.87,2.43,1.03,4.3,2.2,5.75,3.44v-3.02c-.25-1.95-.71-4.16-1.51-6.47-2.82-8.18-8.54-14.27-17.06-18.17M244.57,131.32c-1.74,6.26-2.32,12.09-1.75,17.36,5.09,4,8.09,8.65,9.86,12.8v-7.61c-.07-.11-.14-.22-.21-.34-5.53-8.91-7.41-16.69-7.91-22.21M252.89,190.99c-.13-.2-.2-.44-.2-.69v-2.53c-1.8-.31-4.31-.91-7.03-2.03,3.03,5.28,4.61,10.85,4.61,16.58,0,3.81-.7,7.55-2.05,11.17.67-.11,1.38-.2,2.12-.26,14.52-1.19,20.95-3.84,21.01-3.87.51-.21,1.1-.06,1.45.38.01.02.02.04.03.05,3.51-3.15,5.3-6.52,6.2-9.14,1.13-3.26,1.27-6.38.94-8.86-.16-1.18-.42-2.21-.74-3.05-.83-2.18-2.74-4.46-5.21-6.17v8.92c.02.31,0,.5,0,.54,0,0,0,0,0,0-.31,2.72-2.83,7.84-10.15,7.84-6.58,0-10.11-4.32-10.97-8.9M268.73,185.86c1.18.38,2.09.86,2.81,1.39v-6.04c-2.09-.84-4.32-1.31-6.38-1.33v5.52c.91-.07,2.14,0,3.57.46M263.22,187.94c-.33-.24-.53-.62-.53-1.02v-6.8c-.37.08-.73.17-1.05.29-1.99.75-6.59,3.08-6.47,8.57.09,4.18,2.81,8.4,8.69,8.4,6.66,0,7.59-4.93,7.69-5.58v-.3c-.07-.6-.53-2.26-3.57-3.26-2.12-.69-3.55-.18-3.61-.16-.38.14-.81.09-1.14-.15M255.16,181.91c1.37-1.65,3.26-2.97,5.61-3.86.7-.27,1.48-.44,2.33-.56,3.26-.61,6.79-.02,10.19,1.73l.73.33v.06c2.49,1.42,4.6,3.34,6.06,5.48v-32.99c-1.04-1.38-5.75-7.12-12.46-7.12s-11.18,3.7-12.46,4.85v32.07ZM256.76,125.97c-2.41,6.7-2.32,12.72.27,17.91.21.41.42.8.64,1.17,1.14-.61,2.47-1.21,3.96-1.67-.54-1.99-.85-4.52-.62-7.73-2.29-4.35-3.56-7.5-4.26-9.69M264.45,129.76c-1.44,6.11-1.17,10.27-.38,13.04,1.12-.2,2.3-.32,3.55-.32.62,0,1.22.04,1.8.11.31-1.95.94-4.12,2.03-6.51.96-2.11,1.8-4.08,2.54-5.9.18-9.42-3.72-18.92-7.27-25.56.45,5.41.36,13.95-2.28,25.13M280.38,119.27c-1.04,3.83-3,9.79-6.67,17.86-1.01,2.23-1.58,4.22-1.85,5.98,2.68.8,4.92,2.26,6.63,3.71.3-.52.59-1.08.87-1.68,3.71-8.01,2.89-17.81,1.03-25.87M214.33,164.45c-.79.98-.64,2.42.33,3.22.3.25,1.35.54,3.31.54.32,0,.63,0,.91-.02-.31-1.82-.85-3.64-1.38-4.07-.41-.33-.89-.51-1.42-.51-.68,0-1.32.31-1.75.85M211.96,168.25c-1.91,1.84-4.18,3.05-7.06,2.87-1.98-.12-3.51-.85-4.66-1.7.33.76.78,1.51,1.36,2.19.86,1.02,2.38,2.23,4.47,2.09,3.32-.23,5-2.46,5.99-5.27-.03-.06-.07-.11-.1-.17M107.97,153.25c-.21,3.69-1.77,7.49-4.44,10.14-2.51,2.5-5.58,3.76-9.1,3.76-.27,0-.54,0-.79-.02,1.41,1.09,3.13,1.67,5.02,1.67,2.72,0,5.51-1.19,7.64-3.28,3.33-3.24,3.87-7.49,1.67-12.28M185.39,163.39c-2.67-2.65-4.23-6.46-4.44-10.14-2.21,4.78-1.66,9.03,1.67,12.28,2.13,2.08,4.92,3.27,7.63,3.27,1.89,0,3.61-.58,5.03-1.67-.25.01-.52.02-.79.02-3.53,0-6.59-1.27-9.11-3.76M176.22,149.1s.03,0,.04,0c0,0,0-.01-.02-.02,0,0-.01.01-.02.02M157.67,133.48l-1.39,3.17c.61,1.45,1.7,2.59,3.13,3.23,1.26.57,2.67.68,4,.33l.66-1.5s0,0,0,0l1.37-3.12,2.26-5.14c-.64-1.24-1.67-2.22-2.93-2.79-1.41-.63-3.01-.7-4.46-.19l-2.64,6.01ZM157.67,127.3l-10.16,4.59,6.8,3.07,3.36-7.65ZM124.86,138.71s0,0,0,0l.65,1.49c1.33.35,2.75.24,4.01-.33,1.42-.64,2.52-1.78,3.12-3.23l-.72-1.64-3.31-7.54c-1.45-.51-3.05-.44-4.46.19-1.26.57-2.29,1.55-2.93,2.79l.89,2.02,2.74,6.23ZM124.89,142.64c-.47,1.12-1.33,2.07-2.51,2.6-.63.29-1.3.43-1.99.43-.05,0-.09,0-.14,0-.05.37-.14.74-.28,1.1-.19.51-.47.98-.81,1.39,8.18-1.03,16.66-1.57,25.29-1.57s17.12.54,25.3,1.57c-.34-.41-.62-.88-.81-1.39-.14-.36-.22-.73-.28-1.1-.05,0-.09,0-.14,0-.69,0-1.35-.14-1.98-.43-1.18-.53-2.05-1.48-2.51-2.6-.71.19-1.44.28-2.18.28-1.2,0-2.37-.25-3.47-.75-2-.9-3.58-2.57-4.42-4.63l-9.51-4.29-9.51,4.29c-.84,2.05-2.42,3.72-4.42,4.63-1.1.5-2.27.75-3.46.75-.74,0-1.47-.1-2.18-.28M112.66,149.1s.02,0,.03,0c0,0-.01,0-.02-.01,0,0-.01.01-.01.02M144.46,149.1c-11.86,0-23.42,1.02-34.29,2.97.55,1.18.94,2.29,1.2,3.34,10.5-1.85,21.65-2.81,33.09-2.81s22.6.96,33.1,2.81c.26-1.05.64-2.16,1.19-3.34-10.87-1.95-22.43-2.97-34.29-2.97M70.04,168.18c.28.01.59.02.91.02,1.96,0,3.01-.29,3.31-.54.97-.79,1.12-2.23.33-3.21-.43-.54-1.07-.85-1.75-.85-.52,0-1.01.18-1.42.51-.53.43-1.07,2.25-1.38,4.07M84.02,171.12c-2.87.18-5.15-1.02-7.06-2.87-.03.06-.06.11-.1.17.99,2.81,2.66,5.04,5.99,5.27.12,0,.23,0,.35,0h0c1.93,0,3.31-1.14,4.13-2.1.57-.68,1.02-1.43,1.35-2.19-1.14.85-2.68,1.58-4.65,1.7M86.69,240.17c-.11-.28-.24-.55-.41-.81-.15-.23-.31-.45-.51-.66-.63-.69-1.49-1.26-2.54-1.66-.22-.03-.82-.11-1.68-.11-.69,0-1.51.05-2.4.2,2.42,1.08,4.94,2.1,7.53,3.04M115.38,247.37c-1.57-2.54-3.88-4.01-6.05-5.05-2.52-1.21-4.19-1.53-4.4-1.56-.72-.08-1.37-.05-1.97.06-1.7.32-2.89,1.32-3.67,2.25-.24.29-.44.58-.6.84,5.34,1.41,10.91,2.57,16.69,3.45M190.23,243.91c-.16-.25-.36-.54-.61-.84-.77-.94-1.96-1.93-3.67-2.26-.6-.11-1.25-.14-1.97-.06-.21.03-1.88.35-4.4,1.56-2.16,1.04-4.47,2.5-6.04,5.05,5.77-.89,11.35-2.05,16.68-3.45M209.76,237.12c-.89-.15-1.71-.2-2.4-.2-.85,0-1.46.08-1.68.11-1.05.41-1.92.98-2.55,1.67-.19.21-.35.43-.5.65-.17.26-.3.53-.41.81,2.6-.95,5.11-1.96,7.53-3.04M205.09,234.57c4.08-1.67,16.5-6.74,24.63-13.53.84-.7,2.52-1.4,4.41-1.4.25,0,.49.01.73.04,4.59-5.49,6.99-11.36,6.99-17.34,0-11.66-9.12-22.88-25.74-31.71-.81-.09-1.49-.24-2.05-.46-1.25,2.98-3.5,5.74-7.81,6.04-.17.01-.34.02-.51.02-2.27,0-4.35-1.03-6-2.98-1.11-1.3-1.93-2.97-2.35-4.6-1.94,1.74-4.39,2.67-7.12,2.67-3.35,0-6.76-1.45-9.35-3.97-1.57-1.53-4.01-4.7-3.73-9.45-10.37-1.82-21.39-2.77-32.72-2.77s-22.35.95-32.71,2.77c.28,4.75-2.16,7.92-3.73,9.45-2.59,2.52-6.01,3.97-9.36,3.97-2.73,0-5.18-.94-7.11-2.67-.42,1.64-1.24,3.3-2.35,4.6-1.65,1.94-3.73,2.97-6,2.97h0c-.17,0-.34,0-.51-.02-4.32-.3-6.56-3.06-7.82-6.04-.55.22-1.23.37-2.05.46-16.62,8.84-25.74,20.05-25.74,31.71,0,5.99,2.41,11.86,6.99,17.34.24-.02.48-.04.73-.04,1.88,0,3.57.7,4.4,1.4,8.12,6.78,20.54,11.86,24.62,13.53l.13.05c.06.02.12.05.18.08,3.09,1.19,5.09,3.65,5.27,6.43,2.21.75,4.48,1.46,6.8,2.11,1.25-2.41,4.21-5.54,9.03-4.97,0,0,.01,0,.02,0,0,0,0,0,.02,0,0,0,0,0,0,0h0c1.76.27,7.28,1.29,9.04,1.65l.63.13c7.21,1.45,15.38,3.1,29.44,3.12h.13c14.06-.02,22.24-1.67,29.44-3.12l.63-.13c1.76-.36,7.27-1.38,9.04-1.65h0s0,0,0,0c0,0,.01,0,.01,0,0,0,.01,0,.02,0,4.82-.57,7.78,2.56,9.03,4.97,2.32-.65,4.59-1.36,6.81-2.11.19-2.81,2.22-5.29,5.36-6.47,0,0,0,0,0,0l.2-.08M255.76,223.19c4.38-1.93,8.64-5.38,12.66-10.27-3.44.91-9.27,2.12-17.88,2.82-6.65.55-9.85,3.4-11.3,5.47,1.66.83,3.08,1.74,4.3,2.71,1.93-.58,4.43-.97,7.69-.97,1.42,0,2.94.08,4.54.24M288.84,224.6c.2.53.02,1.14-.44,1.47-9.32,6.73-18.38,10.47-26.98,11.16,3.55,2.74,7.03,7.01,9.79,13.62.1.18.16.4.16.62,0,.7-.55,1.26-1.24,1.26h0c-.32,0-.63-.12-.87-.36-.09-.08-3.01-2.67-14.84-5.4-2.23-.51-4.04-1.26-5.52-2.12-1.11,1.15-4.28,4.09-11.11,8.24-11.26,6.85-17.08,8.5-17.67,8.65-1.03.38-2.02.58-2.95.58s-1.8-.19-2.6-.58c-2.13-1.01-3.21-3.06-3.74-4.6-1.67-4.87,1.02-7.58,1.14-7.69.12-.11.25-.2.4-.26,2.99-1.23,4.88-2.04,7.79-3.53-.18-.38-.37-.77-.58-1.17-.39-.75-.82-1.42-1.26-2.03-.04.02-.09.05-.13.07-1.82.92-3.7,1.81-5.63,2.66-3.42,5.86-7.41,9.73-11.49,12.22,1.3.61,2.58,1.31,3.82,2.11,6.83,4.41,14.48,4.88,17.46,4.88,1.03,0,1.64-.05,1.65-.05.65-.06,1.24.41,1.34,1.07.1.66-.33,1.28-.99,1.41-8.8,1.78-16.81,2.68-23.79,2.68-.94,0-1.85-.02-2.73-.05,3.07,4.31,4.89,9.35,5.37,14.99.02.09.02.18.02.26,0,.69-.54,1.25-1.22,1.26h-.02c-.48,0-.93-.28-1.13-.74-.04-.08-2.35-4.95-11.73-9.16-3.15-1.42-5.79-2.92-8.01-4.44-4.32,1.28-9.82,2.7-19.28,2.7-2.94,0-5.7-2.76-7.49-5.08-.13,4.61.62,8.29,2.23,11,2.46.08,3.57-.24,4.95-.63.54-.15,1.09-.31,1.77-.46.11-.02.22-.03.33-.03.33.02,3.32.24,5.01,2.05,1.87,2,1.87,4.59,0,6.45,0,0,0,0-.01,0-.04.04-.08.07-.13.1-.02.01-.04.03-.06.05-.03.02-.07.04-.11.06-.03.02-.07.04-.1.05-.1.04-2.56,1.01-6.13,1.01-3,0-5.87-.66-8.54-1.99-5.03-2.48-7.72-6.38-9.08-9.18-1.36,2.8-4.04,6.7-9.08,9.18-2.67,1.32-5.55,1.99-8.54,1.99-3.57,0-6.03-.97-6.13-1.01-.03-.01-.06-.03-.09-.04-.04-.02-.08-.04-.12-.07-.02,0-.04-.03-.05-.04-.05-.04-.09-.07-.14-.11,0,0,0,0,0,0-1.88-1.86-1.88-4.45,0-6.45,1.69-1.81,4.68-2.03,5.02-2.05.11,0,.22,0,.33.03.68.15,1.24.31,1.77.46,1.38.39,2.48.7,4.95.63,1.61-2.71,2.35-6.4,2.23-11-1.8,2.32-4.55,5.08-7.49,5.08-9.52,0-15.03-1.43-19.36-2.72-2.23,1.53-4.87,3.04-8.05,4.47-9.4,4.23-11.71,9.11-11.73,9.16-.21.45-.66.73-1.13.73-.1,0-.21,0-.31-.04-.58-.15-.97-.71-.92-1.31.46-5.7,2.28-10.8,5.39-15.15-.88.03-1.79.05-2.73.05h0c-6.98,0-14.98-.9-23.79-2.68-.65-.13-1.08-.75-.98-1.41.09-.66.68-1.13,1.34-1.07,0,0,.62.05,1.65.05,2.97,0,10.62-.47,17.45-4.88,1.34-.87,2.73-1.61,4.13-2.26-4.1-2.47-8.13-6.28-11.61-12.05-1.95-.86-3.85-1.75-5.7-2.68-.04-.02-.09-.05-.13-.07-.44.61-.87,1.28-1.26,2.03-.21.4-.4.79-.58,1.17,2.92,1.49,4.8,2.3,7.79,3.53.15.06.28.15.39.26.12.11,2.81,2.82,1.14,7.69-.53,1.54-1.61,3.59-3.74,4.6-.81.38-1.68.58-2.61.58s-1.91-.19-2.94-.58c-.58-.16-6.4-1.8-17.67-8.65-6.83-4.15-10-7.09-11.11-8.24-1.49.87-3.3,1.61-5.52,2.12-11.97,2.76-14.81,5.38-14.84,5.4-.24.25-.55.37-.87.37-.24,0-.48-.07-.69-.21-.5-.33-.68-.99-.45-1.54,2.77-6.69,6.27-11,9.84-13.76-8.6-.69-17.66-4.42-26.98-11.16-.46-.33-.64-.94-.44-1.47.2-.53.74-.87,1.29-.8.05,0,4.67.51,12.09.51h0c5.03,0,10.13-.23,15.2-.69-3.73-2.32-6.96-5.42-9.62-8.58-7.05-4.25-10.14-9.64-11.49-13.55-1.05-3.06-1.44-6.32-1.15-9.31-.02-.1-.04-.2-.04-.3v-40.18c0-.25.07-.5.21-.71.08-.12.77-1.13,2-2.42-.4-.67-.79-1.39-1.16-2.18-4.95-10.47-2.7-23.59.06-32.76.17-.57.71-.94,1.3-.88.58.05,1.05.51,1.12,1.1,0,.05.47,3.67,2.88,10.61,1.02-8.38,4.6-17.4,10.64-26.85.34-.52,1-.72,1.56-.45.56.26.84.9.66,1.5-.03.11-3.26,11.43,1.24,30.5.17.73.31,1.42.44,2.09,3.23-6.8,3.22-9.37,3.22-9.4-.04-.6.34-1.14.92-1.29.58-.15,1.18.14,1.44.69,5.53,11.67,3.47,19.94.44,25.06,1.57,1.08,2.46,1.99,2.55,2.09.15.16.25.36.31.57,3.84-7.16,5.19-13.31,5.62-17.42.53-5.1-.2-8.22-.21-8.25-.15-.64.21-1.29.82-1.49.61-.2,1.28.11,1.53.72,2.76,6.81,5.22,15.51,4.79,24.24,2.83-1.83,6.18-3.47,10.16-4.77.58-.19,1.22.08,1.49.63.27.55.11,1.23-.39,1.59,0,0-1.64,1.22-3.6,4.12-1.81,2.69-4.29,7.44-5.77,14.73-.19.93-.44,1.81-.73,2.65,5.55-4.57,7.65-9.51,7.68-9.58.22-.54.78-.85,1.35-.76.57.1.99.58,1.03,1.17.27,4.8-.22,9.11-1.43,12.93,2.66-1.94,5.59-3.79,8.75-5.55-1.6-.37-3.01-.91-3.09-.95-.64-.25-.96-.97-.71-1.62.28-.74,1.02-2.56,2.03-4.06-1.94-.71-3.95-2.14-4.44-2.51-.55-.41-.67-1.19-.27-1.75.64-.89,2.62-3.5,4.58-4.49-1.35-2.94-1.87-6.48.8-9.93,1.46-1.89,3.7-2.93,6.31-2.93,1.78,0,3.63.5,5.17,1.31.03-2.19.7-4.29,1.98-6.12,2.18-3.1,5.91-5.12,9.99-5.42.33-.03.67-.04,1-.04,5.66,0,9.92,3.58,12.12,9.98.37-.33.79-.61,1.26-.82.63-.28,1.3-.43,1.99-.43.05,0,.09.01.14.01.05-.38.14-.75.28-1.1.47-1.24,1.38-2.21,2.57-2.75.63-.28,1.3-.43,1.99-.43,1,0,1.95.31,2.74.86.46-.55,1.04-1.01,1.73-1.32.63-.29,1.3-.43,1.98-.43.56,0,1.09.11,1.6.29.27-.52.58-1.01.94-1.46-.96.17-1.94.29-2.93.36-.03,0-.06,0-.09,0-.07,0-.14,0-.21-.02-.64.03-1.57.06-2.72.06-4.82,0-13.76-.54-19.44-4.16-5.82-3.71-8.84-10.24-10.65-16.99l-2.79,6.35c-.13.31-.38.54-.69.66-.31.12-.65.11-.95-.02l-1.56-.71-1.37,3.12,1.57.71c.62.28.9,1.03.63,1.66l-3.48,7.93c-.21.47-.66.75-1.13.75-.17,0-.34-.03-.5-.11l-16.2-7.25c-.3-.13-.54-.39-.66-.7-.12-.31-.11-.66.02-.96l3.48-7.93c.28-.63,1.01-.92,1.64-.64l1.56.71,1.39-3.17-1.56-.7c-.3-.13-.54-.38-.66-.7-.12-.31-.11-.66.03-.96l.7-1.59-3.14-1.41-.71,1.62c-.28.63-1.01.92-1.64.64l-1.56-.7-1.37,3.12,1.57.71c.3.13.53.39.65.7.12.31.11.66-.03.96l-3.49,7.93c-.28.63-1.01.92-1.63.64l-16.2-7.25c-.3-.13-.54-.38-.66-.7-.12-.31-.11-.66.03-.96l3.48-7.94c.13-.3.38-.54.69-.66.31-.12.65-.11.95.03l1.56.71,1.4-3.17-1.57-.71c-.63-.28-.91-1.02-.63-1.66l2.6-5.91c-.75.45-1.61.72-2.52.72-.68,0-1.35-.14-1.98-.43-1.19-.54-2.11-1.51-2.58-2.75-.14-.36-.22-.73-.28-1.1-.05,0-.09,0-.14,0-.68,0-1.35-.14-1.98-.43-1.7-.77-2.76-2.41-2.88-4.18-2.59-1.53-3.69-4.84-2.44-7.68.96-2.19,3.11-3.59,5.46-3.59.62,0,1.23.1,1.82.29.84-.66,1.88-1.05,2.99-1.05.69,0,1.35.14,1.99.43.69.31,1.27.77,1.73,1.32.8-.54,1.74-.86,2.74-.86.68,0,1.35.14,1.98.43,1.19.54,2.11,1.51,2.57,2.75.31.83.39,1.71.26,2.57l30.29,13.66c-1-6.45-2.24-14.21-3.28-18.19-.16,0-.33,0-.53,0-.43,0-.86.02-1.29.05-1.24.09-1.76.46-2.36.88l-.19.13c-1.78,1.23-3.56,1.85-5.27,1.85h0c-3.62,0-5.61-2.74-5.7-2.86-.29-.41-.31-.94-.06-1.37.25-.43.73-.67,1.22-.61,1.28.16,2.27-.21,3.16-.82-1.07.25-2.09.38-3.06.38-3.73,0-5.38-1.86-5.55-2.07-.3-.37-.37-.87-.18-1.31.19-.43.61-.73,1.08-.75,1.05-.05,1.89-.31,2.65-.69-.64.1-1.26.15-1.86.15-4.32,0-6.39-2.6-6.48-2.71-.31-.4-.36-.95-.11-1.39.24-.45.73-.69,1.23-.64.47.06.88.09,1.27.09,1.99,0,2.96-.73,4.9-2.19.42-.31.87-.65,1.36-1.01,1.03-.74,2.05-1.23,2.97-1.56-.04-.02-.08-.04-.13-.06,0,0,.4-.1,1.09-.23.7-.18,1.31-.26,1.78-.3,1.12-.16,2.51-.3,4.05-.35.35,0,.69-.01,1.02-.02.1,0,.19,0,.29,0,.13,0,.25,0,.37,0,.1,0,.19,0,.29,0,.14,0,.28,0,.41,0,.19,0,.38,0,.56.01.13,0,.26,0,.39.01.18,0,.36.01.54.03.12,0,.24.01.35.02.19.01.37.03.55.04.1,0,.2.01.3.02.22.02.43.05.64.07.05,0,.11,0,.16.02.26.03.52.07.77.11.07,0,.13.02.2.04.18.03.36.06.53.1.09.02.18.04.27.06.15.03.3.06.44.1.1.02.19.04.28.07.13.04.27.07.4.11.1.02.19.05.29.08.13.04.26.08.39.12.09.03.19.06.28.09.13.04.25.08.38.13.09.03.19.06.28.1.13.05.26.09.38.14.09.03.18.07.28.1.13.05.26.11.39.16.09.04.17.07.26.11.15.06.29.13.44.2.07.03.14.06.22.1.22.1.44.2.67.31,11.49,5.49,12.58,24.3,14.43,33.61.4,1.98.77,3.85,1.2,5.58.26,1.08.52,2.1.77,3.06l21.74,9.81c1.86-2.02,3.43-4.52,4.21-7.42-.4.1-.8.21-1.18.32-.01,0-.03,0-.04,0-.05.01-.11.02-.17.03-.03,0-.05,0-.08,0-.01,0-.03,0-.05,0-.03,0-.06,0-.1,0-.03,0-.05,0-.08,0-.05,0-.11-.02-.16-.04-.02,0-.04,0-.06-.01h0c-1.18-.41-2.04-1.17-2.49-2.21-.65-1.5-.28-3.16,0-4.01-1.36-3.34-4.55-7.36-4.58-7.41-.31-.39-.36-.93-.13-1.38.23-.45.7-.71,1.19-.67.33.03.78.13,1.23.31-1.26-2.65-2.34-5.22-3.26-7.69-.03,0-.07,0-.1,0h-.05c-.61,0-1.13-.45-1.22-1.06-.01-.06-.02-.13-.02-.19-1.42-4.57-5.08-10.62-5.12-10.68-.29-.48-.23-1.09.14-1.5.37-.41.96-.53,1.46-.29.11.05.53.27,1.05.63-.15-.69-.29-1.36-.42-2-.56-2.9-.96-5.77-1.19-8.5-.21-.03-.42-.1-.59-.24-.3-.22-.47-.56-.5-.93-.32-5.13-3.57-11.51-3.6-11.57-.22-.43-.18-.95.11-1.34.29-.39.78-.57,1.24-.47.89.19,2.37.95,2.94,2.61.18.05.38.12.58.21.12-.74.27-1.43.44-2.06,3.05-11.27,14.05-19.19,28.04-20.57-.86-1.02-1.37-2.35-1.37-3.79,0-2.68,1.77-4.93,4.2-5.64v-5h-2.89v-3.24h2.89V0h3.2v2.74h2.88v3.24h-2.88v5c2.42.7,4.19,2.96,4.19,5.64,0,1.44-.52,2.76-1.37,3.79,13.99,1.38,24.99,9.3,28.04,20.57.17.62.31,1.31.44,2.06.21-.08.4-.16.58-.21.58-1.66,2.05-2.42,2.94-2.61.47-.1.96.08,1.24.47.29.39.33.91.11,1.34-.03.06-3.28,6.45-3.6,11.57-.02.37-.2.71-.49.93-.18.13-.38.21-.6.23-.29,3.23-.82,6.78-1.64,10.53.54-.37.98-.59,1.09-.65.49-.24,1.09-.12,1.46.29.37.42.43,1.03.14,1.5-.04.06-3.89,6.42-5.23,11.02-.09.32-.31.6-.61.75-.18.1-.38.14-.58.14-.04,0-.08,0-.12,0-.95,2.55-2.03,5.12-3.26,7.7.46-.19.91-.3,1.25-.32.49-.04.97.22,1.19.66.23.45.18.99-.13,1.38-.03.04-3.22,4.07-4.58,7.41.27.86.64,2.51,0,4.01-.45,1.04-1.31,1.81-2.49,2.21,0,0,0,0,0,0-.05.01-.1.02-.15.04-.08.02-.16.03-.25.03-.11,0-.21-.02-.31-.04,0,0-.02,0-.03,0-.31-.09-.64-.18-.97-.26.77,2.85,2.31,5.31,4.13,7.3l21.82-9.84c.24-.93.49-1.92.74-2.96.43-1.74.8-3.61,1.19-5.58,1.86-9.31,2.94-28.12,14.44-33.61.23-.11.45-.21.67-.31.08-.04.15-.07.22-.1.15-.07.29-.13.44-.2.09-.03.17-.07.26-.11.13-.06.26-.11.4-.16.1-.03.18-.07.27-.1.12-.05.26-.1.38-.14.09-.04.18-.07.28-.1.12-.04.25-.09.38-.13.09-.03.19-.06.28-.09.13-.04.26-.08.39-.12.09-.03.19-.06.28-.08.14-.04.27-.07.41-.11.09-.02.19-.05.28-.07.14-.04.3-.07.44-.1.09-.02.17-.04.26-.06.18-.04.36-.07.54-.1.06-.01.13-.03.19-.04.25-.04.51-.08.77-.11.05,0,.11,0,.16-.02.21-.03.42-.05.65-.07.09,0,.19-.01.3-.02.18-.01.36-.03.55-.04.11,0,.24-.01.35-.02.17-.01.36-.02.54-.03.13,0,.26,0,.39-.01.18,0,.37,0,.56-.01.14,0,.28,0,.42,0,.1,0,.18,0,.28,0,.12,0,.25,0,.37,0,.1,0,.19,0,.29,0,.33,0,.67,0,1.02.02,1.48.04,2.82.18,3.93.33.6.02,1.55.12,2.67.47.21.05.33.08.33.08-.01,0-.03.01-.04.02.95.32,2.01.82,3.08,1.59.5.36.95.7,1.36,1.01,1.94,1.46,2.91,2.19,4.9,2.19.39,0,.8-.03,1.27-.09.5-.06.99.19,1.23.64.24.44.2.99-.11,1.39-.09.11-2.17,2.71-6.48,2.71-.6,0-1.23-.05-1.86-.15.75.38,1.6.64,2.65.69.47.02.89.31,1.07.75.19.44.12.94-.18,1.31-.17.21-1.82,2.07-5.55,2.07h0c-.96,0-1.98-.13-3.06-.38.75.51,1.55.86,2.56.86.19,0,.39-.01.6-.04.48-.06.97.18,1.21.61.25.43.23.97-.06,1.37-.08.12-2.08,2.86-5.7,2.86-1.72,0-3.49-.62-5.27-1.84l-.19-.13c-.6-.42-1.13-.79-2.37-.88-.42-.03-.86-.05-1.29-.05-.28,0-.53,0-.73.02-1.04,3.96-2.27,11.65-3.26,18.09l30.07-13.57c-.14-.86-.06-1.74.25-2.57.47-1.23,1.38-2.21,2.58-2.75.63-.29,1.3-.43,1.98-.43,1,0,1.95.32,2.74.86.46-.55,1.04-1.01,1.73-1.32.63-.29,1.3-.43,1.99-.43,1.11,0,2.15.39,2.99,1.05.58-.19,1.19-.29,1.82-.29,2.36,0,4.5,1.41,5.46,3.59,1.25,2.85.15,6.15-2.44,7.69-.13,1.76-1.18,3.41-2.88,4.18-.63.29-1.3.43-1.98.43-.05,0-.1,0-.15,0-.05.37-.14.74-.28,1.1-.47,1.24-1.39,2.21-2.58,2.75-.63.28-1.3.43-1.98.43-.91,0-1.77-.27-2.52-.72l2.6,5.91c.28.63,0,1.38-.63,1.66l-1.56.71,1.39,3.17,1.57-.71c.3-.14.64-.15.95-.03.31.12.55.36.69.66l3.49,7.94c.13.3.14.65.02.96-.12.31-.35.56-.66.7l-16.2,7.25c-.62.28-1.35,0-1.63-.64l-3.49-7.93c-.14-.3-.14-.65-.03-.96.12-.31.36-.56.66-.7l1.57-.71-1.37-3.12-1.56.7c-.62.28-1.36,0-1.64-.64l-.71-1.62-3.14,1.41.7,1.59c.14.31.14.65.03.96-.12.31-.36.56-.66.7l-1.56.7,1.39,3.17,1.57-.71c.62-.28,1.36,0,1.64.64l3.48,7.93c.13.3.14.65.02.96-.12.31-.35.56-.66.7l-16.2,7.25c-.16.07-.33.11-.5.11-.48,0-.93-.28-1.14-.75l-3.48-7.93c-.28-.63,0-1.38.62-1.66l1.58-.71-1.37-3.12-1.57.71c-.3.14-.64.14-.95.02-.31-.12-.56-.36-.69-.66l-2.67-6.07c-1.82,6.66-4.83,13.06-10.58,16.72-5.69,3.62-14.62,4.16-19.44,4.16-1.15,0-2.08-.03-2.72-.06-.07.01-.14.02-.21.02-.03,0-.06,0-.09,0-1.07-.08-2.12-.22-3.16-.41.37.46.7.97.97,1.5.51-.18,1.04-.29,1.61-.29.68,0,1.35.14,1.98.43.69.31,1.28.77,1.74,1.32.79-.55,1.74-.86,2.74-.86.69,0,1.36.14,1.99.43,1.19.53,2.11,1.51,2.57,2.75.14.36.22.73.27,1.1.05,0,.09-.01.14-.01.68,0,1.35.15,1.98.43.47.21.89.49,1.26.82,2.2-6.41,6.45-9.98,12.12-9.98.33,0,.66.01.99.04,4.08.3,7.81,2.32,9.99,5.42,1.28,1.82,1.95,3.93,1.98,6.12,1.54-.81,3.39-1.31,5.17-1.31,2.61,0,4.84,1.04,6.31,2.93,2.67,3.45,2.15,6.99.8,9.93,1.96.99,3.94,3.6,4.58,4.49.4.56.28,1.34-.27,1.75-.49.36-2.5,1.8-4.44,2.51,1.01,1.5,1.74,3.31,2.02,4.06.25.65-.07,1.37-.71,1.62-.09.03-1.49.58-3.09.95,3.17,1.76,6.09,3.61,8.75,5.55-1.21-3.82-1.7-8.14-1.43-12.93.03-.59.46-1.07,1.03-1.17.57-.09,1.13.22,1.35.76.02.06,2.13,5.01,7.67,9.58-.29-.84-.54-1.71-.73-2.65-1.48-7.3-3.95-12.04-5.77-14.73-1.96-2.91-3.58-4.11-3.6-4.12-.5-.36-.66-1.04-.39-1.59.28-.55.9-.82,1.48-.63,3.98,1.3,7.34,2.94,10.16,4.77-.44-8.73,2.02-17.42,4.79-24.24.25-.61.91-.92,1.53-.72.62.2.98.86.82,1.49,0,.03-.73,3.16-.2,8.25.43,4.1,1.77,10.26,5.62,17.41.05-.21.15-.41.3-.57.09-.09.99-1.01,2.56-2.09-3.03-5.12-5.1-13.39.44-25.06.26-.55.86-.83,1.43-.67.58.15.97.7.92,1.3,0,0-.01,2.57,3.22,9.37.13-.68.27-1.37.44-2.1,2.35-9.96,2.56-17.73,2.33-22.49-.26-5.15-1.08-7.99-1.09-8.01-.17-.6.11-1.24.67-1.5.56-.26,1.22-.07,1.56.45,6.04,9.44,9.62,18.47,10.64,26.84,2.41-6.94,2.87-10.56,2.88-10.61.07-.59.54-1.05,1.12-1.1.59-.05,1.13.32,1.3.88,2.76,9.16,5.01,22.28.06,32.76-.37.79-.76,1.51-1.16,2.18,1.23,1.29,1.92,2.3,1.99,2.42.14.21.22.46.22.71v40.18c0,.11-.02.23-.05.33.63,6.89-2.13,16.5-12.63,22.83-2.66,3.16-5.89,6.26-9.62,8.58,5.07.45,10.17.69,15.21.69,7.42,0,12.04-.51,12.08-.51.56-.07,1.09.26,1.3.8"/>
  </g>
</svg>