<?xml version="1.0" encoding="UTF-8"?>
<svg id="Capa_2" data-name="Capa 2" xmlns="http://www.w3.org/2000/svg" viewBox="0 0 425.2 141.24">
  <defs>
    <style>
      .cls-1 {
        fill: #004b90;
        stroke-width: 0px;
      }
    </style>
  </defs>
  <g id="Capa_1-2" data-name="Capa 1">
    <path class="cls-1" d="M39.46,4.03c-.48,0-.95.17-1.26.39-.13.13-.35.6-.39,1.66-.05.89-.05,6.33-.08,11.27,0,3.94.08,7.41.08,8.49.04,2.78.35,3.21,2.64,3.86.83.22,1.13.48,1.13.87,0,.35-.78.52-1.39.52-1.12,0-2.86-.17-4.77-.17-1.25,0-3.13.17-4.42.17-.83,0-1.34-.22-1.34-.65,0-.3.51-.57.95-.69,2.34-.52,2.86-1.35,2.94-3.17.13-2.09.22-5.51.22-7.68,0-1.43-.04-10.71-.13-12.05-.04-1.56-.04-2.21-2.47-2.56-.83-.09-1.26-.39-1.26-.65,0-.35.39-.52.95-.56.31-.05,1.04-.05,1.43-.05,1.96,0,5.38-.35,7.47-.35,4.03,0,6.62,1,8.23,2.56,2.08,1.99,2.52,4.42,2.52,5.9,0,3.78-1.69,5.55-2.95,6.68-1.13.96-3.25,1.91-5.03,1.91-.48,0-1.65-.09-2.34-.31-.48-.21-.73-.48-.73-.74,0-.17.21-.39.57-.39h.95c2.21,0,5.34-2.08,5.34-6.93,0-3.86-2.86-7.33-6.85-7.33M58.09,15.82c.91-.74,1.83-1.17,2.69-1.17,1.17,0,2.65.69,3.55,1.69,1.56,1.92,2.04,4.47,2.04,6.64,0,1.95-.78,4.59-1.86,5.76-1.08,1.08-2,1.35-2.48,1.35-2.03,0-4.42-1.56-5.42-4.73-.39-1.08-.52-2.47-.52-3.9,0-2.43.92-4.6,2-5.63M70.41,22.2c0-5.51-4.51-8.89-8.79-8.89-2.95,0-5.2,1.26-6.5,2.42-1.65,1.39-3.05,3.51-3.05,6.77,0,2.21,1.35,5.12,3.22,6.63,1.61,1.35,3.81,2.25,5.81,2.25s3.77-.47,5.55-1.73c1.6-1.04,3.77-3.82,3.77-7.45M74.62,14.61c-.31.13-.73.56-.73.86,0,.14.17.31.73.74.91.78,1.09,1.22,1.09,1.69,0,4.38-.13,8.11-.26,9.41-.14,1.55-.36,2-1.78,2.43-.48.12-.91.35-.91.65,0,.38.48.61,1.13.61.73,0,2.08-.13,3.68-.13.91,0,2.21.04,2.78.04.65,0,1.13-.22,1.13-.52,0-.26-.34-.57-.77-.7-1.36-.38-1.52-.74-1.57-1.34-.05-.51-.09-9.84-.05-10.4,0-.35.26-.91.43-1.05.74-.65,1.82-1.25,3.64-1.25.95,0,2.27.43,2.73.82.48.39,1.18,1.69,1.18,3.08,0,1.26,0,6.51-.09,7.94-.09,1.43-.36,1.82-1.35,2.21-.57.17-1.05.44-1.05.74,0,.39.61.53,1.09.53.57,0,2-.09,3.08-.09,1.21,0,2.34.09,3.38.09.65,0,1.25-.23,1.25-.53,0-.26-.26-.52-1.08-.74-1.09-.3-1.53-.86-1.61-1.52-.04-.6-.13-7.02-.13-7.88,0-2.18-.52-4.17-1.52-5.29-.61-.7-1.82-1.66-3.95-1.66-1.86,0-4.03,1.18-5.77,2.39,0,0-.26.09-.26-.12,0-.4.13-1.48.13-2.13,0-.18-.22-.65-.39-.65-.22,0-.69.21-1.17.51-.6.4-2.25,1-3.04,1.26M106.22,13.74c-.17,0-4.2.17-5.16.17-.17,0-.39-.22-.39-.34v-2.08c0-.14-.44-.52-.65-.52-.18,0-.48.39-1,.95-.65.83-2.03,1.82-3.68,3.08-.18.13-.26.31-.26.47,0,.18.22.44.56.57.9.21,1.69.53,1.69.82,0,1.52-.18,8.02-.18,9.63,0,1.3.09,2.17.56,2.9.61.96,2.12,1.99,3.9,1.99,1.96,0,3.52-.78,4.69-1.95.3-.3.61-.74.61-1.13s-.22-.47-.22-.47c-.17,0-.3.04-.69.25-.65.4-1.56.65-2.08.65-.87,0-1.78-.17-2.52-.82-.47-.47-.78-1.04-.78-2.12,0-2.17.04-8.06.13-9.19,0-.08.18-.3.34-.3h4.64c.3,0,1.13-.09,1.13-.52,0-.52-.14-1.78-.14-1.65-.05-.17-.43-.39-.52-.39M115.19,6.72c0-.82-.7-2.26-1.95-2.26-.65,0-1.34.22-1.82.65-.39.44-.56,1.17-.56,1.61,0,.78.35,1.25.69,1.65.43.39,1.17.56,1.47.56.91,0,2.17-1,2.17-2.21M110.03,14.65c-.47.13-.91.48-.91.79,0,.12.12.29.38.51,1.21.86,1.69,1.26,1.74,1.56.09.52.05,5.89.05,6.16,0,1.65-.05,4.33-.18,4.94-.13.44-.74.95-1.73,1.25-.74.18-1.05.4-1.05.65,0,.31.48.52,1.14.52.77,0,2.38-.17,3.8-.17.91,0,3.09.13,3.39.13.52,0,1.08-.18,1.08-.48,0-.25-.26-.51-.94-.73-1.09-.35-1.96-.47-2-1.82-.04-1.52-.08-3.25-.08-5.47,0-2.47.21-8.2.26-8.85,0-.09-.22-.48-.43-.48-.64.18-2.81,1.13-4.51,1.48M130.32,13.91c-.34,0-3.24,0-3.9-.04-.3,0-.56-.26-.56-.43,0-5.86.95-8.85,1.94-10.01.74-.87,1.52-1.22,2.6-1.22,1.34,0,2.68.69,3.65,1.65.77.78,1.42,1.3,1.69,1.3.56,0,2.25-1.13,2.25-2.17,0-.39-.08-.69-.39-1.09-.6-.78-1.82-1.9-4.6-1.9-1.95,0-3.98.78-5.59,2.03-1.73,1.26-2.99,3.04-3.86,4.9-.9,2.04-1.21,4.38-1.21,6.46,0,.21-.21.43-.44.6-1.34.69-1.9,1.09-1.95,1.47-.05.17.13.48.34.48.57.05.96.08,1.57.17.22.05.43.44.43.57,0,3.16,0,10.06-.08,11.01-.17,1.48-.39,1.78-1.87,2.21-.55.13-.86.34-.86.65,0,.26.31.52.86.52s2.18-.21,3.69-.21c1.39,0,3.33.13,4.08.13.65,0,.95-.3.95-.52,0-.27-.21-.47-.91-.69-1.95-.6-2.12-.83-2.21-2.21-.13-2.34-.13-9.75-.13-11,0-.31.34-.56.43-.56,2-.17,5.64-.13,7.02,0,.18.04.53.39.53.65,0,1.86-.05,8.84-.17,11.58-.05.73-.49,1.12-1.57,1.56-.69.31-.95.48-.95.73,0,.39.38.52.86.52.96,0,2.26-.17,3.74-.17,1.08,0,2.47.13,3.42.13.52,0,1.04-.17,1.04-.52,0-.3-.09-.43-.96-.74-1.25-.4-1.73-.61-1.82-1.52-.14-1.78-.09-3.6-.09-11.44,0-2.52.13-3.68-.17-3.68-.35,0-.91.13-1.35.25-.82.26-1.73.61-5.47.56M156.41,14.44c-.82-.61-2.77-.95-4.11-.95-1.26,0-4.07.65-5.72,1.83-2.55,1.68-4.25,4.28-4.25,7.49,0,1.83.6,3.82,1.39,5.08,1.3,1.99,3.64,3.47,6.46,3.47,2.34,0,4.85-1.09,6.33-2.73.35-.34.61-.82.61-1.3,0-.23-.36-.35-.79-.05-1.17.78-2.38,1.3-3.89,1.3-2.3,0-4.3-1.08-5.29-2.77-.22-.26-1.22-1.78-1.22-4.33,0-1.95.66-3.82,1.78-5.12.7-.82,1.91-1.34,2.52-1.34,1.46,0,2.25.73,3.64,1.73.7.57,1.43.86,1.74.86.17,0,1.47-1.08,1.47-1.77,0-.35-.21-1.04-.65-1.39M166.12,6.72c0-.82-.69-2.26-1.94-2.26-.66,0-1.35.22-1.83.65-.38.44-.56,1.17-.56,1.61,0,.78.35,1.25.69,1.65.44.39,1.18.56,1.48.56.91,0,2.17-1,2.17-2.21M160.97,14.65c-.48.13-.91.48-.91.79,0,.12.13.29.39.51,1.22.86,1.69,1.26,1.73,1.56.09.52.05,5.89.05,6.16,0,1.65-.05,4.33-.17,4.94-.13.44-.74.95-1.74,1.25-.73.18-1.03.4-1.03.65,0,.31.48.52,1.13.52.77,0,2.38-.17,3.81-.17.9,0,3.07.13,3.37.13.53,0,1.08-.18,1.08-.48,0-.25-.25-.51-.95-.73-1.08-.35-1.94-.47-1.99-1.82-.04-1.52-.08-3.25-.08-5.47,0-2.47.21-8.2.25-8.85,0-.09-.21-.48-.43-.48-.66.18-2.82,1.13-4.51,1.48M179.31,28.27c-.74.43-1.61.69-2.21.69-.87,0-2.6-.69-2.6-2.6,0-1.08.34-1.38.82-1.65,1.09-.61,3.17-1.31,4.3-1.31.13,0,.3.22.3.35,0,1-.04,2.56-.08,3.47-.04.13-.26.91-.52,1.04M182.42,15.44c-.65-.95-1.77-2.13-4.02-2.13-.78,0-2.74.69-4.08,1.65-2.17,1.43-3.34,2.64-3.34,3.86,0,.26.26.6.52.6.21,0,2.61-1.16,3.03-1.52.09-.08.22-.3.22-.43-.04-1,.09-1.69.3-1.83.31-.21.87-.44,1.69-.44,2.12,0,3.3,1.78,3.3,2.86.04.52-.05,3.12-.1,3.51,0,.27-.26.48-1.17.78-.95.3-4.51,1.26-5.2,1.56-.61.26-1.3.48-1.73,1.05-.48.6-.82,1.47-.82,2.25,0,2.21,1.52,4.07,3.08,4.07.29,0,1.3-.08,1.76-.26.48-.17,2.31-.91,3.82-1.95.09-.04.26.09.31.17.52,1.61,1.77,2.12,2.81,2.12,2.09,0,4.03-1.91,4.03-2.73,0-.05,0-.35-.09-.48-.09-.12-.13-.17-.26-.12-.52.3-1.47.65-1.64.65-.43,0-1.69-.26-1.69-2.08,0-.48.17-5.86.17-7.54,0-1.87-.3-2.78-.91-3.64M198.07,2.95c-.69,0-1.21.18-1.21.52,0,.39.48.65,1,.79,1.65.34,2.25,1.04,2.35,1.86.04.56.12,4.68.12,10.31,0,7.2,1.09,10.28,3.52,12.58,1.08,1.04,3.98,2.56,7.89,2.56,1.87,0,4.21-.22,6.2-1.35,3.07-1.77,5.16-5.37,5.41-12.91.09-2.25.35-7.11.39-9.07.05-2.69.91-3.42,2.82-3.98.61-.22.99-.48.99-.74,0-.34-.38-.51-1.08-.51-1.21,0-2.16.09-3.94.09-1.39,0-2.69-.13-3.73-.13-.78,0-1.08.22-1.08.48,0,.3.56.64.99.73,2.35.56,2.74,1.18,2.86,2.77.09.48.17,2.51.17,5.33,0,5.12-.39,8.76-.91,11.06-1.08,4.81-5.15,5.99-8.02,5.99-1.99,0-4.86-.92-6.02-2.26-1.4-1.51-2.47-3.29-2.47-8.24,0-6.16,0-10.58.17-12,.26-1.73,1.03-2.21,2.6-2.52.82-.18,1.25-.44,1.25-.78s-.47-.51-1.3-.51c-.95,0-2.73.09-4.33.09s-2.82-.13-4.65-.13M228.77,14.61c-.29.13-.73.56-.73.86,0,.14.17.31.73.74.91.78,1.09,1.22,1.09,1.69,0,4.38-.13,8.11-.26,9.41-.13,1.55-.35,2-1.78,2.43-.49.12-.91.35-.91.65,0,.38.48.61,1.13.61.73,0,2.08-.13,3.68-.13.92,0,2.21.04,2.77.04.66,0,1.14-.22,1.14-.52,0-.26-.35-.57-.78-.7-1.34-.38-1.52-.74-1.56-1.34-.05-.51-.09-9.84-.05-10.4,0-.35.27-.91.44-1.05.74-.65,1.83-1.25,3.64-1.25.95,0,2.25.43,2.73.82.47.39,1.18,1.69,1.18,3.08,0,1.26,0,6.51-.09,7.94-.09,1.43-.36,1.82-1.35,2.21-.56.17-1.03.44-1.03.74,0,.39.6.53,1.08.53.56,0,1.99-.09,3.08-.09,1.22,0,2.34.09,3.38.09.65,0,1.25-.23,1.25-.53,0-.26-.26-.52-1.08-.74-1.08-.3-1.52-.86-1.61-1.52-.04-.6-.12-7.02-.12-7.88,0-2.18-.52-4.17-1.52-5.29-.61-.7-1.81-1.66-3.94-1.66-1.86,0-4.03,1.18-5.76,2.39,0,0-.27.09-.27-.12,0-.4.14-1.48.14-2.13,0-.18-.22-.65-.39-.65-.21,0-.7.21-1.17.51-.6.4-2.26,1-3.04,1.26M256.6,6.72c0-.82-.69-2.26-1.96-2.26-.65,0-1.34.22-1.82.65-.39.44-.57,1.17-.57,1.61,0,.78.34,1.25.69,1.65.44.39,1.17.56,1.48.56.91,0,2.17-1,2.17-2.21M251.44,14.65c-.48.13-.91.48-.91.79,0,.12.14.29.39.51,1.22.86,1.69,1.26,1.73,1.56.09.52.05,5.89.05,6.16,0,1.65-.05,4.33-.18,4.94-.13.44-.73.95-1.73,1.25-.73.18-1.03.4-1.03.65,0,.31.47.52,1.13.52.77,0,2.37-.17,3.8-.17.91,0,3.09.13,3.38.13.52,0,1.08-.18,1.08-.48,0-.25-.25-.51-.95-.73-1.08-.35-1.95-.47-2-1.82-.04-1.52-.08-3.25-.08-5.47,0-2.47.22-8.2.26-8.85,0-.09-.22-.48-.44-.48-.65.18-2.82,1.13-4.51,1.48M260.46,13.69c-.43,0-1.09.22-1.09.49,0,.3.22.47.87.74,1.09.3,1.51.87,1.87,1.47,1.13,1.95,3.39,7.28,4.43,10.06.99,2.51,1.17,3.11,1.6,4.46.12.47.39.78.61.78.34,0,.83-.48,1.04-1.13.73-2.26.78-2.68,2-5.76,1.3-3.04,2.82-6.98,3.55-8.15.68-.87,1.18-1.39,2.17-1.77.69-.26.95-.44.95-.69s-.48-.49-.87-.49c-.83,0-2.17.22-2.94.22-1.04,0-1.61-.13-2.38-.13-.57,0-.87.21-.87.48,0,.3.35.47.74.61,1.31.47,1.69.78,1.34,1.86-.43,1.34-2.68,7.24-3.25,8.46-.09.21-.21.3-.34.17-.3-.31-2.52-5.29-3.74-8.89-.21-.56-.3-1.13.91-1.47.57-.18.96-.39.96-.7s-.35-.48-1.01-.48c-.51,0-1.63.09-2.77.09-.48,0-3.04-.22-3.78-.22M283.09,17.82c.73-1.99,2.38-3.34,4.29-3.34,1.52,0,2.77,1.43,2.77,2.65,0,.91-.52,1.16-1.47,1.16-2.16.05-4.25.05-5.37,0-.14,0-.31-.25-.22-.47M292.19,15.05c-1.13-1.09-2.82-1.65-4.39-1.65-.81,0-2.25.21-3.38.73-3.42,1.6-5.24,5.07-5.24,8.54,0,5.03,3.08,8.62,7.81,8.62,2.72,0,4.98-1.16,6.45-3.33.13-.27.35-.74.35-1.09,0-.17-.14-.52-.38-.52-.18,0-.4.3-.57.52-.73,1.09-2.04,1.56-3.9,1.56-2.08,0-3.9-1.03-4.89-2.34-.92-1.21-1.57-3.21-1.57-4.73,0-.47.05-1.17.17-1.52.05-.17.27-.34.39-.34,1.99.04,9.32.04,9.8.04s.87-.56.87-.82c0-1.52-.61-2.77-1.52-3.68M297.18,14.91c-.44.13-.57.6-.57.7,0,.17.57.51,1.52,1.25.44.3.44.87.44,1.39v8.06c-.04,2.6-.18,3.03-1.82,3.6-.3.13-.87.29-.87.56,0,.39.43.56.91.56,1.04,0,1.65-.17,2.86-.17,2.51,0,4.21.22,5.34.22.69,0,1.08-.17,1.08-.43,0-.18-.13-.47-.83-.7-.6-.17-1.43-.39-1.95-.48-.73-.17-1.04-.99-1.13-2.25-.04-.65-.21-8.41-.21-9.28,0-.3.13-.65.43-.96.39-.43,1.04-.52,1.69-.52.87,0,1.99.56,2.47,1,.13.08.56.17.66.12.3-.12,1.34-1.39,1.86-2.13.13-.21.26-.51.26-.65,0-.39-.43-1.51-2.26-1.51-1.34,0-3.24,1.13-4.9,2.69-.04.08-.26,0-.26-.18,0-.83.09-1.61.09-2.38,0-.13-.22-.48-.44-.48-.13,0-.38.13-.9.48-.52.3-1.99.95-3.47,1.47M319.8,13.57c-.52-.12-1.43-.26-2.26-.26-1.52,0-2.72.38-3.59.91-1.64.99-2.43,2.47-2.43,4.04,0,2.04,1.39,3.6,2.73,4.46,1.38.82,1.69,1.08,2.78,1.82,1.34.86,1.9,1.74,1.9,2.77,0,.82-.34,1.78-.99,2.29-.44.4-1.18.66-1.74.66-1.47,0-2.73-.83-3.99-3.12-.27-.49-.56-1.01-.95-1.01-.21,0-.35.39-.35.95,0,1.3.57,3.12.7,3.34.73.61,2.9.95,4.26.95s2.94-.47,3.76-1.04c1.17-.79,2.56-2.21,2.56-4.25s-.87-3.43-3.55-4.99c-2.74-1.52-4.17-2.6-4.17-4.12,0-.95.87-2.56,2.47-2.56,1.43,0,2.56.87,3.51,2.86.22.47.52.82.74.82.3,0,.52-.44.52-.82,0-.31-.13-1.86-.13-2.61-.05-.3-.26-.56-.4-.65-.08-.04-.91-.39-1.39-.48M331.55,6.72c0-.82-.7-2.26-1.96-2.26-.65,0-1.33.22-1.81.65-.4.44-.56,1.17-.56,1.61,0,.78.34,1.25.69,1.65.43.39,1.16.56,1.47.56.91,0,2.17-1,2.17-2.21M326.39,14.65c-.48.13-.91.48-.91.79,0,.12.14.29.39.51,1.21.86,1.69,1.26,1.74,1.56.08.52.04,5.89.04,6.16,0,1.65-.04,4.33-.17,4.94-.14.44-.73.95-1.73,1.25-.74.18-1.04.4-1.04.65,0,.31.47.52,1.13.52.77,0,2.38-.17,3.81-.17.91,0,3.08.13,3.38.13.52,0,1.08-.18,1.08-.48,0-.25-.26-.51-.95-.73-1.08-.35-1.96-.47-2-1.82-.03-1.52-.09-3.25-.09-5.47,0-2.47.22-8.2.27-8.85,0-.09-.22-.48-.44-.48-.66.18-2.82,1.13-4.51,1.48M341.65,16.25c.78-.78,1.95-1.43,3.21-1.43.88,0,2.48.49,3.69,1.7.48.51.87,1.34.91,1.69.17,1.94.17,4.72.13,7.23-.04,1.26-.61,2.6-.7,2.69-.73.56-1.65.95-2.94.95-3.65,0-6.07-3.9-6.07-7.41,0-2.21.87-4.51,1.78-5.42M349.15,13.48c-.56-.08-1.25-.14-2.68-.14-1.26,0-3.81.44-5.72,1.66-2.13,1.25-4.64,3.68-4.64,7.97,0,2.16.7,4.43,2.18,5.98,1.3,1.39,3.2,2.3,5.38,2.3,1.42,0,3.63-.49,5.55-2.12.09,0,.26.09.26.3,0,.61-.09,1.33-.09,1.74,0,.21.31.57.48.57.22,0,.65-.09,1.64-.44.83-.3,3.18-.73,4.04-.86.22-.08.78-.78.78-1.12,0-.05-.09-.26-.27-.26-.42.04-1.81.29-2.29.29-.26,0-.6-.21-.69-2.03-.04-.82-.13-.82-.13-9.58,0-12.53.22-14.83.39-17,.05-.34-.22-.69-.3-.69-.22,0-.4.04-.61.13-1.17.43-3.64,1.08-4.68,1.26-.26.05-.74.52-.74.7,0,.08.09.22.48.43,1.95,1,1.95,1.52,2,1.78.13,1.04.26,7.5.04,8.71-.04.18-.17.48-.34.44M366.58,28.27c-.74.43-1.61.69-2.22.69-.87,0-2.6-.69-2.6-2.6,0-1.08.34-1.38.82-1.65,1.09-.61,3.17-1.31,4.29-1.31.13,0,.3.22.3.35,0,1-.04,2.56-.09,3.47-.04.13-.26.91-.51,1.04M369.7,15.44c-.65-.95-1.78-2.13-4.03-2.13-.78,0-2.74.69-4.08,1.65-2.17,1.43-3.34,2.64-3.34,3.86,0,.26.26.6.52.6.22,0,2.61-1.16,3.04-1.52.09-.08.21-.3.21-.43-.04-1,.09-1.69.31-1.83.3-.21.86-.44,1.69-.44,2.12,0,3.3,1.78,3.3,2.86.04.52-.05,3.12-.09,3.51,0,.27-.26.48-1.18.78-.95.3-4.5,1.26-5.2,1.56-.61.26-1.3.48-1.74,1.05-.47.6-.81,1.47-.81,2.25,0,2.21,1.52,4.07,3.07,4.07.3,0,1.3-.08,1.78-.26.47-.17,2.29-.91,3.81-1.95.08-.04.26.09.3.17.52,1.61,1.78,2.12,2.82,2.12,2.07,0,4.02-1.91,4.02-2.73,0-.05,0-.35-.08-.48-.09-.12-.13-.17-.26-.12-.53.3-1.47.65-1.64.65-.44,0-1.7-.26-1.7-2.08,0-.48.18-5.86.18-7.54,0-1.87-.31-2.78-.91-3.64M380.89,16.25c.78-.78,1.95-1.43,3.21-1.43.86,0,2.47.49,3.68,1.7.47.51.87,1.34.91,1.69.17,1.94.17,4.72.12,7.23-.04,1.26-.6,2.6-.7,2.69-.73.56-1.64.95-2.94.95-3.64,0-6.07-3.9-6.07-7.41,0-2.21.87-4.51,1.79-5.42M388.39,13.48c-.56-.08-1.26-.14-2.69-.14-1.26,0-3.81.44-5.72,1.66-2.13,1.25-4.64,3.68-4.64,7.97,0,2.16.7,4.43,2.17,5.98,1.3,1.39,3.21,2.3,5.37,2.3,1.43,0,3.64-.49,5.55-2.12.09,0,.27.09.27.3,0,.61-.09,1.33-.09,1.74,0,.21.31.57.47.57.22,0,.65-.09,1.65-.44.82-.3,3.16-.73,4.03-.86.22-.08.78-.78.78-1.12,0-.05-.09-.26-.26-.26-.44.04-1.82.29-2.3.29-.26,0-.6-.21-.68-2.03-.06-.82-.14-.82-.14-9.58,0-12.53.22-14.83.39-17,.05-.34-.22-.69-.31-.69-.21,0-.38.04-.6.13-1.17.43-3.64,1.08-4.68,1.26-.26.05-.74.52-.74.7,0,.08.09.22.48.43,1.95,1,1.95,1.52,2,1.78.12,1.04.25,7.5.04,8.71-.04.18-.17.48-.34.44M2.27,104.01c-.81.8-2.27,2.85-2.27,3.65,0,2.05,3,3.29,5.26,3.29,1.97,0,5.41-1.17,8.99-3.73,4.76-3.44,8.93-10.53,9.22-19.31.15-6.2.45-25.44.52-31.44.07-3.58,1.02-4.53,3.51-5.12,1.75-.44,2.19-1.02,2.19-1.61s-.95-.88-2.04-.88c-2.27,0-4.9.22-8.92.22-3.15,0-6.08-.3-8.34-.3-1.68,0-2.26.52-2.26,1.03,0,.59.73,1.25,2.34,1.61,3.29.81,4.02,2.34,4.1,3.73.14,3.07.36,10.39.36,20.85s.07,20.04-.22,24.2c-.14,1.46-.44,3.51-1.46,4.75-.51.66-1.1.87-1.97.87-1.1,0-2.86-.87-4.6-2.12-.95-.58-1.98-.8-2.27-.8-.37,0-1.83.73-2.12,1.1M60.6,74.26c.07.29-.22.58-.29.58-2.35,0-7.76.07-10.6.15-.3,0-.59-.36-.51-.73.44-1.76,3.95-10.97,5.26-14.48.23-.58.66-.73.81-.22,1.02,2.42,4.24,11.26,5.34,14.7M60.45,49.46c-.59-1.46-.88-1.61-1.25-1.61s-.87.29-1.31.95c-.5.81-2.78,3.52-3.8,4.54-.22.14-.15.37-.15.59,0,.29-.29,1.17-.36,1.31-3.07,7.24-10.97,28.09-12.72,31.59-2.12,4.31-2.92,5.48-6.66,6.51-1.53.44-1.83.94-1.83,1.46,0,.44.44.88,2.12.88,1.1,0,4.39-.3,7.24-.3,2.7,0,4.53.14,5.85.14,1.17,0,2.2-.36,2.2-.95,0-.66-.66-1.1-2.13-1.46-2.7-.73-3.44-1.75-3.44-3.22s.8-4.75,3.14-10.6c.15-.22.59-.73.81-.73,1.02-.08,4.53-.3,12.28-.22.88,0,1.69.81,1.76,1.1,1.68,4.68,3.22,8.77,3.36,10.68.14,1.17.08,2.33-2.92,3.07-1.39.29-1.9.88-1.9,1.25,0,.66.88,1.09,2.34,1.09,1.9,0,4.75-.14,7.16-.14,2.27,0,7.76.3,9.59.3,1.68,0,2.41-.59,2.41-1.1s-.66-.95-1.9-1.31c-2.49-.73-4.09-1.46-6.51-7.39-1.46-3.65-6.44-16.89-10.46-28.22-.95-2.71-2.27-6.44-2.93-8.19M79.16,48.73c-1.1,0-2.12.44-2.12,1.1,0,.8,1.02,1.1,1.9,1.32,3.29.95,4.39,2.56,5.92,5.99,2.78,6.66,8.41,20.11,10.89,26.76,2.12,5.34,3.44,9.57,3.81,11.19.15.51.8,1.76,1.61,1.76.73,0,1.68-1.09,1.97-1.9,1.47-4.46,3.08-8.56,5.49-14.32,4.39-10.83,8.92-19.67,10.53-23.26,1.84-3.8,3.37-5.34,6.66-6.15,1.24-.21,1.98-.72,1.98-1.38,0-.58-.95-1.02-2.2-1.02-1.54,0-4.46.3-6.58.3-2.42,0-3.95-.22-6.22-.22-1.17,0-1.97.58-1.97,1.1,0,.44.8.95,1.61,1.24,2.92,1.1,4.9,1.39,3.28,5.71-2.19,5.77-9.94,23.83-10.52,25.01-.08.21-.52.21-.66,0-1.76-3.59-9.58-23.03-10.68-26.62-.58-2.05-.66-3.07,2.63-3.95,1.32-.36,1.83-.95,1.83-1.54,0-.51-.81-.88-1.75-.88-1.68,0-6.22.15-8.7.15-3.59,0-7.24-.37-8.71-.37M150.04,49.1c-3.81,0-9.81-.22-13.24-.22-1.02,0-2.27.44-2.27,1.1,0,.73.8,1.03,2.34,1.32,3.14.59,3.73,2.05,3.88,4.68.14,2.12.07,5.49.07,14.11,0,9.07-.37,14.63-.59,17.7-.28,3.95-1.24,4.68-4.97,5.56-1.24.29-2.2.8-2.2,1.46,0,.73,1.1.95,2.49.95,2.63,0,3.44-.37,8.34-.37,5.48,0,23.55.37,24.35.37.36,0,1.53-.44,1.75-.95.66-1.17,2.78-7.89,2.78-8.48.07-.59.14-2.13-.58-2.13-.59,0-1.25.66-2.28,2.56-1.61,2.85-3.58,4.61-5.78,5.41-1.83.66-4.53.66-6.72.66-2.49,0-4.76-.22-5.93-.44-.73-.15-1.39-1.09-1.61-1.75-.29-1.53-.22-4.25-.29-6-.07-2.42-.15-8.12.15-10.16,0-.15.65-.88.94-.88,2.27,0,4.98,0,7.32.22,2.86.22,3.8.74,4.76,3.95.21.73.8,1.61,1.38,1.61s1.03-.88.95-2.2c-.14-1.83-.29-2.99-.29-4.97,0-1.69.14-3,.29-5.05.07-.81-.14-2.05-.73-2.05-.66,0-1.16.8-1.6,1.9-1.4,3.22-1.25,3.51-6.44,3.51h-5.85c-.43,0-.73-.51-.73-.73-.07-4.02.14-14.18.3-16.02.06-1.75.65-2.04.95-2.04,5.62-.07,8.77.22,10.16.43,1.68.29,3.73,1.39,4.68,5.49.15.73.73,1.83,1.39,1.83s1.17-1.03,1.17-2.06c0-1.46,0-6.5-.07-7.82-.07-.51-.58-1.03-.88-.95-1.03.14-4.03.44-6.44.44h-10.96ZM204.41,53.71c2.48,2.56,3.14,5.85,3.14,7.75,0,4.09-2.12,6.72-4.1,8.19-.8.51-4.17,1.61-7.9,1.61-.37,0-.88-.44-.95-.87-.3-1.9,0-14.7.22-17.19.06-.37.5-1.31.87-1.53.58-.29,2.49-.51,2.78-.51,1.98,0,4.24.8,5.93,2.56M211.49,69.94c3.22-2.57,5.12-5.42,5.12-9.36,0-3.36-1.68-6.87-3.95-8.7-3.51-2.93-9.36-3.22-12.73-3.22-3.95,0-10.02.37-12.73.37h-5.34c-1.24,0-2.12.51-2.12,1.02,0,.58.8,1.1,1.83,1.39,3.44.81,4.1,1.91,4.25,3.66.22,1.97.37,8.19.37,16.02,0,6.21,0,12.35-.45,17.99-.22,2.34-1.02,3.21-4.38,4.24-.95.29-1.76.73-1.76,1.17,0,.66.52,1.17,2.34,1.17.81,0,4.46-.3,7.03-.3,3.58,0,6.79.44,9.36.44.88,0,2.27-.29,2.27-1.1,0-.5-.51-1.01-1.75-1.38-3.37-.88-3.88-1.61-4.1-4.76-.21-3.36-.36-13.08-.21-14.55.07-.37.51-.73.8-.73,1.38,0,3,.51,3.51.95.58.36,1.69,1.96,2.34,3.07,3.07,5.26,6.8,11.26,8.85,14.04,1.53,2.11,4.39,4.75,11.04,4.75.96,0,3.73-.15,4.9-.59.51-.14,1.17-.66,1.17-1.09,0-.3-.59-.89-1.32-1.03-2.18-.44-4.31-1.32-6.29-3.66-3.66-4.23-9.66-14.33-11.04-17.26-.15-.29-.22-.87.14-1.02,1.02-.51,2.56-1.32,2.86-1.53M239.52,56.85c.22,2.79.22,10.38.22,14.12,0,6.21-.14,13.74-.36,16.52-.15,3.15-.66,4.68-4.02,5.49-1.53.36-2.19.87-2.19,1.38,0,.74.51,1.24,2.26,1.24,2.71,0,4.9-.22,7.02-.22,3.07-.07,8.04.37,10.98.37.87,0,2.26-.23,2.26-.95s-.73-1.25-2.04-1.54c-4.09-1.09-4.53-1.97-4.83-6.28-.14-2.2-.22-5.34-.22-14.19,0-12.57.07-15.13.29-16.96.15-1.9.37-3.8,4.03-4.46,1.25-.22,2.26-.8,2.26-1.46,0-.74-1.02-1.03-2.26-1.03-2.56,0-5.12.22-8.7.22-2.42,0-6.22-.22-8.34-.22-1.31,0-2.34.44-2.34,1.03,0,.51.44,1.02,2.2,1.46,3.59.88,3.59,1.98,3.8,5.48M290.41,74.26c.08.29-.22.58-.29.58-2.33,0-7.75.07-10.6.15-.29,0-.59-.36-.51-.73.43-1.76,3.95-10.97,5.26-14.48.21-.58.66-.73.8-.22,1.03,2.42,4.25,11.26,5.34,14.7M290.27,49.46c-.59-1.46-.88-1.61-1.24-1.61s-.88.29-1.32.95c-.51.81-2.78,3.52-3.8,4.54-.22.14-.15.37-.15.59,0,.29-.29,1.17-.37,1.31-3.07,7.24-10.97,28.09-12.73,31.59-2.12,4.31-2.92,5.48-6.65,6.51-1.54.44-1.83.94-1.83,1.46,0,.44.44.88,2.12.88,1.09,0,4.39-.3,7.24-.3,2.7,0,4.53.14,5.85.14,1.17,0,2.19-.36,2.19-.95,0-.66-.66-1.1-2.12-1.46-2.7-.73-3.43-1.75-3.43-3.22s.81-4.75,3.15-10.6c.14-.22.59-.73.8-.73,1.03-.08,4.53-.3,12.29-.22.87,0,1.68.81,1.75,1.1,1.68,4.68,3.22,8.77,3.36,10.68.15,1.17.07,2.33-2.92,3.07-1.39.29-1.9.88-1.9,1.25,0,.66.87,1.09,2.34,1.09,1.9,0,4.75-.14,7.17-.14,2.26,0,7.75.3,9.58.3,1.68,0,2.42-.59,2.42-1.1s-.66-.95-1.91-1.31c-2.48-.73-4.09-1.46-6.5-7.39-1.46-3.65-6.43-16.89-10.46-28.22-.95-2.71-2.26-6.44-2.92-8.19M321.36,48.8c-1.32,0-2.2.51-2.2,1.1,0,.51,1.09,1.1,1.9,1.24,3.81.87,4.31,1.9,5.63,3.51.22.29.44,1.17.44,4.09,0,5.26-.95,19.31-1.32,27.49-.22,5.49-1.97,6.06-5.33,7.1-.73.21-1.6.58-1.6,1.31,0,.59.87.95,1.9.95,1.24,0,5.34-.22,6.94-.22,2.57,0,4.25.3,6.36.3,1.39,0,2.41-.3,2.41-1.1,0-.44-.51-.95-2.05-1.39-3.51-1.1-4.31-2.34-4.61-4.68-.36-3.58-.22-9.14-.15-19.3.07-5.78.21-7.46.36-9.44,0-.22.44-.8.81-.36,6.5,7.67,18.43,20.25,25.3,28.66,1.98,2.41,3.37,4.1,4.75,5.92.66.88,2.42,2.78,3.96,2.78.36,0,1.17-.73,1.17-1.39,0-1.9-.45-8.34-.45-11.41,0-6.21.51-24.71.73-27.34.37-2.93.73-4.25,4.53-5.49,1.31-.37,1.83-1.03,1.83-1.47,0-.51-.52-.95-1.76-.95-1.9,0-4.89.37-8.41.37-1.46,0-3.15-.07-4.98-.07-1.31,0-2.12.36-2.12.88,0,.87.95,1.31,2.42,1.68,3.66.95,4.38,2.63,4.53,4.09.22,1.9.44,5.34.44,7.83,0,6.14.21,14.4-.15,16.52,0,.15-.29.81-.65.44-3.88-4.1-18.21-18.95-21.79-23.33-3-3.51-5.04-5.77-6.15-7.09-.21-.22-1.24-.95-1.61-.95-3.73,0-9.5-.29-11.11-.29M403.55,74.26c.07.29-.22.58-.29.58-2.34,0-7.76.07-10.6.15-.29,0-.58-.36-.51-.73.44-1.76,3.95-10.97,5.27-14.48.22-.58.66-.73.81-.22,1.02,2.42,4.24,11.26,5.34,14.7M403.4,49.46c-.59-1.46-.88-1.61-1.24-1.61s-.88.29-1.31.95c-.52.81-2.78,3.52-3.81,4.54-.22.14-.15.37-.15.59,0,.29-.29,1.17-.37,1.31-3.07,7.24-10.97,28.09-12.72,31.59-2.12,4.31-2.93,5.48-6.66,6.51-1.54.44-1.82.94-1.82,1.46,0,.44.43.88,2.11.88,1.1,0,4.39-.3,7.24-.3s4.54.14,5.85.14c1.18,0,2.2-.36,2.2-.95,0-.66-.66-1.1-2.12-1.46-2.7-.73-3.44-1.75-3.44-3.22s.81-4.75,3.15-10.6c.14-.22.58-.73.8-.73,1.02-.08,4.54-.3,12.28-.22.88,0,1.68.81,1.76,1.1,1.68,4.68,3.21,8.77,3.36,10.68.14,1.17.08,2.33-2.93,3.07-1.39.29-1.9.88-1.9,1.25,0,.66.87,1.09,2.33,1.09,1.9,0,4.76-.14,7.17-.14,2.26,0,7.75.3,9.58.3,1.68,0,2.42-.59,2.42-1.1s-.66-.95-1.91-1.31c-2.48-.73-4.09-1.46-6.5-7.39-1.47-3.65-6.44-16.89-10.46-28.22-.95-2.71-2.26-6.44-2.93-8.19M158.1,117.72c-1.3-.32-3.03-.58-4.69-.58-2.95,0-6.67.72-9.74,3.25-1.51,1.23-3.97,4.29-3.97,8.65,0,4,1.66,6.53,3.03,8.12,1.48,1.69,5.27,4.07,10.6,4.07,3.32,0,5.81-.87,6.31-1.05.54-.25,1.19-.83,1.3-1.15.32-.65.9-2.24,1.08-3.14.11-.4.11-1.34-.29-1.34-.29,0-.54.33-.97,1.12-.83,1.48-1.8,2.52-3.14,3.28-1.26.76-3.03.83-3.5.83-2.81,0-6.1-1.41-8.08-5.37-.8-1.59-1.23-3.68-1.23-6.1,0-5.48,2.7-10.03,8.44-10.03,1.95,0,3.79.8,5.34,2.09.61.47,1.15,1.44,1.51,2.56.18.54.51.97.69.97.4,0,.65-.62.61-1.37-.07-1.05-.14-2.31-.18-3.32,0-.54-.29-.97-.54-.97-.83-.11-1.73-.33-2.6-.54M171.34,127.89c.58-.54,1.16-.79,1.77-.79,1.01,0,1.95.61,2.6,1.44,1.12,1.59,1.45,3.93,1.45,5.45,0,2.06-.58,3.97-1.34,4.94-.54.61-1.23.9-1.59.9-1.51,0-3.17-1.23-3.93-3.75-.29-.9-.43-2.27-.43-3.46,0-2.38.65-3.97,1.48-4.73M181.4,133.41c0-4.69-4-7.5-7.61-7.5-2.67,0-4.69,1.15-5.77,2.09-1.37,1.15-2.49,3.07-2.49,5.59,0,2.02,1.16,4.29,2.7,5.56,1.33,1.12,3.36,1.88,4.98,1.88s3.5-.43,4.97-1.48c1.33-.87,3.21-3.06,3.21-6.13M185.12,116.68c-.4.14-.65.43-.65.61s.18.36.65.76c.76.57.97.79.97,1.23,0,1.05.04,4.44.04,6.31,0,5.7-.11,9.77-.22,11.36-.11,1.88-.32,2.42-1.51,2.74-.4.07-.86.22-.86.61,0,.18.25.43,1.04.43s2.52-.15,3.36-.15c.65,0,2.7.15,3.57.15.4,0,.98-.11.98-.43,0-.25-.26-.43-.76-.61-1.37-.4-1.52-.83-1.62-1.66-.11-1.08-.14-5.84-.14-8.65,0-5.41.18-12.66.29-13.96,0-.14-.32-.43-.43-.36-1.41.9-3.14,1.19-4.69,1.62M200.49,127.89c.58-.54,1.16-.79,1.77-.79,1.01,0,1.94.61,2.59,1.44,1.12,1.59,1.45,3.93,1.45,5.45,0,2.06-.58,3.97-1.34,4.94-.54.61-1.22.9-1.59.9-1.51,0-3.17-1.23-3.93-3.75-.29-.9-.43-2.27-.43-3.46,0-2.38.65-3.97,1.48-4.73M210.55,133.41c0-4.69-4-7.5-7.61-7.5-2.67,0-4.69,1.15-5.77,2.09-1.37,1.15-2.49,3.07-2.49,5.59,0,2.02,1.16,4.29,2.7,5.56,1.33,1.12,3.36,1.88,4.98,1.88s3.5-.43,4.97-1.48c1.33-.87,3.21-3.06,3.21-6.13M214.49,127.43c-.25.07-.69.43-.69.65s.43.65,1.3,1.51c.21.18.21.47.21.8,0,3.17-.11,5.99-.18,6.96-.15,1.55-.25,2.02-1.52,2.31-.65.18-.9.4-.9.61,0,.33.5.47,1.01.47.76,0,1.84-.14,3.03-.14,1.37,0,3.39.07,3.54.07.5,0,.97-.25.97-.47,0-.29-.18-.43-.86-.65-.98-.32-1.26-.79-1.26-1.55,0-2.74,0-6.02.03-8.37,0-.29.14-.69.33-.83.5-.4,1.37-.76,2.2-.76,1.05,0,1.88.51,2.35,1.16.18.22.47.83.43,2.27l-.03,6.2c0,1.3-.32,1.66-1.3,1.95-.47.15-.72.4-.72.5,0,.29.14.54,1.04.54.76,0,2.2-.07,2.96-.07.83,0,2.45.11,3.24.11.58,0,.94-.25.94-.5s-.36-.43-.76-.54c-1.26-.36-1.41-.68-1.51-1.84-.07-.79-.04-7.43-.04-7.68,0-.36.11-.97.29-1.12.36-.29.94-.72,2.2-.72,1.12,0,1.88.54,2.31,1.23.43.69.51,1.37.51,1.95,0,1.19.07,5.19.03,6.13-.07,1.4-.22,1.73-1.16,2.02-.4.15-.72.32-.72.54,0,.25.22.54.9.54.83,0,1.73-.11,2.96-.11.97,0,2.16.14,2.89.14.65,0,1.01-.22,1.01-.47,0-.22-.25-.43-.72-.58-.94-.29-1.23-.83-1.26-1.44-.03-2.31-.11-6.06-.18-7.25-.07-1.37-.4-2.67-1.37-3.61-.72-.76-1.62-1.3-3.1-1.3-.61,0-1.26.11-2.09.54-.72.36-2.2,1.26-2.63,1.55-.03,0-.22,0-.29-.11-.18-.29-.58-.97-1.19-1.44-.58-.43-1.51-.72-2.63-.72-1.77,0-3.46.94-4.87,2.09-.11.11-.25-.15-.25-.22,0-.36.11-1.05.11-1.55,0-.07-.15-.36-.33-.47-.07-.04-.15-.07-.33,0-.87.47-2.99,1.37-3.89,1.66M252.25,129.3c1.01,1.19,1.55,3.1,1.55,4.54,0,1.73-.54,3.75-1.44,4.83-.76.76-1.45,1.09-1.77,1.09-.54,0-1.48-.22-2.2-.97-.72-.65-.97-1.66-1.01-2.05-.18-1.26-.33-3.54-.33-6.28,0-.76.04-1.48.07-2.02.04-.11.18-.32.29-.39.32-.14.79-.29,1.4-.29,1.45,0,2.78.76,3.43,1.55M254.74,139.44c1.69-1.26,3.39-3.39,3.39-6.31,0-2.38-.87-4.26-2.45-5.62-1.15-1.01-2.78-1.59-4.62-1.59-1.01,0-2.67.36-3.82,1.08,0,0-.14,0-.14-.18-.04-.79-.04-1.91-.04-2.74,0-2.82.22-5.77.33-8.33,0-.22-.29-.58-.4-.58-.18,0-.51.11-1.19.47-1.19.61-2.67.9-3.9,1.22-.22.07-.61.43-.61.69,0,.18.36.32,1.04.83.58.5.72.9.76,1.12.07.54.11,5.12.11,8.55,0,2.96-.03,9.23-.21,12.05,0,.25.25.47.4.47.07,0,.29-.07.47-.14.36-.18.61-.22.76-.14,1.19.36,3.5.76,4.83.76s3.75-.43,5.3-1.59M267.26,120.61c0-.83-.65-2.24-1.91-2.24-.68,0-1.37.25-1.8.65-.4.44-.58,1.16-.58,1.59,0,.72.32,1.23.68,1.59.4.4,1.12.61,1.45.61.9,0,2.16-1.01,2.16-2.2M262.5,127.14c-.58.11-.97.4-.97.69,0,.18.22.36.43.58.76.65,1.19,1.01,1.23,1.3.07.43.07,2.49.07,3.24,0,2.56-.07,5.12-.21,5.63-.07.36-.47.8-1.33,1.05-.69.22-.94.4-.94.65s.43.47,1.01.47c.61,0,2.34-.14,3.5-.14.79,0,2.74.11,2.99.11.51,0,1.01-.18,1.01-.47s-.26-.51-.8-.69c-.94-.29-1.37-.43-1.4-1.52-.04-1.26-.07-2.53-.07-3.64,0-2.09.11-6.92.18-8.15,0-.11-.18-.4-.36-.4-.58.14-2.85,1.01-4.33,1.3M278.77,138.39c-.33.22-1.04.43-1.37.43-.69,0-1.98-.72-1.98-2.31,0-.94.21-1.12.65-1.44.65-.4,2.31-.94,2.92-.94.11,0,.25.22.25.37,0,1.19-.07,2.7-.14,3.21,0,.14-.14.57-.32.68M282.16,127.86c-.54-.79-1.55-1.95-3.75-1.95-.51,0-2.27.47-3.61,1.33-2.23,1.44-3.03,2.42-3.03,3.46,0,.22.25.51.47.51s2.92-1.19,3.18-1.44c.07-.07.14-.18.14-.32,0-1.23.07-1.59.22-1.66.25-.18.65-.25,1.16-.25,1.62,0,2.38,1.44,2.41,2.31.04.47-.03,2.45-.07,2.78,0,.15-.22.4-.65.54-.83.25-4.11,1.16-4.9,1.48-.32.14-.94.36-1.3.86-.36.51-.65,1.19-.65,1.84,0,2.02,1.45,3.64,2.78,3.64.47,0,1.19-.15,1.59-.29.47-.21,1.94-.87,2.85-1.51.07-.07.29,0,.32.14.54,1.4,1.66,1.73,2.7,1.73,2.02,0,3.72-1.77,3.72-2.45,0-.11-.04-.36-.11-.51-.07-.07-.11-.11-.21-.04-.36.15-1.08.43-1.27.43-.61,0-1.33-.43-1.33-1.44,0-.4.14-4.69.14-6.1,0-1.62-.36-2.53-.79-3.1"/>
  </g>
</svg>