<?xml version="1.0" encoding="UTF-8"?>
<svg id="Capa_2" xmlns="http://www.w3.org/2000/svg" version="1.1" viewBox="0 0 430.3 430.3">
  <!-- Generator: Adobe Illustrator 29.3.1, SVG Export Plug-In . SVG Version: 2.1.0 Build 151)  -->
  <defs>
    <style>
      .st0 {
        fill: #fff;
      }
    </style>
  </defs>
  <g id="Capa_1-2">
    <path class="st0" d="M150.4,333.6c-3.6-.8-5.4-2-5.8-4.9-.3-2.2-.4-12.8-.4-28.6v-20.8c.1-4.3.7-5.9,5.1-7,1.4-.3,2.2-1.1,2.2-1.5s-.7-.8-2.3-.8c-3.6,0-12.2.5-14.6.5-3.3,0-10.2-.5-12.8-.5s-2.3.5-2.3,1,1.2,1.1,2.1,1.4c2.9.7,4.9,1.7,5.5,4.9.1,1.8.3,6.1.3,11.4s0,30.3-.1,36.1c-.1,5.7-1.1,7.7-5.6,8.8-1.2.3-2.2.6-2.2,1.2s1,1.1,2.3,1.1c4.1,0,9.4-.7,13.8-.7s10.9.6,14.6.6,2.2-.3,2.2-1.1-.6-.8-1.8-1.1M299.8,298.9c-2.6-1.8-7-4.3-11.3-7.5-5.1-3.9-6.7-6.8-6.7-10.6,0-7,5.1-10.3,10-10.3s6.3,1.4,8.7,3.5c1.8,1.8,3.4,4.2,4.8,7.5.4,1.1,1,1.8,1.4,1.8s1-.7.7-2.1c-.3-1-1.1-7.1-1-9.5,0-.7-.5-1.3-1.1-1.4-2.8-.7-7.3-1.8-13.9-1.8s-11.3,1.7-14.3,3.5c-4.8,3.1-8.4,7.8-8.4,15.6s4.7,14.9,16.4,22.5c7.6,4.7,12,9.2,12,14.4s-4.7,10.9-11.6,10.9-7.4-1.7-10.5-4.2c-2.9-2.5-5.2-5.7-6.3-9.2-.5-1.5-.8-2.5-1.5-2.5s-1.2.8-.7,2.9c.7,4,.8,8.4,1.2,10.3,0,.3.4,1.3,1.2,1.5,3.9,1.5,12.2,3.3,16.1,3.3,14,0,25.9-7.7,25.9-20.2s-6-14.8-11.1-18.4M251.2,333.6c-4.5-1.1-5.5-3.1-5.6-8.8-.1-5.9-.1-33.5-.1-36.1,0-5.3.1-9.6.3-11.4.6-3.2,2.6-4.2,5.5-4.9.8-.3,2.1-1,2.1-1.4s-.8-1-2.3-1c-2.6,0-9.5.5-12.8.5s-11-.5-14.6-.5-2.3.3-2.3.8.8,1.2,2.2,1.5c4.4,1.1,4.9,2.6,5.1,7v19.8c0,.8-.2,1-.8,1.1-.2,0-5.6,0-12,.1v-38.7h12.2v-8.2h-12.2v-10.9h-8.1v10.9h-12.2v8.2h12.2v38.7c-6.3,0-11.8,0-12.1-.1-.6-.1-.7-.8-.7-2.8v-18.1c.1-4.3.7-5.9,5.1-7,1.4-.3,2.2-1.1,2.2-1.5s-.7-.8-2.3-.8c-3.6,0-12.2.5-14.6.5s-10.2-.5-12.8-.5-2.3.5-2.3,1,1.2,1.1,2.1,1.4c2.9.7,4.9,1.7,5.5,4.9.1,1.8.3,6.1.3,11.4s0,30.3-.1,36.1c-.1,5.7-1.1,7.7-5.6,8.8-1.2.3-2.2.6-2.2,1.2s1,1.1,2.3,1.1c4.1,0,9.4-.7,13.8-.7s10.9.6,14.6.6,2.2-.3,2.2-1.1-.6-.8-1.8-1.1c-3.6-.8-5.4-2-5.8-4.9-.2-2-.4-10.6-.4-23.6.1-.4.3-.7.4-.7,1.2-.3,31.9-.3,32.4-.1.7.1.9.8.9,1.7,0,12.5-.2,20.8-.4,22.7-.4,2.9-2.2,4-5.8,4.9-1.2.3-1.8.7-1.8,1.1,0,.8,1.1,1.1,2.2,1.1,3.7,0,9.8-.6,14.6-.6s9.6.7,13.8.7,2.3-.8,2.3-1.1c0-.7-1-1-2.2-1.2M285.4,219.1c-.9,2,0,4.3,1.9,5.1.4.2.9.2,1.4.2,1.7,0,3.7-.7,4.4-1,.3-.1.5-.3.6-.6.1-.3.1-.6,0-.9-.4-1-1.7-4.2-3.4-4.9-.5-.2-1-.3-1.6-.3-1.5,0-2.9.9-3.5,2.3M294.5,229.8c-1,0-4.4.3-5.6,1.7-1.4,1.6-1.3,4.1.3,5.5.7.7,1.6,1,2.6,1s2.1-.4,2.9-1.3c1.2-1.4,1.1-4.8,1.1-5.9,0-.3-.1-.6-.4-.8-.2-.2-.5-.3-.7-.3h0ZM296.5,224.1c-.7,1.6,0,3.5,1.6,4.2.4.2.9.3,1.3.3s0,0,.1,0h0c.1,0,.2,0,.4,0,0,0,.1,0,.1,0,.1,0,.3,0,.4-.1,0,0,.1,0,.1,0,.1,0,.3-.1.4-.2h0c.1-.1.3-.2.4-.4,0,0,0,0,.1-.1.1-.1.2-.2.3-.3,0,0,0,0,.1-.1,0,0,0,0,0-.1h0c0-.1.1-.3.2-.4.7-1.6,0-3.5-1.6-4.2-.2-.1-.4-.2-.6-.2,0,0-.1,0-.2,0-.1,0-.3,0-.4,0s-.4,0-.5,0c0,0,0,0-.1,0-.1,0-.3,0-.4.1,0,0-.1,0-.1,0,0,0,0,0,0,0h0c-.2.1-.4.2-.6.4h0c0,0-.2.1-.3.2,0,0,0,0-.1.1-.1.1-.2.2-.3.3,0,0,0,0-.1.1-.1.2-.2.3-.3.5M296.9,213.4c-.2,1.8,1.9,4.6,2.5,5.4.2.2.5.4.7.4h.1c.2,0,.5,0,.7-.2.8-.6,3.4-2.9,3.6-4.8.2-2.1-1.3-4.1-3.4-4.3-.1,0-.3,0-.4,0-1.9,0-3.6,1.5-3.8,3.5M305.7,223.3c-.2.2-.2.6-.1.8s.2.5.5.7c.8.5,3.2,2,5,2s.4,0,.5,0c2.1-.4,3.4-2.5,3-4.6-.4-1.8-2-3.1-3.8-3.1s-.5,0-.8,0c-1.8.4-3.7,3.2-4.3,4.1M307.2,238.9c1.8-1.1,2.5-3.5,1.4-5.3-.9-1.6-4.2-2.6-5.2-2.9,0,0-.2,0-.3,0-.2,0-.4,0-.5.1-.2.1-.4.4-.5.7-.3,1-1,4.4-.1,6,.7,1.2,2,1.9,3.3,1.9s1.3-.2,1.9-.5M285.9,227.6c-1.8-.8-3.2-2.3-4-4.2-.7-1.9-.7-4,.1-5.8,1.2-2.8,3.9-4.5,6.9-4.5s2.1.2,3.1.7c.4.2.8.5,1.2.8,0-.5,0-1,0-1.5.4-3.9,3.6-6.8,7.5-6.8s.5,0,.8,0c4.1.4,7.1,4.2,6.7,8.4,0,.5-.2.9-.3,1.4.4-.2.9-.4,1.4-.5.5-.1,1-.2,1.6-.2,3.5,0,6.6,2.6,7.4,6.1.4,2,0,4-1,5.8-1.1,1.7-2.8,2.9-4.8,3.3-.4,0-.9.1-1.3.1h-.1c.3.4.6.8.9,1.2,1,1.8,1.3,3.8.8,5.8-.5,2-1.8,3.6-3.5,4.6-1.1.7-2.5,1-3.8,1-2.7,0-5.2-1.5-6.5-3.8-.2-.4-.4-.9-.6-1.4-.2.4-.5.9-.8,1.2-1.4,1.6-3.5,2.5-5.6,2.5s-3.6-.7-5-2c-3.1-2.8-3.3-7.6-.6-10.8.3-.4.7-.7,1.1-.9-.5-.1-1-.2-1.4-.4M240.4,201.8c1.1.5,3.4.2,4-1.1.6-1.4-.6-3.3-1.7-3.8-1.1-.5-3.4-.2-4,1.1-.6,1.4.6,3.3,1.7,3.8M115.8,222.2c-.4,2.1.9,4.2,3,4.6.2,0,.3,0,.5,0,1.8,0,4.2-1.5,5-2,.2-.2.4-.4.5-.7,0-.3,0-.6-.2-.8-.6-.9-2.5-3.7-4.3-4.1-.3,0-.5,0-.8,0-1.8,0-3.4,1.2-3.8,3.1M129.2,209.9c-2.1.2-3.6,2.1-3.4,4.3.2,1.9,2.8,4.1,3.6,4.8.2.2.4.2.7.2h.1c.3,0,.6-.2.7-.4.6-.8,2.7-3.6,2.5-5.4-.2-2-1.9-3.5-3.8-3.5s-.3,0-.4,0M133.8,224.1c0-.2-.2-.4-.3-.5,0,0,0,0-.1-.1,0-.1-.2-.2-.3-.3,0,0,0,0-.1-.1,0,0-.2-.1-.3-.2h0c-.2-.1-.4-.3-.6-.4h0s0,0,0,0c0,0-.1,0-.1,0-.1,0-.3,0-.4-.1,0,0,0,0-.1,0-.2,0-.4,0-.5,0s-.3,0-.4,0c0,0-.1,0-.2,0-.2,0-.4.1-.6.2-1.6.7-2.3,2.6-1.6,4.2,0,.1.1.3.2.4h0s0,0,0,.1c0,0,0,0,.1.1,0,.1.2.2.3.3s0,0,.1.1c.1.1.3.2.4.3,0,0,0,0,0,0,.1,0,.3.1.4.2,0,0,.1,0,.1,0,.1,0,.3,0,.4.1,0,0,0,0,.1,0,.1,0,.2,0,.4,0h0s0,0,.1,0c.4,0,.9,0,1.3-.3,1.6-.7,2.3-2.6,1.6-4.2M134.6,230.9c0,1-.1,4.5,1.1,5.9.8.9,1.8,1.3,2.9,1.3s1.8-.3,2.6-1c1.6-1.4,1.7-3.9.3-5.5-1.2-1.4-4.6-1.7-5.6-1.7h0c-.3,0-.5.1-.7.3-.2.2-.3.5-.4.8M136.5,222c-.1.3,0,.6,0,.9.1.3.3.5.6.6.7.3,2.8,1,4.4,1s1,0,1.4-.2c1.9-.9,2.8-3.2,1.9-5.1-.6-1.5-2.1-2.3-3.5-2.3s-1.1.1-1.6.3c-1.7.8-3,3.9-3.3,4.9M128.4,237.5c.9-1.6.1-5-.1-6,0-.3-.3-.5-.5-.7-.2-.1-.4-.1-.6-.1s-.2,0-.3,0c-1,.3-4.2,1.3-5.2,2.9-1.1,1.9-.4,4.2,1.4,5.3.6.4,1.3.5,1.9.5,1.3,0,2.6-.7,3.3-1.9M118,230.5c-2-.4-3.7-1.6-4.8-3.3-1.1-1.7-1.5-3.8-1.1-5.7.7-3.5,3.8-6.1,7.4-6.1s1.1,0,1.6.2c.5.1.9.3,1.4.5-.2-.5-.3-.9-.3-1.4-.4-4.2,2.6-7.9,6.7-8.4.3,0,.5,0,.8,0,3.9,0,7.1,2.9,7.5,6.8,0,.5,0,1,0,1.5.4-.3.8-.6,1.2-.8,1-.4,2-.7,3.1-.7,3,0,5.7,1.8,6.9,4.5.8,1.9.9,3.9.1,5.8s-2.1,3.4-4,4.2c-.4.2-.9.3-1.4.4.4.3.8.6,1.1.9,2.8,3.1,2.5,8-.6,10.8-1.4,1.3-3.2,2-5,2s-4.2-.9-5.6-2.5c-.3-.4-.6-.8-.8-1.2-.1.5-.3.9-.6,1.4-1.3,2.4-3.8,3.8-6.5,3.8s-2.6-.4-3.8-1c-1.7-1-3-2.7-3.5-4.6-.5-2-.2-4,.8-5.8.2-.4.5-.8.9-1.1h-.1c-.4,0-.9,0-1.3-.1M189.9,201.8c1.1-.5,2.4-2.5,1.7-3.8s-2.9-1.7-4-1.1c-1.1.5-2.4,2.5-1.7,3.8.6,1.4,2.9,1.7,4,1.1M219.4,62.7c0-2-1.9-5.1-4.3-5.1s-4.3,3.1-4.3,5.1,1.9,5.1,4.3,5.1,4.3-3.1,4.3-5.1M246.3,70.1c1.7.2,3.3-1.9,3.5-3.3s-1-3.8-2.7-4-3.3,1.9-3.5,3.3c-.1,1.4,1,3.8,2.7,4M183.2,62.8c-1.7.2-2.8,2.5-2.7,4,.1,1.4,1.8,3.5,3.5,3.3,1.7-.2,2.8-2.6,2.7-4s-1.8-3.5-3.5-3.3M218.7,98.8c0-1.7-1.6-4.3-3.6-4.3s-3.6,2.6-3.6,4.3,1.6,4.3,3.6,4.3,3.6-2.6,3.6-4.3M240.9,105.3c1.4.3,2.9-1.3,3.1-2.5.2-1.2-.5-3.2-1.9-3.5-1.4-.3-2.9,1.3-3.1,2.5-.2,1.2.6,3.2,1.9,3.5M188.2,99.3c-1.4.3-2.2,2.3-1.9,3.5.2,1.2,1.7,2.8,3.1,2.5,1.4-.3,2.2-2.3,1.9-3.5-.2-1.2-1.7-2.8-3.1-2.5M218,129.1c0-1.3-1.3-3.4-2.8-3.4s-2.9,2-2.9,3.4,1.3,3.4,2.9,3.4,2.8-2.1,2.8-3.4M235.5,134.1c1.1.2,2.3-1,2.4-2,.2-.9-.4-2.5-1.5-2.8-1.1-.2-2.3,1-2.4,2-.2.9.4,2.5,1.5,2.8M193.9,129.4c-1.1.2-1.7,1.8-1.5,2.8.2.9,1.4,2.2,2.4,2,1.1-.2,1.7-1.8,1.5-2.8-.2-.9-1.4-2.2-2.4-2M385.1,349.8c11.6,0,23.9-4.1,36.6-12.2-3,.1-6.8.3-11.4.3-9.4,0-19-.5-28.5-1.6-2.7-.3-5.3-.5-7.6-.5s-6,.3-8.2.7c3,3.2,4.8,6.6,5.8,9.9,3.4.3,7.5,1.1,11.9,3.3.5,0,1,0,1.4,0M398.1,369.9c-4.5-8.3-12.4-18.1-25.5-19.6.7,4.6.1,8.7-.4,11,2,1.2,4.4,2.2,7.5,2.9,9,2.1,14.8,4.1,18.4,5.7M368.4,361.7c.9-2.8,5.6-21.3-16.9-30.4-.9-.3-1.8-.5-2.7-.5-2,0-3.6.8-4.2,1.2-9.2,7.7-21.7,13.8-30.2,17.6,5.2,1.1,11.7,4.4,16,12.7,4.9,9.4,4.2,16.2,2.8,20.2-.2.5-.4,1-.6,1.5,4.2-1.8,10.8-5,19.8-10.4,10.8-6.6,15.2-11,16.1-12M326.4,386.4c1.1-1,6.4-6.4,2.9-17-4.2,2.1-7,3.3-11.2,5.1-.5.7-2,3.2-.6,7.3.5,1.3,1.5,3.7,3.6,4.7,1.4.7,3.2.6,5.3,0M297.3,368.5c9-2.9,17.5-6.4,25.3-10.3-1.6-1.5-3.2-2.6-4.9-3.4-17.5,8.4-38.4,14.4-61.1,17.6-.5,1.6-.8,3.4-.9,5.4.6,0,1.2-.2,1.8-.3,4.5-3,12.4-6.7,24.5-7.4,6.2-.4,11.3-1,15.4-1.8M276.5,385.9c13.5,0,24.6-5.7,33-16.9,0,0-.1,0-.2,0-6.7,2.6-15.9,4.2-27.3,4.9-9.8.6-16.5,3.3-20.5,5.5-1.8,1-3.2,2-4.3,2.8,3.6,1.4,10.8,3.7,19.1,3.7h0M303.2,389.7c-2.5-1.6-5.2-3-7.9-4.1-6.6,3.1-13.2,4-18.7,4s-10.6-.9-14.6-2c5.7,4.7,16.5,10,36.8,10s13-.5,20.3-1.5c-5-1.1-10.5-3.1-15.8-6.5M297.9,417.3c-1.6-6.6-4.6-11.9-8.2-16.3-13.6-1.1-22.2-4.8-27.8-8.6,3.9,4.8,10.4,10.4,21.3,15.4,7.2,3.2,11.8,6.7,14.7,9.6M241,404.8c11.4,0,18.8-1.4,24.5-3-7-3.3-12.9-11.1-13.5-19.3-.8-11.3,3.2-17.6,7.9-21.5h-.2c-10.4,2.1-23.3,4.7-44.6,4.7h-.2c-21.3,0-34.2-2.6-44.6-4.7h-.2c4.7,3.8,8.8,10.1,7.9,21.4-.6,8.1-6.4,15.9-13.5,19.3,5.8,1.5,13.1,3,24.5,3s9.5-7.6,11-10.2c.3-.6.9-.9,1.6-.9s.2,0,.4,0c.8.2,1.4.8,1.5,1.6,1.2,10.7-.2,19.1-4,24.9h0c-.5.8-1.1,1.5-1.7,2.2-1.4,1.6-2.9,2.8-4.5,3.7,2.2-.4,4.4-1.1,6.4-2.1,10-5,12.9-14.2,13.4-16,.2-.8.9-1.4,1.8-1.4s1.6.6,1.8,1.4c.5,1.8,3.3,11,13.4,16,2.1,1,4.2,1.7,6.4,2.1-1.6-.9-3.1-2.1-4.5-3.7-5.1-5.8-7-14.9-5.7-27.1,0-.8.7-1.5,1.5-1.6.8-.2,1.6.2,2,.9,1.5,2.7,6.8,10.2,11,10.2M241.5,420.1c-1.6.4-3.1.9-5.4,1,4,3.6,8.9,4.2,11.6,4.2s.9,0,1.1,0c1.2-1.5.4-2.9-.5-3.9-1.2-1.3-3.7-1.8-4.8-1.9-.8.2-1.5.4-2.2.6M182.5,425.3c2.7,0,7.7-.6,11.6-4.2-2.3-.2-3.8-.6-5.4-1-.7-.2-1.4-.4-2.2-.6-1.1.1-3.6.6-4.8,1.9-.9,1-1.6,2.4-.5,3.9.3,0,.7,0,1.1,0M147,407.8c10.9-4.9,17.4-10.5,21.3-15.4-5.6,3.9-14.3,7.5-27.9,8.6-4,4.7-6.7,10.2-8.1,16.3,2.9-2.9,7.6-6.4,14.8-9.6M131.4,397.7c20.7,0,31.5-5.4,37.1-10.2-3.9,1-8.8,1.9-14.4,1.9s-12.1-.9-18.8-4c-2.9,1.1-5.7,2.5-8.4,4.3-5.3,3.4-10.9,5.4-15.8,6.5,7.3,1,14.1,1.5,20.3,1.5h0M121,369.2c8.5,10.9,19.6,16.5,33.1,16.5s15-2.1,18.6-3.4c-1-.8-2.4-1.8-4.2-2.8-3.9-2.2-10.7-4.9-20.5-5.5-13.4-.8-21.8-2.8-26.9-4.8M107.7,358.2c7.8,3.9,16.4,7.4,25.5,10.3,4.1.7,9,1.4,15,1.7,12,.7,19.9,4.3,24.4,7.3.7.1,1.3.2,2,.3-.1-2-.5-3.8-.9-5.4-22.7-3.3-43.5-9.3-61.1-17.6-1.7.8-3.3,1.9-4.9,3.4M100,362.4c4.4-8.3,10.8-11.5,16.1-12.7-8.5-3.8-21.1-10-30.2-17.6-.6-.5-2.2-1.2-4.2-1.2s-1.9.2-2.7.5c-22.6,9.1-17.8,27.6-16.9,30.4,1,1,5.3,5.4,16.1,12,9,5.5,15.7,8.7,19.9,10.5-2.1-4.5-3.2-11.7,2.1-21.8M112.2,374.5c-4.2-1.7-7-2.9-11.2-5.1-.2.5-.3,1-.4,1.5-1.9,7.1.3,11.7,1.9,14,.6.8,1.1,1.3,1.4,1.5,2.1.7,3.8.8,5.3,0,2.1-1,3.2-3.4,3.6-4.7,1.4-4.1,0-6.6-.6-7.3M58.5,346.5c1-3.3,2.8-6.7,5.8-9.9-2.2-.5-4.9-.7-8.2-.7s-4.9.1-7.6.5c-9.5,1-19,1.6-28.5,1.6h0c-4.6,0-8.4-.1-11.4-.3,12.8,8.1,25,12.2,36.6,12.2s1,0,1.5,0c4.3-2.1,8.4-3,11.9-3.3M50.6,364.2c3-.7,5.5-1.7,7.5-2.9-.5-2.3-1.1-6.4-.4-11-13.1,1.5-21,11.3-25.5,19.6,3.6-1.6,9.3-3.7,18.4-5.7M30.5,317.1c6,7.3,12.3,12.4,18.9,15.3,2.4-.2,4.7-.4,6.8-.4,4.8,0,8.6.6,11.4,1.5,1.8-1.4,3.9-2.8,6.4-4-2.2-3.1-6.9-7.3-16.8-8.1-12.8-1-21.5-2.8-26.6-4.2M26.2,311.8c0,0,9.8,4,31.3,5.8,1.1,0,2.2.2,3.2.4-2-5.4-3-11-3-16.6,0-8.5,2.3-16.8,6.9-24.7-4,1.7-7.8,2.6-10.5,3v3.8c0,.4-.1.7-.3,1-1.3,6.8-6.5,13.3-16.3,13.3s-14.7-7.6-15.1-11.7h0c0,0,0-.4,0-.8v-13.4c-3.4,2.2-6.2,5.3-7.8,9.4-.5,1.3-.9,2.9-1.1,4.5-1,7.6,1.2,18.3,10.7,26.8,0,0,0,0,0,0,.5-.7,1.4-.9,2.2-.6M12.7,177.6c-4.8,20.6-1.4,33.5,2.8,41,2.5-2.1,5.9-4.3,9.9-5.5-.4-2.6-1.2-5.6-2.8-8.9-5.5-12-8.4-20.9-9.9-26.6M33.1,155.8c-5.3,9.9-11.1,24-10.8,38.1,1.1,2.7,2.3,5.6,3.8,8.8,1.6,3.6,2.6,6.8,3,9.7.9-.1,1.8-.2,2.7-.2,1.9,0,3.6.2,5.3.5,1.2-4.1,1.6-10.3-.6-19.4-3.9-16.6-4.1-29.4-3.4-37.4M25.9,278.9c1.1-.8,2.4-1.5,4.2-2.1,2.1-.7,4-.8,5.3-.7v-8.2c-3.1,0-6.4.7-9.5,2v9M31.2,280.4c-4.6,1.5-5.2,4-5.3,4.9v.4c.1.9,1.6,8.3,11.5,8.3s12.8-6.3,12.9-12.5c.2-8.2-6.7-11.6-9.6-12.8-.5-.2-1-.3-1.6-.4v10.1c0,.6-.3,1.2-.8,1.5-.5.4-1.1.4-1.7.2,0,0-2.2-.8-5.4.2M50.3,223.2c-1.9-1.7-8.8-7.2-18.6-7.2s-17,8.5-18.5,10.6v49.1c2.2-3.2,5.4-6.1,9-8.2h0c0,0,.8-.4.8-.4,4.7-2.5,10.1-3.7,15.4-2.7,1.3.2,2.5.4,3.5.8,3.5,1.3,6.3,3.3,8.4,5.7v-47.8M41.6,202c.3,4.8-.1,8.6-.9,11.5,2.2.7,4.2,1.6,6,2.5,3.5-6,6-15.3,1.3-28.4-1,3.2-2.9,7.9-6.3,14.4M54,275.8c5.6-1.1,15.5-4,22.8-12.1,5.4-6.1,8.4-14,8.9-23.6-3.6,5.2-10.4,12.5-21.7,17.3-4.8,2-8,4.5-10,6.9v11.5h0ZM54,259.1c2.2-1.9,4.9-3.6,8.6-5.1,2-.9,3.9-1.8,5.6-2.8,1.7-2.5,3-5.5,3.7-9,2.4-11.8,6.5-19.6,9.8-24.3-12.7,5.8-21.3,15-25.5,27.2-1.2,3.4-1.8,6.6-2.2,9.5v4.5ZM54,240.5c2.6-6.2,7.1-13.1,14.7-19.1.8-7.9,0-16.5-2.6-25.9-.7,8.2-3.5,19.8-11.8,33.1-.1.2-.2.3-.3.5v11.3h0ZM101,248c-6.3,3.6-11.9,7.4-16.8,11.5-1.3,2.4-2.9,4.7-4.8,6.8-2.6,2.9-5.5,5.2-8.4,7-6.4,8.8-9.8,18.3-9.8,28.1s1.3,11.9,3.8,17.7c3.4,1,6,2.5,7.9,4.1-4.3-7-6.6-14.3-6.6-21.7,0-17.5,12.3-34.1,34.9-47.5-.6-.4-1-1.1-.9-1.8,0-.8.3-2.3.6-4M98.8,239.9c1.6.5,3.7,1.1,5.2,1.1s.9-.1,1-.1c.8-.4,1.4-1,1.8-1.9s.3-1.8,0-2.6c-.5-1.2-1.7-2-3.1-2s-.9.1-1.4.3c-.9.4-2.4,2.8-3.5,5.3M94.7,228.6c2,1.3,4.4,2.5,5.7,2.5h.2c.9-.1,1.7-.6,2.2-1.4.5-.7.7-1.6.6-2.5-.3-1.8-2-3.1-3.8-2.8-1,.2-3,2.1-4.8,4.2M101.5,208.8c-3.1,3.9-2.3,8.1-.2,12,0,0,.2,0,.3,0-.1-4,.8-7.7,3.9-10.8,1.8-1.8,4-3,6.5-3.5-1.2-.4-2.6-.6-3.9-.6s-4.6.5-6.5,2.9M117.1,210.1c-.5,0-1.3-.2-2.2-.2-2.8,0-5.1.9-6.9,2.8-2.7,2.6-3.2,6.2-2.6,10.5.8,1,1.3,2.1,1.5,3.4.2,1.5,0,3.1-.7,4.4,1.7.7,3.1,2,3.8,3.7.8,1.7.8,3.6.2,5.4,1.4.4,2.7,1.2,3.7,2.4.8,1,1.3,2.2,1.5,3.4,2.8,3.4,5.7,5.3,9.4,5.1,4.7-.3,7-3.7,8-5.1.2-.2.4-.5.6-.7.4-.4.9-.7,1.5-.7s.7,0,1.3.2c1,.2,2.5.5,4.3.5,4.2,0,7.9-1.5,11-4.5,5.3-5.3,7.1-14.5,4.1-20.4,0,0,0,0,0,0h0c0-.1,0-.2-.1-.3,0-.1-.1-.3-.2-.4l-3.9-8.8c0-.1-.1-.2-.2-.4,0,0,0-.1,0-.2h0c-.1-.3-.2-.5-.3-.8-2.5-6-10.1-10.4-17.4-10-8.2.5-11.7,6.3-13.2,8.8-.6,1-1.1,1.8-2.2,1.8h-.2c-.2,0-.5,0-.8,0M121.6,197.1c-1.3,1.9-2.1,3.9-2.2,6.1,2.5-3.1,6.8-6.9,14-7.4,5.6-.4,11.3,1.7,15.5,5.1-2.9-6.8-7.6-10.4-13.9-10.4s-.8,0-1.2,0c-5,.4-9.5,2.8-12.1,6.5M154.5,205.9c-.3.9-.3,1.9,0,2.8l4.4,10.1c.6,1.3,1.9,2.2,3.3,2.2s1-.1,1.5-.3c.7-.3,1.2-.8,1.6-1.5,0,0,0-.1,0-.2l-6.6-15.1c0,0,0-.1,0-.2-.2,0-.5,0-.7,0-.5,0-1,.1-1.5.3-.9.4-1.5,1.1-1.9,2M161.9,199.6c-.3.9-.3,1.9,0,2.8l6.6,15.1c.6,1.3,1.9,2.1,3.3,2.1s1-.1,1.5-.3c.9-.4,1.5-1.1,1.9-2s.3-1.9,0-2.8l-6.6-15.1c-.6-1.3-1.9-2.1-3.3-2.1s-1,.1-1.5.3c-.9.4-1.6,1.1-1.9,2M173.4,196.2c-.7.3-1.2.8-1.6,1.5,0,0,0,.1.1.2l6.6,15.1c0,0,0,.1,0,.2.2,0,.5,0,.7,0,.5,0,1-.1,1.5-.3,1.8-.8,2.6-3,1.8-4.8l-4.4-10.1c-.6-1.3-1.9-2.1-3.3-2.1s-1,.1-1.5.3M175.4,187.1c3.3-.4,6.5-1.1,9.6-2.2l-23.4-10.6c-.6,0-1.1-.1-1.6-.2,3.3,5.1,8.5,10.4,15.5,13M142.8,181.6c3.1,2,10.5,5.3,24.9,5.6-6.9-4.6-11.6-11.3-13.8-16.6-1.8-4.3-4.7-11.9-8.5-27.3-.2-.7-.3-1.4-.5-2.1l-6.8,1.4,1.4,6.7-5.8,1.2-1.4-6.7-6.6,1.4c2.2,13.2,5.7,29.2,17,36.4M131.2,138l-1.4-6.7,5.8-1.2,1.4,6.7,6.8-1.4c0-.2,0-.3,0-.5-.4-2.2-.9-4.8-1.3-7.5-2.3-14.3-5.4-33.9-18.2-39.9-4.6-2.2-8.2-3.3-15.3-3.3s-1.6,0-2.4,0h-.2c3.5,2.9,8.4,7.8,12.1,19.3,1.9,5.9,4.2,20.6,6,32.4.2,1.2.4,2.3.5,3.4l6.3-1.3h0ZM123.5,153c-.8-4-1.4-7.9-2-11.4-.2-1.1-.4-2.4-.6-3.7l-47.1-21.2-2.3,5.3-2.8,6.4,54.7,24.7h0ZM122.2,156.6l-52.9-23.9-4.1,9.2,2.3,1.1c.9.4,1.3,1.5.9,2.5l-3.6,8.1c-.4.9-1.5,1.4-2.4.9l-2.3-1.1-3.7,8.4,20.8,9.3,3.7-8.4-2.3-1.1c-.4-.2-.8-.6-1-1-.2-.5-.2-1,0-1.4l3.5-8.1c.4-.9,1.5-1.4,2.4-.9l2.3,1.1,1.1-2.4c.4-.9,1.5-1.4,2.4-.9l8,3.6c.4.2.8.6,1,1,.2.5.2,1,0,1.4l-1,2.4,2.3,1.1c.4.2.8.6,1,1,.2.5.2,1,0,1.4l-3.6,8.1c-.4.9-1.5,1.4-2.4.9l-2.3-1.1-3.7,8.4,20.8,9.3,3.7-8.4-2.3-1.1c-.9-.4-1.3-1.5-.9-2.5l3.5-8.1c.2-.4.6-.8,1-1,.5-.2,1-.2,1.4,0l2.3,1.1,4-9.2h0ZM71.2,113.4c.4-.9.4-1.9,0-2.8-.3-.9-1-1.6-1.9-2-.5-.2-.9-.3-1.4-.3-1.4,0-2.7.8-3.3,2.2l-6.6,15.1c-.4.9-.4,1.9,0,2.8.3.9,1,1.6,1.9,2,.5.2,1,.3,1.5.3,1.4,0,2.7-.9,3.3-2.2l6.6-15.1h0ZM61.3,108.9c0,0,0-.1,0-.2-.4-.6-.9-1.1-1.6-1.5-.5-.2-1-.3-1.5-.3-1.4,0-2.7.8-3.3,2.2l-4.4,10.1c-.8,1.8,0,4,1.8,4.8.5.2,1,.3,1.5.3s.5,0,.7,0c0,0,0-.1,0-.2l6.6-15.1h0ZM51.5,108.1c0,0-.2,0-.3,0-2.1,0-3.9,1.2-4.8,3.1-.9,2.1-.4,4.4,1.1,5.9,0,0,4-9,4-9ZM112.3,102.7c.4,0,.8,0,1.3,0-3-6.7-5.7-11.1-7.9-13.9-1.6-1.5-3-2.5-4.1-3.4-.2-.2-.5-.4-.7-.6-1.3,0-4.1.5-6.9,2.5-.7.5-1.4,1-2,1.4-1.9,1.4-3.4,2.6-5.3,3.3.6,0,1.2.2,1.9.2,1.7,0,3.6-.4,5.6-1.1,1.1-.4,3.8-.7,5.1-.7,1.8,0,2.2,1,2.4,1.6,0,.3.2,1.6-1.3,2.3-1.2.5-2.3,1.3-3.4,2.2-1.2.9-2.4,1.9-3.9,2.6.4,0,.9,0,1.4,0,1.9,0,4-.4,6.3-1.2,1.1-.4,3.9-.7,4.9-.7,1.7,0,2.2.9,2.4,1.6.1.7,0,1.7-1.3,2.2-1.1.5-2.2,1.4-3.2,2.3-1.3,1.1-2.8,2.5-4.8,3.3.7.2,1.4.4,2.2.4,1.8,0,3.8-.7,5.8-2.1l.2-.2c1.1-.7,2.5-1.8,5.3-2M151.5,151.7c2.3,8.2,4.1,13.1,5.4,16.4l38.3,17.3,15.5-7-59.2-26.7h0ZM192.5,151.1c-1.2,4.8-3.6,8.9-6.4,12.1l17.4,7.9c3.4-4.3,6-9.3,7.8-14.9.6-1.8,1.4-5.6,1.9-8.5-7.2.1-14.3.8-20.5,2l-.2,1.4M186.7,147.3c.9-.2,1.8-.5,2.7-.7h0c15.2-3.5,36.6-3.5,51.7,0h0c.8.2,1.6.4,2.4.7,0,0,0,0,0,0,.6-.3.9-.7,1-1,.4-.9.2-2.2,0-3-8-2.5-18.4-3.9-29.5-3.9s-21.4,1.4-29.4,3.9c-.2.9-.4,2.1,0,3.1.1.3.4.7,1,1,0,0,0,0,0,0M184.2,137.1c.4.7.8,1.5,1.1,2.2,8.2-2.5,18.7-3.8,29.8-3.8s21.6,1.4,29.9,3.8c.3-.7.7-1.5,1.1-2.2-.2.1-.5.2-.7.2-.3,0-.6,0-.9,0-1.7,0-3.1-.7-4.5-2.3-.6-.7-.6-1.8,0-2.5.2-.2.3-.5.4-.8.1-.8-.3-1.5-1-1.8-.5-.2-.9-.6-1.1-1.1-.2-.5-.1-1.1,0-1.5,0-.1.1-.3.1-.4.2-.9-.4-1.7-1.3-1.9-.9-.2-1.7.4-1.9,1.3,0,.1,0,.3,0,.5,0,.5-.1,1-.5,1.4s-.8.6-1.4.6c-.8,0-1.4.6-1.6,1.3,0,.3,0,.6,0,.8.3.8,0,1.7-.8,2.2,0,0-.1,0-.2.1-1.1.5-2.3.8-3.5.8-2.1,0-4.1-.8-5.6-2.3s-.7-1.3-.4-2c.2-.6.4-1.3.4-1.5,0-1.5-1-2.7-2.4-3-.5,0-1-.4-1.2-.9-.3-.4-.3-1-.2-1.5,0-.3.1-.6.1-.9,0-1.7-1.4-3.1-3-3.1s-3,1.4-3,3.1,0,.6.1.9c.1.5,0,1.1-.2,1.5s-.7.8-1.2.9c-1.4.3-2.4,1.5-2.4,3s.2,1,.4,1.5c.2.7,0,1.5-.4,2-1.5,1.5-3.5,2.3-5.6,2.3s-2.6-.3-3.6-.9c-.8-.4-1.2-1.4-.9-2.3,0-.3.1-.5,0-.8-.1-.8-.8-1.3-1.6-1.3s-1-.2-1.4-.6-.5-.9-.5-1.4c0-.2,0-.3,0-.5-.2-.8-1-1.4-1.9-1.3-.4,0-.8.3-1,.7s-.3.8-.2,1.2c0,.2,0,.3.1.4.2.5.3,1,0,1.5-.2.5-.6.9-1,1.1-.7.3-1.1,1-1,1.8,0,.3.2.6.4.8.6.7.6,1.8,0,2.5-1.4,1.6-2.8,2.3-4.5,2.3s-.6,0-1,0c-.2,0-.5-.1-.7-.2M177.6,115.6c1.9,5.2,4.3,10.4,7,15.6.3.2.6.5.9.9.3.4.6,1,.8,1.5,0,0,.2,0,.3-.1-.1-.3-.2-.6-.3-1-.4-1.9.3-3.8,1.7-5.1-.2-1.3.1-2.7.9-3.8.8-1.2,2-2,3.4-2.2,0,0,.2,0,.3,0,.2,0,.5,0,.7,0,2.4,0,4.6,1.7,5.1,4.1,1.7.6,3.1,2.1,3.4,4.1,0,.3,0,.5,0,.8.3,0,.5,0,.8,0,.6,0,1.4-.1,2.2-.6-.1-.5-.2-1-.2-1.5,0-2.6,1.5-5,3.7-6.1h0c0-3.9,3-6.9,6.7-6.9s6.7,3.1,6.7,6.8h0c2.2,1.2,3.7,3.6,3.7,6.2s-.1,1-.2,1.5c.8.5,1.6.6,2.2.6s.5,0,.8,0c0-.3,0-.5,0-.8.4-1.9,1.7-3.4,3.4-4.1.6-2.4,2.7-4.1,5.1-4.1s.5,0,.7,0c0,0,.2,0,.3,0,2.8.5,4.6,3.2,4.2,6,1.4,1.2,2.1,3.1,1.7,5.1,0,.3-.2.7-.3,1,.1,0,.2.1.3.1.2-.5.5-1.1.8-1.5.3-.3.6-.6.9-.9,2.7-5.2,5.1-10.4,7-15.6-5-1.4-10.8-2.5-17.2-3.2-6.4-.7-13.3-1.1-20.4-1.1s-13.9.4-20.3,1.1c-6.4.7-12.3,1.8-17.2,3.2M171.5,104.3c1.3,2.5,2.6,5.4,3.5,8.1,10.4-3.1,24.8-4.9,40.1-4.9s29.7,1.8,40.1,4.9c.9-2.7,2.3-5.6,3.6-8.1-.6.1-1.5.4-1.9,1-.3.4-.7,1.5-.9,2.2-.2.7-.8,1.2-1.5,1.3-2.9.4-5.6-.6-7.4-2.7-.6-.7-.6-1.8,0-2.5.3-.3.5-.8.6-1.2.2-1.2-.4-2.4-1.5-2.8-.5-.2-.9-.6-1-1.1-.2-.5-.1-1,0-1.5.1-.2.2-.5.2-.7.1-.7,0-1.3-.4-1.9-.4-.6-.9-.9-1.6-1.1-1.4-.3-2.7.7-2.9,2,0,.2,0,.5,0,.7,0,.5-.1,1-.5,1.4-.4.4-.8.6-1.4.6-1.2,0-2.2.9-2.4,2.1,0,.4,0,.9,0,1.3.3.9-.1,1.9-1,2.3-1.3.6-2.8,1-4.3,1-2.6,0-5-1-6.8-2.8-.6-.6-.7-1.4-.4-2.2.3-.6.4-1.2.4-1.9,0-2.1-1.5-3.9-3.5-4.3-.5,0-.9-.4-1.2-.9-.3-.4-.3-1-.2-1.5.1-.4.2-.8.2-1.2,0-2.4-1.9-4.4-4.3-4.4s-4.3,2-4.3,4.4,0,.8.2,1.2c.1.5,0,1.1-.2,1.5-.3.4-.7.8-1.2.9-2,.4-3.5,2.2-3.5,4.3s.1,1.2.4,1.8c.2.3.2.6.2.9,0,.5-.2,1-.6,1.4-1.8,1.8-4.2,2.8-6.7,2.8s-3.1-.4-4.4-1c-.8-.4-1.2-1.4-.9-2.3.1-.4.2-.8,0-1.3-.2-1.2-1.2-2.1-2.4-2.1-.5,0-1-.2-1.4-.6-.4-.4-.5-.9-.5-1.4,0-.2,0-.5,0-.7-.3-1.3-1.6-2.3-2.9-2-.7.1-1.2.5-1.6,1.1s-.5,1.2-.4,1.9c0,.2.1.5.2.7.2.5.3,1,0,1.5-.2.5-.6.9-1,1.1-1.1.4-1.8,1.6-1.5,2.8,0,.5.3.9.6,1.2.7.7.6,1.9,0,2.6-1.6,1.8-3.7,2.7-6.1,2.7s-.9,0-1.3,0c-.7,0-1.3-.6-1.5-1.3-.2-.6-.6-1.8-.9-2.2-.5-.6-1.3-.9-1.9-1M203.8,77.1c-12.5.5-24.4,1.8-34.3,3.8.5,6,1.6,12.8,3.4,20,1.1.3,2.4,1,3.4,2.2.5.6.9,1.4,1.1,2.2.8,0,1.4-.3,2.1-.6-.2-.4-.4-.9-.4-1.4-.4-2.3.5-4.7,2.3-6.1h0c-.3-1.7,0-3.3,1-4.7.9-1.4,2.3-2.3,4-2.6.4,0,.8-.1,1.2-.1,3,0,5.5,2.2,6.1,5.1h0c2.2.7,3.9,2.5,4.3,4.8,0,.2,0,.4,0,.6,0,.2,0,.5,0,.7.5.1,1,.2,1.5.2.9,0,2.1-.2,3.3-1-.2-.7-.3-1.4-.3-2.2,0-3.2,1.9-6.1,4.7-7.4,0-.2,0-.3,0-.5,0-4.5,3.6-8.1,8-8.1s8,3.6,8,8.1,0,.3,0,.5c2.8,1.3,4.7,4.2,4.7,7.4s-.1,1.5-.3,2.2c1.2.8,2.4,1,3.3,1s1,0,1.5-.2c0-.2,0-.5,0-.7,0-.2,0-.4,0-.6.4-2.3,2.1-4.2,4.3-4.8h0c.6-3,3.1-5.1,6.1-5.1s.8,0,1.2.1c1.6.3,3,1.2,4,2.6.9,1.4,1.3,3.1,1,4.7,1.8,1.4,2.7,3.8,2.2,6.1-.1.5-.2,1-.4,1.4.6.4,1.3.6,2.1.6.3-.7.7-1.6,1.1-2.2,1-1.2,2.3-1.9,3.4-2.2,1.8-7.2,3-14,3.5-20-9.8-2.1-21.8-3.3-34.3-3.8-7.5-.3-15.2-.3-22.8,0M167.7,77.4c26.7-5.9,68.2-5.9,94.9,0,.5-3.4,1.5-6.8,2.6-9.7-.5.2-1,.6-1.3,1.2-.5,1.1-1.7,3.5-1.7,3.5-.2.5-.7.9-1.3,1-3,.7-4.8,0-7.4-2.4-.7-.7-.8-1.7-.2-2.5.4-.5.6-1.1.7-1.7.2-1.6-.8-3.2-2.4-3.7-.5-.2-.9-.5-1.1-1-.2-.5-.2-1,0-1.5.1-.3.2-.6.2-1,.2-1.9-1.1-3.6-3-3.8-1.9-.2-3.5,1.2-3.7,3,0,.3,0,.7,0,1,0,.5,0,1-.4,1.5-.3.4-.8.7-1.3.7-1.6.1-2.9,1.4-3.1,3,0,.6,0,1.1.2,1.7.1.2.2.5.2.8,0,.8-.5,1.5-1.2,1.7-3.9,1.7-9.6,1.5-12.6-2.4-.5-.6-.5-1.5-.1-2.1.3-.7.5-1.5.5-2.3,0-2.7-1.9-5-4.5-5.5-.5,0-.9-.4-1.2-.9-.3-.5-.3-1-.2-1.5.1-.5.2-1.1.2-1.6,0-3.1-2.5-5.6-5.6-5.6s-4.2,1.4-5.1,3.4c-.3.7-.5,1.4-.5,2.2s0,1.1.2,1.6c0,.3.1.6,0,.9,0,.2-.1.4-.2.6-.3.5-.7.8-1.2.9-2.1.4-3.8,2.1-4.3,4.1-.1.5-.2.9-.2,1.4,0,.8.2,1.7.6,2.4.3.6.3,1.4-.2,2-3,3.9-8.7,4.1-12.6,2.4-.1,0-.2-.1-.3-.2-.7-.5-1-1.4-.7-2.3.2-.5.3-1.1.2-1.7-.2-1.6-1.5-2.9-3.1-3-.5,0-1-.3-1.3-.7-.3-.4-.4-1-.4-1.5,0-.3,0-.7,0-1-.2-1.9-1.9-3.2-3.7-3s-3.2,1.9-3,3.8c0,.3.1.6.2,1,.2.5.2,1,0,1.5s-.6.8-1.1,1c-1.5.5-2.5,2-2.4,3.7,0,.6.3,1.2.7,1.7.6.8.5,1.8-.2,2.5-2.5,2.5-4.4,3.1-7.4,2.4-.6-.1-1-.5-1.3-1,0,0-1.1-2.4-1.7-3.5-.3-.6-.8-1-1.3-1.2,1.1,2.9,2.1,6.3,2.6,9.7M170.4,62c-.4,1.4-.7,3-.9,4.9,0,.1.1.2.2.4.3.7.9,1.8,1.3,2.6.7,0,1.3,0,2.1-.7-.3-.7-.5-1.4-.5-2.1-.3-2.8,1-5.5,3.3-6.9,0,0,0-.2,0-.2-.4-3.9,2.4-7.5,6.3-7.9,3.9-.4,7.4,2.4,7.8,6.3,0,0,0,.2,0,.2,2.5.9,4.4,3.2,4.7,6,0,.5,0,1.1,0,1.6,1.9.4,4.4.3,6.1-1-.3-.9-.4-1.9-.4-2.9s.1-1.6.3-2.4c.7-2.8,2.7-5.2,5.4-6.3,0-.3,0-.5,0-.8,0-1.3.3-2.6.8-3.7,1-2.4,3-4.2,5.4-5.1,1-.3,2-.5,3.1-.5s2.1.2,3.1.5c3.6,1.3,6.2,4.8,6.2,8.8s0,.5,0,.8c3.4,1.4,5.7,4.8,5.7,8.7s-.1,2-.4,2.9c1.6,1.3,4.2,1.4,6.1,1,0-.5,0-1.1,0-1.6.3-2.8,2.2-5.1,4.7-6,0,0,0-.2,0-.2.4-3.9,3.9-6.8,7.8-6.3s6.7,4,6.2,7.9c0,0,0,.2,0,.2,2.3,1.4,3.6,4.1,3.3,6.9,0,.7-.3,1.4-.5,2.1.8.6,1.4.8,2.1.7.4-.8.9-1.9,1.3-2.6,0-.1.1-.2.2-.4-.2-1.8-.5-3.5-.9-4.9-3.8-14-18.9-28-44.3-28.2h-.9c-25.4.2-40.5,14.2-44.3,28.2M215.1,19.7c-2.7,0-4.9,2.2-4.9,5s2.2,5,4.9,5,4.9-2.2,4.9-5-2.2-5-4.9-5M244.4,163.1c-2.8-3.3-5.1-7.3-6.3-12.1v-.2s-.2-1.1-.2-1.1c-6.2-1.2-13.3-1.9-20.5-2,.5,2.8,1.3,6.6,1.9,8.4,1.8,5.5,4.4,10.5,7.7,14.8l17.4-7.9M223.5,172.6c-3.3-4.5-6-9.6-7.8-15.2-.1-.4-.3-.9-.4-1.4-.1.6-.3,1.1-.4,1.4-1.8,5.7-4.5,10.8-7.8,15.3l8.1,3.6,8.3-3.8h0ZM195.4,189.3l5.1,11.7,73.3-33.1c1.3-3.3,3.1-8.3,5.4-16.4l-83.8,37.8h0ZM285.1,143.4c-3.8,15.5-6.7,23-8.5,27.3-2.2,5.2-6.9,12-13.8,16.6,14.4-.3,21.7-3.6,24.9-5.6,11.3-7.2,14.8-23.2,17-36.4l-6.6-1.4-1.4,6.7-5.8-1.2,1.4-6.7-6.8-1.4c-.2.7-.3,1.4-.5,2.1M286.9,135.1c0,.1,0,.2,0,.3l6.8,1.4,1.4-6.7,5.8,1.2-1.4,6.7,6.3,1.3c.2-1.1.3-2.2.5-3.4,1.8-11.8,4.1-26.5,6-32.4,3.7-11.5,8.6-16.4,12.1-19.3h-.2c-.8,0-1.6,0-2.4,0-7.1,0-10.8,1.1-15.3,3.3-12.7,6.1-15.9,25.6-18.2,39.9-.4,2.7-.8,5.3-1.3,7.5v.2M329,85.3c-.8.7-1.9,1.4-3,2.4-2.3,2.7-5.4,7.4-8.7,14.9.4,0,.9,0,1.3,0,2.8.2,4.3,1.2,5.3,2l.2.2c2,1.4,4,2.1,5.8,2.1s1.6-.2,2.2-.4c-2-.8-3.5-2.1-4.8-3.3-1.1-1-2.1-1.9-3.2-2.3-1.1-.5-1.4-1.5-1.3-2.2.1-.7.7-1.6,2.4-1.6s3.8.3,5,.7c2.3.8,4.4,1.2,6.3,1.2h0c.5,0,1,0,1.4,0-1.5-.8-2.7-1.7-3.9-2.6-1.1-.9-2.2-1.7-3.4-2.2-1.6-.7-1.4-2-1.3-2.3.1-.6.6-1.6,2.4-1.6s4,.3,5.1.7c2,.7,3.9,1.1,5.6,1.1s1.3,0,1.9-.2c-1.9-.7-3.4-1.9-5.3-3.3-.6-.4-1.2-.9-2-1.4-3.1-2.2-6-2.5-7.2-2.5-.2.2-.5.4-.7.6M309.7,137.7c-.2,1.4-.4,2.6-.6,3.8-.5,3.5-1.2,7.4-2,11.3l54.4-24.6-.2-.5-4.9-11.2-46.7,21.1h0ZM359,110.6c-.3.9-.3,1.9,0,2.8l6.6,15.1c.6,1.3,1.9,2.2,3.3,2.2s1-.1,1.5-.3c.9-.4,1.5-1.1,1.9-2,.3-.9.3-1.9,0-2.8l-6.6-15.1c-.6-1.3-1.9-2.2-3.3-2.2s-1,0-1.5.3c-.9.4-1.5,1.1-1.9,2M370.5,107.3c-.7.3-1.2.8-1.6,1.5,0,0,0,.1.1.2l6.6,15.1c0,0,0,.1,0,.2.2,0,.5,0,.7,0,.5,0,1-.1,1.5-.3,1.8-.8,2.6-3,1.8-4.8l-4.4-10.1c-.6-1.3-1.9-2.2-3.3-2.2s-1,0-1.5.3M379.1,108.1c-.1,0-.2,0-.3,0l4,9c1.5-1.5,2-3.8,1.1-5.9-.8-1.9-2.7-3.1-4.8-3.1M361.7,145.5c-.4-.9,0-2.1.9-2.5l2.3-1.1-4-9.2-52.9,23.9,4,9.2,2.3-1.1c.5-.2,1-.2,1.4,0,.5.2.8.5,1,1l3.5,8.1c.4.9,0,2.1-.9,2.5l-2.3,1.1,3.7,8.4,20.8-9.3-3.7-8.4-2.3,1.1c-.9.4-2,0-2.4-.9l-3.6-8.1c-.2-.4-.2-1,0-1.4.2-.5.5-.8,1-1l2.3-1.1-1-2.4c-.2-.4-.2-1,0-1.4.2-.5.5-.8,1-1l8-3.6c.9-.4,2,0,2.4.9l1.1,2.4,2.3-1.1c.9-.4,2,0,2.4.9l3.5,8.1c.2.4.2,1,0,1.4-.2.5-.5.8-1,1l-2.3,1.1,3.7,8.4,20.8-9.3-3.7-8.4-2.3,1.1c-.9.4-2,0-2.4-.9l-3.6-8.1h0ZM255.2,187.1c7-2.7,12.2-8,15.5-13-.6.1-1.3.2-2,.2l-23.2,10.5c3.1,1.2,6.4,1.9,9.7,2.3M247.7,208.1c-.8,1.8,0,4,1.8,4.8.5.2.9.3,1.5.3s.5,0,.7,0c0,0,0-.1,0-.2l6.6-15.1c0,0,0-.1.1-.2-.4-.6-.9-1.1-1.6-1.5-.5-.2-1-.3-1.4-.3-1.4,0-2.7.9-3.3,2.1l-4.4,10.1h0ZM255.1,214.5c-.4.9-.4,1.9,0,2.8.3.9,1,1.6,1.9,2,.5.2,1,.3,1.5.3,1.4,0,2.7-.8,3.3-2.1l6.6-15.1c.4-.9.4-1.9,0-2.8-.3-.9-1-1.6-1.9-2-.5-.2-1-.3-1.5-.3-1.4,0-2.7.9-3.3,2.1l-6.6,15.1h0ZM265,218.9c0,0,0,.1-.1.2.4.6.9,1.2,1.6,1.5.5.2,1,.3,1.5.3,1.4,0,2.7-.9,3.3-2.2l4.4-10.1c.4-.9.4-1.9,0-2.8-.3-.9-1-1.6-1.9-2-.5-.2-1-.3-1.5-.3s-.5,0-.7,0c0,0,0,.1,0,.2l-6.6,15.1h0ZM275,219.6c0,.1,0,.3-.2.4,0,0,0,.2-.1.2h0s0,0,0,0c-3.1,5.9-1.3,15.1,4,20.4,3,3,6.7,4.5,11,4.5s3.3-.3,4.3-.5c.6-.1,1-.2,1.3-.2.6,0,1.2.3,1.5.7.2.2.4.5.6.7,1,1.4,3.3,4.8,8,5.1,3.7.2,6.7-1.7,9.5-5.1.2-1.2.7-2.4,1.5-3.4,1-1.2,2.3-2,3.7-2.4-.6-1.8-.6-3.7.2-5.4.8-1.7,2.1-3,3.8-3.7-.7-1.4-1-2.9-.7-4.4.2-1.3.8-2.5,1.5-3.4.6-4.3,0-7.9-2.6-10.5-1.8-1.8-4.2-2.8-6.9-2.8s-1.6.1-2.2.2c-.3,0-.6,0-.8,0h-.2c-1.1,0-1.6-.8-2.2-1.8-1.5-2.5-5.1-8.3-13.2-8.8-7.4-.5-14.9,4-17.4,9.9,0,.2-.2.5-.3.7h0c0,.1,0,.2,0,.3,0,.1-.1.2-.2.4l-3.9,8.8h0ZM296.5,190.6c-6.8-.5-12,3.1-15.1,10.4,3.9-3.2,9.1-5.2,14.2-5.2s.9,0,1.3,0c7.1.5,11.5,4.3,14,7.4-.2-2.2-.9-4.3-2.2-6.1-2.6-3.7-7.1-6.1-12.1-6.5M322.4,205.9c-1.4,0-2.7.2-4,.6,2.5.5,4.6,1.7,6.5,3.5,3.1,3,4,6.8,3.9,10.8.1,0,.2,0,.3,0,2.1-3.9,2.8-8-.2-12-1.9-2.4-4.6-2.9-6.5-2.9M335.6,228.6c-1.7-2.1-3.8-4.1-4.8-4.2-.2,0-.4,0-.5,0-1.6,0-3.1,1.2-3.3,2.9-.1.9,0,1.8.6,2.5.5.7,1.3,1.2,2.2,1.4h.2c1.3,0,3.7-1.3,5.7-2.5M326.3,240.9c1.5,0,3.6-.6,5.2-1.1-1.1-2.5-2.6-4.9-3.5-5.3-.4-.2-.9-.3-1.4-.3-1.3,0-2.5.8-3.1,2-.4.8-.4,1.8,0,2.6s1,1.5,1.8,1.9c0,0,.4.1,1,.1M346.1,259.5c-4.9-4.1-10.5-7.9-16.8-11.5.4,1.7.6,3.2.6,4,0,.8-.3,1.5-.9,1.8,22.6,13.4,34.9,30,34.9,47.5s-2.2,14.8-6.6,21.7c2-1.6,4.6-3,8-4.1,2.5-5.7,3.8-11.6,3.8-17.7,0-9.8-3.4-19.2-9.8-28.1-2.9-1.8-5.8-4.1-8.4-7-1.9-2.1-3.4-4.3-4.8-6.8M366.4,257.4c-11.3-4.8-18.1-12.1-21.7-17.3.5,9.6,3.5,17.5,9,23.6,7.2,8.1,17.1,11.1,22.7,12.1v-11.5c-2-2.5-5.1-4.9-10-7M348.7,217.9c3.4,4.7,7.4,12.4,9.8,24.3.7,3.5,2,6.5,3.7,9,1.7,1,3.6,1.9,5.6,2.8,3.6,1.5,6.4,3.3,8.6,5.1v-4.5c-.4-2.9-1-6.2-2.2-9.6-4.2-12.2-12.7-21.3-25.4-27.1M364.3,195.6c-2.6,9.3-3.5,18-2.6,25.9,7.6,6,12,12.9,14.7,19.1v-11.3c-.1-.2-.2-.3-.3-.5-8.2-13.3-11-24.9-11.8-33.1M376.6,284.5c-.2-.3-.3-.6-.3-1v-3.8c-2.7-.5-6.4-1.4-10.5-3,4.5,7.9,6.9,16.2,6.9,24.7s-1,11.2-3.1,16.6c1-.2,2.1-.3,3.2-.4,21.6-1.8,31.2-5.7,31.3-5.8.8-.3,1.6,0,2.2.6,0,0,0,0,0,0,5.2-4.7,7.9-9.7,9.2-13.6,1.7-4.9,1.9-9.5,1.4-13.2-.2-1.8-.6-3.3-1.1-4.5-1.2-3.2-4.1-6.6-7.8-9.2v13.3c0,.5,0,.8,0,.8h0c-.5,4.1-4.2,11.7-15.1,11.7s-15.1-6.4-16.3-13.2M400.2,276.8c1.8.6,3.1,1.3,4.2,2.1v-9c-3.1-1.2-6.4-1.9-9.5-2v8.2c1.4-.1,3.2,0,5.3.7M392,279.9c-.5-.4-.8-.9-.8-1.5v-10.1c-.5.1-1.1.3-1.6.4-3,1.1-9.8,4.6-9.6,12.8.1,6.2,4.2,12.5,13,12.5s11.3-7.3,11.5-8.3v-.5c-.1-.9-.8-3.4-5.3-4.9-3.1-1-5.3-.3-5.4-.2-.6.2-1.2.1-1.7-.2M380,270.9c2-2.5,4.9-4.4,8.4-5.7,1-.4,2.2-.7,3.5-.8,4.9-.9,10.1,0,15.2,2.6l1.1.5h0c3.7,2.2,6.9,5.1,9,8.2v-49.1c-1.5-2.1-8.6-10.6-18.6-10.6s-16.6,5.5-18.5,7.2v47.8h0ZM382.4,187.6c-3.6,10-3.5,18.9.4,26.7.3.6.6,1.2,1,1.8,1.7-.9,3.7-1.8,5.9-2.5-.8-2.9-1.3-6.7-.9-11.5-3.4-6.5-5.3-11.2-6.3-14.4M393.9,193.3c-2.1,9.1-1.7,15.3-.6,19.4,1.6-.3,3.4-.5,5.3-.5s1.8,0,2.7.2c.5-2.9,1.4-6.1,3-9.7,1.4-3.1,2.7-6.1,3.8-8.8.3-14-5.5-28.2-10.8-38.1.7,8.1.5,20.8-3.4,37.4M417.6,177.6c-1.5,5.7-4.5,14.6-9.9,26.6-1.5,3.3-2.4,6.3-2.8,8.9,4,1.2,7.3,3.4,9.9,5.5.5-.8.9-1.6,1.3-2.5,5.5-11.9,4.3-26.5,1.5-38.5M319.2,244.9c-1.2,1.5-.9,3.6.5,4.8.5.4,2,.8,4.9.8s.9,0,1.4,0c-.5-2.7-1.3-5.4-2.1-6.1-.6-.5-1.3-.8-2.1-.8s-2,.5-2.6,1.3M315.7,250.6c-2.9,2.7-6.2,4.6-10.5,4.3-3-.2-5.2-1.3-6.9-2.5.5,1.1,1.2,2.2,2,3.2,1.3,1.5,3.5,3.3,6.7,3.1,4.9-.3,7.5-3.7,8.9-7.9,0,0-.1-.2-.1-.2M160.8,228.2c-.3,5.5-2.6,11.2-6.6,15.1-3.8,3.7-8.3,5.6-13.6,5.6s-.8,0-1.2,0c2.1,1.6,4.7,2.5,7.5,2.5,4.1,0,8.2-1.8,11.4-4.9,5-4.8,5.8-11.2,2.5-18.3M276.1,243.3c-4-3.9-6.3-9.6-6.6-15.1-3.3,7.1-2.5,13.4,2.5,18.3,3.2,3.1,7.3,4.9,11.4,4.9s5.4-.9,7.5-2.5c-.4,0-.8,0-1.2,0-5.2,0-9.8-1.9-13.6-5.6M262.5,222.1h0s0,0,0,0c0,0,0,0,0,0M234.8,198.8l-2.1,4.7c.9,2.2,2.5,3.9,4.6,4.8,1.9.9,4,1,6,.5l1-2.2h0s2-4.6,2-4.6l3.4-7.6c-.9-1.9-2.5-3.3-4.4-4.2-2.1-.9-4.5-1-6.6-.3l-3.9,8.9h0ZM234.8,189.6l-15.1,6.8,10.1,4.6,5-11.4h0ZM186,206.6h0s1,2.2,1,2.2c2,.5,4.1.4,6-.5,2.1-1,3.8-2.6,4.6-4.8l-1.1-2.4-4.9-11.2c-2.2-.8-4.5-.7-6.6.3-1.9.9-3.4,2.3-4.4,4.2l1.3,3,4.1,9.3h0ZM186,212.4c-.7,1.7-2,3.1-3.7,3.9-.9.4-1.9.6-3,.6s-.1,0-.2,0c0,.6-.2,1.1-.4,1.6-.3.8-.7,1.5-1.2,2.1,12.2-1.5,24.8-2.3,37.7-2.3s25.5.8,37.7,2.3c-.5-.6-.9-1.3-1.2-2.1-.2-.5-.3-1.1-.4-1.6,0,0-.1,0-.2,0-1,0-2-.2-2.9-.6-1.8-.8-3-2.2-3.7-3.9-1.1.3-2.1.4-3.2.4-1.8,0-3.5-.4-5.2-1.1-3-1.3-5.3-3.8-6.6-6.9l-14.2-6.4-14.2,6.4c-1.2,3.1-3.6,5.6-6.6,6.9-1.6.7-3.4,1.1-5.2,1.1s-2.2-.1-3.2-.4M167.8,222.1h0s0,0,0,0c0,0,0,0,0,0M215.1,222.1c-17.7,0-34.9,1.5-51.1,4.4.8,1.8,1.4,3.4,1.8,5,15.6-2.8,32.2-4.2,49.3-4.2s33.7,1.4,49.3,4.2c.4-1.6,1-3.2,1.8-5-16.2-2.9-33.4-4.4-51.1-4.4M104.3,250.5c.4,0,.9,0,1.3,0,2.9,0,4.5-.4,4.9-.8,1.4-1.2,1.7-3.3.5-4.8-.6-.8-1.6-1.3-2.6-1.3s-1.5.3-2.1.8c-.8.6-1.6,3.4-2.1,6.1M125.1,254.9c-4.3.3-7.7-1.5-10.5-4.3,0,0,0,.2-.2.2,1.5,4.2,4,7.5,8.9,7.9.2,0,.3,0,.5,0h0c2.9,0,4.9-1.7,6.1-3.1.9-1,1.5-2.1,2-3.2-1.7,1.3-4,2.4-6.9,2.5M129.1,357.7c-.2-.4-.4-.8-.6-1.2-.2-.3-.5-.7-.8-1-.9-1-2.2-1.9-3.8-2.5-.3,0-1.2-.2-2.5-.2s-2.2,0-3.6.3c3.6,1.6,7.3,3.1,11.2,4.5M171.8,368.4c-2.3-3.8-5.8-6-9-7.5-3.8-1.8-6.2-2.3-6.6-2.3-1.1-.1-2.1,0-2.9,0-2.5.5-4.3,2-5.5,3.4-.4.4-.7.9-.9,1.2,7.9,2.1,16.2,3.8,24.9,5.1M283.3,363.3c-.2-.4-.5-.8-.9-1.2-1.1-1.4-2.9-2.9-5.5-3.4-.9-.2-1.9-.2-2.9,0-.3,0-2.8.5-6.6,2.3-3.2,1.5-6.7,3.7-9,7.5,8.6-1.3,16.9-3,24.9-5.1M312.4,353.2c-1.3-.2-2.6-.3-3.6-.3s-2.2.1-2.5.2c-1.6.6-2.9,1.5-3.8,2.5-.3.3-.5.6-.7,1-.2.4-.5.8-.6,1.2,3.9-1.4,7.6-2.9,11.2-4.5M305.5,349.4c6.1-2.5,24.6-10,36.7-20.1,1.2-1,3.8-2.1,6.6-2.1s.7,0,1.1,0c6.8-8.2,10.4-16.9,10.4-25.8,0-17.4-13.6-34.1-38.3-47.2-1.2-.1-2.2-.4-3-.7-1.9,4.4-5.2,8.6-11.6,9-.3,0-.5,0-.8,0-3.4,0-6.5-1.5-8.9-4.4-1.6-2-2.9-4.4-3.5-6.9-2.9,2.6-6.5,4-10.6,4s-10.1-2.2-13.9-5.9c-2.3-2.3-6-7-5.5-14.1-15.4-2.7-31.9-4.1-48.7-4.1s-33.3,1.4-48.7,4.1c.4,7.1-3.2,11.8-5.6,14.1-3.9,3.8-8.9,5.9-13.9,5.9s-7.7-1.4-10.6-4c-.6,2.4-1.9,4.9-3.5,6.9-2.5,2.9-5.6,4.4-8.9,4.4h0c-.2,0-.5,0-.8,0-6.4-.4-9.8-4.6-11.6-9-.8.3-1.8.6-3.1.7-24.8,13.2-38.3,29.9-38.3,47.2s3.6,17.7,10.4,25.8c.4,0,.7,0,1.1,0,2.8,0,5.3,1,6.6,2.1,12.1,10.1,30.6,17.7,36.7,20.1h.2c0,.1.2.1.3.2,4.6,1.8,7.6,5.4,7.9,9.6,3.3,1.1,6.7,2.2,10.1,3.1,1.9-3.6,6.3-8.2,13.4-7.4h0c2.6.4,10.9,1.9,13.5,2.5l.9.2c10.7,2.2,22.9,4.6,43.8,4.6h.2c20.9,0,33.1-2.5,43.8-4.6l.9-.2c2.6-.5,10.8-2.1,13.5-2.5h0c7.2-.8,11.6,3.8,13.4,7.4,3.5-1,6.8-2,10.1-3.1.3-4.2,3.3-7.9,8-9.6h.3M380.9,332.4c6.5-2.9,12.9-8,18.9-15.3-5.1,1.4-13.8,3.1-26.6,4.2-9.9.8-14.7,5.1-16.8,8.1,2.5,1.2,4.6,2.6,6.4,4,2.9-.9,6.6-1.5,11.5-1.5s4.4.1,6.8.4M430.2,334.5c.3.8,0,1.7-.6,2.2-13.9,10-27.4,15.6-40.2,16.6,5.3,4.1,10.5,10.4,14.6,20.3.2.3.2.6.2.9,0,1-.8,1.9-1.9,1.9h0c-.5,0-.9-.2-1.3-.5-.1-.1-4.5-4-22.1-8-3.3-.8-6-1.9-8.2-3.2-1.7,1.7-6.4,6.1-16.5,12.3-16.8,10.2-25.5,12.7-26.3,12.9-1.5.6-3,.9-4.4.9s-2.7-.3-3.9-.9c-3.2-1.5-4.8-4.5-5.6-6.9-2.5-7.2,1.5-11.3,1.7-11.5.2-.2.4-.3.6-.4,4.5-1.8,7.3-3,11.6-5.2-.3-.6-.5-1.1-.9-1.8-.6-1.1-1.2-2.1-1.9-3,0,0-.1,0-.2.1-2.7,1.4-5.5,2.7-8.4,4-5.1,8.7-11,14.5-17.1,18.2,1.9.9,3.8,1.9,5.7,3.1,10.2,6.6,21.6,7.3,26,7.3s2.5,0,2.5,0c1,0,1.9.6,2,1.6.1,1-.5,1.9-1.5,2.1-13.1,2.6-25,4-35.4,4s-2.8,0-4.1,0c4.6,6.4,7.3,13.9,8,22.3,0,.1,0,.3,0,.4,0,1-.8,1.9-1.8,1.9h0c-.7,0-1.4-.4-1.7-1.1,0-.1-3.5-7.4-17.5-13.6-4.7-2.1-8.6-4.4-11.9-6.6-6.4,1.9-14.6,4-28.7,4s-8.5-4.1-11.2-7.6c-.2,6.9.9,12.4,3.3,16.4,3.7.1,5.3-.4,7.4-.9.8-.2,1.6-.5,2.6-.7.2,0,.3,0,.5,0,.5,0,4.9.4,7.5,3,2.8,3,2.8,6.8,0,9.6,0,0,0,0,0,0,0,0-.1.1-.2.2,0,0,0,0,0,0,0,0-.1,0-.2,0s-.1,0-.1,0c-.1,0-3.8,1.5-9.1,1.5s-8.7-1-12.7-3c-7.5-3.7-11.5-9.5-13.5-13.7-2,4.2-6,10-13.5,13.7-4,2-8.3,3-12.7,3s-9-1.4-9.1-1.5h0s0,0-.1,0c0,0-.1,0-.2-.1,0,0,0,0,0,0,0,0-.1-.1-.2-.2,0,0,0,0,0,0-2.8-2.8-2.8-6.6,0-9.6,2.5-2.7,7-3,7.5-3,.2,0,.3,0,.5,0,1,.2,1.8.5,2.6.7,2.1.6,3.7,1,7.4.9,2.4-4,3.5-9.5,3.3-16.4-2.7,3.5-6.8,7.6-11.2,7.6-14.2,0-22.4-2.1-28.8-4-3.3,2.3-7.3,4.5-12,6.6-14,6.3-17.4,13.6-17.5,13.6-.3.7-1,1.1-1.7,1.1s-.3,0-.5,0c-.9-.2-1.4-1-1.4-2,.7-8.5,3.4-16.1,8-22.6-1.3,0-2.7,0-4.1,0h0c-10.4,0-22.3-1.3-35.4-4-1-.2-1.6-1.1-1.5-2.1.1-1,1-1.7,2-1.6,0,0,.9,0,2.5,0,4.4,0,15.8-.7,26-7.3,2-1.3,4.1-2.4,6.1-3.4-6.1-3.7-12.1-9.4-17.3-18-2.9-1.3-5.7-2.6-8.5-4,0,0-.1,0-.2-.1-.7.9-1.3,1.9-1.9,3-.3.6-.6,1.2-.9,1.8,4.3,2.2,7.2,3.4,11.6,5.2.2,0,.4.2.6.4.2.2,4.2,4.2,1.7,11.5-.8,2.3-2.4,5.3-5.6,6.9-1.2.6-2.5.9-3.9.9s-2.8-.3-4.4-.9c-.8-.2-9.5-2.7-26.3-12.9-10.2-6.2-14.9-10.5-16.5-12.3-2.2,1.3-4.9,2.4-8.2,3.2-17.8,4.1-22.1,8-22.1,8-.4.4-.8.5-1.3.5s-.7-.1-1-.3c-.7-.5-1-1.5-.7-2.3,4.1-10,9.3-16.4,14.7-20.5-12.8-1-26.3-6.6-40.2-16.6-.7-.5-.9-1.4-.6-2.2.3-.8,1.1-1.3,1.9-1.2,0,0,7,.8,18,.8h0c7.5,0,15.1-.4,22.6-1-5.5-3.5-10.4-8.1-14.3-12.8-10.5-6.3-15.1-14.4-17.1-20.2-1.6-4.5-2.1-9.4-1.7-13.9,0-.1,0-.3,0-.4v-59.9c0-.4.1-.7.3-1.1.1-.2,1.2-1.7,3-3.6-.6-1-1.2-2.1-1.7-3.2-7.4-15.6-4-35.1,0-48.8.2-.9,1.1-1.4,1.9-1.3.9,0,1.6.8,1.7,1.6,0,0,.7,5.5,4.3,15.8,1.5-12.5,6.8-25.9,15.9-40,.5-.8,1.5-1.1,2.3-.7.8.4,1.3,1.4,1,2.2,0,.2-4.8,17,1.8,45.4.2,1.1.5,2.1.7,3.1,4.8-10.1,4.8-13.9,4.8-14,0-.9.5-1.7,1.4-1.9.8-.2,1.8.2,2.1,1,8.2,17.4,5.2,29.7.7,37.3,2.3,1.6,3.7,3,3.8,3.1.2.2.4.5.5.9,5.7-10.7,7.7-19.8,8.4-25.9.8-7.6-.3-12.2-.3-12.3-.2-.9.3-1.9,1.2-2.2.9-.3,1.9.2,2.3,1.1,4.1,10.1,7.8,23.1,7.1,36.1,4.2-2.7,9.2-5.2,15.1-7.1.9-.3,1.8.1,2.2.9.4.8.2,1.8-.6,2.4,0,0-2.4,1.8-5.4,6.1-2.7,4-6.4,11.1-8.6,21.9-.3,1.4-.7,2.7-1.1,3.9,8.3-6.8,11.4-14.2,11.4-14.3.3-.8,1.2-1.3,2-1.1.8.1,1.5.9,1.5,1.7.4,7.1-.3,13.6-2.1,19.3,4-2.9,8.3-5.6,13-8.3-2.4-.6-4.5-1.4-4.6-1.4-.9-.4-1.4-1.4-1.1-2.4.4-1.1,1.5-3.8,3-6-2.9-1.1-5.9-3.2-6.6-3.7-.8-.6-1-1.8-.4-2.6.9-1.3,3.9-5.2,6.8-6.7-2-4.4-2.8-9.6,1.2-14.8,2.2-2.8,5.5-4.4,9.4-4.4s5.4.7,7.7,1.9c0-3.3,1-6.4,2.9-9.1,3.2-4.6,8.8-7.6,14.9-8.1.5,0,1,0,1.5,0,8.4,0,14.8,5.3,18.1,14.9.6-.5,1.2-.9,1.9-1.2.9-.4,1.9-.6,2.9-.6s.1,0,.2,0c0-.6.2-1.1.4-1.6.7-1.8,2.1-3.3,3.8-4.1.9-.4,1.9-.6,3-.6,1.5,0,2.9.5,4.1,1.3.7-.8,1.6-1.5,2.6-2,.9-.4,1.9-.6,2.9-.6s1.6.2,2.4.4c.4-.8.9-1.5,1.4-2.2-1.4.2-2.9.4-4.4.5h-.1c-.1,0-.2,0-.3,0-1,0-2.4,0-4.1,0-7.2,0-20.5-.8-29-6.2-8.7-5.5-13.2-15.2-15.9-25.3l-4.2,9.4c-.2.4-.6.8-1,1-.5.2-1,.2-1.4,0l-2.3-1.1-2.1,4.6,2.3,1.1c.9.4,1.3,1.5.9,2.5l-5.2,11.8c-.3.7-1,1.1-1.7,1.1s-.5,0-.8-.2l-24.1-10.8c-.4-.2-.8-.6-1-1-.2-.5-.2-1,0-1.4l5.2-11.8c.4-.9,1.5-1.4,2.4-.9l2.3,1.1,2.1-4.7-2.3-1.1c-.4-.2-.8-.6-1-1-.2-.5-.2-1,0-1.4l1-2.4-4.7-2.1-1.1,2.4c-.4.9-1.5,1.4-2.4.9l-2.3-1.1-2.1,4.6,2.3,1.1c.4.2.8.6,1,1,.2.5.2,1,0,1.4l-5.2,11.8c-.4.9-1.5,1.4-2.4.9l-24.1-10.8c-.5-.2-.8-.6-1-1-.2-.5-.2-1,0-1.4l5.2-11.8c.2-.4.6-.8,1-1,.5-.2,1-.2,1.4,0l2.3,1.1,2.1-4.7-2.3-1.1c-.9-.4-1.3-1.5-.9-2.5l3.9-8.8c-1.1.7-2.4,1.1-3.8,1.1s-2-.2-3-.6c-1.8-.8-3.1-2.3-3.8-4.1-.2-.5-.3-1.1-.4-1.6,0,0-.1,0-.2,0-1,0-2-.2-3-.6-2.5-1.2-4.1-3.6-4.3-6.2-3.8-2.3-5.5-7.2-3.6-11.4,1.4-3.3,4.6-5.3,8.1-5.3s1.8.1,2.7.4c1.2-1,2.8-1.6,4.5-1.6s2,.2,3,.6c1,.5,1.9,1.2,2.6,2,1.2-.8,2.6-1.3,4.1-1.3s2,.2,2.9.6c1.8.8,3.1,2.2,3.8,4.1.5,1.2.6,2.6.4,3.8l45.1,20.4c-1.5-9.6-3.3-21.2-4.9-27.1-.2,0-.5,0-.8,0-.6,0-1.3,0-1.9,0-1.8.1-2.6.7-3.5,1.3l-.3.2c-2.7,1.8-5.3,2.8-7.8,2.8h0c-5.4,0-8.4-4.1-8.5-4.3-.4-.6-.5-1.4,0-2,.4-.6,1.1-1,1.8-.9,1.9.2,3.4-.3,4.7-1.2-1.6.4-3.1.6-4.6.6-5.6,0-8-2.8-8.3-3.1-.4-.6-.6-1.3-.3-1.9.3-.7.9-1.1,1.6-1.1,1.6,0,2.8-.5,3.9-1-.9.2-1.9.2-2.8.2-6.4,0-9.5-3.9-9.7-4-.5-.6-.5-1.4-.2-2.1.4-.7,1.1-1,1.8-.9.7,0,1.3.1,1.9.1,3,0,4.4-1.1,7.3-3.3.6-.5,1.3-1,2-1.5,1.5-1.1,3.1-1.8,4.4-2.3,0,0-.1,0-.2,0,0,0,.6-.2,1.6-.3,1-.3,1.9-.4,2.7-.4,1.7-.2,3.8-.4,6-.5.5,0,1,0,1.5,0h2c.3,0,.6,0,.8,0,.2,0,.4,0,.6,0,.3,0,.5,0,.8,0,.2,0,.3,0,.5,0,.3,0,.6,0,.8,0,.2,0,.3,0,.4,0,.3,0,.6,0,1,0,0,0,.2,0,.2,0,.4,0,.8,0,1.1.2,0,0,.2,0,.3,0,.3,0,.5,0,.8.1.1,0,.3,0,.4,0,.2,0,.4,0,.7.2.1,0,.3,0,.4.1.2,0,.4,0,.6.2.1,0,.3,0,.4.1.2,0,.4.1.6.2.1,0,.3,0,.4.1.2,0,.4.1.6.2.1,0,.3,0,.4.2.2,0,.4.1.6.2.1,0,.3,0,.4.2.2,0,.4.2.6.2.1,0,.2.1.4.2.2,0,.4.2.7.3,0,0,.2,0,.3.2.3.2.7.3,1,.5,17.1,8.2,18.7,36.2,21.5,50.1.6,2.9,1.1,5.7,1.8,8.3.4,1.6.8,3.1,1.1,4.6l32.4,14.6c2.8-3,5.1-6.7,6.3-11.1-.6.1-1.2.3-1.8.5,0,0,0,0,0,0,0,0-.2,0-.2,0h-.2c0,0-.1,0-.1,0,0,0,0,0-.1,0,0,0-.2,0-.2,0,0,0,0,0,0,0-1.8-.6-3-1.7-3.7-3.3-1-2.2-.4-4.7,0-6-2-5-6.8-11-6.8-11-.5-.6-.5-1.4-.2-2.1s1-1.1,1.8-1c.5,0,1.2.2,1.8.5-1.9-3.9-3.5-7.8-4.9-11.5,0,0-.1,0-.1,0h0c-.9,0-1.7-.7-1.8-1.6,0,0,0-.2,0-.3-2.1-6.8-7.6-15.8-7.6-15.9-.4-.7-.4-1.6.2-2.2.6-.6,1.4-.8,2.2-.4.2,0,.8.4,1.6.9-.2-1-.4-2-.6-3-.8-4.3-1.4-8.6-1.8-12.7-.3,0-.6-.2-.9-.3-.4-.3-.7-.8-.8-1.4-.5-7.6-5.3-17.1-5.4-17.2-.3-.7-.3-1.4.2-2,.4-.6,1.1-.8,1.9-.7,1.3.3,3.5,1.4,4.4,3.9.3,0,.6.2.9.3.2-1.1.4-2.1.6-3.1,4.5-16.8,20.9-28.6,41.8-30.6-1.3-1.5-2-3.5-2-5.6,0-4,2.6-7.4,6.2-8.4v-7.4h-4.3v-4.8h4.3V0h4.8v4.1h4.3v4.8h-4.3v7.4c3.6,1,6.2,4.4,6.2,8.4s-.8,4.1-2.1,5.6c20.8,2.1,37.2,13.9,41.8,30.6.2.9.5,2,.6,3.1.3-.1.6-.2.9-.3.9-2.5,3.1-3.6,4.4-3.9.7-.2,1.4.1,1.9.7s.5,1.3.2,2c0,0-4.9,9.6-5.4,17.2,0,.6-.3,1.1-.7,1.4-.3.2-.6.3-.9.3-.4,4.8-1.2,10.1-2.4,15.7.8-.6,1.5-.9,1.6-1,.7-.4,1.6-.2,2.2.4.5.6.6,1.5.2,2.2,0,0-5.8,9.6-7.8,16.4-.1.5-.5.9-.9,1.1-.3.1-.6.2-.9.2s-.1,0-.2,0c-1.4,3.8-3,7.6-4.9,11.5.7-.3,1.4-.4,1.9-.5.7,0,1.4.3,1.8,1,.4.7.3,1.5-.2,2.1,0,0-4.8,6.1-6.8,11,.4,1.3,1,3.8,0,6-.7,1.6-1.9,2.7-3.7,3.3h0c0,0-.1,0-.2,0-.1,0-.2,0-.4,0s-.3,0-.5,0h0c-.5-.1-.9-.3-1.4-.4,1.1,4.2,3.4,7.9,6.2,10.9l32.5-14.7c.4-1.4.7-2.9,1.1-4.4.6-2.6,1.2-5.4,1.8-8.3,2.8-13.9,4.4-41.9,21.5-50.1.3-.2.7-.3,1-.5.1,0,.2,0,.3-.2.2,0,.4-.2.6-.3.1,0,.2,0,.4-.2.2,0,.4-.2.6-.2.1,0,.3,0,.4-.2.2,0,.4-.2.6-.2.1,0,.3,0,.4-.2.2,0,.4-.1.6-.2.1,0,.3,0,.4-.1.2,0,.4-.1.6-.2.1,0,.3,0,.4-.1.2,0,.4-.1.6-.2.1,0,.3,0,.4-.1.2,0,.4,0,.7-.2h.4c.3-.1.5-.2.8-.2.1,0,.2,0,.3,0,.4,0,.8-.1,1.1-.2,0,0,.2,0,.2,0,.3,0,.6,0,1,0,.1,0,.3,0,.4,0,.3,0,.5,0,.8,0,.2,0,.4,0,.5,0,.3,0,.5,0,.8,0,.2,0,.4,0,.6,0,.3,0,.5,0,.8,0h2c.5,0,1,0,1.5,0,2.2,0,4.2.3,5.9.5.9,0,2.3.2,4,.7.3,0,.5.1.5.1,0,0,0,0,0,0,1.4.5,3,1.2,4.6,2.4.7.5,1.4,1,2,1.5,2.9,2.2,4.3,3.3,7.3,3.3s1.2,0,1.9-.1c.7,0,1.5.3,1.8.9.4.7.3,1.5-.2,2.1-.1.2-3.2,4-9.6,4s-1.8,0-2.8-.2c1.1.6,2.4,1,4,1,.7,0,1.3.5,1.6,1.1s.2,1.4-.3,1.9c-.3.3-2.7,3.1-8.3,3.1h0c-1.4,0-3-.2-4.5-.6,1.1.8,2.3,1.3,3.8,1.3s.6,0,.9,0c.7,0,1.4.3,1.8.9.4.6.3,1.4-.1,2-.1.2-3.1,4.3-8.5,4.3s-5.2-.9-7.9-2.8l-.3-.2c-.9-.6-1.7-1.2-3.5-1.3-.6,0-1.3,0-1.9,0s-.8,0-1.1,0c-1.5,5.9-3.4,17.3-4.9,26.9l44.8-20.2c-.2-1.3,0-2.6.4-3.8.7-1.8,2.1-3.3,3.8-4.1.9-.4,1.9-.6,3-.6,1.5,0,2.9.5,4.1,1.3.7-.8,1.5-1.5,2.6-2,.9-.4,1.9-.6,3-.6,1.6,0,3.2.6,4.5,1.6.9-.3,1.8-.4,2.7-.4,3.5,0,6.7,2.1,8.1,5.3,1.9,4.2.2,9.2-3.6,11.4-.2,2.6-1.8,5.1-4.3,6.2-.9.4-1.9.6-3,.6s-.1,0-.2,0c0,.6-.2,1.1-.4,1.6-.7,1.8-2.1,3.3-3.8,4.1-.9.4-1.9.6-3,.6s-2.6-.4-3.8-1.1l3.9,8.8c.4.9,0,2.1-.9,2.5l-2.3,1.1,2.1,4.7,2.3-1.1c.5-.2,1-.2,1.4,0,.5.2.8.5,1,1l5.2,11.8c.2.4.2,1,0,1.4-.2.5-.5.8-1,1l-24.1,10.8c-.9.4-2,0-2.4-.9l-5.2-11.8c-.2-.4-.2-1,0-1.4.2-.5.5-.8,1-1l2.3-1.1-2-4.6-2.3,1.1c-.9.4-2,0-2.4-.9l-1.1-2.4-4.7,2.1,1,2.4c.2.4.2,1,0,1.4-.2.5-.5.8-1,1l-2.3,1.1,2.1,4.7,2.3-1.1c.9-.4,2,0,2.4.9l5.2,11.8c.2.4.2,1,0,1.4-.2.5-.5.8-1,1l-24.1,10.8c-.2.1-.5.2-.7.2-.7,0-1.4-.4-1.7-1.1l-5.2-11.8c-.4-.9,0-2.1.9-2.5l2.4-1.1-2-4.6-2.3,1.1c-.4.2-1,.2-1.4,0-.5-.2-.8-.5-1-1l-4-9c-2.7,9.9-7.2,19.4-15.8,24.9-8.5,5.4-21.8,6.2-29,6.2s-3.1,0-4,0c-.1,0-.2,0-.3,0h-.1c-1.6-.1-3.2-.3-4.7-.6.6.7,1,1.4,1.4,2.2.8-.3,1.6-.4,2.4-.4s2,.2,2.9.6c1,.5,1.9,1.1,2.6,2,1.2-.8,2.6-1.3,4.1-1.3s2,.2,3,.6c1.8.8,3.1,2.2,3.8,4.1.2.5.3,1.1.4,1.6,0,0,.1,0,.2,0,1,0,2,.2,3,.6.7.3,1.3.7,1.9,1.2,3.3-9.6,9.6-14.9,18-14.9s1,0,1.5,0c6.1.4,11.6,3.5,14.9,8.1,1.9,2.7,2.9,5.9,3,9.1,2.3-1.2,5-1.9,7.7-1.9,3.9,0,7.2,1.6,9.4,4.4,4,5.1,3.2,10.4,1.2,14.8,2.9,1.5,5.9,5.4,6.8,6.7.6.8.4,2-.4,2.6-.7.5-3.7,2.7-6.6,3.7,1.5,2.2,2.6,4.9,3,6,.4,1-.1,2-1.1,2.4-.1,0-2.2.9-4.6,1.4,4.7,2.6,9.1,5.4,13,8.3-1.8-5.7-2.5-12.1-2.1-19.3,0-.9.7-1.6,1.5-1.7.8-.1,1.7.3,2,1.1,0,.1,3.2,7.4,11.4,14.3-.4-1.2-.8-2.6-1.1-3.9-2.2-10.9-5.9-17.9-8.6-21.9-2.9-4.3-5.3-6.1-5.4-6.1-.7-.5-1-1.5-.6-2.4s1.3-1.2,2.2-.9c5.9,1.9,10.9,4.4,15.1,7.1-.6-13,3-25.9,7.1-36.1.4-.9,1.4-1.4,2.3-1.1.9.3,1.5,1.3,1.2,2.2,0,0-1.1,4.7-.3,12.3.6,6.1,2.6,15.3,8.4,25.9,0-.3.2-.6.5-.8.1-.1,1.5-1.5,3.8-3.1-4.5-7.6-7.6-19.9.7-37.3.4-.8,1.3-1.2,2.1-1,.9.2,1.4,1.1,1.4,1.9,0,0,0,3.8,4.8,14,.2-1,.4-2,.6-3.1,3.5-14.8,3.8-26.4,3.5-33.5-.4-7.7-1.6-11.9-1.6-11.9-.3-.9.2-1.8,1-2.2.8-.4,1.8-.1,2.3.7,9,14.1,14.3,27.5,15.9,40,3.6-10.3,4.3-15.7,4.3-15.8.1-.9.8-1.6,1.7-1.6.9,0,1.7.5,1.9,1.3,4.1,13.6,7.5,33.2,0,48.8-.6,1.2-1.1,2.2-1.7,3.2,1.8,1.9,2.9,3.4,3,3.6.2.3.3.7.3,1.1v59.8c0,.2,0,.3,0,.5.9,10.3-3.2,24.6-18.8,34-4,4.7-8.8,9.3-14.3,12.8,7.6.7,15.1,1,22.6,1,11.1,0,17.9-.8,18-.8.8-.1,1.6.4,1.9,1.2"/>
  </g>
</svg>