<?xml version="1.0" encoding="UTF-8"?>
<svg id="Capa_2" data-name="Capa 2" xmlns="http://www.w3.org/2000/svg" viewBox="0 0 1109 430.31">
  <defs>
    <style>
      .cls-1 {
        fill: #fff;
        stroke-width: 0px;
      }
    </style>
  </defs>
  <g id="Capa_1-2" data-name="Capa 1">
    <path class="cls-1" d="M501.64,154.96c-.71,0-1.42.25-1.87.58-.2.2-.52.9-.59,2.46-.07,1.33-.07,9.42-.13,16.78,0,5.87.13,11.04.13,12.65.06,4.14.52,4.79,3.94,5.75,1.23.32,1.68.71,1.68,1.29,0,.52-1.16.78-2.07.78-1.68,0-4.26-.26-7.09-.26-1.88,0-4.66.26-6.59.26-1.23,0-2-.31-2-.97,0-.46.77-.84,1.42-1.03,3.48-.78,4.25-2.01,4.38-4.72.2-3.1.33-8.2.33-11.43,0-2.13-.06-15.94-.19-17.95-.07-2.33-.07-3.3-3.68-3.81-1.24-.14-1.87-.59-1.87-.97,0-.52.57-.77,1.41-.84.46-.06,1.55-.06,2.13-.06,2.91,0,8.01-.53,11.12-.53,6.01,0,9.87,1.49,12.26,3.82,3.09,2.97,3.75,6.59,3.75,8.78,0,5.63-2.52,8.27-4.39,9.95-1.68,1.43-4.85,2.84-7.49,2.84-.71,0-2.45-.12-3.49-.46-.7-.32-1.09-.71-1.09-1.1,0-.25.32-.58.84-.58h1.42c3.29,0,7.94-3.1,7.94-10.33,0-5.74-4.26-10.91-10.2-10.91M529.4,172.53c1.35-1.1,2.71-1.75,4-1.75,1.75,0,3.94,1.04,5.29,2.52,2.32,2.86,3.04,6.66,3.04,9.89,0,2.9-1.16,6.84-2.78,8.57-1.61,1.62-2.98,2.02-3.68,2.02-3.03,0-6.59-2.34-8.08-7.04-.58-1.62-.78-3.69-.78-5.82,0-3.62,1.37-6.84,2.98-8.39M547.73,182.02c0-8.2-6.72-13.23-13.1-13.23-4.4,0-7.75,1.87-9.69,3.61-2.46,2.07-4.53,5.23-4.53,10.07,0,3.29,2.01,7.63,4.79,9.88,2.39,2,5.67,3.36,8.65,3.36s5.62-.71,8.27-2.58c2.39-1.56,5.61-5.69,5.61-11.11M553.99,170.72c-.46.2-1.09.84-1.09,1.28,0,.21.25.46,1.09,1.1,1.36,1.16,1.62,1.81,1.62,2.52,0,6.52-.19,12.08-.38,14.02-.21,2.32-.53,2.97-2.65,3.62-.71.19-1.35.52-1.35.97,0,.57.71.9,1.68.9,1.09,0,3.09-.18,5.48-.18,1.36,0,3.3.06,4.14.06.97,0,1.68-.32,1.68-.78,0-.39-.52-.85-1.15-1.03-2.02-.58-2.27-1.11-2.34-2.01-.07-.76-.12-14.65-.07-15.49,0-.52.39-1.36.66-1.56,1.1-.97,2.71-1.87,5.41-1.87,1.42,0,3.37.65,4.07,1.23.72.58,1.76,2.53,1.76,4.59,0,1.88,0,9.69-.12,11.82-.14,2.13-.53,2.71-2.01,3.29-.85.25-1.57.64-1.57,1.1,0,.58.91.78,1.62.78.85,0,2.98-.13,4.59-.13,1.8,0,3.49.13,5.03.13.98,0,1.87-.34,1.87-.78,0-.39-.38-.78-1.61-1.1-1.62-.46-2.26-1.28-2.39-2.27-.07-.89-.19-10.45-.19-11.74,0-3.24-.77-6.21-2.27-7.88-.9-1.04-2.71-2.46-5.87-2.46-2.77,0-6.01,1.75-8.59,3.55,0,0-.39.14-.39-.18,0-.6.21-2.21.21-3.17,0-.26-.33-.97-.59-.97-.33,0-1.03.32-1.73.77-.9.59-3.36,1.49-4.53,1.88M601.06,169.43c-.26,0-6.26.26-7.68.26-.25,0-.58-.32-.58-.52v-3.09c0-.2-.65-.78-.96-.78-.27,0-.72.58-1.49,1.42-.97,1.24-3.03,2.71-5.48,4.58-.26.19-.39.46-.39.7,0,.26.32.65.83.85,1.35.31,2.52.78,2.52,1.22,0,2.26-.26,11.95-.26,14.34,0,1.94.12,3.23.83,4.32.91,1.42,3.17,2.98,5.81,2.98,2.92,0,5.24-1.17,6.98-2.91.45-.45.9-1.1.9-1.68s-.33-.7-.33-.7c-.25,0-.44.06-1.02.38-.96.6-2.33.96-3.1.96-1.3,0-2.65-.25-3.76-1.22-.7-.7-1.15-1.55-1.15-3.16,0-3.24.06-12.01.19-13.69,0-.12.26-.45.51-.45h6.91c.45,0,1.68-.14,1.68-.78,0-.78-.2-2.65-.2-2.45-.07-.26-.64-.58-.78-.58M614.43,158.97c0-1.23-1.04-3.36-2.91-3.36-.96,0-2,.33-2.71.97-.58.64-.84,1.74-.84,2.39,0,1.16.52,1.87,1.04,2.45.64.58,1.74.83,2.2.83,1.36,0,3.22-1.48,3.22-3.29M606.74,170.78c-.71.19-1.35.71-1.35,1.17,0,.18.18.45.57.78,1.81,1.27,2.53,1.87,2.59,2.32.14.78.07,8.77.07,9.16,0,2.46-.07,6.46-.26,7.36-.2.65-1.1,1.41-2.58,1.87-1.1.26-1.56.59-1.56.97,0,.45.72.77,1.69.77,1.15,0,3.54-.25,5.66-.25,1.37,0,4.61.19,5.06.19.78,0,1.61-.26,1.61-.7,0-.39-.39-.77-1.41-1.1-1.62-.52-2.93-.71-2.98-2.71-.07-2.26-.12-4.85-.12-8.14,0-3.68.32-12.21.38-13.17,0-.14-.32-.72-.64-.72-.96.26-4.19,1.68-6.71,2.2M636.95,169.68c-.5,0-4.83,0-5.81-.07-.45,0-.83-.38-.83-.63,0-8.72,1.42-13.18,2.9-14.91,1.1-1.3,2.27-1.82,3.88-1.82,1.99,0,4,1.04,5.43,2.45,1.15,1.17,2.13,1.95,2.52,1.95.83,0,3.35-1.68,3.35-3.23,0-.58-.11-1.02-.57-1.62-.9-1.16-2.71-2.84-6.84-2.84-2.91,0-5.94,1.17-8.33,3.03-2.57,1.88-4.46,4.53-5.75,7.31-1.35,3.03-1.81,6.52-1.81,9.62,0,.32-.31.64-.64.9-2,1.03-2.83,1.62-2.89,2.19-.07.26.19.72.5.72.85.07,1.44.13,2.34.25.32.07.64.66.64.85,0,4.71,0,14.99-.12,16.4-.25,2.21-.59,2.65-2.78,3.3-.83.19-1.29.52-1.29.96,0,.39.46.78,1.29.78s3.23-.32,5.49-.32c2.08,0,4.97.18,6.07.18.96,0,1.42-.44,1.42-.77,0-.4-.32-.71-1.36-1.03-2.9-.9-3.17-1.24-3.29-3.29-.19-3.5-.19-14.53-.19-16.39,0-.46.51-.84.64-.84,2.98-.26,8.4-.19,10.46,0,.27.06.78.58.78.96,0,2.77-.06,13.17-.25,17.24-.08,1.09-.73,1.67-2.33,2.32-1.03.45-1.42.71-1.42,1.09,0,.59.58.78,1.29.78,1.42,0,3.36-.25,5.56-.25,1.61,0,3.68.18,5.09.18.78,0,1.56-.25,1.56-.77,0-.45-.14-.64-1.43-1.1-1.87-.59-2.58-.91-2.7-2.26-.2-2.65-.14-5.36-.14-17.05,0-3.74.2-5.49-.25-5.49-.52,0-1.35.19-2.01.38-1.22.39-2.57.9-8.14.84M675.82,170.46c-1.22-.9-4.13-1.42-6.12-1.42-1.87,0-6.07.97-8.53,2.72-3.8,2.5-6.33,6.38-6.33,11.16,0,2.72.9,5.68,2.06,7.55,1.94,2.97,5.43,5.17,9.62,5.17,3.48,0,7.22-1.62,9.43-4.07.52-.51.9-1.22.9-1.94,0-.33-.53-.51-1.17-.07-1.74,1.17-3.54,1.94-5.8,1.94-3.43,0-6.4-1.62-7.87-4.13-.33-.39-1.82-2.65-1.82-6.46,0-2.9.97-5.68,2.64-7.62,1.04-1.22,2.85-2,3.76-2,2.18,0,3.35,1.1,5.42,2.59,1.03.84,2.13,1.29,2.59,1.29.26,0,2.19-1.61,2.19-2.64,0-.53-.32-1.56-.97-2.07M690.28,158.97c0-1.23-1.03-3.36-2.89-3.36-.99,0-2.01.33-2.72.97-.58.64-.83,1.74-.83,2.39,0,1.16.52,1.87,1.02,2.45.66.58,1.75.83,2.2.83,1.36,0,3.22-1.48,3.22-3.29M682.61,170.78c-.71.19-1.36.71-1.36,1.17,0,.18.19.45.58.78,1.81,1.27,2.53,1.87,2.58,2.32.13.78.07,8.77.07,9.16,0,2.46-.07,6.46-.26,7.36-.19.65-1.11,1.41-2.6,1.87-1.09.26-1.54.59-1.54.97,0,.45.71.77,1.68.77,1.16,0,3.55-.25,5.69-.25,1.34,0,4.57.19,5.03.19.78,0,1.6-.26,1.6-.7,0-.39-.37-.77-1.41-1.1-1.61-.52-2.9-.71-2.97-2.71-.07-2.26-.13-4.85-.13-8.14,0-3.68.32-12.21.38-13.17,0-.14-.32-.72-.64-.72-.97.26-4.2,1.68-6.71,2.2M709.91,191.06c-1.1.64-2.38,1.02-3.29,1.02-1.29,0-3.87-1.02-3.87-3.86,0-1.62.51-2.06,1.23-2.45,1.62-.9,4.71-1.95,6.4-1.95.19,0,.45.33.45.52,0,1.49-.07,3.82-.13,5.18-.07.19-.38,1.35-.78,1.55M714.56,171.95c-.97-1.42-2.64-3.16-5.99-3.16-1.17,0-4.08,1.03-6.08,2.45-3.22,2.13-4.96,3.93-4.96,5.74,0,.39.38.9.77.9.32,0,3.89-1.73,4.52-2.26.13-.12.33-.45.33-.63-.06-1.5.13-2.52.45-2.73.46-.31,1.3-.65,2.52-.65,3.16,0,4.92,2.65,4.92,4.27.07.77-.06,4.65-.14,5.23,0,.4-.38.71-1.74,1.16-1.41.45-6.71,1.87-7.75,2.33-.92.39-1.94.71-2.58,1.56-.7.9-1.22,2.19-1.22,3.36,0,3.29,2.25,6.05,4.59,6.05.44,0,1.93-.12,2.63-.38.71-.25,3.43-1.36,5.69-2.91.13-.06.38.14.46.26.77,2.4,2.63,3.16,4.18,3.16,3.1,0,6.01-2.84,6.01-4.06,0-.07,0-.53-.14-.72-.14-.18-.19-.25-.39-.18-.77.44-2.19.96-2.45.96-.65,0-2.52-.38-2.52-3.1,0-.72.25-8.72.25-11.23,0-2.77-.46-4.13-1.36-5.42M737.87,153.35c-1.04,0-1.82.25-1.82.77,0,.58.72.96,1.49,1.17,2.45.51,3.35,1.54,3.5,2.77.05.84.19,6.97.19,15.36,0,10.72,1.61,15.31,5.23,18.73,1.62,1.56,5.94,3.81,11.74,3.81,2.78,0,6.27-.32,9.24-2.01,4.57-2.63,7.68-7.99,8.07-19.23.14-3.35.52-10.59.58-13.5.07-4,1.35-5.1,4.2-5.93.91-.33,1.48-.71,1.48-1.11,0-.51-.57-.77-1.62-.77-1.81,0-3.21.14-5.86.14-2.07,0-4-.19-5.55-.19-1.16,0-1.61.32-1.61.72,0,.45.83.96,1.48,1.09,3.5.83,4.07,1.75,4.27,4.14.13.71.25,3.74.25,7.93,0,7.62-.58,13.05-1.35,16.46-1.61,7.17-7.67,8.91-11.94,8.91-2.97,0-7.24-1.36-8.97-3.36-2.08-2.25-3.69-4.91-3.69-12.27,0-9.17,0-15.76.26-17.88.38-2.59,1.54-3.3,3.88-3.75,1.23-.27,1.87-.65,1.87-1.17s-.71-.77-1.94-.77c-1.42,0-4.07.14-6.45.14s-4.2-.19-6.91-.19M783.57,170.72c-.44.2-1.09.84-1.09,1.28,0,.21.26.46,1.09,1.1,1.35,1.16,1.62,1.81,1.62,2.52,0,6.52-.19,12.08-.39,14.02-.19,2.32-.51,2.97-2.65,3.62-.72.19-1.35.52-1.35.97,0,.57.71.9,1.68.9,1.09,0,3.1-.18,5.48-.18,1.36,0,3.3.06,4.13.06.98,0,1.68-.32,1.68-.78,0-.39-.51-.85-1.16-1.03-2-.58-2.25-1.11-2.32-2.01-.07-.76-.14-14.65-.07-15.49,0-.52.38-1.36.64-1.56,1.1-.97,2.72-1.87,5.43-1.87,1.41,0,3.35.65,4.06,1.23.7.58,1.75,2.53,1.75,4.59,0,1.88,0,9.69-.12,11.82-.14,2.13-.53,2.71-2.01,3.29-.83.25-1.55.64-1.55,1.1,0,.58.9.78,1.62.78.83,0,2.95-.13,4.57-.13,1.81,0,3.48.13,5.03.13.97,0,1.87-.34,1.87-.78,0-.39-.38-.78-1.6-1.1-1.61-.46-2.27-1.28-2.41-2.27-.06-.89-.18-10.45-.18-11.74,0-3.24-.78-6.21-2.27-7.88-.9-1.04-2.71-2.46-5.87-2.46-2.77,0-6,1.75-8.58,3.55,0,0-.38.14-.38-.18,0-.6.19-2.21.19-3.17,0-.26-.33-.97-.58-.97-.31,0-1.03.32-1.75.77-.9.59-3.35,1.49-4.53,1.88M825.03,158.97c0-1.23-1.03-3.36-2.91-3.36-.97,0-2.01.33-2.71.97-.58.64-.84,1.74-.84,2.39,0,1.16.51,1.87,1.02,2.45.66.58,1.76.83,2.2.83,1.35,0,3.23-1.48,3.23-3.29M817.34,170.78c-.7.19-1.35.71-1.35,1.17,0,.18.2.45.59.78,1.81,1.27,2.52,1.87,2.59,2.32.11.78.06,8.77.06,9.16,0,2.46-.06,6.46-.27,7.36-.19.65-1.09,1.41-2.58,1.87-1.1.26-1.54.59-1.54.97,0,.45.71.77,1.68.77,1.15,0,3.54-.25,5.67-.25,1.36,0,4.59.19,5.03.19.78,0,1.62-.26,1.62-.7,0-.39-.38-.77-1.41-1.1-1.62-.52-2.91-.71-2.98-2.71-.06-2.26-.12-4.85-.12-8.14,0-3.68.32-12.21.39-13.17,0-.14-.33-.72-.65-.72-.97.26-4.2,1.68-6.72,2.2M830.78,169.36c-.64,0-1.62.32-1.62.72,0,.45.33.7,1.29,1.09,1.61.44,2.25,1.29,2.78,2.2,1.68,2.9,5.05,10.84,6.59,14.98,1.48,3.73,1.74,4.64,2.39,6.65.19.7.58,1.15.9,1.15.52,0,1.23-.7,1.55-1.68,1.09-3.36,1.16-4,2.98-8.58,1.93-4.52,4.19-10.4,5.29-12.14,1.01-1.29,1.75-2.07,3.22-2.64,1.03-.39,1.42-.65,1.42-1.03,0-.4-.71-.72-1.29-.72-1.24,0-3.23.32-4.4.32-1.55,0-2.39-.19-3.54-.19-.85,0-1.3.31-1.3.71,0,.44.52.71,1.09.9,1.95.7,2.52,1.15,2,2.77-.64,2-4,10.77-4.84,12.59-.14.31-.33.45-.5.26-.46-.46-3.77-7.88-5.57-13.25-.32-.84-.45-1.67,1.35-2.19.85-.26,1.43-.58,1.43-1.04s-.53-.71-1.5-.71c-.77,0-2.43.13-4.12.13-.72,0-4.52-.32-5.62-.32M864.47,175.5c1.1-2.97,3.55-4.97,6.39-4.97,2.26,0,4.13,2.13,4.13,3.94,0,1.35-.77,1.73-2.19,1.73-3.23.07-6.33.07-8,0-.21,0-.46-.38-.33-.7M878.04,171.37c-1.68-1.63-4.21-2.46-6.53-2.46-1.21,0-3.35.32-5.03,1.09-5.1,2.39-7.81,7.55-7.81,12.72,0,7.49,4.58,12.84,11.63,12.84,4.05,0,7.42-1.73,9.61-4.95.2-.4.52-1.1.52-1.62,0-.25-.2-.77-.57-.77-.26,0-.59.44-.84.77-1.11,1.62-3.03,2.33-5.82,2.33-3.1,0-5.81-1.54-7.29-3.48-1.36-1.81-2.32-4.79-2.32-7.05,0-.71.07-1.74.26-2.26.08-.25.4-.5.59-.5,2.97.05,13.88.05,14.6.05s1.29-.84,1.29-1.22c0-2.26-.92-4.13-2.26-5.48M885.46,171.18c-.65.2-.85.9-.85,1.03,0,.25.85.76,2.27,1.86.65.45.65,1.3.65,2.08v12c-.06,3.87-.26,4.51-2.72,5.36-.45.19-1.29.44-1.29.84,0,.59.64.84,1.37.84,1.56,0,2.45-.25,4.26-.25,3.74,0,6.26.32,7.95.32,1.02,0,1.6-.26,1.6-.65,0-.26-.19-.71-1.23-1.04-.9-.26-2.13-.58-2.91-.71-1.09-.25-1.54-1.48-1.68-3.36-.06-.97-.31-12.53-.31-13.82,0-.45.19-.97.65-1.43.58-.63,1.54-.78,2.52-.78,1.29,0,2.96.85,3.68,1.5.19.11.84.25.98.18.44-.18,1.99-2.07,2.76-3.17.19-.32.4-.77.4-.96,0-.58-.65-2.25-3.36-2.25-2,0-4.84,1.67-7.3,4.01-.06.12-.38,0-.38-.26,0-1.23.12-2.4.12-3.55,0-.2-.33-.71-.65-.71-.19,0-.57.2-1.34.71-.79.44-2.98,1.42-5.17,2.2M919.16,169.16c-.77-.18-2.13-.38-3.36-.38-2.26,0-4.06.57-5.35,1.35-2.44,1.48-3.62,3.68-3.62,6.01,0,3.03,2.06,5.37,4.07,6.64,2.06,1.23,2.52,1.61,4.14,2.71,1.99,1.28,2.83,2.59,2.83,4.13,0,1.22-.51,2.64-1.48,3.41-.65.59-1.75.98-2.58.98-2.2,0-4.07-1.23-5.95-4.64-.4-.73-.84-1.51-1.42-1.51-.32,0-.53.59-.53,1.42,0,1.94.85,4.65,1.04,4.98,1.09.9,4.32,1.42,6.34,1.42s4.39-.7,5.6-1.55c1.75-1.17,3.81-3.29,3.81-6.32s-1.3-5.1-5.28-7.43c-4.09-2.27-6.22-3.88-6.22-6.14,0-1.41,1.3-3.81,3.69-3.81,2.13,0,3.81,1.3,5.23,4.26.32.71.77,1.22,1.1,1.22.45,0,.77-.65.77-1.22,0-.46-.18-2.77-.18-3.88-.07-.44-.4-.84-.59-.96-.13-.07-1.36-.58-2.07-.71M936.65,158.97c0-1.23-1.03-3.36-2.91-3.36-.97,0-1.99.33-2.7.97-.59.64-.83,1.74-.83,2.39,0,1.16.51,1.87,1.03,2.45.64.58,1.73.83,2.19.83,1.36,0,3.23-1.48,3.23-3.29M928.98,170.78c-.71.19-1.37.71-1.37,1.17,0,.18.21.45.59.78,1.81,1.27,2.52,1.87,2.58,2.32.12.78.06,8.77.06,9.16,0,2.46-.06,6.46-.26,7.36-.2.65-1.09,1.41-2.58,1.87-1.09.26-1.55.59-1.55.97,0,.45.71.77,1.69.77,1.16,0,3.54-.25,5.67-.25,1.36,0,4.59.19,5.04.19.78,0,1.6-.26,1.6-.7,0-.39-.38-.77-1.41-1.1-1.61-.52-2.91-.71-2.98-2.71-.04-2.26-.12-4.85-.12-8.14,0-3.68.33-12.21.4-13.17,0-.14-.32-.72-.65-.72-.98.26-4.2,1.68-6.71,2.2M951.7,173.17c1.16-1.17,2.91-2.13,4.77-2.13,1.31,0,3.69.72,5.49,2.53.72.77,1.29,2,1.36,2.52.26,2.9.26,7.04.19,10.77-.06,1.87-.91,3.88-1.04,4.01-1.09.83-2.45,1.41-4.39,1.41-5.43,0-9.04-5.81-9.04-11.04,0-3.29,1.3-6.72,2.65-8.08M962.87,169.04c-.84-.13-1.87-.2-4-.2-1.87,0-5.68.65-8.52,2.45-3.18,1.87-6.92,5.48-6.92,11.88,0,3.22,1.05,6.59,3.24,8.9,1.94,2.08,4.77,3.43,8.01,3.43,2.12,0,5.41-.72,8.26-3.16.12,0,.39.13.39.45,0,.91-.14,1.99-.14,2.59,0,.32.46.85.71.85.33,0,.97-.14,2.45-.67,1.23-.44,4.72-1.09,6.01-1.28.32-.13,1.16-1.16,1.16-1.67,0-.07-.13-.39-.39-.39-.63.06-2.7.44-3.42.44-.39,0-.9-.31-1.03-3.02-.05-1.23-.19-1.23-.19-14.27,0-18.66.32-22.08.58-25.32.06-.51-.33-1.02-.44-1.02-.33,0-.6.06-.92.19-1.74.64-5.42,1.62-6.97,1.87-.39.06-1.1.77-1.1,1.04,0,.12.14.32.71.64,2.9,1.49,2.9,2.26,2.97,2.65.19,1.55.39,11.17.07,12.97-.07.27-.27.72-.51.66M988.83,191.06c-1.1.64-2.39,1.02-3.3,1.02-1.28,0-3.87-1.02-3.87-3.86,0-1.62.52-2.06,1.22-2.45,1.62-.9,4.72-1.95,6.4-1.95.19,0,.45.33.45.52,0,1.49-.06,3.82-.13,5.18-.06.19-.39,1.35-.77,1.55M993.47,171.95c-.96-1.42-2.65-3.16-5.99-3.16-1.16,0-4.07,1.03-6.07,2.45-3.23,2.13-4.97,3.93-4.97,5.74,0,.39.38.9.77.9.33,0,3.88-1.73,4.52-2.26.14-.12.32-.45.32-.63-.05-1.5.14-2.52.47-2.73.44-.31,1.28-.65,2.51-.65,3.16,0,4.91,2.65,4.91,4.27.06.77-.07,4.65-.12,5.23,0,.4-.39.71-1.76,1.16-1.4.45-6.71,1.87-7.73,2.33-.91.39-1.94.71-2.6,1.56-.7.9-1.21,2.19-1.21,3.36,0,3.29,2.26,6.05,4.58,6.05.44,0,1.94-.12,2.65-.38.7-.25,3.41-1.36,5.69-2.91.12-.06.39.14.44.26.77,2.4,2.65,3.16,4.2,3.16,3.09,0,6-2.84,6-4.06,0-.07,0-.53-.13-.72-.12-.18-.19-.25-.38-.18-.78.44-2.19.96-2.46.96-.65,0-2.52-.38-2.52-3.1,0-.72.27-8.72.27-11.23,0-2.77-.46-4.13-1.37-5.42M1010.13,173.17c1.16-1.17,2.9-2.13,4.77-2.13,1.3,0,3.68.72,5.49,2.53.71.77,1.29,2,1.36,2.52.25,2.9.25,7.04.18,10.77-.07,1.87-.89,3.88-1.03,4.01-1.09.83-2.45,1.41-4.39,1.41-5.42,0-9.04-5.81-9.04-11.04,0-3.29,1.29-6.72,2.65-8.08M1021.3,169.04c-.83-.13-1.88-.2-4-.2-1.87,0-5.68.65-8.53,2.45-3.17,1.87-6.9,5.48-6.9,11.88,0,3.22,1.03,6.59,3.23,8.9,1.93,2.08,4.77,3.43,8,3.43,2.13,0,5.42-.72,8.27-3.16.13,0,.39.13.39.45,0,.91-.15,1.99-.15,2.59,0,.32.47.85.72.85.33,0,.97-.14,2.46-.67,1.22-.44,4.71-1.09,6-1.28.32-.13,1.17-1.16,1.17-1.67,0-.07-.14-.39-.39-.39-.65.06-2.71.44-3.43.44-.38,0-.89-.31-1.03-3.02-.07-1.23-.2-1.23-.2-14.27,0-18.66.33-22.08.59-25.32.07-.51-.33-1.02-.46-1.02-.33,0-.58.06-.89.19-1.75.64-5.43,1.62-6.99,1.87-.38.06-1.09.77-1.09,1.04,0,.12.14.32.71.64,2.91,1.49,2.91,2.26,2.98,2.65.18,1.55.38,11.17.06,12.97-.06.27-.26.72-.52.66M478.2,304.5c-1.2,1.19-3.39,4.25-3.39,5.43,0,3.05,4.47,4.9,7.84,4.9,2.94,0,8.06-1.74,13.4-5.55,7.08-5.12,13.29-15.69,13.72-28.76.22-9.24.67-37.89.77-46.82.11-5.33,1.53-6.74,5.23-7.62,2.6-.65,3.25-1.52,3.25-2.39s-1.41-1.31-3.04-1.31c-3.39,0-7.3.33-13.29.33-4.68,0-9.06-.44-12.43-.44-2.5,0-3.36.77-3.36,1.53,0,.88,1.08,1.85,3.47,2.39,4.91,1.2,6,3.48,6.1,5.55.21,4.57.55,15.47.55,31.06s.1,29.83-.33,36.04c-.21,2.18-.65,5.23-2.17,7.09-.76.98-1.63,1.3-2.93,1.3-1.64,0-4.25-1.3-6.86-3.16-1.42-.87-2.94-1.19-3.38-1.19-.55,0-2.72,1.08-3.15,1.63M565.07,260.18c.11.43-.34.86-.44.86-3.49,0-11.56.11-15.79.22-.44,0-.87-.54-.77-1.08.66-2.63,5.88-16.34,7.84-21.57.34-.87.98-1.09,1.2-.33,1.53,3.6,6.32,16.78,7.96,21.9M564.85,223.25c-.88-2.17-1.31-2.4-1.85-2.4s-1.3.43-1.96,1.42c-.76,1.2-4.14,5.23-5.66,6.75-.33.21-.22.55-.22.87,0,.44-.44,1.74-.55,1.95-4.57,10.79-16.33,41.83-18.94,47.05-3.15,6.41-4.36,8.17-9.92,9.7-2.27.66-2.72,1.41-2.72,2.17,0,.66.66,1.31,3.16,1.31,1.64,0,6.53-.44,10.79-.44,4.02,0,6.75.22,8.71.22,1.75,0,3.27-.54,3.27-1.41,0-.99-.98-1.64-3.16-2.18-4.03-1.09-5.12-2.6-5.12-4.79s1.2-7.09,4.69-15.79c.22-.33.88-1.09,1.2-1.09,1.52-.12,6.75-.44,18.29-.34,1.31,0,2.51,1.2,2.62,1.63,2.5,6.98,4.79,13.06,5,15.9.22,1.74.11,3.47-4.35,4.57-2.08.44-2.84,1.3-2.84,1.86,0,.97,1.31,1.62,3.5,1.62,2.84,0,7.07-.22,10.66-.22,3.38,0,11.55.44,14.27.44,2.51,0,3.59-.87,3.59-1.63s-.98-1.42-2.83-1.96c-3.7-1.09-6.1-2.18-9.69-11-2.18-5.44-9.58-25.15-15.57-42.03-1.42-4.03-3.38-9.6-4.36-12.2M592.72,222.17c-1.64,0-3.16.64-3.16,1.63,0,1.19,1.52,1.63,2.83,1.96,4.9,1.42,6.54,3.81,8.82,8.93,4.14,9.92,12.52,29.95,16.22,39.86,3.16,7.95,5.12,14.26,5.67,16.66.22.76,1.2,2.62,2.4,2.62,1.09,0,2.52-1.64,2.93-2.84,2.18-6.65,4.59-12.75,8.17-21.33,6.54-16.14,13.29-29.3,15.68-34.65,2.73-5.66,5.01-7.95,9.91-9.15,1.85-.31,2.95-1.08,2.95-2.06,0-.87-1.41-1.52-3.27-1.52-2.3,0-6.66.44-9.81.44-3.6,0-5.89-.34-9.26-.34-1.75,0-2.94.88-2.94,1.63,0,.66,1.2,1.42,2.4,1.85,4.36,1.65,7.3,2.06,4.89,8.51-3.25,8.6-14.8,35.5-15.67,37.25-.11.31-.77.31-.98,0-2.62-5.35-14.27-34.3-15.9-39.65-.88-3.05-.98-4.57,3.92-5.88,1.97-.54,2.72-1.41,2.72-2.28,0-.76-1.2-1.31-2.62-1.31-2.5,0-9.25.23-12.95.23-5.35,0-10.79-.55-12.97-.55M698.29,222.72c-5.67,0-14.61-.33-19.72-.33-1.52,0-3.38.66-3.38,1.63,0,1.09,1.19,1.53,3.49,1.96,4.68.88,5.56,3.06,5.78,6.98.21,3.16.1,8.17.1,21.02,0,13.51-.56,21.78-.88,26.36-.42,5.88-1.84,6.96-7.4,8.28-1.85.44-3.27,1.19-3.27,2.17,0,1.09,1.64,1.42,3.72,1.42,3.92,0,5.11-.55,12.41-.55,8.16,0,35.06.55,36.27.55.53,0,2.28-.66,2.61-1.42.98-1.74,4.13-11.75,4.13-12.63.11-.87.22-3.16-.86-3.16-.87,0-1.86.98-3.39,3.82-2.39,4.24-5.33,6.87-8.61,8.06-2.71.98-6.74.98-10,.98-3.7,0-7.09-.32-8.83-.66-1.09-.22-2.07-1.63-2.39-2.61-.44-2.28-.33-6.32-.44-8.93-.1-3.6-.23-12.09.22-15.13,0-.22.97-1.32,1.41-1.32,3.39,0,7.41,0,10.89.33,4.25.33,5.66,1.09,7.09,5.88.31,1.09,1.2,2.4,2.05,2.4s1.53-1.31,1.43-3.27c-.23-2.73-.44-4.46-.44-7.4,0-2.52.21-4.46.44-7.51.1-1.2-.23-3.06-1.1-3.06-.98,0-1.73,1.2-2.39,2.84-2.08,4.79-1.86,5.22-9.59,5.22h-8.71c-.64,0-1.08-.76-1.08-1.09-.11-5.98.22-21.12.44-23.85.1-2.61.96-3.04,1.41-3.04,8.37-.1,13.07.33,15.13.65,2.51.44,5.56,2.08,6.97,8.17.23,1.09,1.1,2.73,2.08,2.73s1.74-1.53,1.74-3.06c0-2.17,0-9.68-.12-11.64-.1-.77-.87-1.53-1.3-1.42-1.53.21-5.99.66-9.58.66h-16.33ZM779.25,229.58c3.68,3.81,4.67,8.7,4.67,11.54,0,6.1-3.15,10-6.09,12.2-1.21.76-6.21,2.39-11.77,2.39-.56,0-1.31-.64-1.41-1.3-.44-2.84,0-21.9.33-25.6.1-.54.75-1.95,1.3-2.27.88-.45,3.72-.77,4.14-.77,2.94,0,6.31,1.2,8.83,3.82M789.8,253.75c4.79-3.82,7.62-8.06,7.62-13.94,0-5-2.5-10.23-5.88-12.96-5.22-4.36-13.95-4.79-18.95-4.79-5.88,0-14.92.54-18.95.54h-7.94c-1.85,0-3.16.77-3.16,1.52,0,.87,1.2,1.64,2.72,2.07,5.12,1.2,6.1,2.83,6.33,5.45.33,2.94.55,12.2.55,23.85,0,9.26,0,18.4-.67,26.8-.32,3.48-1.52,4.78-6.53,6.31-1.41.43-2.62,1.07-2.62,1.74,0,.98.78,1.74,3.48,1.74,1.21,0,6.65-.44,10.47-.44,5.34,0,10.12.66,13.94.66,1.31,0,3.38-.44,3.38-1.64,0-.75-.76-1.51-2.61-2.05-5.01-1.32-5.78-2.4-6.1-7.09-.32-5-.54-19.48-.32-21.67.11-.55.76-1.09,1.19-1.09,2.06,0,4.46.76,5.23,1.42.86.54,2.51,2.92,3.5,4.57,4.57,7.84,10.12,16.76,13.17,20.91,2.29,3.14,6.53,7.07,16.44,7.07,1.42,0,5.55-.23,7.3-.88.76-.22,1.74-.98,1.74-1.63,0-.45-.87-1.32-1.97-1.53-3.26-.64-6.42-1.96-9.36-5.45-5.45-6.3-14.38-21.33-16.45-25.7-.21-.42-.32-1.31.22-1.52,1.53-.75,3.82-1.97,4.25-2.29M831.55,234.25c.32,4.15.32,15.47.32,21.03,0,9.24-.21,20.46-.54,24.6-.22,4.68-.98,6.97-5.99,8.17-2.28.54-3.26,1.3-3.26,2.05,0,1.1.76,1.86,3.37,1.86,4.03,0,7.3-.33,10.45-.33,4.58-.11,11.98.55,16.35.55,1.3,0,3.36-.33,3.36-1.42s-1.08-1.86-3.05-2.29c-6.09-1.63-6.74-2.94-7.18-9.37-.22-3.27-.33-7.95-.33-21.13,0-18.73.11-22.53.42-25.26.23-2.83.55-5.67,6-6.64,1.85-.32,3.37-1.19,3.37-2.17,0-1.1-1.52-1.53-3.37-1.53-3.83,0-7.63.33-12.96.33-3.61,0-9.26-.33-12.43-.33-1.95,0-3.48.66-3.48,1.53,0,.77.65,1.52,3.27,2.17,5.34,1.31,5.34,2.94,5.66,8.16M907.34,260.18c.11.43-.32.86-.43.86-3.48,0-11.55.11-15.79.22-.44,0-.87-.54-.76-1.08.64-2.63,5.88-16.34,7.84-21.57.32-.87.98-1.09,1.2-.33,1.53,3.6,6.31,16.78,7.94,21.9M907.13,223.25c-.88-2.17-1.31-2.4-1.85-2.4s-1.31.43-1.97,1.42c-.76,1.2-4.14,5.23-5.66,6.75-.33.21-.22.55-.22.87,0,.44-.44,1.74-.55,1.95-4.58,10.79-16.34,41.83-18.95,47.05-3.16,6.41-4.35,8.17-9.91,9.7-2.28.66-2.72,1.41-2.72,2.17,0,.66.64,1.31,3.15,1.31,1.63,0,6.53-.44,10.78-.44s6.75.22,8.72.22c1.74,0,3.27-.54,3.27-1.41,0-.99-.97-1.64-3.16-2.18-4.02-1.09-5.12-2.6-5.12-4.79s1.21-7.09,4.69-15.79c.21-.33.87-1.09,1.2-1.09,1.52-.12,6.74-.44,18.29-.34,1.3,0,2.5,1.2,2.6,1.63,2.51,6.98,4.8,13.06,5.01,15.9.23,1.74.11,3.47-4.35,4.57-2.08.44-2.83,1.3-2.83,1.86,0,.97,1.3,1.62,3.48,1.62,2.83,0,7.08-.22,10.67-.22,3.38,0,11.55.44,14.27.44,2.51,0,3.6-.87,3.6-1.63s-.99-1.42-2.84-1.96c-3.7-1.09-6.1-2.18-9.69-11-2.18-5.44-9.58-25.15-15.56-42.03-1.43-4.03-3.38-9.6-4.36-12.2M953.43,222.28c-1.97,0-3.28.77-3.28,1.63,0,.77,1.63,1.64,2.83,1.85,5.67,1.31,6.42,2.84,8.38,5.23.34.44.66,1.74.66,6.1,0,7.84-1.42,28.75-1.97,40.95-.32,8.17-2.93,9.03-7.95,10.56-1.09.32-2.39.86-2.39,1.95,0,.88,1.3,1.43,2.83,1.43,1.85,0,7.95-.33,10.35-.33,3.81,0,6.32.44,9.47.44,2.07,0,3.6-.44,3.6-1.63,0-.66-.77-1.41-3.05-2.08-5.23-1.63-6.41-3.48-6.86-6.96-.54-5.34-.33-13.61-.22-28.75.11-8.61.32-11.12.54-14.05,0-.33.66-1.2,1.2-.54,9.68,11.43,27.44,30.16,37.67,42.69,2.95,3.59,5.02,6.1,7.08,8.82.99,1.3,3.6,4.14,5.89,4.14.54,0,1.75-1.09,1.75-2.08,0-2.84-.66-12.42-.66-16.99,0-9.25.77-36.8,1.09-40.71.54-4.36,1.09-6.33,6.75-8.18,1.95-.55,2.73-1.52,2.73-2.18,0-.77-.77-1.42-2.62-1.42-2.83,0-7.29.55-12.52.55-2.18,0-4.69-.11-7.41-.11-1.95,0-3.15.54-3.15,1.31,0,1.3,1.41,1.95,3.6,2.51,5.44,1.42,6.52,3.92,6.75,6.1.33,2.83.66,7.95.66,11.66,0,9.14.31,21.45-.23,24.6,0,.23-.43,1.2-.97.66-5.77-6.1-27.12-28.22-32.45-34.75-4.47-5.23-7.5-8.6-9.15-10.56-.32-.32-1.85-1.41-2.39-1.41-5.55,0-14.16-.44-16.55-.44M1075.83,260.18c.11.43-.32.86-.44.86-3.48,0-11.55.11-15.79.22-.43,0-.86-.54-.76-1.08.65-2.63,5.89-16.34,7.84-21.57.33-.87.99-1.09,1.2-.33,1.52,3.6,6.31,16.78,7.95,21.9M1075.61,223.25c-.87-2.17-1.31-2.4-1.85-2.4s-1.31.43-1.95,1.42c-.77,1.2-4.14,5.23-5.67,6.75-.33.21-.22.55-.22.87,0,.44-.43,1.74-.55,1.95-4.57,10.79-16.33,41.83-18.94,47.05-3.15,6.41-4.35,8.17-9.91,9.7-2.28.66-2.71,1.41-2.71,2.17,0,.66.64,1.31,3.15,1.31,1.63,0,6.53-.44,10.78-.44,4.03,0,6.76.22,8.71.22,1.75,0,3.27-.54,3.27-1.41,0-.99-.98-1.64-3.16-2.18-4.03-1.09-5.12-2.6-5.12-4.79s1.2-7.09,4.69-15.79c.21-.33.86-1.09,1.19-1.09,1.52-.12,6.75-.44,18.29-.34,1.31,0,2.51,1.2,2.62,1.63,2.5,6.98,4.79,13.06,5.02,15.9.21,1.74.11,3.47-4.36,4.57-2.08.44-2.82,1.3-2.82,1.86,0,.97,1.3,1.62,3.47,1.62,2.83,0,7.08-.22,10.68-.22,3.36,0,11.53.44,14.26.44,2.5,0,3.59-.87,3.59-1.63s-.98-1.42-2.83-1.96c-3.7-1.09-6.1-2.18-9.69-11-2.19-5.44-9.59-25.15-15.58-42.03-1.41-4.03-3.37-9.6-4.36-12.2M919.28,324.39c-1.93-.48-4.5-.86-6.97-.86-4.4,0-9.92,1.07-14.48,4.82-2.25,1.82-5.9,6.38-5.9,12.87,0,5.95,2.47,9.71,4.51,12.06,2.2,2.52,7.83,6.06,15.76,6.06,4.93,0,8.63-1.29,9.38-1.55.81-.38,1.77-1.23,1.93-1.72.48-.97,1.34-3.33,1.61-4.66.16-.59.16-1.99-.43-1.99-.43,0-.81.48-1.45,1.66-1.23,2.2-2.68,3.75-4.66,4.88-1.87,1.13-4.5,1.23-5.2,1.23-4.18,0-9.06-2.09-12.01-7.99-1.18-2.36-1.82-5.47-1.82-9.06,0-8.15,4.02-14.9,12.55-14.9,2.89,0,5.63,1.18,7.93,3.11.91.7,1.71,2.14,2.25,3.81.27.81.75,1.45,1.02,1.45.59,0,.96-.91.91-2.04-.11-1.56-.22-3.43-.27-4.93,0-.81-.43-1.45-.8-1.45-1.23-.16-2.58-.48-3.86-.8M938.96,339.51c.86-.81,1.72-1.18,2.62-1.18,1.5,0,2.9.91,3.86,2.14,1.67,2.36,2.15,5.84,2.15,8.09,0,3.06-.86,5.9-1.98,7.35-.81.91-1.83,1.34-2.36,1.34-2.25,0-4.72-1.82-5.84-5.57-.43-1.34-.65-3.38-.65-5.15,0-3.54.97-5.9,2.2-7.02M953.92,347.71c0-6.97-5.95-11.15-11.31-11.15-3.97,0-6.97,1.72-8.58,3.11-2.04,1.71-3.7,4.55-3.7,8.31,0,3,1.72,6.38,4.02,8.26,1.98,1.66,4.99,2.79,7.4,2.79s5.2-.64,7.4-2.2c1.98-1.29,4.77-4.56,4.77-9.11M959.45,322.83c-.59.21-.96.64-.96.91s.27.54.96,1.13c1.13.85,1.45,1.18,1.45,1.82,0,1.55.06,6.6.06,9.38,0,8.47-.16,14.53-.32,16.89-.16,2.79-.49,3.59-2.26,4.08-.59.1-1.28.32-1.28.91,0,.27.37.65,1.56.65s3.75-.22,4.99-.22c.97,0,4.02.22,5.31.22.59,0,1.45-.16,1.45-.65,0-.38-.37-.64-1.13-.91-2.04-.59-2.25-1.24-2.41-2.47-.16-1.61-.21-8.69-.21-12.87,0-8.04.27-18.82.43-20.74,0-.22-.49-.64-.65-.54-2.09,1.34-4.66,1.77-6.97,2.41M982.29,339.51c.86-.81,1.71-1.18,2.62-1.18,1.5,0,2.9.91,3.86,2.14,1.67,2.36,2.15,5.84,2.15,8.09,0,3.06-.86,5.9-1.98,7.35-.81.91-1.82,1.34-2.36,1.34-2.25,0-4.72-1.82-5.84-5.57-.43-1.34-.64-3.38-.64-5.15,0-3.54.97-5.9,2.2-7.02M997.25,347.71c0-6.97-5.95-11.15-11.31-11.15-3.97,0-6.97,1.72-8.58,3.11-2.04,1.71-3.7,4.55-3.7,8.31,0,3,1.72,6.38,4.02,8.26,1.98,1.66,4.98,2.79,7.4,2.79s5.21-.64,7.4-2.2c1.98-1.29,4.77-4.56,4.77-9.11M1003.1,338.81c-.37.11-1.02.64-1.02.97s.65.96,1.93,2.25c.32.27.32.7.32,1.18,0,4.72-.16,8.9-.27,10.35-.21,2.31-.37,3-2.25,3.43-.97.27-1.34.59-1.34.91,0,.48.75.7,1.5.7,1.12,0,2.73-.22,4.5-.22,2.04,0,5.04.11,5.25.11.75,0,1.45-.38,1.45-.7,0-.43-.27-.64-1.29-.96-1.45-.48-1.88-1.18-1.88-2.31,0-4.07,0-8.95.06-12.44,0-.43.21-1.02.48-1.23.75-.59,2.04-1.13,3.27-1.13,1.56,0,2.79.75,3.48,1.72.27.32.7,1.23.64,3.38l-.05,9.22c0,1.93-.48,2.47-1.93,2.9-.7.21-1.07.59-1.07.75,0,.43.22.81,1.56.81,1.12,0,3.27-.11,4.4-.11,1.23,0,3.65.16,4.82.16.86,0,1.39-.38,1.39-.75s-.53-.64-1.12-.81c-1.88-.53-2.09-1.02-2.25-2.73-.11-1.18-.06-11.04-.06-11.42,0-.54.16-1.45.43-1.67.54-.43,1.39-1.07,3.27-1.07,1.66,0,2.79.81,3.43,1.82.64,1.02.75,2.04.75,2.89,0,1.77.11,7.72.05,9.11-.11,2.09-.32,2.58-1.72,3-.59.21-1.07.48-1.07.81,0,.38.32.8,1.34.8,1.23,0,2.57-.16,4.4-.16,1.45,0,3.22.22,4.29.22.97,0,1.5-.32,1.5-.7,0-.33-.38-.64-1.08-.86-1.39-.43-1.82-1.23-1.87-2.15-.05-3.43-.16-9.01-.27-10.78-.11-2.04-.59-3.97-2.04-5.36-1.07-1.12-2.42-1.93-4.61-1.93-.92,0-1.88.16-3.11.81-1.07.53-3.27,1.87-3.91,2.3-.05,0-.32,0-.43-.16-.26-.43-.86-1.45-1.77-2.14-.86-.64-2.25-1.08-3.91-1.08-2.63,0-5.15,1.39-7.24,3.11-.16.16-.37-.21-.37-.32,0-.54.16-1.56.16-2.3,0-.11-.21-.54-.48-.7-.1-.06-.21-.11-.48,0-1.29.7-4.45,2.04-5.79,2.46M1059.24,341.59c1.5,1.77,2.31,4.61,2.31,6.75,0,2.58-.81,5.58-2.15,7.19-1.12,1.12-2.15,1.61-2.63,1.61-.8,0-2.2-.32-3.27-1.45-1.07-.96-1.45-2.46-1.5-3.06-.27-1.87-.48-5.25-.48-9.33,0-1.13.05-2.2.1-3,.06-.16.27-.48.43-.59.48-.21,1.18-.42,2.09-.42,2.14,0,4.13,1.12,5.09,2.3M1062.94,356.66c2.52-1.87,5.04-5.04,5.04-9.38,0-3.54-1.29-6.32-3.65-8.36-1.72-1.5-4.13-2.36-6.86-2.36-1.5,0-3.97.54-5.69,1.61,0,0-.22,0-.22-.27-.05-1.18-.05-2.84-.05-4.08,0-4.18.32-8.58.48-12.38,0-.32-.43-.86-.59-.86-.27,0-.75.16-1.77.7-1.77.91-3.97,1.34-5.79,1.82-.32.11-.92.64-.92,1.02,0,.27.54.48,1.56,1.23.86.75,1.08,1.34,1.13,1.66.11.81.16,7.61.16,12.7,0,4.4-.05,13.72-.32,17.91,0,.38.37.69.59.69.11,0,.42-.1.7-.21.54-.27.91-.33,1.13-.22,1.77.53,5.2,1.12,7.18,1.12s5.58-.64,7.88-2.36M1081.54,328.67c0-1.23-.96-3.32-2.84-3.32-1.02,0-2.04.38-2.68.96-.59.64-.86,1.72-.86,2.36,0,1.07.48,1.82,1.02,2.36.59.59,1.66.91,2.14.91,1.34,0,3.21-1.5,3.21-3.27M1074.47,338.38c-.86.16-1.45.59-1.45,1.02,0,.27.32.54.64.86,1.12.96,1.77,1.5,1.82,1.93.11.64.11,3.7.11,4.83,0,3.8-.11,7.61-.32,8.36-.11.54-.7,1.18-1.98,1.56-1.01.32-1.39.59-1.39.96s.64.7,1.5.7c.91,0,3.49-.21,5.2-.21,1.18,0,4.07.16,4.45.16.75,0,1.5-.27,1.5-.69s-.37-.75-1.17-1.02c-1.4-.43-2.04-.64-2.1-2.25-.05-1.87-.1-3.75-.1-5.41,0-3.11.16-10.29.26-12.12,0-.17-.26-.59-.53-.59-.86.21-4.24,1.5-6.43,1.93M1098.65,355.11c-.48.32-1.56.64-2.04.64-1.02,0-2.95-1.07-2.95-3.43,0-1.39.32-1.66.96-2.14.97-.59,3.43-1.39,4.35-1.39.16,0,.37.32.37.54,0,1.77-.11,4.02-.21,4.77,0,.21-.21.85-.48,1.02M1103.69,339.45c-.81-1.18-2.31-2.89-5.58-2.89-.75,0-3.38.7-5.36,1.98-3.32,2.15-4.5,3.6-4.5,5.15,0,.32.38.75.7.75s4.35-1.77,4.72-2.15c.11-.11.22-.27.22-.48,0-1.82.11-2.36.32-2.47.38-.27.97-.37,1.71-.37,2.42,0,3.54,2.14,3.59,3.43.06.7-.05,3.64-.1,4.13,0,.22-.32.59-.97.81-1.23.37-6.11,1.71-7.29,2.19-.48.22-1.39.54-1.93,1.29-.53.75-.96,1.77-.96,2.73,0,3,2.15,5.42,4.13,5.42.7,0,1.77-.22,2.36-.43.7-.32,2.9-1.28,4.24-2.25.11-.1.43,0,.48.22.81,2.09,2.47,2.58,4.02,2.58,3,0,5.52-2.63,5.52-3.65,0-.16-.05-.54-.16-.75-.11-.11-.16-.16-.32-.06-.53.21-1.61.64-1.87.64-.91,0-1.99-.64-1.99-2.14,0-.59.22-6.97.22-9.06,0-2.41-.54-3.76-1.18-4.61M150.41,333.57c-3.58-.84-5.36-1.95-5.77-4.88-.28-2.23-.42-12.83-.42-28.58v-20.78c.14-4.32.69-5.86,5.09-6.97,1.37-.28,2.2-1.12,2.2-1.53,0-.56-.69-.84-2.34-.84-3.58,0-12.24.55-14.58.55-3.31,0-10.18-.55-12.79-.55-1.52,0-2.34.55-2.34.98s1.24,1.11,2.07,1.39c2.89.7,4.95,1.67,5.5,4.88.14,1.81.27,6.14.27,11.43,0,2.65,0,30.26-.14,36.11-.14,5.72-1.1,7.67-5.64,8.79-1.24.28-2.2.56-2.2,1.25,0,.28.96,1.12,2.34,1.12,4.13,0,9.36-.7,13.76-.7,4.82,0,10.87.56,14.58.56,1.1,0,2.2-.28,2.2-1.11,0-.42-.55-.84-1.79-1.12M299.84,298.85c-2.61-1.81-7.02-4.33-11.28-7.53-5.09-3.9-6.74-6.83-6.74-10.6,0-6.97,5.09-10.32,10.04-10.32,2.89,0,6.33,1.4,8.67,3.49,1.79,1.81,3.44,4.18,4.81,7.53.41,1.11.96,1.81,1.37,1.81.56,0,.97-.7.69-2.09-.27-.98-1.1-7.11-.97-9.49,0-.7-.55-1.26-1.1-1.39-2.75-.7-7.29-1.81-13.9-1.81-5.64,0-11.28,1.67-14.3,3.49-4.82,3.07-8.39,7.81-8.39,15.62,0,8.78,4.68,14.92,16.37,22.45,7.57,4.74,11.97,9.2,11.97,14.36,0,6.83-4.68,10.87-11.56,10.87-3.85,0-7.43-1.67-10.46-4.18-2.89-2.51-5.23-5.72-6.33-9.2-.55-1.53-.82-2.51-1.52-2.51-.41,0-1.23.83-.69,2.93.69,4.04.83,8.36,1.24,10.31,0,.28.41,1.26,1.24,1.54,3.85,1.53,12.24,3.34,16.09,3.34,14.04,0,25.86-7.67,25.86-20.22,0-9.9-6.05-14.78-11.14-18.4M251.18,333.57c-4.54-1.12-5.51-3.07-5.64-8.79-.14-5.85-.14-33.46-.14-36.11,0-5.3.14-9.62.27-11.43.55-3.21,2.62-4.18,5.51-4.88.82-.28,2.06-.98,2.06-1.39s-.82-.98-2.34-.98c-2.61,0-9.5.55-12.79.55-2.34,0-11.01-.55-14.59-.55-1.65,0-2.34.28-2.34.84,0,.42.82,1.25,2.2,1.53,4.4,1.11,4.95,2.65,5.09,6.97v19.8c-.05.78-.24,1-.81,1.11-.17.06-5.63.09-12.02.1v-38.74h12.23v-8.23h-12.23v-10.86h-8.12v10.86h-12.23v8.23h12.23v38.74c-6.34,0-11.8-.04-12.14-.1-.55-.14-.69-.84-.69-2.79v-18.13c.14-4.32.69-5.86,5.09-6.97,1.38-.28,2.21-1.12,2.21-1.53,0-.56-.69-.84-2.34-.84-3.58,0-12.24.55-14.59.55-3.3,0-10.18-.55-12.79-.55-1.52,0-2.34.55-2.34.98s1.24,1.11,2.07,1.39c2.89.7,4.95,1.67,5.5,4.88.14,1.81.27,6.14.27,11.43,0,2.65,0,30.26-.14,36.11-.14,5.72-1.1,7.67-5.64,8.79-1.24.28-2.21.56-2.21,1.25,0,.28.96,1.12,2.34,1.12,4.13,0,9.35-.7,13.76-.7,4.82,0,10.87.56,14.59.56,1.1,0,2.2-.28,2.2-1.11,0-.42-.55-.84-1.79-1.12-3.58-.84-5.36-1.95-5.78-4.88-.24-1.98-.38-10.59-.4-23.56.13-.43.31-.7.4-.7,1.24-.28,31.87-.28,32.42-.14.66.11.87.84.94,1.7-.03,12.49-.17,20.76-.41,22.7-.42,2.93-2.2,4.04-5.78,4.88-1.24.28-1.79.7-1.79,1.12,0,.83,1.1,1.11,2.2,1.11,3.71,0,9.77-.56,14.59-.56,4.4,0,9.63.7,13.76.7,1.38,0,2.34-.84,2.34-1.12,0-.69-.96-.97-2.2-1.25M285.41,219.09c-.86,1.96.01,4.27,1.94,5.14.4.18.89.25,1.41.25,1.67,0,3.71-.74,4.43-1.02.29-.11.5-.33.61-.58.11-.26.13-.57.03-.85-.37-.96-1.68-4.16-3.35-4.91-.51-.23-1.03-.33-1.56-.33-1.47,0-2.87.86-3.51,2.31M294.53,229.82c-1.01.05-4.42.34-5.65,1.71-1.41,1.6-1.29,4.06.28,5.5.73.67,1.65,1,2.57,1,1.05,0,2.1-.43,2.86-1.28,1.23-1.38,1.15-4.84,1.09-5.87-.01-.31-.15-.57-.36-.77-.2-.18-.46-.29-.74-.29h-.05ZM296.55,224.11c-.71,1.62,0,3.51,1.6,4.22.41.19.85.28,1.28.28.04,0,.08,0,.13-.01,0,0,0,0,0,0,.12,0,.25,0,.37-.03.05-.01.1-.02.14-.03.14-.03.27-.06.4-.11.05-.01.11-.03.15-.06.15-.06.29-.13.42-.21.02-.01.04-.02.06-.03.15-.1.29-.21.43-.34.04-.03.07-.07.11-.11.1-.1.19-.2.27-.32.04-.05.07-.09.1-.14.02-.03.04-.08.06-.11h.02c.08-.13.14-.26.2-.39.7-1.61,0-3.5-1.6-4.22-.21-.1-.42-.16-.62-.21-.07-.01-.14-.01-.21-.03-.14-.02-.29-.05-.42-.05-.18,0-.37.01-.54.05-.05,0-.09.02-.14.03-.14.03-.26.06-.4.11-.06.02-.1.03-.15.06,0,0-.01.01-.03.01h0c-.22.1-.43.21-.63.36h0c-.08.08-.18.14-.26.21-.03.03-.07.08-.11.11-.1.1-.19.21-.27.32-.03.05-.07.09-.1.14-.11.16-.21.32-.29.5M296.86,213.39c-.19,1.84,1.89,4.6,2.53,5.4.19.24.46.38.74.4.04,0,.07,0,.11,0,.24,0,.49-.08.7-.25.79-.64,3.38-2.9,3.58-4.75.22-2.13-1.31-4.06-3.42-4.28-.14-.02-.27-.03-.4-.03-1.94,0-3.61,1.49-3.82,3.49M305.68,223.3c-.16.25-.21.55-.15.83.06.28.23.53.47.7.77.51,3.24,2.04,5.03,2.04.19,0,.37-.02.53-.05,2.08-.45,3.4-2.52,2.96-4.62-.38-1.83-1.98-3.08-3.75-3.08-.26,0-.53.03-.8.09-1.79.39-3.73,3.24-4.28,4.1M307.17,238.94c1.84-1.08,2.47-3.46,1.41-5.32-.92-1.6-4.2-2.59-5.18-2.86-.09-.03-.18-.04-.28-.04-.2,0-.38.05-.55.15-.25.15-.43.38-.52.67-.26.99-1.05,4.37-.14,5.97.71,1.25,2.01,1.95,3.34,1.95.65,0,1.31-.16,1.91-.52M285.86,227.65c-1.83-.83-3.25-2.34-3.97-4.24-.72-1.9-.66-3.97.15-5.84,1.22-2.75,3.91-4.53,6.89-4.53,1.06,0,2.08.22,3.06.66.42.19.83.46,1.23.76-.06-.5-.08-1-.04-1.47.41-3.9,3.63-6.83,7.49-6.83.26,0,.52,0,.79.04,4.13.44,7.13,4.21,6.7,8.4-.05.48-.17.95-.32,1.41.44-.21.89-.37,1.35-.47.52-.11,1.05-.17,1.57-.17,3.54,0,6.63,2.55,7.37,6.05.42,1.99.04,4.03-1.05,5.75-1.1,1.71-2.78,2.89-4.76,3.31-.42.09-.85.13-1.3.13-.04,0-.09,0-.13,0,.34.37.64.75.87,1.16,1.01,1.77,1.27,3.82.75,5.8-.52,1.97-1.77,3.62-3.51,4.64-1.15.67-2.45,1.02-3.76,1.02-2.69,0-5.19-1.46-6.53-3.81-.25-.43-.43-.88-.57-1.35-.23.43-.49.85-.81,1.21-1.43,1.61-3.47,2.52-5.61,2.52-1.86,0-3.65-.7-5.04-1.96-3.08-2.82-3.34-7.65-.56-10.78.32-.36.7-.66,1.09-.94-.49-.1-.96-.24-1.38-.43M240.36,201.77c1.13.54,3.38.24,4.01-1.13.63-1.37-.6-3.31-1.72-3.84-1.13-.53-3.38-.24-4.01,1.13-.63,1.37.6,3.3,1.72,3.84M115.78,222.19c-.44,2.1.88,4.17,2.96,4.62.17.04.35.05.54.05,1.79,0,4.25-1.52,5.02-2.04.25-.17.42-.42.48-.7.06-.28.01-.58-.16-.83-.55-.87-2.49-3.72-4.28-4.1-.27-.06-.54-.09-.8-.09-1.77,0-3.37,1.25-3.75,3.08M129.22,209.93c-2.1.22-3.64,2.15-3.42,4.28.19,1.85,2.79,4.1,3.57,4.75.21.16.45.24.7.24.03,0,.07,0,.1,0,.28-.03.55-.17.74-.4.63-.8,2.71-3.56,2.52-5.4-.21-2.01-1.88-3.49-3.82-3.49-.13,0-.27.01-.4.03M133.76,224.12c-.08-.18-.18-.35-.29-.5-.03-.05-.06-.09-.1-.13-.09-.12-.18-.22-.27-.32-.04-.04-.07-.08-.11-.11-.08-.07-.18-.13-.26-.2h0c-.2-.15-.4-.28-.62-.37h0s-.01,0-.03-.01c-.05-.02-.1-.03-.15-.06-.13-.04-.26-.08-.4-.11-.04-.01-.09-.03-.14-.03-.18-.03-.36-.04-.53-.04-.14,0-.29.03-.43.04-.07.01-.14.01-.21.03-.21.04-.42.11-.62.2-1.59.72-2.31,2.61-1.6,4.22.06.14.13.27.21.39,0,0,.01,0,.02,0,.02.04.04.08.06.11.03.05.07.09.1.13.09.12.18.22.28.32.04.04.07.08.11.11.14.12.28.24.43.33.02.02.04.02.06.03.13.08.28.15.42.21.05.02.1.04.15.06.13.05.26.09.4.11.04,0,.09.02.14.03.12.02.25.02.38.03,0,0,0,0,0,0,.04,0,.08.01.13.01.43,0,.86-.09,1.28-.28,1.59-.72,2.3-2.6,1.59-4.22M134.62,230.87c-.06,1.03-.14,4.49,1.08,5.87.76.85,1.81,1.29,2.86,1.29.92,0,1.84-.33,2.57-1,1.58-1.44,1.7-3.9.29-5.49-1.22-1.38-4.63-1.66-5.64-1.71h-.06c-.28,0-.54.1-.73.29-.21.19-.34.46-.36.77M136.47,222.03c-.11.29-.09.59.02.85.12.26.33.48.61.59.72.28,2.77,1.02,4.44,1.02.52,0,1.01-.08,1.41-.25,1.93-.88,2.8-3.18,1.95-5.14-.64-1.46-2.05-2.31-3.52-2.31-.52,0-1.05.11-1.55.33-1.67.76-2.98,3.95-3.34,4.91M128.39,237.52c.92-1.61.12-4.98-.14-5.97-.07-.29-.27-.53-.51-.67-.16-.1-.36-.15-.55-.15-.09,0-.19.01-.28.04-.98.27-4.25,1.26-5.17,2.86-1.06,1.86-.43,4.25,1.41,5.32.6.35,1.27.52,1.92.52,1.33,0,2.62-.7,3.33-1.95M117.97,230.47c-1.97-.42-3.66-1.6-4.76-3.31-1.09-1.71-1.46-3.75-1.05-5.73.73-3.51,3.83-6.06,7.37-6.06.53,0,1.06.06,1.57.17.47.1.92.26,1.36.47-.16-.46-.28-.94-.33-1.42-.43-4.18,2.57-7.95,6.71-8.39.26-.03.53-.04.78-.04,3.87,0,7.09,2.94,7.49,6.84.05.46.03.96-.04,1.46.4-.31.81-.57,1.24-.77.98-.44,2-.66,3.05-.66,2.98,0,5.68,1.78,6.89,4.54.82,1.86.87,3.93.15,5.84-.72,1.91-2.13,3.41-3.96,4.24-.43.2-.89.34-1.39.44.4.28.78.58,1.1.95,2.78,3.13,2.53,7.96-.56,10.77-1.38,1.27-3.17,1.96-5.04,1.96-2.13,0-4.17-.92-5.6-2.52-.32-.36-.59-.78-.82-1.21-.14.47-.32.93-.56,1.35-1.34,2.36-3.84,3.82-6.53,3.82-1.32,0-2.62-.35-3.76-1.02-1.74-1.02-2.99-2.67-3.51-4.64-.52-1.97-.25-4.03.75-5.8.23-.4.53-.78.87-1.15-.04,0-.09,0-.13,0-.45,0-.89-.04-1.3-.13M189.94,201.77c1.13-.54,2.36-2.47,1.73-3.84-.63-1.37-2.88-1.66-4.01-1.13-1.12.53-2.35,2.46-1.72,3.84.63,1.37,2.88,1.66,4.01,1.13M219.44,62.65c0-2.02-1.94-5.14-4.33-5.14s-4.34,3.12-4.34,5.14,1.94,5.13,4.34,5.13,4.33-3.12,4.33-5.13M246.27,70.09c1.7.19,3.31-1.86,3.47-3.29.16-1.43-.97-3.79-2.67-3.98-1.7-.19-3.31,1.86-3.47,3.3-.15,1.43.98,3.79,2.67,3.98M183.24,62.81c-1.7.19-2.83,2.55-2.67,3.98.15,1.43,1.77,3.49,3.47,3.29,1.69-.19,2.83-2.55,2.67-3.98-.16-1.43-1.77-3.49-3.47-3.3M218.72,98.85c0-1.68-1.61-4.27-3.6-4.27s-3.6,2.59-3.6,4.27,1.61,4.27,3.6,4.27,3.6-2.59,3.6-4.27M240.93,105.27c1.39.28,2.88-1.31,3.1-2.49.23-1.17-.54-3.21-1.94-3.49-1.39-.28-2.87,1.31-3.1,2.49-.23,1.18.55,3.21,1.94,3.49M188.21,99.29c-1.39.28-2.16,2.32-1.94,3.49.23,1.17,1.71,2.76,3.1,2.48,1.39-.27,2.16-2.31,1.94-3.49-.23-1.18-1.71-2.76-3.1-2.49M217.96,129.06c0-1.33-1.27-3.37-2.84-3.37s-2.85,2.04-2.85,3.37,1.28,3.37,2.85,3.37,2.84-2.05,2.84-3.37M235.5,134.13c1.1.22,2.26-1.04,2.45-1.96.18-.93-.43-2.54-1.53-2.75-1.1-.22-2.27,1.03-2.45,1.96-.18.93.43,2.53,1.53,2.75M193.88,129.41c-1.1.22-1.71,1.83-1.53,2.76.18.93,1.35,2.19,2.45,1.96,1.09-.22,1.71-1.83,1.53-2.76-.18-.93-1.35-2.18-2.45-1.96M385.06,349.77c11.56,0,23.85-4.11,36.59-12.21-2.98.15-6.82.27-11.4.27-9.43,0-19.01-.53-28.48-1.58-2.71-.3-5.28-.45-7.63-.45-3.3,0-5.97.29-8.16.73,2.97,3.2,4.76,6.63,5.77,9.93,3.42.27,7.55,1.14,11.86,3.27.48.01.95.04,1.44.04M398.09,369.93c-4.45-8.32-12.39-18.12-25.45-19.62.72,4.63.14,8.67-.37,10.98,1.97,1.18,4.41,2.19,7.47,2.9,9.02,2.08,14.76,4.12,18.36,5.74M368.35,361.73c.87-2.77,5.65-21.29-16.92-30.35-.86-.34-1.78-.52-2.74-.52-1.99,0-3.64.76-4.22,1.23-9.17,7.66-21.73,13.84-30.25,17.61,5.25,1.15,11.66,4.36,16.05,12.68,4.94,9.36,4.25,16.18,2.79,20.25-.19.54-.4,1.05-.62,1.52,4.22-1.78,10.83-4.97,19.8-10.42,10.79-6.56,15.16-10.96,16.11-12M326.4,386.37c1.14-1.01,6.37-6.38,2.87-17-4.18,2.13-6.98,3.34-11.21,5.07-.54.72-2.01,3.18-.59,7.31.45,1.33,1.53,3.69,3.65,4.69,1.44.69,3.22.65,5.28-.08M297.33,368.47c9.01-2.93,17.48-6.36,25.28-10.26-1.58-1.51-3.25-2.6-4.9-3.39-17.54,8.37-38.4,14.36-61.07,17.64-.49,1.59-.82,3.37-.95,5.4.6-.08,1.2-.17,1.8-.26,4.54-3,12.44-6.68,24.45-7.37,6.2-.36,11.27-.99,15.4-1.76M276.55,385.94c13.55,0,24.63-5.69,33.05-16.93-.06.02-.11.04-.16.06-6.72,2.6-15.91,4.25-27.3,4.9-9.81.56-16.55,3.28-20.48,5.47-1.84,1.03-3.25,2.03-4.26,2.84,3.65,1.41,10.81,3.66,19.15,3.66h0M303.16,389.69c-2.54-1.64-5.19-2.97-7.88-4.06-6.63,3.1-13.19,4.05-18.73,4.05s-10.65-.92-14.61-1.99c5.66,4.73,16.49,9.98,36.75,9.98,6.22,0,13.01-.49,20.29-1.47-4.95-1.11-10.49-3.08-15.81-6.51M297.89,417.33c-1.58-6.58-4.56-11.92-8.24-16.28-13.56-1.14-22.25-4.78-27.79-8.63,3.87,4.83,10.37,10.44,21.29,15.35,7.16,3.21,11.8,6.71,14.74,9.57M241.02,404.84c11.36,0,18.76-1.42,24.51-2.97-7.04-3.33-12.89-11.13-13.48-19.26-.83-11.33,3.21-17.64,7.95-21.47l-.17.03c-10.36,2.09-23.26,4.69-44.56,4.71h-.21c-21.32-.02-34.21-2.62-44.57-4.71l-.17-.04c4.74,3.83,8.77,10.14,7.95,21.47-.59,8.13-6.44,15.92-13.48,19.26,5.75,1.54,13.14,2.97,24.51,2.97,4.24,0,9.51-7.59,11.02-10.25.34-.59.95-.94,1.6-.94.13,0,.25.01.38.04.78.16,1.37.82,1.46,1.62,1.17,10.73-.18,19.08-4,24.87,0,0,0,0,0,0-.52.79-1.08,1.53-1.69,2.22-1.39,1.58-2.92,2.79-4.47,3.71,2.23-.41,4.38-1.14,6.44-2.15,10.04-4.96,12.88-14.17,13.35-15.97.21-.82.95-1.39,1.78-1.39s1.57.57,1.79,1.39c.47,1.8,3.31,11.01,13.35,15.97,2.06,1.01,4.21,1.74,6.44,2.15-1.55-.92-3.07-2.13-4.47-3.71-5.11-5.79-7.03-14.91-5.7-27.1.09-.8.67-1.46,1.46-1.62.78-.16,1.58.19,1.98.89,1.52,2.66,6.8,10.25,11.03,10.25M241.53,420.07c-1.56.44-3.07.87-5.37,1.02,3.98,3.62,8.91,4.21,11.64,4.21.46,0,.85-.02,1.14-.04,1.16-1.53.41-2.94-.48-3.9-1.2-1.28-3.7-1.77-4.77-1.87-.79.18-1.5.38-2.17.57M182.49,425.31c2.73,0,7.66-.59,11.64-4.21-2.3-.16-3.81-.58-5.36-1.02-.68-.19-1.37-.39-2.17-.57-1.11.11-3.57.59-4.76,1.87-.89.96-1.64,2.37-.48,3.9.29.02.67.04,1.14.04M146.97,407.76c10.92-4.91,17.42-10.51,21.29-15.35-5.55,3.86-14.29,7.52-27.92,8.64-3.96,4.72-6.69,10.16-8.13,16.29,2.94-2.86,7.59-6.37,14.76-9.58M131.43,397.67c20.69,0,31.52-5.38,37.07-10.16-3.87,1.01-8.83,1.9-14.35,1.9s-12.12-.94-18.79-3.99c-2.86,1.12-5.7,2.52-8.4,4.27-5.32,3.43-10.86,5.4-15.82,6.51,7.29.98,14.07,1.47,20.28,1.47h0M121.04,369.21c8.53,10.93,19.64,16.46,33.11,16.46,8.1,0,14.98-2.09,18.55-3.41-1.01-.81-2.41-1.8-4.23-2.82-3.94-2.19-10.68-4.91-20.48-5.47-13.44-.77-21.83-2.82-26.95-4.77M107.69,358.22c7.85,3.93,16.39,7.39,25.48,10.32,4.05.74,8.99,1.35,15.03,1.7,11.97.68,19.85,4.34,24.4,7.33.68.1,1.34.2,2.02.3-.13-2.02-.46-3.81-.95-5.4-22.67-3.29-43.53-9.28-61.07-17.64-1.65.8-3.32,1.89-4.9,3.39M100.03,362.38c4.39-8.32,10.8-11.54,16.05-12.68-8.52-3.77-21.08-9.95-30.25-17.61-.58-.48-2.22-1.23-4.22-1.23-.96,0-1.87.18-2.74.52-22.57,9.07-17.79,27.56-16.93,30.35.95,1.03,5.32,5.44,16.11,12,9.02,5.48,15.65,8.67,19.87,10.45-2.09-4.45-3.24-11.69,2.1-21.8M112.24,374.45c-4.22-1.74-7.02-2.94-11.2-5.07-.16.51-.31,1-.43,1.48-1.88,7.14.28,11.71,1.94,13.98.58.79,1.09,1.3,1.36,1.53,2.06.73,3.83.77,5.28.08,2.11-1,3.19-3.37,3.64-4.69,1.41-4.11-.03-6.57-.59-7.31M58.54,346.47c1.02-3.3,2.8-6.73,5.77-9.92-2.18-.45-4.86-.74-8.15-.74-2.36,0-4.93.15-7.63.45-9.47,1.05-19.05,1.58-28.48,1.58h0c-4.57,0-8.42-.12-11.4-.27,12.75,8.11,25.03,12.21,36.6,12.21.49,0,.96-.03,1.45-.04,4.3-2.12,8.43-2.99,11.85-3.27M50.58,364.19c3.05-.71,5.49-1.73,7.46-2.91-.5-2.31-1.08-6.35-.37-10.97-13.06,1.5-21,11.3-25.45,19.62,3.59-1.62,9.34-3.66,18.36-5.74M30.54,317.12c5.99,7.28,12.35,12.42,18.86,15.29,2.37-.23,4.65-.35,6.76-.35,4.85,0,8.58.59,11.45,1.45,1.82-1.44,3.94-2.8,6.42-4.04-2.16-3.09-6.9-7.33-16.85-8.14-12.83-1.05-21.51-2.84-26.64-4.2M26.18,311.84c.09.04,9.76,4,31.29,5.76,1.11.09,2.16.22,3.16.39-2.02-5.4-3.05-10.97-3.05-16.64,0-8.54,2.34-16.83,6.85-24.69-4.05,1.67-7.78,2.56-10.47,3.02v3.76c0,.38-.11.73-.3,1.02-1.27,6.83-6.54,13.26-16.34,13.26-10.9,0-14.66-7.63-15.12-11.68h0c0-.06-.04-.35,0-.81v-13.44c-3.37,2.18-6.22,5.29-7.76,9.35-.5,1.33-.89,2.86-1.11,4.54-1.03,7.64,1.24,18.3,10.66,26.78.01-.02.03-.04.04-.06.51-.66,1.39-.89,2.16-.57M12.71,177.63c-4.79,20.6-1.42,33.46,2.85,41.03,2.54-2.15,5.87-4.31,9.85-5.5-.4-2.62-1.25-5.59-2.76-8.9-5.46-12.03-8.39-20.91-9.94-26.62M33.06,155.83c-5.28,9.89-11.09,24.04-10.82,38.07,1.09,2.71,2.34,5.63,3.77,8.78,1.62,3.57,2.56,6.8,3.03,9.7.87-.11,1.77-.17,2.69-.17,1.87,0,3.63.18,5.29.47,1.17-4.11,1.59-10.32-.56-19.42-3.93-16.65-4.06-29.38-3.39-37.43M25.88,278.88c1.06-.78,2.43-1.49,4.19-2.06,2.13-.7,3.96-.79,5.31-.68v-8.22c-3.07.03-6.39.72-9.5,1.97v8.99M31.2,280.38c-4.56,1.48-5.23,3.99-5.32,4.89v.39c.14.92,1.6,8.31,11.45,8.31,8.76,0,12.81-6.28,12.94-12.51.18-8.18-6.68-11.65-9.64-12.77-.48-.18-1.01-.32-1.56-.44v10.13c0,.62-.3,1.2-.8,1.54-.51.35-1.14.43-1.71.21-.07-.03-2.21-.79-5.36.24M50.28,223.17c-1.89-1.7-8.8-7.22-18.56-7.22s-17.01,8.54-18.55,10.61v49.11c2.19-3.21,5.35-6.08,9.02-8.16v-.07l.8-.36c4.7-2.48,10.14-3.67,15.38-2.72,1.28.16,2.47.44,3.54.84,3.49,1.31,6.32,3.29,8.36,5.74v-47.76M41.56,202.03c.33,4.78-.11,8.56-.93,11.52,2.25.7,4.25,1.59,5.95,2.51,3.53-5.96,6.04-15.29,1.32-28.45-1.05,3.25-2.94,7.94-6.35,14.43M53.97,275.84c5.6-1.07,15.54-4.05,22.76-12.15,5.4-6.06,8.39-13.96,8.93-23.55-3.64,5.19-10.4,12.51-21.7,17.27-4.85,2.05-7.98,4.48-9.98,6.94v11.49ZM53.97,259.1c2.16-1.85,4.94-3.6,8.56-5.13,2.01-.85,3.86-1.8,5.57-2.8,1.65-2.53,2.99-5.52,3.7-9.03,2.4-11.83,6.46-19.56,9.81-24.26-12.73,5.83-21.28,14.97-25.45,27.22-1.15,3.39-1.82,6.62-2.19,9.47v4.53ZM53.97,240.5c2.64-6.18,7.1-13.11,14.68-19.07.84-7.85-.01-16.53-2.6-25.86-.74,8.22-3.53,19.81-11.77,33.08-.11.17-.21.34-.31.51v11.34ZM101.03,248c-6.32,3.58-11.94,7.42-16.82,11.47-1.33,2.43-2.93,4.68-4.77,6.75-2.59,2.91-5.47,5.2-8.38,7.03-6.42,8.83-9.78,18.31-9.78,28.09,0,6.02,1.27,11.94,3.76,17.66,3.37,1.04,5.96,2.5,7.95,4.06-4.32-6.96-6.57-14.27-6.57-21.72,0-17.47,12.32-34.12,34.9-47.5-.63-.36-1.01-1.06-.93-1.82.08-.79.27-2.32.64-4.02M98.75,239.9c1.59.5,3.72,1.05,5.24,1.05.64,0,.93-.1,1.03-.14.82-.37,1.45-1.04,1.77-1.89.32-.85.29-1.77-.07-2.6-.54-1.23-1.74-2.02-3.07-2.02-.47,0-.92.1-1.36.3-.93.42-2.4,2.82-3.54,5.32M94.72,228.64c1.98,1.27,4.42,2.53,5.67,2.53.05,0,.1,0,.15,0,.89-.14,1.66-.63,2.19-1.36.53-.74.74-1.63.6-2.53-.28-1.81-2.02-3.12-3.84-2.83-1,.16-3.04,2.1-4.78,4.21M101.47,208.79c-3.06,3.95-2.3,8.06-.21,11.96.1.01.19.04.29.06-.11-3.99.84-7.73,3.9-10.77,1.84-1.82,4-3,6.47-3.53-1.22-.4-2.58-.65-3.95-.65-1.93,0-4.61.51-6.49,2.93M117.12,210.12c-.51-.06-1.27-.17-2.16-.17-2.75,0-5.08.93-6.93,2.77-2.65,2.64-3.17,6.16-2.58,10.5.79.96,1.33,2.14,1.53,3.45.24,1.53-.02,3.06-.71,4.41,1.67.68,3.07,1.98,3.83,3.71.75,1.72.81,3.62.17,5.37,1.44.38,2.74,1.21,3.7,2.41.82,1.03,1.31,2.22,1.48,3.44,2.79,3.37,5.7,5.34,9.45,5.11,4.7-.3,7-3.67,7.99-5.11.17-.25.35-.51.57-.74.37-.44.92-.7,1.54-.7.35,0,.73.07,1.31.18.99.18,2.5.46,4.31.46,4.25,0,7.94-1.53,10.98-4.54,5.3-5.26,7.11-14.49,4.05-20.36-.01-.01-.02-.03-.03-.04v-.04c-.06-.07-.09-.16-.13-.23-.07-.13-.12-.26-.16-.39l-3.85-8.76c-.06-.12-.13-.23-.17-.37-.02-.07-.05-.13-.08-.19l-.04-.08c-.1-.22-.18-.44-.26-.67-2.53-5.96-10.05-10.42-17.39-9.96-8.17.53-11.71,6.31-13.23,8.79-.59.97-1.11,1.81-2.24,1.81h0s-.06,0-.1,0c-.02,0-.04,0-.06,0-.23,0-.47-.03-.81-.07M121.62,197.13c-1.32,1.86-2.07,3.94-2.24,6.12,2.48-3.09,6.85-6.94,13.96-7.4,5.58-.36,11.26,1.7,15.49,5.13-2.85-6.77-7.6-10.41-13.85-10.41-.4,0-.81.02-1.22.04-4.99.36-9.53,2.8-12.14,6.51M154.51,205.92c-.34.91-.32,1.89.07,2.78l4.42,10.05c.58,1.31,1.86,2.16,3.28,2.16.5,0,.99-.11,1.46-.32.69-.31,1.24-.82,1.61-1.46-.03-.06-.07-.12-.09-.18l-6.63-15.08c-.03-.06-.05-.13-.07-.2-.22-.05-.46-.08-.69-.08-.5,0-.99.11-1.46.31-.87.39-1.54,1.11-1.89,2.01M161.93,199.56c-.34.91-.31,1.89.07,2.78l6.62,15.08c.58,1.31,1.86,2.15,3.27,2.15.51,0,.99-.11,1.46-.31.87-.39,1.54-1.11,1.89-2.01.35-.9.31-1.89-.07-2.78l-6.62-15.07c-.58-1.31-1.87-2.15-3.28-2.15-.5,0-.99.1-1.46.31-.88.4-1.55,1.11-1.89,2.02M173.44,196.22c-.7.31-1.25.84-1.62,1.47.03.06.07.12.1.18l6.62,15.07c.03.07.05.13.07.2.23.05.46.08.7.08.5,0,.99-.1,1.46-.32,1.8-.81,2.62-2.97,1.82-4.79l-4.42-10.05c-.58-1.31-1.86-2.15-3.27-2.15-.5,0-.99.1-1.46.31M175.44,187.09c3.3-.35,6.5-1.11,9.55-2.23l-23.43-10.57c-.56-.05-1.09-.13-1.61-.22,3.27,5.05,8.53,10.36,15.49,13.03M142.81,181.65c3.15,2.01,10.49,5.31,24.9,5.6-6.86-4.6-11.55-11.32-13.75-16.55-1.82-4.33-4.68-11.88-8.48-27.34-.17-.7-.34-1.41-.5-2.14l-6.81,1.44,1.37,6.7-5.78,1.22-1.38-6.7-6.58,1.39c2.17,13.19,5.7,29.2,17.01,36.4M131.18,138.01l-1.37-6.7,5.78-1.22,1.37,6.7,6.79-1.44c-.03-.16-.06-.32-.09-.49-.44-2.21-.85-4.76-1.29-7.46-2.3-14.3-5.45-33.87-18.17-39.94-4.56-2.18-8.18-3.28-15.32-3.28-.75,0-1.55.01-2.39.04-.08,0-.15,0-.23,0,3.5,2.87,8.4,7.8,12.09,19.32,1.9,5.93,4.16,20.63,5.98,32.43.18,1.18.35,2.3.52,3.36l6.32-1.33ZM123.46,153c-.81-3.98-1.42-7.88-1.98-11.45-.18-1.14-.37-2.37-.57-3.67l-47.07-21.24-2.33,5.32-2.79,6.35,54.74,24.7ZM122.24,156.55l-52.86-23.85-4.05,9.23,2.33,1.05c.93.42,1.35,1.53.93,2.47l-3.57,8.14c-.42.94-1.51,1.37-2.44.95l-2.34-1.05-3.68,8.4,20.76,9.29,3.69-8.41-2.34-1.05c-.45-.21-.8-.58-.97-1.04-.18-.46-.16-.98.04-1.43l3.54-8.06c.42-.94,1.51-1.37,2.44-.95l2.33,1.05,1.07-2.41c.41-.94,1.5-1.37,2.44-.95l8.04,3.63c.44.2.8.57.97,1.03.18.47.16.98-.04,1.43l-1.04,2.36,2.33,1.05c.44.2.8.57.97,1.04.17.46.16.98-.04,1.43l-3.58,8.14c-.42.94-1.51,1.37-2.44.95l-2.33-1.05-3.68,8.39,20.76,9.29,3.69-8.41-2.34-1.05c-.93-.42-1.35-1.53-.93-2.47l3.54-8.07c.2-.45.57-.81,1.03-.99.46-.18.96-.16,1.41.04l2.33,1.05,4.03-9.18ZM71.22,113.42c.39-.88.41-1.87.07-2.78-.34-.9-1.01-1.62-1.89-2.02-.47-.21-.95-.31-1.45-.31-1.42,0-2.7.84-3.28,2.16l-6.62,15.07c-.39.89-.42,1.87-.07,2.77.34.91,1.02,1.62,1.89,2.02.46.21.95.31,1.45.31,1.42,0,2.7-.85,3.28-2.16l6.62-15.08ZM61.3,108.95c.03-.07.07-.12.1-.19-.36-.63-.91-1.14-1.61-1.46-.46-.21-.96-.31-1.46-.31-1.41,0-2.69.85-3.27,2.16l-4.42,10.05c-.8,1.83.01,3.98,1.81,4.8.46.2.95.31,1.46.31.24,0,.47-.03.69-.07.03-.07.05-.14.08-.2l6.62-15.07ZM51.46,108.13c-.09,0-.19-.02-.29-.02-2.06,0-3.93,1.23-4.76,3.14-.9,2.05-.4,4.39,1.09,5.89l3.96-9.01ZM112.35,102.72c.42-.03.84-.05,1.27-.07-2.97-6.69-5.69-11.13-7.88-13.94-1.59-1.53-3.03-2.54-4.12-3.44-.24-.19-.48-.39-.72-.57-1.33.06-4.05.46-6.92,2.53-.72.52-1.37,1-1.96,1.45-1.88,1.41-3.45,2.59-5.32,3.3.58.1,1.22.15,1.91.15,1.74,0,3.63-.37,5.62-1.1,1.05-.39,3.85-.72,5.06-.72,1.78,0,2.24,1,2.36,1.59.05.26.23,1.6-1.33,2.26-1.19.5-2.27,1.34-3.42,2.23-1.16.9-2.4,1.86-3.9,2.61.42.05.88.08,1.38.08,1.9,0,4.03-.42,6.34-1.25,1.12-.4,3.88-.66,4.95-.66,1.71,0,2.24.86,2.39,1.59.14.72-.1,1.72-1.26,2.21-1.11.47-2.15,1.38-3.25,2.34-1.31,1.14-2.83,2.46-4.79,3.26.66.23,1.4.39,2.24.39,1.81,0,3.75-.71,5.78-2.1l.25-.17c1.05-.74,2.5-1.75,5.34-1.97M151.46,151.67c2.28,8.17,4.08,13.13,5.42,16.41l38.26,17.26,15.48-6.98-59.16-26.69ZM192.54,151.08c-1.19,4.8-3.56,8.85-6.39,12.15l17.43,7.87c3.36-4.31,6.03-9.34,7.79-14.9.58-1.83,1.41-5.64,1.87-8.46-7.2.1-14.33.76-20.51,1.96l-.19,1.37M186.72,147.27c.88-.24,1.79-.47,2.72-.69v-.05c15.17-3.46,36.65-3.43,51.72.08v.04c.84.19,1.63.4,2.42.62.02-.01.04-.02.06-.03.62-.33.86-.73.99-1.02.4-.93.18-2.2-.05-3.03-7.97-2.5-18.39-3.89-29.47-3.89s-21.44,1.37-29.41,3.86c-.24.87-.44,2.14-.04,3.06.13.29.37.68.98,1.01.02.01.04.02.06.04M184.18,137.13c.4.74.78,1.5,1.12,2.24,8.22-2.47,18.72-3.82,29.82-3.82s21.65,1.35,29.87,3.83c.34-.74.71-1.49,1.11-2.23-.22.12-.48.19-.74.21-.32.04-.62.06-.91.06-1.69,0-3.08-.72-4.49-2.33-.63-.71-.62-1.79.01-2.5.2-.22.33-.48.39-.78.14-.75-.27-1.51-.97-1.8-.48-.2-.86-.59-1.05-1.08-.18-.49-.15-1.05.09-1.51.07-.14.12-.29.15-.44.16-.87-.41-1.72-1.27-1.88-.87-.17-1.7.42-1.86,1.28-.03.14-.03.3-.01.46.05.53-.12,1.04-.47,1.43-.35.39-.84.61-1.36.62-.76,0-1.41.55-1.55,1.31-.05.27-.03.55.05.81.27.82-.05,1.72-.79,2.18-.07.04-.15.08-.23.12-1.05.52-2.3.81-3.53.81-2.11,0-4.11-.83-5.62-2.34-.51-.51-.69-1.28-.44-1.97.2-.57.39-1.3.39-1.54,0-1.46-1.02-2.71-2.43-2.99-.51-.1-.96-.42-1.23-.86-.27-.45-.34-1-.19-1.51.09-.28.12-.56.12-.86,0-1.68-1.35-3.05-3.01-3.05s-3,1.37-3,3.05c0,.3.04.58.12.86.15.51.08,1.05-.19,1.5-.27.45-.72.77-1.23.87-1.41.28-2.43,1.53-2.43,2.99,0,.26.21,1.04.39,1.54.24.69.07,1.46-.44,1.97-1.5,1.5-3.5,2.33-5.62,2.33-1.27,0-2.56-.3-3.63-.85-.82-.42-1.21-1.39-.92-2.27.09-.26.1-.53.05-.8-.14-.75-.8-1.31-1.56-1.31-.52,0-1.01-.23-1.36-.62-.35-.39-.52-.91-.47-1.44.01-.16,0-.32-.02-.47-.16-.85-1-1.45-1.86-1.28-.42.08-.78.32-1.02.68-.24.36-.33.79-.25,1.21.03.15.08.29.15.44.24.47.27,1.02.09,1.51-.18.5-.56.88-1.04,1.08-.71.29-1.12,1.04-.97,1.79.06.3.18.57.38.79.64.7.65,1.78.02,2.5-1.42,1.61-2.8,2.33-4.49,2.33-.31,0-.63-.03-.97-.07-.24-.03-.48-.11-.69-.23M177.59,115.63c1.95,5.17,4.27,10.41,7.01,15.63.32.24.62.53.89.86.34.43.62.99.84,1.51.08-.03.17-.07.27-.13-.12-.31-.22-.65-.28-.98-.37-1.92.34-3.83,1.74-5.06-.19-1.32.11-2.66.86-3.78.79-1.18,1.99-1.98,3.38-2.25.09-.02.19-.03.28-.04.24-.04.48-.06.71-.06,2.45,0,4.58,1.72,5.14,4.12,1.74.62,3.09,2.14,3.45,4.05.05.27.08.54.09.81.26.04.52.06.78.06.6,0,1.39-.12,2.2-.6-.12-.49-.22-1.03-.22-1.5,0-2.63,1.5-4.96,3.73-6.08,0-.05,0-.09,0-.13,0-3.75,3.01-6.79,6.7-6.79s6.71,3.05,6.71,6.79c0,.05,0,.09,0,.13,2.24,1.12,3.73,3.46,3.73,6.08,0,.47-.1,1.01-.22,1.5.8.48,1.6.6,2.19.6.26,0,.53-.02.78-.07.01-.27.04-.54.09-.81.36-1.91,1.71-3.43,3.45-4.05.56-2.41,2.69-4.12,5.14-4.12.23,0,.47.02.71.06.09.01.19.02.28.04,2.78.53,4.64,3.21,4.24,6.02,1.4,1.22,2.1,3.14,1.74,5.06-.07.34-.16.67-.29.98.1.06.18.1.27.12.22-.51.5-1.08.84-1.5.27-.34.57-.62.9-.87,2.73-5.21,5.05-10.45,7-15.6-4.98-1.39-10.84-2.47-17.24-3.21-6.36-.73-13.27-1.13-20.35-1.13s-13.93.39-20.28,1.11c-6.4.73-12.27,1.82-17.25,3.2M171.52,104.34c1.27,2.53,2.59,5.41,3.54,8.12,10.38-3.11,24.83-4.88,40.05-4.88s29.73,1.78,40.12,4.9c.95-2.72,2.27-5.6,3.55-8.14-.65.14-1.46.42-1.94,1.04-.31.39-.74,1.51-.93,2.17-.2.7-.8,1.22-1.52,1.32-2.85.4-5.6-.58-7.45-2.69-.63-.72-.62-1.8.02-2.5.31-.35.52-.77.61-1.23.22-1.19-.42-2.39-1.53-2.83-.48-.2-.86-.59-1.04-1.08-.18-.5-.15-1.04.08-1.51.11-.23.2-.46.24-.69.12-.67-.01-1.34-.39-1.91-.38-.56-.95-.94-1.61-1.06-1.36-.27-2.68.66-2.93,2.02-.04.23-.06.48-.03.73.05.52-.12,1.04-.47,1.44-.35.39-.84.61-1.36.61-1.2,0-2.23.87-2.45,2.06-.08.43-.05.87.08,1.28.3.92-.15,1.93-1.03,2.31-1.27.63-2.78.97-4.26.97-2.55,0-4.96-1-6.77-2.81-.57-.57-.71-1.44-.36-2.16.29-.6.44-1.25.44-1.93,0-2.08-1.46-3.88-3.48-4.28-.51-.1-.95-.42-1.22-.86-.27-.45-.34-1-.19-1.5.12-.41.18-.82.18-1.24,0-2.4-1.93-4.36-4.3-4.36s-4.3,1.96-4.3,4.36c0,.42.06.83.18,1.22.15.51.08,1.05-.19,1.51-.27.45-.72.77-1.23.87-2.02.39-3.48,2.19-3.48,4.28,0,.64.13,1.25.39,1.83.16.29.24.61.24.93,0,.51-.2,1.01-.6,1.37-1.81,1.79-4.2,2.77-6.73,2.77-1.52,0-3.08-.36-4.37-1.02-.82-.42-1.21-1.38-.92-2.26.14-.4.16-.84.08-1.28-.22-1.18-1.25-2.05-2.45-2.06-.52,0-1.02-.22-1.37-.62-.35-.39-.52-.92-.46-1.44.02-.25.01-.49-.03-.73-.26-1.35-1.58-2.28-2.93-2.02-.66.13-1.23.51-1.61,1.07-.38.56-.51,1.24-.39,1.91.05.23.12.46.24.69.24.47.26,1.02.08,1.51-.18.49-.56.88-1.04,1.08-1.11.45-1.76,1.64-1.53,2.83.09.46.3.88.6,1.23.66.74.63,1.86-.04,2.56-1.59,1.78-3.7,2.72-6.12,2.72-.42,0-.85-.03-1.27-.09-.72-.1-1.31-.62-1.52-1.32-.19-.63-.62-1.76-.93-2.16-.49-.62-1.29-.91-1.94-1.04M203.76,77.05c-12.47.48-24.45,1.75-34.3,3.82.51,5.99,1.62,12.76,3.45,19.96,1.15.34,2.45.97,3.43,2.21.48.6.87,1.45,1.15,2.16.77-.04,1.45-.26,2.06-.63-.2-.45-.35-.93-.45-1.43-.44-2.34.48-4.69,2.26-6.11h0c-.31-1.65.03-3.32.96-4.71.93-1.39,2.34-2.33,3.97-2.64.38-.07.77-.11,1.16-.11,2.97,0,5.52,2.15,6.08,5.1h0c2.17.66,3.87,2.5,4.31,4.84.04.21.06.42.08.63.02.24.03.47.02.71.48.12.98.18,1.48.18.89,0,2.1-.19,3.29-.99-.19-.7-.29-1.42-.29-2.17,0-3.25,1.91-6.12,4.74-7.4-.01-.16-.01-.32-.01-.48,0-4.46,3.59-8.1,7.99-8.1s7.99,3.64,7.99,8.1c0,.16,0,.32-.01.48,2.82,1.28,4.74,4.15,4.74,7.4,0,.73-.1,1.46-.29,2.16,1.18.81,2.4,1,3.29,1,.5,0,1-.06,1.48-.18,0-.24,0-.47.02-.71.02-.21.04-.42.08-.63.44-2.34,2.14-4.18,4.31-4.84h0c.55-2.96,3.11-5.11,6.08-5.11.39,0,.78.04,1.17.11,1.63.31,3.04,1.25,3.96,2.64.93,1.39,1.27,3.06.96,4.71,1.78,1.42,2.69,3.77,2.25,6.11-.1.49-.25.98-.45,1.43.61.38,1.3.59,2.06.63.28-.71.68-1.56,1.15-2.16.98-1.24,2.28-1.87,3.43-2.21,1.84-7.2,2.95-13.98,3.46-19.96-9.84-2.07-21.82-3.34-34.3-3.82-7.53-.29-15.24-.29-22.77,0M167.71,77.42c26.72-5.86,68.16-5.86,94.88,0,.48-3.38,1.54-6.84,2.6-9.72-.5.25-1,.64-1.28,1.22-.54,1.11-1.67,3.47-1.67,3.47-.25.52-.72.89-1.27,1.01-2.98.66-4.83.04-7.36-2.43-.68-.67-.75-1.74-.17-2.5.38-.5.62-1.1.69-1.73.18-1.63-.81-3.17-2.36-3.66-.49-.16-.9-.52-1.12-.99-.22-.48-.23-1.02-.03-1.51.13-.32.21-.64.25-.96.21-1.88-1.14-3.59-3-3.79-1.86-.22-3.54,1.15-3.74,3.03-.03.32-.02.65.04.98.09.52-.04,1.05-.36,1.47-.32.42-.79.68-1.32.72-1.61.13-2.91,1.41-3.09,3.04-.06.56.01,1.14.22,1.66.11.24.16.5.16.77,0,.78-.47,1.46-1.17,1.74-3.91,1.72-9.62,1.48-12.6-2.4-.48-.62-.52-1.46-.13-2.11.33-.73.5-1.52.5-2.34,0-2.69-1.88-5.01-4.49-5.52-.51-.1-.95-.41-1.23-.86-.27-.45-.34-1-.2-1.5.15-.52.23-1.06.23-1.59,0-3.1-2.49-5.62-5.56-5.62-2.28,0-4.23,1.39-5.09,3.38-.3.69-.46,1.44-.46,2.24,0,.53.08,1.06.23,1.59.09.3.1.6.04.9-.04.21-.12.42-.24.61-.27.45-.72.77-1.22.86-2.14.42-3.79,2.06-4.32,4.12-.11.45-.18.92-.18,1.39,0,.85.19,1.67.55,2.43.34.64.29,1.44-.17,2.04-2.98,3.87-8.7,4.12-12.61,2.39-.12-.05-.23-.11-.34-.18-.73-.5-1.02-1.45-.67-2.28.22-.53.3-1.12.24-1.71-.18-1.63-1.48-2.91-3.09-3.04-.52-.04-.99-.3-1.31-.72-.32-.42-.45-.95-.36-1.47.06-.33.07-.66.03-.98-.2-1.88-1.88-3.25-3.74-3.04-1.86.21-3.21,1.92-3,3.8.03.32.12.64.25.96.2.48.19,1.03-.03,1.51-.22.48-.63.84-1.13.99-1.54.49-2.53,2.03-2.35,3.66.07.63.31,1.23.69,1.73.58.75.5,1.83-.18,2.49-2.53,2.47-4.39,3.09-7.36,2.43-.56-.12-1.02-.49-1.27-1.01,0,0-1.13-2.36-1.66-3.47-.28-.59-.78-.97-1.28-1.22,1.06,2.88,2.12,6.34,2.6,9.72M170.37,62.02c-.38,1.4-.67,3.05-.88,4.89.07.12.15.24.21.37.33.68.88,1.84,1.26,2.63.71.08,1.27-.05,2.08-.67-.28-.66-.46-1.36-.54-2.07-.31-2.79,1.03-5.45,3.29-6.89-.01-.07-.02-.15-.03-.23-.43-3.93,2.38-7.49,6.26-7.92,3.87-.43,7.39,2.4,7.82,6.34.01.07.02.15.02.23,2.52.89,4.4,3.19,4.71,5.98.06.54.06,1.08,0,1.61,1.95.45,4.45.35,6.1-.99-.3-.93-.45-1.9-.45-2.89,0-.82.1-1.62.3-2.38.73-2.83,2.73-5.17,5.41-6.29-.03-.27-.03-.54-.03-.81,0-1.32.27-2.58.76-3.73,1.02-2.38,2.99-4.24,5.42-5.11.96-.34,1.99-.54,3.07-.54s2.11.2,3.08.54c3.59,1.28,6.17,4.75,6.17,8.82,0,.27-.01.54-.03.82,3.4,1.42,5.71,4.81,5.71,8.66,0,1-.15,1.96-.44,2.89,1.65,1.34,4.16,1.44,6.1.99-.06-.53-.06-1.07,0-1.61.31-2.79,2.19-5.09,4.71-5.98,0-.08.01-.16.02-.23.44-3.94,3.95-6.78,7.83-6.34,3.88.44,6.68,3.99,6.25,7.93,0,.08-.02.16-.03.24,2.27,1.43,3.6,4.09,3.29,6.88-.08.72-.26,1.42-.54,2.07.81.62,1.37.75,2.08.67.38-.79.94-1.95,1.27-2.63.06-.13.14-.25.21-.37-.2-1.83-.5-3.48-.87-4.88-3.77-13.95-18.94-28.03-44.31-28.21-.16,0-.31,0-.48,0s-.31,0-.47,0c-25.38.18-40.54,14.25-44.31,28.21M215.15,19.74c-2.71,0-4.93,2.25-4.93,5s2.22,5,4.93,5,4.95-2.25,4.95-5-2.22-5-4.95-5M244.37,163.13c-2.8-3.28-5.13-7.3-6.31-12.05l-.04-.2-.15-1.12c-6.17-1.23-13.3-1.9-20.51-2.01.46,2.82,1.29,6.62,1.87,8.45,1.75,5.53,4.39,10.51,7.71,14.8l17.44-7.87M223.48,172.56c-3.33-4.46-5.98-9.58-7.76-15.22-.13-.4-.27-.9-.42-1.45-.14.55-.29,1.05-.41,1.45-1.8,5.68-4.48,10.84-7.84,15.32l8.1,3.65,8.33-3.76ZM195.37,189.33l5.12,11.66,73.31-33.07c1.34-3.31,3.14-8.28,5.39-16.4l-83.81,37.82ZM285.13,143.35c-3.8,15.46-6.66,23-8.48,27.34-2.2,5.23-6.9,11.96-13.75,16.56,14.4-.29,21.74-3.59,24.89-5.6,11.31-7.19,14.84-23.21,17.01-36.4l-6.58-1.39-1.37,6.7-5.78-1.22,1.38-6.7-6.81-1.44c-.16.73-.33,1.44-.5,2.14M286.91,135.05c-.03.11-.04.2-.07.3l6.79,1.44,1.37-6.7,5.78,1.21-1.37,6.7,6.31,1.33c.16-1.06.34-2.19.52-3.37,1.82-11.8,4.09-26.49,5.99-32.42,3.69-11.53,8.59-16.45,12.09-19.32-.07,0-.15,0-.22,0-.83-.03-1.64-.04-2.39-.04-7.13,0-10.76,1.1-15.32,3.28-12.71,6.07-15.86,25.64-18.17,39.94-.43,2.7-.84,5.26-1.28,7.47l-.03.18M328.98,85.28c-.83.68-1.86,1.43-3,2.42-2.31,2.71-5.36,7.4-8.71,14.95.43.01.85.04,1.27.07,2.84.22,4.28,1.23,5.34,1.97l.25.18c2.03,1.39,3.98,2.1,5.78,2.1.83,0,1.58-.15,2.24-.39-1.95-.79-3.47-2.11-4.79-3.26-1.11-.96-2.15-1.87-3.25-2.34-1.15-.49-1.4-1.5-1.26-2.21.14-.72.67-1.59,2.39-1.59,1.07,0,3.82.26,4.95.66,2.31.83,4.44,1.25,6.34,1.25h0c.49,0,.95-.03,1.37-.08-1.5-.75-2.74-1.71-3.9-2.61-1.14-.88-2.23-1.72-3.41-2.22-1.56-.66-1.38-2-1.33-2.26.11-.6.57-1.59,2.36-1.59,1.19,0,4,.33,5.06.72,1.98.73,3.88,1.1,5.62,1.1.69,0,1.32-.06,1.89-.16-1.87-.7-3.43-1.87-5.31-3.29-.6-.45-1.25-.94-1.97-1.45-3.09-2.22-6-2.52-7.2-2.53-.25.19-.49.38-.73.58M309.72,137.74c-.21,1.35-.41,2.64-.59,3.82-.55,3.53-1.16,7.38-1.95,11.3l54.41-24.55-.2-.47-4.92-11.19-46.74,21.09ZM359.01,110.64c-.34.91-.31,1.89.08,2.78l6.62,15.08c.57,1.31,1.86,2.16,3.28,2.16.5,0,.99-.11,1.45-.31.88-.4,1.55-1.11,1.89-2.02.34-.9.32-1.89-.07-2.77l-6.63-15.08c-.57-1.31-1.86-2.16-3.27-2.16-.5,0-.99.1-1.45.31-.88.4-1.54,1.11-1.89,2.02M370.51,107.3c-.7.31-1.24.84-1.61,1.46.03.07.08.12.1.19l6.63,15.07c.03.06.05.13.07.2.22.04.46.07.69.07.5,0,.99-.11,1.45-.31,1.8-.81,2.62-2.97,1.82-4.79l-4.42-10.05c-.57-1.31-1.86-2.16-3.27-2.16-.5,0-.99.1-1.46.32M379.14,108.12c-.1,0-.2.01-.29.02l3.96,9.01c1.49-1.5,2-3.84,1.09-5.9-.84-1.9-2.71-3.14-4.76-3.14M361.71,145.46c-.41-.94,0-2.05.94-2.47l2.33-1.05-4.05-9.23-52.86,23.85,4.03,9.18,2.33-1.05c.45-.21.96-.22,1.41-.04.46.18.82.53,1.02.99l3.54,8.07c.42.94,0,2.05-.93,2.47l-2.34,1.05,3.69,8.41,20.76-9.29-3.69-8.39-2.33,1.05c-.93.42-2.02,0-2.43-.95l-3.57-8.14c-.2-.45-.21-.97-.04-1.43.17-.46.53-.84.98-1.04l2.32-1.05-1.04-2.36c-.2-.45-.22-.97-.04-1.43.17-.46.52-.84.97-1.03l8.04-3.63c.93-.42,2.02,0,2.44.95l1.06,2.41,2.32-1.05c.93-.42,2.02,0,2.43.95l3.55,8.06c.2.45.21.97.03,1.43-.17.46-.52.83-.97,1.04l-2.34,1.05,3.7,8.41,20.75-9.29-3.69-8.4-2.32,1.05c-.93.42-2.02,0-2.44-.95l-3.58-8.14ZM255.16,187.09c6.97-2.67,12.23-7.98,15.5-13.03-.63.11-1.29.19-1.97.25l-23.24,10.48c3.1,1.16,6.35,1.94,9.71,2.3M247.72,208.11c-.8,1.82.01,3.98,1.82,4.79.47.21.95.32,1.46.32.24,0,.47-.03.7-.08.03-.06.05-.12.08-.19l6.62-15.07c.03-.06.07-.12.1-.18-.37-.63-.91-1.15-1.61-1.46-.46-.21-.96-.32-1.45-.32-1.41,0-2.7.85-3.27,2.15l-4.42,10.05ZM255.14,214.46c-.39.89-.42,1.88-.07,2.78.34.9,1.01,1.62,1.89,2.01.46.21.95.31,1.46.31,1.41,0,2.7-.84,3.27-2.15l6.62-15.08c.39-.88.41-1.87.07-2.78-.34-.9-1.01-1.62-1.89-2.01-.46-.21-.96-.32-1.46-.32-1.42,0-2.7.85-3.27,2.15l-6.62,15.07ZM265.05,218.94c-.03.06-.07.12-.1.18.37.64.93,1.16,1.61,1.46.46.21.96.32,1.46.32,1.41,0,2.7-.85,3.27-2.16l4.42-10.05c.38-.88.41-1.87.07-2.78-.34-.9-1.01-1.62-1.89-2.01-.46-.21-.96-.31-1.46-.31-.24,0-.47.03-.69.08-.03.07-.05.14-.08.2l-6.63,15.08ZM274.96,219.61c-.04.13-.09.27-.16.39-.04.08-.08.16-.12.24v.02s-.02.02-.02.03c-3.08,5.87-1.28,15.11,4.03,20.37,3.03,3.01,6.73,4.54,10.98,4.54,1.82,0,3.32-.28,4.32-.46.58-.1.96-.18,1.31-.18.63,0,1.17.26,1.54.7.22.23.41.49.58.74.98,1.44,3.29,4.81,7.98,5.11,3.74.24,6.66-1.74,9.45-5.11.18-1.22.67-2.41,1.48-3.43.96-1.2,2.26-2.03,3.7-2.41-.64-1.75-.58-3.66.18-5.37.76-1.73,2.15-3.03,3.83-3.71-.7-1.35-.96-2.88-.71-4.41.2-1.32.75-2.5,1.53-3.45.59-4.34.08-7.86-2.58-10.5-1.84-1.84-4.17-2.77-6.92-2.77-.9,0-1.65.1-2.16.17-.33.04-.57.07-.81.07-.03,0-.04,0-.07,0-.04,0-.07,0-.1,0-1.14,0-1.65-.84-2.25-1.81-1.52-2.47-5.06-8.26-13.23-8.79-7.35-.47-14.85,3.99-17.39,9.94-.07.23-.16.46-.26.68l-.03.08c-.02.06-.05.13-.07.2-.05.13-.11.25-.18.37l-3.85,8.75ZM296.55,190.62c-6.82-.49-12.03,3.15-15.06,10.37,3.9-3.17,9.06-5.17,14.2-5.17.43,0,.86.01,1.29.04,7.11.46,11.47,4.31,13.96,7.4-.18-2.19-.93-4.26-2.24-6.12-2.61-3.71-7.15-6.15-12.14-6.51M322.35,205.87c-1.38,0-2.73.25-3.95.65,2.46.53,4.63,1.71,6.46,3.53,3.06,3.04,4.01,6.78,3.9,10.77.1-.03.2-.05.3-.06,2.08-3.91,2.84-8.01-.21-11.96-1.88-2.42-4.56-2.93-6.49-2.93M335.58,228.64c-1.73-2.11-3.77-4.05-4.77-4.21-.18-.03-.36-.04-.53-.04-1.64,0-3.06,1.24-3.31,2.88-.14.9.07,1.8.6,2.53.53.74,1.31,1.22,2.19,1.36.06,0,.1,0,.16,0,1.26,0,3.69-1.26,5.67-2.53M326.31,240.95c1.53,0,3.65-.55,5.24-1.05-1.14-2.49-2.61-4.9-3.53-5.31-.44-.2-.89-.3-1.36-.3-1.33,0-2.53.79-3.08,2.02-.36.83-.38,1.75-.06,2.6.32.85.95,1.52,1.77,1.89.09.04.38.14,1.03.14M346.1,259.48c-4.88-4.05-10.5-7.89-16.82-11.47.37,1.69.56,3.23.65,4.01.08.77-.31,1.47-.93,1.82,22.58,13.37,34.9,30.02,34.9,47.5,0,7.45-2.25,14.76-6.57,21.72,2-1.56,4.59-3.03,7.96-4.06,2.49-5.72,3.76-11.64,3.76-17.66,0-9.78-3.36-19.25-9.79-28.09-2.91-1.82-5.79-4.12-8.38-7.03-1.85-2.07-3.43-4.32-4.77-6.75M366.36,257.42c-11.31-4.77-18.06-12.08-21.7-17.27.54,9.6,3.53,17.5,8.95,23.57,7.23,8.11,17.14,11.07,22.73,12.13v-11.46c-1.98-2.47-5.11-4.92-9.97-6.97M348.68,217.88c3.36,4.7,7.41,12.43,9.82,24.26.71,3.52,2.05,6.5,3.7,9.03,1.71,1,3.56,1.94,5.57,2.79,3.62,1.52,6.4,3.28,8.56,5.12v-4.5c-.37-2.9-1.05-6.19-2.24-9.63-4.2-12.18-12.73-21.26-25.41-27.07M364.26,195.58c-2.59,9.33-3.45,18-2.61,25.85,7.57,5.96,12.05,12.88,14.68,19.06v-11.33c-.1-.17-.2-.33-.3-.5-8.24-13.27-11.03-24.86-11.77-33.08M376.64,284.46c-.19-.29-.31-.65-.31-1.03v-3.76c-2.68-.46-6.41-1.35-10.46-3.03,4.51,7.86,6.86,16.16,6.86,24.7,0,5.67-1.04,11.24-3.06,16.64,1.01-.16,2.06-.3,3.17-.39,21.64-1.77,31.19-5.72,31.29-5.76.76-.32,1.65-.09,2.16.57.02.02.03.05.05.08,5.24-4.69,7.89-9.71,9.24-13.61,1.68-4.85,1.89-9.5,1.4-13.2-.23-1.75-.63-3.29-1.1-4.54-1.23-3.25-4.08-6.64-7.76-9.19v13.28c.02.46-.01.75-.01.8h0c-.47,4.06-4.22,11.69-15.12,11.69-9.8,0-15.07-6.42-16.34-13.25M400.24,276.82c1.75.57,3.12,1.28,4.19,2.06v-8.99c-3.11-1.25-6.44-1.94-9.5-1.97v8.22c1.36-.11,3.18-.01,5.32.68M392.03,279.91c-.5-.35-.8-.92-.8-1.52v-10.13c-.55.12-1.08.26-1.56.44-2.95,1.11-9.81,4.58-9.64,12.77.14,6.23,4.19,12.51,12.95,12.51,9.92,0,11.31-7.34,11.45-8.3v-.45c-.1-.9-.79-3.37-5.32-4.85-3.15-1.03-5.29-.27-5.38-.24-.56.21-1.2.13-1.69-.23M380.02,270.93c2.04-2.45,4.87-4.43,8.36-5.74,1.05-.4,2.21-.66,3.46-.83,4.85-.91,10.12-.03,15.18,2.58l1.09.49v.1c3.7,2.11,6.85,4.98,9.02,8.15v-49.13c-1.54-2.05-8.57-10.61-18.56-10.61s-16.65,5.52-18.55,7.22v47.76ZM382.4,187.61c-3.59,9.99-3.46,18.94.4,26.68.3.61.63,1.2.96,1.75,1.69-.92,3.67-1.8,5.91-2.49-.81-2.95-1.26-6.73-.93-11.52-3.4-6.49-5.3-11.17-6.34-14.43M393.86,193.26c-2.14,9.1-1.73,15.3-.56,19.42,1.65-.29,3.42-.47,5.28-.47.93,0,1.82.06,2.69.17.46-2.9,1.4-6.13,3.02-9.7,1.43-3.15,2.68-6.07,3.77-8.78.27-14.02-5.54-28.18-10.82-38.07.67,8.05.54,20.78-3.39,37.43M417.59,177.65c-1.55,5.7-4.48,14.58-9.94,26.6-1.51,3.32-2.35,6.28-2.75,8.9,3.99,1.2,7.32,3.37,9.87,5.52.45-.78.88-1.6,1.29-2.5,5.52-11.93,4.3-26.53,1.53-38.53M319.21,244.92c-1.17,1.46-.94,3.61.49,4.79.45.37,2.01.8,4.93.8.48,0,.94-.01,1.35-.03-.46-2.7-1.27-5.41-2.06-6.06-.61-.49-1.33-.76-2.11-.76-1.02,0-1.97.46-2.61,1.26M315.69,250.58c-2.85,2.74-6.23,4.55-10.51,4.27-2.95-.18-5.22-1.26-6.93-2.53.49,1.12,1.16,2.25,2.02,3.25,1.28,1.51,3.54,3.33,6.66,3.12,4.94-.34,7.45-3.67,8.91-7.86-.05-.08-.1-.17-.15-.25M160.81,228.24c-.31,5.49-2.63,11.16-6.62,15.11-3.75,3.72-8.31,5.6-13.56,5.6-.4,0-.79-.01-1.17-.03,2.11,1.62,4.66,2.49,7.48,2.49,4.05,0,8.2-1.78,11.38-4.88,4.96-4.84,5.77-11.16,2.49-18.29M276.11,243.34c-3.98-3.95-6.3-9.62-6.62-15.1-3.28,7.13-2.47,13.45,2.49,18.29,3.18,3.09,7.33,4.88,11.37,4.88,2.81,0,5.37-.86,7.48-2.49-.38.02-.77.03-1.18.03-5.25,0-9.81-1.89-13.56-5.6M262.46,222.06s.03,0,.05,0c0-.01-.01-.02-.02-.03-.01,0-.02.01-.03.03M234.82,198.8l-2.07,4.72c.9,2.16,2.53,3.85,4.65,4.81,1.87.85,3.98,1.02,5.97.49l.98-2.23s0,0,0-.01l2.04-4.64,3.36-7.65c-.95-1.85-2.47-3.31-4.35-4.16-2.1-.94-4.48-1.04-6.64-.29l-3.93,8.95ZM234.82,189.59l-15.13,6.83,10.13,4.57,5-11.4ZM185.96,206.59s0,.01,0,.02l.98,2.22c1.99.52,4.09.36,5.97-.49,2.12-.96,3.75-2.65,4.65-4.81l-1.08-2.44-4.93-11.22c-2.16-.75-4.54-.66-6.64.29-1.88.85-3.4,2.31-4.36,4.16l1.32,3.01,4.08,9.28ZM186,212.44c-.69,1.67-1.98,3.09-3.73,3.88-.94.42-1.94.64-2.96.64-.07,0-.14-.01-.22-.01-.07.55-.21,1.11-.4,1.65-.29.77-.71,1.46-1.21,2.08,12.18-1.54,24.81-2.34,37.67-2.34s25.49.79,37.68,2.34c-.51-.62-.92-1.31-1.21-2.08-.21-.54-.33-1.09-.41-1.65-.07,0-.14.01-.21.01-1.02,0-2.02-.21-2.95-.64-1.76-.79-3.04-2.21-3.74-3.88-1.06.28-2.15.42-3.24.42-1.79,0-3.52-.37-5.16-1.12-2.98-1.34-5.33-3.83-6.59-6.89l-14.16-6.39-14.16,6.39c-1.25,3.06-3.61,5.55-6.58,6.89-1.64.74-3.38,1.12-5.16,1.12-1.1,0-2.19-.14-3.24-.42M167.8,222.06s.03,0,.05,0c0,0-.02-.01-.03-.02,0,.01-.01.02-.02.03M215.15,222.07c-17.66,0-34.88,1.51-51.07,4.42.82,1.75,1.4,3.41,1.78,4.97,15.63-2.75,32.24-4.18,49.29-4.18s33.66,1.43,49.29,4.18c.38-1.56.96-3.22,1.78-4.97-16.19-2.9-33.41-4.42-51.07-4.42M104.31,250.48c.41.02.87.03,1.35.03,2.92,0,4.48-.43,4.93-.8,1.44-1.18,1.66-3.33.5-4.78-.64-.8-1.59-1.26-2.61-1.26-.78,0-1.51.26-2.11.76-.79.64-1.6,3.36-2.06,6.06M125.13,254.85c-4.28.28-7.66-1.52-10.51-4.27-.05.08-.1.17-.15.25,1.47,4.19,3.97,7.52,8.91,7.86.18.01.35.02.52.02h0c2.88,0,4.93-1.7,6.14-3.13.86-1.01,1.53-2.13,2.02-3.25-1.71,1.27-3.99,2.35-6.93,2.53M129.11,357.69c-.16-.42-.36-.82-.61-1.2-.22-.34-.47-.67-.75-.99-.94-1.02-2.22-1.88-3.79-2.48-.33-.05-1.23-.17-2.5-.17-1.02,0-2.24.08-3.58.3,3.61,1.61,7.35,3.13,11.22,4.54M171.84,368.42c-2.34-3.79-5.78-5.97-9-7.51-3.76-1.8-6.24-2.28-6.56-2.33-1.07-.12-2.05-.08-2.93.09-2.54.48-4.31,1.96-5.46,3.36-.36.44-.66.86-.9,1.25,7.95,2.1,16.25,3.82,24.85,5.14M283.32,363.28c-.24-.38-.54-.81-.9-1.25-1.15-1.4-2.92-2.88-5.47-3.36-.88-.17-1.85-.21-2.92-.09-.31.05-2.8.53-6.56,2.33-3.22,1.55-6.66,3.72-9,7.51,8.59-1.33,16.9-3.05,24.85-5.14M312.42,353.16c-1.34-.22-2.56-.3-3.58-.3-1.27,0-2.17.12-2.51.17-1.56.6-2.85,1.46-3.79,2.49-.29.31-.53.64-.74.98-.25.39-.45.79-.61,1.21,3.87-1.41,7.61-2.92,11.22-4.54M305.45,349.36c6.08-2.48,24.57-10.05,36.68-20.15,1.25-1.04,3.76-2.09,6.56-2.09.37,0,.73.02,1.08.05,6.83-8.17,10.42-16.91,10.42-25.83,0-17.37-13.58-34.07-38.34-47.23-1.21-.13-2.23-.36-3.05-.69-1.87,4.44-5.21,8.56-11.64,9-.26.02-.52.03-.77.03-3.38,0-6.48-1.53-8.94-4.43-1.65-1.95-2.87-4.42-3.5-6.85-2.9,2.59-6.53,3.98-10.61,3.98-4.99,0-10.07-2.16-13.93-5.92-2.33-2.28-5.97-7.01-5.55-14.07-15.44-2.72-31.86-4.14-48.73-4.14s-33.28,1.42-48.72,4.14c.42,7.07-3.22,11.8-5.56,14.07-3.86,3.76-8.94,5.92-13.93,5.92-4.06,0-7.71-1.39-10.6-3.98-.62,2.44-1.85,4.91-3.5,6.85-2.47,2.9-5.56,4.43-8.94,4.43h0c-.25,0-.51,0-.77-.03-6.43-.44-9.78-4.56-11.64-9-.82.33-1.84.56-3.05.69-24.75,13.16-38.34,29.86-38.34,47.23,0,8.91,3.59,17.66,10.42,25.83.36-.03.72-.05,1.09-.05,2.8,0,5.32,1.05,6.56,2.09,12.1,10.1,30.59,17.67,36.67,20.15l.19.07c.1.03.19.07.28.12,4.6,1.78,7.57,5.44,7.86,9.58,3.29,1.12,6.68,2.17,10.13,3.14,1.86-3.58,6.26-8.25,13.44-7.4.01,0,.02,0,.03,0,0,0,.02,0,.03,0h.01c2.62.4,10.85,1.93,13.47,2.46l.94.19c10.74,2.16,22.9,4.62,43.85,4.64h.2c20.94-.03,33.12-2.48,43.85-4.64l.93-.19c2.62-.53,10.83-2.06,13.46-2.46,0,0,0,0,.01,0h0s.02,0,.03,0c.01,0,.02,0,.03,0,7.17-.84,11.58,3.82,13.44,7.4,3.45-.97,6.83-2.02,10.14-3.14.29-4.18,3.31-7.88,7.99-9.64,0,0,.01,0,.01,0l.3-.12M380.91,332.41c6.51-2.87,12.87-8,18.86-15.29-5.12,1.36-13.81,3.15-26.63,4.2-9.91.81-14.66,5.06-16.84,8.15,2.47,1.24,4.59,2.59,6.4,4.03,2.86-.85,6.6-1.45,11.45-1.45,2.12,0,4.39.12,6.76.35M430.18,334.51c.3.8.03,1.7-.65,2.19-13.88,10.03-27.37,15.6-40.18,16.62,5.29,4.08,10.47,10.44,14.57,20.28.16.28.24.59.24.93,0,1.04-.82,1.87-1.85,1.87h-.01c-.47,0-.94-.18-1.3-.54-.13-.12-4.48-3.97-22.1-8.04-3.32-.77-6.01-1.88-8.22-3.16-1.66,1.71-6.37,6.08-16.55,12.27-16.77,10.21-25.45,12.66-26.32,12.89-1.54.57-3.01.86-4.39.86s-2.68-.28-3.88-.86c-3.17-1.5-4.78-4.55-5.57-6.85-2.49-7.24,1.52-11.28,1.69-11.45.17-.16.37-.3.59-.39,4.46-1.82,7.27-3.03,11.61-5.25-.27-.57-.55-1.15-.86-1.75-.58-1.11-1.22-2.11-1.88-3.02-.07.03-.13.07-.2.1-2.71,1.38-5.51,2.7-8.39,3.96-5.09,8.72-11.03,14.49-17.1,18.21,1.93.91,3.84,1.94,5.7,3.14,10.17,6.56,21.57,7.27,26,7.27,1.54,0,2.45-.08,2.46-.08.97-.09,1.85.61,1.99,1.59.14.98-.5,1.91-1.46,2.1-13.12,2.65-25.04,3.99-35.43,3.99-1.39,0-2.75-.03-4.06-.07,4.58,6.42,7.29,13.93,8,22.33.03.13.04.26.04.4,0,1.03-.81,1.86-1.82,1.87h-.03c-.71,0-1.38-.42-1.68-1.11-.06-.12-3.51-7.37-17.47-13.65-4.7-2.11-8.62-4.35-11.93-6.61-6.44,1.9-14.63,4.02-28.71,4.02-4.38,0-8.48-4.11-11.16-7.57-.19,6.87.93,12.36,3.33,16.39,3.67.11,5.32-.35,7.37-.93.8-.23,1.63-.46,2.64-.68.16-.03.33-.04.5-.04.5.03,4.94.36,7.47,3.05,2.79,2.98,2.78,6.84-.01,9.6,0,0-.01.01-.02.01-.06.06-.12.11-.19.16-.03.02-.06.04-.09.07-.05.03-.11.06-.16.09-.05.03-.1.05-.15.07-.15.06-3.81,1.5-9.13,1.5-4.46,0-8.74-1-12.72-2.97-7.5-3.7-11.5-9.51-13.52-13.68-2.02,4.17-6.02,9.98-13.52,13.68-3.98,1.97-8.26,2.97-12.72,2.97-5.32,0-8.98-1.44-9.13-1.5h0s-.09-.04-.13-.07c-.06-.03-.13-.06-.18-.1-.03-.02-.05-.04-.08-.06-.07-.05-.14-.1-.2-.16,0,0-.01,0-.02-.01-2.79-2.77-2.8-6.63-.01-9.6,2.52-2.7,6.97-3.02,7.47-3.05.16,0,.33,0,.49.04,1.01.22,1.84.46,2.64.68,2.05.58,3.7,1.04,7.37.93,2.4-4.03,3.51-9.52,3.32-16.39-2.68,3.46-6.78,7.57-11.16,7.57-14.17,0-22.38-2.14-28.83-4.05-3.32,2.28-7.26,4.53-11.99,6.65-14,6.3-17.44,13.57-17.47,13.65-.31.68-.98,1.1-1.68,1.1-.15,0-.31-.02-.46-.06-.87-.23-1.45-1.05-1.37-1.96.68-8.49,3.4-16.09,8.02-22.57-1.31.05-2.66.07-4.07.07h0c-10.39,0-22.31-1.34-35.42-3.99-.96-.19-1.61-1.12-1.46-2.1.14-.98,1.01-1.69,1.99-1.59,0,0,.92.08,2.46.08,4.43,0,15.82-.7,25.99-7.27,2-1.3,4.06-2.4,6.15-3.36-6.1-3.67-12.11-9.36-17.28-17.95-2.91-1.27-5.74-2.6-8.49-4-.06-.03-.13-.07-.19-.1-.66.91-1.29,1.91-1.88,3.02-.31.6-.6,1.18-.86,1.75,4.35,2.22,7.16,3.43,11.61,5.25.22.09.42.23.59.39.17.17,4.18,4.21,1.69,11.45-.79,2.3-2.4,5.34-5.56,6.85-1.2.57-2.5.86-3.88.86s-2.85-.29-4.39-.86c-.85-.23-9.52-2.68-26.32-12.89-10.17-6.18-14.89-10.55-16.55-12.26-2.22,1.29-4.92,2.39-8.22,3.16-17.83,4.11-22.06,8.01-22.1,8.05-.35.37-.82.55-1.3.55-.35,0-.71-.11-1.03-.31-.74-.5-1.01-1.47-.68-2.3,4.12-9.96,9.34-16.38,14.66-20.49-12.81-1.02-26.3-6.59-40.18-16.62-.69-.49-.95-1.39-.65-2.19.3-.79,1.09-1.29,1.93-1.19.07,0,6.96.77,18,.77h0c7.49,0,15.08-.35,22.64-1.02-5.55-3.45-10.36-8.07-14.33-12.77-10.5-6.32-15.1-14.36-17.12-20.19-1.57-4.55-2.14-9.41-1.71-13.87-.03-.14-.06-.29-.06-.44v-59.85c0-.38.11-.74.32-1.05.12-.18,1.16-1.69,2.98-3.61-.6-1-1.18-2.07-1.73-3.24-7.37-15.6-4.02-35.14.09-48.79.25-.85,1.07-1.39,1.93-1.31.87.08,1.57.76,1.67,1.65,0,.07.69,5.46,4.29,15.8,1.52-12.48,6.84-25.92,15.85-39.98.5-.78,1.49-1.07,2.33-.68.83.39,1.26,1.35.99,2.24-.05.17-4.85,17.03,1.85,45.43.25,1.08.47,2.11.66,3.12,4.81-10.14,4.8-13.95,4.79-14-.06-.89.51-1.69,1.37-1.92.85-.23,1.76.21,2.14,1.02,8.24,17.38,5.17,29.7.66,37.33,2.34,1.61,3.67,2.97,3.8,3.12.23.24.38.53.46.85,5.73-10.66,7.73-19.83,8.37-25.94.79-7.59-.3-12.25-.31-12.29-.23-.95.31-1.92,1.22-2.22.92-.3,1.91.16,2.28,1.06,4.11,10.15,7.77,23.1,7.13,36.1,4.21-2.73,9.2-5.17,15.14-7.11.87-.28,1.81.12,2.21.94.41.83.16,1.83-.58,2.37-.01.01-2.45,1.81-5.36,6.14-2.7,4.02-6.38,11.08-8.59,21.95-.28,1.39-.65,2.7-1.08,3.94,8.27-6.81,11.4-14.17,11.44-14.27.33-.81,1.16-1.27,2.01-1.12.85.15,1.48.87,1.53,1.74.4,7.14-.32,13.57-2.13,19.26,3.97-2.89,8.32-5.65,13.03-8.26-2.39-.55-4.48-1.36-4.6-1.41-.95-.37-1.42-1.45-1.06-2.41.42-1.11,1.52-3.81,3.02-6.04-2.89-1.05-5.89-3.2-6.61-3.74-.82-.6-1.01-1.77-.41-2.61.95-1.32,3.9-5.22,6.81-6.69-2.01-4.37-2.79-9.65,1.2-14.79,2.17-2.82,5.51-4.36,9.4-4.36,2.64,0,5.41.74,7.7,1.95.04-3.26,1.04-6.39,2.95-9.11,3.25-4.61,8.81-7.62,14.89-8.07.5-.03,1-.05,1.48-.05,8.44,0,14.77,5.32,18.05,14.87.55-.49,1.18-.91,1.87-1.22.93-.42,1.93-.64,2.95-.64.07,0,.14.01.21.01.07-.55.21-1.11.41-1.64.69-1.84,2.06-3.29,3.83-4.09.94-.42,1.93-.64,2.96-.64,1.49,0,2.9.46,4.08,1.28.69-.82,1.55-1.51,2.58-1.98.94-.43,1.93-.64,2.95-.64.83,0,1.63.16,2.38.43.4-.78.86-1.51,1.39-2.18-1.43.25-2.89.44-4.36.54-.04,0-.09,0-.13,0-.11,0-.21-.01-.31-.03-.96.04-2.35.09-4.06.09-7.18,0-20.48-.81-28.96-6.19-8.67-5.52-13.17-15.25-15.87-25.31l-4.15,9.45c-.2.45-.57.81-1.03.98-.46.18-.97.17-1.41-.04l-2.32-1.05-2.05,4.65,2.34,1.06c.93.42,1.35,1.53.93,2.47l-5.19,11.82c-.31.69-.98,1.11-1.69,1.11-.25,0-.5-.05-.75-.16l-24.13-10.8c-.45-.2-.8-.57-.98-1.04-.18-.46-.16-.98.04-1.43l5.19-11.82c.42-.94,1.51-1.37,2.44-.95l2.33,1.05,2.08-4.72-2.33-1.05c-.45-.2-.8-.57-.98-1.04-.17-.46-.16-.98.04-1.43l1.04-2.36-4.67-2.11-1.06,2.41c-.42.94-1.51,1.37-2.44.95l-2.33-1.05-2.05,4.65,2.35,1.05c.44.2.79.58.97,1.04.17.46.16.98-.04,1.43l-5.19,11.82c-.42.94-1.51,1.37-2.43.95l-24.13-10.8c-.45-.2-.8-.58-.98-1.04-.18-.46-.17-.98.03-1.44l5.19-11.82c.2-.45.57-.81,1.02-.99.46-.18.97-.16,1.41.04l2.33,1.05,2.08-4.72-2.33-1.05c-.93-.42-1.35-1.53-.93-2.47l3.87-8.81c-1.11.68-2.4,1.08-3.76,1.08-1.02,0-2.02-.22-2.95-.64-1.78-.8-3.14-2.26-3.83-4.09-.2-.54-.34-1.09-.41-1.64-.07,0-.14.02-.21.02-1.03,0-2.02-.21-2.95-.64-2.54-1.15-4.11-3.59-4.3-6.22-3.85-2.29-5.49-7.21-3.63-11.45,1.43-3.26,4.63-5.35,8.14-5.35.93,0,1.83.14,2.71.43,1.25-.98,2.81-1.57,4.45-1.57,1.02,0,2.02.22,2.96.64,1.03.46,1.89,1.15,2.58,1.97,1.18-.81,2.6-1.28,4.09-1.28,1.02,0,2.01.21,2.95.64,1.77.8,3.13,2.25,3.83,4.09.46,1.24.59,2.55.38,3.83l45.11,20.35c-1.49-9.61-3.33-21.16-4.89-27.09-.24,0-.5-.01-.79-.01-.64,0-1.28.03-1.91.07-1.85.14-2.62.69-3.52,1.31l-.28.19c-2.65,1.83-5.3,2.75-7.85,2.75h0c-5.39,0-8.36-4.09-8.49-4.26-.43-.6-.46-1.41-.1-2.04.38-.64,1.09-1,1.81-.91,1.9.23,3.38-.31,4.71-1.22-1.59.37-3.12.56-4.55.56-5.56,0-8.01-2.77-8.27-3.09-.45-.55-.55-1.3-.27-1.95.28-.65.9-1.08,1.61-1.11,1.56-.07,2.82-.46,3.94-1.03-.95.15-1.87.23-2.77.23-6.43,0-9.53-3.87-9.65-4.03-.46-.6-.53-1.42-.16-2.08.37-.66,1.09-1.03,1.83-.95.7.09,1.32.13,1.9.13,2.97,0,4.41-1.09,7.31-3.27.62-.46,1.29-.97,2.03-1.5,1.54-1.11,3.06-1.84,4.43-2.32-.06-.03-.12-.05-.19-.08,0,0,.59-.15,1.62-.35,1.04-.26,1.95-.39,2.65-.44,1.68-.24,3.75-.45,6.04-.52.52-.02,1.02-.03,1.51-.03.15,0,.29,0,.43,0,.18,0,.37,0,.55,0,.14,0,.28,0,.42,0,.21,0,.42,0,.62,0,.28,0,.56.01.84.02.19,0,.39,0,.58.02.27,0,.54.02.81.04.17,0,.35.02.53.03.28.02.55.04.82.06.15.01.3.02.45.04.32.03.64.07.96.1.08.01.16.01.24.03.39.05.77.1,1.14.17.1.01.2.04.3.05.27.05.54.1.8.14.13.03.26.06.4.09.22.05.44.1.66.15.14.03.28.07.42.11.2.05.4.1.6.15.14.04.29.08.43.12.2.06.39.11.58.17.14.04.28.09.42.14.19.06.38.13.57.19.14.05.28.1.42.15.19.07.38.14.57.22.14.05.27.1.4.15.2.08.39.16.59.24.13.05.25.11.39.16.22.09.43.19.66.29.1.05.21.1.33.15.33.15.66.3.99.46,17.12,8.18,18.74,36.2,21.49,50.06.59,2.94,1.14,5.73,1.78,8.31.4,1.61.78,3.12,1.15,4.56l32.37,14.61c2.77-3,5.11-6.73,6.27-11.05-.6.15-1.19.31-1.76.47-.02,0-.04,0-.06.01-.08.02-.16.03-.25.05-.04,0-.07,0-.11,0-.03,0-.05,0-.08,0-.05,0-.1,0-.15-.01-.04,0-.08,0-.12-.01-.08-.02-.16-.03-.24-.05-.03-.01-.06-.01-.09-.03-1.76-.61-3.04-1.74-3.72-3.29-.96-2.24-.41-4.71,0-5.98-2.02-4.98-6.77-10.97-6.82-11.03-.46-.58-.54-1.39-.2-2.05.34-.66,1.04-1.06,1.78-.99.5.04,1.16.19,1.84.46-1.88-3.94-3.48-7.78-4.85-11.46-.05,0-.1.02-.15.02h-.08c-.91,0-1.68-.67-1.82-1.57-.02-.09-.02-.19-.02-.28-2.12-6.8-7.57-15.81-7.63-15.9-.43-.71-.35-1.62.2-2.24.55-.62,1.44-.79,2.17-.43.16.08.79.4,1.57.93-.22-1.02-.44-2.03-.62-2.98-.84-4.32-1.43-8.59-1.78-12.66-.32-.04-.62-.16-.88-.35-.44-.33-.71-.83-.75-1.38-.48-7.64-5.31-17.14-5.36-17.23-.33-.65-.27-1.42.16-2,.44-.58,1.16-.85,1.85-.7,1.33.29,3.52,1.41,4.39,3.89.26.07.56.18.86.3.18-1.1.4-2.13.65-3.07,4.54-16.79,20.93-28.58,41.76-30.64-1.27-1.52-2.04-3.49-2.04-5.64,0-3.98,2.65-7.35,6.25-8.4v-7.44h-4.3v-4.82h4.3V0h4.76v4.08h4.29v4.82h-4.29v7.44c3.6,1.05,6.25,4.41,6.25,8.4,0,2.15-.77,4.12-2.05,5.64,20.84,2.06,37.22,13.85,41.76,30.64.25.92.46,1.95.65,3.06.31-.12.6-.23.86-.31.86-2.48,3.06-3.61,4.38-3.89.7-.15,1.42.12,1.85.7.43.58.49,1.35.16,2-.04.09-4.88,9.61-5.36,17.23-.03.55-.3,1.06-.74,1.38-.26.19-.56.31-.88.34-.43,4.83-1.22,10.1-2.44,15.68.8-.55,1.45-.88,1.61-.96.74-.36,1.63-.19,2.17.43.55.62.63,1.53.21,2.24-.06.1-5.8,9.57-7.78,16.41-.14.49-.47.89-.91,1.12-.27.14-.56.22-.86.22-.06,0-.12,0-.18-.01-1.41,3.79-3.03,7.63-4.85,11.47.69-.29,1.36-.44,1.86-.48.74-.06,1.44.33,1.78.99.35.66.27,1.47-.19,2.05-.05.06-4.8,6.06-6.83,11.04.41,1.27.96,3.75,0,5.98-.66,1.55-1.95,2.68-3.71,3.29h0c-.07.03-.15.04-.22.06-.12.02-.25.04-.37.04-.16,0-.31-.03-.46-.06-.01,0-.03,0-.04,0-.47-.14-.95-.27-1.44-.39,1.15,4.25,3.43,7.91,6.16,10.88l32.5-14.66c.36-1.39.74-2.86,1.12-4.41.63-2.58,1.19-5.37,1.78-8.31,2.76-13.86,4.38-41.87,21.5-50.06.34-.16.67-.31,1-.46.11-.05.22-.09.33-.15.22-.1.43-.2.65-.29.13-.05.25-.1.38-.16.2-.08.4-.16.59-.24.14-.05.27-.1.41-.15.18-.08.38-.15.57-.22.14-.05.27-.1.42-.15.18-.06.37-.13.56-.19.14-.05.28-.09.42-.14.19-.06.39-.12.58-.17.14-.04.28-.08.42-.12.2-.05.4-.11.61-.15.14-.04.28-.07.42-.11.22-.05.44-.1.67-.15.13-.03.26-.06.39-.09.27-.05.53-.09.81-.14.1-.01.19-.04.29-.05.37-.06.75-.12,1.14-.17.08-.01.16-.02.24-.03.31-.04.63-.07.96-.1.14-.01.29-.02.44-.04.27-.02.54-.04.82-.06.17-.01.35-.02.52-.03.26-.01.53-.03.81-.04.18-.01.38-.01.57-.02.27-.01.55-.02.84-.02.2,0,.41,0,.62,0,.14,0,.27,0,.42,0,.18,0,.37,0,.55,0,.14,0,.29,0,.43,0,.49,0,.99.01,1.51.03,2.21.06,4.21.27,5.85.49.9.04,2.31.18,3.97.7.31.07.49.11.49.11-.02,0-.04.02-.06.03,1.42.48,2.99,1.22,4.59,2.38.74.53,1.41,1.03,2.03,1.5,2.89,2.17,4.34,3.27,7.31,3.27.57,0,1.2-.04,1.89-.13.74-.09,1.47.29,1.83.95.37.66.3,1.48-.16,2.07-.13.16-3.23,4.03-9.65,4.03-.91,0-1.83-.07-2.78-.23,1.12.57,2.39.96,3.95,1.03.7.03,1.32.46,1.6,1.11.28.65.18,1.41-.27,1.95-.26.31-2.71,3.09-8.27,3.09h0c-1.43,0-2.96-.19-4.55-.56,1.12.76,2.31,1.28,3.83,1.28.28,0,.58-.02.89-.06.72-.09,1.44.27,1.81.91.37.64.33,1.44-.1,2.04-.12.17-3.1,4.26-8.49,4.26-2.56,0-5.19-.92-7.85-2.75l-.28-.19c-.9-.63-1.68-1.17-3.52-1.31-.63-.05-1.28-.07-1.91-.07-.43,0-.79.01-1.09.03-1.55,5.9-3.38,17.35-4.86,26.93l44.79-20.21c-.21-1.28-.09-2.59.38-3.83.7-1.84,2.06-3.29,3.84-4.09.94-.42,1.93-.64,2.95-.64,1.49,0,2.9.47,4.09,1.28.68-.82,1.55-1.5,2.57-1.97.94-.42,1.94-.64,2.96-.64,1.65,0,3.2.58,4.46,1.57.87-.29,1.78-.43,2.71-.43,3.51,0,6.7,2.1,8.13,5.35,1.86,4.24.22,9.16-3.63,11.45-.19,2.63-1.76,5.07-4.29,6.22-.94.42-1.94.64-2.96.64-.07,0-.14-.01-.21-.02-.08.55-.21,1.1-.41,1.64-.7,1.84-2.06,3.29-3.84,4.09-.94.42-1.93.64-2.95.64-1.35,0-2.64-.39-3.75-1.08l3.87,8.81c.41.94,0,2.05-.93,2.47l-2.33,1.05,2.07,4.72,2.33-1.05c.45-.2.96-.21,1.41-.04.46.18.82.53,1.03.99l5.19,11.82c.19.45.21.97.03,1.44-.18.46-.53.84-.98,1.04l-24.14,10.8c-.93.42-2.02,0-2.43-.95l-5.2-11.82c-.2-.45-.21-.97-.04-1.43.18-.46.53-.84.97-1.04l2.34-1.05-2.04-4.65-2.32,1.05c-.93.42-2.02,0-2.43-.95l-1.06-2.41-4.68,2.11,1.04,2.36c.2.45.22.97.04,1.43-.17.46-.52.84-.97,1.04l-2.33,1.05,2.07,4.72,2.34-1.05c.93-.42,2.02,0,2.44.95l5.19,11.82c.19.45.21.97.03,1.43-.17.46-.53.84-.97,1.04l-24.14,10.8c-.24.11-.49.16-.74.16-.71,0-1.38-.42-1.69-1.11l-5.19-11.82c-.41-.94,0-2.05.93-2.47l2.35-1.06-2.04-4.65-2.33,1.05c-.44.21-.96.22-1.41.04-.46-.18-.83-.53-1.02-.98l-3.97-9.04c-2.72,9.91-7.2,19.45-15.75,24.9-8.48,5.39-21.78,6.19-28.96,6.19-1.71,0-3.1-.05-4.05-.09-.1.02-.21.03-.31.03-.04,0-.08,0-.13,0-1.59-.11-3.17-.32-4.71-.6.55.69,1.03,1.44,1.44,2.24.76-.27,1.56-.43,2.39-.43,1.02,0,2.02.21,2.95.64,1.03.47,1.9,1.15,2.58,1.98,1.19-.82,2.6-1.28,4.09-1.28,1.02,0,2.02.21,2.96.64,1.78.79,3.13,2.25,3.83,4.09.2.53.33,1.08.41,1.64.07,0,.14-.01.21-.01,1.02,0,2.02.21,2.95.64.69.31,1.32.73,1.87,1.23,3.28-9.55,9.61-14.87,18.05-14.87.49,0,.99.02,1.48.05,6.08.45,11.64,3.46,14.89,8.07,1.91,2.72,2.91,5.85,2.95,9.11,2.3-1.21,5.05-1.95,7.7-1.95,3.88,0,7.22,1.55,9.39,4.36,3.98,5.14,3.2,10.41,1.19,14.79,2.91,1.48,5.87,5.37,6.82,6.69.6.84.41,2.01-.41,2.61-.73.54-3.73,2.68-6.61,3.74,1.49,2.23,2.59,4.93,3.01,6.04.37.96-.11,2.04-1.06,2.41-.13.05-2.22.85-4.6,1.41,4.71,2.62,9.06,5.38,13.03,8.26-1.8-5.69-2.52-12.12-2.12-19.26.05-.87.68-1.59,1.54-1.74.84-.15,1.68.32,2.01,1.13.04.1,3.17,7.45,11.44,14.27-.43-1.25-.81-2.56-1.08-3.95-2.21-10.87-5.89-17.93-8.59-21.95-2.91-4.33-5.34-6.12-5.37-6.14-.73-.54-.98-1.54-.57-2.36.41-.82,1.34-1.22,2.21-.94,5.93,1.94,10.93,4.37,15.14,7.11-.64-13,3.01-25.94,7.13-36.1.37-.91,1.36-1.37,2.28-1.07.92.31,1.45,1.28,1.22,2.23-.01.04-1.1,4.7-.31,12.29.64,6.11,2.64,15.28,8.37,25.94.08-.31.23-.61.46-.84.13-.14,1.47-1.5,3.81-3.12-4.52-7.62-7.59-19.94.66-37.33.38-.81,1.27-1.23,2.13-1,.86.23,1.43,1.05,1.37,1.94,0,.01-.03,3.82,4.79,13.96.19-1.01.4-2.04.65-3.12,3.51-14.84,3.82-26.41,3.47-33.49-.38-7.67-1.61-11.9-1.62-11.94-.26-.89.16-1.84.99-2.24.83-.39,1.82-.1,2.32.68,9.01,14.06,14.33,27.5,15.85,39.98,3.6-10.34,4.28-15.72,4.29-15.8.11-.88.8-1.56,1.67-1.64.87-.07,1.68.47,1.93,1.31,4.11,13.65,7.46,33.19.09,48.79-.56,1.17-1.13,2.25-1.72,3.24,1.82,1.92,2.85,3.43,2.97,3.61.21.31.32.67.32,1.05v59.85c0,.17-.03.34-.08.5.94,10.27-3.17,24.56-18.81,34-3.97,4.7-8.78,9.32-14.34,12.78,7.56.67,15.15,1.02,22.65,1.02,11.06,0,17.93-.76,18-.77.83-.1,1.63.39,1.93,1.19"/>
  </g>
</svg>