<svg width="161" height="66" fill="none" xmlns="http://www.w3.org/2000/svg"><path d="M62.637 50.806a.285.285 0 0 1-.094.326c-2.002 1.496-3.948 2.327-5.795 2.48.762.608 1.51 1.557 2.101 3.026a.285.285 0 0 1 .035.139c0 .153-.119.28-.266.28h-.002a.261.261 0 0 1-.187-.082c-.019-.018-.646-.592-3.187-1.2a4.136 4.136 0 0 1-1.186-.471c-.239.255-.92.907-2.386 1.83-2.42 1.522-3.67 1.889-3.796 1.924a1.79 1.79 0 0 1-.633.128c-.2 0-.387-.043-.56-.128-.457-.224-.688-.679-.802-1.021-.36-1.082.219-1.684.244-1.71a.266.266 0 0 1 .085-.056 19.1 19.1 0 0 0 1.674-.785 5.763 5.763 0 0 0-.124-.26 3.582 3.582 0 0 0-.271-.45l-.029.014c-.391.206-.795.402-1.21.59-.733 1.302-1.591 2.161-2.467 2.717.279.136.554.29.822.468 1.467.98 3.11 1.085 3.75 1.085.221 0 .352-.012.353-.012.141-.013.268.09.288.238a.276.276 0 0 1-.212.313c-1.891.395-3.61.596-5.11.596-.201 0-.396-.004-.586-.011.66.958 1.052 2.078 1.154 3.33.004.02.006.04.006.06a.272.272 0 0 1-.263.279h-.005a.265.265 0 0 1-.242-.165c-.009-.018-.508-1.1-2.52-2.036a10.977 10.977 0 0 1-1.722-.986c-.928.284-2.109.6-4.14.6-.633 0-1.224-.615-1.61-1.13-.027 1.024.133 1.843.48 2.445.528.016.766-.053 1.061-.14.116-.033.235-.069.381-.101a.316.316 0 0 1 .072-.007c.072.005.713.054 1.077.456.402.444.401 1.02-.002 1.432 0 .002-.002.002-.003.003l-.027.023-.013.01c-.007.005-.015.008-.024.013l-.021.011c-.022.009-.55.225-1.317.225-.644 0-1.261-.15-1.835-.443a4.334 4.334 0 0 1-1.95-2.04 4.334 4.334 0 0 1-1.95 2.04 3.999 3.999 0 0 1-1.834.442c-.767 0-1.295-.215-1.317-.224-.007-.002-.013-.006-.02-.01l-.026-.014-.011-.01a.268.268 0 0 1-.03-.023l-.002-.003c-.402-.413-.404-.988-.002-1.432.364-.402 1.005-.451 1.078-.456.023 0 .048.001.071.007.146.032.266.068.381.102a2.85 2.85 0 0 0 1.063.139c.345-.602.506-1.42.479-2.445-.386.515-.978 1.13-1.61 1.13-2.044 0-3.227-.32-4.158-.606-.479.34-1.048.676-1.73.992-2.019.939-2.514 2.025-2.518 2.036a.267.267 0 0 1-.243.164.249.249 0 0 1-.067-.01.277.277 0 0 1-.199-.291c.098-1.268.491-2.4 1.157-3.367-.19.007-.384.011-.586.011h-.001c-1.499 0-3.218-.2-5.11-.596a.277.277 0 0 1-.21-.313.267.267 0 0 1 .287-.238c.001 0 .132.012.354.012.639 0 2.282-.105 3.75-1.084.287-.193.585-.358.886-.501-.88-.549-1.747-1.396-2.493-2.678-.42-.19-.828-.389-1.224-.597l-.028-.015a3.663 3.663 0 0 0-.271.45c-.046.09-.086.176-.125.261a19.22 19.22 0 0 0 1.675.785c.032.013.06.033.085.057.025.025.603.627.244 1.709-.114.342-.345.797-.802 1.021-.174.085-.36.128-.56.128-.2 0-.41-.044-.633-.128-.123-.035-1.373-.4-3.795-1.924-1.467-.922-2.149-1.575-2.387-1.83a4.13 4.13 0 0 1-1.186.472c-2.57.613-3.181 1.194-3.188 1.2a.252.252 0 0 1-.335.036.29.29 0 0 1-.097-.343c.594-1.486 1.346-2.444 2.114-3.057-1.848-.153-3.793-.983-5.795-2.48a.286.286 0 0 1-.094-.326.263.263 0 0 1 .278-.177c.01 0 1.004.114 2.596.114 1.081 0 2.176-.053 3.266-.153-.8-.515-1.494-1.204-2.067-1.905-1.514-.943-2.179-2.143-2.469-3.012a5.13 5.13 0 0 1-.246-2.07.289.289 0 0 1-.009-.066v-8.928c0-.055.016-.11.046-.156.017-.027.167-.252.43-.538a5.618 5.618 0 0 1-.25-.483c-1.063-2.328-.58-5.242.013-7.279a.267.267 0 0 1 .278-.196.271.271 0 0 1 .24.245c.002.012.101.815.62 2.357.219-1.861.987-3.866 2.286-5.964a.259.259 0 0 1 .335-.101c.12.059.181.2.143.334-.007.024-.7 2.54.267 6.776.036.16.067.315.094.465.694-1.512.692-2.081.691-2.088a.276.276 0 0 1 .197-.287.265.265 0 0 1 .309.153c1.189 2.593.746 4.43.094 5.568.337.24.53.444.549.465.033.036.055.08.066.126.826-1.59 1.115-2.957 1.207-3.87.114-1.13-.042-1.826-.044-1.832a.282.282 0 0 1 .177-.332.262.262 0 0 1 .328.159c.593 1.514 1.12 3.446 1.028 5.384a9.128 9.128 0 0 1 2.184-1.06.262.262 0 0 1 .319.141.288.288 0 0 1-.084.353c-.002.002-.353.27-.773.915-.39.6-.92 1.653-1.239 3.274a4.61 4.61 0 0 1-.156.589c1.192-1.017 1.643-2.115 1.65-2.13a.265.265 0 0 1 .29-.168c.122.023.214.13.22.26.058 1.066-.046 2.024-.306 2.873.572-.43 1.2-.842 1.88-1.232-.344-.083-.646-.203-.664-.21a.283.283 0 0 1-.153-.36c.06-.166.218-.569.435-.902-.416-.157-.85-.477-.954-.557a.287.287 0 0 1-.059-.39c.137-.197.563-.777.982-.998-.289-.653-.401-1.439.173-2.206.314-.42.795-.65 1.355-.65.381 0 .78.108 1.11.29.007-.487.15-.954.426-1.36.468-.687 1.27-1.136 2.147-1.203.072-.005.144-.008.214-.008 1.217 0 2.13.794 2.604 2.218.079-.074.17-.135.27-.182.134-.063.278-.095.426-.095l.03.002c.011-.083.031-.165.06-.244.1-.276.297-.492.553-.61a.997.997 0 0 1 1.015.095c.1-.123.224-.225.373-.295a.988.988 0 0 1 .77-.031c.057-.116.123-.226.2-.325a6.026 6.026 0 0 1-.628.08h-.02a.247.247 0 0 1-.044-.004c-.138.007-.339.014-.586.014-1.035 0-2.954-.12-4.176-.924-1.25-.824-1.899-2.276-2.289-3.776l-.598 1.41a.272.272 0 0 1-.149.147.252.252 0 0 1-.203-.005l-.335-.157-.296.693.338.158a.284.284 0 0 1 .135.368l-.748 1.763a.267.267 0 0 1-.244.165.255.255 0 0 1-.107-.023l-3.481-1.611a.278.278 0 0 1-.141-.155.295.295 0 0 1 .005-.214l.748-1.763a.26.26 0 0 1 .352-.141l.336.156.3-.704-.337-.157a.271.271 0 0 1-.14-.155.297.297 0 0 1 .005-.214l.15-.352-.674-.314-.153.36a.262.262 0 0 1-.351.141l-.336-.156-.295.693.338.157c.065.03.115.087.14.155a.3.3 0 0 1-.005.214l-.749 1.762a.262.262 0 0 1-.35.142l-3.482-1.61a.272.272 0 0 1-.14-.155.29.29 0 0 1 .005-.215l.748-1.762a.274.274 0 0 1 .147-.148.255.255 0 0 1 .204.006l.337.156.3-.704-.337-.157a.283.283 0 0 1-.135-.367l.558-1.315a1 1 0 0 1-.968.065 1.07 1.07 0 0 1-.553-.61 1.167 1.167 0 0 1-.06-.245l-.03.002a.993.993 0 0 1-.425-.095 1.103 1.103 0 0 1-.62-.927c-.556-.341-.792-1.076-.524-1.708a1.284 1.284 0 0 1 1.174-.798c.134 0 .265.021.39.064.181-.147.406-.234.643-.234.147 0 .29.032.427.096.148.07.273.171.372.293a1.007 1.007 0 0 1 1.015-.095c.256.12.452.336.553.61.067.185.085.381.055.571l6.506 3.036c-.215-1.433-.48-3.156-.705-4.04a3.495 3.495 0 0 0-.391.008c-.266.021-.378.103-.508.196l-.04.029c-.382.272-.764.41-1.132.41-.778 0-1.207-.61-1.224-.636a.29.29 0 0 1-.014-.305.264.264 0 0 1 .261-.135.922.922 0 0 0 .68-.183c-.23.056-.45.084-.657.084-.803 0-1.155-.414-1.193-.46a.288.288 0 0 1-.04-.292.265.265 0 0 1 .232-.166 1.33 1.33 0 0 0 .569-.154c-.137.023-.27.034-.4.034-.928 0-1.375-.576-1.393-.6a.291.291 0 0 1-.024-.311.266.266 0 0 1 .264-.14c.101.012.19.019.274.019.427 0 .636-.163 1.053-.488.09-.07.186-.144.293-.223.222-.165.44-.274.639-.346-.01-.005-.018-.01-.027-.013 0 0 .085-.023.233-.052.15-.04.282-.057.383-.066a7.732 7.732 0 0 1 1.09-.081H16.446l.12.003c.029.001.057.001.084.003l.116.005.076.005.118.01.064.005.138.016.034.004c.056.007.111.016.165.024l.043.008.115.021c.019.004.038.01.057.013l.095.022.061.016.087.022.061.02.084.025.06.02c.028.01.055.02.082.028l.06.022.082.033.059.023.085.036.056.024.094.043.047.021.143.07c2.47 1.22 2.703 5.4 3.1 7.467.086.439.166.854.257 1.24.058.24.113.466.167.68l4.67 2.18c.4-.449.736-1.004.903-1.65a8.84 8.84 0 0 0-.254.07c-.003.002-.006.002-.009.002-.011.004-.023.005-.036.007l-.015.001-.012.001c-.007 0-.014 0-.021-.002l-.017-.001a.452.452 0 0 1-.034-.008l-.013-.004a.88.88 0 0 1-.536-.491c-.139-.333-.06-.703 0-.892-.292-.743-.976-1.636-.984-1.645a.29.29 0 0 1-.028-.306.261.261 0 0 1 .257-.148.862.862 0 0 1 .264.07 21.537 21.537 0 0 1-.7-1.71l-.021.003h-.011a.27.27 0 0 1-.267-.277c-.305-1.015-1.092-2.358-1.1-2.372a.289.289 0 0 1 .03-.333.257.257 0 0 1 .313-.065c.023.012.114.06.227.14a18.622 18.622 0 0 1-.346-2.332.262.262 0 0 1-.127-.053.284.284 0 0 1-.108-.207c-.069-1.14-.766-2.557-.773-2.57a.29.29 0 0 1 .024-.298.26.26 0 0 1 .267-.105c.192.043.508.211.633.58.037.012.08.028.124.046.026-.164.057-.317.094-.457.654-2.504 3.018-4.264 6.023-4.571a1.337 1.337 0 0 1-.295-.841c0-.595.382-1.097.901-1.253v-1.11h-.62v-.72h.62V.904h.686v.609h.62v.72h-.62v1.11c.52.156.902.658.902 1.253 0 .32-.112.614-.296.84 3.005.308 5.37 2.067 6.024 4.572.036.137.067.29.093.457.045-.019.087-.034.125-.046a.893.893 0 0 1 .632-.58.259.259 0 0 1 .267.104.289.289 0 0 1 .024.297c-.007.014-.704 1.434-.773 2.571a.283.283 0 0 1-.107.207.258.258 0 0 1-.127.05c-.062.72-.176 1.508-.352 2.34.116-.082.21-.132.233-.144a.257.257 0 0 1 .313.065.29.29 0 0 1 .03.333c-.01.015-.836 1.427-1.123 2.448a.274.274 0 0 1-.131.168.26.26 0 0 1-.125.033l-.026-.002a21.797 21.797 0 0 1-.7 1.71.853.853 0 0 1 .27-.071.263.263 0 0 1 .257.147.29.29 0 0 1-.028.306c-.008.01-.693.904-.985 1.646.06.19.14.559 0 .892a.877.877 0 0 1-.535.491l-.032.01a.307.307 0 0 1-.054.005.281.281 0 0 1-.066-.01h-.005a7.411 7.411 0 0 0-.207-.058c.166.633.495 1.18.887 1.622l4.687-2.187c.053-.208.106-.427.161-.658.092-.386.172-.801.257-1.24.398-2.068.63-6.247 3.1-7.468a32.658 32.658 0 0 1 .192-.09c.03-.015.062-.03.094-.043l.055-.024.084-.036.06-.023.082-.033.06-.022.08-.028.062-.02.084-.026.06-.019.088-.022.06-.016.096-.022c.019-.003.037-.009.057-.013l.116-.021.042-.008c.053-.008.108-.017.164-.024l.035-.004.138-.016.064-.005a38.214 38.214 0 0 1 .193-.015 4.59 4.59 0 0 1 .117-.005c.027-.002.055-.002.083-.003l.121-.003h.15a7.111 7.111 0 0 1 .142 0c.07 0 .143.002.218.004.318.01.606.04.843.073.13.006.333.027.573.105.046.01.07.017.07.017-.002.001-.005.004-.008.004.204.072.431.182.662.355.107.079.203.153.293.223.417.325.626.488 1.054.488.083 0 .172-.007.272-.02a.265.265 0 0 1 .265.141.29.29 0 0 1-.024.31c-.018.024-.465.601-1.392.601-.13 0-.264-.011-.4-.034.16.085.344.143.569.154.1.004.19.07.231.166a.29.29 0 0 1-.039.291c-.038.047-.391.461-1.192.461-.208 0-.428-.028-.658-.084a.925.925 0 0 0 .68.183.263.263 0 0 1 .26.135.29.29 0 0 1-.013.305c-.018.025-.447.636-1.224.636-.369 0-.75-.138-1.132-.41l-.04-.029c-.13-.093-.242-.175-.508-.196a3.618 3.618 0 0 0-.433-.007c-.223.88-.488 2.589-.701 4.018l6.46-3.015c-.03-.19-.013-.386.054-.57.101-.275.297-.492.553-.611a1.002 1.002 0 0 1 1.015.095c.098-.122.224-.224.371-.293a1.005 1.005 0 0 1 1.07.138c.126-.043.257-.064.39-.064.507 0 .968.312 1.174.798.268.632.032 1.367-.524 1.708a1.103 1.103 0 0 1-.618.927 1 1 0 0 1-.427.095l-.03-.002c-.011.083-.03.165-.06.245-.1.274-.297.492-.553.61a.997.997 0 0 1-.967-.065l.558 1.314c.059.14-.001.306-.135.368l-.336.157.298.704.337-.156a.253.253 0 0 1 .204-.006c.066.027.118.08.147.148l.75 1.762c.028.068.03.146.005.215a.276.276 0 0 1-.142.155l-3.48 1.61a.26.26 0 0 1-.35-.142l-.75-1.762a.295.295 0 0 1-.006-.214.277.277 0 0 1 .14-.154l.338-.158-.294-.693-.336.156a.26.26 0 0 1-.35-.14l-.154-.36-.674.313.15.352a.287.287 0 0 1-.136.369l-.335.157.298.704.337-.157a.262.262 0 0 1 .352.141l.748 1.764c.028.067.03.144.004.213a.273.273 0 0 1-.14.156l-3.481 1.61a.254.254 0 0 1-.107.024.267.267 0 0 1-.244-.165l-.748-1.763c-.06-.14 0-.305.134-.368l.339-.158-.295-.693-.336.157a.25.25 0 0 1-.203.005.269.269 0 0 1-.149-.146l-.572-1.349c-.392 1.478-1.039 2.902-2.272 3.714-1.223.803-3.142.924-4.177.924-.246 0-.447-.007-.584-.014a.255.255 0 0 1-.046.004h-.018a5.867 5.867 0 0 1-.68-.09c.08.103.15.216.208.335a.987.987 0 0 1 .77.032c.149.07.274.17.372.294a1.012 1.012 0 0 1 1.016-.096c.256.12.452.335.553.61.029.08.048.162.06.245l.03-.002a1.007 1.007 0 0 1 .696.278c.473-1.425 1.386-2.219 2.604-2.219.07 0 .142.003.214.008.876.067 1.678.516 2.146 1.204.276.405.42.872.426 1.358.331-.18.729-.29 1.11-.29.56 0 1.042.231 1.356.651.574.767.462 1.553.171 2.206.42.221.848.801.983.998a.287.287 0 0 1-.059.39c-.105.08-.537.4-.953.557.216.333.374.736.435.902a.282.282 0 0 1-.153.36c-.019.007-.32.127-.664.21.68.39 1.308.802 1.88 1.233-.26-.85-.365-1.809-.307-2.874a.275.275 0 0 1 .222-.26.265.265 0 0 1 .29.17c.005.013.457 1.11 1.65 2.128a4.563 4.563 0 0 1-.157-.589c-.319-1.621-.85-2.675-1.24-3.274-.42-.645-.77-.913-.773-.916a.29.29 0 0 1-.083-.352.262.262 0 0 1 .32-.14 9.151 9.151 0 0 1 2.183 1.06c-.094-1.94.434-3.87 1.028-5.385a.263.263 0 0 1 .329-.16c.132.046.209.19.176.333-.002.006-.159.701-.045 1.833.093.911.381 2.278 1.207 3.869a.284.284 0 0 1 .066-.126c.02-.021.212-.224.55-.465-.652-1.137-1.094-2.975.094-5.568a.26.26 0 0 1 .308-.149.277.277 0 0 1 .197.29s-.003.57.691 2.081c.028-.15.058-.304.095-.465.506-2.214.55-3.94.5-4.996-.055-1.144-.232-1.774-.234-1.78a.285.285 0 0 1 .143-.334.26.26 0 0 1 .336.101c1.299 2.098 2.066 4.103 2.286 5.964.519-1.543.617-2.345.619-2.357a.272.272 0 0 1 .24-.245.266.266 0 0 1 .279.196c.592 2.037 1.075 4.951.013 7.279-.08.174-.164.335-.249.483.263.287.411.511.428.538.03.046.047.1.047.156v8.928c0 .026-.004.05-.011.075.136 1.531-.457 3.664-2.713 5.072-.572.701-1.266 1.39-2.067 1.906 1.09.1 2.185.153 3.266.153 1.595 0 2.586-.114 2.596-.114a.263.263 0 0 1 .278.177Zm-7.107-.315c.94-.428 1.856-1.194 2.72-2.28-.74.203-1.992.47-3.842.627-1.429.12-2.114.755-2.428 1.215.357.185.662.387.924.602.412-.127.951-.215 1.65-.215.306 0 .633.017.976.051ZM44.647 53.02c.877-.37 3.544-1.498 5.29-3.006.18-.155.543-.311.947-.311.053 0 .105.002.156.007.986-1.219 1.503-2.523 1.503-3.852 0-2.591-1.959-5.083-5.53-7.045a1.66 1.66 0 0 1-.44-.104c-.268.663-.75 1.276-1.678 1.343a1.439 1.439 0 0 1-.11.003c-.488 0-.934-.228-1.29-.66a2.654 2.654 0 0 1-.504-1.023 2.211 2.211 0 0 1-1.53.594c-.72 0-1.453-.322-2.01-.883a2.732 2.732 0 0 1-.8-2.1 39.402 39.402 0 0 0-7.028-.616c-2.433 0-4.8.212-7.027.617a2.725 2.725 0 0 1-.801 2.098c-.557.562-1.29.884-2.01.884a2.208 2.208 0 0 1-1.529-.594c-.09.364-.266.732-.505 1.023-.355.432-.801.66-1.289.66-.036 0-.073 0-.11-.003-.928-.067-1.41-.68-1.68-1.343a1.66 1.66 0 0 1-.44.104c-3.57 1.962-5.529 4.454-5.529 7.045 0 1.33.518 2.633 1.503 3.852.052-.004.104-.007.157-.007.404 0 .766.156.946.31 1.744 1.508 4.412 2.636 5.288 3.007l.027.01a.21.21 0 0 1 .04.018c.664.265 1.092.811 1.133 1.43.476.166.963.323 1.461.468.27-.535.904-1.231 1.94-1.104h.004l.003.001h.002c.378.06 1.564.288 1.942.367l.135.029c1.549.322 3.304.688 6.325.692h.03c3.02-.004 4.776-.37 6.324-.692l.134-.03a66.119 66.119 0 0 1 1.942-.365h.002l.004-.001.005-.001c1.034-.126 1.67.57 1.938 1.104a28.97 28.97 0 0 0 1.462-.469c.041-.624.477-1.176 1.152-1.438h.002l.043-.019Zm1.005.568a3.06 3.06 0 0 0-.516-.045c-.184 0-.313.017-.362.025-.226.09-.41.217-.546.37a1.043 1.043 0 0 0-.195.326c.558-.21 1.097-.436 1.619-.676Zm-4.197 1.51a1.708 1.708 0 0 0-.13-.188 1.336 1.336 0 0 0-.789-.5 1.386 1.386 0 0 0-.422-.015c-.045.01-.403.08-.946.349-.464.23-.96.555-1.297 1.12a33.824 33.824 0 0 0 3.584-.767Zm-16.079.766c-.337-.565-.834-.89-1.298-1.12-.541-.269-.9-.34-.945-.349a1.388 1.388 0 0 0-.422.014 1.338 1.338 0 0 0-.788.502 1.612 1.612 0 0 0-.13.186c1.146.313 2.344.57 3.583.767Zm-6.162-1.6a1.014 1.014 0 0 0-.196-.326 1.417 1.417 0 0 0-.546-.37 2.37 2.37 0 0 0-.36-.025c-.148 0-.324.011-.517.045.521.24 1.061.466 1.62.676Zm-.574-15.341c-.617.04-1.105-.228-1.516-.637l-.022.037c.212.625.572 1.121 1.285 1.172.026.002.05.002.075.002.415 0 .711-.253.887-.467.123-.15.22-.318.29-.486-.246.19-.574.351-1 .379Zm-3.003-.652c.06.003.126.004.195.004.422 0 .647-.064.712-.12a.524.524 0 0 0 .072-.713.475.475 0 0 0-.377-.188.464.464 0 0 0-.305.113c-.113.096-.23.5-.297.904Zm15.986-4.24c-2.548 0-5.03.227-7.366.66.119.261.202.509.257.742 2.255-.41 4.65-.623 7.109-.623a39.9 39.9 0 0 1 7.11.623c.055-.233.138-.481.256-.742a40.533 40.533 0 0 0-7.366-.66Zm-6.83 0 .008-.001-.005-.003-.003.004Zm2.626-1.435c-.1.25-.285.46-.538.578-.136.063-.28.095-.427.095l-.031-.002c-.01.083-.03.166-.059.245a1.145 1.145 0 0 1-.174.31c1.757-.23 3.579-.349 5.433-.349 1.855 0 3.677.12 5.434.35a1.114 1.114 0 0 1-.234-.556l-.03.002c-.148 0-.291-.032-.427-.095a1.07 1.07 0 0 1-.538-.578 1.764 1.764 0 0 1-1.212-.104c-.43-.2-.769-.57-.95-1.027l-2.043-.953-2.042.953c-.18.456-.52.828-.95 1.027a1.743 1.743 0 0 1-1.212.104Zm-.006-.873v.002l.141.332c.286.077.59.053.861-.075.306-.142.54-.394.671-.716l-.155-.365-.712-1.675a1.256 1.256 0 0 0-.957.043 1.333 1.333 0 0 0-.629.62l.191.45.589 1.383Zm7.047-2.535-2.182 1.018 1.46.682.722-1.7Zm0 1.372-.299.706c.13.322.366.574.67.716.271.127.575.152.862.075l.14-.333.002-.002.294-.692.485-1.141a1.33 1.33 0 0 0-.629-.62 1.257 1.257 0 0 0-.958-.043l-.567 1.334Zm3.986 3.47.007.001a.011.011 0 0 0-.003-.004c-.002 0-.003.002-.004.003Zm1.97 3.176c-.575-.59-.91-1.435-.955-2.253-.473 1.063-.356 2.006.36 2.728.458.462 1.056.727 1.64.727.406 0 .775-.128 1.08-.37a3.427 3.427 0 0 1-.17.004c-.757 0-1.416-.282-1.956-.836Zm-16.63-2.254c-.046.82-.38 1.665-.955 2.254-.54.554-1.199.836-1.956.836-.058 0-.114-.002-.168-.005a1.7 1.7 0 0 0 1.078.371c.584 0 1.182-.265 1.641-.727.716-.722.833-1.665.36-2.729Zm22.338 3.334c-.412.41-.899.678-1.517.637a1.802 1.802 0 0 1-1-.379c.071.168.167.336.291.486.186.226.512.496.961.465.713-.05 1.074-.547 1.286-1.172l-.021-.037Zm.508-.844a.525.525 0 0 0 .07.714c.065.055.29.12.712.12.07 0 .136-.002.195-.005-.066-.404-.183-.808-.296-.904a.464.464 0 0 0-.305-.113.474.474 0 0 0-.376.188ZM60.82 27.404c-.223.851-.646 2.176-1.434 3.968a5.188 5.188 0 0 0-.396 1.328c.575.18 1.056.503 1.423.825a4.61 4.61 0 0 0 .186-.373c.797-1.78.62-3.959.221-5.748Zm-3.422 2.33c-.31 1.358-.25 2.283-.081 2.897.238-.045.493-.07.762-.07.133 0 .262.009.388.025.067-.433.203-.915.436-1.447.207-.47.387-.906.545-1.31.038-2.093-.8-4.203-1.56-5.679.095 1.202.077 3.1-.49 5.584Zm-1.653-.844c-.518 1.49-.5 2.826.058 3.981.044.091.09.178.139.261.244-.137.53-.268.851-.371-.116-.441-.181-1.005-.133-1.719-.491-.966-.765-1.666-.915-2.152Zm-.342 12.43c.294-.365.702-.66 1.205-.856.151-.06.319-.099.5-.124.7-.136 1.459-.004 2.189.385l.157.074v.015c.534.314.988.743 1.301 1.216V34.7c-.223-.306-1.236-1.582-2.676-1.582-1.408 0-2.402.823-2.676 1.077v7.126Zm1.731 1.34a.282.282 0 0 1-.115-.228v-1.51a1.69 1.69 0 0 0-.226.065c-.426.166-1.415.683-1.39 1.905.02.929.604 1.866 1.868 1.866 1.43 0 1.63-1.096 1.65-1.24v-.066c-.013-.134-.114-.503-.766-.723-.455-.154-.763-.04-.776-.036a.257.257 0 0 1-.245-.033Zm1.184-.462c.253.086.45.192.604.308v-1.342a3.741 3.741 0 0 0-1.37-.294v1.227c.195-.017.458-.003.766.101Zm-3.404 1.14a.287.287 0 0 1-.044-.153v-.562a6.99 6.99 0 0 1-1.509-.45c.65 1.172.989 2.41.989 3.684 0 .846-.15 1.677-.441 2.482a5.89 5.89 0 0 1 .457-.058c3.12-.264 4.499-.853 4.513-.859a.26.26 0 0 1 .311.086l.007.01a4.864 4.864 0 0 0 1.333-2.03 4.463 4.463 0 0 0 .201-1.968 3.175 3.175 0 0 0-.158-.677c-.178-.486-.588-.99-1.119-1.372V43.452c.003.068-.002.111-.002.12h-.001c-.068.606-.609 1.743-2.18 1.743-1.414 0-2.173-.958-2.357-1.977ZM53.13 30.08c-.374 1.392-.498 2.686-.376 3.857a7.149 7.149 0 0 1 2.117 2.843v-1.69l-.044-.075c-1.188-1.98-1.59-3.71-1.697-4.935Zm-2.246 3.328c.484.702 1.068 1.854 1.416 3.619.102.525.295.97.533 1.348.247.149.514.29.804.416.522.227.923.489 1.234.764v-.672a7.479 7.479 0 0 0-.323-1.437c-.605-1.817-1.836-3.172-3.664-4.038Zm2.549 5.898a7.281 7.281 0 0 1-3.13-2.577c.077 1.432.51 2.61 1.29 3.516 1.043 1.209 2.472 1.65 3.278 1.81v-1.71c-.286-.367-.738-.733-1.438-1.04Zm-2.923.307a16.628 16.628 0 0 0-2.425-1.712c.053.252.08.482.093.6a.282.282 0 0 1-.134.271c3.257 1.995 5.033 4.479 5.033 7.086 0 1.111-.325 2.2-.949 3.24a3.472 3.472 0 0 1 1.148-.606 6.762 6.762 0 0 0 .542-2.634c0-1.46-.485-2.873-1.411-4.19a5.624 5.624 0 0 1-1.209-1.049 5.429 5.429 0 0 1-.688-1.006Zm-2.853-2.764c.22 0 .526-.082.755-.156-.164-.372-.376-.73-.51-.792a.453.453 0 0 0-.196-.045.487.487 0 0 0-.444.302.526.526 0 0 0-.009.388.49.49 0 0 0 .256.281.356.356 0 0 0 .148.022Zm1.337-1.837c-.25-.315-.544-.603-.688-.628a.461.461 0 0 0-.076-.006.495.495 0 0 0-.478.429c-.02.133.01.267.086.378a.48.48 0 0 0 .316.203l.022.001c.182 0 .533-.188.818-.377Zm-1.91-3.397a1.77 1.77 0 0 0-.57.098c.356.078.669.254.933.526.442.453.578 1.012.562 1.606.015-.003.028-.007.043-.008.3-.584.41-1.195-.03-1.785-.272-.361-.66-.437-.937-.437Zm-3.72-2.274c-.984-.073-1.736.47-2.173 1.547.563-.473 1.306-.771 2.048-.771.062 0 .124.002.187.006 1.025.068 1.654.642 2.012 1.103a1.872 1.872 0 0 0-.323-.913c-.377-.554-1.032-.917-1.752-.972Zm-3.114 4.325a.342.342 0 0 1-.022.059l-.018.036-.002.003a.013.013 0 0 0 0 .004c-.444.875-.185 2.254.58 3.04.438.449.971.676 1.584.676.262 0 .479-.04.623-.068.084-.016.138-.026.188-.026.09 0 .17.039.222.104a.79.79 0 0 1 .084.11c.141.215.474.718 1.152.762.54.035.96-.26 1.363-.763.026-.181.096-.359.214-.512a1.01 1.01 0 0 1 .534-.36 1.099 1.099 0 0 1 .025-.8c.11-.258.31-.452.552-.554-.1-.201-.138-.43-.103-.657.03-.197.108-.373.22-.516.085-.648.011-1.173-.372-1.566a1.339 1.339 0 0 0-.999-.413c-.129 0-.238.015-.312.024a.824.824 0 0 1-.116.01h-.01l-.014.001c-.163 0-.238-.125-.324-.27-.218-.369-.73-1.232-1.908-1.31-1.06-.07-2.142.595-2.507 1.483-.01.035-.024.068-.038.102l-.005.011c-.003.01-.008.02-.01.03a.353.353 0 0 1-.026.055l-.555 1.305Zm-1.429-.1c-.004.01-.01.018-.014.027a.519.519 0 0 0 .444.265c.203 0 .39-.126.472-.321l.637-1.5a.566.566 0 0 0 .01-.414.529.529 0 0 0-.272-.3.506.506 0 0 0-.31-.036l-.011.03-.956 2.249Zm-1.43-.668a.56.56 0 0 0-.01.415.525.525 0 0 0 .482.347c.204 0 .389-.126.472-.321l.955-2.25a.562.562 0 0 0 .01-.414.53.53 0 0 0-.271-.3.49.49 0 0 0-.21-.048.516.516 0 0 0-.472.322l-.956 2.249Zm-1.07-.948a.554.554 0 0 0 .263.714.486.486 0 0 0 .31.036l.011-.03.955-2.249c.003-.009.01-.016.013-.026a.512.512 0 0 0-.442-.266.516.516 0 0 0-.472.322l-.638 1.498Zm1.074-3.135c1.006-.399 1.764-1.191 2.236-1.944a2.866 2.866 0 0 1-.284.037l-3.352 1.564c.448.173.916.29 1.4.343Zm15.367-6.212c-.06-.14 0-.305.135-.367l.336-.158-.584-1.377-7.624 3.558.581 1.37.336-.157a.253.253 0 0 1 .204-.006c.066.026.118.079.147.146l.512 1.204c.06.14-.001.306-.135.369l-.337.156.532 1.254 2.994-1.385-.532-1.252-.336.156a.262.262 0 0 1-.352-.141l-.515-1.215a.288.288 0 0 1-.006-.213.269.269 0 0 1 .141-.155l.336-.157-.15-.351a.29.29 0 0 1-.005-.214.269.269 0 0 1 .14-.155l1.16-.542a.262.262 0 0 1 .352.142l.153.36.335-.156a.26.26 0 0 1 .352.141l.511 1.203a.29.29 0 0 1-.135.369l-.337.157.533 1.254 2.993-1.386-.532-1.253-.335.157a.262.262 0 0 1-.352-.142l-.516-1.214Zm2.514-5.57c-.015 0-.029.002-.042.003l.572 1.345a.82.82 0 0 0 .157-.88.754.754 0 0 0-.687-.467Zm-1.244-.121a.524.524 0 0 0-.233.217c.005.01.011.019.014.028l.957 2.249.01.03a.49.49 0 0 0 .31-.035.553.553 0 0 0 .261-.716l-.637-1.5a.516.516 0 0 0-.471-.32.482.482 0 0 0-.211.047Zm-1.659.498a.563.563 0 0 0 .011.414l.955 2.25a.516.516 0 0 0 .472.32.498.498 0 0 0 .21-.046.527.527 0 0 0 .272-.301.558.558 0 0 0-.01-.413l-.956-2.25a.516.516 0 0 0-.472-.322.5.5 0 0 0-.21.047.531.531 0 0 0-.272.3Zm-7.109 4.042-.086.57c-.08.526-.167 1.1-.282 1.686l7.848-3.663-.03-.07-.709-1.669-6.741 3.146Zm2.778-7.825c-.12.101-.268.213-.433.36-.332.405-.773 1.105-1.256 2.232.062.001.123.005.183.01.41.032.618.182.77.293l.036.026c.293.208.573.314.834.314.12 0 .228-.023.323-.058-.282-.118-.501-.315-.69-.486-.16-.143-.31-.279-.47-.349a.293.293 0 0 1-.18-.33c.02-.108.096-.237.344-.237.154 0 .55.04.713.099.333.123.64.186.914.186.071 0 .137-.004.198-.012a3.374 3.374 0 0 1-.563-.39c-.164-.131-.32-.256-.492-.331a.299.299 0 0 1-.19-.337c.015-.09.082-.238.34-.238.172 0 .576.049.73.107.285.108.559.164.81.164.099 0 .19-.01.273-.024-.27-.105-.496-.28-.767-.49-.086-.068-.18-.14-.283-.218a1.82 1.82 0 0 0-1.038-.378c-.035.029-.072.057-.106.087Zm-6.068 7.424-.01.046.98.214.199-1 .833.182-.198.999.91.199.076-.503c.262-1.76.59-3.95.863-4.836.532-1.72 1.239-2.455 1.743-2.883h-.032a10.97 10.97 0 0 0-.344-.006c-1.03 0-1.552.164-2.21.49-1.833.905-2.287 3.825-2.62 5.957a31.32 31.32 0 0 1-.185 1.115l-.005.026Zm-.257 1.239c-.548 2.305-.96 3.432-1.223 4.078a5.821 5.821 0 0 1-1.984 2.47c2.077-.043 3.136-.536 3.59-.835 1.632-1.073 2.141-3.463 2.454-5.43l-.95-.207-.197 1-.834-.181.198-1-.982-.215c-.024.109-.047.216-.072.32ZM28.77 29.148l.738 1.74 10.573-4.935c.193-.493.453-1.234.777-2.446L28.77 29.148Zm4.054-2.503a7.722 7.722 0 0 1-1.18-2.486c-.02.082-.04.156-.058.216a7.757 7.757 0 0 1-1.131 2.285l1.168.545 1.2-.56Zm3.014-1.406a4.44 4.44 0 0 1-.91-1.798l-.005-.03-.023-.166a16.37 16.37 0 0 0-2.958-.3c.066.42.186.987.27 1.26a7.183 7.183 0 0 0 1.111 2.207l2.515-1.173Zm-4.216-21.39c-.391 0-.711.335-.711.747 0 .411.32.746.711.746.394 0 .714-.335.714-.746 0-.412-.32-.747-.714-.747Zm-6.458 6.306a5.066 5.066 0 0 0-.126.729c.01.018.021.036.03.055l.182.393c.103.012.183-.008.3-.1a1.106 1.106 0 0 1-.077-.309 1.09 1.09 0 0 1 .475-1.027l-.005-.035c-.062-.586.343-1.117.903-1.182.558-.063 1.066.36 1.128.946a.404.404 0 0 1 .003.035c.364.132.635.476.679.893.009.08.009.16 0 .24.28.066.64.052.88-.148a1.433 1.433 0 0 1-.022-.786c.106-.422.395-.77.781-.938a1.453 1.453 0 0 1 .105-.677c.147-.355.43-.632.78-.762a1.273 1.273 0 0 1 .886.001 1.395 1.395 0 0 1 .886 1.438c.49.212.824.718.824 1.291 0 .15-.022.293-.065.432.239.2.6.214.88.147a1.133 1.133 0 0 1 0-.24c.044-.416.315-.76.678-.891l.003-.036c.063-.587.57-1.01 1.129-.946.56.066.964.596.902 1.183 0 .011-.003.023-.004.035.327.213.52.61.475 1.026a1.118 1.118 0 0 1-.078.31c.117.091.197.111.3.1l.182-.394.03-.055a5.081 5.081 0 0 0-.125-.727c-.545-2.083-2.732-4.182-6.391-4.209h-.137c-3.66.027-5.846 2.126-6.39 4.208Zm-.383 2.298c3.855-.874 9.831-.874 13.684 0a7.52 7.52 0 0 1 .376-1.451.407.407 0 0 0-.185.182l-.24.518a.268.268 0 0 1-.184.151c-.429.098-.697.006-1.062-.362a.289.289 0 0 1-.025-.373.53.53 0 0 0 .1-.258.513.513 0 0 0-.34-.544.273.273 0 0 1-.162-.15.293.293 0 0 1-.005-.224.553.553 0 0 0 .036-.143.509.509 0 0 0-.432-.566.495.495 0 0 0-.54.453.546.546 0 0 0 .005.146.293.293 0 0 1-.052.22.26.26 0 0 1-.19.107.502.502 0 0 0-.445.454.538.538 0 0 0 .032.248.285.285 0 0 1 .024.114.28.28 0 0 1-.17.26c-.563.258-1.388.22-1.817-.357a.289.289 0 0 1-.018-.316.869.869 0 0 0 .072-.349.83.83 0 0 0-.647-.823.267.267 0 0 1-.177-.129.296.296 0 0 1-.028-.223.867.867 0 0 0 .033-.238c0-.463-.36-.839-.802-.839a.8.8 0 0 0-.733.504.869.869 0 0 0-.034.571.29.29 0 0 1-.028.225.266.266 0 0 1-.176.129.82.82 0 0 0-.623.614.88.88 0 0 0 .054.572.29.29 0 0 1-.024.303c-.43.578-1.256.614-1.82.356a.287.287 0 0 1-.146-.367.544.544 0 0 0 .035-.255.5.5 0 0 0-.446-.453.263.263 0 0 1-.19-.108.287.287 0 0 1-.05-.219.527.527 0 0 0 .004-.146.494.494 0 0 0-.54-.453.51.51 0 0 0-.433.566.53.53 0 0 0 .036.143.289.289 0 0 1-.005.224.272.272 0 0 1-.162.15.514.514 0 0 0-.34.544c.01.095.045.183.1.258a.289.289 0 0 1-.025.372c-.365.37-.633.461-1.062.363a.27.27 0 0 1-.184-.151l-.24-.518a.403.403 0 0 0-.184-.182c.154.43.306.947.375 1.45Zm5.2-.055c-1.8.072-3.527.261-4.947.57.073.894.233 1.904.498 2.978.166.05.354.145.495.33.069.09.125.216.165.322a.605.605 0 0 0 .298-.095.967.967 0 0 1 .4-1.827.884.884 0 0 1 .74-.41c.427 0 .796.32.877.761a.925.925 0 0 1 .633.817c.003.035.005.07.003.105a.821.821 0 0 0 .687-.122 1.267 1.267 0 0 1-.04-.323c0-.484.275-.912.682-1.103a1.206 1.206 0 0 1-.002-.072c0-.666.518-1.208 1.153-1.208.636 0 1.152.542 1.152 1.208v.072c.406.19.682.62.682 1.103 0 .11-.014.218-.041.322a.817.817 0 0 0 .687.123.927.927 0 0 1 .015-.2.921.921 0 0 1 .622-.722.905.905 0 0 1 .878-.762.886.886 0 0 1 .74.41.97.97 0 0 1 .139.703.963.963 0 0 1 .26 1.125.609.609 0 0 0 .297.095c.04-.106.097-.232.165-.323a.95.95 0 0 1 .495-.33c.266-1.074.426-2.084.498-2.977-1.42-.31-3.147-.499-4.946-.57a41.447 41.447 0 0 0-3.285 0Zm-4.65 4.07c.184.377.373.807.51 1.212 1.498-.464 3.582-.729 5.777-.729 2.2 0 4.288.266 5.786.732.137-.406.327-.836.512-1.215a.47.47 0 0 0-.28.156 1.332 1.332 0 0 0-.135.323.27.27 0 0 1-.219.197 1.169 1.169 0 0 1-1.074-.402.288.288 0 0 1 .003-.373.38.38 0 0 0 .088-.184.383.383 0 0 0-.22-.423.274.274 0 0 1-.151-.16.293.293 0 0 1 .011-.225.396.396 0 0 0-.021-.388.364.364 0 0 0-.232-.159.365.365 0 0 0-.423.302.408.408 0 0 0-.004.108.288.288 0 0 1-.068.214.26.26 0 0 1-.196.091.368.368 0 0 0-.354.309.4.4 0 0 0 .012.19.284.284 0 0 1-.149.344 1.352 1.352 0 0 1-1.591-.275.289.289 0 0 1-.052-.321.67.67 0 0 0 .063-.288c0-.31-.21-.579-.501-.638a.27.27 0 0 1-.177-.129.29.29 0 0 1-.028-.223.707.707 0 0 0 .026-.185c0-.358-.279-.65-.621-.65-.342 0-.62.292-.62.65 0 .064.009.124.025.183a.293.293 0 0 1-.027.224.269.269 0 0 1-.177.13.642.642 0 0 0-.502.638c0 .095.018.187.056.272a.286.286 0 0 1 .036.14c0 .075-.03.15-.087.205a1.35 1.35 0 0 1-.97.412c-.22 0-.444-.054-.63-.152a.285.285 0 0 1-.133-.337.396.396 0 0 0 .011-.191.367.367 0 0 0-.352-.307.258.258 0 0 1-.198-.092.284.284 0 0 1-.067-.214.398.398 0 0 0-.004-.108.368.368 0 0 0-.423-.302.363.363 0 0 0-.231.16.395.395 0 0 0-.023.387c.035.07.038.152.012.225a.271.271 0 0 1-.15.16.383.383 0 0 0-.22.424.384.384 0 0 0 .086.183.29.29 0 0 1-.006.382c-.229.266-.533.406-.882.406-.06 0-.122-.004-.183-.013a.271.271 0 0 1-.219-.197 1.351 1.351 0 0 0-.134-.323.47.47 0 0 0-.28-.155Zm.875 1.685c.28.77.615 1.553 1.011 2.332.046.036.09.078.128.129.05.063.09.147.121.224a.191.191 0 0 0 .039-.02.818.818 0 0 1 .21-.9.823.823 0 0 1 .124-.563.756.756 0 0 1 .488-.336c.013-.003.027-.004.04-.006a.645.645 0 0 1 .102-.008c.354 0 .66.257.742.615a.79.79 0 0 1 .51.725.597.597 0 0 0 .43-.08 1.015 1.015 0 0 1-.032-.224c0-.392.216-.74.538-.907v-.02c0-.559.433-1.013.965-1.013.534 0 .968.454.968 1.013v.02c.322.167.538.515.538.907 0 .07-.015.15-.032.224a.594.594 0 0 0 .429.08.771.771 0 0 1 1.252-1.34c.034 0 .069.003.102.008.014.002.028.003.041.006.401.08.67.479.611.899a.822.822 0 0 1 .21.9c.015.01.027.015.04.019.03-.076.072-.16.12-.224a.7.7 0 0 1 .13-.13c.394-.777.729-1.558 1.009-2.327a15.768 15.768 0 0 0-2.487-.478 25.028 25.028 0 0 0-2.935-.169c-1.018 0-2.009.058-2.925.167-.923.11-1.769.271-2.488.477Zm.95 3.208c.059.11.114.223.162.334 1.185-.368 2.7-.57 4.3-.57 1.605 0 3.123.202 4.31.573.047-.111.101-.222.16-.333a.25.25 0 0 1-.108.031c-.046.006-.09.01-.13.01-.245 0-.444-.108-.648-.348a.29.29 0 0 1 .002-.374.237.237 0 0 0 .056-.116.243.243 0 0 0-.14-.269.274.274 0 0 1-.151-.16.29.29 0 0 1 .013-.226.24.24 0 0 0-.16-.346.231.231 0 0 0-.27.191.244.244 0 0 0-.002.07.29.29 0 0 1-.068.213.261.261 0 0 1-.196.092.232.232 0 0 0-.224.195.247.247 0 0 0 .007.121.285.285 0 0 1-.147.342 1.123 1.123 0 0 1-1.32-.227.287.287 0 0 1-.063-.293c.03-.086.056-.194.056-.23a.45.45 0 0 0-.35-.446.267.267 0 0 1-.178-.129.29.29 0 0 1-.028-.225.442.442 0 0 0 .018-.127.445.445 0 0 0-.435-.455.445.445 0 0 0-.433.455c0 .044.006.086.018.127a.289.289 0 0 1-.028.224.266.266 0 0 1-.176.13.45.45 0 0 0-.351.446c0 .039.03.156.056.23a.288.288 0 0 1-.064.293 1.119 1.119 0 0 1-.81.348 1.15 1.15 0 0 1-.523-.126.287.287 0 0 1-.133-.339.242.242 0 0 0 .008-.119.233.233 0 0 0-.225-.194.262.262 0 0 1-.196-.092.287.287 0 0 1-.068-.214.258.258 0 0 0-.003-.07.231.231 0 0 0-.268-.19.228.228 0 0 0-.147.1.252.252 0 0 0-.014.246c.034.07.039.152.012.225a.272.272 0 0 1-.15.161.242.242 0 0 0-.14.268.245.245 0 0 0 .055.117.288.288 0 0 1 .003.373c-.205.24-.404.348-.648.348-.044 0-.09-.004-.14-.011a.29.29 0 0 1-.1-.034Zm.366 1.512c.128-.037.258-.07.393-.104l.001-.006c2.186-.516 5.284-.512 7.46.01v.008c.12.028.235.059.348.092l.009-.006a.3.3 0 0 0 .143-.152c.057-.138.026-.328-.007-.452-1.15-.374-2.652-.58-4.25-.58-1.594 0-3.092.204-4.241.576-.035.13-.064.32-.006.458a.3.3 0 0 0 .142.15.038.038 0 0 1 .008.006Zm.84.568a4.465 4.465 0 0 1-.921 1.813l2.514 1.173a7.181 7.181 0 0 0 1.124-2.222c.083-.273.203-.841.269-1.262a16.478 16.478 0 0 0-2.958.293l-.028.205Zm-5.925.089c.328 1.218.589 1.958.781 2.448l5.519 2.575 2.232-1.042-8.532-3.981Zm-5.64-7.302c.06-.005.121-.009.182-.01-.427-.998-.821-1.66-1.136-2.08-.23-.228-.437-.38-.594-.512a3.98 3.98 0 0 0-.105-.086 1.832 1.832 0 0 0-.998.377l-.283.217c-.272.211-.497.386-.767.492.084.014.175.023.274.023.251 0 .524-.056.812-.164.151-.058.555-.107.729-.107.256 0 .323.149.34.238a.3.3 0 0 1-.191.337c-.172.075-.328.2-.494.332a3.41 3.41 0 0 1-.562.39c.061.007.127.01.199.01.273 0 .58-.062.913-.185.162-.06.56-.099.714-.099.247 0 .324.129.344.237a.294.294 0 0 1-.18.33c-.16.07-.31.206-.47.349-.189.171-.408.368-.69.486a.926.926 0 0 0 .323.058c.26 0 .54-.106.833-.314l.037-.026c.152-.11.36-.26.77-.293Zm-8.783.807-.042-.002a.752.752 0 0 0-.687.467.818.818 0 0 0 .157.88l.572-1.345Zm1.42.121.014-.028a.52.52 0 0 0-.233-.218.486.486 0 0 0-.21-.047.516.516 0 0 0-.472.322l-.637 1.5a.553.553 0 0 0 .262.714.492.492 0 0 0 .31.035c.003-.01.006-.02.011-.03l.955-2.248Zm1.43.667a.558.558 0 0 0-.262-.715.503.503 0 0 0-.681.275l-.956 2.249a.56.56 0 0 0-.01.414.527.527 0 0 0 .272.3c.067.032.137.048.21.048.203 0 .389-.126.472-.322l.955-2.249Zm7.359 6.435L10.6 20.7l-.585 1.377.336.157a.284.284 0 0 1 .135.368l-.516 1.214a.262.262 0 0 1-.351.142l-.337-.157-.532 1.253 2.995 1.386.532-1.254-.338-.157a.278.278 0 0 1-.14-.156.29.29 0 0 1 .006-.213l.51-1.203a.261.261 0 0 1 .352-.141l.336.156.153-.36a.261.261 0 0 1 .352-.142l1.16.542c.064.03.115.086.14.155a.29.29 0 0 1-.005.213l-.15.352.336.157c.064.03.115.086.14.155a.294.294 0 0 1-.005.213l-.515 1.215a.262.262 0 0 1-.352.141l-.337-.156-.53 1.252 2.993 1.385.532-1.254-.337-.156a.285.285 0 0 1-.135-.369l.511-1.204a.27.27 0 0 1 .148-.146.25.25 0 0 1 .203.006l.336.156.582-1.37Zm.176-.53a38.136 38.136 0 0 1-.286-1.708c-.026-.169-.054-.353-.082-.547l-6.789-3.168-.336.793-.402.946 7.895 3.684Zm1.113-2.237-.198-1 .834-.18.199 1 .979-.215-.014-.073c-.064-.33-.122-.71-.186-1.114-.332-2.131-.786-5.052-2.62-5.957-.658-.326-1.18-.49-2.21-.49-.108 0-.223.002-.343.006h-.033c.505.428 1.211 1.163 1.744 2.883.274.885.6 3.077.863 4.837l.074.502.912-.2Zm1.678 6.511c.454.299 1.513.792 3.59.835a5.815 5.815 0 0 1-1.983-2.47c-.262-.646-.675-1.771-1.223-4.078-.025-.105-.05-.211-.072-.32l-.982.215.198 1-.834.181-.198-1-.949.207c.313 1.967.822 4.357 2.453 5.43Zm4.705.812a5.567 5.567 0 0 0 1.377-.334l-3.379-1.576a2.836 2.836 0 0 1-.233-.034c.471.753 1.23 1.545 2.235 1.944Zm-.288 1.36a.524.524 0 0 0-.233.22l.014.026.955 2.25.01.03a.483.483 0 0 0 .31-.036.553.553 0 0 0 .263-.716l-.637-1.498a.516.516 0 0 0-.472-.322.493.493 0 0 0-.21.047Zm-1.66.5a.562.562 0 0 0 .01.414l.956 2.25a.517.517 0 0 0 .472.321.526.526 0 0 0 .482-.347.563.563 0 0 0-.01-.415l-.955-2.25a.52.52 0 0 0-.473-.32.486.486 0 0 0-.21.047.53.53 0 0 0-.272.3Zm-1.07.948a.564.564 0 0 0 .011.414l.637 1.5a.518.518 0 0 0 .472.321.52.52 0 0 0 .443-.265c-.004-.01-.01-.018-.013-.027l-.956-2.25c-.005-.009-.007-.019-.01-.029a.508.508 0 0 0-.31.035.53.53 0 0 0-.273.3Zm-4.744-1.31c-.19.278-.298.587-.323.913.357-.46.987-1.035 2.013-1.103.804-.054 1.625.254 2.234.765-.411-1.01-1.096-1.553-1.997-1.553a2.83 2.83 0 0 0-.176.006c-.72.055-1.375.418-1.751.972Zm-.649 1.936c-.073-.009-.182-.024-.312-.024a1.34 1.34 0 0 0-.999.413c-.382.393-.456.919-.372 1.566.113.144.191.32.22.516a1.1 1.1 0 0 1-.102.657c.241.102.442.296.552.553.109.256.117.54.024.801.209.057.396.181.534.36.119.154.189.331.214.514.403.502.823.796 1.364.76.677-.043 1.01-.546 1.152-.76a.765.765 0 0 1 .083-.111.283.283 0 0 1 .222-.104c.05 0 .105.01.19.026.143.027.36.068.621.068a2.14 2.14 0 0 0 1.584-.677c.765-.784 1.025-2.16.584-3.037l-.004-.006-.002-.005c-.006-.012-.01-.024-.017-.035a.375.375 0 0 1-.023-.057l-.555-1.307a.298.298 0 0 1-.024-.055c-.004-.01-.008-.018-.011-.029l-.006-.011a1.311 1.311 0 0 1-.037-.1c-.364-.889-1.449-1.555-2.508-1.485-1.178.078-1.69.941-1.908 1.31-.086.145-.16.27-.323.27H17.6a.824.824 0 0 1-.116-.01Zm-2.257-.197c-.442.59-.331 1.202-.031 1.785l.042.008c-.015-.594.122-1.153.563-1.606.265-.272.577-.448.932-.526a1.77 1.77 0 0 0-.57-.098c-.279 0-.665.076-.936.437Zm-.974 2.96c.286.19.637.377.818.377l.023-.001a.476.476 0 0 0 .315-.203.521.521 0 0 0 .087-.378.493.493 0 0 0-.554-.422c-.145.024-.439.312-.689.627Zm.582 1.681c.23.074.536.156.756.156a.357.357 0 0 0 .148-.022.49.49 0 0 0 .255-.281.528.528 0 0 0-.01-.389.485.485 0 0 0-.443-.301.457.457 0 0 0-.195.044c-.134.062-.347.421-.51.793Zm.328 1.208a16.554 16.554 0 0 0-2.426 1.711 5.434 5.434 0 0 1-.688 1.007 5.625 5.625 0 0 1-1.208 1.049c-.927 1.317-1.412 2.73-1.412 4.19 0 .898.184 1.78.543 2.634.485.155.86.373 1.147.606-.623-1.04-.948-2.129-.948-3.24 0-2.607 1.777-5.091 5.034-7.086a.281.281 0 0 1-.135-.272c.012-.117.04-.347.093-.599Zm-6.787-1.12a7.148 7.148 0 0 1 2.118-2.843c.122-1.172-.002-2.466-.376-3.857-.107 1.225-.509 2.954-1.698 4.934l-.044.076v1.69Zm0 2.775a4.604 4.604 0 0 1 1.235-.764c.29-.128.557-.269.803-.418.239-.377.432-.824.535-1.347.346-1.765.931-2.917 1.415-3.62-1.837.87-3.07 2.233-3.672 4.061a7.567 7.567 0 0 0-.316 1.413v.675Zm0 2.498c.808-.16 2.242-.604 3.282-1.813.78-.904 1.21-2.083 1.287-3.512a7.29 7.29 0 0 1-3.13 2.577c-.7.305-1.151.668-1.439 1.034v1.714Zm-1.79-11.01c.049.713-.016 1.277-.133 1.718.325.104.613.236.859.374.509-.888.87-2.28.19-4.244-.151.485-.424 1.185-.915 2.152Zm1.258 3.152c-.273-.253-1.269-1.077-2.677-1.077-1.44 0-2.453 1.275-2.676 1.583v7.326c.316-.48.772-.907 1.302-1.218v-.01l.116-.054c.678-.37 1.462-.548 2.218-.406.185.024.357.065.51.125a2.85 2.85 0 0 1 1.207.857v-7.126ZM5.092 42.73c-.659.222-.755.595-.767.73v.059c.02.137.23 1.24 1.651 1.24 1.263 0 1.848-.937 1.867-1.866.025-1.222-.964-1.74-1.39-1.905a1.687 1.687 0 0 0-.225-.066v1.511a.283.283 0 0 1-.116.23.255.255 0 0 1-.247.03c-.01-.004-.318-.117-.773.037Zm-.767-.223a2.11 2.11 0 0 1 .604-.308c.307-.104.57-.118.766-.101V40.87a3.737 3.737 0 0 0-1.37.294v1.342ZM5.36 24.15c-.762 1.476-1.6 3.587-1.561 5.68.158.404.338.839.544 1.309a5.81 5.81 0 0 1 .437 1.447c.126-.016.255-.026.387-.026.27 0 .524.026.763.07.169-.613.229-1.538-.08-2.896-.568-2.484-.587-4.382-.49-5.584Zm-2.934 3.252c-.691 3.073-.204 4.991.411 6.12a3.976 3.976 0 0 1 1.42-.822 5.179 5.179 0 0 0-.398-1.328c-.787-1.793-1.21-3.12-1.433-3.97Zm1.942 20.02c.013.006 1.408.597 4.513.86.16.013.312.033.457.057a7.265 7.265 0 0 1-.441-2.482c0-1.275.338-2.512.989-3.684a7.024 7.024 0 0 1-1.51.45v.562a.283.283 0 0 1-.044.152c-.183 1.02-.943 1.978-2.356 1.978-1.572 0-2.114-1.137-2.181-1.742l-.001-.002c0-.008-.005-.05-.001-.119v-2.004a2.864 2.864 0 0 0-1.12 1.395 3.14 3.14 0 0 0-.16.677c-.148 1.14.18 2.73 1.538 3.996l.006-.008a.259.259 0 0 1 .311-.086Zm.628.789c.864 1.087 1.782 1.852 2.72 2.28a9.82 9.82 0 0 1 .976-.051c.7 0 1.237.088 1.651.215.262-.215.569-.418.926-.603-.312-.46-.995-1.093-2.43-1.214-1.85-.157-3.103-.424-3.843-.627Zm2.89 7.02c.44-.104.793-.257 1.076-.433a4.733 4.733 0 0 1-.053-1.636c-1.884.224-3.029 1.685-3.67 2.927.518-.242 1.346-.547 2.648-.858Zm1.15-2.642a3.838 3.838 0 0 1 .83-1.48c-.314-.068-.7-.111-1.174-.111-.34 0-.71.022-1.1.067a36.228 36.228 0 0 1-4.108.236c-.66 0-1.215-.019-1.645-.041 1.839 1.21 3.61 1.822 5.279 1.822.07 0 .138-.005.208-.007a4.584 4.584 0 0 1 1.71-.486Zm7.744 4.174a19.344 19.344 0 0 1-1.616-.757 4.418 4.418 0 0 0-.062.221c-.272 1.066.04 1.748.28 2.086.084.118.158.193.197.228.296.11.552.114.76.012.305-.15.46-.503.526-.7.204-.614-.004-.98-.085-1.09Zm-1.761-1.8c.633-1.242 1.557-1.721 2.314-1.892-1.229-.563-3.04-1.485-4.362-2.627-.084-.071-.32-.184-.608-.184-.138 0-.27.026-.395.077-3.256 1.353-2.566 4.112-2.441 4.529.136.153.767.81 2.324 1.79 1.3.819 2.257 1.294 2.866 1.56-.301-.664-.467-1.745.302-3.253Zm1.106-.621a25.728 25.728 0 0 0 3.674 1.539c.583.11 1.296.202 2.167.253 1.726.102 2.862.648 3.519 1.094.097.016.194.03.291.044a3.544 3.544 0 0 0-.137-.805c-3.27-.49-6.279-1.383-8.808-2.632a2.756 2.756 0 0 0-.706.507Zm1.925 1.638c1.23 1.631 2.833 2.457 4.776 2.457a7.672 7.672 0 0 0 2.675-.51 4.423 4.423 0 0 0-.61-.42c-.568-.326-1.54-.732-2.955-.815-1.939-.115-3.148-.42-3.886-.712Zm1.499 4.247c2.984 0 4.546-.803 5.346-1.516a7.96 7.96 0 0 1-2.07.284 6.3 6.3 0 0 1-2.709-.596 6.674 6.674 0 0 0-1.212.638 6.892 6.892 0 0 1-2.281.97c1.05.146 2.03.22 2.925.22Zm2.241 1.505c1.576-.731 2.513-1.568 3.07-2.289-.8.576-2.06 1.121-4.026 1.29a5.87 5.87 0 0 0-1.172 2.43c.424-.428 1.094-.95 2.128-1.431Zm5.123 2.618c.394 0 1.105-.088 1.678-.629a3.29 3.29 0 0 1-.773-.152c-.098-.028-.198-.058-.313-.086-.16.018-.514.089-.687.28-.13.143-.237.354-.07.581.043.003.098.006.165.006Zm8.515-.781c-.225.066-.442.13-.773.152.574.541 1.284.63 1.679.63.067 0 .122-.004.164-.007.167-.227.06-.438-.069-.581-.173-.191-.533-.264-.688-.28-.114.028-.215.058-.313.086Zm-.074-2.272c1.638 0 2.705-.212 3.534-.442-1.016-.498-1.858-1.661-1.944-2.874-.12-1.69.463-2.63 1.147-3.202l-.025.005c-1.494.312-3.354.7-6.427.703h-.03c-3.074-.003-4.934-.39-6.429-.702l-.024-.006c.683.571 1.265 1.513 1.146 3.202-.085 1.213-.928 2.375-1.944 2.874.83.23 1.896.442 3.535.442.611 0 1.372-1.132 1.59-1.529a.264.264 0 0 1 .285-.133.274.274 0 0 1 .21.242c.169 1.6-.025 2.846-.577 3.71v.001a2.92 2.92 0 0 1-.245.331 2.71 2.71 0 0 1-.645.554c.322-.062.632-.17.93-.321 1.448-.74 1.857-2.114 1.925-2.382a.267.267 0 0 1 .257-.208c.121 0 .226.085.258.208.067.268.477 1.642 1.925 2.382.298.152.608.259.928.321a2.72 2.72 0 0 1-.644-.554c-.737-.863-1.014-2.223-.822-4.042a.274.274 0 0 1 .21-.242.26.26 0 0 1 .285.133c.22.397.98 1.529 1.59 1.529Zm8.203 1.863a5.9 5.9 0 0 0-1.19-2.43c-1.954-.169-3.208-.712-4.007-1.287.559.721 1.496 1.558 3.07 2.289 1.033.48 1.703 1.001 2.127 1.428Zm.76-4.123a6.74 6.74 0 0 0-1.137-.606 6.178 6.178 0 0 1-2.7.605 7.897 7.897 0 0 1-2.108-.298c.816.706 2.379 1.489 5.3 1.489a21.3 21.3 0 0 0 2.926-.22 6.912 6.912 0 0 1-2.28-.97Zm-3.838-.56c1.954 0 3.553-.849 4.767-2.526a.81.81 0 0 1-.023.01c-.97.387-2.295.634-3.938.731-1.414.083-2.387.49-2.954.815a4.467 4.467 0 0 0-.614.424c.526.21 1.56.546 2.762.546Zm2.997-2.605a25.91 25.91 0 0 0 3.646-1.53 2.71 2.71 0 0 0-.706-.507c-2.53 1.249-5.54 2.142-8.809 2.632-.07.237-.118.504-.137.806l.26-.04c.654-.447 1.793-.996 3.525-1.099a17.08 17.08 0 0 0 2.221-.262Zm4.193 2.67c.164-.151.918-.952.414-2.537-.603.318-1.007.499-1.617.758-.078.107-.29.473-.085 1.09.066.197.221.55.527.7.207.102.464.097.76-.012Zm6.05-3.676c.125-.414.816-3.176-2.44-4.529a1.032 1.032 0 0 0-.395-.077c-.287 0-.525.113-.608.184-1.323 1.142-3.134 2.064-4.363 2.627.758.17 1.681.65 2.314 1.892.712 1.396.613 2.413.403 3.02a2.178 2.178 0 0 1-.09.228c.61-.266 1.563-.742 2.855-1.555 1.557-.979 2.188-1.636 2.324-1.79Zm4.289 1.223c-.642-1.242-1.787-2.703-3.67-2.927.103.69.019 1.294-.055 1.638a3.65 3.65 0 0 0 1.078.431c1.3.311 2.129.616 2.647.858Zm-1.879-3.007c1.668 0 3.44-.613 5.278-1.822-.43.022-.984.04-1.644.04-1.36 0-2.742-.079-4.107-.235a9.713 9.713 0 0 0-1.101-.067 5.75 5.75 0 0 0-1.177.108c.43.478.686.99.833 1.483a4.59 4.59 0 0 1 1.71.486c.07.002.138.007.208.007ZM28.556 20.209c.159-.032.327.154.353.293.025.138-.063.378-.22.41-.16.033-.328-.154-.354-.292-.026-.138.062-.379.22-.411Zm6.003.704c-.16-.033-.248-.273-.222-.411.027-.14.195-.326.354-.293.158.032.247.272.22.41-.026.139-.194.326-.352.294Zm-2.53-.757c0 .198-.183.503-.41.503-.226 0-.41-.305-.41-.503s.184-.503.41-.503c.227 0 .41.305.41.503Zm-4.29-4.44c.2-.04.413.196.447.372.032.175-.08.479-.28.52-.201.042-.414-.195-.447-.37-.033-.176.079-.48.28-.521Zm7.602.891c-.201-.04-.313-.344-.28-.52.033-.175.246-.413.447-.371.201.041.313.346.28.521-.033.175-.246.412-.447.37Zm-3.204-.958c0 .251-.232.638-.52.638-.286 0-.518-.387-.518-.638 0-.25.232-.636.519-.636.287 0 .52.386.52.636Zm-4.15 15.354c-.162.08-.487.036-.578-.17-.091-.203.086-.492.248-.57.163-.08.488-.037.579.167.091.204-.086.493-.25.573Zm-10.38 4.281a1.077 1.077 0 0 1-.686-.493 1.183 1.183 0 0 1-.151-.856c.105-.523.552-.903 1.062-.903.077 0 .153.008.226.025a.81.81 0 0 1 .196.07.952.952 0 0 1-.047-.21c-.062-.625.371-1.186.968-1.252a.999.999 0 0 1 .113-.006c.557 0 1.022.438 1.08 1.02a.99.99 0 0 1-.005.218.91.91 0 0 1 .178-.114c.141-.065.289-.099.441-.099.43 0 .82.266.994.677.118.277.126.586.022.87a1.108 1.108 0 0 1-.572.632.89.89 0 0 1-.2.065.882.882 0 0 1 .158.142c.401.466.365 1.188-.08 1.607-.2.189-.457.293-.727.293-.308 0-.602-.137-.807-.376a.991.991 0 0 1-.119-.18 1.08 1.08 0 0 1-1.023.77c-.19 0-.377-.052-.541-.152a1.128 1.128 0 0 1-.507-.691 1.184 1.184 0 0 1 .109-.866.98.98 0 0 1 .125-.172l-.019.002a.828.828 0 0 1-.188-.021Zm1.502 1.052c.132-.24.018-.743-.02-.891a.161.161 0 0 0-.153-.123.155.155 0 0 0-.04.005c-.142.041-.614.188-.747.428a.598.598 0 0 0 .203.794.537.537 0 0 0 .757-.213Zm1.167-2.31a.172.172 0 0 0 .002.126.162.162 0 0 0 .088.088c.105.042.4.151.64.151.076 0 .146-.01.203-.037a.592.592 0 0 0 .281-.766.554.554 0 0 0-.508-.345.525.525 0 0 0-.224.05c-.24.113-.43.589-.482.733Zm-.268 1.318c-.008.153-.02.67.156.876a.534.534 0 0 0 .783.042.601.601 0 0 0 .041-.82c-.176-.205-.667-.247-.814-.255h-.008a.153.153 0 0 0-.106.043.171.171 0 0 0-.052.114Zm-.124-1.007a.467.467 0 0 0-.095-.144l-.016-.016-.037-.03a.467.467 0 0 0-.09-.055h-.001l-.004-.002-.022-.008a.366.366 0 0 0-.058-.017c-.006-.001-.013-.004-.02-.004a.426.426 0 0 0-.076-.007c-.021 0-.042.004-.062.007l-.03.004a.462.462 0 0 0-.09.03.486.486 0 0 0-.2.688h.003l.008.017.014.019a.44.44 0 0 0 .04.048l.016.017a.434.434 0 0 0 .133.086l.022.009a.33.33 0 0 0 .057.017c.006 0 .013.003.02.004.018.003.036.003.055.005l.018.002a.43.43 0 0 0 .185-.041.486.486 0 0 0 .23-.63Zm-.654-2.117c-.303.033-.525.32-.493.638.028.275.402.611.515.709.03.024.066.036.101.036h.015a.16.16 0 0 0 .108-.06c.09-.12.39-.532.363-.806a.566.566 0 0 0-.61-.517Zm-1.939 1.83a.581.581 0 0 0 .427.689c.025.005.05.008.077.008.258 0 .613-.227.725-.304a.167.167 0 0 0 .068-.104.168.168 0 0 0-.023-.125c-.079-.13-.36-.554-.617-.611a.522.522 0 0 0-.116-.013.56.56 0 0 0-.54.46Zm17.968-3.047c-.162-.08-.34-.369-.248-.573.09-.204.415-.248.578-.168.163.079.34.368.249.572-.091.205-.416.248-.579.169Zm6.562 3.861a1.114 1.114 0 0 1-.572-.633 1.185 1.185 0 0 1 .021-.87 1.09 1.09 0 0 1 .994-.677c.152 0 .3.034.442.1.06.028.12.068.177.113a1.015 1.015 0 0 1-.005-.22c.059-.58.524-1.018 1.08-1.018.038 0 .076 0 .114.006.596.065 1.03.628.967 1.252a1.003 1.003 0 0 1-.046.21.928.928 0 0 1 .42-.096c.512 0 .958.381 1.063.903.06.297.007.602-.151.857-.159.255-.401.43-.686.494a.846.846 0 0 1-.188.02l-.018-.002a.975.975 0 0 1 .125.172c.146.264.184.571.109.865-.076.294-.255.54-.507.692-.165.1-.352.152-.542.152a1.08 1.08 0 0 1-1.023-.771.918.918 0 0 1-.117.18c-.206.24-.5.377-.809.377-.268 0-.527-.104-.726-.293a1.18 1.18 0 0 1-.08-1.608c.045-.054.1-.1.157-.14a.897.897 0 0 1-.2-.065Zm3.073 1.685a.598.598 0 0 0 .204-.794c-.133-.24-.605-.387-.747-.427a.152.152 0 0 0-.12.016.168.168 0 0 0-.074.101c-.037.148-.152.652-.02.89a.55.55 0 0 0 .481.29.534.534 0 0 0 .276-.076Zm-.213-2.335a.17.17 0 0 0 .046.23c.11.075.466.303.725.303a.391.391 0 0 0 .077-.008.58.58 0 0 0 .426-.69.56.56 0 0 0-.541-.46.523.523 0 0 0-.116.014c-.257.057-.538.482-.617.611Zm-1.273-1.477c-.028.274.271.685.364.805a.153.153 0 0 0 .106.06l.016.001a.155.155 0 0 0 .1-.037c.114-.096.488-.432.516-.707.031-.319-.19-.606-.493-.64a.566.566 0 0 0-.61.517Zm-.045 1.6a.485.485 0 0 0 .23.629c.06.028.123.041.185.041l.018-.001v-.002a.401.401 0 0 0 .055-.003l.02-.005a.47.47 0 0 0 .14-.058l.01-.004a.508.508 0 0 0 .062-.05l.016-.017a.374.374 0 0 0 .054-.068l.009-.017h.002a.486.486 0 0 0-.2-.687.413.413 0 0 0-.09-.03c-.01-.003-.02-.003-.03-.005-.02-.002-.041-.006-.061-.006a.49.49 0 0 0-.078.006l-.02.005a.445.445 0 0 0-.057.017l-.022.008a.436.436 0 0 0-.095.056v.001l-.037.03-.016.017a.57.57 0 0 0-.04.047l-.014.02a.426.426 0 0 0-.04.075Zm-.29.85c-.146.008-.638.05-.815.256a.604.604 0 0 0 .04.82.538.538 0 0 0 .784-.043c.177-.206.165-.722.157-.876a.172.172 0 0 0-.052-.114.156.156 0 0 0-.107-.043h-.008Zm-1.316-1.6a.593.593 0 0 0 .28.767.487.487 0 0 0 .204.038c.24 0 .535-.11.64-.153a.16.16 0 0 0 .087-.087.177.177 0 0 0 .004-.126c-.053-.144-.242-.62-.484-.733a.522.522 0 0 0-.224-.05.555.555 0 0 0-.507.344ZM36.82 50.665c.179.04.318.083.318.186 0 .042-.139.167-.338.167-.595 0-1.35-.104-1.984-.104-.695 0-1.568.084-2.104.084-.159 0-.318-.042-.318-.167 0-.062.08-.125.258-.166.517-.126.774-.291.834-.728.034-.29.054-1.524.059-3.387-.01-.128-.041-.236-.135-.253-.08-.02-4.497-.02-4.676.021-.013 0-.04.04-.058.104.003 1.934.023 3.219.058 3.515.06.437.317.602.834.728.178.04.257.104.257.166 0 .125-.158.167-.317.167-.536 0-1.409-.084-2.104-.084-.635 0-1.389.104-1.984.104-.199 0-.338-.125-.338-.167 0-.103.14-.145.319-.186.654-.167.793-.457.813-1.311.02-.873.02-4.992.02-5.387 0-.79-.02-1.435-.04-1.706-.08-.478-.377-.623-.793-.727-.12-.042-.299-.146-.299-.209 0-.062.12-.145.338-.145.377 0 1.37.083 1.845.083.338 0 1.588-.083 2.104-.083.238 0 .337.041.337.125 0 .062-.12.187-.318.229-.634.166-.714.395-.734 1.04v2.703c0 .292.02.396.1.417.048.008.836.014 1.75.015v-5.78H28.76v-1.227h1.765v-1.62h1.17v1.62h1.765v1.228h-1.764v5.779c.92-.001 1.708-.007 1.733-.015.082-.018.109-.05.116-.166v-2.954c-.02-.645-.099-.874-.733-1.04-.2-.042-.318-.167-.318-.229 0-.084.098-.125.337-.125.516 0 1.766.083 2.104.083.475 0 1.468-.083 1.845-.083.219 0 .337.083.337.145 0 .063-.179.167-.297.209-.417.104-.714.25-.794.727-.02.27-.04.916-.04 1.706 0 .395 0 4.514.02 5.387.02.854.159 1.144.814 1.31Zm7.017-5.18c.735.54 1.607 1.27 1.607 2.746 0 1.871-1.706 3.016-3.73 3.016-.556 0-1.766-.27-2.321-.499-.12-.042-.18-.188-.18-.23-.06-.29-.08-.935-.178-1.538-.08-.312.04-.437.099-.437.1 0 .139.146.218.374.16.52.496.999.913 1.373.437.375.953.624 1.51.624.99 0 1.666-.603 1.666-1.622 0-.77-.636-1.436-1.727-2.142-1.687-1.124-2.361-2.04-2.361-3.349 0-1.165.515-1.872 1.21-2.33.436-.27 1.25-.52 2.063-.52.953 0 1.608.167 2.005.27a.22.22 0 0 1 .158.208c-.02.354.1 1.27.14 1.415.04.208-.02.312-.1.312-.06 0-.139-.104-.198-.27a3.4 3.4 0 0 0-.694-1.124c-.338-.311-.834-.52-1.25-.52-.715 0-1.449.5-1.449 1.54 0 .56.237.998.972 1.58.615.478 1.25.853 1.627 1.124Zm-21.55 5.18c.178.04.258.104.258.166 0 .125-.16.167-.318.167-.535 0-1.409-.084-2.103-.084-.635 0-1.39.104-1.985.104-.199 0-.337-.125-.337-.167 0-.103.138-.145.317-.186.656-.167.794-.457.814-1.311.02-.873.02-4.992.02-5.387 0-.79-.02-1.435-.04-1.706-.08-.478-.377-.623-.794-.727-.119-.042-.298-.146-.298-.209 0-.062.12-.145.338-.145.377 0 1.369.083 1.846.083.337 0 1.587-.083 2.103-.083.238 0 .337.041.337.125 0 .062-.12.187-.317.229-.636.166-.715.395-.735 1.04v3.099c0 2.35.02 3.931.06 4.264.06.437.317.602.833.728Zm133.439-16.457c-.125-.324-.188-.357-.266-.357-.079 0-.189.064-.282.211-.111.18-.597.78-.817 1.008-.047.032-.032.082-.032.13 0 .065-.061.259-.079.29-.66 1.609-2.356 6.24-2.732 7.02-.455.957-.628 1.218-1.43 1.447-.329.097-.391.21-.391.324 0 .098.093.195.454.195.235 0 .942-.066 1.555-.066.581 0 .975.033 1.256.033.252 0 .472-.08.472-.21 0-.148-.141-.245-.456-.326-.58-.162-.738-.388-.738-.714 0-.326.173-1.056.676-2.356.03-.05.124-.162.172-.162.22-.018.974-.065 2.638-.05.189 0 .363.179.378.244.36 1.04.691 1.949.723 2.372.031.26.016.519-.629.682-.299.065-.407.194-.407.278 0 .144.188.242.502.242.408 0 1.021-.033 1.54-.033.485 0 1.663.066 2.056.066.361 0 .519-.13.519-.243 0-.116-.142-.212-.409-.293-.534-.162-.879-.326-1.397-1.642-.316-.811-1.383-3.751-2.247-6.27a97.92 97.92 0 0 0-.629-1.82Zm.032 5.509c.016.064-.046.129-.062.129-.503 0-1.666.016-2.279.033-.062 0-.124-.081-.109-.162.093-.392.849-2.438 1.131-3.218.047-.13.142-.162.172-.049.22.537.911 2.503 1.147 3.267Zm-17.653-5.655c.345 0 1.586.066 2.387.066.078 0 .299.162.345.21.237.293.676.796 1.32 1.575.77.975 3.848 4.275 4.68 5.184.079.08.141-.065.141-.098.078-.47.033-2.306.033-3.67 0-.554-.048-1.318-.095-1.74-.033-.325-.188-.698-.973-.91-.315-.082-.519-.178-.519-.373 0-.115.172-.195.455-.195.393 0 .754.017 1.068.017.756 0 1.398-.082 1.806-.082.266 0 .378.096.378.211 0 .097-.112.244-.393.325-.816.276-.895.57-.973 1.22-.047.584-.158 4.693-.158 6.073 0 .682.096 2.113.096 2.535 0 .147-.175.31-.253.31-.329 0-.706-.423-.849-.617-.297-.407-.596-.782-1.021-1.317-1.476-1.869-4.037-4.663-5.434-6.368-.079-.097-.173.032-.173.08-.032.44-.062.813-.078 2.097-.015 2.258-.046 3.493.032 4.29.063.519.235.795.989 1.038.329.098.439.211.439.31 0 .177-.22.243-.518.243-.455 0-.816-.066-1.367-.066-.344 0-1.224.05-1.491.05-.221 0-.409-.08-.409-.213 0-.162.188-.243.344-.29.725-.23 1.101-.358 1.147-1.577.08-1.819.284-4.94.284-6.108 0-.65-.047-.845-.095-.91-.283-.357-.392-.585-1.21-.78-.174-.032-.408-.161-.408-.276 0-.129.189-.244.473-.244Zm-6.679.146c-.126-.324-.188-.357-.266-.357-.079 0-.19.064-.284.211-.109.18-.597.78-.816 1.008-.048.032-.032.082-.032.13 0 .065-.063.259-.079.29-.66 1.609-2.356 6.24-2.733 7.02-.456.957-.628 1.218-1.429 1.447-.329.097-.392.21-.392.324 0 .098.093.195.454.195.235 0 .943-.066 1.555-.066.582 0 .974.033 1.258.033.251 0 .471-.08.471-.21 0-.148-.141-.245-.457-.326-.578-.162-.737-.388-.737-.714 0-.326.174-1.056.676-2.356.03-.05.125-.162.173-.162.219-.018.973-.065 2.638-.05.189 0 .361.179.376.244.362 1.04.693 1.949.723 2.372.033.26.016.519-.627.682-.299.065-.408.194-.408.278 0 .144.188.242.502.242.408 0 1.02-.033 1.538-.033.488 0 1.666.066 2.058.066.362 0 .519-.13.519-.243 0-.116-.142-.212-.409-.293-.534-.162-.88-.326-1.398-1.642a241.913 241.913 0 0 1-2.245-6.27c-.205-.6-.487-1.431-.629-1.82Zm.031 5.509c.016.064-.047.129-.063.129-.502 0-1.665.016-2.277.033-.063 0-.125-.081-.11-.162.093-.392.849-2.438 1.131-3.218.046-.13.141-.162.173-.049.221.537.91 2.503 1.146 3.267Zm-10.931-3.868c-.047-.78-.047-1.023-.817-1.218-.378-.098-.472-.21-.472-.325 0-.129.222-.228.502-.228.457 0 1.273.05 1.793.05.768 0 1.317-.05 1.869-.05.267 0 .485.064.485.228 0 .148-.218.276-.485.325-.787.145-.834.569-.866.99-.046.408-.062.976-.062 3.769 0 1.967.016 2.665.048 3.152.063.96.157 1.154 1.035 1.398.284.063.44.177.44.34 0 .163-.298.213-.485.213-.63 0-1.698-.099-2.358-.083-.455 0-.925.05-1.507.05-.376 0-.486-.114-.486-.278 0-.113.141-.226.47-.306.722-.18.833-.521.864-1.22.047-.617.078-2.291.078-3.67 0-.83 0-2.518-.046-3.137Zm-6.022 2.909c.691-.57 1.099-1.204 1.099-2.08 0-.746-.361-1.526-.848-1.933-.754-.65-2.012-.715-2.734-.715-.847 0-2.151.081-2.733.081h-1.146c-.267 0-.456.114-.456.227 0 .13.174.244.392.309.739.18.881.423.913.812.048.438.079 1.82.079 3.558 0 1.382 0 2.745-.096 3.998-.046.52-.219.713-.942.941-.203.065-.378.161-.378.26 0 .146.112.26.503.26.174 0 .959-.066 1.509-.066.77 0 1.46.098 2.01.098.189 0 .488-.065.488-.245 0-.113-.11-.224-.378-.306-.722-.197-.833-.358-.879-1.057-.046-.747-.079-2.907-.046-3.233.015-.082.109-.162.171-.162.297 0 .644.113.754.212.125.08.363.436.505.682.658 1.169 1.459 2.5 1.9 3.12.33.469.942 1.055 2.37 1.055.205 0 .801-.034 1.053-.13.11-.034.251-.147.251-.244 0-.066-.126-.196-.284-.228a2.2 2.2 0 0 1-1.35-.813c-.785-.94-2.073-3.182-2.372-3.834-.03-.063-.047-.195.031-.226.22-.113.551-.293.614-.341Zm-1.521-3.606c.53.568.673 1.298.673 1.72 0 .91-.455 1.493-.879 1.82-.174.114-.895.357-1.697.357-.08 0-.189-.096-.204-.194-.063-.423 0-3.266.048-3.82.014-.08.108-.29.187-.338.126-.066.536-.115.597-.115.425 0 .911.18 1.275.57Zm-9.323-1.024c.518 0 1.162-.066 1.382-.098.062-.017.174.098.188.212.017.291.017 1.412.017 1.736 0 .229-.111.456-.251.456-.142 0-.267-.243-.301-.406-.203-.91-.642-1.154-1.004-1.219-.298-.048-.975-.112-2.182-.097-.065 0-.19.064-.204.454-.032.407-.08 2.665-.064 3.558 0 .05.064.163.157.163h1.256c1.116 0 1.084-.065 1.384-.78.094-.244.202-.423.344-.423.126 0 .172.278.158.457-.032.454-.062.745-.062 1.12 0 .44.03.697.062 1.104.014.293-.078.488-.206.488-.123 0-.252-.195-.296-.358-.206-.714-.41-.828-1.023-.877-.502-.049-1.083-.049-1.571-.049-.062 0-.203.163-.203.196-.064.455-.046 1.721-.031 2.258.015.389 0 .992.063 1.332.046.147.187.357.345.39.25.05.739.097 1.273.097.47 0 1.052 0 1.443-.146.472-.177.896-.569 1.241-1.202.221-.422.363-.57.49-.57.155 0 .139.342.124.472 0 .132-.456 1.625-.596 1.885-.048.113-.3.212-.377.212-.174 0-4.054-.083-5.23-.083-1.054 0-1.226.083-1.791.083-.3 0-.536-.05-.536-.212 0-.147.205-.26.472-.325.8-.196 1.007-.357 1.067-1.235.046-.682.127-1.917.127-3.932 0-1.916.016-2.663-.015-3.135-.032-.584-.159-.909-.833-1.04-.332-.064-.503-.13-.503-.293 0-.144.268-.243.487-.243.737 0 2.025.05 2.844.05h2.355Zm-17.58-.082c.314 0 1.099.082 1.87.082.532 0 1.507-.034 1.867-.034.205 0 .377.083.377.196 0 .13-.108.26-.392.34-.706.197-.692.423-.565.878.235.797 1.915 5.117 2.293 5.915.03.046.125.046.141 0 .126-.261 1.792-4.274 2.26-5.557.348-.961-.076-1.024-.705-1.27-.173-.063-.346-.175-.346-.275 0-.113.173-.243.424-.243.487 0 .818.05 1.336.05.454 0 1.083-.066 1.415-.066.267 0 .47.098.47.228 0 .145-.158.26-.425.307-.707.18-1.035.521-1.43 1.366-.345.798-1.318 2.76-2.261 5.168-.517 1.281-.864 2.19-1.179 3.182-.06.18-.265.424-.423.424-.172 0-.313-.277-.346-.392-.078-.357-.36-1.299-.817-2.485-.534-1.478-1.742-4.466-2.34-5.946-.33-.762-.565-1.12-1.272-1.332-.19-.049-.408-.114-.408-.292 0-.148.219-.244.456-.244Zm-4.02.162c-.126-.324-.189-.357-.267-.357-.079 0-.187.064-.283.211-.109.18-.597.78-.816 1.008-.048.032-.031.082-.031.13 0 .065-.064.259-.08.29-.66 1.609-2.356 6.24-2.732 7.02-.455.957-.629 1.218-1.43 1.447-.329.097-.392.21-.392.324 0 .098.094.195.455.195.236 0 .942-.066 1.556-.066.58 0 .973.033 1.255.033.253 0 .472-.08.472-.21 0-.148-.14-.245-.456-.326-.582-.162-.739-.388-.739-.714 0-.326.173-1.056.676-2.356.031-.05.126-.162.174-.162.22-.018.974-.065 2.638-.05.189 0 .362.179.377.244.362 1.04.692 1.949.722 2.372.032.26.016.519-.627.682-.3.065-.41.194-.41.278 0 .144.19.242.505.242.409 0 1.019-.033 1.538-.033.487 0 1.666.066 2.058.066.362 0 .518-.13.518-.243 0-.116-.14-.212-.408-.293-.534-.162-.88-.326-1.399-1.642-.314-.811-1.382-3.751-2.246-6.27-.204-.6-.487-1.431-.628-1.82Zm.032 5.509c.016.064-.048.129-.063.129-.503 0-1.667.016-2.277.033-.064 0-.126-.081-.11-.162.093-.392.847-2.438 1.13-3.218.049-.13.141-.162.173-.049.22.537.91 2.503 1.147 3.267Zm-12.53 6.611c.063-.083.377-.244.455-.244.064 0 .283.048.488.178.376.277.754.472.99.472.188 0 .314-.049.423-.195.22-.277.283-.73.313-1.056.064-.926.048-3.038.048-5.376 0-2.325-.048-3.95-.078-4.633-.015-.308-.172-.648-.88-.827-.345-.08-.501-.226-.501-.357 0-.113.124-.228.485-.228.486 0 1.117.066 1.792.066.864 0 1.428-.05 1.916-.05.235 0 .438.064.438.196 0 .13-.094.26-.47.357-.533.13-.738.341-.753 1.136-.015 1.333-.08 5.607-.11 6.985-.063 1.951-.959 3.527-1.98 4.291-.77.568-1.509.828-1.933.828-.486 0-1.13-.277-1.13-.732 0-.177.315-.633.488-.81Zm78.331-20.207c-.12-.02-.271-.03-.577-.03-.27 0-.819.097-1.23.367-.457.278-.996.818-.996 1.772 0 .48.149.983.466 1.328.279.31.688.51 1.154.51.307 0 .781-.106 1.193-.47.018 0 .056.02.056.067 0 .136-.021.297-.021.385 0 .049.068.127.103.127.048 0 .14-.02.355-.1.177-.066.679-.162.865-.19.046-.02.169-.173.169-.25 0-.01-.021-.058-.057-.058-.094.008-.391.066-.494.066-.056 0-.129-.047-.148-.451-.011-.183-.028-.183-.028-2.13 0-2.782.047-3.294.084-3.776.009-.076-.048-.153-.067-.153a.307.307 0 0 0-.128.029 7.594 7.594 0 0 1-1.008.279c-.055.01-.158.114-.158.154 0 .02.02.048.103.097.42.222.42.336.43.394.026.231.055 1.667.008 1.935-.008.04-.037.107-.074.098Zm-1.611.615c.168-.174.419-.318.689-.318.186 0 .531.108.792.378a.923.923 0 0 1 .196.376c.037.432.037 1.05.026 1.607-.009.28-.128.578-.149.597a.969.969 0 0 1-.633.211c-.781 0-1.303-.866-1.303-1.646 0-.49.186-1.002.382-1.205Zm-2.403-.181a.971.971 0 0 0-.865-.472c-.168 0-.588.153-.876.366-.466.317-.717.586-.717.856 0 .059.055.134.111.134.047 0 .559-.258.652-.337a.18.18 0 0 0 .046-.094c-.008-.224.019-.377.067-.407a.623.623 0 0 1 .362-.096c.457 0 .709.395.709.636.008.115-.01.694-.018.78 0 .06-.056.107-.254.174-.202.067-.968.278-1.115.347-.131.058-.28.107-.375.232a.876.876 0 0 0-.175.501c0 .49.327.902.66.902.064 0 .28-.017.383-.056.101-.037.492-.202.82-.434.018-.008.056.021.064.04.111.357.382.472.606.472.445 0 .865-.424.865-.606 0-.01 0-.079-.018-.108-.019-.028-.028-.038-.056-.028a1.44 1.44 0 0 1-.354.144c-.094 0-.364-.057-.364-.462 0-.107.039-1.301.039-1.675 0-.415-.066-.618-.197-.81Zm-.669 2.85a1.018 1.018 0 0 1-.476.153c-.185 0-.559-.153-.559-.576 0-.241.074-.308.177-.366.233-.135.68-.291.922-.291.028 0 .065.048.065.077 0 .223-.009.57-.018.773-.009.028-.056.201-.111.23Zm-3.744-3.284c-.121-.02-.27-.03-.578-.03-.27 0-.818.097-1.228.367-.458.278-.999.818-.999 1.772 0 .48.151.983.468 1.328.279.31.688.51 1.155.51.305 0 .781-.106 1.191-.47.018 0 .056.02.056.067 0 .136-.02.297-.02.385 0 .049.066.127.103.127.047 0 .14-.02.354-.1.178-.066.681-.162.866-.19.047-.02.168-.173.168-.25 0-.01-.02-.058-.058-.058-.09.008-.389.066-.492.066-.055 0-.13-.047-.149-.451-.007-.183-.027-.183-.027-2.13 0-2.782.046-3.294.084-3.776.008-.076-.048-.153-.064-.153a.328.328 0 0 0-.132.029 7.528 7.528 0 0 1-1.006.279c-.056.01-.158.114-.158.154 0 .02.019.048.102.097.419.222.419.336.429.394.028.231.055 1.667.009 1.935-.009.04-.038.107-.074.098Zm-1.612.615c.168-.174.42-.318.688-.318.189 0 .532.108.792.378a.902.902 0 0 1 .197.376c.037.432.037 1.05.028 1.607-.009.28-.131.578-.15.597a.973.973 0 0 1-.633.211c-.783 0-1.303-.866-1.303-1.646 0-.49.187-1.002.381-1.205Zm-3.277-.355c-.103.028-.197.105-.197.174 0 .027.03.066.084.115.261.19.365.28.374.347.017.115.009 1.308.009 1.367 0 .367-.009.963-.037 1.098-.029.097-.158.211-.373.28-.158.038-.224.086-.224.144 0 .067.102.115.243.115.167 0 .512-.037.818-.037.197 0 .663.027.728.027.112 0 .231-.038.231-.105 0-.058-.055-.115-.204-.164-.232-.077-.419-.105-.429-.404-.006-.337-.018-.723-.018-1.214 0-.55.048-1.821.058-1.965 0-.02-.046-.107-.094-.107-.141.039-.605.251-.969.329Zm1.108-1.763c0-.183-.149-.502-.42-.502-.14 0-.287.05-.39.146a.6.6 0 0 0-.121.356c0 .173.075.279.149.367a.548.548 0 0 0 .316.124c.196 0 .466-.221.466-.49Zm-2.524 1.521c.102.02.281.096.299.107a.255.255 0 0 1 .085.143c0 .166.026.51.026.58 0 .085-.047.182-.111.182-.048 0-.113-.077-.159-.183-.205-.442-.447-.636-.754-.636-.344 0-.531.358-.531.568 0 .338.306.578.896.916.574.346.761.674.761 1.108 0 .452-.297.77-.55.943-.175.126-.53.232-.808.232-.291 0-.757-.078-.914-.212a2.439 2.439 0 0 1-.15-.743c0-.124.03-.212.075-.212.085 0 .149.115.206.225.269.508.541.692.857.692a.6.6 0 0 0 .373-.147c.139-.115.213-.326.213-.509 0-.23-.121-.424-.408-.616-.234-.165-.3-.223-.597-.405-.289-.19-.587-.539-.587-.991 0-.348.169-.676.522-.897.185-.115.445-.201.771-.201.178 0 .374.029.485.056Zm-4.86.3c.316-.115.632-.261.745-.327.111-.078.167-.107.194-.107.046 0 .094.077.094.107 0 .172-.018.346-.018.529 0 .04.046.058.055.04.354-.35.765-.599 1.052-.599.392 0 .486.25.486.337 0 .03-.029.096-.058.143-.11.164-.333.446-.397.473-.021.01-.114-.01-.142-.027-.103-.097-.344-.224-.53-.224-.14 0-.28.021-.363.116a.308.308 0 0 0-.094.213c0 .192.037 1.917.046 2.061.019.28.085.463.242.5.112.02.289.068.419.107.15.048.177.116.177.154 0 .058-.083.097-.231.097-.244 0-.607-.047-1.146-.047-.261 0-.39.036-.615.036-.104 0-.196-.037-.196-.124 0-.06.121-.097.186-.126.355-.127.383-.222.391-.8v-1.79c0-.116 0-.242-.093-.31-.204-.164-.327-.24-.327-.277 0-.02.029-.125.123-.155Zm-1.07.03c-.242-.243-.607-.368-.942-.368-.176 0-.483.048-.726.164-.736.356-1.127 1.127-1.127 1.897 0 1.117.661 1.915 1.677 1.915.585 0 1.071-.258 1.386-.739a.647.647 0 0 0 .075-.242c0-.038-.029-.114-.082-.114-.038 0-.085.066-.121.114-.16.242-.438.348-.84.348-.447 0-.837-.23-1.052-.52a2 2 0 0 1-.335-1.05c0-.106.009-.26.037-.339.011-.037.058-.075.084-.075.429.008 2.003.008 2.106.008.101 0 .186-.124.186-.182 0-.337-.133-.616-.326-.817Zm-1.957.615c.159-.443.513-.741.922-.741.326 0 .595.316.595.587 0 .202-.111.259-.316.259-.465.01-.912.01-1.154 0-.029 0-.066-.057-.047-.105Zm-4.86-.915c.159 0 .707.047.811.047.243 0 .483-.019.594-.019.14 0 .216.038.216.106s-.084.115-.207.155c-.26.076-.241.201-.195.326.26.8.736 1.908.804 1.977.025.028.052.008.072-.04.121-.27.605-1.58.698-1.878.074-.242-.008-.309-.289-.413-.083-.03-.157-.069-.157-.135 0-.06.064-.107.187-.107.166 0 .287.029.511.029.167 0 .455-.048.634-.048.083 0 .185.047.185.107 0 .056-.056.095-.205.154-.213.085-.318.202-.465.394-.159.26-.484 1.136-.763 1.81-.261.685-.273.78-.43 1.28-.046.146-.148.251-.223.251-.046 0-.103-.066-.13-.172-.093-.3-.131-.435-.345-.992-.222-.617-.708-1.802-.95-2.235a.61.61 0 0 0-.4-.327c-.14-.058-.187-.096-.187-.163 0-.06.142-.107.234-.107Zm-1.938.212c-.102.028-.195.105-.195.174 0 .027.029.066.085.115.261.19.362.28.373.347.016.115.008 1.308.008 1.367 0 .367-.008.963-.038 1.098-.028.097-.157.211-.372.28-.158.038-.222.086-.222.144 0 .067.101.115.242.115.166 0 .51-.037.817-.037.196 0 .663.027.726.027.113 0 .233-.038.233-.105 0-.058-.054-.115-.203-.164-.233-.077-.419-.105-.43-.404a47.987 47.987 0 0 1-.017-1.214c0-.55.046-1.821.056-1.965 0-.02-.047-.107-.094-.107-.14.039-.605.251-.969.329Zm1.109-1.763c0-.183-.148-.502-.42-.502a.582.582 0 0 0-.39.146.606.606 0 0 0-.121.356c0 .173.074.279.148.367a.566.566 0 0 0 .317.124c.196 0 .466-.221.466-.49Zm-5.979 1.753c.168-.058.523-.193.653-.28.102-.068.207-.115.252-.115.036 0 .084.106.084.145 0 .144-.028.384-.028.473 0 .047.055.027.055.027.372-.269.838-.53 1.238-.53.457 0 .717.212.847.367.214.249.327.692.327 1.175 0 .193.018 1.618.026 1.751.02.147.114.27.347.34.175.047.231.105.231.163 0 .067-.13.117-.269.117-.224 0-.466-.02-.726-.02-.234 0-.54.02-.66.02-.104 0-.234-.031-.234-.117 0-.068.104-.126.224-.164.212-.086.269-.174.289-.49.018-.319.018-1.484.018-1.765 0-.306-.151-.597-.253-.683-.102-.086-.381-.183-.585-.183-.391 0-.624.134-.783.279a.408.408 0 0 0-.092.232c-.01.125 0 2.196.009 2.31.008.136.046.214.334.3.094.028.168.096.168.154 0 .068-.102.116-.243.116-.12 0-.399-.008-.596-.008-.344 0-.633.026-.79.026-.14 0-.243-.05-.243-.134 0-.067.091-.116.195-.144.309-.096.356-.194.383-.54.027-.29.055-1.118.055-2.091 0-.105-.038-.203-.233-.376-.12-.095-.157-.132-.157-.163 0-.067.094-.163.157-.192Zm-6.591-2.59c.39 0 .651.028.996.028.344 0 .726-.02.931-.02.176 0 .279.04.279.115 0 .078-.092.135-.269.175-.337.067-.505.173-.559.56-.038.316-.038 1.298-.038 2.666 0 1.097.232 1.494.532 1.83.249.298.865.502 1.294.502.614 0 1.489-.26 1.721-1.33.112-.51.196-1.32.196-2.456 0-.626-.018-1.078-.036-1.184-.028-.355-.111-.492-.616-.617-.092-.02-.213-.095-.213-.163 0-.058.065-.107.232-.107.224 0 .502.03.801.03.382 0 .586-.02.846-.02.151 0 .234.039.234.114 0 .06-.083.117-.214.165-.411.125-.596.29-.605.886-.01.434-.065 1.514-.084 2.014-.056 1.676-.504 2.475-1.163 2.868-.429.253-.932.3-1.334.3-.836 0-1.459-.337-1.693-.569-.522-.51-.754-1.195-.754-2.794 0-1.25-.02-2.165-.028-2.29-.021-.185-.151-.338-.504-.415-.111-.03-.214-.087-.214-.174 0-.076.111-.115.262-.115Zm-3.364 2.774c-.139-.212-.38-.472-.863-.472-.169 0-.589.153-.877.366-.464.317-.717.586-.717.856 0 .059.056.134.111.134.046 0 .561-.258.652-.337.019-.019.047-.067.047-.094-.009-.224.018-.377.065-.407a.635.635 0 0 1 .363-.096c.456 0 .709.395.709.636a9.35 9.35 0 0 1-.02.78c0 .06-.055.107-.251.174-.203.067-.967.278-1.118.347-.132.058-.279.107-.372.232a.877.877 0 0 0-.176.501c0 .49.325.902.662.902.063 0 .279-.017.38-.056.102-.037.495-.202.82-.434.019-.008.055.021.066.04.112.357.38.472.604.472.448 0 .867-.424.867-.606 0-.01 0-.079-.02-.108-.019-.028-.027-.038-.056-.028a1.436 1.436 0 0 1-.353.144c-.093 0-.362-.057-.362-.462 0-.107.036-1.301.036-1.675 0-.415-.066-.618-.197-.81Zm-.669 2.85a1.015 1.015 0 0 1-.475.153c-.186 0-.559-.153-.559-.576 0-.241.074-.308.177-.366.234-.135.679-.291.923-.291.027 0 .066.048.066.077 0 .223-.011.57-.019.773-.01.028-.055.201-.113.23Zm-3.938-3.024c-.103.028-.197.105-.197.174 0 .027.028.066.084.115.262.19.365.28.373.347.019.115.01 1.308.01 1.367 0 .367-.01.963-.037 1.098-.028.097-.16.211-.375.28-.158.038-.222.086-.222.144 0 .067.102.115.243.115.167 0 .512-.037.82-.037.193 0 .659.027.725.027.112 0 .231-.038.231-.105 0-.058-.054-.115-.203-.164-.233-.077-.418-.105-.428-.404a43.197 43.197 0 0 1-.018-1.214c0-.55.046-1.821.055-1.965 0-.02-.046-.107-.093-.107-.14.039-.605.251-.968.329Zm1.106-1.763c0-.183-.148-.502-.417-.502-.142 0-.29.05-.392.146a.606.606 0 0 0-.12.356.54.54 0 0 0 .148.367.563.563 0 0 0 .317.124c.196 0 .464-.221.464-.49Zm-2.085 1.714c.094.077.14.23.14.31 0 .154-.278.393-.315.393-.066 0-.225-.067-.374-.192-.298-.222-.467-.385-.781-.385-.131 0-.391.116-.542.298-.241.29-.381.704-.381 1.136 0 .57.214.907.262.965.212.375.64.615 1.136.615.326 0 .586-.115.836-.288.093-.067.17-.04.17.01a.432.432 0 0 1-.131.288c-.318.366-.858.608-1.36.608a1.643 1.643 0 0 1-1.388-.771 2.358 2.358 0 0 1-.297-1.128c0-.712.363-1.291.912-1.665.354-.26.96-.405 1.23-.405.288 0 .708.076.883.21Zm-5.606-.116c.803.01.998-.067 1.174-.125.093-.029.215-.057.29-.057.064 0 .035.26.035.819 0 1.743-.009 2.148.02 2.542.018.203.121.249.39.338.187.068.206.097.206.164 0 .076-.112.114-.224.114-.204 0-.502-.026-.734-.026-.318 0-.598.036-.803.036-.102 0-.185-.028-.185-.116 0-.056.056-.095.205-.163.23-.098.325-.184.336-.347a89.06 89.06 0 0 0 .036-2.571c0-.057-.074-.134-.113-.144a11.01 11.01 0 0 0-1.508 0c-.02 0-.093.056-.093.126 0 .277 0 1.924.028 2.445.018.307.056.357.475.491.15.049.196.095.196.155 0 .048-.066.114-.205.114-.16 0-.577-.026-.876-.026-.325 0-.668.047-.791.047-.12 0-.186-.059-.186-.117 0-.066.066-.114.186-.144.316-.096.364-.163.4-.492.019-.21.019-1.743.019-2.446 0-.027-.046-.115-.092-.126a6.537 6.537 0 0 0-.337-.037c-.046 0-.083-.069-.073-.108.01-.085.13-.173.418-.326.048-.039.093-.087.093-.134 0-.463.066-.983.261-1.435.186-.414.458-.81.828-1.09.345-.278.783-.452 1.202-.452.596 0 .857.25.987.423a.36.36 0 0 1 .083.242c0 .23-.362.481-.483.481-.056 0-.197-.116-.362-.29-.206-.21-.496-.366-.783-.366a.665.665 0 0 0-.56.272c-.213.26-.418.924-.418 2.225 0 .037.056.094.12.094.14.01.765.01.838.01Zm-4.357.165c-.102.028-.195.105-.195.174 0 .027.027.066.083.115.26.19.364.28.373.347.02.115.01 1.308.01 1.367 0 .367-.01.963-.038 1.098-.028.097-.16.211-.372.28-.159.038-.225.086-.225.144 0 .067.104.115.243.115.166 0 .511-.037.817-.037.198 0 .664.027.729.027.112 0 .232-.038.232-.105 0-.058-.056-.115-.202-.164-.234-.077-.422-.105-.43-.404-.01-.337-.019-.723-.019-1.214 0-.55.046-1.821.055-1.965 0-.02-.046-.107-.093-.107-.139.039-.605.251-.968.329Zm1.108-1.763c0-.183-.15-.502-.42-.502a.588.588 0 0 0-.39.146.614.614 0 0 0-.121.356c0 .173.075.279.15.367.092.085.25.124.316.124.196 0 .465-.221.465-.49Zm-1.928 1.56c.02 0 .102.048.112.087 0-.03.029.25.029.366 0 .095-.177.116-.243.116h-.997c-.036 0-.074.049-.074.067-.018.251-.027 1.56-.027 2.043 0 .24.065.366.166.47.159.145.355.183.542.183a.976.976 0 0 0 .447-.144c.084-.047.111-.057.147-.057 0 0 .048.019.048.105s-.065.183-.13.25c-.252.261-.586.435-1.007.435-.382 0-.707-.232-.838-.444-.103-.162-.121-.355-.121-.645 0-.356.038-1.801.038-2.138 0-.066-.169-.136-.364-.182-.074-.03-.12-.088-.12-.128 0-.036.018-.076.056-.104.354-.28.651-.5.791-.685.111-.125.176-.212.215-.212.045 0 .139.087.139.117v.461c0 .029.047.077.083.077.206 0 1.072-.038 1.108-.038Zm-6.788.193c.169-.058.524-.193.653-.28.101-.068.203-.115.25-.115.037 0 .085.106.085.145 0 .144-.03.384-.03.473 0 .047.057.027.057.027.373-.269.839-.53 1.239-.53.456 0 .717.212.846.367.216.249.328.692.328 1.175 0 .193.018 1.618.027 1.751.018.147.111.27.344.34.177.047.233.105.233.163 0 .067-.129.117-.27.117-.222 0-.466-.02-.726-.02-.232 0-.54.02-.662.02-.102 0-.233-.031-.233-.117 0-.068.103-.126.225-.164.213-.086.27-.174.29-.49.017-.319.017-1.484.017-1.765 0-.306-.15-.597-.252-.683-.1-.086-.382-.183-.587-.183-.39 0-.623.134-.781.279a.4.4 0 0 0-.095.232c-.008.125 0 2.196.01 2.31.01.136.047.214.338.3.092.028.166.096.166.154 0 .068-.103.116-.242.116-.12 0-.4-.008-.597-.008-.344 0-.633.026-.79.026-.14 0-.243-.05-.243-.134 0-.067.094-.116.196-.144.306-.096.352-.194.382-.54.027-.29.055-1.118.055-2.091 0-.105-.037-.203-.233-.376-.12-.095-.157-.132-.157-.163 0-.067.09-.163.157-.192Zm-.904 1.685c0-1.223-.968-1.973-1.889-1.973-.634 0-1.117.278-1.397.538-.354.31-.653.78-.653 1.503 0 .491.289 1.137.69 1.474.346.299.818.5 1.248.5.418 0 .81-.105 1.192-.384.344-.232.81-.849.81-1.658Zm-2.644-1.415c.195-.163.392-.261.578-.261.251 0 .568.155.763.375.335.427.438.994.438 1.476 0 .432-.167 1.02-.4 1.279-.233.24-.43.3-.531.3-.437 0-.95-.348-1.165-1.05-.084-.24-.112-.55-.112-.868 0-.54.197-1.02.43-1.25Zm-4.004-2.62a.465.465 0 0 0-.269.087c-.028.03-.075.133-.085.367-.01.199-.01 1.406-.018 2.503 0 .875.018 1.647.018 1.887.01.617.076.715.568.858.177.048.242.106.242.192 0 .078-.167.116-.298.116-.242 0-.614-.038-1.023-.038-.27 0-.672.038-.95.038-.178 0-.289-.046-.289-.144 0-.068.111-.126.205-.154.502-.116.613-.3.632-.703.03-.463.047-1.224.047-1.705 0-.317-.009-2.378-.028-2.677-.01-.349-.01-.492-.53-.57-.178-.02-.27-.086-.27-.144 0-.077.082-.115.203-.125.067-.01.225-.01.308-.01.42 0 1.156-.078 1.604-.078.866 0 1.422.223 1.768.57.445.443.54.983.54 1.309 0 .84-.363 1.233-.633 1.483-.242.214-.7.425-1.081.425-.102 0-.353-.018-.503-.069-.102-.047-.157-.106-.157-.163 0-.038.045-.087.12-.087h.205c.475 0 1.145-.463 1.145-1.54 0-.858-.615-1.628-1.47-1.628Zm86.097 25.291c-.116.24-.425.976-.517 1.272-.047.143-.039.248.03.248.078 0 .155-.073.209-.129.171-.2.634-.911.781-1.19a.395.395 0 0 0 .054-.225c-.016-.103-.232-.12-.332-.12-.093 0-.201.08-.225.144Zm-.417 4.678c-.147 0-.426-.16-.426-.512 0-.208.047-.248.14-.32.139-.088.495-.208.626-.208.023 0 .054.048.054.08 0 .264-.015.6-.031.712 0 .032-.03.128-.069.152a.702.702 0 0 1-.294.096Zm.217-2.863c-.109 0-.487.104-.773.296-.48.32-.65.536-.65.767 0 .048.054.112.1.112.047 0 .627-.264.68-.32a.1.1 0 0 0 .032-.072c0-.271.015-.35.046-.367.055-.04.139-.056.248-.056.347 0 .51.32.517.512.008.103-.007.543-.015.615 0 .033-.046.088-.139.12-.178.056-.882.256-1.052.328-.07.032-.2.08-.278.192a.76.76 0 0 0-.139.407c0 .448.309.808.595.808.101 0 .255-.032.341-.064.1-.048.417-.192.61-.336.016-.015.062 0 .07.033.116.312.355.383.58.383.433 0 .796-.391.796-.543a.332.332 0 0 0-.023-.112c-.016-.016-.024-.024-.047-.008a1.582 1.582 0 0 1-.27.096c-.132 0-.287-.096-.287-.32 0-.088.031-1.04.031-1.352 0-.36-.077-.56-.17-.687a.892.892 0 0 0-.803-.432Zm-2.916.112c-.031 0-.069-.048-.069-.072v-.4c0-.056-.101-.135-.155-.135-.031 0-.085.064-.177.175-.17.184-.426.376-.812.64-.031.024-.039.04-.039.072 0 .048.031.112.092.136.163.064.295.12.295.176 0 .28-.032 1.439-.032 1.735 0 .312.039.431.14.567.123.184.41.345.719.345.363 0 .672-.153.881-.376.046-.057.124-.16.124-.232 0-.088-.031-.128-.055-.128-.03 0-.069.016-.131.056a.93.93 0 0 1-.34.111.627.627 0 0 1-.379-.135c-.085-.08-.123-.176-.123-.376 0-.472.007-1.215.007-1.615 0-.016.031-.056.077-.056h.735c.054 0 .201-.016.201-.096 0-.096-.023-.352-.023-.328 0-.056-.085-.088-.117-.088-.03 0-.648.024-.819.024Zm-3.634.152c.216 0 .417.136.556.32.24.352.31.871.31 1.207 0 .456-.125.88-.287 1.096-.115.135-.262.2-.34.2-.324 0-.68-.272-.842-.832a2.884 2.884 0 0 1-.093-.768c0-.527.139-.88.317-1.047.123-.12.247-.176.379-.176Zm.147-.264c-.572 0-1.005.256-1.238.464-.293.256-.533.68-.533 1.24 0 .447.248.95.58 1.23.286.248.719.417 1.067.417.355 0 .75-.097 1.067-.329.286-.191.688-.679.688-1.359a1.65 1.65 0 0 0-1.631-1.663Zm-4.014.192c.155 0 .302.112.418.296.115.175.17.535.17.656 0 .343-.085.687-.209.807-.085.072-.186.12-.239.12-.372 0-.619-.52-.619-1.031 0-.296.062-.528.178-.68a.378.378 0 0 1 .301-.168Zm.256 4.853c-.263 0-.549-.064-.751-.231a.738.738 0 0 1-.27-.569.71.71 0 0 1 .232-.511.661.661 0 0 1 .371-.096c.402 0 .533 0 .804.04.208.032.332.096.433.208a.633.633 0 0 1 .131.392.728.728 0 0 1-.347.631 1.297 1.297 0 0 1-.603.136Zm-.179-5.077c-.386 0-.703.112-.935.288-.301.232-.464.543-.464.903 0 .576.402.896.626 1.008.031.024.031.072.016.08-.123.152-.556.4-.626.456a.171.171 0 0 0-.054.096c0 .287.124.503.301.631.101.072.248.128.317.152.031.016.023.04 0 .056-.101.072-.34.224-.494.328a.524.524 0 0 0-.24.472c0 .255.154.535.41.72.286.191.579.271.973.271.379 0 .781-.096 1.176-.352.309-.2.796-.632.796-1.279 0-.264-.124-.544-.333-.735a1.063 1.063 0 0 0-.394-.192c-.224-.032-1.113-.056-1.453-.072-.093-.008-.286-.144-.286-.296 0-.064.085-.168.147-.208.023-.024.054-.024.107-.016.078.008.263.016.31.016.178 0 .588-.04.935-.304.302-.24.441-.568.441-.999 0-.136-.023-.248-.047-.344-.007-.016.008-.064.047-.064.186.016.402.016.449.016.03 0 .17-.192.17-.304 0-.04-.031-.088-.078-.096a9.53 9.53 0 0 0-.873-.056c-.055-.008-.124-.032-.209-.056a2.33 2.33 0 0 0-.735-.12Zm-3.905.296c.217 0 .418.136.557.32.239.352.309.871.309 1.207 0 .456-.124.88-.286 1.096-.116.135-.262.2-.34.2-.324 0-.68-.272-.843-.832a2.928 2.928 0 0 1-.092-.768c0-.527.139-.88.316-1.047.125-.12.248-.176.379-.176Zm.147-.264c-.571 0-1.005.256-1.237.464-.293.256-.533.68-.533 1.24 0 .447.247.95.58 1.23.286.248.719.417 1.066.417.356 0 .75-.097 1.067-.329.286-.191.688-.679.688-1.359a1.65 1.65 0 0 0-1.631-1.663Zm-3.511 1.847c0 .663-.448 1.175-.943 1.175-.139 0-.355-.127-.487-.271a.582.582 0 0 1-.1-.256c-.016-.24-.039-1.2-.031-1.408 0-.312.038-.351.061-.375.023-.024.155-.056.263-.056.263 0 .487.048.665.152.34.191.572.567.572 1.039Zm-.208-2.39a.918.918 0 0 1-.372.76c-.185.143-.626.191-.904.191-.046 0-.085-.064-.085-.104 0-1.343.015-1.575.031-1.703a.277.277 0 0 1 .069-.128c.085-.024.225-.048.271-.048.557 0 .99.368.99 1.032Zm.904-.097c0-.391-.162-.743-.541-.983-.232-.152-.665-.24-1.113-.24-.317 0-1.261.056-1.508.056h-.51c-.1 0-.217.04-.217.104 0 .088.101.136.202.152.401.08.448.144.487.32.023.112.046.52.046 1.2 0 1.583-.046 2.382-.062 2.55-.031.272-.062.391-.533.487-.085.016-.217.064-.217.136 0 .073.109.128.247.128.124 0 .31-.016.588-.007.348.007 1.198.023 1.415.023.309 0 1.012-.08 1.383-.352.372-.255.658-.631.658-1.159 0-.688-.395-1.087-.928-1.319-.024 0-.031-.064-.008-.072.209-.152.611-.416.611-1.024ZM27.02 10.273c-.244.029-.408.381-.385.595.022.213.255.52.5.49.244-.027.408-.379.385-.593-.022-.214-.255-.52-.5-.492Zm9.091 1.086c.245.028.478-.278.5-.492.023-.213-.14-.565-.385-.594-.245-.028-.477.278-.5.492-.022.214.141.566.385.594Zm-3.869-1.11c0 .302-.28.767-.625.767-.346 0-.626-.465-.626-.767 0-.301.28-.766.626-.766.345 0 .625.465.625.766Z" fill="#1D2125"/></svg>