<svg xmlns="http://www.w3.org/2000/svg" viewBox="0 0 164.35 164.35"><defs><style>.cls-1{fill:#fff;}.cls-2{fill:#3a4d7f;fill-rule:evenodd;}</style></defs><g id="Capa_2" data-name="Capa 2"><g id="Capa_1-2" data-name="Capa 1"><rect class="cls-1" width="164.35" height="164.35" rx="82.17"/><path class="cls-2" d="M81.61,35.14c-.12-1.88-.12-1.88-.19-2-1.38,0-1.38,0-1.47,0v-.83c1.47-.12,1.47-.12,1.54-.19q0-.81.09-1.59c.42,0,.86,0,1.3,0,0,.53.08,1.07.11,1.62a4.8,4.8,0,0,0,1.49.08c0,.29,0,.58,0,.89l-1.44.11c0,.11-.11,1.83-.18,1.9-.42,0-.84,0-1.26,0Zm0,2.16c-.23-.11-.7-.21-1.21-.46v-.11h-.12a5.24,5.24,0,0,1,0-.55c.66-.66,3.81-.72,3.81.53-.34.7-1.78.56-2.46.59Zm.54,6.78c-1-.92,1.1-1.31.49-.09-.17,0-.33.06-.49.09Zm-.1.47c.94-.15,1.17-.3,1.17-1.23-.71-1.39-2.72,0-1.17,1.23Zm-5.88.25a.72.72,0,0,1,0-.83h.46c.44.5,0,.78-.43.83Zm11.8,0c-.79-.52.46-1.63.47-.2a.67.67,0,0,1-.47.2Zm-11.8.5c2.34-.23.12-3.07-.67-1.08,0,.62.16.76.67,1.08Zm11.9,0a1.74,1.74,0,0,0,.77-.38c.35-1.16-.08-1.42-1.06-1.48-.94.54-.56,1.48.29,1.86Zm-14.67.52a2.68,2.68,0,0,0,1-.28,1.78,1.78,0,0,1,0-2c.42-.18.45-.69.52-1.09a1.51,1.51,0,0,1,2.75.26c1,.53,1.23.89,1,2.1a4.38,4.38,0,0,0,1.4-.06c0-.14,0-.14-.35-.93a1.59,1.59,0,0,1,.85-1.45,2.14,2.14,0,0,0,.12-.74c.31-1,.8-1.13,1.79-1.18,1,.2,1.21.77,1.48,1.63a1.66,1.66,0,0,1,1,1.72c-.15.29-.42.57-.41.91a2,2,0,0,0,1.21.18c0-.15-.11-.36-.17-.84a1.56,1.56,0,0,1,1.36-1.42,1.76,1.76,0,0,1,1.19-1,1.6,1.6,0,0,1,1.7,1.27,1.67,1.67,0,0,0,.44.6,1.34,1.34,0,0,1-.13,1.75v.16a1.75,1.75,0,0,0,1,.29,1.34,1.34,0,0,1,.57-1c.78-1.3-1.38-3.78-2.32-4.69-.77-.47-1.54-.91-2.31-1.35l-1.86-.51a21.44,21.44,0,0,0-5.31-.07c-.66.13-1.31.29-2,.45a10.62,10.62,0,0,0-4,2.78c-.57.95-1.54,2.25-1.19,3.42a1.5,1.5,0,0,1,.72,1.06Zm18.48,1.32a1.42,1.42,0,0,0,.75-.16c.44-.57-.45-.79-.19-1.5a1.78,1.78,0,0,0,.75-1.74,1.74,1.74,0,0,0-.85-.22,3.36,3.36,0,0,1,0,1c-.45.71-.84.78-.61,1.71a3.83,3.83,0,0,1-1.21,0c-.24-.1-1.14-.46-1.14-.75h-.12c0-.14,0-.28,0-.4a6.56,6.56,0,0,1,.62-.23,1,1,0,0,0-.48-1.39c-.14-.69-.16-1-.81-1.25-.75,0-.9.28-1.18.9-.77.23-1,.26-1.08,1.07a7.47,7.47,0,0,1,.39.92l-.93.36a4.19,4.19,0,0,1-1.79-.42V45c-.24-.21-.42-.26-.42-.59,1-.45,1.09-1.73-.2-1.79C83.25,41.65,83.2,41,82,41c-.94.3-.8.78-.85,1.57-1,.54-1.36,1.2-.34,2,0,.08,0,.19.05.29l-.57.42c-.49.14-2.55.51-2.49-.44.52-.85.26-1.45-.74-1.6-.08-.79-.5-1.19-1.34-.94-.52.36-.5.73-.5,1.35-.64.41-.85.62-.48,1.36.49.26.49.26.56.36a2.28,2.28,0,0,1-2.52,1,3,3,0,0,0-.14-1.1c-.62-.52-.62-.84-.66-1.64-.89.06-.94.17-.94,1,.22.72,1,.8,1,1.57-.82,1.17.22,1.14,1,.71A8.8,8.8,0,0,1,75,46.76c.74-.46,1.33-1.1,2.25-1.1a5.72,5.72,0,0,0,3,.33c.87-.47,2.27-1.39,3.17-.5a3.46,3.46,0,0,0,3.48.07c1.35,0,1.4.59,2.6,1.12l1.38,0,1,.43Zm-.32,1.54a42.39,42.39,0,0,0-17.16-.4c-.49.11-1.63.58-2.1.24V48.3c.33-.33,1.27-.43,1.75-.58l2.74-.47a48.91,48.91,0,0,1,15.13.83l.18.12c0,.12,0,.24,0,.38s-.12.07-.57.11ZM82.2,51.41,82,51.15c0-.62,0-.69.66-.69.37.48.16.86-.41.95Zm0,.44c.89-.17,1.07-.42,1.06-1.34l-.4-.45c-1.46-.34-1.89,1.11-.66,1.79Zm5.87.15c-.23-.35-.18-.54,0-.9a2.55,2.55,0,0,1,.38,0c.39.49.11.77-.41.88Zm-11.91.23c-.42-.41-.37-.88.24-.88.3.39.23.72-.24.88Zm11.91.21c.21,0,.42-.07.63-.08.76-.77.46-1.73-.69-1.72-.68.58-.8,1.27.06,1.8Zm-16.41.21c-.21-.41-.15-.61.26-.61,0,.4.15.54-.26.61Zm21.06-.06-.1-.05c0-.24-.06-.32.08-.55.51,0,.43.51,0,.6ZM76,52.68a1.37,1.37,0,0,0,1-.44c.67-1.67-2.38-1.92-1.51,0,.13.16.13.16.51.4ZM92.55,53a5,5,0,0,1,.56-.07c.6-.38.33-.93,0-1.33h-.51c-.4.44-.64.95,0,1.39Zm-20.81.11c1.26-.36.53-2.09-.46-1.31-.23.67-.14,1,.46,1.31Zm1.66.44a5.06,5.06,0,0,0,1.23-.32,2.33,2.33,0,0,1-.09-.29,1.47,1.47,0,0,1,.07-2.26c.29-1.55,2.16-2.29,2.89-.51.12.15.12.15.49.32a1.84,1.84,0,0,1,.45,1.93,2.69,2.69,0,0,0,1.54-.3V51.9c-.55-.87-.27-1.55.64-2,.27-.68.55-1,.58-1.16-.73,0-.73,0-3.23,0-1.75.24-4,.27-5.48,1.29-.13.69.16.91.57,1.5a3.25,3.25,0,0,1,.22,1.92l.12.06Zm17.37.13c.18,0,.35-.07.53-.09s0-.07-.16-.6c0-1.19.51-1.49,1-2.55a1.28,1.28,0,0,0-.3-.59,31.76,31.76,0,0,0-8.41-1.14c0,.25.41.75.53,1a1.47,1.47,0,0,1,.92,1.51,1.82,1.82,0,0,0-.28.83,2.23,2.23,0,0,0,1.49.44c0-.15,0-.15-.21-.58-.07-1.07.32-1.47,1.31-1.9.1-.2.1-.2.43-.54a1.47,1.47,0,0,1,2.11,1c.93.82,1.18,1.75.06,2.55v.22a10.58,10.58,0,0,0,1,.48Zm15.62,1.23a4,4,0,0,1,2.26-3l.75-.06c0,.49-.57.84-.93,1.13a7,7,0,0,0-1.15,1.83c-.32,0-.63.06-.93.09Zm-34.24.18c1-.16,2.24,0,3.06-.57.92-1.33,2-1.13,3.27-.5a6.34,6.34,0,0,0,1.4,0c.56-.35.86-.66,1.64-1.2,1.51-.49,2.2.75,3.54,1.12,1.58.14,2.78-1.26,4.08.23a3.32,3.32,0,0,0,1.51.64c1.53,0,2.6.55,2.39-1.48.13-.11.13-.11.41-.18,1-.67-.14-1.92-.14-2.8.17-.51.35-1,.51-1.47,0-.67-.62-1.67-1.33-1,.44.48.62.76,0,1.22,0,.14,0,.14.23.71,0,1-.66,1.5-1.1,2.24a3.84,3.84,0,0,0,0,1.06,1.55,1.55,0,0,1,.35.77l-.63.31c-1.07,0-2.12-.28-2.26-1.47a.64.64,0,0,1,.14-.15c1-.37,1.07-1.11.16-1.71-.39-1-1.14-1.23-1.87-.4-.72.29-1.38.86-.77,1.67.46.22.46.22.57.36-.63,1-3.57.71-3.57-.65.67-.51.65-1,.14-1.57-.56-.11-.49-.69-.84-1.1-1.2-.44-1.53-.13-1.94,1.06-.74.14-.82.57-.77,1.23.11.15.5.42.58.58-.74,1-2.54,1.53-3.51.59.68-.87.71-1.44-.29-2-.09-.19-.16-.37-.23-.56-1-.81-1.52-.19-1.68.8-1,.74-.92,1.33.2,1.86l.11.15a5.08,5.08,0,0,0-.23.47c-.66.66-2,1.25-2.76.44v-.26c.64-1.1.27-1.82-.59-2.63-.09-.19-.16-.36-.23-.53,0-.74.39-1-.13-1.5v-.47a1,1,0,0,0,.34-.71,1.43,1.43,0,0,0-.61-.06c-1.05.69-.73,1.18-.13,2.17A5.73,5.73,0,0,1,71.22,51c-.45,1.12-.8,1.62.29,2.34.06,1-.12,1.11.64,1.76Zm-14.46.07L57.08,55a5.8,5.8,0,0,0-.55-1.27c-.25-.28-.25-.28-.28-.41h-.13c-.35-.59-1.16-.86-1.32-1.53,1.84,0,2.62,1.55,3.2,3a2.35,2.35,0,0,0,0,.26,1.36,1.36,0,0,0-.3,0Zm-4.83.42.68-.09a14.39,14.39,0,0,1,2.38-1.42c0-.07,0-.07-.13-.28-1.31-.42-1.55.68-2.55,1l-.61,0a.76.76,0,0,1,0-.15,1.67,1.67,0,0,0,.63-.33A2.47,2.47,0,0,1,55,53.2c-.09-.69-1.4-.12-1.7,0-.16.33-1.68,1.13-1.68.35a2,2,0,0,0,.8-.26,2.13,2.13,0,0,1,1.64-1c-.3-1.53-3.3.67-3.75.95.33,1,1.73,1.61,2.51,2.28Zm58.26-.07a2,2,0,0,1,.35,0,15.49,15.49,0,0,0,2.65-2.2c-.77-.46-2.78-2.12-3.8-1.36v.23a3.12,3.12,0,0,1,1.61,1c.32.25.6.36.71.46a.21.21,0,0,0,0,.12H112c-.8-.37-1.23-1-2.13-1.11l-.47.4v.11a3.68,3.68,0,0,1,1.11.4c.26.21,1.08.84,1.09,1.14-1.12-.16-1.74-1.34-3-1-.14.21-.14.21-.12.33,1,.27,1.65,1.19,2.63,1.5Zm-67,.68c-.65-.3-.35-.86,0-1.38,1.19-.88,1.32,1.08,0,1.38Zm75.6,0c-.65-.56-1.35-2,.13-1.74.49.57.93,1.57-.13,1.74Zm-65.41.61a2.73,2.73,0,0,0,1-.88,6.57,6.57,0,0,0,1.07-.7.82.82,0,0,0-.13-.5c-1,0-1.68.79-2.51,1.27,0,.25.4.59.54.81Zm55.45-.21a.73.73,0,0,1,.22,0,1.64,1.64,0,0,1,.47-.59,1.52,1.52,0,0,1,0-.21c-.81-.43-1.43-1.3-2.37-1.3a1.21,1.21,0,0,0-.19.59,9.42,9.42,0,0,1,1.9,1.54Zm-19.12.15c-2.14-.75-4.69-.75-6.93-.92A74.3,74.3,0,0,0,76.3,56c-1.38.23-2.36.47-2.85.53-.07-.09-.07-.09-.07-.34.63-.68,2-.64,2.9-.76,4.85-.3,9.93-.5,14.7.56l.24.17c0,.37-.17.4-.54.49Zm-45.18.57c1-.09,1.31-.92,1.3-1.87-1.07-.89-2.13,1.34-1.3,1.87Zm72.7-.09a3.9,3.9,0,0,1,.5,0c.76-.64.13-1.69-.47-2.2-1.54,0-.84,1.68,0,2.24Zm-36,1.54c-.65-.41-.47-.88.12-1.12.79.33.5.86-.12,1.12Zm-.1.35a3.27,3.27,0,0,1,.45,0c2.27-1.3-1.93-2.87-1-.34l.54.38Zm5,0a1.2,1.2,0,0,1-.14-.65,1,1,0,0,1,.56-.18c.24.49.12.76-.42.83ZM116.37,59c-.86-.48-1.37-2-1.83-2.8,0-.84.26-1,1.13-1,1.21.39,2.57,2.88,1.32,3.78-.21,0-.42,0-.62,0Zm-39,.2c-.38-.31-.54-.88.14-.89a.54.54,0,0,1-.14.89Zm-29.7.21c-1.86-.59-.47-2.72.29-3.67.7-.35,1-.54,1.72,0,.32.79-.66,1.74-1,2.43s-.26,1.11-1,1.28Zm44.15.11-.18,0a2.22,2.22,0,0,1,0-.38c.19-.11.19-.11.37-.09a.72.72,0,0,1,0,.46l-.23.06Zm-14.72.07c.77,0,1.05-.16,1.17-1A1,1,0,0,0,77,57.86c-.67.66-.56,1.18.11,1.72Zm10,0a2,2,0,0,1,.36,0,.94.94,0,0,0-.38-1.83c-.91.59-1,1.25,0,1.86Zm-14.37.07c-.19-.12-.19-.25-.21-.48a1.28,1.28,0,0,1,.23-.14,2.27,2.27,0,0,0,.28.21.37.37,0,0,1-.3.41Zm-14,.23a.8.8,0,0,1,.24,0,15.64,15.64,0,0,0-.7-4.06c-1.57-.91-3,1.1-3.9,1.9v.19c.21.14,1.74.8,1.93.94.56.2.76.34,2.43,1.07Zm25.83-.06L84,59.52v-.16A1.46,1.46,0,0,0,83.91,57c0-.07,0-.14,0-.19.76,0,1.49,0,2.23.07,0,.35-.38.49-.64.66-.7.83-.58,1.21-.17,2.14-.19.19-.51.14-.79.16Zm-5.21,0a.46.46,0,0,1,.19-.36,1.51,1.51,0,0,0-.64-2,1,1,0,0,1-.14-.54c.7,0,1.39-.06,2.11-.08a.79.79,0,0,1-.13.48,1.27,1.27,0,0,0-.22,2.13,1.17,1.17,0,0,0,0,.2,3.53,3.53,0,0,1-1.12.21Zm26.17,0c0-1,.07-3.54.76-4.35,1.74-.39,2.69.9,3.8,2a.79.79,0,0,0,0,.23c-1.52.69-3,1.39-4.52,2.09ZM91.62,60c.76-.07,1.23-.62.65-1.34-.93-.08-1,.21-1,1.09.11.08.21.17.33.25Zm-19,.15a.89.89,0,0,0,.77-.36c.39-1.61-2.3-1.13-.77.36Zm-12.9.07L60.9,60a15.35,15.35,0,0,0-.34-2.28,5.55,5.55,0,0,1,2.32-.38,12.72,12.72,0,0,1,.63,2.26,6.34,6.34,0,0,0,1.31-.18c-.85-4.67-3.74-7.77-8.65-7.92a.35.35,0,0,0,0,.12c2.74,1.38,3.13,5.95,3.53,8.6ZM104.34,60l.47,0c.32-2.64.65-6.91,3.26-8.48-4.45-.15-7.34,2.83-8.38,6.85-.11.74-.11.74,0,.9a5.18,5.18,0,0,0,1.36.18,11.19,11.19,0,0,1,.64-2.23,11.26,11.26,0,0,1,2.23.29,16.58,16.58,0,0,0-.36,2.32c.09.09.09.09.83.22Zm-54.92.45a.55.55,0,0,0,.37-.13,10.84,10.84,0,0,1,1.78-3.74,1.75,1.75,0,0,1,0-.24c-.94-.06-1.2.3-1.81,1-.37.72-1.57,2.58-.37,3.15Zm65.3-.2-.16-.11a11.58,11.58,0,0,0-1.93-3.74,1.1,1.1,0,0,1,0-.26c1.6-1.06,3.73,3.84,2.07,4.11Zm-25.4.4-.77-.32a.81.81,0,0,1,0-.19,3.7,3.7,0,0,1,.4-.16.58.58,0,0,1,0-.14l.15,0a6,6,0,0,1,.24-.62,2.09,2.09,0,0,0-.4-1.34c0-.22-.07-.44-.09-.65.51.1,1.44.13,1.76.56v.57a3.91,3.91,0,0,0-1,2.28l-.29,0Zm-14.38.12A2.87,2.87,0,0,0,74,58.63c-.55-1.36,1-1.29,1.94-1.42-.15,1.07-1.3,2.3.14,3.1v.14a2.67,2.67,0,0,1-1.16.33Zm-23.78,1c-1.81-1.1.2-4,1.22-5,.78-.28.94-.35,1.49.34,0,.67-.68,1.07-1.08,1.54a5.11,5.11,0,0,0-.86,2.88,1.26,1.26,0,0,1-.77.27Zm61.53-.26a5.85,5.85,0,0,1,.6,0c1.41-1,0-3.24-.63-4.22-.76-.89-2.06-1.49-2,.25a4.35,4.35,0,0,1,1.61,3.66l.44.35ZM89.5,62a2.86,2.86,0,0,0,2-1.32c.35-.24.72-.49,1.08-.71a1.46,1.46,0,0,0-.23-2c-.2-.82.69-1.33-.52-1.72a1.33,1.33,0,0,1-.52.8V58a14.32,14.32,0,0,1-1.13,1.85,7.3,7.3,0,0,0,.17,1.1c-.82.35-2.73.05-2.74-1.07a5.09,5.09,0,0,1,.56-.14c.66-.47.89-1.25.15-1.78,0-.24,0-.48,0-.72A1,1,0,0,0,87,56.83c-.46.52-.35.79-1,1.11-.55.78-.27,1.19.4,1.72,0,.1,0,.2-.06.32l-.78.39c-.81,0-2.22-.23-2.23-1.23,1.62-.91.22-1.42,0-2.45-.12,0-.21-.17-.56-.39H82c-.19.05-.28.19-.4.23-.3.48-.31.84-.79,1.19-.46.85-.27,1.14.57,1.55.2,1.12-3.12,1.79-3.13.45a2.53,2.53,0,0,1,.42-.18c1-1.35-.15-1.22-.52-2.41l-.32-.36c-1-.25-1.43.35-1.43,1.23-.74,1-.58,1.85.7,2.15-.17,1.1-1.89,1.34-2.78,1.05a1.14,1.14,0,0,1,0-.26c.75-1.35-.89-1.87-1-3.15.07-.2.13-.41.2-.62-.59-.13-.75-.32-.81-.94-.83.42-.69.74-.43,1.53-.32,1.06-1,1.49-.14,2.49.7.42,1.21.49,1.67,1.19a2.25,2.25,0,0,0,1.65.56c.24-.12.5-.24.76-.34,1-.87,1.42-1.29,2.64-.64a3.93,3.93,0,0,0,1.37,0c1.27-.6,1.73-1.33,3.13-.72a2.61,2.61,0,0,0,3,.35,3.15,3.15,0,0,1,1,0A24.84,24.84,0,0,0,89.5,62Zm-30,1.86c-5.37-2.44-5.77-2.68-6.37-2.9-.42-.24-.42-.24-.53-.36.09-.78.55-2.17,1.55-2l4.9,2.3a25.17,25.17,0,0,1,.68,2.92Zm45.18-.13c2.59-1.11,2.59-1.11,6.55-2.94.82-.64,0-1.81-.44-2.43a2.36,2.36,0,0,0-.37,0c-1.7.8-3.51,1.57-5.12,2.53-.21,1-.41,1.9-.62,2.86Zm-42.53.68c-.11-.83-.21-1.63-.3-2.44-.61,0-1.22.1-1.83.18-.08-.41-.15-.83-.22-1.22.19-.57,1.27-.2,1.77-.48,0-.81-.38-1.62-.33-2.41l1.22-.21c.16.77.34,1.55.52,2.34.49,0,1.81-.22,2,0,0,.44.08.88.11,1.33l-1.85.32a23.27,23.27,0,0,1,.08,2.47,4.11,4.11,0,0,1-1.15.17Zm-12.66.07a.37.37,0,0,1-.21-.31c.31-.31.31-.31.49-.38v.68Zm52.1-.21a1.17,1.17,0,0,1-.49-.18c0-.74.09-2,.07-2.44-.17-.09-.17-.09-1.79-.32A3.21,3.21,0,0,1,99.48,60c1,0,1.63.15,2,.11A8.45,8.45,0,0,1,102,57.8a5.28,5.28,0,0,1,1.18.1,10,10,0,0,0-.31,2.42c.6.08,1.19.16,1.81.26a5.32,5.32,0,0,1-.27,1.43c-.3,0-1.39-.14-1.81-.13-.07.25-.23,2.11-.32,2.35l-.68.06Zm13,0c0-.22,0-.43,0-.64h.23a2.81,2.81,0,0,0,.29.31.79.79,0,0,1-.48.33Zm-27,.21c-.22-.52-.22-.52-.32-.64a20.44,20.44,0,0,0-8.6-.37c-.68.16-1.33.16-1.52.91a1.58,1.58,0,0,1-1.26-.38c0-2.5,8.48-1.75,9.9-1.65.63.08,3.59.5,3,1.74a5.74,5.74,0,0,1-1.17.39Zm-42,1.57c0-.5,0-1,0-1.48a3.27,3.27,0,0,1,1,.42v.16l-1,.9Zm73-.26c-.25-.25-.9-.69-.9-1,1-.47,1-.47,1.08-.44,0,.49,0,1,0,1.45a.53.53,0,0,0-.19,0Zm-11.75.57a4.57,4.57,0,0,1-.8-2.35c1.29-.7,4.91-2.73,5.75-2.53.13.36.87,2,.7,2.32-5.42,2.53-5.42,2.53-5.65,2.56Zm-49.45.25a1,1,0,0,1,.19,0,8.56,8.56,0,0,0,1-2.27l-5.7-2.64h-.25c-.32,1-.79,2.19-.77,2.32a59.31,59.31,0,0,0,5.51,2.62Zm49.29,1.39a1,1,0,0,0,.47-.21c-.09-.34-.44-.58-.71-.84a26.15,26.15,0,0,1-1-2.48.81.81,0,0,0-.49.11,6.38,6.38,0,0,0,1.77,3.42Zm-49.06.25a3.82,3.82,0,0,0-.36-.17c0-.42.36-.42.45-.71.59,0,1.11-2.14,1.5-2.73a3.66,3.66,0,0,1,.44.13c0,.71-1.34,3.21-2,3.48Zm48.08.15c.31-.09.31-.09.38-.19a15.46,15.46,0,0,1-1.71-3l-.14,0c-.07,0-.63,1.44-1.47,3.21.73-.14,1.34-.69,2.11-.78.26.27.55.55.83.82Zm-47.15.24-.17,0c.53-1,.76-1.27,1.75-3.16h.16c.48,1.22.48,1.22,1.38,3.14-.7,0-1.39-.82-2.09-.81a5.34,5.34,0,0,1-1,.88Zm26.3.66c.37-.09,3-1.08,3-1.5L87.36,67a19,19,0,0,0-.89-2.48,19.81,19.81,0,0,0-3.14-.33,14.21,14.21,0,0,0,1.53,5.18Zm-5.44.1a.46.46,0,0,1,.17-.09,15.79,15.79,0,0,0,1.81-5.2,10.17,10.17,0,0,0-3.34.55,19.92,19.92,0,0,1-.77,2.4c-.23.33-.56.66-.56,1.06,1.5.73,2.64,1.19,2.69,1.28Zm32.35.33a6,6,0,0,0-.11-1.24c-.41-.51-.41-.51-.41-.62a4.11,4.11,0,0,1,1.14-.54,9.37,9.37,0,0,1,.06,2.12l-.68.28Zm-59.24.37c-.19-.12-.39-.22-.56-.32,0-.73,0-1.45,0-2.18a2.78,2.78,0,0,1,1.23.48c0,.22-.21.38-.35.54,0,.46-.06.94-.1,1.43l-.19.05Zm-7.09.48c-.33-.49-.14-1.55-.09-2.18a4.72,4.72,0,0,1,1,.39c0,.29-.43.6-.62.81,0,.31-.06.62-.07.95a1.71,1.71,0,0,0-.25,0Zm73.18-.26c0-.35-.07-.69-.11-1-.19-.2-.56-.46-.56-.75a3.45,3.45,0,0,1,1-.46,10.29,10.29,0,0,1,.06,2,.78.78,0,0,1-.42.24Zm-36.55.25a8.14,8.14,0,0,0-1.25-.6c0-.06,0-.13,0-.2.53-1.31,1-2.64,1.48-4h.11c.44,1.34,1,2.65,1.46,4-.18.35-1.33.75-1.75.82ZM50.35,71c0-1.19,0-1.19,0-3.11l.51.19c0,.93.43,2.39-.53,2.92Zm-6.11,0c0-.55-.31-2,.34-2.21v-.12a.81.81,0,0,1,.22-.07c0,.91.26,1.93-.56,2.4Zm69.66-.25a2.26,2.26,0,0,1-.5-.48c0-.81,0-1.6,0-2.4.2-.13.38-.36.63-.31,0,1,0,2.07,0,3.12-.06,0-.11,0-.14.07Zm6,0c-.68-.72-.55-1.47-.45-2.42h.23c.55.64.36,1.52.34,2.31l-.12.11Zm-62.23.31a.57.57,0,0,0,0-.12h.06v.12Zm-14.16.13c-.48-.23-1-.45-1.43-.65,0-.74,0-1.49,0-2.21a2.75,2.75,0,0,1,1.62.8c0,.64-.05,1.3-.06,2a.44.44,0,0,0-.12.11Zm77-.22c0-.71,0-1.41,0-2.1.17-.37,1.27-.79,1.69-.86l-.09,2.33c-.56.12-1,.49-1.61.63Zm-26.73.13a4.37,4.37,0,0,1-1.72-.61c.24-.48,4.73-2.35,6.08-2.8a7,7,0,0,1-1.7,2.9,5.83,5.83,0,0,1-2.66.51Zm-24.11.23A6.5,6.5,0,0,1,68.36,71a4.8,4.8,0,0,1-1.91-3l6.25,2.77c0,.06,0,.11,0,.16a9,9,0,0,1-3,.5Zm30.85.41a1.65,1.65,0,0,1,.8-1c0,.26,0,.52,0,.78-.19.1-.19.1-.77.19ZM63.66,72l-.48-.1c0-.31-.12-.69,0-1a3.45,3.45,0,0,1,.58.77h.12A2.14,2.14,0,0,1,64,72Zm14.91.32c.83-.39,1.65-.75,2.48-1.12v-.15c-.38-.24-6.44-2.93-6.45-3-4.65-2.07-5-2.3-8.51-3.88a1.67,1.67,0,0,0-.29,0c-.29.51.16,2.07.26,2.71Q71.73,69.44,77.42,72a2.92,2.92,0,0,1,1.15.29ZM48.4,73c0-.41-.28-2.5.38-2.5,0-.21.39-.44.53-.56.25.48.17,2.48-.48,2.7a.25.25,0,0,0,0,.13.29.29,0,0,0-.14,0,.25.25,0,0,0,0,.13L48.4,73Zm67.47-.17c-.3-.31-.6-.62-.9-.91,0-.76,0-1.52,0-2.26.39,0,.9.64,1.09,1,0,.73,0,1.45,0,2.17a.26.26,0,0,0-.14,0Zm-68.23.39a.58.58,0,0,1,.14,0c0-.74,0-1.48,0-2.21-.54-.13-1-.61-1.56-.61,0,.71,0,1.43,0,2.16l1.42.69Zm68.93-.17c1.39-.66,1.39-.66,1.5-.78a19.1,19.1,0,0,0,0-2.16l-.14,0c-.47.23-.94.45-1.4.7a21.87,21.87,0,0,0,0,2.29Zm-27.19.14A10,10,0,0,0,94.8,71.9,9.28,9.28,0,0,1,91.1,71a15.65,15.65,0,0,0-2.72,1.22c-.33.68.56.88,1,.93Zm-15.88.2c.51,0,3.07.14,3.06-.83-.79-.37-2.07-1.26-3-1.26a7.58,7.58,0,0,1-3.77.81.26.26,0,0,0,0,.09,9.3,9.3,0,0,0,3.71,1.19Zm-12.2.21c0-.74,0-1.46,0-2.18,0,0,.87-.84.87-1a2.3,2.3,0,0,1,.34-.28c.15.55.4,2.55-.47,2.76-.26.26-.43.59-.77.69Zm41.79-.14c-.42-.44-.85-.87-1.25-1.3a20.12,20.12,0,0,1,0-2.19c.32,0,1.07.91,1.3,1.18,0,.74,0,1.49,0,2.22a.54.54,0,0,0-.12.09Zm.68.1a15.81,15.81,0,0,1,0-2.12,4.23,4.23,0,0,1,.93-.43c0,.69,0,1.38-.06,2.06a2.87,2.87,0,0,1-.91.49Zm-43.17.22c-.26-.14-.52-.26-.77-.37,0-.71,0-1.42,0-2.11,1.34,0,1,1.43,1,2.34a.93.93,0,0,0-.14.14Zm-23.54.46c.41-1.58.41-1.58.85-3.86.37-1.09,1.12-3.85,2.38-4.32-.07,3,0,6.65-3.23,8.18ZM127.11,74a6.5,6.5,0,0,1-2.94-4.07c-.11-1.14-.11-1.14-.27-4.41.87,0,1.91,2.9,2.19,3.61.91,3.32.91,3.32,1.25,4.83l-.23,0Zm-70.18.8c.56-.1,1.33-1.09,1.73-1.52a.81.81,0,0,1,0-.19l-1-.53c-.1-.34,1.61-1.82,1.73-1.92.52.06,1,.42,1.52.42.14-.12,1.38-1.14,1.38-1.51a9.91,9.91,0,0,0-2.58-1.09c-.78.8-.78.8-.94.87l-2.25-1c0-.4.42-.64.68-.9v-.21c-1.21-.61-5.12-2.42-5.35-2.57-.63.07-.74.33-1.19.78a4,4,0,0,1-2.1-1c.22-.35.68-.62.78-1a6.69,6.69,0,0,1-1.65-.77c-.53,0-1.41,1.08-1.73,1.51.07.09.07.09,1.51.75-.1.45-1.48,1.83-2,1.84A9.49,9.49,0,0,0,44,66a13.9,13.9,0,0,0-1.69,1.62,1.27,1.27,0,0,0,0,.26,5.08,5.08,0,0,0,1.72.62c.14,0,.14,0,.89-.79a6,6,0,0,1,2.24,1,2.67,2.67,0,0,1-.74,1c0,.09,0,.09,1.31.72.46-.07,1.4-.9,1.4-1.38-.16-.09-.32-.17-.46-.26,0-.57.84-1.12,1.22-1.5.29-.14.72.16,1.08.16.27-.26.42-.52.81-.52.65.5,1.77.49,2.22,1.16-.19.23-.5.4-.5.71l.69.36v.16l-1.4,1.34c-.17,0-.17,0-.8-.27-.41,0-1.42,1-1.41,1.37l2,1c.67-.07.87-.8,1.47-.8A16.92,16.92,0,0,1,56.2,73c-.22.36-.76.59-.76,1,.49.24,1,.48,1.49.71Zm50.37-.18c-.34-.33-1.53-1.27-1.54-1.7a3.07,3.07,0,0,0,1-.61,11,11,0,0,0-1.84-1.9c-.24,0-.24,0-1.27.51a8.69,8.69,0,0,1-1.53-1.5,5.59,5.59,0,0,1,2.65-1.16c.18.13.67.51.74.73a6.65,6.65,0,0,0,2.38-.92c0-.49-.7-.59-.71-1.09,1.85-.92,1.85-.92,5.59-2.64.32,0,.79.63,1,.85a5.94,5.94,0,0,0,2-.89c0-.29-.55-.72-.76-.92a3.78,3.78,0,0,1,2-1c.37.31,1.34,1.07,1.34,1.51a10.24,10.24,0,0,1-1.43.73v.23c.56.53,1.12,1.06,1.7,1.59.67-.12,1.19-.61,1.87-.68a18.12,18.12,0,0,1,1.57,1.59,1.6,1.6,0,0,0,0,.21,5.08,5.08,0,0,1-1.91.75c-.24-.24-.49-.48-.72-.72a4.14,4.14,0,0,0-2.27,1c.21.28.74.6.74,1l-1.36.68c-.53,0-1.39-1-1.39-1.39.51-.26.51-.26.58-.35C115.58,68,114.54,67,114,67c-.82.64-.84-.27-1.49-.27l-2,1c.07.37.44.45.37.81l-.7.37v.17l1.41,1.37a8,8,0,0,1,1.12-.26l1.11,1.11a1.32,1.32,0,0,0,0,.23,7.41,7.41,0,0,1-2.36,1c-.37-.36-.58-.72-1.09-.78l-2,1c.08.5.71.67.67,1.11-.56.25-1.11.52-1.67.78Zm2.41,0a2,2,0,0,0,.67-.35c0-.67,0-1.33,0-2a4.83,4.83,0,0,0-1.36.64c.09.17.09.17.55.64.09.2.09.2.12,1.05Zm-55.19.28-.46-.29c0-.47-.17-1.64.08-2a6.07,6.07,0,0,1,1.19.51c0,.29-.38.57-.57.78,0,.32,0,.66-.07,1a.43.43,0,0,0-.17,0Zm29.86.29-.91-.44a.39.39,0,0,1,0-.14,5.12,5.12,0,0,1,1.69-.71c-.17.41-.35.83-.5,1.26a1.71,1.71,0,0,0-.25,0Zm-4.13,0a1.39,1.39,0,0,1,.35-.09l5.52-2.67A2.58,2.58,0,0,1,87.27,72L98.52,66.7a7.16,7.16,0,0,0,.29-2.81,1.79,1.79,0,0,0-.34,0C92,66.9,85.62,70,79.23,73v.22a10.63,10.63,0,0,1,1,2Zm-45.1.22a1.2,1.2,0,0,1,.2,0c1.51-1.91,1.55-4.27,2.33-6.49.29-.68.61-1.35.92-2a16.07,16.07,0,0,0-.67-4.53H37.8c-.55,2-.55,2-1,3.29a36.08,36.08,0,0,0-2.28,6.2c0,.47,0,1,0,1.43.2.71.41,1.43.62,2.15Zm17.06,0-1.83-.87a17.11,17.11,0,0,1,0-2.26,5.9,5.9,0,0,1,2.07.94c0,.71,0,1.43,0,2.15a.53.53,0,0,0-.19,0ZM112,75.23c.68-.35,1.36-.68,2-1A10.57,10.57,0,0,0,114,72,11.58,11.58,0,0,0,112,73a6.74,6.74,0,0,0,0,2.24Zm-40.41.2a1.56,1.56,0,0,0-1.42-.15c-1.24,0-2.73-1-3.63-1.74-.14-.2-.28-.27-.35-.41a7.37,7.37,0,0,1-3.07-3.79l-.49-.24a17.93,17.93,0,0,1-2.39-6.36,4.34,4.34,0,0,1,1.15-.15A13.53,13.53,0,0,1,61.66,65,15.86,15.86,0,0,0,64,64.77a8.65,8.65,0,0,0-.1-2.48,3.73,3.73,0,0,1,1.3-.2c0,3.27,0,5.58,1.86,8.44,1.85,2.33,4,3.13,6.9,3.43-.18.36-.35.72-.5,1.08-.9-.18-1.32-.34-1.86.39Zm3.29.11c-.72-.47.63-.78,1-.78.52.51-.67.74-1,.78Zm54.06-.22a.25.25,0,0,1,.13,0c.17-.59.62-1.69.86-2.57,0-.45,0-.9,0-1.33-.83-3.12-2.83-5.88-3.3-9.1-1,.33-1,3.38-.94,4.29.23.52.46,1.05.71,1.59.85,2.4,1,5.06,2.55,7.16Zm-39.05.19c-.35-.17-.67-.34-.67-.75.38-.19.75.06,1,.28a2.09,2.09,0,0,0,0,.36c-.08.07-.08.07-.42.11Zm3.39,0c-.28-.85-1-.57-1.66-.34a2.7,2.7,0,0,0-.67-1.27v-.16a9.06,9.06,0,0,0,6.6-3.31c.26-.43.52-.84.8-1.26.22-.6.45-1.21.69-1.81A27.4,27.4,0,0,0,99.37,62a4.16,4.16,0,0,1,1.16.08,9.59,9.59,0,0,1,0,2.57,17.94,17.94,0,0,0,2.22.24,9.25,9.25,0,0,0,.3-2.37,3.74,3.74,0,0,1,1.24.08c-.14,2-1.29,4.1-2.21,5.88a2.2,2.2,0,0,1-.61.64c-.29,1.54-1.85,2.87-3,3.84a6,6,0,0,1-4.09,2.23c-.36.12-.73.24-1.1.39Zm7.27.18a8.36,8.36,0,0,1,2.92-.55c.56.1,1.46.46,1.7.49,0-.7,0-1.41,0-2.12-.68.11-1.21.72-1.91.72l-1-1a3.58,3.58,0,0,0-2.58,1.5c.19.29.61.66.86,1Zm-36.78.19a.48.48,0,0,1,.18,0,2.84,2.84,0,0,1,.69-1c.08-.43-.53-.77-.79-1-1.51-.73-1.27-.6-2.5.63-.72,0-1.21-.58-2-.66,0,.69,0,1.38,0,2.07a5.79,5.79,0,0,1,4.33,0Zm10.94,0,.77-.05c2.1-.93,0-2.33-1.21-.89v.62l.44.32Zm15.18,0c-.65-.31-1.63-1-.8-1.62.89,0,1.68.25,1.69,1.3-.29.3-.45.28-.89.32Zm-49.74.42c1.35-.73,3.48-2.83,3.47-4.46a3.68,3.68,0,0,0-1.48-.53,13.65,13.65,0,0,1-3.19,2.72,1.42,1.42,0,0,0,.51.4v.12c.51.15.68,1.27.69,1.75Zm84-.2a.48.48,0,0,1,.14-.09,2,2,0,0,1,1.32-2.11v-.22a11.5,11.5,0,0,1-3.2-2.76,2.61,2.61,0,0,0-1.54.68c0,1.73,2,3.56,3.28,4.5Zm-2.19.41a1.16,1.16,0,0,0,.84-.87,2.32,2.32,0,0,0-.55-.51,9.07,9.07,0,0,1-2-3.52,8.47,8.47,0,0,1-.93-1,1,1,0,0,0-.68.23q-.07.85-.12,1.71a12.31,12.31,0,0,1-1.66.9c.38,1.08,1.63,1.94,2.5,2.64l.2,0a6.69,6.69,0,0,1,.3-3.15c.26.08.47.82.58,1.08a24.69,24.69,0,0,1,1.48,2.41Zm-54.06.27H68a1.45,1.45,0,0,1,.5-.76c.93,0,1.05.06,1.19,0a2.33,2.33,0,0,0-.05-.28c-.76-.3-1.49-.61-2.23-.92a13.26,13.26,0,0,1,.17,1.76,2.73,2.73,0,0,1,.24.17ZM42.26,77a.84.84,0,0,1,.19-.09c.62-1.19,1.37-2.33,1.9-3.57h.13a7.57,7.57,0,0,1,.36,3.15,8.45,8.45,0,0,0,2.72-2.7c-.6-.31-1.19-.6-1.79-.89,0-.55-.08-1.1-.11-1.64-.64-.37-.79,0-1.28.49S43,75.15,42.44,75.15c-.7.86-.71.93-.18,1.84Zm43.62-.15c-1.91-.8.71-5.12,1.85-4,.36,1.33-.49,2.47-1,3.63a1.53,1.53,0,0,1-.8.38Zm-7.41.09c0-.09,0-.09-.2-.15-.48-.93-.79-1.93-1.35-2.84,0-.85.24-1.22,1.2-1.06.85.89,2.7,3.81.35,4.05ZM97,77.06c-.36-.94-.73-1-1.71-.94a1,1,0,0,1,0-.6c.7-.19,1.33-.68,2-.84a8.33,8.33,0,0,0-.2,1.57,2.25,2.25,0,0,1,.13.7l-.19.11Zm-21.41.11c0-.1-.07-.19-.11-.28a1.05,1.05,0,0,1,1-.43c.13.12.11.2.11.38a1.56,1.56,0,0,1-1,.33Zm31.19,0H107c0-.74,0-1.48,0-2.22-.26-.28-.9-1.17-1.3-1.17,0,.76,0,1.52,0,2.28.35.36.7.74,1.07,1.11Zm-17.91.09-.44-.37c0-.14,0-.28.06-.4.54,0,1.06,0,1,.74-.21,0-.41,0-.6,0Zm-31.24.21c0-.72,0-1.44,0-2.15A2.63,2.63,0,0,1,58.82,74a6.79,6.79,0,0,1-.09,2.43H58.6a4.49,4.49,0,0,1-1,1Zm7.77,0a5.63,5.63,0,0,1,.61-.08c1.12-.47.86-1.84.44-2.76-.51-.68-2.55-3-3.42-1.86,0,.09.84.48,1.58.93.23.53,1,.84,1,1.54-.23.09-.45.18-.66.28a1.13,1.13,0,0,0,.41,2Zm-8.58,0a5.71,5.71,0,0,1-1.53-.8c0-.71,0-1.42,0-2.1a4.09,4.09,0,0,1,1.7.68,19.83,19.83,0,0,1,0,2.22Zm50.72-.19c.56-.28,1.13-.56,1.71-.83,0-.74,0-1.48,0-2.23a7.7,7.7,0,0,0-1.59.8,8.54,8.54,0,0,0-.09,2.26Zm-8.76.05L98,77c-1.25-2.16,1.31-4,3.07-4.67.23,0,.58.19.5.45-.88.24-2.69,1.22-2.69,2.27.84.38,1.42,1,.76,1.91a1.56,1.56,0,0,1-.94.42Zm-23.24.22c.28,0,.55-.07.85-.09.54-.3,1.17-1,.38-1.42-.89-.13-1.61.15-1.8,1a1.32,1.32,0,0,0,.57.5Zm13.39,0c.35,0,.73,0,1-.26.13-1.12-1.76-2-2-.7.19.52.54.69,1,1Zm0,.35c-2.1-.74-1.4-2.75,0-4A1.6,1.6,0,0,1,91,75.92c-.26.59-.57,1.52-1.15,1.87-.31.07-.63.14-.94.23Zm-13.16.06a2,2,0,0,0,1.68-1.27A2.8,2.8,0,0,0,75.7,74c-2.73.22-1.88,3.18,0,4.07Zm-2.24.63c.28-.07.38,0,.59-.26,0-.38,0-.74,0-1.1-.32-.71-.92-2.41-1.93-1.61a3.06,3.06,0,0,0,.58,1.43,3.91,3.91,0,0,0,.8,1.54Zm17.54,0a1.78,1.78,0,0,1,.35,0,5.38,5.38,0,0,0,1.39-3l-.16-.16c-1.16,0-2.41,2.39-1.58,3.2Zm37.78-.12a.84.84,0,0,0-.23-.07c0-.43-.15-1.38-.58-1.52a.53.53,0,0,1,0-.12.66.66,0,0,0-.43-.06c-1.33.92-2.7.51-2.83-1.16.09-.26.19-.52.3-.76a.26.26,0,0,1,.14,0c0-.65,1.48-.54,1.88-.44s1.35.81,1.5,1.22l.37.22c.07,1.41.2,2.21.19,2.67l-.3.06Zm-93.73.47.49-.11c.29-.82.25-1.63,1.34-1.74,1.41,1.37,3.37-.62,2.23-2.19-1.55-1.23-2.61.41-3.76,1.23a26.23,26.23,0,0,1-.3,2.81Zm94.81-.2-.1-.06a15.23,15.23,0,0,1-.23-2.79c.43-2.48,1.75-3.93,3.32-5.78l.21-.06a26.7,26.7,0,0,1-.24,3.69c-.25.81-.47,1.64-.69,2.47a6.05,6.05,0,0,1-2.27,2.53ZM34,79.41a11.6,11.6,0,0,1-2.62-7.93c.06-.17.11-.34.18-.5s0,0,.09,0a9.64,9.64,0,0,1,3.1,5.56c0,.62.14,2.73-.75,2.9Zm40.42-.13a87.78,87.78,0,0,1,16-.19c-.09-.26-.16-.51-.23-.76a2.14,2.14,0,0,0-.65.22A2.19,2.19,0,0,1,87,77.14h-.25c-.9,1-1.93-.09-2.21-.94-.7-.32-1.37-.64-2-1-.72-.1-1.58.56-2.19.93-.31.82-.62,1.34-1.55,1.43-.5-.06-.71-.18-1-.22a1.91,1.91,0,0,1-2.81,1H74.7a5.82,5.82,0,0,0-.31,1Zm-2.29.63c0-.09,0-.09-.3-.21-.6-.82-.67-2-1.36-2.76-.22-1,.13-1.35,1-.75.46.72,2.06,3.25.7,3.72Zm20.48,0c-1.17-.37.39-3.09.83-3.59a1.35,1.35,0,0,1,1.06-.4,1.22,1.22,0,0,1,.2.58,10.37,10.37,0,0,0-1.32,2.77,1.43,1.43,0,0,1-.77.64Zm-22.31.68c-.53-.34-.64-.94-.85-1.49-.46-.88-1.08-1.46-.61-2.41a4.78,4.78,0,0,1,.54,0c1,.82,2.05,2.67,1.37,3.88a3.14,3.14,0,0,0-.45,0Zm24,.12a1.09,1.09,0,0,0,.66-.43c.77-1.59.77-1.59,1.37-2.7.1-1.09-.56-1.15-1.29-.37-.4.6-2,2.9-.74,3.5Zm-32,.16c-.67-.65-1.37-1.44-.45-2.18,1.78-.51,1.67,1.69.45,2.18Zm40,0a1.75,1.75,0,0,1-.36-1.9c1.8-1.11,1.85,1.4.36,1.9Zm25.23,0c-.74-.58-1.51-.18-2.28-.3v-.34a2.43,2.43,0,0,1,2.31.45,1,1,0,0,0,0,.19Zm-58.84.47A6.27,6.27,0,0,1,67.1,77.8c1-1,1.74,1.42,2,2.12.09.57.25.91-.08,1.38a3,3,0,0,0-.42,0Zm-32.17.21c0-1.06,3.26-1.46,2.58-.44a3,3,0,0,0-2.58.44Zm72.47-.19-.35-.1c0-.16-.28-.41-.37-.57,0-1.4.71-1,1.78-1,1-.69.66-1.57.36-2.48a.41.41,0,0,0-.11,0c-.07-.16-.07-.16-.48-.55,0-.28,0-.55,0-.83.75,0,1.35,1.41,1.61,2,.35,1.81-.16,2.55-1.62,3.49q-.42,0-.81.09Zm-13.3.07c-.65-1,.74-3,1.38-3.66a1.28,1.28,0,0,1,.75-.06c.3.81-.18,1.19-.62,2s-.53,1.62-1.51,1.77Zm-40.28.27c.61-.14,1-.33,1-1.06-.42-.84-.9-.75-1.7-.49a1.94,1.94,0,0,1-.44-2.87c.51-.4.46-.63.49-1.25-.89,0-1.65,1.79-1.81,2.48,0,1.87.63,2.63,2.42,3.19Zm-9.81.2a21.68,21.68,0,0,1,0-2.55c-.34-.06-1.25,1.51-1.73,1.61a6.23,6.23,0,0,1,1-3.45l2.39-2.34a21,21,0,0,1-1.38,6.49c-.13.18-.13.18-.27.24Zm73.13-.3c-.91-1.46-1-3.39-1.39-5-.06-.55-.11-1.1-.15-1.64a.47.47,0,0,1,.16,0c1.7,1.61,3.55,3.1,3.23,5.65h-.16c-.44-.43-1-1.26-1.51-1.48a5.27,5.27,0,0,1-.18,2.48Zm-54,.28a3.37,3.37,0,0,1-.9-.43c.14-.79.63-1,1.26-1.47,1.33,0,1.61,1.35.39,1.86-.26,0-.5,0-.75,0Zm34.84-.08a4.22,4.22,0,0,0,1.22-.26,2.38,2.38,0,0,0,0-.26c-.6-2-3-1.26-2.06.13a2.26,2.26,0,0,0,.79.39Zm23,0a19.43,19.43,0,0,1-.16-2.73,10.85,10.85,0,0,1-.17-2c.3-.23.77-.57.88-.93.38,0,.61.22.93.44v.12l.22,0v.12c.14,0,.14,0,1.06.72a2.32,2.32,0,0,0,2.36-.13h.27a2.33,2.33,0,0,1,.12.92,8.9,8.9,0,0,0-3.57.65.42.42,0,0,0-.19,0c0-.21-.09-.42-.12-.62a.25.25,0,0,0-.11,0,12.16,12.16,0,0,1-1.52,3.44Zm-80.65.41a16.63,16.63,0,0,1-1.42-3.48h-.16a6.56,6.56,0,0,0-.23.62,14.37,14.37,0,0,0-3.87-.5c.05-.45.19-.88.72-.88a2.58,2.58,0,0,0,2.27,0c.42-.31,1.71-1.53,2.2-1.53a2.91,2.91,0,0,0,.88,1.12,36.13,36.13,0,0,0-.29,4.64Zm86-.21h.11c-.18-.74-1.78-1-2.34-.7,0,.12,0,.24.06.38.49,0,1-.09,1.52-.06l.65.38Zm-68.17.51c.48,0,1.54-.13,1.7-.63-.32-.84-1-1.54-2-1-.39.64-.39,1.2.27,1.62Zm-23.54.24A4.32,4.32,0,0,1,37.38,82c.68,0,1.08.12,1.33.11.07-.11.07-.11.07-.44-.23-.07-.44-.14-.65-.19-.67,0-2.07.44-2.06,1.25Zm68.28-.19c.76-.1,1.1-.21,1.13-1.07-.48-.74-.69-.77-1.49-.37-1.07.85-.68,1,.36,1.44Zm-42,.28a1.1,1.1,0,0,0,1-.55c0-2-2.7-.56-1,.55Zm39.6.08c-.76-.36-1-.82-.45-1.55.49-.26,1.16-.23,1.32.39,0,.76-.12,1-.87,1.16Zm-30.85.45a5.35,5.35,0,0,0-1.68-1.25.36.36,0,0,1,0-.14,2.1,2.1,0,0,0,.54-.8,6,6,0,0,0,1,.1,1.49,1.49,0,0,0,.59-.79c.82-.16,1,.23,1.68-.46,5.38-.84,11.2-.64,16.65-.37.59.06,1.19.14,1.8.23a1.29,1.29,0,0,0,1.74.49c.44.91.61.94,1.59.82.2.56.25.6.25.75a4.18,4.18,0,0,0-1.55,1.2c-1.19,0-1.19,0-5.34-.37a125.52,125.52,0,0,0-17.23.59Zm57.16-.13a3.48,3.48,0,0,0-2.27-.48c-.08-.13-.08-.13-.06-.39a2.12,2.12,0,0,1,2.37.76.21.21,0,0,0,0,.11Zm-8.22.1c0-.08,0-.08.17-.12v.12Zm-9.28.45c-.32-.11-.63-.19-.95-.27A3.73,3.73,0,0,1,110,82.3a2.3,2.3,0,0,1,2,1.16c-.22.35-.92.32-1.29.34Zm-57.46.34-.7-.27v-.28a3,3,0,0,1,1.92-.9c.09.34.2.69.31,1-.25.36-1.11.38-1.53.42Zm-17.56.09c.13,0,.13,0,.42-.38a3,3,0,0,1,2.28-.74c.08-.12.08-.12.08-.38-.81-.51-2.78.55-2.78,1.5Zm86.42-.32a18,18,0,0,1-.42-1.86,4.8,4.8,0,0,0-.22,1.38c-.19-.61-.37-1.24-.55-1.84,0-.38.1-.74.16-1.1,0-2.19-1.51-3.56-1.12-5.84a.22.22,0,0,1,.09-.07,16.56,16.56,0,0,1,1.48,2.79c.36,2.17.32,4.37.7,6.54Zm-73.63.53a10.8,10.8,0,0,1,.17-3.5C50,78.5,50,78.5,50.09,78.5a8.43,8.43,0,0,1-.15,4.09c-.28.38-1,1.74-1.43,1.85Zm67.24-.27A16,16,0,0,1,114.32,82a14.46,14.46,0,0,1,0-4h.13A11.47,11.47,0,0,1,116,81.7c0,.8-.08,1.61-.11,2.42l-.14,0Zm12.67.33.14,0c-.37-.51-1.67-1.66-2.42-1.11q0,.15.06.33c.75,0,1.84.06,2.22.83Zm-64.3.5a1.57,1.57,0,0,1-.5-2.15,2.17,2.17,0,0,1,1.67.82c-.05.89-.25,1.24-1.17,1.33Zm-28.44.32c0-.28,0-.28.1-.4h.13c0-.54,1.23-1.06,1.63-1.18h.67a.77.77,0,0,1-.11.5,3.11,3.11,0,0,0-2.42,1.09ZM100,85c1.28-.23,1.36-1,1.11-2.14a2.21,2.21,0,0,0-1.8.95c.06.66.1.87.69,1.19Zm-28.3.32c-.22-1.09-.22-1.09-.2-1.28A13.23,13.23,0,0,1,74,83.73c4.83-.34,9.64-.38,14.49-.32,1.42.11,2.84.25,4.28.37l.35.14c0,.19,0,.19-.24,1.21a142.35,142.35,0,0,0-21.16.23ZM61,85.46c-1.25-.94-.36-1.63.66-2.14l.38,0c.22.79.36,1.63-.39,2.16-.23,0-.44,0-.65,0Zm42,0c-.78-.49-.66-1.4-.33-2.17a2,2,0,0,1,1.49.94c.08,1-.25,1.18-1.16,1.23Zm25.5,0a2.84,2.84,0,0,0-2.1-.82,2.82,2.82,0,0,1,0-.41,2.18,2.18,0,0,1,2.26,1.17l-.14.06Zm-92.87.69a3.42,3.42,0,0,1,2.26-.94c.07-.12.07-.12.07-.52a2.5,2.5,0,0,0-2.33,1.46Zm74.91-.15a6.32,6.32,0,0,1-1.58-.5c0-.15,0-.15.58-1.38.68,0,2.31,1,2.16,1.77a4.79,4.79,0,0,1-1.16.11Zm-57.17.41a3.69,3.69,0,0,0-.42-.17c0-1,1.29-1.8,2.16-1.81A5.46,5.46,0,0,1,55.62,86a6.89,6.89,0,0,1-2.27.45Zm51.94,0a1.71,1.71,0,0,1-.58-1c.47-.81.08-1.32-.13-2.1a2,2,0,0,0,1.63-1.19,2.23,2.23,0,0,1,1.49-.37c.29.82-1.57,4.52-2.41,4.68Zm-46.46.23A18.92,18.92,0,0,1,56.76,82a2.87,2.87,0,0,1,.05-.31,2,2,0,0,1,1.7.49c.48.72.69,1,1.6,1.08a.69.69,0,0,1,0,.17c-.7,1,.38,2.87-1.33,3.21Zm69.73-.18h.1c-.26-.55-2.11-1.83-2.1-.71a3.25,3.25,0,0,1,2,.71ZM57,87l1-.15v-.28a19.52,19.52,0,0,1-1.93-4.3,2.17,2.17,0,0,0-.86.11c-.15,1.44,1,3.4,1.74,4.62Zm50.25-.2c.29-.09.62-.67.81-.93a10.79,10.79,0,0,0,1.35-3.73c-.33,0-.67-.1-1-.13-.12.15-.12.15-.69,1.91a16.91,16.91,0,0,1-1.49,2.66,3,3,0,0,1,1,.22Zm-71.67.47A3,3,0,0,1,37,85.82l.77-.07c0,.66-.51.56-1.1.72-.32.25-.68.67-1.08.76Zm25,.56-1.14-.56v-.14A4,4,0,0,0,60.59,86c.86,0,1.18.18,1.89-.29A2.58,2.58,0,0,0,63,85h.19c.48,1.08,2.11.44,2.63-.19.26-.91.36-1.46-.45-2.11v-.14c1.83-.61,2-2.73,0-3.31a2.81,2.81,0,0,0-1.54.56A1.78,1.78,0,0,0,62.79,78c-1.59-.08-2.13.55-2.19,2l-.82,0a2.07,2.07,0,0,0-1.36,1.15c-.46-.07-.91-.12-1.37-.17-.27-1.43-1-1.65-2.39-1.57A1.48,1.48,0,0,1,55,77.34c.83.26,1.79,1,2.6,1,.49-.54,1-1,1.5-1.57,1.36-.79,3.62-1.18,4.86,0,.34,1.15,1.39,1.46,2.57,1.23a21.21,21.21,0,0,0,1.36,3.28,1.78,1.78,0,0,1,.55.74A1.56,1.56,0,0,0,68.17,85v.16c-.92,1.07-2.8,2.7-4.36,2.52a1.64,1.64,0,0,0-2.89.06l-.35,0Zm42.94-.16a5,5,0,0,0,1.33-.56,1.48,1.48,0,0,1,0-.21c-.24-.2-.59-.69-.84-.8A1.67,1.67,0,0,1,101.78,85c-.31,0-.72.42-1,.55H100c-1.4-.6-1.55-1.91-.43-2.94v-.11C98.6,82.19,98.26,82,98,81c0-1.57,1.52-2.06,2.71-1.22a1.52,1.52,0,0,1,.21,0c.19-1.13.34-1.74,1.69-1.85,1.35.39,1.4.94,1.41,2.24.84-.11,2,0,2.23,1a6.49,6.49,0,0,0,1.36-.17c0-1.62.52-2.2,2.29-2.07.45-.72.17-1.25-.29-1.91-.91,0-1.69,1-2.54,1q-.66-.69-1.32-1.35a4.44,4.44,0,0,0-5.11-.32,2,2,0,0,1-2,1.53c0,.19-.1.39-.16.6-.51.92-1.1,2.56-1.92,3.23v.11a1.54,1.54,0,0,1,0,2.84.76.76,0,0,1,0,.15c1,1.22,2.42,2.66,4.19,2.65a1.63,1.63,0,0,1,2.82.08Zm25-.08a9,9,0,0,0-.77-.58,4,4,0,0,0-1.1-.19c-.08-.11-.08-.11-.08-.32.47-.35,2,.5,2,1.09Zm-92.94.71c.28-.22.56-.45.86-.66.54-.23,1.14,0,1.1-.74-.65-.31-1.85.83-2,1.4Zm74-.27c.27,0,.55,0,.83,0,.1-.77-1.31-1.68-2-1.68-.51.8-.51.8-.52.94.24.43,1.19.63,1.64.78Zm-55.09.33L54,88.17c0-.92,1.32-1.3,2-1.6.3.16.43.62.53.91-.43.66-1.26.68-2,.84ZM121,88.05l.09,0a16.73,16.73,0,0,0-.26-5.23c-.17-.56-.66-2.4-1.3-2.4-.06.09-.06.09-.26,2.11,0,.69,0,1.38,0,2.07a7.3,7.3,0,0,0,1.77,3.5Zm-77.66.4a6.88,6.88,0,0,0,1.4-1.89c.81-1.78.43-3.6.17-5.46h-.14c-1.49,2-1.34,5-1.43,7.35Zm85-.11c.24-.48-1.14-1-1.48-1,0,.1,0,.21,0,.33a4,4,0,0,1,1.47.64Zm-92.47.82c0-.78,1-1.22,1.69-1.29.06.12.06.12.06.45-.3.07-.6.16-.89.25s-.72.55-.86.59Zm64,.07a6.89,6.89,0,0,1-3.22-3,.93.93,0,0,1,0-.24,8.75,8.75,0,0,0,4,2.17c0,.21,0,.41,0,.64a1.31,1.31,0,0,1-.77.38Zm-35.11.3a7.34,7.34,0,0,0,3.19-2.88c-.13,0-.13,0-1.33.85a10.88,10.88,0,0,1-2.4.91c-.08.16-.08.16-.08.55.19.19.4.38.62.57Zm63.62-.22a2.48,2.48,0,0,0-1.42-.65c0-.12,0-.22,0-.32.42,0,1.61.4,1.43,1Zm-14.51.14s0,0,0-.07h.12s0,0,0,.07ZM35.93,90a4.07,4.07,0,0,1,1.68-.67c0-.27,0-.27-.06-.39-.59-.07-1.62.38-1.62,1.06Zm68.1-.29c-1-.34-.56-.59-.38-1.45.39-.16.77-.3,1.17-.44,0,.35.06.71.1,1.07.23.4.23.4.23.53a3.15,3.15,0,0,1-1.12.29ZM59.88,90c-.63-.26-.41-.41-.15-1,0-.24.05-.49.09-.73,1.07.05.91.55,1.4,1.24,0,.5-1,.45-1.34.47ZM97,89.81c.37,0,1.65.1,2-.23-1.83-1.32-3.59-2.93-3.36-5.38A2.17,2.17,0,0,0,96.4,84c.8-.92.34-1.59-.83-1.48-1.64.66-1.91,2-1.91,3.61A4.71,4.71,0,0,0,97,89.81ZM65.94,90c.54,0,1.1-.07,1.66-.09a4.6,4.6,0,0,0,3.05-5.88c-.56-1-2-2-2.79-.78-.08,1,.22,1.17,1.17,1.24-.12,2.46-1.49,4-3.52,5.27,0,0,0,.09,0,.14l.47.1Zm62.22.32h.12c-.27-.51-.71-1.11-1.42-1-.06.14-.06.14,0,.41a2.89,2.89,0,0,1,1.32.63Zm-10.42.06h.12a12.09,12.09,0,0,0-1.62-4.89l-1.62-2.2c-.12-.2-.81-1.63-1-1.63a12.35,12.35,0,0,0,2.26,6.66,23.14,23.14,0,0,0,1.86,2.06Zm-71.09.36.21-.16c2.17-2.42,3.89-5,3.88-8.36-.8,1.31-.8,1.31-2.25,3.37a14.72,14.72,0,0,0-1.84,5.15ZM36,91c0-.75.92-1.17,1.62-1.11,0,.57-.19.49-.7.56-.31.17-.62.36-.92.55Zm67.89-.23a5,5,0,0,0,2.5-.62c.94-.83,1.86-2.08.41-3-1.32,0-1.93,1.13-1,2.07a1,1,0,0,0,0,.23,5.08,5.08,0,0,0-.43.38c-.72.31-3,.38-3-.74,1.4-.92-.27-2.76-1.28-1.15,0,1.65,1.18,2.45,2.76,2.78Zm-44.1.34a6.82,6.82,0,0,0,1.87-.27c1.1-.68,2.27-1.85,1.37-3.16-1.31-.48-1.94.67-1,1.59,0,.43-.55.85-.92,1.06a2.57,2.57,0,0,1-2.52-.58c0-.36.24-.5.45-.76a1.15,1.15,0,0,0-.69-1.48c-1.44,0-1.61.75-1.15,2a5,5,0,0,0,2.58,1.61Zm-23.61.64a2,2,0,0,0,.66-.34l.84-.1c.07-.12.07-.12.05-.49a1.69,1.69,0,0,0-1.59.75.86.86,0,0,0,0,.18Zm91.89-.42a1.91,1.91,0,0,0-1.3-.6v-.44a1.43,1.43,0,0,1,1.42,1ZM36.35,92.5c.27-.64.87-.71,1.5-.72v.4a5.43,5.43,0,0,0-1.5.32Zm91.82-.17a1.32,1.32,0,0,1,.05-.23,1.71,1.71,0,0,0-1.46-.87.52.52,0,0,0,0,.41,4.78,4.78,0,0,1,1.44.69Zm-91.49.89c.09-.45.75-.56,1.17-.52.13.74-.5.43-1.17.52Zm91.09-.17a1.63,1.63,0,0,0-1.14-.44v-.4a1.23,1.23,0,0,1,1.26.84Zm-6.85.09h.18c0-1.47-.09-3-.11-4.43a8.94,8.94,0,0,1-2.46-4.23c0-1,.07-1.46.06-1.93-1-1.72-1.24-3.68-2.45-5.28H116c-.09.68-.15,1.38-.22,2.06l.64,1.41c.18,1.38-.23,2.83,0,4.17a16.08,16.08,0,0,1,1.5,3.06,12.74,12.74,0,0,0,3,5.16Zm-77.55.49c.16-.08.16-.08.92-1h.11C44.85,91.73,45.62,91,46,90a22.4,22.4,0,0,1,1.68-4.49h.12c0-.12,0-.12.19-.4,0-1.39-.38-2.81,0-4.19.47-1.07.59-1.17.67-1.48-.1-.57-.21-1.14-.3-1.7-1.33.86-1.51,2.81-2,4.21l-.5,1c-.06,1.71,0,2.61-.79,4.09-.67,1-1.07,1.47-1.12,1.63h-.11c-.19.2-.36.41-.54.64,0,1.45,0,2.89,0,4.32Zm84-.08a3.1,3.1,0,0,0-.81,0c0-.21-.07-.24,0-.42a1.17,1.17,0,0,1,1.09.41l-.33,0Zm-89.7.51-.86,0v-.17h.12v-.11a1.61,1.61,0,0,1,.87-.14c.11.12.11.12.16.42l-.29,0Zm86.66,1.61.28-.26c1.28-3.33.86-7.83.33-11.24-.48-2.15-.48-2.15-.91-3.73a.49.49,0,0,0-.14,0,11.38,11.38,0,0,0-1.2,4.51c.4.84.4.84,1,2.32a22.46,22.46,0,0,1,.65,8.37ZM40,96.32h.12a32.11,32.11,0,0,1,0-6.79c.19-.71.37-1.41.56-2.1s.57-1.26.87-1.88c.29-1.64-.47-3-1.07-4.45l-.16,0A34.5,34.5,0,0,0,39,90.79c.07.81.14,1.62.23,2.42A9.1,9.1,0,0,0,40,96.32Zm50.84-.13c-.37-.61-1.6-.51-1.79-1.3l3.92,0a5.11,5.11,0,0,1-2.13,1.33Zm-17.38.19c-.39-.26-1.72-1-1.85-1.35,1.35,0,2.7,0,4.06,0,0,0,0,.05.06.08a8.37,8.37,0,0,1-2.27,1.31Zm-12.56.06-1.88-1.21a.82.82,0,0,1,0-.14c1.38,0,2.76,0,4.16,0a5.63,5.63,0,0,1-2.27,1.39Zm-28.09.43a27.46,27.46,0,0,0-2.53-9.08l-1-1.82a6.73,6.73,0,0,1,2.12-3.67.29.29,0,0,1,.14,0v-.12c2.47-1.77,5.15-3.08,8.25-1.92,0,.08,0,.19,0,.29-.3,1.26-.61,2.54-.9,3.81a34,34,0,0,0-.24,9.5A8.28,8.28,0,0,1,39,95.36a4.84,4.84,0,0,0-4.25,0c-.49.34-1,.69-1.45,1.06a.77.77,0,0,1-.33.34v.12Zm98.63-.39a.08.08,0,0,1,.07,0c.14-.94.27-1.87.41-2.8a14.22,14.22,0,0,1,1-3.88,22.12,22.12,0,0,1,2-4.32c-.2-2.41-2.72-4.14-4.63-5.3-.68-.24-1.37-.46-2-.68-.93-.1-3.44-.35-4,.55a47.42,47.42,0,0,1,1.55,8c0,1.1,0,2.21,0,3.33-.15,1.15-.31,2.29-.46,3.44,2.54-1,4.31-.35,6,1.68ZM111,97.94a8.12,8.12,0,0,0-1.71-1.43.5.5,0,0,1,0-.14,4.68,4.68,0,0,0,1.27-.34c.42-.29.42-.29.47-.27,0,.72.06,1.44.1,2.18Zm-20.38,4.41a.24.24,0,0,0,.12,0c0-1.82,0-3.65-.06-5.46a9.57,9.57,0,0,0-1.81-1.09c0,1.79,0,3.58,0,5.38l1.75,1.17Zm-16.68.21a7,7,0,0,0,1.87-1.2c0-1.79,0-3.58,0-5.36-.49.2-1.59.65-1.81,1.11,0,1.81,0,3.62,0,5.45Zm-32.75.27c-1.32-1.08-1.32-1.08-2.34-1.83v-.1c3-1.12,2.08-3.6,1.79-6.22,0-.86,0-1.71,0-2.55.19-2.93,1.4-5.44,2.14-8.23,0-.38,0-.76,0-1.12h-.14c-.07.26-.13.54-.19.81a24.77,24.77,0,0,1,.74-6.71c.16-.34.87-1.81,1.25-1.93-.07.6-.13,1.2-.2,1.81-.32,1.48-.91,2.62-.9,4.19.28,1-.26,2-.44,3.07s-.15,2.07-.22,3.12c0,2.59.13,4.91.14,7.18,0,.15-.06.28-.1.44a12,12,0,0,0-1.45,8l-.08.11Zm82-.34c1-.89,1-.89,2.56-2a9.81,9.81,0,0,0-1.23-.75c-1.28-1.65-.85-3.4-.65-5.38,0-1.13,0-2.25,0-3.39-.13-.86-.13-.86-.6-3.07-.46-1.42-1.15-2.8-1.59-4.23h-.07c.24,3.5,0,7,.14,10.5a11.82,11.82,0,0,1,1.58,4.55c0,2.88-.16,3.68-.12,3.82Zm-44.43.37-2.26,0c0-.34,0-.69,0-1,3.88,0,7.77,0,11.67,0,0,.31-.06.64-.1,1l-9.36.15Zm43.05.3c0-.75-.08-1.51-.1-2.27a29.13,29.13,0,0,0-1.81-5.15c-.43-1.25-1.24-3-1.09-4.37,1.5,2,1.5,2,2.64,3.3a9.79,9.79,0,0,1,1.29,5.37c-.12,1,0,2.53-.93,3.12Zm-79.34.41c-1.22-1.67-.69-4.64-.24-6.48.69-2.08,2.29-3.69,3.59-5.36,0,.15,0,.15-.89,3.52a44.41,44.41,0,0,0-2,5.54,23.75,23.75,0,0,0-.18,2.77Zm84.07.14c.17-.61.34-1.19.53-1.78,0-.53.07-1.07.12-1.6A2.69,2.69,0,0,0,128.72,97c.56,0,1.07,1.56,1.23,2a7.09,7.09,0,0,1,.08,1.26,5.06,5.06,0,0,1-2.53,3c-.33.14-.66.28-1,.44ZM38,104.33c-1.89-1-3.46-2-3.47-4.26.16-.67.41-2.17,1.18-2.42,0,1.16-.06,1.81.8,2.7a5,5,0,0,0,1,.62,5.84,5.84,0,0,0,.54,3.24.38.38,0,0,0-.09.12Zm38.64.3a.33.33,0,0,1-.12,0c0-.36,0-.7,0-1,.24,0,.24,0,11.6-.11q0,.49.06,1c-.07,0-.07,0-11.57.19Zm29,5.08c1.92-.32,2.8-.57,4.05-2.11,1.22-3.91-3.35-4.63-6-5.57-.3-.17-.59-.34-.9-.49A2.77,2.77,0,0,1,101.55,98c1.68-3,5.42-1.79,8.27-2.2.22-.14.8-.45.8-.76a7.34,7.34,0,0,1-1.56.15,19.6,19.6,0,0,0-5.77-.15c-2.31.86-4.58,2.32-4,5.16,1,2.49,3.48,2.84,5.93,3.35.41.15.81.32,1.21.49,1.34,1,2,2,1,3.56-2.49,1.6-5.39.49-7.3-1.51a.34.34,0,0,0-.13,0,5.38,5.38,0,0,0,4,3.48l1.55.2Zm-5.76.08c.08-1,.08-1,.11-2.38.19,0,.89,1,1.21,1.25v.11c.55.37.55.37.55.44a8.46,8.46,0,0,0-1.87.58Zm-6.72.55a.21.21,0,0,1,.12,0c0-4.82,0-9.65,0-14.47a8.65,8.65,0,0,0-1.75,1c0,7.33,0,7.33,0,12.39a10.55,10.55,0,0,0,1.62,1.13Zm-34.19.17c.17,0,.17,0,1.6-1,.37-4.09.2-8.33.17-12.43l-1.62-1.06c-.07,3.07-.07,3.07-.15,14.46Zm30-.1c0-1.88-.11-3.79,0-5.67.59-.36,1.19-.73,1.78-1.07,0,1.89,0,3.8,0,5.72a4.52,4.52,0,0,0-.53.28v.12l-1.27.62Zm-17.37.16c.42-.26,1.61-.8,1.75-1.22,0-12.25,0-12.25-.06-12.37-.52-.34-1-.68-1.5-1l-.23.05c0,7.27,0,7.27,0,14.56Zm-8.52,0,.24,0c.06-2.46.06-2.46.12-14.55-.28-.13-1.85,1-2,1.25,0,3.95,0,7.92-.07,11.88.17.76,1,1,1.66,1.47Zm12.67,0c-.54-.36-1.09-.72-1.61-1.08a38,38,0,0,1-.12-5.75c.47,0,1.47.82,1.9,1.09,0,1.9,0,3.79,0,5.71a.56.56,0,0,0-.2,0Zm13.22.78a4.87,4.87,0,0,1,2.5-1.34,6.73,6.73,0,0,1,1.83,1.27l-4.33.07Zm-29.79.15v-.17c.54-.35,1.36-1.12,2-1.12a19,19,0,0,1,1.73,1.13.33.33,0,0,0,0,.1c-1.27,0-2.51,0-3.75.06Zm12.43,0a4.23,4.23,0,0,1,2.2-1.34l1.81,1.22a.07.07,0,0,0,0,.06c-1.33,0-2.66,0-4,.06Zm33.5-.1c2.37-.07,4.43-.25,6.19-2,.37-.48.47-.54.52-.71h.13a5.18,5.18,0,0,0,.4-3.07,6,6,0,0,0-3.38-3.69,12.48,12.48,0,0,0-2.07-.5c-1.73-.36-4-1.36-2.8-3.45a4.57,4.57,0,0,1,.44-.44c2.58-1.15,4.55-.19,6.48,1.59a.1.1,0,0,1,0-.07c-1.21-2.85-4.73-3.21-7.35-2.27-1.45.8-1.64,1.47-1.63,3,.62,1.72,3,2.14,4.53,2.56,1.91.82,3.25,1.4,3.9,3.46a3.64,3.64,0,0,1-1.5,3.42v.11a7.79,7.79,0,0,1-3.85.89c-1.64-.21-4-1.08-5.25.51a17,17,0,0,1,5.2.67Zm10.55.44a14.08,14.08,0,0,0-1.46,0c.07-.21.18-.24.35-.35v-.1h.12c0-.21.51-.5.61-.73l1.41-1.78c.52-.92,1-1.89,1.42-2.83a15.23,15.23,0,0,0,.68-4.44,19.29,19.29,0,0,0-.48-2.27,16.39,16.39,0,0,0-5-6.9,28.33,28.33,0,0,0-5.19-3c-.11-1.4.87-.73,1.71-.46.93.48,1.88,1,2.82,1.47a35,35,0,0,1,3,2.33,14.22,14.22,0,0,0,1.36,1.56c2.34,3.31,3.69,6.67,2.94,10.77a22.85,22.85,0,0,1-1.66,4c-.66.76-1.6,2.47-2.64,2.82Zm-58.16.3,7.39-.08c0-.18,0-.37,0-.55-.68-.13-.8-.32-.86-1,.07-11.89.07-11.89.15-15.06a1,1,0,0,1,.81-.49c0-.19,0-.38,0-.56-.38-.06-7.26,0-7.35,0v.63c.35,0,.67.14.79.5,0,7.6,0,7.6-.15,15.47-.41.66-.85.21-.76,1.13Zm12.62,0c-.07-1,.12-.5.65-1.1a3,3,0,0,1,.11-.45q0-7.6,0-15.17c-.21-.37-.37-.37-.75-.49,0-.21,0-.42,0-.62s.14-.06,7.37-.09c0,.07,0,.07.06.55-.81.37-.86.49-1,1.3,0,1.63,0,3.27,0,4.91l4.66,0c.19-2.67,0-5.47,0-8.13-.26-.26-2.71-.09-3.18-.09,0-.7,0-1.41,0-2.12.8-.4,2.47.24,3.15-.22,0-.77,0-1.55.06-2.31A6,6,0,0,1,83.38,88a9.87,9.87,0,0,1,.17,2.43c1,0,2,0,3,0a5.66,5.66,0,0,1,0,2.21c-1,0-2.06.06-3.06.1q0,4.08.08,8.22l4.53-.08a1.43,1.43,0,0,1,.08-.22c0-1.6,0-3.21,0-4.79a2.29,2.29,0,0,0-.27-.88c-.15-.09-1.19-.44-.65-.84l7.35-.09c0,.19,0,.4,0,.6-.45.25-.59.32-.74.78q0,7.47.07,15c.14.45.14.45.3.64.6.15.56.11.57.7l-.2.1-7.23,0c-.42-.55.65-.76.8-1.18,0-2.23,0-2.23,0-5.59-3.8,0-7.58,0-11.36,0a2.67,2.67,0,0,0-.26.09c0,4.76,0,4.76.08,5.72.25.36.37.38.81.48,0,.16,0,.33,0,.5a.23.23,0,0,0-.07.07c-2.47,0-4.92.08-7.37.12Zm35.73-.13,2.31-.26a22.44,22.44,0,0,0,2.47-.95v-.1c.12,0,.12,0,.8-.56a5.25,5.25,0,0,0,1.55-4.57c-.19-.5-.39-1-.57-1.46-1.6-2.36-3.37-2.9-6.21-3.47a8.94,8.94,0,0,1-1.46-.79c-1-1.27.23-2,1.39-2.26a5.42,5.42,0,0,1,4.9,2.51l.77,0a.94.94,0,0,1,.07-.3c-.14-2-.15-3.93-.12-5.89l-.61,0c-1.31,1-3.55.3-5,.12l-2.13.06c-.55.12-1.09.26-1.61.4a7.44,7.44,0,0,0-3,2.24,4.47,4.47,0,0,0-.13,4.47c1.46,1.87,3.93,2.39,6.17,2.81,1.41.68,2.56,1.42,1.63,3-2.85,1.41-5.82-.35-7.2-2.91-.21,0-.42,0-.61,0,0,2.6.34,4.94-.61,7.46a.42.42,0,0,0,0,.16,5.46,5.46,0,0,1,.58,0c1.51-1,3.2-.34,4.83,0l1.78.19Zm-56.93.29-.61-.6c-1.87-2.31-3.34-4.41-3.72-7.42a16.19,16.19,0,0,1,.78-5.66c.36-.79.74-1.57,1.12-2.35s1-1.45,1.55-2.16c2.23-2.29,5.09-4.7,8.36-5.35.07.31.16.62.25.93a30.55,30.55,0,0,0-5.19,2.87c-.67.6-1.35,1.24-2,1.89-.49.6-1,1.22-1.45,1.85a16.3,16.3,0,0,0-2.1,5.47,14,14,0,0,0,2,7.47,26.82,26.82,0,0,0,2.38,2.85v.12c-.45,0-.91,0-1.35.09Zm69.84.12c.77-2.53,2.93-4.43,4.92-6.08a10.32,10.32,0,0,0,1.57-1.19c2.25-1.38,4.56-2.3,5.46-4.84,0-1.84-.92-4.08-3-4.29a.52.52,0,0,0,0,.18c1,1.23.92,2.64-.51,3.42a2.16,2.16,0,0,1-2.6-3.12c1.58-1.72,3-1.45,5-.61,2.55,1.85,2.34,4.72.62,7.06-1.57,1.61-3.14,3.22-4.69,4.83-1.72,1.63-4.23,4.35-6.75,4.64Zm-.91.22H118c1-3.57,4-5.77,6.72-8.13a7.72,7.72,0,0,0,2-3c0-.29,0-.58,0-.87a.32.32,0,0,0-.13,0,19.38,19.38,0,0,0-3.85,3.21c-1.85,1.14-1.41-1.41-1.43-2.53a32.21,32.21,0,0,0-2.1-6.38c-.46-1.43-.46-1.43-.94-3.17a28.24,28.24,0,0,1-3.7-4.67c-.82-2-2-4.73-1.12-6.92h.16a.39.39,0,0,0,.21.24c0-1.7.12-3,.12-4.15,0,0,0,0,.08,0a10.8,10.8,0,0,0,1.19,2l.12-.06a10.09,10.09,0,0,0,.37-2.39c.62.13.65.93,1.21,1.06-.12-1-.23-2.1-.34-3.15-.67-.21-1.3-1.13-1.8-1.63h-.1c0,.76-.08,1.52-.11,2.29a7.52,7.52,0,0,1-2.67,1.36,3.85,3.85,0,0,1-1.13-1c-.16,0-.16,0-.68.25v.15c1.63,1.35,2.46,2.75,1.86,4.89a4.73,4.73,0,0,1-1.5,1.55.23.23,0,0,0,0,.09c1.05.44,2.1.8,2.28,2a2.55,2.55,0,0,1-1.25.56s0,.1,0,.17a2.42,2.42,0,0,1,.83,1.88,6.66,6.66,0,0,1-1.73.28c0,.07,0,.07.41.67a2.52,2.52,0,0,1,.21.93c-.19.07-.36.16-.54.24a15.4,15.4,0,0,0,3,1.87l2.34,2c.6.67,1.2,1.37,1.8,2.08a15.76,15.76,0,0,1,3,8.87,14.11,14.11,0,0,1-4.21,8.57v.19l1.2.63Zm-72.14.42c-4-1.63-6.75-5.2-9.81-8.07-2-2.14-3.62-4.56-1.95-7.4,1.74-1.94,4.54-2.52,6.23-.2a2,2,0,0,1-1.33,2.8H37.68a2,2,0,0,1-.82-3.42l0-.09c-2.26,0-3,2.46-2.94,4.29.55,2,2.36,2.9,4.11,3.82,3,2.09,6.21,4.54,7.82,7.86,0,.12,0,.24.05.37l-.24,0Zm1,.17a7.44,7.44,0,0,0,1.41-.73c-.07-.14-.07-.14-1-1.1-1.11-1.5-1.11-1.5-2.15-3a22,22,0,0,1-.94-2.32,14.56,14.56,0,0,1,1.63-9.76,33,33,0,0,1,1.94-2.7A26,26,0,0,1,53.8,89a.56.56,0,0,1,.09-.19l-.63-.2c-.24-.47.29-1.16.53-1.52a3.46,3.46,0,0,1-1.74-.6,2.28,2.28,0,0,1,1-1.67,1.09,1.09,0,0,1,0-.17,2.66,2.66,0,0,1-1.26-.7c0-.76,1-1.28,1.5-1.63a3.31,3.31,0,0,0,.91-.37,4.52,4.52,0,0,1-1.62-1.63,4,4,0,0,1,.78-3.93l1.08-.88v-.16a1.35,1.35,0,0,0-.73-.24,11.9,11.9,0,0,0-.86.94,6.59,6.59,0,0,1-3-1.39c0-.72,0-1.42-.07-2.13-.2,0-1.15,1.26-1.78,1.49a15.74,15.74,0,0,0-.3,3.36c.24-.34.66-1.14,1.18-1.14.08.82.17,1.65.26,2.48l.14,0,1.35-2.23c.18,3,.18,3,.31,4l.15-.22a.23.23,0,0,1,.11.07c.05.46.13.94.2,1.42,0,3.64-1.56,6.13-3.65,9-1.19,1.35-1.19,1.35-1.29,1.4-.38,1.24-.74,2.5-1.1,3.76q-.7,1.58-1.38,3.18a27.26,27.26,0,0,0-.67,3.33c0,.65.26,3-1.16,2.24a19,19,0,0,0-4-3.6c-.7,1.06.6,2.79,1.17,3.57,2.65,2.15,5.81,4.46,7.15,7.7.07.27.14.56.21.86Zm73.41,1.49a10.09,10.09,0,0,0,2.1-.84,8.19,8.19,0,0,1,3.25-1.21c.47-.29,2.36-1.4,2.35-1.9l-2.55,0-2.7.59a23.79,23.79,0,0,1-3.8,1.84c0,.07.75.84,1.35,1.55Zm-75.64.38a1.79,1.79,0,0,1,.35-.09c.17-.2,1-.92,1-1.12a14.06,14.06,0,0,1-3.58-1.91l-1.09-.36a18.43,18.43,0,0,0-4.38-.41c-.14.43,2.41,1.81,2.57,1.92a50.82,50.82,0,0,1,5.14,2Zm76.91,1.37c-.21-.31-.72-.81-.65-1.19,2.21-1.2,4.19-2.45,6.78-1.75a18,18,0,0,0,2.51.88,17.26,17.26,0,0,1,2.22.45c.71.38,1.41.75,2.13,1.15,0,0,0,0,0,.08a16.17,16.17,0,0,1-3.74.14l-1.81-.45a21.15,21.15,0,0,0-3.2-.21c-1.42.25-2.8.72-4.22.9Zm-89.63.52a5.79,5.79,0,0,1-1.6-.35c.72-.44,1.44-.85,2.17-1.27a17.61,17.61,0,0,0,5.05-1.51,8.67,8.67,0,0,1,4.51.82c.85.46,2.21,1,2.28,1.14-.19.32-.37.63-.54.94-2.1,0-4.12-.74-6.24-.8a41.57,41.57,0,0,1-5.63,1Zm49.46,1A84.13,84.13,0,0,0,92.65,117l4.09-.93a4.8,4.8,0,0,1,3.86,1.58,26.31,26.31,0,0,0,2.94-.41c.54-.38.71-1.11,1.43-1.4a.34.34,0,0,1,0-.1,9,9,0,0,1,2.18-.74c.67,0,.67,0,.88-.07a5.33,5.33,0,0,1,3-1.53c.25-.2.49-.37.73-.54v-.11a8.28,8.28,0,0,0,1.61-1.09v-.1a1.92,1.92,0,0,1,.35-.18v-.12a9.78,9.78,0,0,0,2.37-2.66,13.24,13.24,0,0,0,2-6.77c-.14-.65-.29-1.29-.41-1.93a17.16,17.16,0,0,0-4.13-6.44c-.93-.79-.93-.79-1.07-.82v-.12c-.57-.36-1.11-.72-1.65-1.08-.86-.44-2.41-1.4-3.29-1.39a4.87,4.87,0,0,1-2.37,1.28c-1.77,0-3.19-.15-4.21-1.72l-.28,0a5,5,0,0,1-5.36.13c-.15-.13-.87-.63-.88-.82-.78,0-1.34-2.6-1.57-3.08-.26,0-.51-.1-.75-.13a117.24,117.24,0,0,0-20.27.34c-.12.19-.47,1.5-.69,2a6.06,6.06,0,0,1-3.58,2.54,5.13,5.13,0,0,1-3.7-.85l-.19,0c-1.71,2.34-3.73,2.33-6.17.95l-.41-.35h-.25a26.26,26.26,0,0,0-5.11,2.76v.13a4.41,4.41,0,0,0-1.48,1.36h-.12a30.79,30.79,0,0,0-2.56,3.63,12.91,12.91,0,0,0-1.06,4.36,14.69,14.69,0,0,0,2.36,7H49c.31,1.17,2.47,2.69,3.44,3.26a12.1,12.1,0,0,0,1.31,1,5.21,5.21,0,0,1,2.83,1.42A5,5,0,0,1,61,117.45a15.08,15.08,0,0,0,3.13.4c2.32-2.2,4.36-1.49,7.28-.8a97,97,0,0,0,9.79,1Zm49.86.44a7.62,7.62,0,0,0,2.94-.34c-2.66-.9-5.17-1.91-8-1.89a16,16,0,0,0-2.22.55c1.16.18,2.31.38,3.49.58,1.26.36,2.52.83,3.8,1.1Zm-99.25.6a18.91,18.91,0,0,0,2.23-.09,31.37,31.37,0,0,1,7-1.59v-.12a20.77,20.77,0,0,0-2.59-.52c-2.75,0-5.11,1.11-7.7,1.93a.46.46,0,0,0,0,.13c.35.08.7.16,1.06.26Zm74.83,0s0-.07,0-.08c.49-.85,1.38-1,2.29-1.27.38.2,1,.51,1.09.94-1.11.2-2.23.31-3.35.41Zm-48.85.37c-1-.15-2-.3-3-.43,0-.31.59-.63.82-.76A2.4,2.4,0,0,1,58,119.53Zm37.74,0v-.12a17.42,17.42,0,0,1,2-.78,77,77,0,0,0,8.4-1.39,9.47,9.47,0,0,1,1.92.09v.17a43.66,43.66,0,0,1-12.33,2Zm-28.66.25a54,54,0,0,1-8-1.29,7.45,7.45,0,0,1-1.88-.71,7.86,7.86,0,0,1,3.2.09c2,.43,2,.43,3.35.65A16,16,0,0,1,69,119.65v.1Zm53.49.64a7.74,7.74,0,0,1,.14-.84,3,3,0,0,1-.08-1.88h.22c0,.26,0,.52.08.79.31.53.44,1.78-.36,1.93ZM44,121c-.76-.73-.21-1.88.07-2.69h.21a2.53,2.53,0,0,1-.1,1.85c0,.27,0,.55,0,.84Zm86.3-.21a18.7,18.7,0,0,1-2.26-.42,13.74,13.74,0,0,0-4.16-1.62l-1.68.05a6.33,6.33,0,0,1-.39-1.26,32.33,32.33,0,0,1,6.62,1c.81.31,4.3,1.77,4.31,2.17-.81.09-1.63.11-2.44.13Zm-98.52.55a1.59,1.59,0,0,0-.27-.12c0-.09,1-.54,2.59-1.44a23,23,0,0,1,8.69-1.69c.11.32-.14.78-.24,1.08-.44.05-.72,0-2,0a12,12,0,0,0-3.93,1.5,26.48,26.48,0,0,1-4.88.66Zm87.51-.37c1.07-.22.52-1.76.51-2.5-.75.17-.45,1.34-.43,1.91-.12.41-.12.41-.08.59Zm-.86.4c0-.81-.37-2,.57-2.38-.05.22-.1.44-.15.69.09.48.27,1.53-.42,1.69Zm-14.91.07a42.75,42.75,0,0,0,7.33-1.5c0-.29-.2-.45-.36-.67-1.54.22-3.08.43-4.62.52-.2.14-2.35,1.55-2.35,1.65Zm-58.39.3h.25a.93.93,0,0,0-.16-.4c0-.59,0-1.15,0-1.72-.08-.24-.17-.47-.24-.69h-.21c-.07,1.14-.48,1.86.32,2.81Zm15.1,0c.23,0,.47-.06.71-.08a17.86,17.86,0,0,1-2.16-1.42c-1.73-.16-1.73-.16-4.78-.56a4,4,0,0,0-.28.4c.08.08.08.08,1.84.68,1.55.39,3.11.71,4.67,1ZM46.16,122c-.69-.76-.5-1.55-.44-2.5l.11,0c.75.54.32,1.68.5,2.53Zm71.39-.19c.73-.37.45-1.67.63-2.38-.94.23-.63,1.64-.63,2.38Zm-20.68.1c.72,0,1.46,0,2.19,0a15.2,15.2,0,0,0,5.75-2v-.12a3.83,3.83,0,0,0,.89-.74,27.92,27.92,0,0,0-3.36.62c-2.57.32-5.14.59-7.73.72a3.51,3.51,0,0,0-.43,1.11c.89.13,1.78.28,2.69.43Zm-31.42.34a21.68,21.68,0,0,0,5-.6,1.6,1.6,0,0,0-.7-1.17c-2.33,0-4.64-.22-7-.41a22.48,22.48,0,0,0-3.68-.65,4.22,4.22,0,0,0,.74.7v.1a13.52,13.52,0,0,0,5.59,2ZM47,122.31h.22a4.26,4.26,0,0,0-.45-2.41h-.14c-.05.08-.05.08-.15,1.5a3.62,3.62,0,0,0,.52.91Zm69.48-.08a8.12,8.12,0,0,1,.43-2,.54.54,0,0,1,.19,0c0,.56.06,1.74-.62,2Zm-9.26.27c-1.47-.64-1.47-.64-1.49-.69,4-.94,4-.94,5.19-1.27h.37a3,3,0,0,1-.2,1.81l-.23.05a2.29,2.29,0,0,0-3.27.07l-.37,0Zm-59.37.42c-.14-.2-.26-.41-.38-.61a8.89,8.89,0,0,1,.06-1.57h.16a4.35,4.35,0,0,1,.41,2.16,1.9,1.9,0,0,0-.25,0Zm67.77-.22a2.74,2.74,0,0,1,.47-1.94.82.82,0,0,1,.23,0c.07.65,0,1.68-.7,2ZM57,123.05a2.36,2.36,0,0,0-2.42-.54c-.75.42-.75.42-1,.45a2.9,2.9,0,0,1-.15-2.08c1.79.46,3.59.93,5.4,1.28a.23.23,0,0,0,0,.11l-1.9.78Zm57.79-.24c.68-.33.6-1.11.76-1.78-.75-.1-.83,1.33-.76,1.78Zm-65.86.45a2.53,2.53,0,0,1-.61-2h.21a3.12,3.12,0,0,1,.54,2l-.14.05Zm.81.17a2.71,2.71,0,0,1-.56-1.84c.78,0,.66,1.32.7,1.79l-.14.05ZM34,123.56a22.26,22.26,0,0,0,3.24-.5,24.69,24.69,0,0,0,2.47-1c1.38-.46,2.53-.69,2.6-.76,0-.39,0-.79,0-1.17-3.14-.59-5.81,1.55-8.2,3.27a1.21,1.21,0,0,0-.09.2Zm95.82-.43h.75V123c-2.2-1.5-5.25-4.23-8.21-3.49,0,.47,0,1-.05,1.43a3.85,3.85,0,0,1,.48,0c2.38.57,4.64,1.56,7,2.15Zm-15.37,1.16a6.74,6.74,0,0,0,3.27-1.06c1.42-.5,3-.52,3.58-2,.49-2.64-.58-4.16-2-6.28h-.1c-.38-.48-.38-.48-.41-.61h-.12c-.23-.69-1.85-1.39-2.43-1.66a5,5,0,0,0-4.14.55c0,.66-2.78.93-3.34,1.85,3.84,1.24,6.33,4.86,5.14,8.88a.42.42,0,0,0,0,.15l.52.17Zm-64.65.55a4.22,4.22,0,0,0,1-.12c-.15-.52-.27-1-.4-1.53s0-1,0-1.41a16.61,16.61,0,0,1,1.06-3,8.51,8.51,0,0,1,3.1-2.85l1.21-.43c0-.09,0-.16-.06-.23h-.12c-.21-.61-2.26-1-2.77-1.17V114A4.82,4.82,0,0,0,50.49,113a6.16,6.16,0,0,0-3.85,1.24v.12l-.15.06c-2.23,2-5.32,6.85-1.64,8.93a12.55,12.55,0,0,1,2.59.54s0,.07,0,.1a8.78,8.78,0,0,0,2.36.9Zm57.34.28h.17a4.19,4.19,0,0,1-.13-1.93c-1-.4-2-.78-2.94-1.1a26.84,26.84,0,0,0-4.31.3c.19.39,1.71,1.09,2.12,1.31l1.86.66a24.38,24.38,0,0,1,3.23.76Zm-49.73.48,4.66-1.25a30.12,30.12,0,0,0,2.66-1.49v-.11a24,24,0,0,0-4.4-.34,26,26,0,0,0-2.85,1.22,1.05,1.05,0,0,0,.11.56,6.72,6.72,0,0,1-.18,1.41Zm52.33.18c-1.08-.25-1.53-.39-2-1.4,0-1,.24-1.67,1.31-1.92a1.58,1.58,0,0,1,1.67,1c.64-.1,1-.92,1.23-1.47.2-2.86-2.07-4.57-4.61-5.28a15.06,15.06,0,0,0-2.7.22v-.12a3.82,3.82,0,0,0,.72-.53,5.18,5.18,0,0,1,5.69.65,7,7,0,0,1,2.34,5.73,3.78,3.78,0,0,1-3.69,3.13Zm2.76.16c.51,0,1,0,1.56,0a.3.3,0,0,1,0-.12c-1-.72-.81-.76-1.77,0v.12l.23,0Zm-58,.29c-2.28-.6-3.16-1.94-3.28-4.18a8.2,8.2,0,0,1,1.9-4.34A6.08,6.08,0,0,1,57.19,116c.69.12,2.17.36,2.42,1.11-.7,0-1.38,0-2.06,0a7.39,7.39,0,0,0-3.72,2c-1,1.35-1.46,2.47-.79,4.12.14.24.41.76.73.76.74-.82,1.34-1.25,2.44-.72,1.13.92.85,2.1-.35,2.81a6.21,6.21,0,0,1-1.38.21Zm-4,.2,1.81-.05v-.1c-1-.94-.73-.81-1.84.06a.92.92,0,0,0,0,.09Zm45,.22A5,5,0,0,1,93,124.32c-.13-.48-.25-1-.36-1.45,0-3.19,1.44-5.94,4.91-6.12a3.14,3.14,0,0,1,2.15.92,12.47,12.47,0,0,0-3.65.44,5,5,0,0,0-2.35,6.06c.28.42.79.91,1.31.82a1.55,1.55,0,0,1,1.77-1.5l.64.25c1.15,1.12.63,2.32-.75,2.87-.37,0-.74,0-1.11,0Zm-27,.31c-1.42-.36-2.21-1-1.55-2.49H67a1.52,1.52,0,0,1,2.56.16,4.6,4.6,0,0,0,.19.52c2.26,0,1.53-3.37,1.12-4.61-.8-1.27-.8-1.27-.83-1.4a7.43,7.43,0,0,0-2.2-1,21.73,21.73,0,0,1-3-.12v-.12c1.77-1.23,3.22-1.09,5,0,.1.08.45.51.61.51a7,7,0,0,1,1.33,5.78,4.52,4.52,0,0,1-1.8,2.27v.12a6.4,6.4,0,0,1-1.62.46Zm43.12.35h.93c-.11-.32-.71-.62-1-.82-1.78-.16-1.78-.16-3.29-.38q-2.68-.69-5.35-1.33a19.35,19.35,0,0,1-4-2.26c-1.66,0-3.28-.24-4.92-.42a2.76,2.76,0,0,0,.3,2h.3c.24-1.53,2.9-1.6,3.62-.41h.13c.16.36.31.72.49,1.08,2.51.64,5,1.46,7.57,1.91,1.72.18,3.49.31,5.19.63Zm-59.52.52a85.55,85.55,0,0,0,8.57-1.14c1-.32,1.89-.63,2.85-.93a14.82,14.82,0,0,0,2.39-.64,2.94,2.94,0,0,1,1.52-1.81,2.1,2.1,0,0,1,2.75,1h.18a2.56,2.56,0,0,0,.5-1.88l-.49-.05a41.43,41.43,0,0,1-4.57.49c-3.73,2.67-8.14,3.59-12.69,4.08-.33.15-.92.52-1,.88Zm56.59,1.82h.3c-.48-.67-.94-1.33-1.39-2l-2.25-.37c-2.17-.54-4.31-1.27-6.52-1.74.25.5,1.3.94,1.79,1.25a37.21,37.21,0,0,0,8.07,2.84Zm-53.06.49a50.16,50.16,0,0,0,5.26-1.37,23.48,23.48,0,0,0,5-2.53V126c-2.36.17-4.74,1.23-7,1.79a4.56,4.56,0,0,0-1.75.37,14.77,14.77,0,0,1-1.5,1.94Zm25,1.29v-.05h.07v.05Zm26.54.43a35.75,35.75,0,0,1-4.47-2.22l-3.08-2.33a.2.2,0,0,1,0-.1c1,.44,2,.89,2.95,1.35,1.26.41,2.52.81,3.78,1.24.11.12.48,1.1.92,2.06Zm-49.68.37c.28-.64.55-1.26.83-1.88a39.41,39.41,0,0,0,7.44-3.16.36.36,0,0,0,0,.14,37.21,37.21,0,0,1-6.19,4.12l-2.1.78Zm19.25.92c2.52-2.22,3-5.13,2.35-8.32H79c-.51,1-1.29,2.5-2.39,2.87.14-.18.82-.83.72-1.06h-.36c-.42.21-1.09,1.41-1.62,1.24.35-.32.82-.68.92-1.13a5.15,5.15,0,0,0-.56,0c-.29.35-1,1.09-1.51,1,.22-.19.95-.69.86-1.07l-.35-.06a2.34,2.34,0,0,1-1.51.86c.33-.24.92-.56.83-1l-.35,0c-.29.27-1,1-1.5.83.35-.29.78-.55.85-1-.58-.34-1.15.82-1.9.68,3.17-2.1,2.68-6.7.34-9.18a2.55,2.55,0,0,1,.4,0,69.28,69.28,0,0,0,10.75,1A70.6,70.6,0,0,0,93,117.61a2,2,0,0,1,.34,0c-2,2.35-2.6,4.66-1.35,7.55.29.35.59.69.89,1,.75.64.75.64.73.69-.5,0-.84-.45-1.17-.77-.42.05-.42.05-.55.14a2.27,2.27,0,0,0,.68.91c-.34,0-.83-.64-1.06-.87l-.58,0a.38.38,0,0,0-.09.12,11.07,11.07,0,0,1,.75,1c-.51,0-1-.52-1.29-.89a5.54,5.54,0,0,0-.59,0c0,.52.62.71.86,1.12l-.16,0a4.92,4.92,0,0,1-1.23-1.09,5.09,5.09,0,0,0-.54,0c-.28.28.55,1,.72,1.12a.44.44,0,0,0-.17,0,10,10,0,0,1-1.13-1.13,4.35,4.35,0,0,0-.5,0c0,.38.61.79.56,1-1.3-.63-1.41-2.14-2.35-3l-.17.1a12.25,12.25,0,0,0,.08,4.79l.69,1.74a15.94,15.94,0,0,0,1.36,1.73.13.13,0,0,0-.09,0,5.38,5.38,0,0,1-1.57-1.65,1.84,1.84,0,0,0-.78,0c0,.17,0,.17.38.88-.44-.36-1-1.6-1.65-1.37a3,3,0,0,0,0,.43,14.37,14.37,0,0,1-1-1.72c-.25-.76-.43-1.57-.52-1.68a.32.32,0,0,0-.14,0c-.17,1-.65,2.88-1.57,3.49,0-.1.1-.21.29-.69a2.24,2.24,0,0,0-.65.21c-.36.52-.86,1.48-1.53,1.68,0-.16,0-.16.8-1.18a1.2,1.2,0,0,0-.75.11,3.8,3.8,0,0,1-2.16,1.73Zm13.57.45a2.64,2.64,0,0,0,.94-.16c1.41-1,.6-3-1.13-2.22-.8.85-1.93.15-2.82-.22a4.59,4.59,0,0,0,3,2.6Zm-16.46.13a4.47,4.47,0,0,0,3.79-2.68,9.46,9.46,0,0,1-1.63.71l-1,0c-.93-.67-1.68-.63-2.33.37q0,.42,0,.87a2.47,2.47,0,0,0,1.12.76Zm-.22.68a25.25,25.25,0,0,0,5.66-1.2,7.17,7.17,0,0,0,3.12-3.36,5.1,5.1,0,0,1,.5.94,14.23,14.23,0,0,0,1.49,1.77,9.84,9.84,0,0,0,2.84,1.19c2,.39,4.68,1.29,5.51-1.19,0-2.11-1.75-2.86-3.44-1.66l-.45-.05a4.49,4.49,0,0,1-2.72-4.31h.09a6.27,6.27,0,0,0,2.16,1.83c2,.28,4.08-.45,6-.84.8-.09,1.6-.16,2.41-.24a3.45,3.45,0,0,1,1.16-.22,25.1,25.1,0,0,0,11.25,6,.78.78,0,0,1,0-.21,4.41,4.41,0,0,1-1.91-2.85,19.63,19.63,0,0,0,3.51.28l-.06-.21a11.82,11.82,0,0,1-2.42-2.37c.35-.22,1.69,0,2.15,0a13.76,13.76,0,0,0,4.82.3l-.06-.21a8.37,8.37,0,0,1-2.14-1.26s0-.07.07-.09c.65,0,2.61.14,3.12-.36-.07-.08-.07-.08-1.09-.46-.3-.19-.6-.36-.9-.53a.24.24,0,0,1,0-.09,9.36,9.36,0,0,0,4-1.48,17.56,17.56,0,0,1,1.91-.41,4.24,4.24,0,0,0,2-1.59,3.77,3.77,0,0,1,1.17.1c1.81.59,3.62,1.18,5.44,1.8a6.84,6.84,0,0,0,3.18,0v-.15a14.17,14.17,0,0,1-2.72-2.25,13.34,13.34,0,0,1,1.92.2,13.2,13.2,0,0,0,3.71-.46,1.94,1.94,0,0,0,.05-.2,8.57,8.57,0,0,1-3.08-1.46s0-.07,0-.09a8.44,8.44,0,0,0,3.58-1c0-.09,0-.17,0-.24a8.65,8.65,0,0,1-3-.85c.51-.09,3.47-.53,3.46-1.34l-1.63-.46a9.32,9.32,0,0,0-3.75-1.52c-1.25-.32-2.42-.9-3.69-1.11a22.52,22.52,0,0,1,2.93-2.33v-.17a55.86,55.86,0,0,0-6.21.2,79.87,79.87,0,0,0,7.28-7.56A11.17,11.17,0,0,0,132,99.89c.1-1,.1-1.83.21-3.64.38-3.53,1.13-7.43,3.34-10.35a7,7,0,0,0-1.7-4.58c-.12,0-.12,0-1.23-1-.9-.6-1.49-.89-1.94-1.18,2.67-2.65,2.67-6.2,2.65-9.75q0-.44.12-.84a.37.37,0,0,0-.15,0c-.16.25-.32.51-.47.77-.7.82-2.11,1.86-2.39,2.84a.33.33,0,0,0-.14,0q0-.63-.06-1.23c-.75-3.56-3.22-6.51-3.29-10.25h-.21a13.84,13.84,0,0,0-1.11,1.9,22.6,22.6,0,0,0-.65,2.76c-.58-.19-1.06-1.11-1.77-1.11.43,2.74.11,5.2,1.28,7.8a.44.44,0,0,0,0,.17,6.11,6.11,0,0,1-1.83-1.68c0-1.1,0-2.2-.07-3.29-.7-.7-1.41-1.41-2.09-2.11-.46,0-.84.37-1.26.37,0-.53,0-1.07,0-1.58-.38-.76-1.42-1.43-2-2.11a6.43,6.43,0,0,0-3,1.25c-.06,1.4-.06,1.4-.13,1.48-.88-.2-1.34-1.78-1.5-2.56a3.91,3.91,0,0,0,1.18,0,6.85,6.85,0,0,1,.55-.52c.09-.26.12-.71.42-.8.91,0,1.08-.3,1.36-1.14,1.5.35,2-.63,2.07-1.91,1-.11,1.17-.06,1.64-.94.56-.28.91,0,1.17-.81,0-1.17-.54-2.57-2-2.08-.38.4-.38.4-.54.47a1.13,1.13,0,0,0-1.48.69l-.21,0c-1.14-.73-2.07-.83-2.71.55-.68,0-1.37-.41-1.84.28h-.21c.14-.43.49-.53.92-.69a12.4,12.4,0,0,0,2-1.87,2.06,2.06,0,0,1,0-.34c-.93-.53-1.81-1.18-2.79-1.63-1.83-.23-1.83-.23-3.56-.56h-2c-.87.22-1.73.46-2.59.76-4.33,2.42-5.16,6.59-5.14,11.21l-.1.24c-4.3,2-4.46,2.09-9.87,4.62a.65.65,0,0,0-.18,0,6.36,6.36,0,0,1-.89-2.32c.09-.07.09-.07,1.3-.37a2.67,2.67,0,0,0,.71-.62,2.34,2.34,0,0,0,0-.88c-.2-.29-.2-.29-.23-.53,1.17-.21,1.45-.6,2.1-1.58.32-.21.65-.4,1-.59,1.06-.85,1-1.88.26-2.93v-.33a2.34,2.34,0,0,0,.06-2.05,1.82,1.82,0,0,0,.85-1.81c.19-.21.38-.4.57-.59.31-1.13-.65-1.79-.42-2.9.59-1.17,1.11-1.88,0-2.82,0-.21,0-.41,0-.62s-.2-.45-.28-.67c1.21-1.58,1-3.39-1.42-3l-.16-.14a8.77,8.77,0,0,0-4.35-4.49,5.88,5.88,0,0,1-1.1-.46,9.09,9.09,0,0,1-2-.44c0-.1,0-.1.14-.27.31-1-.38-1.5-1.15-1.89,0-1.24,0-1.24.05-1.4l1.45-.06a11.57,11.57,0,0,0,0-2.2l-1.49-.1-.06-1.54c-.82,0-1.66,0-2.5,0-.07.07-.13,1.45-.2,1.59-.37,0-1.21-.08-1.47.18,0,.69,0,1.4,0,2.1l1.45,0c0,.38,0,.78,0,1.18a9.59,9.59,0,0,1-1,.55,1.29,1.29,0,0,0-.32,1.35c.12.14.3.31.3.52-1.77.42-3.73.86-5.05,2.17-1.15.53-2,2.24-2.58,3.24-1.67-.22-2.71.27-2.24,2.06a7.32,7.32,0,0,0,.74,1.15,2,2,0,0,0-.1,1.11c-1.31,1-.5,1.79,0,3.1v.77c-.53,1-.86,1.82.19,2.55,0,.92,0,1.3.83,1.84a5.35,5.35,0,0,1-.41.82,2.49,2.49,0,0,0,.07.75c.55.93.2,1-.24,1.92,0,1.41.54,1.61,1.72,2.32.77,1.09,1,1.58,2.42,1.65,0,.14,0,.14-.26.5-.08,1.09.2,1.09,1.21,1.57l.87.2c.21.62-.77,2.14-1.27,2.57l-10-4.58c-.08-1.45-.16-2.89-.32-4.33-.19-.65-.39-1.3-.57-2-1.3-3-3-4.83-6.16-5.84a15.2,15.2,0,0,0-7.31.78c-.45.24-1.94,1.09-1.94,1.52a6.7,6.7,0,0,0,2.75,2.36v.21H52a2.23,2.23,0,0,0-1.54-.17,1.84,1.84,0,0,0-2-1c-.36.12-.83.4-1,.45-.49-.67-.86-.94-1.7-.66-.14-.07-.14-.07-.28-.28a1.53,1.53,0,0,0-1.77,2.49l.73.08c.22,1.09.67,1.09,1.65,1.08,0,.33.06.67.1,1,.44,1,1,1,2,1a1.57,1.57,0,0,0,1.48,1.15c.49.91.95,1.52,2.1,1.14.17.84-.84,2-1.42,2.56a.16.16,0,0,0-.09,0,7.49,7.49,0,0,1-.07-1.4,7,7,0,0,0-3-1.27c-.71.69-1.42,1.38-2.12,2.09,0,.54-.08,1.07-.12,1.61-.43.1-.78-.33-1.24-.33-.75.75-1.48,1.49-2.21,2.24,0,1.07,0,2.14,0,3.2a4.9,4.9,0,0,1-1.83,1.7,7.17,7.17,0,0,1,.35-.67A29.48,29.48,0,0,0,41,64.68c-.65-.2-1.29,1.09-1.8,1.09-.09-.7-.74-4.8-1.86-4.79a16.71,16.71,0,0,1-.42,2.38c-1.2,3-2.65,5.78-3.07,9a.26.26,0,0,0-.14,0c-1-1.25-2.17-2.2-2.65-3.78a.53.53,0,0,0-.16,0c-.07.12-.07.12-.13.84.07,1,.07,1,.09,4.14a12.86,12.86,0,0,0,2.5,5.88v.17c-2.9,1.65-4.57,3.23-4.68,6.57a29.37,29.37,0,0,1,2.5,5.44c.23,1.15.46,2.29.7,3.46.26,2.61.32,4.18.43,5.21l.48,1.61c.46.75.46.75,1.66,2.44,1.95,2.09,4,4.16,6,6.22a6.78,6.78,0,0,1-1.82-.13l-4,.07a.08.08,0,0,0,0,.07c.95.77,1.92,1.54,2.88,2.33a.15.15,0,0,0,0,.07c-1.75.41-3.2,1.33-5,1.51-1.43.47-2.67,1.37-4.14,1.76a1.14,1.14,0,0,0,0,.26,7.6,7.6,0,0,0,3.31,1.1,7.42,7.42,0,0,1-3,.76,1.09,1.09,0,0,0,0,.25,8.33,8.33,0,0,0,4,1.05,9.15,9.15,0,0,1-3.26,1.54v.27c1.82.82,3.88,0,5.74.09-1,.82-1.92,1.63-2.86,2.45v.15a14.7,14.7,0,0,0,5.1-.57,12,12,0,0,1,5.06-1.49c.13.06.13.06.55.77.37.26.74.51,1.11.79a9.68,9.68,0,0,0,1.78.23l1,.32a11.57,11.57,0,0,0,3.49,1.38c-.37.54-1.57.68-2.15,1v.21a29.24,29.24,0,0,0,3.63.22,8.13,8.13,0,0,1-2.34,1.25v.22c2.22.6,4.51-.36,6.79-.37-.07.67-1.36,1.59-1.88,2-.28.15-.75.28-.89.55a.61.61,0,0,0,.07.14,14.9,14.9,0,0,0,3.92-.31,4.94,4.94,0,0,1-2,2.61c-.08.12-.08.12-.1.38,4.36-.52,8.16-3.37,11.3-6.14.94,0,2.08.21,3.05.26l2.71.5a10.28,10.28,0,0,0,3.3.54,4.68,4.68,0,0,0,2.82-2A4.54,4.54,0,0,1,76,131a1.47,1.47,0,0,1-.58.06,2.14,2.14,0,0,0-3.13.48A1.94,1.94,0,0,0,73.64,134.41Z"/></g></g></svg>